<svg width="64" height="64" viewBox="0 0 64 64" fill="none" xmlns="http://www.w3.org/2000/svg">
<path d="M58.1043 43.4213V18.9475L37.7095 7.47583M26.2884 7.47583L5.89355 18.9475V43.4213M10.7883 51.0701L31.9989 63.0003L45.0516 55.6582L53.2095 51.0685M31.9989 22.2107L36.8937 25.0659L41.7884 27.9212V39.3423L36.8937 42.1976L31.9989 45.0529L27.1042 42.1976L22.2094 39.3423V27.9212L27.1042 25.0659L31.9989 22.2107ZM31.9989 22.2107V10.7896M41.7884 38.5265L53.2095 45.0529M22.2094 38.5265L10.7883 45.0529" stroke="white" stroke-width="2" stroke-linecap="round" stroke-linejoin="round"/>
<path d="M31.9992 10.7895C34.7025 10.7895 36.894 8.59805 36.894 5.89475C36.894 3.19146 34.7025 1 31.9992 1C29.2959 1 27.1045 3.19146 27.1045 5.89475C27.1045 8.59805 29.2959 10.7895 31.9992 10.7895Z" stroke="white" stroke-width="2" stroke-linecap="round" stroke-linejoin="round"/>
<path d="M5.89475 53.2109C8.59805 53.2109 10.7895 51.0194 10.7895 48.3161C10.7895 45.6128 8.59805 43.4214 5.89475 43.4214C3.19146 43.4214 1 45.6128 1 48.3161C1 51.0194 3.19146 53.2109 5.89475 53.2109Z" stroke="white" stroke-width="2" stroke-linecap="round" stroke-linejoin="round"/>
<path d="M58.1028 53.2109C60.8061 53.2109 62.9975 51.0194 62.9975 48.3161C62.9975 45.6128 60.8061 43.4214 58.1028 43.4214C55.3995 43.4214 53.208 45.6128 53.208 48.3161C53.208 51.0194 55.3995 53.2109 58.1028 53.2109Z" stroke="white" stroke-width="2" stroke-linecap="round" stroke-linejoin="round"/>
</svg>
