<svg width="65" height="65" viewBox="0 0 65 65" fill="none" xmlns="http://www.w3.org/2000/svg">
<path d="M63.9005 1.0995C63.9005 1.0995 44.6583 -0.250429 37.3717 6.99437C37.3039 7.10343 25.5811 18.7841 25.5811 18.7841L10.8429 21.7316L2 27.6264L25.5811 39.4162L37.3717 62.9957L43.267 54.1534L46.2146 39.4162C46.2146 39.4162 57.8961 27.6942 58.0052 27.6264C65.2505 20.3404 63.9005 1.0995 63.9005 1.0995ZM46.2146 21.7316C45.4329 21.7316 44.6831 21.421 44.1303 20.8683C43.5775 20.3155 43.267 19.5658 43.267 18.7841C43.267 18.0024 43.5775 17.2527 44.1303 16.7C44.6831 16.1472 45.4329 15.8367 46.2146 15.8367C46.9964 15.8367 47.7461 16.1472 48.2989 16.7C48.8517 17.2527 49.1623 18.0024 49.1623 18.7841C49.1623 19.5658 48.8517 20.3155 48.2989 20.8683C47.7461 21.421 46.9964 21.7316 46.2146 21.7316ZM16.7382 48.2585C13.7906 45.3111 7.89529 45.3111 4.94764 48.2585C2 51.2059 2 62.9957 2 62.9957C2 62.9957 13.7906 62.9957 16.7382 60.0482C19.6859 57.1008 19.6859 51.2059 16.7382 48.2585Z" stroke="#277AF7" stroke-width="2"/>
</svg>
