<svg width="26" height="26" viewBox="0 0 26 26" fill="none" xmlns="http://www.w3.org/2000/svg">
<rect width="26" height="26" fill="white"/>
<path d="M7.5179 5.41677C7.51762 5.99141 7.28907 6.5424 6.88254 6.94852C6.476 7.35465 5.92479 7.58264 5.35015 7.58236C4.77552 7.58207 4.22453 7.35352 3.81841 6.94699C3.41228 6.54046 3.18428 5.98924 3.18457 5.41461C3.18486 4.83997 3.41341 4.28899 3.81994 3.88286C4.22647 3.47673 4.77768 3.24874 5.35232 3.24902C5.92696 3.24931 6.47794 3.47786 6.88407 3.88439C7.29019 4.29092 7.51819 4.84214 7.5179 5.41677ZM7.5829 9.18677H3.24957V22.7501H7.5829V9.18677ZM14.4296 9.18677H10.1179V22.7501H14.3862V15.6326C14.3862 11.6676 19.5537 11.2993 19.5537 15.6326V22.7501H23.8329V14.1593C23.8329 7.47511 16.1846 7.72427 14.3862 11.0068L14.4296 9.18677Z" fill="#236EDE"/>
</svg>
