<svg width="58" height="58" viewBox="0 0 58 58" fill="none" xmlns="http://www.w3.org/2000/svg">
<path d="M20.25 57H8C6.14348 57 4.36301 56.3444 3.05025 55.1776C1.7375 54.0107 1 52.428 1 50.7778V7.22222C1 5.57199 1.7375 3.98934 3.05025 2.82245C4.36301 1.65555 6.14348 1 8 1H36C37.8565 1 39.637 1.65555 40.9497 2.82245C42.2625 3.98934 43 5.57199 43 7.22222V32.1111M50 57L57 50.7778L50 44.5556M39.5 44.5556L32.5 50.7778L39.5 57M18.5 4.11111H25.5M22 44.5556V44.5867" stroke="white" stroke-width="2" stroke-linecap="round" stroke-linejoin="round"/>
</svg>
