<svg width="64" height="64" viewBox="0 0 64 64" fill="none" xmlns="http://www.w3.org/2000/svg">
<path d="M2.26754 60.7561L23.8465 39.5243M51.0201 30.0827L44.5607 49.1493C44.4576 49.4549 44.2811 49.7316 44.0462 49.9558C43.8113 50.18 43.5248 50.3451 43.2112 50.4371L3.61368 62.0172C3.25694 62.1214 2.87797 62.1274 2.51802 62.0344C2.15807 61.9415 1.83092 61.7532 1.57219 61.49C1.31345 61.2268 1.13303 60.8989 1.05057 60.5418C0.968113 60.1848 0.986769 59.8123 1.10451 59.4649L13.9623 21.5186C14.0545 21.2461 14.2051 20.9964 14.4041 20.7863C14.603 20.5762 14.8455 20.4106 15.1152 20.3009L33.3813 12.9011C33.7527 12.7502 34.1611 12.7109 34.5552 12.788C34.9492 12.8652 35.3112 13.0555 35.5955 13.3348L50.5285 28.0309C50.7963 28.2941 50.9842 28.6255 51.0711 28.988C51.1579 29.3504 51.1403 29.7296 51.0201 30.0827Z" stroke="#277AF7" stroke-width="2" stroke-linecap="round" stroke-linejoin="round"/>
<path d="M51.4248 28.9079L61.014 19.4697C62.2853 18.2184 62.9995 16.5215 62.9995 14.7522C62.9995 12.9829 62.2853 11.286 61.014 10.0348L53.8255 2.95528C53.1957 2.3354 52.448 1.84366 51.6251 1.50817C50.8021 1.17268 49.92 1 49.0292 1C48.1385 1 47.2564 1.17268 46.4334 1.50817C45.6105 1.84366 44.8628 2.3354 44.233 2.95528L34.6439 12.3935M31.0429 32.4443C30.5704 31.9797 30.0096 31.6111 29.3924 31.3598C28.7752 31.1084 28.1137 30.9791 27.4457 30.9792C26.7778 30.9794 26.1164 31.109 25.4993 31.3607C24.8822 31.6123 24.3216 31.9811 23.8493 32.4459C23.3771 32.9108 23.0026 33.4626 22.7471 34.0699C22.4916 34.6771 22.3602 35.328 22.3604 35.9852C22.3605 36.6424 22.4922 37.2932 22.748 37.9004C23.0038 38.5075 23.3786 39.0591 23.851 39.5238C24.8052 40.4621 26.0991 40.9891 27.4481 40.9888C28.7972 40.9885 30.0909 40.4609 31.0446 39.5221C31.9983 38.5833 32.5339 37.3102 32.5335 35.9828C32.5332 34.6555 31.997 33.3826 31.0429 32.4443Z" stroke="#277AF7" stroke-width="2" stroke-linecap="round" stroke-linejoin="round"/>
</svg>
