<svg width="57" height="38" viewBox="0 0 57 38" fill="none" xmlns="http://www.w3.org/2000/svg">
<path d="M24.5966 14.1818V15.9751L19.3396 18.5246V18.5773C20.0077 18.8586 22.9439 20.3531 24.5966 21.1443V23.008C22.2231 21.7421 19.9549 20.5993 17.6165 19.3509V17.874C19.9549 16.6257 22.2231 15.4301 24.5966 14.1818Z" fill="#277AF7"/>
<path d="M30.5971 15.9751V14.1818C32.9355 15.4301 35.2036 16.6257 37.5772 17.874V19.3509C35.2388 20.5993 32.9355 21.7421 30.5971 23.008V21.1443C32.2322 20.3531 35.1509 18.8586 35.8542 18.5773V18.5246C35.6256 18.4366 35.186 18.1905 34.6058 17.9092L30.5971 15.9751Z" fill="#277AF7"/>
<rect x="1" y="1" width="54.37" height="35.58" rx="3.58666" stroke="#277AF7" stroke-width="2"/>
<path d="M3.75586 5.01074H17.5352" stroke="#277AF7" stroke-width="2" stroke-linecap="round"/>
<path d="M20.042 5.01074L52.6113 5.01075" stroke="#277AF7" stroke-width="2" stroke-linecap="round"/>
</svg>
