<svg width="57" height="38" viewBox="0 0 57 38" fill="none" xmlns="http://www.w3.org/2000/svg">
<path d="M24.5966 14.1818V15.9751L19.3396 18.5246V18.5773C20.0077 18.8586 22.9439 20.3531 24.5966 21.1443V23.008C22.2231 21.7421 19.9549 20.5993 17.6165 19.3509V17.874C19.9549 16.6257 22.2231 15.4301 24.5966 14.1818Z" fill="#F7F4FE"/>
<path d="M24.5966 14.1818H26.5966V10.8702L23.6657 12.4116L24.5966 14.1818ZM24.5966 15.9751L25.4693 17.7747L26.5966 17.228V15.9751H24.5966ZM19.3396 18.5246L18.4669 16.725L17.3396 17.2717V18.5246H19.3396ZM19.3396 18.5773H17.3396V19.9053L18.5635 20.4206L19.3396 18.5773ZM24.5966 21.1443H26.5966V19.8844L25.4602 19.3404L24.5966 21.1443ZM24.5966 23.008L23.6555 24.7727L26.5966 26.3413V23.008H24.5966ZM17.6165 19.3509H15.6165V20.5504L16.6747 21.1153L17.6165 19.3509ZM17.6165 17.874L16.6747 16.1097L15.6165 16.6745V17.874H17.6165ZM22.5966 14.1818V15.9751H26.5966V14.1818H22.5966ZM23.724 14.1756L18.4669 16.725L20.2123 20.3241L25.4693 17.7747L23.724 14.1756ZM17.3396 18.5246V18.5773H21.3396V18.5246H17.3396ZM18.5635 20.4206C19.1823 20.6811 21.9472 22.0933 23.7331 22.9482L25.4602 19.3404C23.9407 18.6129 20.8331 17.0361 20.1157 16.734L18.5635 20.4206ZM22.5966 21.1443V23.008H26.5966V21.1443H22.5966ZM25.5378 21.2433C24.3395 20.6042 23.1692 19.9969 22.0147 19.3977C20.8572 18.797 19.7157 18.2044 18.5584 17.5866L16.6747 21.1153C17.8557 21.7458 19.0175 22.3488 20.1721 22.948C21.3296 23.5488 22.4802 24.1459 23.6555 24.7727L25.5378 21.2433ZM19.6165 19.3509V17.874H15.6165V19.3509H19.6165ZM18.5584 19.6384C20.8911 18.3931 23.1547 17.1998 25.5276 15.9519L23.6657 12.4116C21.2914 13.6603 19.0188 14.8583 16.6747 16.1097L18.5584 19.6384Z" fill="white"/>
<path d="M30.5971 15.9751V14.1818C32.9355 15.4301 35.2036 16.6257 37.5772 17.874V19.3509C35.2388 20.5993 32.9355 21.7421 30.5971 23.008V21.1443C32.2322 20.3531 35.1509 18.8586 35.8542 18.5773V18.5246C35.6256 18.4366 35.186 18.1905 34.6058 17.9092L30.5971 15.9751Z" fill="#F7F4FE"/>
<path d="M30.5971 15.9751H28.5971V17.2308L29.728 17.7765L30.5971 15.9751ZM30.5971 14.1818L31.539 12.4174L28.5971 10.8469V14.1818H30.5971ZM37.5772 17.874H39.5772V16.6661L38.5082 16.1039L37.5772 17.874ZM37.5772 19.3509L38.5191 21.1153L39.5772 20.5504V19.3509H37.5772ZM30.5971 23.008H28.5971V26.365L31.5492 24.7668L30.5971 23.008ZM30.5971 21.1443L29.726 19.344L28.5971 19.8902V21.1443H30.5971ZM35.8542 18.5773L36.5969 20.4343L37.8542 19.9314V18.5773H35.8542ZM35.8542 18.5246H37.8542V17.151L36.5721 16.6579L35.8542 18.5246ZM34.6058 17.9092L35.4784 16.1095L35.4749 16.1079L34.6058 17.9092ZM32.5971 15.9751V14.1818H28.5971V15.9751H32.5971ZM29.6552 15.9461C31.9994 17.1975 34.272 18.3954 36.6463 19.6441L38.5082 16.1039C36.1353 14.8559 33.8717 13.6627 31.539 12.4174L29.6552 15.9461ZM35.5772 17.874V19.3509H39.5772V17.874H35.5772ZM36.6354 17.5866C34.4355 18.7609 31.9206 20.0172 29.645 21.2492L31.5492 24.7668C33.9504 23.4669 36.0421 22.4376 38.5191 21.1153L36.6354 17.5866ZM32.5971 23.008V21.1443H28.5971V23.008H32.5971ZM31.4682 22.9446C32.2983 22.543 33.4565 21.9617 34.4649 21.4608C35.5317 20.9308 36.3409 20.5367 36.5969 20.4343L35.1114 16.7203C34.6641 16.8993 33.6624 17.393 32.6853 17.8784C31.6498 18.3928 30.5311 18.9544 29.726 19.344L31.4682 22.9446ZM37.8542 18.5773V18.5246H33.8542V18.5773H37.8542ZM36.5721 16.6579C36.5932 16.666 36.5818 16.6626 36.5146 16.6302C36.4535 16.6007 36.376 16.5615 36.2711 16.508C36.0709 16.4058 35.7919 16.2616 35.4784 16.1095L33.7333 19.7088C33.9999 19.8381 34.2309 19.9576 34.4526 20.0708C34.6316 20.1621 34.9026 20.3014 35.1362 20.3912L36.5721 16.6579ZM35.4749 16.1079L31.4661 14.1738L29.728 17.7765L33.7368 19.7105L35.4749 16.1079Z" fill="white"/>
<rect x="1" y="1" width="54.37" height="35.58" rx="3.58666" stroke="white" stroke-width="2"/>
<path d="M3.75586 5.01074H17.5352" stroke="white" stroke-width="2" stroke-linecap="round"/>
<path d="M20.042 5.01074L52.6113 5.01075" stroke="white" stroke-width="2" stroke-linecap="round"/>
</svg>
