<svg width="26" height="26" viewBox="0 0 26 26" fill="none" xmlns="http://www.w3.org/2000/svg">
<path d="M22.7497 10.8333C19.2283 11.0375 15.8416 12.2583 12.9997 14.3476C10.1578 12.2583 6.77108 11.0375 3.24968 10.8333V14.04C2.67408 14.0411 2.1225 14.2708 1.7162 14.6785C1.3099 15.0863 1.08215 15.6386 1.08301 16.2142V17.3019C1.08301 18.5033 3.24968 19.6939 3.24968 19.6939V21.8681C6.12702 22.0532 8.90193 23.0072 11.2848 24.6306C11.8864 25.0482 12.4594 25.5056 12.9997 26C13.54 25.5056 14.1129 25.0482 14.7146 24.6306C17.0974 23.0072 19.8723 22.0532 22.7497 21.8681V19.4761C23.3253 19.475 23.8769 19.2453 24.2832 18.8376C24.6895 18.4299 24.9172 17.8775 24.9163 17.3019V16.2142C24.9172 15.6386 24.6895 15.0863 24.2832 14.6785C23.8769 14.2708 23.3253 14.0411 22.7497 14.04V10.8333ZM12.9997 23.2071C10.7528 21.5605 8.15875 20.4503 5.41634 19.9615V13.299C7.5181 13.7224 9.51359 14.563 11.2848 15.7711C11.8864 16.1887 12.4594 16.6461 12.9997 17.1405C13.54 16.6461 14.1129 16.1887 14.7146 15.7711C16.4857 14.5626 18.4812 13.7216 20.583 13.2979V19.9615C17.8406 20.4503 15.2465 21.5605 12.9997 23.2071ZM11.9163 8.66665H14.083V9.74998H11.9163V8.66665ZM11.9163 4.33331H14.083V5.41665H11.9163V4.33331Z" fill="black"/>
<path d="M11.9169 10.8333H14.0836V11.9167H11.9169V10.8333ZM9.75025 5.41666C10.0376 5.41666 10.3131 5.30253 10.5163 5.09936C10.7194 4.8962 10.8336 4.62065 10.8336 4.33333C10.8346 4.19221 10.8075 4.05229 10.754 3.92171C10.7005 3.79114 10.6215 3.6725 10.5217 3.57271C10.4219 3.47292 10.3033 3.39396 10.1727 3.34042C10.0421 3.28687 9.90221 3.25982 9.76108 3.26083C9.61953 3.26012 9.47922 3.2873 9.34817 3.34081C9.21712 3.39432 9.09789 3.47312 8.99729 3.57271C8.79413 3.77385 8.67918 4.04745 8.67775 4.33333C8.67631 4.61921 8.7885 4.89395 8.98963 5.09712C9.19077 5.30028 9.46437 5.41523 9.75025 5.41666Z" fill="black"/>
<path d="M16.2503 5.41667C16.8486 5.41667 17.3337 4.93164 17.3337 4.33333C17.3337 3.73502 16.8486 3.25 16.2503 3.25C15.652 3.25 15.167 3.73502 15.167 4.33333C15.167 4.93164 15.652 5.41667 16.2503 5.41667Z" fill="black"/>
<path d="M17.3337 8.66667H8.66699C7.8053 8.66581 6.97915 8.32312 6.36985 7.71381C5.76054 7.10451 5.41785 6.27836 5.41699 5.41667V3.25C5.41785 2.38831 5.76054 1.56216 6.36985 0.952853C6.97915 0.343546 7.8053 0.0008604 8.66699 0L17.3337 0C18.1953 0.0008604 19.0215 0.343546 19.6308 0.952853C20.2401 1.56216 20.5828 2.38831 20.5837 3.25V5.41667C20.5828 6.27836 20.2401 7.10451 19.6308 7.71381C19.0215 8.32312 18.1953 8.66581 17.3337 8.66667ZM8.66699 2.16667C8.37976 2.16695 8.10438 2.28118 7.90128 2.48428C7.69817 2.68739 7.58395 2.96277 7.58366 3.25V5.41667C7.58395 5.7039 7.69817 5.97928 7.90128 6.18238C8.10438 6.38548 8.37976 6.49971 8.66699 6.5H17.3337C17.6209 6.49971 17.8963 6.38548 18.0994 6.18238C18.3025 5.97928 18.4167 5.7039 18.417 5.41667V3.25C18.4167 2.96277 18.3025 2.68739 18.0994 2.48428C17.8963 2.28118 17.6209 2.16695 17.3337 2.16667H8.66699Z" fill="black"/>
</svg>
