<svg width="26" height="26" viewBox="0 0 26 26" fill="none" xmlns="http://www.w3.org/2000/svg">
<path d="M6.5 4.875C6.5 4.01305 6.84241 3.1864 7.4519 2.5769C8.0614 1.96741 8.88805 1.625 9.75 1.625H16.25C17.112 1.625 17.9386 1.96741 18.5481 2.5769C19.1576 3.1864 19.5 4.01305 19.5 4.875V8.26312C19.0239 8.43019 18.6116 8.74134 18.3204 9.15339C18.0292 9.56544 17.8735 10.0579 17.875 10.5625V4.875C17.875 4.44402 17.7038 4.0307 17.399 3.72595C17.0943 3.4212 16.681 3.25 16.25 3.25H9.75C9.31902 3.25 8.9057 3.4212 8.60095 3.72595C8.29621 4.0307 8.125 4.44402 8.125 4.875V10.5527C8.12444 10.0499 7.96782 9.55952 7.67676 9.14942C7.38569 8.73931 6.97453 8.42964 6.5 8.26312V4.875ZM17.875 17.0625V21.125C17.875 21.556 17.7038 21.9693 17.399 22.274C17.0943 22.5788 16.681 22.75 16.25 22.75H9.75C9.31902 22.75 8.9057 22.5788 8.60095 22.274C8.29621 21.9693 8.125 21.556 8.125 21.125V17.0722C8.12444 17.5751 7.96782 18.0655 7.67676 18.4756C7.38569 18.8857 6.97453 19.1954 6.5 19.3619V21.125C6.5 21.987 6.84241 22.8136 7.4519 23.4231C8.0614 24.0326 8.88805 24.375 9.75 24.375H16.25C17.112 24.375 17.9386 24.0326 18.5481 23.4231C19.1576 22.8136 19.5 21.987 19.5 21.125V19.3619C19.0239 19.1948 18.6116 18.8837 18.3204 18.4716C18.0292 18.0596 17.8735 17.5671 17.875 17.0625ZM1.86387 13.2372L5.11388 9.98725C5.26644 9.8349 5.47328 9.7494 5.68889 9.74955C5.9045 9.7497 6.11121 9.8355 6.26356 9.98806C6.41591 10.1406 6.50142 10.3475 6.50126 10.5631C6.50111 10.7787 6.41532 10.9854 6.26275 11.1378L4.39887 13H8.9375C9.15299 13 9.35965 13.0856 9.51202 13.238C9.6644 13.3903 9.75 13.597 9.75 13.8125C9.75 14.028 9.6644 14.2347 9.51202 14.387C9.35965 14.5394 9.15299 14.625 8.9375 14.625H4.39887L6.26275 16.4872C6.41532 16.6398 6.50103 16.8467 6.50103 17.0625C6.50103 17.2783 6.41532 17.4852 6.26275 17.6378C6.11018 17.7903 5.90326 17.876 5.6875 17.876C5.47174 17.876 5.26482 17.7903 5.11225 17.6378L1.86225 14.3878C1.71101 14.2364 1.62573 14.0314 1.625 13.8174V13.8076C1.62597 13.5958 1.70998 13.3927 1.859 13.2421L1.86387 13.2372ZM20.8878 17.6378L24.1378 14.3878L24.141 14.3829C24.2897 14.2321 24.3737 14.0292 24.375 13.8174V13.8076C24.3737 13.5942 24.2885 13.3899 24.1378 13.2389L20.8878 9.98887C20.7354 9.83631 20.5287 9.75051 20.3131 9.75036C20.0975 9.75021 19.8906 9.83571 19.7381 9.98806C19.5855 10.1404 19.4997 10.3471 19.4995 10.5627C19.4994 10.7783 19.5849 10.9852 19.7372 11.1378L21.6011 13H17.0625C16.847 13 16.6403 13.0856 16.488 13.238C16.3356 13.3903 16.25 13.597 16.25 13.8125C16.25 14.028 16.3356 14.2347 16.488 14.387C16.6403 14.5394 16.847 14.625 17.0625 14.625H21.6011L19.7372 16.4872C19.5847 16.6398 19.499 16.8467 19.499 17.0625C19.499 17.2783 19.5847 17.4852 19.7372 17.6378C19.8898 17.7903 20.0967 17.876 20.3125 17.876C20.5283 17.876 20.7352 17.7903 20.8878 17.6378Z" fill="black"/>
</svg>
