<svg width="26" height="26" viewBox="0 0 26 26" fill="none" xmlns="http://www.w3.org/2000/svg">
<path d="M4.33366 22.75C3.73783 22.75 3.22758 22.5376 2.80291 22.113C2.37824 21.6883 2.16627 21.1784 2.16699 20.5833V8.66663C2.16699 8.0708 2.37933 7.56054 2.80399 7.13588C3.22866 6.71121 3.73855 6.49924 4.33366 6.49996H8.66699V4.33329C8.66699 3.73746 8.87933 3.22721 9.30399 2.80254C9.72866 2.37788 10.2386 2.16591 10.8337 2.16663H15.167C15.7628 2.16663 16.2731 2.37896 16.6977 2.80363C17.1224 3.22829 17.3344 3.73818 17.3337 4.33329V6.49996H21.667C22.2628 6.49996 22.7731 6.71229 23.1977 7.13696C23.6224 7.56163 23.8344 8.07152 23.8337 8.66663V20.5833C23.8337 21.1791 23.6213 21.6894 23.1967 22.114C22.772 22.5387 22.2621 22.7507 21.667 22.75H4.33366ZM10.8337 6.49996H15.167V4.33329H10.8337V6.49996ZM21.667 16.25H16.2503V18.4166H9.75033V16.25H4.33366V20.5833H21.667V16.25ZM11.917 16.25H14.0837V14.0833H11.917V16.25ZM4.33366 14.0833H9.75033V11.9166H16.2503V14.0833H21.667V8.66663H4.33366V14.0833Z" fill="#277AF7"/>
</svg>
