<svg width="26" height="26" viewBox="0 0 26 26" fill="none" xmlns="http://www.w3.org/2000/svg">
<g clip-path="url(#clip0_594_2931)">
<path d="M20.9801 8.22577C20.625 6.36934 19.6339 4.69477 18.1773 3.49033C16.7207 2.28589 14.8898 1.62695 12.9997 1.62695C11.1096 1.62695 9.27867 2.28589 7.82207 3.49033C6.36546 4.69477 5.37433 6.36934 5.01931 8.22577C3.51973 8.49269 2.17459 9.3118 1.24916 10.5216C0.32373 11.7314 -0.114813 13.244 0.0200147 14.7611C0.154842 16.2783 0.853253 17.6899 1.97752 18.7175C3.10178 19.7452 4.57028 20.3142 6.09343 20.3125H6.49968V18.6875H6.09343C4.93363 18.6905 3.81816 18.2422 2.98306 17.4374C2.14796 16.6325 1.65875 15.5344 1.61895 14.3753C1.57915 13.2161 1.99189 12.087 2.76982 11.2268C3.54775 10.3666 4.62985 9.84281 5.78712 9.76627L6.46637 9.71996L6.53949 9.04314C6.71288 7.45088 7.46819 5.97874 8.66047 4.90924C9.85275 3.83974 11.398 3.24823 12.9997 3.24823C14.6014 3.24823 16.1466 3.83974 17.3389 4.90924C18.5312 5.97874 19.2865 7.45088 19.4599 9.04314L19.533 9.71996L20.2122 9.76708C21.3672 9.84666 22.4461 10.3717 23.2214 11.2314C23.9967 12.0911 24.4079 13.2183 24.3682 14.3753C24.3284 15.5323 23.8409 16.6286 23.0085 17.4331C22.176 18.2376 21.0636 18.6874 19.9059 18.6875H19.4997V20.3125H19.9059C21.4291 20.3142 22.8976 19.7452 24.0218 18.7175C25.1461 17.6899 25.8445 16.2783 25.9793 14.7611C26.1142 13.244 25.6756 11.7314 24.7502 10.5216C23.8248 9.3118 22.4796 8.49269 20.9801 8.22577Z" fill="black"/>
<path d="M18.6875 17.875V16.25H16.9804C16.8757 15.7414 16.6737 15.2578 16.3857 14.8257L17.5963 13.6151L16.4474 12.4662L15.2368 13.6768C14.8047 13.3888 14.3211 13.1868 13.8125 13.0821V11.375H12.1875V13.0821C11.6789 13.1868 11.1953 13.3888 10.7632 13.6768L9.55256 12.4662L8.40369 13.6151L9.61431 14.8257C9.32629 15.2578 9.12435 15.7414 9.01956 16.25H7.3125V17.875H9.01956C9.12435 18.3836 9.32629 18.8672 9.61431 19.2993L8.40369 20.5099L9.55256 21.6588L10.7632 20.4482C11.1953 20.7362 11.6789 20.9382 12.1875 21.0429V22.75H13.8125V21.0429C14.3211 20.9382 14.8047 20.7362 15.2368 20.4482L16.4474 21.6588L17.5963 20.5099L16.3857 19.2993C16.6737 18.8672 16.8757 18.3836 16.9804 17.875H18.6875ZM13 19.5C12.5179 19.5 12.0466 19.357 11.6458 19.0892C11.245 18.8214 10.9325 18.4407 10.748 17.9953C10.5636 17.5499 10.5153 17.0598 10.6093 16.587C10.7034 16.1141 10.9355 15.6798 11.2764 15.3389C11.6173 14.998 12.0516 14.7659 12.5245 14.6718C12.9973 14.5778 13.4874 14.6261 13.9328 14.8105C14.3782 14.995 14.7589 15.3075 15.0267 15.7083C15.2945 16.1091 15.4375 16.5804 15.4375 17.0625C15.4369 17.7088 15.1798 18.3284 14.7229 18.7854C14.2659 19.2423 13.6463 19.4994 13 19.5Z" fill="black"/>
</g>
<defs>
<clipPath id="clip0_594_2931">
<rect width="26" height="26" fill="white"/>
</clipPath>
</defs>
</svg>
