<svg width="26" height="26" viewBox="0 0 26 26" fill="none" xmlns="http://www.w3.org/2000/svg">
<path d="M7.51562 6.34766C7.40391 6.34766 7.3125 6.43906 7.3125 6.55078V7.76953C7.3125 7.88125 7.40391 7.97266 7.51562 7.97266H17.2656C17.3773 7.97266 17.4688 7.88125 17.4688 7.76953V6.55078C17.4688 6.43906 17.3773 6.34766 17.2656 6.34766H7.51562ZM12.1875 10.0039H7.51562C7.40391 10.0039 7.3125 10.0953 7.3125 10.207V11.4258C7.3125 11.5375 7.40391 11.6289 7.51562 11.6289H12.1875C12.2992 11.6289 12.3906 11.5375 12.3906 11.4258V10.207C12.3906 10.0953 12.2992 10.0039 12.1875 10.0039ZM10.9688 21.6328H5.28125V3.75781H19.5V11.8828C19.5 11.9945 19.5914 12.0859 19.7031 12.0859H21.125C21.2367 12.0859 21.3281 11.9945 21.3281 11.8828V2.74219C21.3281 2.29277 20.965 1.92969 20.5156 1.92969H4.26562C3.81621 1.92969 3.45312 2.29277 3.45312 2.74219V22.6484C3.45312 23.0979 3.81621 23.4609 4.26562 23.4609H10.9688C11.0805 23.4609 11.1719 23.3695 11.1719 23.2578V21.8359C11.1719 21.7242 11.0805 21.6328 10.9688 21.6328ZM22.1406 19.3984H18.4844V18.4691C19.66 18.1188 20.5156 17.032 20.5156 15.7422C20.5156 14.1705 19.2436 12.8984 17.6719 12.8984C16.1002 12.8984 14.8281 14.1705 14.8281 15.7422C14.8281 17.0295 15.6838 18.1188 16.8594 18.4691V19.3984H13.2031C12.9797 19.3984 12.7969 19.5812 12.7969 19.8047V23.6641C12.7969 23.8875 12.9797 24.0703 13.2031 24.0703H22.1406C22.3641 24.0703 22.5469 23.8875 22.5469 23.6641V19.8047C22.5469 19.5812 22.3641 19.3984 22.1406 19.3984ZM16.4023 15.7422C16.4023 15.0414 16.9711 14.4727 17.6719 14.4727C18.3727 14.4727 18.9414 15.0414 18.9414 15.7422C18.9414 16.443 18.3727 17.0117 17.6719 17.0117C16.9711 17.0117 16.4023 16.443 16.4023 15.7422ZM20.9727 22.4961H14.3711V20.9727H20.9727V22.4961Z" fill="#277AF7"/>
</svg>
