<svg width="26" height="26" viewBox="0 0 26 26" fill="none" xmlns="http://www.w3.org/2000/svg">
<path d="M13.0003 23.8334C18.9834 23.8334 23.8337 18.9831 23.8337 13C23.8337 7.01693 18.9834 2.16669 13.0003 2.16669C7.01724 2.16669 2.16699 7.01693 2.16699 13C2.16699 18.9831 7.01724 23.8334 13.0003 23.8334Z" stroke="black" stroke-width="2" stroke-linecap="round" stroke-linejoin="round"/>
<path d="M10.8337 8.66667V13H14.6253C15.2 13 15.7511 12.7717 16.1574 12.3654C16.5637 11.9591 16.792 11.408 16.792 10.8333C16.792 10.2587 16.5637 9.7076 16.1574 9.30127C15.7511 8.89494 15.2 8.66667 14.6253 8.66667H13.542M10.8337 8.66667H8.66699M10.8337 8.66667V6.5M10.8337 8.66667H13.542M13.542 8.66667V6.5" stroke="black" stroke-width="2" stroke-linecap="round" stroke-linejoin="round"/>
<path d="M10.8337 17.3333V13H15.7087C16.2833 13 16.8344 13.2283 17.2407 13.6346C17.6471 14.0409 17.8753 14.592 17.8753 15.1667C17.8753 15.7413 17.6471 16.2924 17.2407 16.6987C16.8344 17.1051 16.2833 17.3333 15.7087 17.3333H13.542M10.8337 17.3333V19.5M10.8337 17.3333H8.66699H13.542M10.8337 17.3333H13.542M13.542 17.3333V19.5" stroke="black" stroke-width="2" stroke-linecap="round" stroke-linejoin="round"/>
</svg>
