<svg width="26" height="26" viewBox="0 0 26 26" fill="none" xmlns="http://www.w3.org/2000/svg">
<path d="M8.58366 8.66667C8.03137 8.66667 7.58366 9.11438 7.58366 9.66667V13.0833C7.58366 13.6356 8.03137 14.0833 8.58366 14.0833H13.0837C13.6359 14.0833 14.0837 13.6356 14.0837 13.0833V9.66667C14.0837 9.11438 13.6359 8.66667 13.0837 8.66667H8.58366ZM2.16699 4.25C2.16699 3.69772 2.61471 3.25 3.16699 3.25H4.87533C5.17448 3.25 5.41699 3.49251 5.41699 3.79167C5.41699 4.09082 5.6595 4.33333 5.95866 4.33333H18.9587C19.2578 4.33333 19.5003 4.09082 19.5003 3.79167C19.5003 3.49251 19.7428 3.25 20.042 3.25H21.7503C22.3026 3.25 22.7503 3.69772 22.7503 4.25V5.95833C22.7503 6.25749 22.5078 6.5 22.2087 6.5C21.9095 6.5 21.667 6.74251 21.667 7.04167V20.0417C21.667 20.3408 21.9095 20.5833 22.2087 20.5833C22.5078 20.5833 22.7503 20.8258 22.7503 21.125V22.8333C22.7503 23.3856 22.3026 23.8333 21.7503 23.8333H20.042C19.7428 23.8333 19.5003 23.5908 19.5003 23.2917C19.5003 22.9925 19.2578 22.75 18.9587 22.75H5.95866C5.6595 22.75 5.41699 22.9925 5.41699 23.2917C5.41699 23.5908 5.17448 23.8333 4.87533 23.8333H3.16699C2.61471 23.8333 2.16699 23.3856 2.16699 22.8333V21.125C2.16699 20.8258 2.4095 20.5833 2.70866 20.5833C3.00781 20.5833 3.25033 20.3408 3.25033 20.0417V7.04167C3.25033 6.74251 3.00781 6.5 2.70866 6.5C2.4095 6.5 2.16699 6.25749 2.16699 5.95833V4.25ZM4.87533 20.5833C5.17448 20.5833 5.41699 20.8258 5.41699 21.125C5.41699 21.4242 5.6595 21.6667 5.95866 21.6667H18.9587C19.2578 21.6667 19.5003 21.4242 19.5003 21.125C19.5003 20.8258 19.7428 20.5833 20.042 20.5833C20.3411 20.5833 20.5837 20.3408 20.5837 20.0417V7.04167C20.5837 6.74251 20.3411 6.5 20.042 6.5C19.7428 6.5 19.5003 6.25749 19.5003 5.95833C19.5003 5.65918 19.2578 5.41667 18.9587 5.41667H5.95866C5.6595 5.41667 5.41699 5.65918 5.41699 5.95833C5.41699 6.25749 5.17448 6.5 4.87533 6.5C4.57617 6.5 4.33366 6.74251 4.33366 7.04167V20.0417C4.33366 20.3408 4.57617 20.5833 4.87533 20.5833ZM6.50033 8.58333C6.50033 8.03105 6.94804 7.58333 7.50033 7.58333H14.167C14.7193 7.58333 15.167 8.03105 15.167 8.58333V10.9167C15.167 11.469 15.6147 11.9167 16.167 11.9167H17.417C17.9693 11.9167 18.417 12.3644 18.417 12.9167V18.5C18.417 19.0523 17.9693 19.5 17.417 19.5H9.66699C9.11471 19.5 8.66699 19.0523 8.66699 18.5V16.1667C8.66699 15.6144 8.21928 15.1667 7.66699 15.1667H7.50032C6.94804 15.1667 6.50033 14.719 6.50033 14.1667V8.58333ZM15.167 14.1667C15.167 14.719 14.7193 15.1667 14.167 15.1667H10.7503C10.198 15.1667 9.75033 15.6144 9.75033 16.1667V17.4167C9.75033 17.969 10.198 18.4167 10.7503 18.4167H16.3337C16.8859 18.4167 17.3337 17.969 17.3337 17.4167V14C17.3337 13.4477 16.8859 13 16.3337 13H16.167C15.6147 13 15.167 13.4477 15.167 14V14.1667ZM3.79199 4.33333C3.49284 4.33333 3.25033 4.57585 3.25033 4.875C3.25033 5.17415 3.49284 5.41667 3.79199 5.41667C4.09115 5.41667 4.33366 5.17415 4.33366 4.875C4.33366 4.57585 4.09115 4.33333 3.79199 4.33333ZM21.1253 4.33333C20.8262 4.33333 20.5837 4.57585 20.5837 4.875C20.5837 5.17415 20.8262 5.41667 21.1253 5.41667C21.4245 5.41667 21.667 5.17415 21.667 4.875C21.667 4.57585 21.4245 4.33333 21.1253 4.33333ZM21.1253 21.6667C20.8262 21.6667 20.5837 21.9092 20.5837 22.2083C20.5837 22.5075 20.8262 22.75 21.1253 22.75C21.4245 22.75 21.667 22.5075 21.667 22.2083C21.667 21.9092 21.4245 21.6667 21.1253 21.6667ZM3.79199 21.6667C3.49284 21.6667 3.25033 21.9092 3.25033 22.2083C3.25033 22.5075 3.49284 22.75 3.79199 22.75C4.09115 22.75 4.33366 22.5075 4.33366 22.2083C4.33366 21.9092 4.09115 21.6667 3.79199 21.6667Z" fill="black"/>
</svg>
