<svg width="26" height="26" viewBox="0 0 26 26" fill="none" xmlns="http://www.w3.org/2000/svg">
<path d="M7.58301 5.41671H18.4163V7.58337H20.583V3.25004C20.583 2.05837 19.608 1.09421 18.4163 1.09421L7.58301 1.08337C6.39134 1.08337 5.41634 2.05837 5.41634 3.25004V7.58337H7.58301V5.41671ZM16.6938 17.9725L21.6663 13L16.6938 8.02754L15.1663 9.56587L18.6005 13L15.1663 16.4342L16.6938 17.9725ZM10.833 16.4342L7.39884 13L10.833 9.56587L9.30551 8.02754L4.33301 13L9.30551 17.9725L10.833 16.4342ZM18.4163 20.5834H7.58301V18.4167H5.41634V22.75C5.41634 23.9417 6.39134 24.9167 7.58301 24.9167H18.4163C19.608 24.9167 20.583 23.9417 20.583 22.75V18.4167H18.4163V20.5834Z" fill="#277AF7"/>
</svg>
