<svg width="26" height="26" viewBox="0 0 26 26" fill="none" xmlns="http://www.w3.org/2000/svg">
<path d="M9.1195 19.5H4.0625C3.84701 19.5 3.64035 19.4144 3.48798 19.262C3.3356 19.1097 3.25 18.903 3.25 18.6875V4.875H1.625C1.40951 4.875 1.20285 4.7894 1.05048 4.63702C0.898102 4.48465 0.8125 4.27799 0.8125 4.0625C0.8125 3.84701 0.898102 3.64035 1.05048 3.48798C1.20285 3.3356 1.40951 3.25 1.625 3.25H24.375C24.5905 3.25 24.7972 3.3356 24.9495 3.48798C25.1019 3.64035 25.1875 3.84701 25.1875 4.0625C25.1875 4.27799 25.1019 4.48465 24.9495 4.63702C24.7972 4.7894 24.5905 4.875 24.375 4.875H22.75V18.6875C22.75 18.903 22.6644 19.1097 22.512 19.262C22.3597 19.4144 22.153 19.5 21.9375 19.5H16.8902L19.7048 24.375H17.8295L15.015 19.5H10.9948L8.18025 24.375H6.305L9.1195 19.5ZM21.125 4.875H4.875V17.875H21.125V4.875ZM8.70025 13.5753C8.62471 13.6508 8.53503 13.7107 8.43632 13.7516C8.33762 13.7925 8.23183 13.8135 8.125 13.8135C8.01817 13.8135 7.91238 13.7925 7.81368 13.7516C7.71497 13.7107 7.62529 13.6508 7.54975 13.5753C7.47421 13.4997 7.41428 13.41 7.3734 13.3113C7.33252 13.2126 7.31147 13.1068 7.31147 13C7.31147 12.8932 7.33252 12.7874 7.3734 12.6887C7.41428 12.59 7.47421 12.5003 7.54975 12.4247L11.2986 8.6775L14.4836 11.0662L17.2412 7.618C17.3058 7.52902 17.3877 7.45406 17.4821 7.39767C17.5764 7.34127 17.6813 7.3046 17.7902 7.28989C17.8991 7.27518 18.0099 7.28272 18.1159 7.31207C18.2218 7.34142 18.3207 7.39195 18.4065 7.46062C18.4923 7.52929 18.5633 7.61467 18.6152 7.71158C18.6671 7.80849 18.6988 7.91492 18.7084 8.02443C18.7179 8.13393 18.7052 8.24424 18.6708 8.34868C18.6365 8.45311 18.5814 8.5495 18.5088 8.632L14.768 13.3104L11.4514 10.8225L8.70025 13.5736V13.5753Z" fill="black"/>
</svg>
