<svg width="26" height="26" viewBox="0 0 26 26" fill="none" xmlns="http://www.w3.org/2000/svg">
<path d="M7.64272 8.56182C6.97083 9.00594 6.15796 9.18476 5.36172 9.06361C4.56547 8.94246 3.84258 8.52997 3.33318 7.90611C2.82379 7.28225 2.56418 6.49147 2.6047 5.68708C2.64523 4.88269 2.98298 4.122 3.55249 3.55249C4.122 2.98298 4.88269 2.64523 5.68708 2.6047C6.49147 2.56418 7.28225 2.82379 7.90611 3.33318C8.52997 3.84258 8.94246 4.56547 9.06361 5.36172C9.18476 6.15796 9.00594 6.97083 8.56182 7.64272L11.206 10.2882C11.7375 9.9362 12.3612 9.74897 12.9987 9.75002C13.6617 9.75002 14.2766 9.94762 14.7914 10.2882L17.4369 7.64272C16.9928 6.97083 16.814 6.15796 16.9351 5.36172C17.0563 4.56547 17.4688 3.84258 18.0926 3.33318C18.7165 2.82379 19.5073 2.56418 20.3117 2.6047C21.116 2.64523 21.8767 2.98298 22.4462 3.55249C23.0158 4.122 23.3535 4.88269 23.394 5.68708C23.4346 6.49147 23.175 7.28225 22.6656 7.90611C22.1562 8.52997 21.4333 8.94246 20.637 9.06361C19.8408 9.18476 19.0279 9.00594 18.356 8.56182L15.7118 11.206C16.0524 11.7208 16.25 12.337 16.25 12.9987C16.25 13.6617 16.0524 14.2766 15.7118 14.7914L18.3573 17.4369C19.0292 16.9928 19.8421 16.814 20.6383 16.9351C21.4346 17.0563 22.1575 17.4688 22.6669 18.0926C23.1763 18.7165 23.4359 19.5073 23.3953 20.3117C23.3548 21.116 23.0171 21.8767 22.4475 22.4462C21.878 23.0158 21.1173 23.3535 20.313 23.394C19.5086 23.4346 18.7178 23.175 18.0939 22.6656C17.4701 22.1562 17.0576 21.4333 16.9364 20.637C16.8153 19.8408 16.9941 19.0279 17.4382 18.356L14.7927 15.7105C14.2612 16.0625 13.6375 16.2498 13 16.2487C12.337 16.2487 11.7221 16.0511 11.2073 15.7105L8.56182 18.356C9.00594 19.0279 9.18476 19.8408 9.06361 20.637C8.94246 21.4333 8.52997 22.1562 7.90611 22.6656C7.28225 23.175 6.49147 23.4346 5.68708 23.394C4.88269 23.3535 4.122 23.0158 3.55249 22.4462C2.98298 21.8767 2.64523 21.116 2.6047 20.3117C2.56418 19.5073 2.82379 18.7165 3.33318 18.0926C3.84258 17.4688 4.56547 17.0563 5.36172 16.9351C6.15796 16.814 6.97083 16.9928 7.64272 17.4369L10.2882 14.7914C9.9363 14.2603 9.74907 13.6371 9.75002 13C9.75002 12.337 9.94762 11.7221 10.2882 11.2073L7.64272 8.56182ZM7.80002 5.85002C7.80002 5.33285 7.59457 4.83686 7.22888 4.47116C6.86318 4.10547 6.36719 3.90002 5.85002 3.90002C5.33285 3.90002 4.83686 4.10547 4.47116 4.47116C4.10547 4.83686 3.90002 5.33285 3.90002 5.85002C3.90002 6.36719 4.10547 6.86318 4.47116 7.22888C4.83686 7.59457 5.33285 7.80002 5.85002 7.80002C6.36719 7.80002 6.86318 7.59457 7.22888 7.22888C7.59457 6.86318 7.80002 6.36719 7.80002 5.85002ZM22.1 5.85002C22.1 5.33285 21.8946 4.83686 21.5289 4.47116C21.1632 4.10547 20.6672 3.90002 20.15 3.90002C19.6328 3.90002 19.1369 4.10547 18.7712 4.47116C18.4055 4.83686 18.2 5.33285 18.2 5.85002C18.2 6.36719 18.4055 6.86318 18.7712 7.22888C19.1369 7.59457 19.6328 7.80002 20.15 7.80002C20.6672 7.80002 21.1632 7.59457 21.5289 7.22888C21.8946 6.86318 22.1 6.36719 22.1 5.85002ZM5.85002 22.1C6.36719 22.1 6.86318 21.8946 7.22888 21.5289C7.59457 21.1632 7.80002 20.6672 7.80002 20.15C7.80002 19.6328 7.59457 19.1369 7.22888 18.7712C6.86318 18.4055 6.36719 18.2 5.85002 18.2C5.33285 18.2 4.83686 18.4055 4.47116 18.7712C4.10547 19.1369 3.90002 19.6328 3.90002 20.15C3.90002 20.6672 4.10547 21.1632 4.47116 21.5289C4.83686 21.8946 5.33285 22.1 5.85002 22.1ZM22.1 20.15C22.1 19.6328 21.8946 19.1369 21.5289 18.7712C21.1632 18.4055 20.6672 18.2 20.15 18.2C19.6328 18.2 19.1369 18.4055 18.7712 18.7712C18.4055 19.1369 18.2 19.6328 18.2 20.15C18.2 20.6672 18.4055 21.1632 18.7712 21.5289C19.1369 21.8946 19.6328 22.1 20.15 22.1C20.6672 22.1 21.1632 21.8946 21.5289 21.5289C21.8946 21.1632 22.1 20.6672 22.1 20.15ZM14.95 13C14.95 12.4828 14.7446 11.9869 14.3789 11.6212C14.0132 11.2555 13.5172 11.05 13 11.05C12.4828 11.05 11.9869 11.2555 11.6212 11.6212C11.2555 11.9869 11.05 12.4828 11.05 13C11.05 13.5172 11.2555 14.0132 11.6212 14.3789C11.9869 14.7446 12.4828 14.95 13 14.95C13.5172 14.95 14.0132 14.7446 14.3789 14.3789C14.7446 14.0132 14.95 13.5172 14.95 13Z" fill="black"/>
</svg>
