<svg width="26" height="26" viewBox="0 0 26 26" fill="none" xmlns="http://www.w3.org/2000/svg">
<path d="M3.57099 22.3188L10.4653 15.4244M19.1472 12.3586L17.0834 18.5499C17.0505 18.6491 16.9941 18.7389 16.919 18.8117C16.844 18.8845 16.7524 18.9381 16.6522 18.968L4.00107 22.7283C3.8871 22.7621 3.76602 22.7641 3.65101 22.7339C3.53601 22.7037 3.43149 22.6426 3.34883 22.5571C3.26616 22.4716 3.20852 22.3651 3.18217 22.2492C3.15583 22.1333 3.16179 22.0123 3.19941 21.8995L7.30741 9.5777C7.33685 9.48922 7.38498 9.40812 7.44853 9.3399C7.51209 9.27167 7.58958 9.21791 7.67574 9.18228L13.5117 6.77945C13.6303 6.73045 13.7608 6.71767 13.8867 6.74274C14.0126 6.7678 14.1282 6.82958 14.2191 6.92028L18.9901 11.6924C19.0756 11.7778 19.1357 11.8854 19.1634 12.0031C19.1912 12.1208 19.1855 12.2439 19.1472 12.3586Z" stroke="#277AF7" stroke-width="2" stroke-linecap="round" stroke-linejoin="round"/>
<path d="M19.2752 11.9773L22.3389 8.91257C22.745 8.50626 22.9732 7.95526 22.9732 7.38074C22.9732 6.80622 22.745 6.25522 22.3389 5.84891L20.0422 3.55007C19.841 3.34879 19.6021 3.18911 19.3392 3.08017C19.0762 2.97123 18.7944 2.91516 18.5098 2.91516C18.2252 2.91516 17.9434 2.97123 17.6805 3.08017C17.4175 3.18911 17.1786 3.34879 16.9774 3.55007L13.9138 6.61482M12.7633 13.1257C12.6123 12.9748 12.4331 12.8551 12.236 12.7735C12.0388 12.6919 11.8274 12.6499 11.614 12.6499C11.4006 12.65 11.1893 12.6921 10.9921 12.7738C10.795 12.8555 10.6159 12.9753 10.465 13.1262C10.3141 13.2771 10.1944 13.4563 10.1128 13.6535C10.0312 13.8507 9.98921 14.062 9.98926 14.2755C9.98931 14.4889 10.0314 14.7002 10.1131 14.8973C10.1948 15.0945 10.3146 15.2736 10.4655 15.4245C10.7704 15.7292 11.1838 15.9003 11.6148 15.9002C12.0458 15.9001 12.4591 15.7288 12.7638 15.4239C13.0685 15.1191 13.2396 14.7057 13.2395 14.2747C13.2394 13.8437 13.0681 13.4304 12.7633 13.1257Z" stroke="#277AF7" stroke-width="2" stroke-linecap="round" stroke-linejoin="round"/>
</svg>
