<svg width="26" height="26" viewBox="0 0 26 26" fill="none" xmlns="http://www.w3.org/2000/svg">
<path d="M6.50039 2.59998C5.81083 2.59998 5.14951 2.8739 4.66191 3.3615C4.17432 3.84909 3.90039 4.51041 3.90039 5.19998V7.79998C3.90039 8.48954 4.17432 9.15086 4.66191 9.63845C5.14951 10.126 5.81083 10.4 6.50039 10.4H16.9004C17.59 10.4 18.2513 10.126 18.7389 9.63845C19.2265 9.15086 19.5004 8.48954 19.5004 7.79998V5.19998C19.5004 4.51041 19.2265 3.84909 18.7389 3.3615C18.2513 2.8739 17.59 2.59998 16.9004 2.59998H6.50039ZM5.20039 5.19998C5.20039 4.85519 5.33735 4.52453 5.58115 4.28074C5.82495 4.03694 6.15561 3.89998 6.50039 3.89998H16.9004C17.2452 3.89998 17.5758 4.03694 17.8196 4.28074C18.0634 4.52453 18.2004 4.85519 18.2004 5.19998V7.79998C18.2004 8.14476 18.0634 8.47542 17.8196 8.71921C17.5758 8.96301 17.2452 9.09998 16.9004 9.09998H6.50039C6.15561 9.09998 5.82495 8.96301 5.58115 8.71921C5.33735 8.47542 5.20039 8.14476 5.20039 7.79998V5.19998ZM9.10039 17.55C8.928 17.55 8.76267 17.6185 8.64077 17.7404C8.51887 17.8623 8.45039 18.0276 8.45039 18.2C8.45039 18.3724 8.51887 18.5377 8.64077 18.6596C8.76267 18.7815 8.928 18.85 9.10039 18.85H14.3004C14.4728 18.85 14.6381 18.7815 14.76 18.6596C14.8819 18.5377 14.9504 18.3724 14.9504 18.2C14.9504 18.0276 14.8819 17.8623 14.76 17.7404C14.6381 17.6185 14.4728 17.55 14.3004 17.55H9.10039ZM15.4431 13H6.50039C5.81083 13 5.14951 13.2739 4.66191 13.7615C4.17432 14.2491 3.90039 14.9104 3.90039 15.6V20.8C3.90039 21.4895 4.17432 22.1509 4.66191 22.6385C5.14951 23.126 5.81083 23.4 6.50039 23.4H16.9004C17.59 23.4 18.2513 23.126 18.7389 22.6385C19.2265 22.1509 19.5004 21.4895 19.5004 20.8V19.3895C19.0797 19.5375 18.6211 19.5375 18.2004 19.3895V20.8C18.2004 21.1448 18.0634 21.4754 17.8196 21.7192C17.5758 21.963 17.2452 22.1 16.9004 22.1H6.50039C6.15561 22.1 5.82495 21.963 5.58115 21.7192C5.33735 21.4754 5.20039 21.1448 5.20039 20.8V15.6C5.20039 15.2552 5.33735 14.9245 5.58115 14.6807C5.82495 14.4369 6.15561 14.3 6.50039 14.3H14.4109C14.5077 14.0258 14.665 13.777 14.8711 13.572L15.4431 13ZM23.4004 9.74998C23.4004 9.57758 23.3319 9.41225 23.21 9.29036C23.0881 9.16846 22.9228 9.09998 22.7504 9.09998C22.578 9.09998 22.4127 9.16846 22.2908 9.29036C22.1689 9.41225 22.1004 9.57758 22.1004 9.74998V12.35C22.1004 12.8671 21.8949 13.3631 21.5292 13.7288C21.1636 14.0945 20.6676 14.3 20.1504 14.3H17.8195L19.3106 12.8102C19.4326 12.6881 19.5012 12.5226 19.5012 12.35C19.5012 12.1774 19.4326 12.0118 19.3106 11.8898C19.1885 11.7677 19.023 11.6992 18.8504 11.6992C18.6778 11.6992 18.5122 11.7677 18.3902 11.8898L15.7902 14.4898C15.7297 14.5502 15.6816 14.6219 15.6489 14.7009C15.6161 14.7798 15.5992 14.8645 15.5992 14.95C15.5992 15.0355 15.6161 15.1201 15.6489 15.1991C15.6816 15.2781 15.7297 15.3498 15.7902 15.4102L18.3902 18.0102C18.5122 18.1322 18.6778 18.2008 18.8504 18.2008C19.023 18.2008 19.1885 18.1322 19.3106 18.0102C19.4326 17.8881 19.5012 17.7226 19.5012 17.55C19.5012 17.3774 19.4326 17.2118 19.3106 17.0898L17.8195 15.6H20.1504C20.5772 15.6 20.9998 15.5159 21.3941 15.3526C21.7884 15.1893 22.1467 14.9499 22.4485 14.6481C22.7503 14.3463 22.9897 13.988 23.153 13.5937C23.3163 13.1994 23.4004 12.7768 23.4004 12.35V9.74998Z" fill="black"/>
</svg>
