<svg width="26" height="26" viewBox="0 0 26 26" fill="none" xmlns="http://www.w3.org/2000/svg">
<g clip-path="url(#clip0_594_2988)">
<path d="M20.9606 8.125C20.5841 6.28161 19.5795 4.62602 18.1183 3.44078C16.6572 2.25554 14.8299 1.61413 12.9485 1.62602C11.0671 1.63791 9.24817 2.30236 7.80209 3.50598C6.35601 4.70959 5.37246 6.37775 5.01931 8.22575C3.51973 8.49267 2.17459 9.31179 1.24916 10.5216C0.32373 11.7313 -0.114813 13.244 0.0200147 14.7611C0.154842 16.2783 0.853253 17.6899 1.97752 18.7175C3.10178 19.7451 4.57028 20.3142 6.09343 20.3125H6.49968V18.6875H6.09343C4.93363 18.6905 3.81816 18.2422 2.98306 17.4374C2.14796 16.6325 1.65875 15.5344 1.61895 14.3753C1.57915 13.2161 1.99189 12.087 2.76982 11.2268C3.54775 10.3666 4.62985 9.8428 5.78712 9.76625L6.46718 9.71994L6.54031 9.04313C6.70488 7.53175 7.39447 6.12601 8.48896 5.07081C9.58345 4.01561 11.0134 3.37784 12.5298 3.2686C14.0462 3.15936 15.5529 3.58559 16.7873 4.47301C18.0217 5.36044 18.9057 6.65282 19.2852 8.125H20.9606Z" fill="#277AF7"/>
<path d="M22.75 9.75H14.625C14.1942 9.75043 13.7811 9.92177 13.4764 10.2264C13.1718 10.5311 13.0004 10.9442 13 11.375V14.625H9.75C9.31916 14.6254 8.90608 14.7968 8.60143 15.1014C8.29677 15.4061 8.12543 15.8192 8.125 16.25V24.375H24.375V11.375C24.3746 10.9442 24.2032 10.5311 23.8986 10.2264C23.5939 9.92177 23.1808 9.75043 22.75 9.75ZM9.75 22.75V16.25H13V22.75H9.75ZM22.75 22.75H14.625V11.375H22.75V22.75Z" fill="#277AF7"/>
<path d="M16.25 13H17.875V16.25H16.25V13ZM19.5 13H21.125V16.25H19.5V13ZM16.25 17.875H17.875V21.125H16.25V17.875ZM19.5 17.875H21.125V21.125H19.5V17.875Z" fill="#277AF7"/>
</g>
<defs>
<clipPath id="clip0_594_2988">
<rect width="26" height="26" fill="white"/>
</clipPath>
</defs>
</svg>
