<svg width="26" height="26" viewBox="0 0 26 26" fill="none" xmlns="http://www.w3.org/2000/svg">
<path d="M9.75 4.33337L7.58333 6.50004L5.41667 8.66671L7.58333 10.8334L9.75 13L10.5083 12.2417L11.2667 11.4834L9.85833 10.075L8.45 8.66671L9.85833 7.25837L11.2667 5.85004L10.5083 5.09171L9.75 4.33337ZM16.25 4.33337L15.4917 5.09171L14.7333 5.85004L16.1417 7.25837L17.55 8.66671L16.1417 10.075L14.7333 11.4834L15.4917 12.2417L16.25 13L18.4167 10.8334L20.5833 8.66671L18.4167 6.50004L16.25 4.33337ZM22.7251 20.6809L22.3048 19.0212C22.2778 18.9154 22.2298 18.8161 22.1635 18.7294C22.0972 18.6426 22.0141 18.5702 21.9191 18.5164C21.8236 18.4618 21.7182 18.4267 21.609 18.4133C21.4998 18.4 21.389 18.4085 21.2832 18.4384L16.3518 19.8294L13 18.4167L17.2413 17.3301C17.5308 17.0718 17.7405 16.7362 17.8457 16.3627L17.5132 15.1667L8.66667 16.25H3.25V22.75H8.66667L13.4929 23.7944C13.7553 23.8182 14.0195 23.8121 14.2805 23.776L22.1455 21.6591C22.3518 21.6039 22.5283 21.4701 22.6373 21.2865C22.6911 21.1961 22.7266 21.096 22.7417 20.9919C22.7567 20.8878 22.7511 20.7828 22.7251 20.6809ZM6.5 21.6667H4.33333V17.3334H6.5V21.6667ZM13.9988 22.7305C13.95 22.7433 13.8998 22.7498 13.8493 22.75C13.8075 22.7502 13.7657 22.7458 13.7247 22.737L8.66667 21.6266V17.355L16.6064 16.3714L10.8333 18.4167L15.9478 20.8347L16.2912 20.9723L16.6465 20.8715L21.3222 19.5531L21.6082 20.682L13.9988 22.7305Z" fill="#277AF7"/>
</svg>
