<svg width="26" height="26" viewBox="0 0 26 26" fill="none" xmlns="http://www.w3.org/2000/svg">
<path d="M9.74967 13C10.3243 13 10.8754 12.7718 11.2817 12.3654C11.6881 11.9591 11.9163 11.408 11.9163 10.8334C11.9163 10.2587 11.6881 9.70764 11.2817 9.30131C10.8754 8.89498 10.3243 8.66671 9.74967 8.66671C9.17504 8.66671 8.62394 8.89498 8.21761 9.30131C7.81128 9.70764 7.58301 10.2587 7.58301 10.8334C7.58301 11.408 7.81128 11.9591 8.21761 12.3654C8.62394 12.7718 9.17504 13 9.74967 13ZM12.9997 1.08337L23.2913 7.04171V18.9584L12.9997 24.9167L2.70801 18.9584V7.04171L12.9997 1.08337ZM4.87467 8.29079V17.7093L7.44434 19.1967L16.1901 12.7834L21.1247 15.7452V8.29187L12.9997 3.58587L4.87467 8.29079Z" fill="#277AF7"/>
</svg>
