<svg width="26" height="26" viewBox="0 0 26 26" fill="none" xmlns="http://www.w3.org/2000/svg">
<path d="M7.58398 23.8333H18.4173" stroke="black" stroke-width="2" stroke-linecap="round" stroke-linejoin="round"/>
<path d="M2.16699 18.4166V4.33329C2.16699 3.75866 2.39527 3.20756 2.80159 2.80123C3.20792 2.3949 3.75902 2.16663 4.33366 2.16663H21.667C22.2416 2.16663 22.7927 2.3949 23.1991 2.80123C23.6054 3.20756 23.8337 3.75866 23.8337 4.33329V18.4166C23.8337 18.9913 23.6054 19.5424 23.1991 19.9487C22.7927 20.355 22.2416 20.5833 21.667 20.5833H4.33366C3.75902 20.5833 3.20792 20.355 2.80159 19.9487C2.39527 19.5424 2.16699 18.9913 2.16699 18.4166Z" stroke="black" stroke-width="2"/>
<path d="M9.75 11.3749L11.9167 13.5416L16.25 9.20825" stroke="black" stroke-width="2" stroke-linecap="round" stroke-linejoin="round"/>
</svg>
