<svg width="26" height="26" viewBox="0 0 26 26" fill="none" xmlns="http://www.w3.org/2000/svg">
<path d="M16.2503 5.68746C17.1841 5.68746 18.0796 5.31652 18.7399 4.65623C19.4002 3.99595 19.7712 3.10041 19.7712 2.16663H21.3962C21.3962 3.10041 21.7671 3.99595 22.4274 4.65623C23.0877 5.31652 23.9832 5.68746 24.917 5.68746V7.31246C23.9832 7.31246 23.0877 7.6834 22.4274 8.34369C21.7671 9.00397 21.3962 9.89951 21.3962 10.8333H19.7712C19.7712 9.89951 19.4002 9.00397 18.7399 8.34369C18.0796 7.6834 17.1841 7.31246 16.2503 7.31246V5.68746ZM4.33366 7.58329C4.33366 7.00866 4.56193 6.45756 4.96826 6.05123C5.37459 5.6449 5.92569 5.41663 6.50033 5.41663H14.0837V3.24996H6.50033C5.35105 3.24996 4.24885 3.70651 3.4362 4.51916C2.62354 5.33182 2.16699 6.43402 2.16699 7.58329V18.4166C2.16699 19.5659 2.62354 20.6681 3.4362 21.4808C4.24885 22.2934 5.35105 22.75 6.50033 22.75H19.5003C20.6496 22.75 21.7518 22.2934 22.5645 21.4808C23.3771 20.6681 23.8337 19.5659 23.8337 18.4166V13H21.667V18.4166C21.667 18.9913 21.4387 19.5424 21.0324 19.9487C20.6261 20.355 20.075 20.5833 19.5003 20.5833H6.50033C5.92569 20.5833 5.37459 20.355 4.96826 19.9487C4.56193 19.5424 4.33366 18.9913 4.33366 18.4166V7.58329Z" fill="#277AF7"/>
</svg>
