<svg width="26" height="26" viewBox="0 0 26 26" fill="none" xmlns="http://www.w3.org/2000/svg">
<path d="M7.26017 7.03818L3.13787 11.1605C2.89633 11.4019 2.70472 11.6886 2.57399 12.0041C2.44326 12.3196 2.37598 12.6578 2.37598 12.9993C2.37598 13.3409 2.44326 13.679 2.57399 13.9945C2.70472 14.3101 2.89633 14.5967 3.13787 14.8382L7.26017 18.9605C7.50162 19.202 7.78829 19.3936 8.1038 19.5244C8.41932 19.6551 8.7575 19.7224 9.09902 19.7224C9.44055 19.7224 9.77873 19.6551 10.0942 19.5244C10.4098 19.3936 10.6964 19.202 10.9379 18.9605L15.0602 14.8382C15.3017 14.5967 15.4933 14.3101 15.6241 13.9945C15.7548 13.679 15.8221 13.3409 15.8221 12.9993C15.8221 12.6578 15.7548 12.3196 15.6241 12.0041C15.4933 11.6886 15.3017 11.4019 15.0602 11.1605L10.9392 7.03818C10.6977 6.79663 10.4111 6.60502 10.0955 6.4743C9.78003 6.34357 9.44185 6.27628 9.10032 6.27628C8.7588 6.27628 8.42062 6.34357 8.1051 6.4743C7.78959 6.60502 7.50162 6.79663 7.26017 7.03818ZM4.05697 12.0809L8.18057 7.95598C8.42436 7.71226 8.75496 7.57535 9.09967 7.57535C9.44439 7.57535 9.77499 7.71226 10.0188 7.95598L14.1411 12.0796C14.3848 12.3234 14.5217 12.654 14.5217 12.9987C14.5217 13.3434 14.3848 13.674 14.1411 13.9178L10.0188 18.0401C9.77499 18.2838 9.44439 18.4207 9.09967 18.4207C8.75496 18.4207 8.42436 18.2838 8.18057 18.0401L4.05567 13.9191C3.81196 13.6753 3.67505 13.3447 3.67505 13C3.67505 12.6553 3.81196 12.3247 4.05567 12.0809H4.05697ZM15.0615 18.9618L13.9175 17.8178L14.8379 16.9L15.9806 18.0414C16.2244 18.2851 16.555 18.422 16.8997 18.422C17.2444 18.422 17.575 18.2851 17.8188 18.0414L21.9411 13.9191C22.1848 13.6753 22.3217 13.3447 22.3217 13C22.3217 12.6553 22.1848 12.3247 21.9411 12.0809L17.8188 7.95598C17.575 7.71226 17.2444 7.57535 16.8997 7.57535C16.555 7.57535 16.2244 7.71226 15.9806 7.95598L14.8366 9.09868L13.9188 8.17958L15.0602 7.03558C15.3016 6.79403 15.5883 6.60242 15.9038 6.4717C16.2193 6.34097 16.5575 6.27368 16.899 6.27368C17.2405 6.27368 17.5787 6.34097 17.8942 6.4717C18.2098 6.60242 18.4964 6.79403 18.7379 7.03558L22.8602 11.1592C23.1017 11.4006 23.2933 11.6873 23.4241 12.0028C23.5548 12.3183 23.6221 12.6565 23.6221 12.998C23.6221 13.3396 23.5548 13.6777 23.4241 13.9932C23.2933 14.3088 23.1017 14.5954 22.8602 14.8369L18.7379 18.9592C18.4964 19.2007 18.2098 19.3923 17.8942 19.5231C17.5787 19.6538 17.2405 19.7211 16.899 19.7211C16.5575 19.7211 16.2193 19.6538 15.9038 19.5231C15.5883 19.3923 15.3016 19.2007 15.0602 18.9592L15.0615 18.9618Z" fill="black"/>
</svg>
