<svg width="26" height="26" viewBox="0 0 26 26" fill="none" xmlns="http://www.w3.org/2000/svg">
<path d="M22.6958 19.7437L18.9313 23.5083C18.8229 23.6166 18.7009 23.6979 18.5651 23.752C18.4293 23.8062 18.2896 23.8333 18.1458 23.8333H16.25C15.9431 23.8333 15.6859 23.7297 15.4787 23.5224C15.2714 23.3151 15.1674 23.0576 15.1667 22.75V20.8541C15.1667 20.7097 15.1938 20.5696 15.2479 20.4338C15.3021 20.298 15.3833 20.1763 15.4917 20.0687L19.2563 16.3041L22.6958 19.7437ZM23.8333 18.6062L20.3938 15.1666L21.1792 14.3812C21.3958 14.1645 21.6486 14.0562 21.9375 14.0562C22.2264 14.0562 22.4792 14.1645 22.6958 14.3812L24.6188 16.3041C24.8354 16.5208 24.9438 16.7736 24.9438 17.0625C24.9438 17.3514 24.8354 17.6041 24.6188 17.8208L23.8333 18.6062ZM10.8333 9.74996C10.5264 9.74996 10.2689 9.64596 10.0609 9.43796C9.85292 9.22996 9.74928 8.97285 9.75 8.66663C9.75 8.35968 9.854 8.10221 10.062 7.89421C10.27 7.68621 10.5271 7.58257 10.8333 7.58329H18.4167C18.7236 7.58329 18.9811 7.68729 19.1891 7.8953C19.3971 8.1033 19.5007 8.36041 19.5 8.66663C19.5 8.97357 19.396 9.23105 19.188 9.43905C18.98 9.64705 18.7229 9.75068 18.4167 9.74996H10.8333ZM10.8333 13C10.5264 13 10.2689 12.896 10.0609 12.688C9.85292 12.48 9.74928 12.2229 9.75 11.9166C9.75 11.6097 9.854 11.3522 10.062 11.1442C10.27 10.9362 10.5271 10.8326 10.8333 10.8333H18.4167C18.7236 10.8333 18.9811 10.9373 19.1891 11.1453C19.3971 11.3533 19.5007 11.6104 19.5 11.9166C19.5 12.2236 19.396 12.481 19.188 12.689C18.98 12.897 18.7229 13.0007 18.4167 13H10.8333ZM6.5 23.8333C5.59722 23.8333 4.82986 23.5173 4.19792 22.8854C3.56597 22.2534 3.25 21.4861 3.25 20.5833V19.5C3.25 18.9041 3.46233 18.3939 3.887 17.9692C4.31167 17.5445 4.82156 17.3326 5.41667 17.3333H6.5V4.33329C6.5 3.73746 6.71233 3.22721 7.137 2.80254C7.56167 2.37788 8.07156 2.16591 8.66667 2.16663H20.5833C21.1792 2.16663 21.6894 2.37896 22.1141 2.80363C22.5388 3.22829 22.7507 3.73818 22.75 4.33329V9.74996L20.5833 11.9166V4.33329H8.66667V17.3333H15.1667L13.6229 18.877C13.4243 19.0757 13.2708 19.306 13.1625 19.5682C13.0542 19.8304 13 20.1055 13 20.3937V23.8333H6.5Z" fill="black"/>
</svg>
