<svg width="26" height="26" viewBox="0 0 26 26" fill="none" xmlns="http://www.w3.org/2000/svg">
<path d="M9.74967 4.33337C4.96134 4.33337 1.08301 8.21171 1.08301 13C1.08301 17.7884 4.96134 21.6667 9.74967 21.6667C14.538 21.6667 18.4163 17.7884 18.4163 13C18.4163 8.21171 14.538 4.33337 9.74967 4.33337ZM9.74967 19.5C6.16384 19.5 3.24967 16.5859 3.24967 13C3.24967 9.41421 6.16384 6.50004 9.74967 6.50004C13.3355 6.50004 16.2497 9.41421 16.2497 13C16.2497 16.5859 13.3355 19.5 9.74967 19.5ZM12.9997 11.375H10.833V16.7917H8.66634V11.375H6.49967V9.75004H12.9997V11.375ZM21.9372 4.06254L24.9163 5.41671L21.9372 6.77087L20.583 9.75004L19.2288 6.77087L16.2497 5.41671L19.2288 4.06254L20.583 1.08337L21.9372 4.06254ZM21.9372 19.2292L24.9163 20.5834L21.9372 21.9375L20.583 24.9167L19.2288 21.9375L16.2497 20.5834L19.2288 19.2292L20.583 16.25L21.9372 19.2292Z" fill="black"/>
</svg>
