<svg width="26" height="26" viewBox="0 0 26 26" fill="none" xmlns="http://www.w3.org/2000/svg">
<path d="M22.75 7.58329L13 2.16663L3.25 7.58329V18.4166L13 23.8333L22.75 18.4166V7.58329ZM13 4.64746L19.4025 8.20079L16.1417 10.01C15.3508 9.18663 14.235 8.66663 13 8.66663C11.765 8.66663 10.6492 9.18663 9.85833 10.01L6.5975 8.20079L13 4.64746ZM11.9167 20.7566L5.41667 17.1491V10.0316L8.8075 11.9166C8.71 12.2525 8.66667 12.6208 8.66667 13C8.66667 15.015 10.0425 16.7158 11.9167 17.1925V20.7566ZM10.8333 13C10.8333 11.8083 11.8083 10.8333 13 10.8333C14.1917 10.8333 15.1667 11.8083 15.1667 13C15.1667 14.1916 14.1917 15.1666 13 15.1666C11.8083 15.1666 10.8333 14.1916 10.8333 13ZM14.0833 20.7566V17.2033C15.9575 16.7266 17.3333 15.0258 17.3333 13.0108C17.3333 12.6316 17.29 12.2633 17.1925 11.9166L20.5833 10.0316V17.1491L14.0833 20.7566Z" fill="#277AF7"/>
</svg>
