<svg width="26" height="26" viewBox="0 0 26 26" fill="none" xmlns="http://www.w3.org/2000/svg">
<path d="M14.625 8.125H16.25V9.75H14.625V8.125ZM9.75 8.125H11.375V9.75H9.75V8.125Z" fill="#277AF7"/>
<path d="M21.125 16.25H17.0625V14.625H17.875C18.3058 14.6246 18.7189 14.4532 19.0236 14.1486C19.3282 13.8439 19.4996 13.4308 19.5 13V9.75H21.125V8.125H19.5V6.5C19.4996 6.06916 19.3282 5.65608 19.0236 5.35143C18.7189 5.04677 18.3058 4.87543 17.875 4.875H16.25V1.625H14.625V4.875H11.375V1.625H9.75V4.875H8.125C7.69416 4.87543 7.28108 5.04677 6.97643 5.35143C6.67177 5.65608 6.50043 6.06916 6.5 6.5V8.125H4.875V9.75H6.5V13C6.50043 13.4308 6.67177 13.8439 6.97643 14.1486C7.28108 14.4532 7.69416 14.6246 8.125 14.625H8.9375V16.25H4.875C4.44416 16.2504 4.03108 16.4218 3.72643 16.7264C3.42177 17.0311 3.25043 17.4442 3.25 17.875V24.375H4.875V17.875H21.125V24.375H22.75V17.875C22.7496 17.4442 22.5782 17.0311 22.2736 16.7264C21.9689 16.4218 21.5558 16.2504 21.125 16.25ZM8.125 6.5H17.875V13H8.125V6.5ZM10.5625 14.625H15.4375V16.25H10.5625V14.625Z" fill="#277AF7"/>
</svg>
