<svg width="26" height="26" viewBox="0 0 26 26" fill="none" xmlns="http://www.w3.org/2000/svg">
<path d="M6.5 8.66663H10.8333" stroke="#277AF7" stroke-width="2" stroke-linecap="round" stroke-linejoin="round"/>
<path d="M22.5691 9.75H19.7503C17.8165 9.75 16.25 11.2049 16.25 13C16.25 14.7951 17.8176 16.25 19.7492 16.25H22.5691C22.6601 16.25 22.7045 16.25 22.7424 16.2478C23.3274 16.2121 23.7932 15.7798 23.8312 15.2371C23.8333 15.2024 23.8333 15.1602 23.8333 15.0767V10.9233C23.8333 10.8398 23.8333 10.7976 23.8312 10.7629C23.7922 10.2202 23.3274 9.78792 22.7424 9.75217C22.7056 9.75 22.6601 9.75 22.5691 9.75Z" stroke="#277AF7" stroke-width="2"/>
<path d="M22.7124 9.74998C22.6279 7.72198 22.3571 6.47831 21.4807 5.60298C20.2121 4.33331 18.1689 4.33331 14.0837 4.33331H10.8337C6.74841 4.33331 4.70524 4.33331 3.43666 5.60298C2.16699 6.87156 2.16699 8.91473 2.16699 13C2.16699 17.0852 2.16699 19.1284 3.43666 20.397C4.70524 21.6666 6.74841 21.6666 10.8337 21.6666H14.0837C18.1689 21.6666 20.2121 21.6666 21.4807 20.397C22.3571 19.5216 22.629 18.278 22.7124 16.25" stroke="#277AF7" stroke-width="2"/>
<path d="M19.4902 13H19.5002" stroke="#277AF7" stroke-width="2" stroke-linecap="round" stroke-linejoin="round"/>
</svg>
