<svg width="47" height="48" viewBox="0 0 47 48" fill="none" xmlns="http://www.w3.org/2000/svg">
<rect x="0.75" y="0.75" width="45.5" height="46.3393" rx="11.6184" fill="white" stroke="#277AF7" stroke-width="1.5"/>
<rect x="4.75" y="5.25" width="37.5219" height="37.5219" rx="8.8975" fill="white" stroke="#277AF7" stroke-width="1.5"/>
<path d="M22.8901 32.4834C24.2328 32.4834 25.3743 32.0133 26.3145 31.0731C27.2548 30.1328 27.7246 28.9917 27.7239 27.6497C27.7239 26.307 27.2537 25.1655 26.3135 24.2252C25.3732 23.285 24.2321 22.8152 22.8901 22.8159C21.5474 22.8159 20.4059 23.2861 19.4657 24.2263C18.5254 25.1666 18.0556 26.3077 18.0564 27.6497C18.0564 28.9924 18.5265 30.1339 19.4667 31.0741C20.407 32.0144 21.5481 32.4842 22.8901 32.4834ZM19.7482 21.4195C20.1062 21.2226 20.4868 21.0661 20.89 20.9501C21.2932 20.8341 21.7003 20.7578 22.1113 20.7213L19.3991 15.2968H16.7136L19.7482 21.4195ZM26.032 21.4195L29.0934 15.2968H26.3811L24.0985 19.862L24.6088 20.8824C24.8594 20.954 25.1011 21.0303 25.3338 21.1112C25.5666 21.1922 25.7993 21.2949 26.032 21.4195ZM16.8748 31.1944C16.5704 30.6753 16.333 30.1156 16.1626 29.5155C15.9922 28.9154 15.9073 28.2935 15.908 27.6497C15.908 27.0052 15.9932 26.3829 16.1637 25.7828C16.3341 25.1827 16.5711 24.6234 16.8748 24.1049C16.1229 24.3556 15.5052 24.7989 15.0218 25.4348C14.5385 26.0707 14.2968 26.809 14.2968 27.6497C14.2968 28.4911 14.5385 29.2298 15.0218 29.8657C15.5052 30.5016 16.1229 30.9445 16.8748 31.1944ZM28.9054 31.1944C29.6574 30.9438 30.275 30.5005 30.7584 29.8646C31.2418 29.2287 31.4834 28.4904 31.4834 27.6497C31.4834 26.8083 31.2418 26.0696 30.7584 25.4337C30.275 24.7978 29.6574 24.3549 28.9054 24.1049C29.2098 24.6241 29.4472 25.1838 29.6176 25.7839C29.788 26.384 29.8729 27.0059 29.8722 27.6497C29.8722 28.2942 29.787 28.9165 29.6165 29.5166C29.4461 30.1167 29.2091 30.676 28.9054 31.1944ZM22.8901 34.6318C22.174 34.6318 21.489 34.5287 20.8352 34.3224C20.1814 34.1162 19.5774 33.8344 19.0231 33.477C18.862 33.5128 18.7009 33.5354 18.5397 33.5447C18.3786 33.554 18.2085 33.5583 18.0295 33.5576C16.4003 33.5576 15.0129 32.9847 13.8671 31.8389C12.7213 30.6932 12.1484 29.3057 12.1484 27.6765C12.1484 26.119 12.6676 24.7852 13.706 23.6753C14.7443 22.5653 16.0244 21.9477 17.5461 21.8223L13.2226 13.1484H20.7418L22.8901 17.4451L25.0384 13.1484H32.5576L28.2609 21.7686C29.7827 21.9118 31.0584 22.5384 32.0882 23.6484C33.118 24.7584 33.6325 26.0921 33.6318 27.6497C33.6318 29.2967 33.0589 30.6932 31.9131 31.8389C30.7673 32.9847 29.3709 33.5576 27.7239 33.5576C27.5627 33.5576 27.397 33.553 27.2265 33.5436C27.0561 33.5343 26.8907 33.5121 26.7303 33.477C26.1753 33.8351 25.5755 34.1172 24.931 34.3235C24.2865 34.5297 23.6062 34.6325 22.8901 34.6318ZM20.9029 30.6036L21.6548 28.1599L19.6676 26.7366H22.1113L22.8901 24.1586L23.6689 26.7366H26.1126L24.1254 28.1599L24.8773 30.6036L22.8901 29.0998L20.9029 30.6036Z" fill="#277AF7"/>
</svg>
