<svg width="47" height="48" viewBox="0 0 47 48" fill="none" xmlns="http://www.w3.org/2000/svg">
<rect x="0.75" y="0.75" width="45.5" height="46.3393" rx="11.6184" fill="white" stroke="#277AF7" stroke-width="1.5"/>
<rect x="4.75" y="5.25" width="37.5219" height="37.5219" rx="8.8975" fill="white" stroke="#277AF7" stroke-width="1.5"/>
<path d="M15.2968 17.4449C15.8665 17.4449 16.413 17.2186 16.8159 16.8157C17.2188 16.4128 17.4451 15.8664 17.4451 15.2966C17.4451 14.7268 17.2188 14.1804 16.8159 13.7775C16.413 13.3746 15.8665 13.1483 15.2968 13.1483C14.727 13.1483 14.1806 13.3746 13.7777 13.7775C13.3748 14.1804 13.1484 14.7268 13.1484 15.2966C13.1484 15.8664 13.3748 16.4128 13.7777 16.8157C14.1806 17.2186 14.727 17.4449 15.2968 17.4449ZM16.3709 33.5574C17.2256 33.5574 18.0453 33.2179 18.6496 32.6136C19.2539 32.0092 19.5934 31.1896 19.5934 30.3349C19.5934 29.4803 19.2539 28.6606 18.6496 28.0563C18.0453 27.4519 17.2256 27.1124 16.3709 27.1124C15.5163 27.1124 14.6966 27.4519 14.0923 28.0563C13.488 28.6606 13.1484 29.4803 13.1484 30.3349C13.1484 31.1896 13.488 32.0092 14.0923 32.6136C14.6966 33.2179 15.5163 33.5574 16.3709 33.5574ZM31.4093 34.6316C32.2639 34.6316 33.0836 34.2921 33.6879 33.6877C34.2923 33.0834 34.6318 32.2637 34.6318 31.4091C34.6318 30.5544 34.2923 29.7348 33.6879 29.1304C33.0836 28.5261 32.2639 28.1866 31.4093 28.1866C30.5546 28.1866 29.735 28.5261 29.1306 29.1304C28.5263 29.7348 28.1868 30.5544 28.1868 31.4091C28.1868 32.2637 28.5263 33.0834 29.1306 33.6877C29.735 34.2921 30.5546 34.6316 31.4093 34.6316ZM22.8159 26.0383C23.9555 26.0383 25.0484 25.5856 25.8541 24.7798C26.6599 23.974 27.1126 22.8811 27.1126 21.7416C27.1126 20.602 26.6599 19.5092 25.8541 18.7034C25.0484 17.8976 23.9555 17.4449 22.8159 17.4449C21.6764 17.4449 20.5835 17.8976 19.7777 18.7034C18.972 19.5092 18.5193 20.602 18.5193 21.7416C18.5193 22.8811 18.972 23.974 19.7777 24.7798C20.5835 25.5856 21.6764 26.0383 22.8159 26.0383ZM29.2609 17.4449C29.8307 17.4449 30.3771 17.2186 30.78 16.8157C31.1829 16.4128 31.4093 15.8664 31.4093 15.2966C31.4093 14.7268 31.1829 14.1804 30.78 13.7775C30.3771 13.3746 29.8307 13.1483 29.2609 13.1483C28.6912 13.1483 28.1447 13.3746 27.7418 13.7775C27.3389 14.1804 27.1126 14.7268 27.1126 15.2966C27.1126 15.8664 27.3389 16.4128 27.7418 16.8157C28.1447 17.2186 28.6912 17.4449 29.2609 17.4449Z" stroke="#277AF7" stroke-width="1.5246" stroke-linecap="round" stroke-linejoin="round"/>
<path d="M16.9082 16.908L19.0565 19.0563M27.1128 17.445L26.0386 18.5192M29.2611 28.9923L26.0386 24.9642M18.5195 27.6496L20.6678 25.5013" stroke="#277AF7" stroke-width="1.5246" stroke-linecap="round" stroke-linejoin="round"/>
</svg>
