<svg width="47" height="48" viewBox="0 0 47 48" fill="none" xmlns="http://www.w3.org/2000/svg">
<rect x="0.75" y="0.75" width="45.5" height="46.3393" rx="11.6184" fill="white" stroke="#277AF7" stroke-width="1.5"/>
<rect x="4.75" y="5.25" width="37.5219" height="37.5219" rx="8.8975" fill="white" stroke="#277AF7" stroke-width="1.5"/>
<path d="M22.8901 18.6159L25.5218 20.2164L24.8236 17.198L27.1867 15.1786L24.0824 14.91L22.8901 12.0742L21.6762 14.91L18.5934 15.1786L20.9351 17.198L20.2046 20.2164L22.8901 18.6159ZM26.1126 35.7059H19.6676V21.7417H26.1126V35.7059ZM11.0742 29.2609V35.7059H17.5192V29.2609H11.0742ZM15.3709 33.5576H13.2226V31.4092H15.3709V33.5576ZM28.2609 24.9642V35.7059H34.7059V24.9642H28.2609ZM32.5576 33.5576H30.4092V27.1126H32.5576V33.5576Z" fill="#277AF7"/>
</svg>
