<svg width="47" height="48" viewBox="0 0 47 48" fill="none" xmlns="http://www.w3.org/2000/svg">
<rect x="0.75" y="0.75" width="45.5" height="46.3393" rx="11.6184" fill="white" stroke="#277AF7" stroke-width="1.5"/>
<rect x="4.75" y="5.25" width="37.5219" height="37.5219" rx="8.8975" fill="white" stroke="#277AF7" stroke-width="1.5"/>
<path d="M14.2226 27.1125V28.7237H17.9172L12.6113 34.0296L13.7505 35.1687L19.0563 29.8629V33.5575H20.6676V27.1125H14.2226Z" fill="#277AF7"/>
<path d="M29.5295 23.8901C28.2646 23.8901 27.1029 24.3058 26.1611 25.0115L22.7622 21.6142C23.4943 20.6457 23.8903 19.4647 23.8901 18.2507C23.8901 15.141 21.3604 12.6113 18.2507 12.6113C15.141 12.6113 12.6113 15.141 12.6113 18.2507C12.6113 21.3604 15.141 23.8901 18.2507 23.8901C19.5155 23.8901 20.6821 23.4591 21.6239 22.7533L25.022 26.1507C24.2887 27.1246 23.8915 28.3103 23.8901 29.5295C23.8901 32.6392 26.4197 35.1688 29.5295 35.1688C32.6392 35.1688 35.1688 32.6392 35.1688 29.5295C35.1688 26.4197 32.6392 23.8901 29.5295 23.8901ZM14.2226 18.2507C14.2226 16.0296 16.0296 14.2226 18.2507 14.2226C20.4718 14.2226 22.2788 16.0296 22.2788 18.2507C22.2788 20.4718 20.4718 22.2788 18.2507 22.2788C16.0296 22.2788 14.2226 20.4718 14.2226 18.2507Z" fill="#277AF7"/>
</svg>
