<svg width="47" height="48" viewBox="0 0 47 48" fill="none" xmlns="http://www.w3.org/2000/svg">
<rect x="0.75" y="0.75" width="45.5" height="46.3393" rx="11.6184" fill="white" stroke="#277AF7" stroke-width="1.5"/>
<rect x="4.75" y="5.25" width="37.5219" height="37.5219" rx="8.8975" fill="white" stroke="#277AF7" stroke-width="1.5"/>
<path d="M23.9625 14.2221C28.1513 14.2221 31.4808 17.5516 31.4808 21.7404C31.4808 24.7477 29.7623 27.3254 27.1846 28.5068V33.5548H19.6664V30.3327H18.5923C17.4109 30.3327 16.4443 29.366 16.4443 28.1846V24.9625H14.8332C14.4036 24.9625 14.0814 24.4255 14.4036 24.1033L16.4443 21.4182C16.6591 17.3368 19.8812 14.2221 23.9625 14.2221ZM23.9625 12.074C19.0219 12.074 14.9406 15.7258 14.4036 20.5589L12.6851 22.8144C12.0407 23.6736 12.0407 24.7477 12.4703 25.6069C12.8999 26.3587 13.5444 26.8957 14.2962 27.0032V28.1846C14.2962 30.2253 15.6924 31.8363 17.5183 32.3733V35.7029H29.3327V29.7956C32.0178 27.9698 33.6288 25.0699 33.6288 21.7404C33.6288 16.3702 29.3327 12.074 23.9625 12.074ZM25.0365 26.0365H22.8885V24.9625H25.0365V26.0365ZM26.755 21.2034C26.4328 21.633 26.1106 22.0626 25.5736 22.3848V23.8884H22.3515V22.3848C20.8478 21.5256 20.3108 19.4849 21.17 17.9812C22.0292 16.4776 24.0699 15.9406 25.5736 16.7998C27.0772 17.659 27.6142 19.6997 26.755 21.2034Z" fill="#277AF7"/>
</svg>
