<svg width="47" height="48" viewBox="0 0 47 48" fill="none" xmlns="http://www.w3.org/2000/svg">
<rect x="0.75" y="0.75" width="45.5" height="46.3393" rx="11.6184" fill="white" stroke="#277AF7" stroke-width="1.5"/>
<rect x="4.75" y="5.25" width="37.5219" height="37.5219" rx="8.8975" fill="white" stroke="#277AF7" stroke-width="1.5"/>
<g clip-path="url(#clip0_71_2892)">
<path d="M20.7418 17.445C20.7414 18.9489 21.1357 20.4266 21.8853 21.7304C22.6349 23.0341 23.7135 24.1184 25.0134 24.8747C26.3133 25.631 27.7889 26.033 29.2928 26.0404C30.7967 26.0478 32.2762 25.6604 33.5834 24.9169C33.0668 30.3672 28.4758 34.6317 22.8901 34.6317C16.9575 34.6317 12.1484 29.8226 12.1484 23.89C12.1484 18.3043 16.4129 13.7133 21.8632 13.1967C21.1258 14.491 20.7393 15.9554 20.7418 17.445ZM14.2968 23.89C14.2968 26.1691 15.2021 28.3548 16.8137 29.9664C18.4253 31.578 20.611 32.4833 22.8901 32.4833C24.4084 32.4832 25.8996 32.0812 27.2122 31.318C28.5248 30.5549 29.6119 29.4578 30.3631 28.1383C30.0236 28.1706 29.6799 28.1867 29.3351 28.1867C23.4025 28.1867 18.5934 23.3776 18.5934 17.445C18.5934 17.1002 18.6096 16.7575 18.6418 16.417C17.3223 17.1682 16.2253 18.2553 15.4621 19.5679C14.6989 20.8805 14.2969 22.3717 14.2968 23.89ZM29.5113 13.4609L30.4093 13.6854V14.7596L29.5113 14.9841C29.1336 15.0785 28.7887 15.2738 28.5134 15.5491C28.2381 15.8244 28.0428 16.1693 27.9484 16.547L27.7239 17.445H26.6497L26.4252 16.547C26.3307 16.1693 26.1354 15.8244 25.8601 15.5491C25.5849 15.2738 25.24 15.0785 24.8623 14.9841L23.9643 14.7596V13.6854L24.8623 13.4609C25.2398 13.3663 25.5844 13.1709 25.8595 12.8956C26.1346 12.6204 26.3297 12.2755 26.4241 11.898L26.6497 11H27.7239L27.9484 11.898C28.0428 12.2757 28.2381 12.6206 28.5134 12.8959C28.7887 13.1712 29.1336 13.3665 29.5113 13.4609ZM34.8821 18.8317L35.7801 19.0563V20.1304L34.8821 20.3549C34.5044 20.4494 34.1595 20.6447 33.8842 20.92C33.609 21.1952 33.4136 21.5402 33.3192 21.9178L33.0947 22.8158H32.0205L31.796 21.9178C31.7016 21.5402 31.5063 21.1952 31.231 20.92C30.9557 20.6447 30.6108 20.4494 30.2331 20.3549L29.3351 20.1304V19.0563L30.2331 18.8317C30.6108 18.7373 30.9557 18.542 31.231 18.2667C31.5063 17.9914 31.7016 17.6465 31.796 17.2688L32.0205 16.3708H33.0947L33.3192 17.2688C33.4136 17.6465 33.609 17.9914 33.8842 18.2667C34.1595 18.542 34.5044 18.7373 34.8821 18.8317Z" fill="#277AF7"/>
</g>
<defs>
<clipPath id="clip0_71_2892">
<rect width="25.78" height="25.78" fill="white" transform="translate(10 11)"/>
</clipPath>
</defs>
</svg>
