<svg width="137" height="36" viewBox="0 0 137 36" fill="none" xmlns="http://www.w3.org/2000/svg">
<path d="M49.2568 19.4503V19.1944C49.2568 18.5631 49.035 18.0683 48.6085 17.7271C48.1819 17.3688 47.636 17.1982 46.9535 17.1982C46.4246 17.1982 46.0151 17.2835 45.708 17.4711C45.4179 17.6418 45.145 17.8977 44.872 18.256C44.7867 18.3584 44.7014 18.4266 44.616 18.4778C44.5307 18.5119 44.3942 18.529 44.2407 18.529H43.6435C43.507 18.529 43.3705 18.4778 43.2511 18.3754C43.1487 18.273 43.0976 18.1536 43.1146 18.0001C43.1487 17.6076 43.3535 17.2323 43.6947 16.8569C44.053 16.4645 44.5137 16.1574 45.0938 15.9015C45.6739 15.6626 46.2881 15.5261 46.9535 15.5261C48.1819 15.5261 49.1715 15.8674 49.9222 16.5328C50.69 17.2152 51.0653 18.1536 51.0653 19.365V25.3024C51.0653 25.4389 51.0141 25.5754 50.9118 25.6778C50.8094 25.7802 50.6729 25.8313 50.5364 25.8313H49.8028C49.6663 25.8313 49.5298 25.7802 49.4274 25.6778C49.325 25.5754 49.2739 25.456 49.2739 25.3024V24.5005C49.0691 24.9612 48.6085 25.3366 47.926 25.6095C47.2435 25.8825 46.5611 26.019 45.8786 26.019C45.2132 26.019 44.616 25.8996 44.0871 25.6607C43.5582 25.4219 43.1487 25.0806 42.8587 24.6711C42.5857 24.2617 42.4492 23.7839 42.4492 23.2721C42.4492 22.2996 42.8246 21.5489 43.5582 21.0029C44.2919 20.4399 45.2814 20.0645 46.5099 19.8768L49.2568 19.4503ZM49.2568 21.02L46.9194 21.3953C46.0663 21.5318 45.4009 21.7366 44.9231 22.0437C44.4454 22.3337 44.2066 22.692 44.2066 23.1356C44.2066 23.4598 44.3601 23.7498 44.6672 24.0057C44.9743 24.2617 45.435 24.3982 46.0492 24.3982C47.0047 24.3982 47.7724 24.1252 48.3525 23.5963C48.9497 23.0674 49.2397 22.3678 49.2397 21.5148V21.02H49.2568Z" fill="#0C0C0E"/>
<path d="M55.7397 25.3364C55.7397 25.4729 55.6885 25.6094 55.5862 25.7118C55.4838 25.8141 55.3473 25.8653 55.2108 25.8653H54.4771C54.3407 25.8653 54.2042 25.8141 54.1018 25.7118C53.9994 25.6094 53.9482 25.49 53.9482 25.3364V12.5743C53.9482 12.4378 53.9994 12.3013 54.1018 12.199C54.2042 12.0966 54.3407 12.0454 54.4771 12.0454H55.2108C55.3473 12.0454 55.4838 12.0966 55.5862 12.199C55.6885 12.3013 55.7397 12.4208 55.7397 12.5743V25.3364Z" fill="#0C0C0E"/>
<path d="M62.8546 24.3811C64.1684 24.3811 65.0556 23.8693 65.5162 22.8626C65.6015 22.675 65.7039 22.5385 65.7892 22.4532C65.8745 22.3679 66.011 22.3337 66.1646 22.3337H66.7617C66.8982 22.3337 67.0347 22.3849 67.1371 22.4873C67.2395 22.5726 67.2906 22.692 67.2906 22.8115C67.2906 23.2551 67.12 23.7328 66.7617 24.2276C66.4034 24.7394 65.8916 25.166 65.2262 25.5072C64.5608 25.8655 63.7589 26.0361 62.8546 26.0361C61.9162 26.0361 61.1143 25.8484 60.4319 25.456C59.7494 25.0636 59.2205 24.5347 58.8451 23.8693C58.4698 23.1868 58.265 22.419 58.2309 21.566C58.2139 21.4124 58.2139 21.1053 58.2139 20.6788C58.2139 20.3717 58.2139 20.1498 58.2309 20.0134C58.3504 18.6825 58.811 17.6077 59.5959 16.7887C60.3807 15.9527 61.4726 15.5432 62.8546 15.5432C63.7589 15.5432 64.5437 15.7138 65.2091 16.0721C65.8745 16.4134 66.3864 16.8228 66.7276 17.3347C67.0859 17.8295 67.2736 18.2901 67.3077 18.7337C67.3248 18.8702 67.2736 19.0067 67.1542 19.1091C67.0518 19.2115 66.9153 19.2626 66.7788 19.2626H66.1816C66.0281 19.2626 65.8916 19.2285 65.8063 19.1432C65.721 19.0579 65.6186 18.9214 65.5333 18.7337C65.0726 17.7271 64.1854 17.2152 62.8717 17.2152C62.1551 17.2152 61.5068 17.4541 60.9778 17.9318C60.4319 18.4096 60.1248 19.1432 60.0565 20.1157C60.0395 20.2522 60.0395 20.4911 60.0395 20.8152C60.0395 21.1053 60.0395 21.3271 60.0565 21.4807C60.1418 22.4532 60.466 23.1868 60.9778 23.6645C61.5068 24.1423 62.138 24.3811 62.8546 24.3811Z" fill="#0C0C0E"/>
<path d="M78.7906 25.3364C78.7906 25.4729 78.7394 25.6094 78.637 25.7118C78.5347 25.8141 78.3982 25.8653 78.2617 25.8653H77.528C77.3915 25.8653 77.255 25.8141 77.1527 25.7118C77.0503 25.6094 76.9991 25.49 76.9991 25.3364V20.2009C76.9991 19.2283 76.7603 18.4947 76.2655 17.9828C75.7707 17.471 75.1053 17.2321 74.2351 17.2321C73.3821 17.2321 72.6996 17.4881 72.2048 17.9828C71.71 18.4947 71.4712 19.2283 71.4712 20.2009V25.3364C71.4712 25.4729 71.42 25.6094 71.3176 25.7118C71.2152 25.8141 71.0787 25.8653 70.9422 25.8653H70.2086C70.0721 25.8653 69.9356 25.8141 69.8332 25.7118C69.7309 25.6094 69.6797 25.49 69.6797 25.3364V12.5743C69.6797 12.4378 69.7309 12.3013 69.8332 12.199C69.9356 12.0966 70.0721 12.0454 70.2086 12.0454H70.9422C71.0787 12.0454 71.2152 12.0966 71.3176 12.199C71.42 12.3013 71.4712 12.4208 71.4712 12.5743V16.8738C71.7612 16.4985 72.1536 16.1914 72.6484 15.9355C73.1603 15.6795 73.7915 15.543 74.5252 15.543C75.3612 15.543 76.0949 15.7137 76.7432 16.072C77.3915 16.4302 77.8863 16.925 78.2446 17.5904C78.62 18.2388 78.7906 19.0065 78.7906 19.9108V25.3364Z" fill="#0C0C0E"/>
<path d="M85.717 15.5432C87.1332 15.5432 88.2422 15.9868 89.0611 16.874C89.8801 17.7612 90.2896 18.9555 90.2896 20.474V21.0029C90.2896 21.1394 90.2384 21.2759 90.136 21.3783C90.0336 21.4807 89.8971 21.5318 89.7606 21.5318H82.9701V21.6513C83.0042 22.5043 83.2602 23.1868 83.755 23.6816C84.2668 24.1593 84.9322 24.3982 85.7341 24.3982C86.3995 24.3982 86.8943 24.3129 87.2526 24.1423C87.6279 23.9716 87.9521 23.7328 88.2422 23.4257C88.3445 23.3233 88.4469 23.2551 88.5151 23.2039C88.6005 23.1698 88.7199 23.1527 88.8734 23.1527H89.4706C89.6242 23.1527 89.7606 23.2039 89.863 23.3062C89.9654 23.4086 90.0166 23.528 89.9995 23.6816C89.9483 24.0399 89.7436 24.3982 89.4023 24.7735C89.0782 25.1318 88.6005 25.456 87.9521 25.7119C87.3379 25.9508 86.5872 26.0873 85.717 26.0873C84.881 26.0873 84.1303 25.8996 83.4649 25.5243C82.7995 25.1318 82.2877 24.6029 81.8782 23.9375C81.5028 23.2551 81.264 22.5043 81.1787 21.6683C81.1445 21.2759 81.1445 20.9859 81.1445 20.7811C81.1445 20.5764 81.1616 20.2693 81.1787 19.8939C81.264 19.092 81.4858 18.3584 81.8782 17.71C82.2706 17.0617 82.7995 16.5498 83.4308 16.1745C84.0962 15.7309 84.864 15.5432 85.717 15.5432ZM88.4981 19.8939V19.8427C88.4981 19.0579 88.2422 18.4266 87.7303 17.9489C87.2355 17.4712 86.5531 17.2323 85.717 17.2323C84.9493 17.2323 84.3009 17.4712 83.755 17.9489C83.226 18.4266 82.9531 19.0579 82.9531 19.8427V19.8939H88.4981Z" fill="#0C0C0E"/>
<path d="M94.4526 16.874C94.7768 16.4645 95.118 16.1574 95.5275 15.9186C95.9199 15.6797 96.4488 15.5432 97.1142 15.5432C98.6498 15.5432 99.7417 16.1062 100.356 17.2323C100.731 16.6863 101.175 16.2769 101.653 15.9868C102.147 15.6968 102.779 15.5432 103.564 15.5432C104.86 15.5432 105.816 15.9186 106.43 16.6863C107.061 17.4541 107.385 18.529 107.385 19.928V25.3195C107.385 25.456 107.334 25.5925 107.232 25.6949C107.129 25.7972 106.993 25.8484 106.856 25.8484H106.123C105.986 25.8484 105.85 25.7972 105.747 25.6949C105.645 25.5925 105.594 25.4731 105.594 25.3195V20.1328C105.594 18.1878 104.809 17.2152 103.256 17.2152C102.54 17.2152 101.977 17.4541 101.55 17.9148C101.124 18.3754 100.919 19.075 100.919 19.9963V25.3195C100.919 25.456 100.868 25.5925 100.765 25.6949C100.663 25.7972 100.527 25.8484 100.39 25.8484H99.6564C99.5199 25.8484 99.3834 25.7972 99.281 25.6949C99.1787 25.5925 99.1275 25.4731 99.1275 25.3195V20.1328C99.1275 18.1878 98.3427 17.2152 96.79 17.2152C96.0735 17.2152 95.5104 17.4541 95.0839 17.9148C94.6573 18.3754 94.4526 19.075 94.4526 19.9963V25.3195C94.4526 25.456 94.4014 25.5925 94.2991 25.6949C94.1967 25.7972 94.0602 25.8484 93.9237 25.8484H93.19C93.0536 25.8484 92.9171 25.7972 92.8147 25.6949C92.7123 25.5925 92.6611 25.4731 92.6611 25.3195V16.2598C92.6611 16.1233 92.7123 15.9868 92.8147 15.8844C92.9171 15.7821 93.0536 15.7309 93.19 15.7309H93.9237C94.0602 15.7309 94.1967 15.7821 94.2991 15.8844C94.4014 15.9868 94.4526 16.1062 94.4526 16.2598V16.874Z" fill="#0C0C0E"/>
<path d="M112.914 29.09C112.795 29.3971 112.607 29.5507 112.334 29.5507H111.532C111.396 29.5507 111.293 29.4995 111.191 29.4142C111.105 29.3288 111.054 29.2094 111.054 29.09C111.054 29.0388 111.054 28.9876 111.071 28.9535L112.965 24.8928L109.058 16.345C109.041 16.3108 109.041 16.2597 109.041 16.2085C109.041 16.072 109.092 15.9696 109.178 15.8843C109.263 15.799 109.382 15.7478 109.519 15.7478H110.321C110.577 15.7478 110.781 15.9014 110.901 16.2085L113.938 22.8284L117.026 16.2085C117.145 15.9014 117.333 15.7478 117.606 15.7478H118.408C118.544 15.7478 118.647 15.799 118.749 15.8843C118.834 15.9696 118.886 16.089 118.886 16.2085C118.886 16.2597 118.886 16.3108 118.869 16.345L112.914 29.09Z" fill="#0C0C0E"/>
<path d="M34.9596 19.4161L28.3226 8.15545C28.2885 8.10427 28.2373 8.05308 28.1861 8.01896C28.135 7.98484 28.0667 7.96777 27.9985 7.96777C27.9302 7.96777 27.862 7.98484 27.8108 8.01896C27.7596 8.05308 27.7084 8.10427 27.6743 8.15545L25.6951 11.5337C25.6269 11.636 25.5928 11.7725 25.5928 11.8919C25.5928 12.0114 25.6269 12.1479 25.6951 12.2502L30.0288 19.6038C30.097 19.7062 30.1823 19.8085 30.3018 19.8768C30.4212 19.945 30.5406 19.9791 30.6771 19.9791H34.6354C34.7037 19.9791 34.7719 19.9621 34.8231 19.928C34.8743 19.8938 34.9255 19.8427 34.9596 19.7915C34.9937 19.7403 35.0108 19.672 35.0108 19.6038C35.0108 19.5355 34.9937 19.4844 34.9596 19.4161Z" fill="#0C0C0E"/>
<path d="M17.5731 25.3023L24.2101 14.0417C24.2442 13.9905 24.2954 13.9393 24.3466 13.9052C24.3978 13.8711 24.466 13.854 24.5343 13.854C24.6025 13.854 24.6708 13.8711 24.7219 13.9052C24.7731 13.9393 24.8243 13.9905 24.8584 14.0417L26.8376 17.4199C26.9058 17.5222 26.94 17.6587 26.94 17.7782C26.94 17.8976 26.9058 18.0341 26.8376 18.1365L22.5039 25.49C22.4357 25.5924 22.3504 25.6948 22.2309 25.763C22.1115 25.8313 21.9921 25.8654 21.8556 25.8654H17.8802C17.812 25.8654 17.7437 25.8483 17.6926 25.8142C17.6414 25.7801 17.5902 25.7289 17.5561 25.6777C17.5219 25.6265 17.5049 25.5583 17.5049 25.49C17.5219 25.4218 17.539 25.3706 17.5731 25.3023Z" fill="#0C0C0E"/>
<path d="M24.8417 25.8483H38.1156C38.1839 25.8483 38.2521 25.8313 38.3033 25.7971C38.3545 25.763 38.4057 25.7118 38.4398 25.6606C38.4739 25.6095 38.491 25.5412 38.491 25.473C38.491 25.4047 38.4739 25.3535 38.4398 25.2853L36.4606 21.9071C36.3924 21.8047 36.3071 21.7024 36.1877 21.6341C36.0682 21.5659 35.9488 21.5317 35.8123 21.5317H27.1621C27.0256 21.5317 26.9061 21.5659 26.7867 21.6341C26.6673 21.7024 26.582 21.7877 26.5137 21.9071L24.5346 25.2853C24.5005 25.3365 24.4834 25.4047 24.4834 25.473C24.4834 25.5412 24.5005 25.5924 24.5346 25.6606C24.5687 25.7118 24.6199 25.763 24.6711 25.7971C24.7223 25.8313 24.7905 25.8483 24.8417 25.8483Z" fill="#0C0C0E"/>
</svg>
