<svg width="122" height="27" viewBox="0 0 122 27" fill="none" xmlns="http://www.w3.org/2000/svg">
<path d="M36.0015 8.40265L39.9325 1.58209C40.153 1.18633 40.0151 0.688809 39.621 0.467186C39.4354 0.362721 39.2163 0.334993 39.0105 0.389927C38.8047 0.444861 38.6285 0.5781 38.5197 0.761175L34.5434 7.66202C31.3706 6.23177 27.93 5.49214 24.4497 5.49214C20.9694 5.49214 17.5288 6.23177 14.356 7.66202L10.3798 0.758914C10.325 0.666567 10.2526 0.585941 10.1666 0.521664C10.0806 0.457387 9.98278 0.410724 9.87872 0.384354C9.77466 0.357984 9.66641 0.352426 9.56019 0.367999C9.45398 0.383571 9.35188 0.419968 9.25977 0.475101C9.07698 0.585092 8.94419 0.761921 8.88952 0.968129C8.83486 1.17434 8.86262 1.39373 8.96691 1.57982L12.8979 8.40038C6.11917 12.0798 1.51597 18.9235 0.84375 26.9998H48.0087C47.336 18.9235 42.7226 12.0798 36.0015 8.40265ZM13.5803 20.2612C13.3226 20.2609 13.0676 20.2098 12.8297 20.1109C12.5917 20.012 12.3757 19.8672 12.1937 19.6847C12.0118 19.5023 11.8676 19.2858 11.7694 19.0476C11.6712 18.8094 11.6209 18.5542 11.6213 18.2965C11.6213 17.211 12.4976 16.3319 13.5803 16.3319C13.8379 16.3322 14.093 16.3832 14.3309 16.4822C14.5688 16.5811 14.7849 16.7259 14.9668 16.9083C15.1488 17.0908 15.293 17.3073 15.3912 17.5455C15.4894 17.7837 15.5397 18.0389 15.5393 18.2965C15.5399 18.8168 15.3339 19.316 14.9665 19.6844C14.5992 20.0528 14.1005 20.2603 13.5803 20.2612ZM35.2943 20.2612C35.0366 20.2609 34.7815 20.2098 34.5436 20.1109C34.3057 20.012 34.0896 19.8672 33.9077 19.6847C33.7258 19.5023 33.5816 19.2858 33.4834 19.0476C33.3851 18.8094 33.3348 18.5542 33.3353 18.2965C33.3353 17.211 34.2116 16.3319 35.2943 16.3319C35.5519 16.3322 35.807 16.3832 36.0449 16.4822C36.2828 16.5811 36.4989 16.7259 36.6808 16.9083C36.8627 17.0908 37.0069 17.3073 37.1051 17.5455C37.2034 17.7837 37.2537 18.0389 37.2532 18.2965C37.2532 19.382 36.3769 20.2612 35.2943 20.2612Z" fill="#3DDC84"/>
<path d="M63.756 14.3156C62.1291 14.3156 61.0335 15.5961 61.0335 17.244C61.0335 18.892 62.1291 20.1725 63.756 20.1725C65.3828 20.1725 66.4776 18.892 66.4776 17.2448C66.461 15.5961 65.3684 14.3156 63.756 14.3156ZM63.3923 12.4994C64.6999 12.4994 65.7955 13.1702 66.3124 13.9014V12.6813H68.3195V21.8151H66.7696C66.6486 21.8141 66.5329 21.7655 66.4474 21.6798C66.362 21.5941 66.3137 21.4782 66.3131 21.3571V20.595C65.7955 21.3269 64.7165 21.997 63.393 21.997C60.8985 21.997 59 19.8639 59 17.2554C58.997 14.6499 60.8826 12.4994 63.3923 12.4994ZM70.5983 12.6813H72.6054V13.9157C73.1524 13.0019 74.1877 12.4971 75.3708 12.4971C77.4851 12.4971 78.8531 13.9897 78.8531 16.3084V21.8121H77.3168C77.1958 21.8111 77.08 21.7625 76.9946 21.6768C76.9091 21.5911 76.8609 21.4751 76.8603 21.3541V16.6427C76.8603 15.1939 76.1307 14.3239 74.9588 14.3239C73.6346 14.3239 72.6024 15.3614 72.6024 17.3135V21.8121H71.0661C70.9451 21.8111 70.8293 21.7625 70.7438 21.6768C70.6584 21.5911 70.6102 21.4751 70.6096 21.3541L70.5983 12.6813ZM85.1808 14.3156C83.554 14.3156 82.4583 15.5961 82.4583 17.244C82.4583 18.892 83.554 20.1725 85.1808 20.1725C86.8076 20.1725 87.9032 18.892 87.9032 17.2448C87.9032 15.5961 86.8076 14.3156 85.1808 14.3156ZM84.8148 12.4994C86.1217 12.4994 87.2173 13.1702 87.7349 13.9014V8.10866H89.7421V21.8159H88.2058C88.0846 21.8151 87.9687 21.7666 87.8831 21.6808C87.7975 21.5951 87.7491 21.479 87.7485 21.3579V20.5958C87.2309 21.3277 86.1526 21.9977 84.8284 21.9977C82.3346 21.9977 80.4354 19.8646 80.4354 17.2561C80.4354 14.6506 82.321 12.4994 84.8148 12.4994ZM92.0231 12.6813H94.0302V14.3126C94.2055 13.8137 94.5301 13.3808 94.9599 13.0728C95.3897 12.7647 95.9039 12.5964 96.4327 12.5907C96.6938 12.5847 96.9533 12.6126 97.2084 12.6677V14.7269C96.8839 14.619 96.5451 14.5608 96.2048 14.5586C95.0647 14.5586 94.0166 15.5357 94.0166 17.3489V21.8008H92.4773C92.3563 21.7998 92.2405 21.7512 92.1551 21.6655C92.0696 21.5797 92.0214 21.4638 92.0208 21.3428V12.6813H92.0231ZM102.603 20.1234C104.2 20.1234 105.339 18.8558 105.339 17.241C105.339 15.6104 104.214 14.3594 102.603 14.3594C100.977 14.3594 99.8508 15.627 99.8508 17.2418C99.8674 18.8724 100.977 20.1234 102.603 20.1234ZM102.603 22C99.9889 21.9774 97.8829 19.8359 97.9048 17.2108C97.9275 14.5857 100.063 12.4775 102.681 12.4994C103.934 12.5112 105.131 13.0182 106.011 13.9097C106.892 14.8012 107.383 16.0048 107.379 17.2576C107.393 19.8639 105.296 21.9864 102.697 22H102.603ZM109.006 12.6813H111.012V21.8151H109.477C109.356 21.8143 109.24 21.7658 109.154 21.6801C109.068 21.5943 109.02 21.4783 109.019 21.3571L109.006 12.6813ZM110.01 10.6862C109.652 10.6817 109.309 10.537 109.056 10.2831C108.803 10.0293 108.66 9.68642 108.656 9.32802C108.663 8.97353 108.809 8.63589 109.062 8.38759C109.315 8.13929 109.656 8.00013 110.01 8C110.748 8 111.348 8.60213 111.348 9.3416C111.348 10.0841 110.748 10.6862 110.01 10.6862ZM117.415 14.3156C115.788 14.3156 114.692 15.5961 114.692 17.244C114.692 18.892 115.788 20.1725 117.415 20.1725C119.041 20.1725 120.136 18.892 120.136 17.2448C120.106 15.5961 119.041 14.3156 117.415 14.3156ZM117.048 12.4994C118.356 12.4994 119.451 13.1702 119.969 13.9014V8.10866H121.975V21.8159H120.439C120.318 21.8149 120.202 21.7663 120.117 21.6806C120.031 21.5948 119.983 21.4789 119.982 21.3579V20.5958C119.465 21.3277 118.386 21.9977 117.062 21.9977C114.568 21.9977 112.669 19.8646 112.669 17.2561C112.669 14.6506 114.555 12.4994 117.048 12.4994Z" fill="black"/>
</svg>
