<svg width="110" height="36" viewBox="0 0 110 36" fill="none" xmlns="http://www.w3.org/2000/svg">
<path d="M14.3312 0.348931C14.8602 0.250872 15.3919 0.16766 15.9257 0.0993962C16.3337 0.0500455 17.1309 0.00973112 17.6988 0C18.257 0 19.1536 0.0396193 19.6916 0.0993962C20.2199 0.149442 21.1763 0.319042 21.8033 0.448327C22.4316 0.587343 23.3776 0.866765 23.8955 1.05583C24.414 1.24558 25.4003 1.69391 26.0877 2.04284C26.7752 2.39038 27.8115 3.03889 28.4093 3.47679C28.9967 3.91469 29.8933 4.69249 30.4014 5.20059C30.9192 5.69896 31.6665 6.56572 32.0752 7.11345C32.4839 7.66117 33.0413 8.51751 33.3207 9.00615C33.5995 9.49479 33.9984 10.2816 34.1972 10.7501C34.4686 11.3842 34.7048 12.0328 34.9048 12.6929C35.0842 13.3004 35.3031 14.2172 35.4025 14.735C35.4929 15.2528 35.5923 16.3587 35.6222 17.1761C35.652 18.0825 35.6319 19.0786 35.5624 19.7166C35.4929 20.2936 35.3532 21.1416 35.2538 21.6093C34.9377 23.0013 34.4699 24.3543 33.8587 25.6443C33.5094 26.337 33.1202 27.0089 32.6931 27.6565C32.2503 28.3081 31.7747 28.9368 31.2682 29.5402C30.8602 30.0282 30.1421 30.7455 29.6744 31.1535C29.1294 31.6227 28.5642 32.068 27.9804 32.488C27.3372 32.9113 26.6723 33.3007 25.9883 33.6544C25.3607 33.9734 24.414 34.4016 23.8962 34.5907C23.3776 34.7804 22.4309 35.0591 21.804 35.1988C21.1756 35.3281 20.2192 35.4977 19.6909 35.5471C19.1536 35.6069 18.3362 35.6569 17.8684 35.6569C17.3999 35.6569 16.5825 35.6069 16.055 35.5471C15.4097 35.4782 14.7681 35.3785 14.1324 35.2482C13.4592 35.0999 12.794 34.917 12.1396 34.7005C11.562 34.5114 10.6848 34.1625 10.1968 33.9234C9.60125 33.6352 9.01953 33.3193 8.45356 32.9767C7.88696 32.6189 7.33834 32.2333 6.8097 31.8215C6.3718 31.4823 5.58427 30.7552 5.05601 30.2172C4.53818 29.6695 3.86047 28.8924 3.55186 28.4837C3.25297 28.075 2.80465 27.4272 2.57527 27.0393C2.33616 26.6501 1.95735 25.9334 1.71824 25.4448C1.45715 24.873 1.21787 24.2915 1.00092 23.7015C0.841742 23.233 0.592903 22.3364 0.443461 21.7087C0.304445 21.0811 0.13415 19.9356 0.0750686 19.1682C-0.0250229 18.0825 -0.0250229 17.475 0.0750686 16.4289C0.13415 15.6914 0.304445 14.5661 0.443461 13.9377C0.592903 13.3101 0.841742 12.4134 1.00092 11.9456C1.21787 11.3555 1.45715 10.7737 1.71824 10.2017C1.95735 9.71374 2.33686 8.99642 2.57527 8.60787C2.80465 8.22905 3.25297 7.5722 3.55186 7.16349C3.86047 6.75479 4.53818 5.97769 5.05601 5.42997C5.58427 4.89197 6.3711 4.16492 6.8097 3.82572C7.33832 3.41363 7.88694 3.02785 8.45356 2.6698C9.01954 2.32738 9.60126 2.0117 10.1968 1.7238C10.6855 1.48469 11.6315 1.1156 12.289 0.906385C12.9466 0.687435 13.8634 0.438596 14.3312 0.348931ZM102.95 12.7227C103.27 12.5754 103.604 12.4617 103.947 12.3835C104.366 12.2841 105.053 12.264 106.238 12.2841C107.165 12.3043 108.211 12.3738 109.178 12.5434L109.118 12.9215L109.114 12.948C109.084 13.144 109.047 13.3956 109.018 13.5193C108.998 13.6583 108.928 13.7188 108.829 13.6889C108.749 13.659 108.171 13.5895 107.564 13.529C106.946 13.4595 105.969 13.4401 105.392 13.4595C104.674 13.4998 104.206 13.5694 103.907 13.6986C103.668 13.7987 103.369 13.9975 103.249 14.1365C103.14 14.2769 103.011 14.5557 102.971 14.7649C102.931 14.9644 102.95 15.3126 103 15.5323C103.07 15.8103 103.23 16.0299 103.519 16.2795C103.757 16.4685 104.136 16.668 104.375 16.7278C104.605 16.7771 105.432 16.8272 106.208 16.8272C107.424 16.8272 107.663 16.8571 107.812 17.0065C107.912 17.0962 107.992 17.2755 107.982 17.4048C107.982 17.5244 107.892 17.7141 107.783 17.8232C107.603 18.0026 107.454 18.0227 105.92 18.0227C104.714 18.0227 104.116 18.0623 103.798 18.1617C103.538 18.2521 103.21 18.4606 103.03 18.6705C102.851 18.8596 102.672 19.1682 102.642 19.3476C102.612 19.569 102.612 19.7934 102.642 20.0148C102.672 20.2046 102.791 20.5132 102.901 20.6925C103.03 20.892 103.309 21.111 103.668 21.2806C104.196 21.5294 104.375 21.5593 105.591 21.5996C106.497 21.6191 107.274 21.5788 107.982 21.4696C108.56 21.38 109.038 21.3202 109.048 21.3403C109.068 21.3501 109.088 21.6093 109.128 22.4559L108.281 22.6353C107.703 22.7653 106.955 22.825 105.939 22.8348C104.784 22.8445 104.295 22.8049 103.798 22.6749C103.439 22.5755 102.931 22.376 102.662 22.2273C102.355 22.0467 102.076 21.8219 101.835 21.56C101.646 21.3403 101.426 20.9219 101.336 20.6133C101.236 20.2571 101.199 19.8861 101.227 19.5172C101.257 19.2183 101.357 18.8096 101.456 18.6205C101.546 18.4314 101.765 18.1221 101.945 17.9428C102.113 17.7537 102.382 17.5445 102.851 17.3151L102.433 16.9169C102.193 16.7076 101.904 16.3392 101.785 16.1099C101.616 15.7811 101.566 15.5218 101.566 14.9838C101.566 14.5161 101.626 14.1775 101.745 13.9377C101.882 13.6921 102.05 13.4647 102.243 13.2607C102.449 13.0452 102.688 12.8636 102.95 12.7227ZM92.5395 22.6054C92.3504 22.4163 92.34 22.2766 92.34 17.425V12.4433H93.735V21.6093H99.3144V22.8049H96.0267C92.8682 22.8049 92.7285 22.7952 92.5395 22.6054ZM65.8887 12.8221C66.1084 12.7624 66.5365 12.6831 66.8354 12.6428C67.1343 12.6032 67.5729 12.5629 67.812 12.5524C68.0407 12.5524 68.6683 12.5928 69.1966 12.6525C69.7346 12.7026 70.4818 12.8221 70.8704 12.9021C71.2589 12.9813 71.5779 13.0612 71.5974 13.071C71.6176 13.0814 71.5779 13.3504 71.5279 13.6687C71.4382 14.1372 71.3882 14.2269 71.2492 14.1769C71.1491 14.147 70.6215 14.0573 70.0731 13.9781C69.426 13.878 68.6287 13.8383 67.7821 13.8585C66.8153 13.8884 66.4072 13.9377 66.1681 14.067C65.9888 14.1574 65.7692 14.3367 65.6899 14.4563C65.61 14.5856 65.5405 14.8546 65.5405 15.0638C65.5405 15.3529 65.6197 15.5225 65.9089 15.8409C66.2078 16.1599 66.6957 16.4484 68.1303 17.1462C69.1466 17.6439 70.2823 18.2514 70.6611 18.5107C71.1296 18.82 71.4285 19.1084 71.6078 19.4178C71.8171 19.7764 71.8664 19.9856 71.8567 20.5132C71.8567 20.9615 71.7872 21.2903 71.6475 21.5593C71.5376 21.7789 71.2791 22.1077 71.0796 22.287C70.8801 22.456 70.5812 22.6756 70.422 22.7548C70.2629 22.8348 69.8639 22.9745 69.5553 23.0537C69.1966 23.1538 68.5488 23.2136 67.8815 23.2136C67.2837 23.2136 66.4072 23.1337 65.9388 23.044C65.4461 22.9472 64.9576 22.8308 64.4742 22.6951C64.126 22.5957 63.8466 22.4963 63.8466 22.4865C63.8466 22.4657 63.9161 22.2168 63.996 21.9374C64.076 21.649 64.1753 21.4099 64.2254 21.4099C64.265 21.4099 64.7432 21.5294 65.2916 21.6691C65.9388 21.829 66.6957 21.9381 67.4332 21.9777C68.3298 22.0278 68.7087 21.9979 69.157 21.8686C69.4656 21.7782 69.884 21.5697 70.0731 21.4099C70.2823 21.2305 70.4422 20.9817 70.4818 20.7926C70.5182 20.5716 70.4834 20.3448 70.3824 20.1448C70.2735 19.9408 70.1281 19.7585 69.9535 19.6068C69.7944 19.497 68.758 18.9395 67.6327 18.3717C66.2078 17.6543 65.4307 17.1956 65.0525 16.8564C64.7537 16.5978 64.4339 16.1995 64.3352 15.9806C64.2254 15.7512 64.1455 15.3425 64.1455 15.0339C64.1455 14.6446 64.215 14.3367 64.395 13.9878C64.5542 13.6555 64.7766 13.397 65.0623 13.2107C65.3014 13.0612 65.6698 12.8826 65.8887 12.8221ZM52.3395 18.0623C52.3395 13.2503 52.3493 13.0508 52.5293 12.852C52.6787 12.6922 52.8177 12.6428 53.077 12.663C53.4058 12.6929 53.5552 12.8715 56.3647 16.5485C57.9884 18.6705 59.3431 20.3839 59.3835 20.3645C59.4335 20.3339 59.4634 18.6108 59.4634 12.7422H60.7583V17.7537C60.7681 22.4163 60.7486 22.7653 60.5887 22.9342C60.4702 23.0435 60.3205 23.1132 60.1606 23.1336C60.0215 23.1336 59.8221 23.0739 59.7227 23.0044C59.6226 22.9244 58.2282 21.1416 53.7345 15.2229L53.6845 23.1038L52.3395 23.0537V18.0623ZM80.7732 17.7739C80.7634 13.4991 80.7836 13.0612 80.933 12.8618L81.1019 12.6324L83.6626 12.663C86.0836 12.6929 86.2428 12.7026 86.7112 12.9215C86.9802 13.0515 87.359 13.2899 87.5481 13.47C87.7274 13.6493 87.9665 13.9676 88.0659 14.1873C88.1855 14.4361 88.2557 14.8149 88.2557 15.2132C88.2557 15.672 88.1959 15.9604 88.0166 16.3094C87.8866 16.5679 87.6176 16.9266 87.4188 17.1059C87.2193 17.2755 87.0699 17.4451 87.0796 17.4646C87.0998 17.4847 87.2888 17.5946 87.5085 17.7037C87.7274 17.8135 88.0465 18.0526 88.2154 18.2417C88.3947 18.421 88.6144 18.7303 88.7138 18.9194C88.843 19.1682 88.9028 19.4775 88.9028 20.0155C88.9028 20.5924 88.8535 20.8621 88.6741 21.1902C88.5546 21.4196 88.305 21.7685 88.1257 21.968C87.9568 22.1675 87.5578 22.4462 87.2589 22.5859C86.7112 22.8549 86.7112 22.8549 81.1318 22.9147L80.9525 22.6853C80.7836 22.4761 80.7732 22.1174 80.7732 17.7739ZM42.1274 18.1423C43.2833 15.273 44.2696 12.8819 44.3392 12.8319C44.4087 12.7825 44.579 12.7422 44.718 12.7422C44.857 12.7422 45.037 12.8221 45.1267 12.9118C45.2163 13.0112 46.1526 15.1931 47.1987 17.7537C48.2448 20.3144 49.1018 22.4858 49.1018 22.5859C49.1018 22.6756 49.0323 22.8549 48.9524 22.9842C48.8426 23.1441 48.7036 23.2032 48.454 23.2032C48.1454 23.2032 47.8166 22.9738 45.794 21.3007C44.5192 20.2546 43.373 19.2982 43.0442 18.9694L41.3809 23.1837L40.7331 23.3033C40.3744 23.363 40.0755 23.4026 40.0658 23.3825C40.0554 23.3728 40.9819 21.0123 42.1274 18.1423ZM74.9553 23.0537L74.9255 17.9032L74.9053 12.7422H76.3003V23.1038L74.9553 23.0537Z" fill="#1A1918"/>
<path d="M17.2399 7.47146C17.3498 7.34217 17.5388 7.19343 17.6584 7.15311C17.7682 7.1128 17.9872 7.07318 18.1463 7.07318C18.2958 7.06345 18.5453 7.13295 18.7142 7.21219C18.8838 7.29213 19.0534 7.44157 19.1035 7.54166C19.1521 7.63133 20.8168 11.6162 22.7992 16.3782C25.4196 22.6652 26.406 25.1557 26.4157 25.4448C26.4157 25.6638 26.3462 25.9522 26.2663 26.092C26.1759 26.2317 25.9472 26.4207 25.7484 26.5208C25.5489 26.6105 25.2799 26.6897 25.1402 26.6897C25.0012 26.6897 24.7718 26.63 24.6224 26.5507C24.4625 26.4708 22.241 24.7074 19.6609 22.6152C15.8352 19.5165 14.9684 18.859 14.8989 18.9987C14.8586 19.089 14.1614 20.8219 11.8802 26.5403L10.5651 26.5702C9.83734 26.5806 9.25 26.5702 9.25 26.5403C9.25 26.5104 11.003 22.2662 13.1452 17.0955C15.2875 11.9353 17.1308 7.60074 17.2399 7.47146ZM82.1778 17.1254L82.1875 15.4225L82.1973 13.7181L83.9113 13.7585C85.3953 13.7883 85.6643 13.8182 86.0132 13.9976C86.2322 14.1067 86.5116 14.3562 86.6409 14.5453C86.7903 14.7642 86.8598 15.0332 86.8598 15.3127C86.8598 15.542 86.8001 15.8805 86.7306 16.0599C86.6611 16.2288 86.4414 16.4978 86.2524 16.6472C86.0633 16.7967 85.7144 16.9565 85.4655 17.0156C85.216 17.0761 84.3791 17.1254 82.1778 17.1254ZM43.5522 17.913C43.5313 17.8629 43.7711 17.1762 44.0798 16.3782C44.3884 15.5817 44.6873 14.9338 44.747 14.9338C44.8068 14.9338 45.3552 16.2093 45.9627 17.7732C46.5605 19.3274 47.0387 20.6231 47.0088 20.6523C46.9789 20.6822 46.2018 20.0948 45.2656 19.3573C44.339 18.6101 43.5626 17.9623 43.5522 17.913ZM82.1778 21.8082L82.1875 20.0051L82.1973 18.2014L84.1998 18.2417C86.0633 18.2716 86.2426 18.2911 86.6409 18.4906C86.88 18.6198 87.1587 18.8798 87.2783 19.0883C87.4382 19.3476 87.5077 19.6263 87.4979 19.9648C87.4979 20.254 87.418 20.6224 87.3082 20.8517C87.1789 21.1006 86.9495 21.33 86.6611 21.4996C86.2225 21.7484 86.1724 21.7581 82.1778 21.8082Z" fill="white"/>
<path d="M16.8613 14.0676C17.4494 12.6031 17.9874 11.2873 18.0374 11.1483L18.1368 10.8994L18.2765 11.2476C18.3669 11.4374 19.3727 13.9279 20.5181 16.777C21.6741 19.6268 22.6006 21.988 22.5804 22.0374C22.5603 22.0777 21.0958 20.9614 19.3129 19.5671C17.5293 18.1623 16.005 16.9563 15.9251 16.8771C15.7958 16.7575 15.9056 16.4183 16.862 14.0676H16.8613Z" fill="#1A1918"/>
</svg>
