<svg width="64" height="38" viewBox="0 0 64 38" fill="none" xmlns="http://www.w3.org/2000/svg">
<g clip-path="url(#clip0_337_4858)">
<path d="M52.2528 0.148147C52.4175 0.11838 52.738 0.0727799 52.966 0.0480799C53.2256 0.0202132 53.5936 0.00247986 53.9666 -5.34774e-05C54.3992 -0.00195348 54.6798 0.0100799 55.03 0.0480799C55.2897 0.0753132 55.6456 0.120913 55.8179 0.148147C55.9908 0.176013 56.2834 0.22858 56.4683 0.263413C56.6539 0.29888 56.9135 0.356513 57.044 0.388813C57.1738 0.42428 57.3942 0.484447 57.5317 0.524347C57.6691 0.56488 57.9148 0.64278 58.077 0.700413C58.2372 0.755513 58.4627 0.842913 58.5773 0.896113C58.69 0.94868 58.8851 1.05635 59.008 1.13931C59.1302 1.21975 59.293 1.34768 59.3658 1.42495C59.4405 1.50285 59.526 1.62318 59.5609 1.69095C59.5932 1.75871 59.6331 1.88411 59.6483 1.96708C59.6635 2.06018 59.6711 2.39141 59.666 2.83285C59.6584 3.48961 59.6533 3.55738 59.6058 3.66061C59.5706 3.73309 59.5203 3.79722 59.4583 3.84871C59.3709 3.91648 59.343 3.92408 59.1859 3.92408C59.079 3.92351 58.9728 3.90729 58.8705 3.87595C58.6793 3.8037 58.4899 3.72683 58.3024 3.64541C58.0643 3.54218 57.7324 3.41425 57.5646 3.35661C57.3553 3.2888 57.1441 3.22692 56.9313 3.17105C56.7514 3.12608 56.4759 3.06338 56.3182 3.03551C56.1313 3.00186 55.9435 2.97272 55.7552 2.94811C55.518 2.92011 55.2802 2.89752 55.042 2.88035C54.4751 2.84804 53.9065 2.85714 53.3409 2.90758C53.2111 2.92278 52.9685 2.96268 52.8026 2.99561C52.6379 3.02601 52.3801 3.09315 52.2275 3.14381C52.07 3.19771 51.9156 3.26051 51.7652 3.33191C51.6626 3.38195 51.522 3.46238 51.4523 3.50988C51.3845 3.55738 51.2496 3.66821 51.1572 3.75815C51.0622 3.84871 50.9418 3.99185 50.8893 4.07481C50.8261 4.17452 50.771 4.27915 50.7246 4.38768C50.6891 4.47825 50.6359 4.65368 50.6112 4.77655C50.5779 4.95444 50.562 5.13516 50.5637 5.31615C50.5637 5.54415 50.5789 5.68728 50.6144 5.84308C50.6442 5.96088 50.7094 6.14708 50.7639 6.25665C50.819 6.36748 50.9222 6.53025 50.9969 6.62081C51.0691 6.71075 51.192 6.83615 51.2667 6.89948C51.3421 6.96408 51.4821 7.06985 51.5771 7.13255C51.6721 7.19778 51.8697 7.31051 52.0153 7.38588C52.1604 7.45871 52.3725 7.56131 52.4903 7.61135C52.6081 7.66201 52.8203 7.74941 52.9653 7.80198C53.111 7.85708 54.0217 8.15601 54.992 8.46445C55.9629 8.77288 56.8464 9.05915 56.9566 9.09905C57.0662 9.13958 57.2688 9.22191 57.4063 9.27955C57.5443 9.33718 57.7869 9.45055 57.9446 9.53288C58.1023 9.61331 58.3347 9.74188 58.4576 9.81915C58.5798 9.89705 58.7629 10.0199 58.8579 10.0927C58.9529 10.1656 59.1232 10.303 59.2303 10.3986C59.3379 10.4936 59.5134 10.6748 59.616 10.7976C59.7211 10.9205 59.863 11.1137 59.9358 11.2239C60.0086 11.3341 60.1188 11.5203 60.1815 11.6381C60.348 11.9616 60.4788 12.3022 60.5717 12.6539C60.6097 12.8047 60.6591 13.0681 60.6819 13.236C60.704 13.4089 60.7218 13.7249 60.7218 13.958C60.7218 14.1866 60.704 14.5052 60.6838 14.666C60.6616 14.8288 60.6166 15.0923 60.5818 15.2506C60.5438 15.4089 60.4691 15.6692 60.414 15.8269C60.3445 16.0151 60.2652 16.1994 60.1765 16.3792C60.1036 16.5249 59.9611 16.7681 59.8585 16.9188C59.7585 17.0695 59.5862 17.3026 59.476 17.4331C59.3683 17.5635 59.1733 17.7719 59.0428 17.8948C58.913 18.0151 58.685 18.2108 58.5323 18.3235C58.3803 18.4388 58.1549 18.5946 58.032 18.67C57.8809 18.7606 57.7267 18.846 57.5697 18.9258C57.4392 18.9911 57.2137 19.0937 57.0693 19.1513C56.9237 19.2115 56.6488 19.3096 56.4556 19.3723C56.2631 19.435 55.9426 19.5275 55.7431 19.5782C55.5424 19.6257 55.2124 19.6934 55.0047 19.7283C54.7995 19.7612 54.517 19.8011 54.3796 19.8163C54.2415 19.8315 53.864 19.8486 53.541 19.8587C53.1883 19.8663 52.7684 19.8613 52.4903 19.8435C52.2231 19.8264 51.9562 19.8038 51.6898 19.7758C51.4304 19.7441 51.1717 19.7065 50.914 19.663C50.5654 19.5999 50.219 19.5256 49.8753 19.4401C49.5518 19.3613 49.2307 19.2726 48.9126 19.1741C48.7125 19.1108 48.4376 19.0132 48.2996 18.9588C48.1388 18.8931 47.9804 18.8219 47.8246 18.7453C47.6915 18.6781 47.5619 18.6042 47.4363 18.5237C47.3279 18.4497 47.2273 18.3648 47.1361 18.2703C47.0533 18.1867 46.9871 18.088 46.9411 17.9796C46.9069 17.8815 46.8802 17.781 46.8613 17.6788C46.8486 17.5908 46.8359 17.25 46.8359 16.9188C46.8359 16.5622 46.8486 16.2513 46.8663 16.1537C46.8834 16.0632 46.9189 15.9574 46.9461 15.9175C46.9759 15.8776 47.031 15.82 47.069 15.7921C47.1329 15.7526 47.2061 15.731 47.2812 15.7294C47.3616 15.7243 47.4864 15.7345 47.5617 15.7497C47.6365 15.7674 47.9468 15.8827 48.2495 16.0081C48.5523 16.1335 48.9975 16.3013 49.2375 16.3817C49.4782 16.4622 49.8607 16.5724 50.0887 16.63C50.3167 16.6857 50.6942 16.7655 50.9266 16.8061C51.1597 16.846 51.5194 16.8985 51.7272 16.9239C52.0198 16.9587 52.3003 16.9663 53.016 16.9688C53.7665 16.9688 53.9818 16.9612 54.2295 16.9239C54.3941 16.8985 54.6601 16.851 54.8172 16.813C54.9946 16.7727 55.17 16.7241 55.3429 16.6674C55.4727 16.6249 55.6659 16.547 55.7678 16.497C55.8972 16.4346 56.0226 16.3644 56.1434 16.2867C56.246 16.219 56.4132 16.086 56.5158 15.9878C56.6159 15.8928 56.7489 15.7471 56.8065 15.6648C56.866 15.5818 56.949 15.4431 56.9914 15.3583C57.0339 15.2702 57.0991 15.1024 57.1339 14.9821C57.189 14.8041 57.2017 14.6933 57.2137 14.3975C57.2213 14.1138 57.2163 13.9858 57.184 13.8205C57.1541 13.6886 57.1156 13.5587 57.0687 13.4317C57.0143 13.3089 56.9491 13.1913 56.8736 13.0802C56.7851 12.9584 56.6864 12.8444 56.5785 12.7394C56.4738 12.6405 56.3616 12.5499 56.2428 12.4684C56.1048 12.383 55.9633 12.3036 55.8185 12.2302C55.6728 12.1542 55.3973 12.032 55.2048 11.9566C55.0123 11.8813 54.7146 11.773 54.5417 11.7185C54.3694 11.6609 53.5537 11.405 52.7278 11.1485C51.9026 10.8901 51.0641 10.6197 50.8639 10.5418C50.6638 10.4664 50.3383 10.3207 50.1388 10.2232C49.9342 10.121 49.7339 10.0105 49.5384 9.89198C49.4079 9.80965 49.2154 9.67855 49.1128 9.60065C49.0102 9.52338 48.8278 9.37265 48.7074 9.26498C48.5793 9.14618 48.4567 9.02149 48.3401 8.89131C48.2546 8.79315 48.1146 8.61265 48.0247 8.48978C47.9367 8.36691 47.7967 8.14588 47.7118 8.00021C47.605 7.80502 47.5088 7.60417 47.4237 7.39855C47.3423 7.19359 47.2723 6.98426 47.214 6.77155C47.1735 6.61321 47.1241 6.35481 47.1013 6.19901C47.0746 5.97094 47.0612 5.74149 47.0614 5.51185C47.0614 5.28575 47.0785 4.98491 47.0962 4.83925C47.1165 4.69358 47.1564 4.47318 47.1836 4.35031C47.214 4.22745 47.266 4.03365 47.3014 3.92408C47.3394 3.81325 47.4313 3.58778 47.5117 3.42185C47.5915 3.25655 47.7397 2.99561 47.8391 2.84551C47.9417 2.69225 48.0944 2.48388 48.1773 2.38128C48.2622 2.27805 48.4547 2.07221 48.6023 1.92718C48.7524 1.78151 49.0102 1.56048 49.1755 1.43761C49.3401 1.31475 49.5833 1.14945 49.7138 1.07155C49.843 0.993647 50.0507 0.880913 50.1761 0.818213C50.3015 0.758047 50.4966 0.66748 50.6138 0.617447C50.7316 0.569947 50.9494 0.489513 51.1014 0.43948C51.2547 0.388813 51.5068 0.31408 51.6651 0.273547C51.8222 0.233647 52.0875 0.176013 52.2528 0.148147Z" fill="#252F3E"/>
<path d="M57.6686 23.7297C57.831 23.7167 57.9936 23.7057 58.1563 23.6968C58.711 23.6776 59.2662 23.6802 59.8207 23.7044C60.307 23.7325 60.7915 23.7877 61.2717 23.8697C61.4718 23.9051 61.7644 23.9653 61.9221 24.0058C62.0798 24.0457 62.2951 24.1084 62.3971 24.1458C62.4997 24.1813 62.665 24.2516 62.76 24.2991C62.855 24.3497 62.9728 24.4169 63.0203 24.4549C63.0653 24.4897 63.1305 24.5651 63.1628 24.6202C63.1957 24.6753 63.2451 24.8108 63.2781 24.921C63.3287 25.1072 63.3332 25.1743 63.3332 25.8241C63.3332 26.4138 63.3256 26.5917 63.2781 26.9331C63.2057 27.4545 63.1072 27.972 62.9829 28.4835C62.8601 28.9743 62.7165 29.4597 62.5523 29.9383C62.4851 30.1321 62.3572 30.4652 62.2723 30.6786C62.1358 31.0047 61.9899 31.3268 61.8347 31.6445C61.6789 31.9637 61.512 32.2774 61.3344 32.585C61.214 32.7857 61.0462 33.0492 60.9639 33.1746C60.879 33.3 60.7213 33.5185 60.6136 33.6642C60.5034 33.8098 60.316 34.0404 60.1982 34.1784C59.9236 34.4991 59.626 34.7993 59.3077 35.0765C59.1848 35.1842 59.0151 35.307 58.9321 35.3476C58.8405 35.3984 58.7367 35.4234 58.6319 35.4198C58.5268 35.4198 58.4571 35.4052 58.3995 35.3697C58.34 35.3287 58.2966 35.2682 58.2766 35.1987C58.2433 35.1221 58.2381 35.0362 58.2621 34.9562C58.2766 34.8859 58.4343 34.459 58.6148 34.0024C58.7922 33.5464 58.9999 33.0169 59.0702 32.8237C59.1424 32.6306 59.29 32.2189 59.4002 31.9079C59.5313 31.534 59.6556 31.1577 59.7732 30.7793C59.8682 30.4677 60.0075 29.9712 60.081 29.6754C60.1557 29.379 60.2457 28.9598 60.2837 28.747C60.3312 28.4759 60.3559 28.2276 60.3635 27.9319C60.3736 27.593 60.3685 27.4651 60.3356 27.3093C60.3129 27.1998 60.2787 27.093 60.2336 26.9907C60.188 26.9069 60.1304 26.83 60.0626 26.7627C59.9628 26.6773 59.8521 26.6055 59.7333 26.5493C59.5799 26.4789 59.4208 26.4217 59.2577 26.3783C59.0883 26.337 58.9171 26.3036 58.7447 26.2782C58.599 26.2561 58.3368 26.2257 58.1569 26.213C57.7927 26.1939 57.4279 26.1855 57.0632 26.1877C56.6382 26.1877 56.0074 26.206 55.6622 26.2257C55.3145 26.2485 54.7186 26.2934 54.3411 26.3289C53.9636 26.3612 53.2581 26.4366 52.7774 26.4917C52.0421 26.5772 51.8819 26.5892 51.7843 26.567C51.7185 26.5524 51.6553 26.5278 51.5969 26.4942C51.5539 26.4611 51.5196 26.418 51.4968 26.3688C51.4772 26.3164 51.4661 26.2613 51.4639 26.2054C51.4639 26.163 51.4867 26.0775 51.5145 26.0173C51.5418 25.9603 51.6241 25.8495 51.6944 25.7716C51.7666 25.6962 51.9617 25.5436 52.127 25.4378C52.2916 25.3301 52.55 25.1743 52.7027 25.092C52.8547 25.009 53.108 24.8836 53.2657 24.8108C53.4234 24.7354 53.6755 24.6278 53.8287 24.5701C53.9807 24.5125 54.2784 24.4067 54.4912 24.3364C54.704 24.2668 55.0644 24.1661 55.2917 24.1084C55.5197 24.0533 55.8902 23.9729 56.1176 23.9305C56.3456 23.8899 56.7053 23.8355 56.9181 23.8076C57.1309 23.7797 57.4691 23.7443 57.6686 23.7297Z" fill="#FF9900"/>
<path d="M0.229787 25.0243C0.274754 24.9965 0.339987 24.9667 0.375454 24.9566C0.410287 24.9439 0.510354 24.9388 0.600287 24.9464C0.72062 24.954 0.805487 24.9768 0.925187 25.0395C1.01259 25.0832 1.30329 25.246 1.58385 25.4043L1.61362 25.4208C1.90369 25.5861 2.38629 25.8546 2.68902 26.0174C3.59602 26.5003 4.51374 26.9627 5.44149 27.4044C5.78412 27.5653 6.22935 27.7717 6.42949 27.8617C7.17377 28.1963 7.92441 28.5166 8.68099 28.8224C9.42614 29.1229 10.177 29.409 10.9331 29.6806C11.201 29.7781 11.6862 29.9466 12.0092 30.0543C12.3322 30.1645 12.8768 30.3424 13.2226 30.4507C14.1326 30.7435 15.0502 31.0121 15.9745 31.2563C16.3986 31.3698 16.824 31.4783 17.2506 31.5819C17.6357 31.6769 18.2836 31.8276 18.6889 31.9175C19.5983 32.1179 20.5118 32.2995 21.4287 32.4622C21.8138 32.53 22.5022 32.6427 22.9551 32.7105C23.4079 32.7782 24.0957 32.8739 24.4814 32.9214C24.85 32.9695 25.3503 33.0271 25.6227 33.0582L25.6569 33.062C26.4104 33.1408 27.1652 33.2069 27.921 33.2602C28.3137 33.2881 28.8596 33.3229 29.1345 33.3381C29.41 33.3508 29.9452 33.3761 30.3233 33.3881C31.6364 33.4222 32.9501 33.4222 34.2632 33.3881C34.6489 33.3729 35.262 33.3457 35.6268 33.3254C35.9922 33.3026 36.5704 33.2653 36.9156 33.2374C37.2583 33.2102 37.8213 33.1601 38.1665 33.1247C38.998 33.0408 39.8279 32.9405 40.6555 32.8238C41.5086 32.7009 42.3595 32.5628 43.2078 32.4096C43.5029 32.3545 44.021 32.2545 44.3586 32.1867C45.1377 32.0307 45.9135 31.8584 46.6854 31.6699C47.0509 31.5793 47.5613 31.4514 47.8235 31.3836C48.4942 31.2101 49.1614 31.0237 49.8249 30.8244C50.1004 30.744 50.5057 30.6186 50.7261 30.5508C50.9465 30.4811 51.3189 30.3627 51.552 30.2848C51.9322 30.1577 52.3116 30.0281 52.6901 29.8959C53.0827 29.7579 53.7414 29.5172 54.1537 29.362C54.5666 29.2037 55.2519 28.9326 55.68 28.7572C56.2804 28.5115 56.4977 28.4336 56.6427 28.4133C56.7588 28.3927 56.8777 28.3935 56.9936 28.4158C57.0835 28.431 57.2108 28.4735 57.2811 28.5064C57.3489 28.5412 57.461 28.6242 57.5262 28.6894C57.5914 28.7547 57.6687 28.8547 57.694 28.9105C57.7293 28.9908 57.7553 29.075 57.7713 29.1613C57.7966 29.2867 57.7941 29.3367 57.7586 29.4748C57.733 29.5703 57.6969 29.6627 57.651 29.7503C57.6136 29.8136 57.5262 29.9213 57.4591 29.989C57.3888 30.0587 57.1386 30.2525 56.9055 30.4178C56.6731 30.5863 56.2779 30.8567 56.0303 31.0226C55.7826 31.1854 55.3874 31.4413 55.1544 31.5863C54.9219 31.732 54.5438 31.9581 54.3165 32.0911C54.0885 32.2215 53.7338 32.4223 53.528 32.535C52.7795 32.9396 52.0205 33.3244 51.2518 33.689C51.0035 33.8023 50.5804 33.993 50.3132 34.1108C49.9812 34.2541 49.6476 34.3936 49.3125 34.5294C48.5117 34.852 47.7024 35.1531 46.8856 35.4325C46.5353 35.5503 45.9596 35.7365 45.6094 35.8467C45.2592 35.9544 44.7063 36.1178 44.3839 36.2077C43.575 36.4292 42.7616 36.634 41.9443 36.8221C41.6416 36.8905 41.0785 37.0083 40.6935 37.0862C40.3084 37.1609 39.6953 37.2743 39.3299 37.337C38.9645 37.3971 38.4692 37.4769 38.2292 37.5124C37.5555 37.6106 36.8798 37.6942 36.2025 37.7632C35.8649 37.7987 35.2918 37.8512 34.9263 37.8785C34.5615 37.9063 34.0561 37.9418 33.8009 37.9545C33.5457 37.969 32.7698 37.9893 32.0744 37.9963C31.2961 38.0039 30.5031 37.9988 30.0098 37.9817C29.1957 37.9521 28.3823 37.9052 27.5702 37.8411C27.3308 37.8183 26.9628 37.786 26.7576 37.7657C26.1938 37.7065 25.6309 37.6389 25.0691 37.5631C24.4334 37.4753 23.7996 37.375 23.1679 37.2622C22.8754 37.2101 22.5834 37.1554 22.292 37.0982C21.9534 37.03 21.6156 36.9582 21.2786 36.8829C20.8898 36.7969 20.502 36.7065 20.1152 36.6118C19.764 36.5225 19.4136 36.4304 19.0639 36.3357C18.7814 36.2578 18.2861 36.1153 17.9631 36.0196C17.1395 35.7684 16.3221 35.4974 15.5115 35.2071C15.1725 35.0832 14.8347 34.9561 14.4982 34.8258C14.1254 34.6793 13.7542 34.5288 13.3848 34.3742C12.7402 34.1043 12.102 33.8192 11.4708 33.5192C10.8635 33.2322 10.2629 32.9311 9.66962 32.6161C9.33835 32.4396 9.009 32.2595 8.68162 32.0759C7.94136 31.6572 7.21134 31.2207 6.49219 30.7668C5.79679 30.3222 5.11258 29.8603 4.44019 29.3817C4.12124 29.1524 3.80455 28.9199 3.49019 28.6844C3.25459 28.5064 2.86192 28.203 2.61619 28.0092C2.37172 27.8135 1.95372 27.4753 1.69152 27.2568C1.37058 26.9878 1.05263 26.7153 0.73772 26.4392C0.474887 26.208 0.22472 25.9775 0.17722 25.9224C0.123068 25.8584 0.077701 25.7875 0.0423204 25.7115C0.00432037 25.626 -0.00517963 25.5582 0.00242037 25.4328C0.0100204 25.3055 0.0277537 25.2473 0.079687 25.17C0.120567 25.1128 0.171412 25.0635 0.229787 25.0243Z" fill="#FF9900"/>
<path fill-rule="evenodd" clip-rule="evenodd" d="M10.4708 0.0507812C10.7856 0.0507812 11.2264 0.0602813 11.4461 0.0729479C11.6665 0.0881479 12.0269 0.120448 12.2473 0.148948C12.4671 0.176181 12.8173 0.233815 13.0225 0.276248C13.2302 0.318681 13.5279 0.394048 13.6856 0.442181C13.8433 0.489681 14.0808 0.567581 14.2113 0.617615C14.3411 0.665115 14.5963 0.775948 14.7737 0.863348C14.951 0.953915 15.2119 1.09895 15.3494 1.19205C15.4868 1.28451 15.6774 1.42258 15.775 1.50301C15.8725 1.58345 16.0524 1.75381 16.1752 1.88175C16.3 2.01221 16.4678 2.20791 16.5502 2.31875C16.6325 2.42895 16.7706 2.63668 16.8554 2.78235C16.9428 2.92801 17.0708 3.17628 17.143 3.33461C17.2133 3.49295 17.3159 3.75325 17.3684 3.91095C17.4235 4.06928 17.4983 4.33528 17.5413 4.50058C17.5812 4.66651 17.6414 4.97241 17.6762 5.17825C17.7085 5.38661 17.751 5.67731 17.7662 5.83058C17.789 6.02881 17.801 7.17768 17.8061 9.94471C17.8137 12.378 17.8238 13.7928 17.8415 13.808C17.8542 13.8207 17.8637 13.9512 17.8637 14.0968C17.8637 14.2425 17.8814 14.5129 17.9017 14.6985C17.9188 14.8841 17.9536 15.1279 17.9764 15.2381C17.9992 15.3483 18.0334 15.5016 18.0562 15.5769C18.079 15.6517 18.1639 15.8854 18.2443 16.0912C18.3267 16.2989 18.5065 16.6929 18.6446 16.969C18.8846 17.4503 18.8948 17.4782 18.8973 17.6467C18.9024 17.7816 18.8897 17.8468 18.8466 17.9348C18.7987 18.0206 18.74 18.0997 18.6718 18.1704C18.6066 18.2382 18.2317 18.5093 17.839 18.7702C17.4463 19.0337 17.0682 19.2769 17.0005 19.3098C16.9308 19.3446 16.8181 19.3795 16.7503 19.3896C16.6627 19.4001 16.5741 19.3969 16.4875 19.3801C16.4004 19.3601 16.3163 19.3288 16.2373 19.287C16.152 19.2325 16.0724 19.1695 15.9998 19.0989C15.8952 18.9919 15.7958 18.8799 15.7021 18.7632C15.6071 18.6448 15.4494 18.4238 15.3468 18.2737C15.1883 18.0199 15.0389 17.7605 14.8991 17.4959C14.7534 17.2198 14.6286 16.969 14.6236 16.9386C14.6166 16.9063 14.6014 16.8835 14.5887 16.8886C14.5761 16.8911 14.4557 17.0165 14.3208 17.1672C14.1834 17.3199 13.9383 17.5662 13.773 17.7163C13.6083 17.8671 13.3252 18.1001 13.1479 18.2357C12.9706 18.3712 12.702 18.5542 12.5526 18.6473C12.4044 18.7373 12.1491 18.8804 11.9845 18.9634C11.8192 19.0457 11.5918 19.1515 11.4765 19.199C11.3638 19.2471 11.1485 19.3269 10.9958 19.3776C10.8438 19.4276 10.5633 19.508 10.3707 19.5549C10.1782 19.6005 9.86281 19.6607 9.67028 19.6879C9.47711 19.7183 9.13448 19.7538 8.90711 19.769C8.41471 19.7984 7.92067 19.7839 7.43082 19.7259C7.2422 19.7029 7.05441 19.6736 6.86778 19.6379C6.73035 19.6106 6.50045 19.553 6.35478 19.5125C6.18999 19.4642 6.02729 19.4091 5.86711 19.3472C5.74425 19.2965 5.53462 19.204 5.40478 19.1388C5.24199 19.0545 5.08327 18.9626 4.92915 18.8633C4.78785 18.7679 4.65011 18.6674 4.51622 18.5618C4.37623 18.4409 4.24102 18.3146 4.11088 18.1831C3.98633 18.0549 3.86696 17.9218 3.75305 17.7841C3.68022 17.6942 3.56305 17.5308 3.49022 17.4206C3.31797 17.1493 3.16903 16.8639 3.04498 16.5675C3.01015 16.4851 2.94998 16.3091 2.90755 16.1786C2.85464 16.0048 2.80858 15.8291 2.76948 15.6517C2.73465 15.4933 2.69222 15.2558 2.67195 15.1254C2.65232 14.9746 2.63965 14.6333 2.63965 14.1969C2.63965 13.6674 2.64978 13.4445 2.68462 13.2311C2.70742 13.0803 2.75998 12.8194 2.79988 12.6541C2.83978 12.4882 2.91008 12.25 2.95188 12.1272C3.09524 11.741 3.27886 11.371 3.49972 11.0233C3.58268 10.9004 3.72075 10.7072 3.81005 10.597C3.89808 10.4868 4.10772 10.2633 4.27618 10.103C4.44085 9.93965 4.68848 9.72368 4.82085 9.62361C4.95638 9.52291 5.16918 9.37788 5.29142 9.30251C5.78078 9.00137 6.30644 8.76366 6.85575 8.59508C7.01282 8.54758 7.30098 8.47221 7.49352 8.42978C7.68605 8.38671 8.00145 8.32908 8.19398 8.30375C8.38652 8.27652 8.75132 8.24105 9.00718 8.22395C9.34464 8.20597 9.68267 8.2009 10.0205 8.20875C10.3232 8.21888 10.7558 8.24105 10.9832 8.26385C11.2112 8.28411 11.5715 8.32401 11.7843 8.35188C11.9965 8.37912 12.3619 8.43675 12.5975 8.47728C12.8319 8.51718 13.2929 8.60775 13.6235 8.67805C13.9529 8.74771 14.2537 8.81358 14.3614 8.84081V7.97568C14.3614 7.49878 14.3487 6.92941 14.336 6.70901C14.3208 6.48735 14.2936 6.18968 14.2708 6.04401C14.2512 5.89835 14.2011 5.63995 14.1587 5.46705C14.1083 5.27162 14.048 5.07884 13.9782 4.88945C13.9127 4.72721 13.8358 4.56976 13.7483 4.41825C13.6728 4.2949 13.5892 4.17663 13.4981 4.06421C13.4031 3.95972 13.3011 3.86176 13.1929 3.77098C13.067 3.67147 12.9331 3.5825 12.7926 3.50498C12.6565 3.43061 12.5161 3.36442 12.3721 3.30675C12.2165 3.24904 12.0579 3.19958 11.8971 3.15855C11.7444 3.11865 11.4588 3.06355 11.2587 3.03315C10.9804 2.99787 10.7009 2.97273 10.4208 2.95778C10.1427 2.94511 9.75768 2.94511 9.49485 2.95778C9.24722 2.97045 8.90458 2.99831 8.73168 3.02111C8.55942 3.04328 8.24908 3.09331 8.04388 3.13638C7.83615 3.17628 7.53848 3.24405 7.38078 3.28648C7.22308 3.32955 6.90262 3.41948 6.66765 3.48978C6.43268 3.56008 6.07992 3.67535 5.87978 3.74818C5.67965 3.82101 5.37691 3.93881 5.20402 4.00658C5.03175 4.07688 4.78855 4.16491 4.66568 4.19975C4.54759 4.23398 4.42612 4.25521 4.30342 4.26308C4.22409 4.27095 4.14447 4.25127 4.07795 4.20735C4.02146 4.16558 3.97531 4.11142 3.94305 4.04901C3.90809 3.96507 3.88528 3.87657 3.87528 3.78618C3.86262 3.69561 3.85565 3.37451 3.85312 3.07051C3.85312 2.76715 3.86578 2.41818 3.88035 2.29341C3.89302 2.17055 3.93102 2.01221 3.96078 1.94508C3.99308 1.87161 4.07352 1.76901 4.15332 1.69365C4.24578 1.60561 4.40348 1.50808 4.64098 1.38521C4.83352 1.28705 5.13181 1.14708 5.30408 1.07425C5.47698 1.00395 5.84685 0.868415 6.12995 0.772781C6.48155 0.660371 6.83614 0.557522 7.19332 0.464348C7.49182 0.389457 7.79211 0.321882 8.09392 0.261681C8.34319 0.218184 8.59342 0.180385 8.84442 0.148315C9.06482 0.120448 9.39225 0.0887812 9.57021 0.0761146C9.74755 0.0659812 10.1554 0.0539479 10.4708 0.0507812ZM9.29472 10.7978C9.13005 10.82 8.86405 10.8732 8.70698 10.9156C8.54865 10.9555 8.30165 11.0359 8.15598 11.0936C8.01095 11.1512 7.80385 11.2544 7.69365 11.3197C7.56452 11.4005 7.43999 11.4885 7.32061 11.5831C7.22562 11.6604 7.09071 11.7934 7.01788 11.8764C6.94822 11.9587 6.85511 12.0771 6.81268 12.1398C6.77025 12.2025 6.69045 12.3425 6.63535 12.4533C6.5704 12.5873 6.51516 12.7257 6.47005 12.8675C6.43205 12.9853 6.38518 13.181 6.36238 13.3064C6.33262 13.4616 6.31995 13.6776 6.31995 13.9968C6.31995 14.252 6.33262 14.5503 6.35225 14.6611C6.36998 14.7713 6.40988 14.9696 6.44472 15.1C6.48018 15.2305 6.54541 15.4186 6.59038 15.5142C6.63472 15.6118 6.71515 15.7574 6.76772 15.8404C6.94094 16.0892 7.15208 16.3093 7.39345 16.4927C7.47578 16.5523 7.65122 16.653 7.78105 16.7157C7.91152 16.7784 8.13128 16.8563 8.26872 16.8911C8.40678 16.9266 8.61452 16.9665 8.73168 16.9817C9.11878 17.015 9.50802 17.015 9.89512 16.9817C10.018 16.9665 10.2276 16.9386 10.3581 16.9164C10.4879 16.8936 10.7431 16.8385 10.9211 16.7936C11.0984 16.7454 11.3638 16.6682 11.5088 16.615C11.6545 16.5649 11.8844 16.4674 12.0218 16.3996C12.1758 16.3205 12.3261 16.2342 12.4721 16.1412C12.5823 16.0709 12.7445 15.9531 12.835 15.8803C12.925 15.81 13.1023 15.6466 13.2328 15.5193C13.3626 15.3907 13.5355 15.1976 13.6178 15.0874C13.6983 14.9772 13.8129 14.8087 13.868 14.7112C13.9231 14.6162 14.0086 14.4426 14.0536 14.3299C14.0979 14.2146 14.1638 14.0063 14.1986 13.8657C14.2334 13.7225 14.286 13.4496 14.3164 13.2564C14.3639 12.9499 14.3709 12.7972 14.3709 12.0543L14.3734 11.2012C14.1618 11.1504 13.9491 11.1037 13.7356 11.0613C13.1731 10.9468 12.6054 10.8589 12.0345 10.7978C11.8217 10.7775 11.4113 10.7471 11.1212 10.7345C10.8879 10.723 10.6544 10.7164 10.4208 10.7148C10.3232 10.7148 10.0978 10.725 9.92045 10.7351C9.74312 10.7478 9.46002 10.775 9.29472 10.7978ZM21.404 0.552381C22.0817 0.549848 22.6549 0.562515 22.7549 0.577715C22.8525 0.590381 22.9804 0.625215 23.0431 0.652448C23.1052 0.680315 23.1976 0.745548 23.2502 0.795581C23.3028 0.846248 23.3731 0.933648 23.4054 0.988748C23.4383 1.04385 23.5004 1.17938 23.5434 1.28958C23.5878 1.40548 24.3763 4.46828 25.3972 8.50198C26.3751 12.3577 27.1788 15.5193 27.1832 15.5263C27.1883 15.5339 27.1984 15.5168 27.206 15.4883C27.2136 15.461 27.9565 12.2982 28.8596 8.45955C29.7602 4.61901 30.5209 1.40801 30.5506 1.32188C30.581 1.23448 30.6311 1.11161 30.6634 1.04638C30.6963 0.978615 30.7609 0.886148 30.804 0.835481C30.8483 0.785448 30.9414 0.717681 31.0117 0.685381C31.0788 0.652448 31.227 0.607481 31.3366 0.587215C31.4892 0.559981 31.7799 0.552381 32.5754 0.552381C33.3183 0.552381 33.666 0.559981 33.8009 0.584681C33.906 0.602415 34.0485 0.649915 34.1239 0.690448C34.1961 0.730348 34.2911 0.800648 34.3291 0.845615C34.369 0.888681 34.4292 0.978615 34.4621 1.04638C34.4938 1.11161 34.5394 1.22181 34.5641 1.28958C34.5869 1.35988 35.3595 4.62091 36.2804 8.53998C37.2038 12.4584 37.9619 15.6694 37.9689 15.677C37.9739 15.6846 37.9815 15.6846 37.9866 15.677C37.9917 15.6694 38.7998 12.5439 39.7808 8.72808C40.7612 4.91225 41.5922 1.69618 41.6245 1.57775C41.6568 1.46058 41.7271 1.27501 41.7797 1.16418C41.8322 1.05398 41.9095 0.915915 41.9544 0.858281C42.0106 0.781433 42.0868 0.721596 42.1749 0.685381C42.2553 0.647381 42.4054 0.602415 42.508 0.584681C42.6454 0.559348 42.9956 0.552381 43.8088 0.549848C44.4694 0.549848 44.9596 0.559981 45.0173 0.575181C45.0795 0.595439 45.1372 0.627716 45.187 0.670181C45.2326 0.708181 45.2775 0.758215 45.287 0.782915C45.2997 0.805714 45.32 0.877914 45.3352 0.946315C45.3498 1.02865 45.3478 1.13188 45.3225 1.30225C45.2946 1.48275 44.6448 3.61011 42.6479 10.0327C41.0038 15.3135 39.9734 18.5948 39.9157 18.7126C39.8681 18.8125 39.812 18.908 39.7479 18.9982C39.6953 19.0581 39.6348 19.1105 39.568 19.154C39.472 19.2008 39.3714 19.2377 39.2678 19.2642C39.0804 19.3123 38.9955 19.3149 37.9043 19.3149C36.9631 19.3149 36.7079 19.3073 36.5654 19.2769C36.4703 19.2553 36.378 19.2226 36.2905 19.1793C36.2226 19.1353 36.1605 19.083 36.1056 19.0235C36.0394 18.9391 35.983 18.8473 35.9378 18.7499C35.8857 18.6277 35.8421 18.502 35.8073 18.3737C35.782 18.2635 35.0346 15.1475 34.1511 11.4501C33.6151 9.20393 33.0755 6.95854 32.5323 4.71401C32.5273 4.70641 32.5178 4.71148 32.507 4.72415C32.495 4.73428 31.7597 7.80468 30.8686 11.5477C29.9756 15.2881 29.2219 18.4212 29.1953 18.5118C29.1649 18.6024 29.1047 18.7398 29.0623 18.8228C29.0141 18.9105 28.9545 18.9914 28.885 19.0634C28.8299 19.1141 28.7171 19.1819 28.4847 19.2769H27.1452C25.9469 19.2769 25.7943 19.2718 25.6822 19.2344C25.5979 19.2018 25.5179 19.1588 25.4441 19.1065C25.3699 19.047 25.305 18.9768 25.2515 18.8981C25.1942 18.8017 25.1424 18.7022 25.0964 18.5998C25.0565 18.5017 23.9101 14.7618 22.5542 10.2835C21.1957 5.80588 20.0348 1.96725 19.9746 1.75381C19.9049 1.51821 19.8543 1.28705 19.8473 1.16481C19.8346 1.01155 19.8397 0.936181 19.8726 0.850681C19.8948 0.789451 19.9276 0.732628 19.9695 0.682848C20.0161 0.641762 20.0697 0.609562 20.1279 0.587848C20.2102 0.557448 20.4388 0.552381 21.404 0.552381Z" fill="#252F3E"/>
</g>
<defs>
<clipPath id="clip0_337_4858">
<rect width="63.3333" height="38" fill="white"/>
</clipPath>
</defs>
</svg>
