<svg width="112" height="32" viewBox="0 0 112 32" fill="none" xmlns="http://www.w3.org/2000/svg">
<g clip-path="url(#clip0_337_4870)">
<path fill-rule="evenodd" clip-rule="evenodd" d="M22.7824 0.0353279C22.8045 0.0520898 19.8331 6.46123 9.53825 28.4879H4.7893C2.18206 28.4879 0.0350112 28.4749 0.0273922 28.4536C0.0182493 28.4361 1.30434 26.177 2.88606 23.4365C4.47234 20.6921 6.8312 16.6075 10.5036 10.2555L13.0628 8.10847C14.4701 6.92523 17.2251 4.62276 19.1847 2.9839C21.1405 1.34428 22.7611 0.0178041 22.7832 0.0353279H22.7824ZM24.2384 2.25476C24.256 2.25476 24.291 2.2898 24.3169 2.32866C24.3428 2.37209 24.8556 3.24371 25.4506 4.27152C26.0503 5.29476 28.0236 8.70276 29.8392 11.8372C33.2543 17.7332 36.6669 23.6306 40.0769 29.5294C40.7459 30.6875 41.3371 31.7146 41.4979 32.001H25.6373C16.9127 32.001 9.77749 31.9881 9.77749 31.9668C9.77749 31.9492 10.4685 31.8144 11.3112 31.6673C12.1501 31.5195 16.4739 30.7607 20.9097 29.9759C25.3508 29.1957 28.9836 28.5412 28.9836 28.5191C28.9836 28.5016 27.6975 26.9626 26.1242 25.0936C24.5516 23.2292 22.5523 20.8529 21.6792 19.8167C20.8061 18.7805 19.8453 17.6315 19.5413 17.2673C19.0895 16.7294 18.9935 16.5908 19.0156 16.5085C19.0331 16.4567 19.4933 15.1729 20.0411 13.6589C20.5882 12.1466 21.744 8.97247 22.6049 6.61361C23.1277 5.16899 23.6562 3.72644 24.1904 2.28599C24.1952 2.27726 24.2021 2.26988 24.2105 2.26455C24.2189 2.25922 24.2285 2.25535 24.2384 2.25476ZM106.155 14.8338C106.407 14.8338 106.798 14.8597 107.024 14.8902C107.25 14.9252 107.602 15.0075 107.806 15.073C108.011 15.1332 108.302 15.246 108.458 15.3153C108.614 15.3847 108.905 15.5492 109.109 15.6841C109.314 15.8182 109.657 16.1047 109.874 16.321C110.091 16.5382 110.348 16.833 110.443 16.9763C110.539 17.1188 110.709 17.4098 110.817 17.6262C110.922 17.8395 111.061 18.1687 111.239 18.689V22.3957L108.753 22.4308C107.384 22.4483 105.325 22.4612 102.092 22.4612L102.123 22.9031C102.14 23.1508 102.201 23.5363 102.257 23.7618C102.318 23.9873 102.422 24.321 102.492 24.4993C102.566 24.6768 102.709 24.9671 102.814 25.1363C102.918 25.31 103.092 25.5614 103.2 25.6955C103.309 25.8304 103.531 26.0429 103.7 26.1679C103.865 26.2944 104.161 26.4765 104.352 26.5717C104.543 26.6669 104.825 26.7843 104.982 26.8315C105.138 26.8795 105.421 26.9405 105.611 26.9702C105.846 27.0098 106.181 27.0182 106.633 27.0007C106.982 26.9896 107.33 26.9578 107.675 26.9054C107.88 26.8666 108.232 26.7759 108.458 26.702C108.684 26.6281 109.066 26.481 109.305 26.3675C109.544 26.2548 109.931 26.0292 110.161 25.8738C110.396 25.7138 110.596 25.5957 110.609 25.6132C110.622 25.6353 110.631 26.0856 110.631 27.5995L110.361 27.7595C110.209 27.8464 109.931 27.998 109.739 28.094C109.549 28.1892 109.227 28.3279 109.022 28.4018C108.818 28.4749 108.419 28.5969 108.132 28.6662C107.781 28.746 107.425 28.8037 107.067 28.8391C106.746 28.8696 106.185 28.8788 105.699 28.8658C105.203 28.8521 104.751 28.8132 104.569 28.7744C104.35 28.7226 104.132 28.6634 103.917 28.5969C103.665 28.5104 103.418 28.4089 103.179 28.2929C102.909 28.157 102.649 28.0019 102.401 27.8289C102.187 27.6818 101.849 27.3778 101.64 27.166C101.434 26.9466 101.241 26.7148 101.062 26.4719C100.921 26.246 100.789 26.0148 100.667 25.7786C100.557 25.5511 100.455 25.3196 100.363 25.0845C100.289 24.8626 100.223 24.6384 100.163 24.4125C100.115 24.2083 100.041 23.8662 100.006 23.6536C99.9672 23.4365 99.9238 22.9511 99.9024 22.5694C99.8803 22.1885 99.8803 21.6201 99.9024 21.3123C99.9192 20.9999 99.9763 20.5313 100.028 20.2715C100.08 20.0071 100.197 19.569 100.289 19.2963C100.376 19.022 100.545 18.6022 100.654 18.3637C100.766 18.1252 100.988 17.7344 101.145 17.4959C101.319 17.2277 101.605 16.8849 101.893 16.5946C102.144 16.334 102.518 16.0132 102.722 15.8746C102.926 15.7359 103.248 15.5447 103.439 15.4494C103.63 15.3542 103.921 15.2239 104.091 15.1637C104.256 15.1073 104.552 15.0205 104.743 14.9809C104.958 14.934 105.175 14.8978 105.394 14.8727C105.56 14.8559 105.903 14.8376 106.155 14.8338ZM104.96 16.8849C104.758 16.9511 104.562 17.0337 104.373 17.1317C104.195 17.2231 103.917 17.4052 103.752 17.5393C103.592 17.6696 103.339 17.9302 103.196 18.1123C103.041 18.3105 102.897 18.5176 102.766 18.7325C102.674 18.8879 102.539 19.1614 102.47 19.3389C102.384 19.5619 102.31 19.7892 102.248 20.0201C102.197 20.2197 102.157 20.4277 102.157 20.4879V20.5969H109.327C109.32 20.1351 109.254 19.6761 109.131 19.2308C109.059 18.9865 108.97 18.7472 108.866 18.5146C108.766 18.3128 108.652 18.1176 108.527 17.9302C108.402 17.7611 108.261 17.6042 108.106 17.4616C107.976 17.3443 107.693 17.1668 107.48 17.0624C107.247 16.9508 107.002 16.8652 106.75 16.8071C106.514 16.7646 106.274 16.7427 106.033 16.7416C105.834 16.7452 105.636 16.7584 105.438 16.7812C105.277 16.8077 105.117 16.8423 104.96 16.8849ZM52.4518 9.88676H54.7725L58.3703 19.1957C60.3474 24.321 61.955 28.5184 61.9375 28.5313C61.9245 28.5443 61.3729 28.5534 59.5131 28.5534L57.5535 23.3496L49.667 23.3283L49.5581 23.6407C49.4971 23.8136 49.0803 24.9892 47.8072 28.5534H46.6118C45.9565 28.5534 45.4042 28.5405 45.3912 28.5184C45.3783 28.5009 46.9036 24.4559 48.7802 19.521C50.6621 14.5915 52.2567 10.4071 52.3261 10.2205L52.4518 9.88676ZM53.5337 12.4879C53.5032 12.6708 53.4423 12.9298 53.4042 13.0738C53.36 13.2163 53.0384 14.1146 52.691 15.0677C52.3436 16.0224 51.6914 17.8129 51.2396 19.0395L50.4274 21.2772C51.235 21.3252 52.6651 21.3382 54.1295 21.3382C55.5939 21.3382 56.7931 21.3207 56.7931 21.3031C56.7931 21.2856 56.1973 19.6597 55.472 17.6917C54.9643 16.3209 54.4632 14.9477 53.9687 13.5721C53.8623 13.2507 53.7683 12.9254 53.6868 12.5969L53.5908 12.1626L53.5337 12.4879ZM97.4864 14.9816C97.9207 14.99 98.2552 15.0197 98.5722 15.1249L98.5813 16.2045C98.5897 16.7942 98.5859 17.3054 98.5722 17.3359C98.5554 17.3748 98.464 17.3489 98.2339 17.2445C98.0559 17.161 97.8711 17.0929 97.6815 17.041C97.4666 17.0025 97.2484 16.9852 97.0301 16.9892C96.7954 16.9892 96.4952 17.0197 96.3344 17.0624C96.1633 17.1064 95.9962 17.1645 95.8346 17.2361C95.7135 17.2879 95.4963 17.4266 95.344 17.5355C95.1734 17.6688 95.0176 17.8201 94.8792 17.9866C94.7702 18.1252 94.5882 18.4201 94.4708 18.6456C94.3488 18.8857 94.2384 19.1316 94.1402 19.3824C94.0754 19.5652 93.971 19.9028 93.7973 20.5748L93.7493 28.5534H92.6979C92.1196 28.5534 91.6335 28.5405 91.6114 28.5184C91.5939 28.5009 91.5725 25.5012 91.555 15.2201H93.7706V16.5336C93.7752 17.5264 93.7882 17.8174 93.8232 17.7344C93.8491 17.6788 93.9489 17.4616 94.0404 17.2582C94.1444 17.0421 94.2604 16.832 94.3878 16.6289C94.4876 16.4856 94.6445 16.2738 94.7443 16.161C94.8396 16.0437 95.0575 15.8311 95.2266 15.6925C95.392 15.5492 95.6655 15.3671 95.8346 15.2887C96 15.2071 96.2872 15.0982 96.4647 15.0509C96.7474 14.9725 96.8822 14.9641 97.4864 14.9816ZM63.3981 15.2201H73.7394V15.87L71.9885 18.2898C71.024 19.6209 69.264 22.049 68.0777 23.6879C67.3509 24.6834 66.6309 25.6838 65.9177 26.689C65.9177 26.702 67.6563 26.7104 73.6525 26.7104V28.5748H62.659V27.8593L70.5242 17.0845H69.2723C68.5866 17.0845 66.9828 17.0715 63.3981 17.0197V15.2201ZM76.1684 15.2201H78.3413L78.3626 19.5249C78.3756 23.2887 78.3885 23.8753 78.4495 24.1953C78.4929 24.3995 78.563 24.7028 78.6148 24.8673C78.6628 25.0365 78.7581 25.2879 78.8236 25.4311C78.8929 25.5744 79.0407 25.8174 79.1535 25.9736C79.2708 26.1252 79.4621 26.3241 79.584 26.4201C79.7013 26.5153 79.9184 26.6494 80.0617 26.7233C80.2049 26.7927 80.4655 26.8879 80.6483 26.9359C80.883 26.9969 81.1261 27.0182 81.539 27.0182C81.9649 27.0182 82.1866 26.9969 82.4518 26.9268C82.643 26.8795 82.9249 26.7713 83.0819 26.689C83.27 26.584 83.4501 26.465 83.6205 26.3332C83.7638 26.2205 83.9939 25.9904 84.1333 25.8212C84.2811 25.6521 84.4807 25.3313 84.6026 25.0845C84.72 24.846 84.8716 24.4772 85.059 23.87L85.0803 15.2635H87.3402L87.3181 28.5534L85.1238 28.5748V28.241C85.1238 28.0544 85.1063 27.5995 85.059 26.5496L84.8503 26.8711C84.692 27.1024 84.5163 27.3212 84.3245 27.5256C84.1508 27.7123 83.8598 27.9637 83.6861 28.0849C83.5078 28.2068 83.2556 28.3584 83.1253 28.4277C82.948 28.5103 82.7667 28.5841 82.5821 28.6487C82.3612 28.7187 82.1363 28.7752 81.9085 28.8178C81.599 28.8604 81.2869 28.882 80.9744 28.8826C80.6477 28.8791 80.3213 28.8574 79.9969 28.8178C79.7324 28.7765 79.4709 28.7172 79.2144 28.6403C78.9991 28.572 78.7886 28.4893 78.5843 28.3927C78.4124 28.3037 78.2455 28.2053 78.0845 28.0978C77.8949 27.9619 77.7189 27.8081 77.5588 27.6384C77.3801 27.4514 77.2172 27.2498 77.072 27.0357C76.9559 26.8546 76.8515 26.6663 76.7596 26.4719C76.6986 26.3287 76.5897 26.0376 76.5203 25.8212C76.451 25.6087 76.3512 25.1889 76.2986 24.8894C76.1988 24.3515 76.1988 24.3302 76.1813 19.7854L76.1684 15.2201Z" fill="black"/>
</g>
<defs>
<clipPath id="clip0_337_4870">
<rect width="111.238" height="32" fill="white"/>
</clipPath>
</defs>
</svg>
