<svg width="126" height="33" viewBox="0 0 126 33" fill="none" xmlns="http://www.w3.org/2000/svg">
<path d="M18.5685 16.6162L22.5014 20.5491L26.4359 16.6146L28.7247 18.9001L28.7231 18.9017L22.5014 25.125L16.2798 18.9049L16.2766 18.9017L18.5685 16.6162ZM24.8221 14.9992L22.5014 17.3231L20.1807 15.004L20.1775 14.9992L20.5869 14.5898L20.7853 14.393L22.5014 12.6769L24.8221 14.9992ZM28.0481 15.0008L30.3369 12.7121L32.624 15.0008L30.3369 17.2879L28.0481 15.0008ZM12.374 15.0008L14.6628 12.7121L16.9499 15.0008L14.6628 17.2879L12.374 15.0008ZM18.5685 13.3838L22.5014 9.45248L26.4359 13.387L28.7231 11.0983L22.5014 4.875L16.2798 11.0967L18.5685 13.3838Z" fill="#F3BA2F"/>
<path d="M36.1943 9.78198H41.1717C42.4064 9.78198 43.3405 10.1019 43.9738 10.7416C44.4552 11.2198 44.7207 11.874 44.7079 12.5521V12.5825C44.7127 12.8576 44.6744 13.1311 44.5944 13.395C44.524 13.6221 44.42 13.8365 44.2889 14.0348C44.1657 14.2219 44.017 14.3899 43.8475 14.5338C43.6811 14.6761 43.4988 14.8009 43.3053 14.9017C43.8651 15.0968 44.3689 15.4263 44.7719 15.8613C45.1286 16.2659 45.3061 16.8257 45.3061 17.5407V17.5711C45.3157 18.0173 45.2197 18.4587 45.023 18.8602C44.8327 19.2296 44.5544 19.5463 44.2121 19.7814C43.8251 20.0405 43.3948 20.2277 42.9406 20.3332C42.4016 20.4612 41.8482 20.5219 41.2948 20.5171H36.1943V9.78198ZM40.6727 14.1228C41.1029 14.1435 41.5315 14.0508 41.9154 13.8541C42.2193 13.6765 42.3984 13.339 42.3728 12.9872V12.9568C42.3888 12.6337 42.2385 12.3234 41.9746 12.1363C41.7091 11.9476 41.3252 11.8532 40.8246 11.8532H38.4959V14.1228H40.6727ZM41.3012 18.4491C41.7299 18.4731 42.1569 18.3756 42.5328 18.166C42.8302 17.9757 43.0014 17.6366 42.9774 17.2832V17.2528C42.9886 16.9185 42.8334 16.5986 42.5631 16.4019C42.288 16.1892 41.8434 16.082 41.2292 16.082H38.4959V18.4491H41.3012Z" fill="#F3BA2F"/>
<path d="M48.2715 9.78198H50.6338V20.5203H48.2715V9.78198Z" fill="#F3BA2F"/>
<path d="M54.208 9.78198H56.3864L61.4213 16.3907V9.78198H63.7532V20.5203H61.7428L56.5431 13.6941V20.5203H54.208V9.78198Z" fill="#F3BA2F"/>
<path d="M70.9058 9.70508H73.081L77.6825 20.5202H75.2162L74.2342 18.1115H69.6935L68.7114 20.5202H66.3027L70.9058 9.70508ZM73.3913 16.0259L71.9614 12.5424L70.5379 16.0259H73.3913Z" fill="#F3BA2F"/>
<path d="M80.2373 9.78198H82.4157L87.4474 16.3907V9.78198H89.7793V20.5203H87.7689L82.5692 13.6941V20.5203H80.2373V9.78198Z" fill="#F3BA2F"/>
<path d="M98.281 20.709C97.5277 20.7154 96.7824 20.5698 96.0866 20.2803C94.7655 19.7349 93.7195 18.6777 93.1869 17.3502C92.9086 16.6625 92.7679 15.9284 92.7727 15.1862V15.1558C92.7599 13.6956 93.3229 12.2865 94.3385 11.2357C94.8375 10.7223 95.4373 10.3161 96.0978 10.0394C96.8176 9.74188 97.5885 9.59313 98.3674 9.60273C98.828 9.59953 99.287 9.64112 99.7397 9.72589C100.127 9.79946 100.506 9.91301 100.869 10.0634C101.198 10.2025 101.513 10.3768 101.804 10.5848C102.089 10.7879 102.356 11.0134 102.604 11.2597L101.102 12.9935C100.718 12.64 100.288 12.3393 99.8228 12.1026C99.3654 11.8835 98.8648 11.7747 98.3578 11.7827C97.5053 11.7731 96.6896 12.1314 96.1186 12.7647C95.8387 13.0766 95.6196 13.4397 95.4725 13.8315C95.3189 14.2458 95.2405 14.6856 95.2437 15.1287V15.159C95.2421 15.6005 95.3189 16.0403 95.4725 16.4546C95.618 16.848 95.8355 17.2127 96.1122 17.5278C96.6784 18.1691 97.4957 18.5338 98.3514 18.5258C98.8904 18.5434 99.4246 18.4266 99.9076 18.1883C100.368 17.9372 100.792 17.6285 101.173 17.2671L102.676 18.7865C102.411 19.0744 102.123 19.3415 101.817 19.5862C101.517 19.8245 101.19 20.0276 100.843 20.1924C100.474 20.3667 100.085 20.4946 99.6853 20.5746C99.2231 20.6674 98.7528 20.7122 98.281 20.709Z" fill="#F3BA2F"/>
<path d="M105.464 9.78198H113.546V11.8836H107.788V14.062H112.858V16.1636H107.796V18.4187H113.626V20.5203H105.469L105.464 9.78198Z" fill="#F3BA2F"/>
</svg>
