<svg width="180" height="60" viewBox="0 0 180 60" fill="none" xmlns="http://www.w3.org/2000/svg">
<g clip-path="url(#clip0_612_2823)">
<path d="M50.9682 16.2215C51.4966 16.1376 52.063 16.0541 52.2316 16.0392C52.4002 16.024 53.0439 16.0087 53.6716 16.0012C54.2918 15.9934 55.1341 16.024 55.5477 16.0694C55.9538 16.1074 56.7114 16.2289 57.2323 16.3351C57.7452 16.4338 58.5875 16.6541 59.1009 16.821C59.6218 16.9958 60.5634 17.3829 61.1916 17.6866C61.8272 17.9982 62.6615 18.4614 63.0522 18.7118C63.435 18.97 63.7718 19.2283 63.7952 19.2886C63.8181 19.3572 63.4963 19.851 63.0138 20.4815C62.5697 21.0811 62.187 21.5744 62.1715 21.5823C62.164 21.5971 61.8272 21.4001 61.4441 21.1418C61.0534 20.891 60.3568 20.4964 59.8897 20.2762C59.4223 20.0485 58.6873 19.7444 58.2432 19.6002C57.7401 19.4352 57.2288 19.2959 56.7114 19.1828C56.2421 19.0876 55.7696 19.0089 55.2948 18.9469C54.7933 18.9008 54.29 18.8756 53.7864 18.8713C53.3273 18.8713 52.5534 18.9246 52.0634 18.9849C51.5655 19.0535 50.8305 19.1903 50.4323 19.289C49.9928 19.3995 49.5583 19.5287 49.13 19.6762C48.8166 19.7824 48.2118 20.0406 47.7903 20.2381C47.3691 20.4435 46.6955 20.8149 46.2969 21.0736C45.8987 21.3393 45.3244 21.7492 45.0335 21.9922C44.7426 22.2277 44.1991 22.7289 43.8389 23.1008C43.4504 23.4945 43.0824 23.9075 42.7362 24.3383C42.4987 24.6498 42.1314 25.1816 41.9323 25.5155C41.7253 25.8498 41.396 26.4646 41.1969 26.8823C40.9983 27.3001 40.8371 27.6492 40.8296 27.6645C40.8217 27.672 40.2324 27.4517 39.5199 27.1782C39.0663 27.0056 38.6145 26.8285 38.1646 26.6468C38.1262 26.6315 38.241 26.2972 38.4171 25.9105C38.5858 25.5303 38.938 24.8399 39.1985 24.3842C39.4589 23.9363 39.9869 23.1462 40.3701 22.6376C40.7528 22.1364 41.4114 21.3773 41.8326 20.9596C42.2462 20.5418 42.8664 19.9799 43.1957 19.7142C43.6193 19.3864 44.0534 19.0724 44.4976 18.7725C44.8728 18.5221 45.5314 18.1345 45.9525 17.9147C46.3737 17.6945 47.0628 17.3681 47.4844 17.2007C47.905 17.0259 48.648 16.7756 49.1305 16.6388C49.613 16.4946 50.4398 16.3124 50.9682 16.2215Z" fill="#F38B00"/>
<path fill-rule="evenodd" clip-rule="evenodd" d="M53.8016 19.1753V21.985L53.2039 22.0305C52.8825 22.0532 52.3003 22.1214 51.9255 22.1821C51.5503 22.2433 50.8762 22.4181 50.4321 22.5623C49.8965 22.7524 49.3724 22.9729 48.8623 23.2226C48.4412 23.4354 47.7671 23.8605 47.3689 24.1564C46.9707 24.4526 46.3655 24.9844 46.0287 25.3336C45.6919 25.6902 45.1944 26.298 44.926 26.6926C44.658 27.0876 44.2903 27.7326 43.7694 28.8189L42.468 28.3098C41.7556 28.0214 41.1658 27.7479 41.1658 27.7024C41.1658 27.6491 41.4037 27.1326 41.7021 26.5632C41.9935 25.9864 42.468 25.2117 42.7439 24.8319C43.0269 24.4522 43.4635 23.913 43.7239 23.6246C43.9844 23.3362 44.4819 22.8424 44.8417 22.5313C45.3053 22.1397 45.7911 21.7745 46.2967 21.4375C46.8024 21.1076 47.3265 20.806 47.8664 20.5343C48.3673 20.3041 48.8785 20.0963 49.3982 19.9116C49.8194 19.7674 50.5085 19.5699 50.93 19.4864C51.3507 19.3951 51.933 19.2889 52.2314 19.2583C52.5303 19.2203 52.9977 19.1902 53.8016 19.1753ZM53.7248 22.3722C54.4139 22.3643 55.0955 22.4102 55.5246 22.4784C55.8998 22.547 56.5046 22.6838 56.8643 22.7899C57.2245 22.9036 57.8293 23.1317 58.2045 23.306C58.5798 23.4808 59.2079 23.8304 59.5832 24.0729C59.9964 24.3465 60.6091 24.8551 61.122 25.3637C61.62 25.8575 62.1559 26.4802 62.4243 26.8827C62.6768 27.2545 63.0291 27.8545 63.1973 28.2111C63.3659 28.5681 63.5954 29.13 63.7027 29.4643C63.8025 29.7982 63.9097 30.1853 63.9861 30.5655H62.5316C61.2143 30.5655 61.0691 30.5502 61.0307 30.4361C60.9998 30.3601 60.87 30.0411 60.7472 29.73C60.617 29.4189 60.3107 28.8718 60.0736 28.5152C59.8286 28.1429 59.3461 27.5962 58.9554 27.2244C58.5802 26.8674 58.0364 26.4422 57.7459 26.2753C57.4545 26.1079 56.9954 25.8728 56.7195 25.7588C56.4436 25.6373 55.9382 25.4778 55.6014 25.3943C55.2645 25.3109 54.6443 25.227 54.2232 25.1968C53.7557 25.1741 53.2043 25.1894 52.8062 25.2423C52.4464 25.2956 51.8796 25.4245 51.5428 25.5307C51.2059 25.6373 50.6546 25.8649 50.3178 26.0397C49.9805 26.2145 49.498 26.5104 49.2455 26.7004C48.9925 26.8901 48.5485 27.3 48.2575 27.6115C47.9741 27.9227 47.5685 28.4466 47.3614 28.7809C47.1548 29.1147 46.8794 29.6767 46.7491 30.0337C46.6096 30.4263 46.4946 30.827 46.4048 31.2336C46.343 31.5294 46.2971 32.1749 46.2971 32.6538C46.2971 33.1318 46.343 33.7772 46.4044 34.0809C46.4657 34.3772 46.6189 34.916 46.7487 35.273C46.8794 35.63 47.1628 36.2073 47.3844 36.5638C47.6069 36.9208 48.028 37.4596 48.3264 37.7712C48.6178 38.0749 49.0694 38.4852 49.3219 38.6749C49.5748 38.8645 50.1262 39.1835 50.5473 39.381C50.9684 39.5785 51.5891 39.8136 51.9259 39.9054C52.3087 40.0037 52.8905 40.0797 53.4573 40.1099C54.1239 40.1405 54.5675 40.1178 55.0884 40.0269C55.4711 39.9583 56.0764 39.8062 56.4207 39.6773C56.773 39.5558 57.3318 39.2823 57.6691 39.0773C58.0059 38.8719 58.4809 38.5381 58.7179 38.3331C59.0126 38.0791 59.289 37.805 59.5452 37.5129C59.8058 37.201 60.0438 36.8711 60.2572 36.5258C60.4338 36.2374 60.6859 35.7209 61.0691 34.7797L62.5316 34.7644C63.78 34.7416 63.9865 34.7569 63.9865 34.8557C63.9865 34.9164 63.8643 35.3337 63.7186 35.7895C63.5513 36.2865 63.3544 36.7733 63.1288 37.2473C62.9102 37.6627 62.6726 38.068 62.4168 38.4621C62.2022 38.7736 61.7197 39.343 61.3445 39.738C60.9693 40.133 60.3645 40.6718 60.0047 40.9375C59.565 41.2536 59.1044 41.5403 58.6261 41.7957C58.2279 42.0011 57.5389 42.2969 57.0943 42.4411C56.6507 42.5853 55.9766 42.7601 55.6014 42.8283C55.1952 42.9043 54.4757 42.9498 53.84 42.9576C53.1739 42.9576 52.4923 42.9118 52.0407 42.8283C51.6425 42.7601 50.953 42.5853 50.5089 42.4337C50.0648 42.2895 49.5289 42.0767 49.3223 41.978C49.0362 41.833 48.7551 41.6785 48.4796 41.5148C48.2271 41.3706 47.7446 41.0363 47.4078 40.778C47.0705 40.5202 46.5271 40.019 46.1978 39.6694C45.861 39.3203 45.4089 38.7583 45.1869 38.424C44.9223 38.0194 44.6795 37.6012 44.4594 37.1712C44.2832 36.8147 44.0382 36.2374 43.9235 35.8804C43.8008 35.5238 43.6476 34.9234 43.5712 34.552C43.4714 34.0656 43.433 33.5116 43.433 32.6533C43.433 31.8257 43.4714 31.2332 43.5633 30.7931C43.6326 30.4361 43.7778 29.8742 43.8851 29.5403C43.9998 29.2061 44.2219 28.6445 44.3905 28.2871C44.5592 27.9305 44.8042 27.4673 44.9344 27.2624C45.0721 27.0496 45.3935 26.6091 45.6464 26.2748C45.9069 25.941 46.3889 25.417 46.7262 25.1133C47.0555 24.8018 47.6603 24.3386 48.0585 24.0655C48.4566 23.7998 49.1382 23.4275 49.5748 23.2378C50.0034 23.0478 50.6241 22.8201 50.9455 22.7366C51.2748 22.6453 51.7798 22.5313 52.0787 22.4788C52.3775 22.4251 53.1121 22.3722 53.7248 22.3722ZM68.0452 23.906C68.1061 23.9134 68.4354 24.4601 68.7797 25.1361C69.1629 25.8955 69.5302 26.7533 69.7447 27.414C69.9363 27.9987 70.1658 28.8342 70.2502 29.2742C70.334 29.7147 70.4267 30.1857 70.4952 30.565H69.0402C67.5931 30.565 67.5852 30.565 67.5472 30.3981C67.5318 30.2994 67.455 29.9502 67.3861 29.6159C67.3172 29.2821 67.1181 28.6139 66.9574 28.1355C66.7888 27.657 66.4211 26.8219 66.1456 26.2827C65.8622 25.7435 65.6631 25.2881 65.7091 25.2728C65.755 25.2575 66.2684 24.9386 66.8577 24.5667C67.4474 24.1944 67.9834 23.8981 68.0452 23.906ZM56.5809 26.055C56.6732 26.0777 56.8873 26.1765 57.0559 26.26C57.2245 26.343 57.5689 26.5484 57.8218 26.7153C58.0743 26.8827 58.5184 27.2471 58.8093 27.5202C59.0927 27.7937 59.4834 28.2264 59.6595 28.4772C59.8432 28.7276 60.1266 29.2213 60.2952 29.5784C60.4634 29.9349 60.6245 30.2994 60.6934 30.565H57.4002L57.255 30.3221C57.1786 30.1857 56.8873 29.8742 56.6273 29.6238C56.3589 29.3808 55.9607 29.092 55.7541 28.9858C55.5396 28.8871 55.3634 28.7962 55.348 28.7883C55.3405 28.7883 55.5396 28.2342 55.8 27.5661C56.0605 26.8975 56.3055 26.2753 56.3439 26.1765C56.3973 26.0397 56.4507 26.0091 56.5809 26.055ZM37.0312 32.6153H39.8265L39.9262 33.6553C39.9796 34.233 40.0944 35.0449 40.1787 35.4631C40.2626 35.8804 40.4701 36.6171 40.6378 37.0956C40.8069 37.5737 40.9521 38.0369 40.9601 38.1129C40.9751 38.2344 40.7455 38.3637 39.7117 38.8191C39.0146 39.1228 38.4403 39.3736 38.4249 39.3736C38.4174 39.3736 38.3026 39.0926 38.1724 38.7435C38.0103 38.3119 37.8597 37.8763 37.7208 37.4369C37.606 37.0655 37.4374 36.3969 37.3531 35.9564C37.2531 35.4664 37.1739 34.9725 37.1156 34.476C37.0662 34.0523 37.0382 33.6264 37.0317 33.2L37.0312 32.6153ZM67.2793 34.7416L67.1186 35.4478C67.0347 35.835 66.8431 36.511 66.6974 36.9436C66.5518 37.384 66.2458 38.1208 66.0159 38.5761C65.7938 39.0393 65.4111 39.7079 65.1661 40.057C64.9286 40.4136 64.5379 40.9454 64.2929 41.2338C64.0554 41.5301 63.527 42.0767 63.1288 42.4486C62.7306 42.8287 62.08 43.3675 61.6818 43.6485C61.2836 43.9295 60.4793 44.4001 59.8895 44.6964C59.3002 44.9926 58.4579 45.3492 58.0134 45.486C57.5693 45.6302 56.8343 45.8124 56.3668 45.9037C55.9077 45.9946 55.1343 46.0934 53.8021 46.1694V43.3597L54.7361 43.2688C55.257 43.2159 56.015 43.0866 56.4286 42.9804C56.9097 42.8571 57.3828 42.7049 57.8452 42.5246C58.2125 42.3804 58.7868 42.0994 59.1241 41.9098C59.4609 41.7123 59.9818 41.378 60.2727 41.1582C60.5711 40.9375 61.1379 40.4214 61.5361 40.0111C61.9343 39.6012 62.4631 38.9711 62.7002 38.6141C62.9377 38.2645 63.305 37.6117 63.5195 37.1717C63.7261 36.7386 63.9941 36.0552 64.1013 35.6527C64.2161 35.2582 64.3159 34.8933 64.3388 34.84C64.3618 34.7718 64.722 34.7416 67.2793 34.7416ZM50.8307 35.592L51.1216 35.835C51.2748 35.9643 51.6116 36.1845 51.8566 36.3134C52.1096 36.4502 52.5307 36.6097 52.8062 36.6779C53.0821 36.7386 53.4189 36.7915 53.8021 36.7915V39.8289L53.5566 39.8368C53.4189 39.8368 53.0132 39.7835 52.653 39.7232C52.2252 39.6446 51.8031 39.5381 51.3896 39.4042C50.9551 39.2385 50.535 39.0379 50.1337 38.8042C49.7893 38.5988 49.3219 38.265 48.7096 37.7183L50.8307 35.592ZM42.9271 55.8589H45.5308V60.5664H50.4316V55.8585H53.0353V67.78H50.4316L50.3932 63.034L45.5308 62.996V67.78H42.9271V55.8589ZM56.2516 55.8589H65.2879V58.212H58.8552L58.8932 60.604L64.5216 60.642V62.9956H58.8557V65.4256H65.3647V67.7796H56.2521L56.2516 55.8589Z" fill="#435363"/>
<path fill-rule="evenodd" clip-rule="evenodd" d="M58.7939 20.0864C58.8478 20.0864 59.2764 20.2761 59.736 20.4963C60.203 20.724 60.8926 21.1111 61.2678 21.3545C61.643 21.6049 62.1789 21.9925 62.4544 22.2123C62.838 22.5367 63.2059 22.8788 63.5571 23.2375C63.9637 23.6598 64.3471 24.1033 64.7057 24.5663C65.0121 24.9613 65.4332 25.5914 65.6398 25.9712C65.8544 26.343 66.1532 26.9281 66.2985 27.262C66.4516 27.5958 66.6816 28.2111 66.8118 28.6288C66.9416 29.0462 67.1028 29.654 67.1637 29.9804C67.2255 30.2994 67.2785 30.5804 67.2785 30.6031C67.2785 30.6258 66.6203 30.6337 64.3385 30.6031L64.2691 30.337C64.1774 30.0057 64.0779 29.6766 63.9707 29.3499C63.8065 28.8713 63.6147 28.4023 63.3964 27.9454C63.2048 27.5731 62.9064 27.057 62.7378 26.8062C62.5692 26.5558 62.186 26.0621 61.8876 25.7129C61.5892 25.3633 61.1062 24.8774 60.8078 24.627C60.448 24.3379 60.0777 24.0618 59.6976 23.7994C59.3837 23.5866 58.8015 23.268 58.4187 23.0784C58.028 22.8957 57.7067 22.7135 57.7067 22.6829C57.6992 22.6528 57.9053 22.1136 58.1508 21.4834C58.3958 20.8607 58.6178 20.2914 58.6483 20.2228C58.6792 20.1472 58.7405 20.0864 58.7939 20.0864ZM53.8776 25.4774V28.4768L53.4031 28.538C53.1351 28.5755 52.7135 28.6822 52.461 28.773C52.2085 28.8639 51.8483 29.0234 51.6572 29.1375C51.4656 29.2437 51.1517 29.4945 50.9526 29.6841C50.7456 29.8738 50.4626 30.2155 50.3169 30.4357C50.1713 30.6485 49.9801 31.0357 49.8879 31.2865C49.796 31.5596 49.7122 32.0154 49.6892 32.4253C49.6583 32.9191 49.6892 33.2455 49.781 33.6025C49.8499 33.8756 49.9108 34.164 49.9188 34.2405C49.9342 34.3615 49.6967 34.4909 48.594 34.9768C47.8586 35.2958 47.2308 35.5462 47.2004 35.5309C47.162 35.5156 47.0701 35.3185 46.9933 35.1057C46.8835 34.7742 46.7915 34.4371 46.7179 34.0958C46.649 33.7388 46.5952 33.1389 46.5952 32.6529C46.5952 32.167 46.649 31.5675 46.7179 31.2105C46.8002 30.8376 46.905 30.4698 47.0317 30.1093C47.139 29.8362 47.3536 29.3957 47.5063 29.1222C47.6595 28.8491 47.9813 28.3859 48.2188 28.097C48.4563 27.8086 48.8236 27.4289 49.0226 27.2541C49.256 27.0662 49.496 26.8865 49.7422 26.7153C49.9338 26.586 50.3249 26.3658 50.6233 26.2216C50.9217 26.0774 51.3508 25.8951 51.5804 25.8195C51.8945 25.7222 52.2142 25.6434 52.5378 25.5836C52.8363 25.5307 53.2574 25.4852 53.8776 25.4774ZM40.1475 32.6149H43.042L43.1034 33.3141C43.1418 33.7008 43.2336 34.3467 43.3099 34.7412C43.3943 35.1363 43.5629 35.7738 43.6931 36.1461C43.8308 36.518 44.1063 37.1555 44.3208 37.551C44.5274 37.9456 44.8952 38.5456 45.1327 38.872C45.3702 39.2063 45.8522 39.7603 46.2045 40.1099C46.5492 40.4591 47.0852 40.9223 47.392 41.1425C47.6904 41.3702 48.2188 41.7119 48.5556 41.902C48.8924 42.0916 49.3136 42.304 49.4976 42.3651C49.6738 42.4333 49.819 42.5168 49.819 42.5622C49.819 42.6081 49.6124 43.1622 49.352 43.8002C49.0995 44.4303 48.8545 45.015 48.816 45.091C48.7547 45.2125 48.7013 45.1972 48.1574 44.9468C47.7443 44.7587 47.3406 44.5509 46.9479 44.3241C46.536 44.0777 46.1349 43.8143 45.7454 43.5345C45.3761 43.2579 45.0183 42.9665 44.6731 42.661C44.4052 42.4259 43.9381 41.9548 43.6313 41.621C43.2376 41.1707 42.8696 40.6991 42.529 40.2082C42.2302 39.7682 41.8015 39.0389 41.572 38.5757C41.3495 38.1125 41.0202 37.3229 40.8595 36.8143C40.6913 36.2978 40.4843 35.4928 40.4079 35.0297C40.3154 34.4887 40.2463 33.944 40.2009 33.3971L40.1475 32.6149ZM70.4948 34.7412L70.4489 35.0983C70.4259 35.2958 70.3191 35.8499 70.2118 36.3358C70.0733 36.9253 69.9072 37.5081 69.7139 38.0824C69.5048 38.662 69.2697 39.2321 69.0093 39.7909C68.7671 40.295 68.5039 40.7889 68.2205 41.2714C67.9335 41.7279 67.6295 42.1738 67.3094 42.6081C67.018 42.9953 66.475 43.6407 66.0919 44.0506C65.7166 44.453 65.0735 45.053 64.6748 45.3868C64.2771 45.7137 63.6569 46.1843 63.2967 46.4273C62.8714 46.7092 62.4373 46.9776 61.9948 47.2322C61.5568 47.469 61.1099 47.6894 60.6551 47.8929C60.2798 48.0598 59.6746 48.2949 59.3148 48.4168C58.9546 48.5383 58.2655 48.7358 57.783 48.8573C57.3006 48.9788 56.4353 49.1304 55.8685 49.2069C55.0651 49.3052 54.5058 49.3279 53.3417 49.2978C52.3383 49.2672 51.5649 49.2064 50.9676 49.1002C50.4851 49.0089 49.6738 48.8267 49.1683 48.6825C48.6629 48.5383 47.9813 48.3106 47.6595 48.1813C47.3306 48.0524 46.7104 47.7714 46.2813 47.5586C45.8042 47.321 45.3367 47.0652 44.8797 46.7917C44.489 46.5425 44.1059 46.2816 43.7311 46.0095C43.3388 45.7072 42.9557 45.3933 42.5825 45.0683C42.2456 44.772 41.9622 44.4836 41.9468 44.4377C41.9318 44.3848 42.3604 43.9064 42.9043 43.375C43.4402 42.8432 43.9072 42.4106 43.9461 42.4106C43.9765 42.4106 44.2136 42.6081 44.4815 42.8511C44.742 43.0862 45.217 43.4812 45.5308 43.7088C45.8919 43.9721 46.2622 44.2228 46.6411 44.4604C46.9399 44.6352 47.4913 44.9315 47.8665 45.1063C48.2492 45.2811 48.9004 45.5463 49.3215 45.691C49.7426 45.8426 50.4163 46.0248 50.8145 46.1161C51.2126 46.1992 51.9022 46.3132 52.3463 46.3591C52.8517 46.4198 53.6097 46.4351 54.3756 46.4045C55.2408 46.374 55.869 46.3058 56.5196 46.169C57.0251 46.0628 57.768 45.8732 58.1662 45.7438C58.5644 45.6149 59.2919 45.3187 59.7739 45.091C60.2564 44.8629 61.0378 44.4224 61.4973 44.1192C61.9644 43.8076 62.6539 43.2837 63.0291 42.9498C63.4219 42.6088 63.795 42.2462 64.1469 41.8639C64.3839 41.5978 64.79 41.0892 65.0505 40.74C65.3713 40.3007 65.6678 39.8444 65.9387 39.3732C66.2113 38.8806 66.4566 38.3737 66.6737 37.8547C66.8558 37.3922 67.0219 36.9236 67.1716 36.4498C67.2634 36.1155 67.3862 35.637 67.4321 35.3867C67.478 35.1288 67.5314 34.8855 67.5544 34.8326C67.5773 34.764 67.9446 34.7412 70.4948 34.7412ZM57.4158 34.7412H60.7698L60.6167 35.1363C60.4731 35.4671 60.3146 35.7914 60.1417 36.1081C59.9527 36.4494 59.7431 36.779 59.5139 37.0952C59.2722 37.3879 59.0112 37.6643 58.7326 37.9229C58.4354 38.1894 58.1181 38.433 57.7835 38.6517C57.5076 38.834 57.094 39.0616 56.8644 39.1682C56.6349 39.2744 56.4199 39.343 56.3969 39.3124C56.374 39.2819 56.1215 38.667 55.846 37.9456C55.5626 37.2246 55.3326 36.6015 55.3326 36.556C55.3326 36.518 55.5167 36.3965 55.7387 36.2829C55.9992 36.151 56.2455 35.9931 56.4737 35.8118C56.6653 35.6602 56.9483 35.3565 57.1169 35.1363L57.4158 34.7412Z" fill="#F38B00"/>
</g>
<path d="M95.1094 38.293C90.1875 38.293 87.1055 35 87.1055 29.5391C87.1055 24.0898 90.2109 20.7969 95.1094 20.7969C99.1758 20.7969 102.27 23.375 102.539 27.1602H99.0938C98.7656 25.0859 97.1719 23.7266 95.1094 23.7266C92.4375 23.7266 90.7148 25.9648 90.7148 29.5273C90.7148 33.1367 92.4141 35.3633 95.1211 35.3633C97.2188 35.3633 98.7305 34.1328 99.1055 32.1289H102.551C102.152 35.9023 99.2578 38.293 95.1094 38.293ZM119.438 38H115.898V30.875H108.281V38H104.742V21.0898H108.281V27.957H115.898V21.0898H119.438V38ZM133.453 35.0703V38H122.25V21.0898H133.453V24.0078H125.789V28.0859H133.02V30.8047H125.789V35.0703H133.453ZM139.547 38H136.008V21.0898H147.082V24.0078H139.547V28.543H146.426V31.3438H139.547V38Z" fill="#435363"/>
<defs>
<clipPath id="clip0_612_2823">
<rect width="42" height="46" fill="white" transform="translate(32 7)"/>
</clipPath>
</defs>
</svg>