<svg width="93" height="44" viewBox="0 0 93 44" fill="none" xmlns="http://www.w3.org/2000/svg">
<g clip-path="url(#clip0_337_4939)">
<path d="M30.2021 32.2153L36.8752 32.7051V38.3919C36.8752 38.3919 24.4074 50.6413 6.24121 36.138H12.4319L13.1185 30.5508C13.1185 30.5508 20.1826 37.7037 30.2021 32.2153Z" fill="#0D2C40"/>
<path d="M7.60617 5.94922C7.60617 5.94922 -5.95247 18.5432 5.14881 34.6671L11.3462 35.2565L11.9364 29.2775C11.9364 29.2775 6.24134 19.9661 13.5993 12.6156L7.00013 12.1059L7.60617 5.94922Z" fill="#0D2C40"/>
<path d="M9.08101 5.06681C9.08101 5.06681 25.9928 -5.81116 38.8491 7.32077L33.1507 6.92975L32.5596 13.2965C32.5596 13.2965 26.0758 5.45865 15.2709 11.5365L8.6875 11.2426L9.08101 5.06681Z" fill="#0D2C40"/>
<path d="M34.0352 14.8686L34.4278 8.30103L40.4201 8.89046L58.4975 28.981H52.3101L51.7198 34.5682L34.0352 14.8686Z" fill="#0D2C40"/>
<path d="M31.8749 31.1395L54.7632 5.94824L60.8551 6.53768L60.4624 12.7134L37.9659 37.7038L38.0614 31.235L31.8749 31.1395Z" fill="#02D35F"/>
<path d="M55.6475 5.04093L61.9851 5.55647L61.5451 11.5861C61.5451 11.5861 70.9013 5.63036 77.7546 11.9522L84.4558 12.2453L85.0586 6.37504C85.0586 6.37504 74.5866 -5.40368 55.6475 5.04093Z" fill="#02D35F"/>
<path d="M78.7117 12.9077L85.4122 13.2995L85.9294 7.39355C85.9294 7.39355 100.592 23.6902 84.7489 37.7037L78.2676 37.2554L78.8578 30.5699C78.8578 30.5699 87.6271 20.7737 78.7117 12.9077Z" fill="#02D35F"/>
<path d="M60.0698 30.5509L53.3013 29.9614L52.9219 35.9172C52.9219 35.9172 64.933 49.7374 83.0577 38.7091L76.867 38.2094L77.4573 31.8144C77.4573 31.8144 69.5721 38.1214 60.0698 30.5509Z" fill="#02D35F"/>
</g>
<defs>
<clipPath id="clip0_337_4939">
<rect width="92.1509" height="44" fill="white"/>
</clipPath>
</defs>
</svg>
