<svg width="115" height="29" viewBox="0 0 115 29" fill="none" xmlns="http://www.w3.org/2000/svg">
<g clip-path="url(#clip0_337_5001)">
<mask id="mask0_337_5001" style="mask-type:luminance" maskUnits="userSpaceOnUse" x="0" y="0" width="115" height="29">
<path d="M0.000976562 0H114.514V29H0.000976562V0Z" fill="white"/>
</mask>
<g mask="url(#mask0_337_5001)">
<path fill-rule="evenodd" clip-rule="evenodd" d="M20.7412 0C22.6745 0 22.7704 0.00966668 22.8656 0.187385C22.9132 0.291487 22.9608 1.05144 22.9608 1.87682C22.9608 2.70221 22.9132 3.48223 22.7704 3.84733H20.817C19.7403 3.84733 18.7974 3.82949 18.7208 3.80123C18.5974 3.76405 18.5781 3.4629 18.5595 1.94226C18.5498 0.93841 18.5781 0.0936923 18.6264 0.0654359C18.6733 0.0282564 19.6176 0 20.7412 0ZM32.1255 5.53751L32.6111 5.79033C32.8877 5.93162 33.4692 6.40974 33.9168 6.85144C34.5266 7.45151 34.8218 7.82703 35.0887 8.35274C35.2791 8.73792 35.4977 9.29115 35.6985 10.089L37.26 10.0987C38.6892 10.0987 38.8892 10.1262 39.5852 10.3515C40.0039 10.4831 40.5281 10.727 40.7475 10.8869C40.9757 11.0371 41.1564 11.2438 41.1564 11.3278C41.1564 11.4215 41.0047 11.8156 40.8047 12.2008C40.557 12.6929 40.2248 13.1376 39.8232 13.5147C39.4415 13.8927 39.0085 14.2149 38.5368 14.4717C38.165 14.6599 37.5463 14.903 37.1559 14.9975C36.7648 15.1008 36.0792 15.2131 34.8211 15.3172L34.4976 16.0764C34.2082 16.7328 33.9 17.3807 33.5733 18.0194C33.2498 18.6663 32.7546 19.549 32.4683 19.9899C32.1293 20.5196 31.7704 21.0362 31.3924 21.5388C31.0778 21.9515 30.4302 22.6839 29.9632 23.1621C29.4873 23.6506 28.7816 24.3072 28.3912 24.6173C27.8803 25.0105 27.356 25.386 26.8193 25.7431C26.1706 26.1412 25.5031 26.5077 24.819 26.8414C24.1899 27.1418 23.2277 27.5455 22.6753 27.7337C22.122 27.9211 21.2647 28.1739 20.7694 28.2958C20.2742 28.4185 19.3023 28.6156 18.6257 28.7375C17.5304 28.9249 17.0537 28.9435 14.4816 28.9532C12.1096 28.9532 11.3853 28.9249 10.528 28.7844C9.80834 28.6592 9.09331 28.5089 8.38421 28.3337C7.78413 28.1835 6.9461 27.9114 6.52672 27.7329C6.10734 27.5455 5.53626 27.2645 5.24998 27.0949C4.96444 26.9351 4.35469 26.4376 3.87805 25.9966C3.39249 25.5371 2.81175 24.8798 2.52546 24.4485C2.22344 23.9929 1.94377 23.5229 1.68744 23.0401C1.506 22.6743 1.22046 21.9991 1.04869 21.5388C0.85146 20.9505 0.673646 20.3558 0.515541 19.7557C0.362743 19.0951 0.238695 18.4282 0.143746 17.7569C0.057937 17.0561 0.010277 16.3511 0.000976562 15.6451C0.000976563 14.7625 0.029233 14.5468 0.191336 14.2844C0.296182 14.1245 0.477618 13.9274 0.591387 13.862C0.763156 13.7772 3.91672 13.7401 15.0535 13.7021C28.2098 13.6553 29.3438 13.6367 29.9156 13.4865C30.3831 13.3556 30.8439 13.202 31.2964 13.0262L31.0392 12.5012C30.8614 12.1022 30.7212 11.6875 30.6205 11.2624C30.506 10.7642 30.4777 10.3047 30.506 9.66667C30.5439 9.00041 30.6294 8.5498 30.8585 7.88354C31.0295 7.39574 31.2778 6.80385 31.4109 6.56962C31.5448 6.33464 31.7634 6.00672 31.8868 5.83718L32.1255 5.53751ZM106.606 13.5608C106.911 13.5898 107.121 13.6835 107.302 13.8709C107.445 14.0122 107.598 14.265 107.702 14.7253L108.274 14.3781C108.669 14.1546 109.084 13.9663 109.512 13.8152C109.893 13.6932 110.541 13.5802 110.989 13.5519C111.437 13.5237 112.122 13.5519 112.513 13.6084C112.914 13.6739 113.418 13.8055 113.637 13.8992C113.856 14.0033 114.152 14.1996 114.285 14.3401C114.466 14.5372 114.523 14.6971 114.523 14.9975C114.523 15.2228 114.457 15.5135 114.39 15.6541C114.314 15.7953 114.104 15.9924 113.914 16.0764C113.723 16.1708 113.523 16.2459 113.466 16.2459C113.418 16.2459 113.066 16.1515 112.685 16.0392C112.16 15.889 111.818 15.8511 111.227 15.8794C110.617 15.9076 110.341 15.9738 109.827 16.2177C109.474 16.3865 108.988 16.7152 108.75 16.9494C108.521 17.1747 108.188 17.6536 107.702 18.6388L107.607 24.8894L107.254 25.2181C106.959 25.4806 106.826 25.5371 106.464 25.5371C106.111 25.5371 105.977 25.4806 105.32 24.8894L105.272 14.4152L105.492 14.0873C105.616 13.9088 105.825 13.7021 105.949 13.6367C106.092 13.5616 106.349 13.5333 106.606 13.5616V13.5608ZM10.5942 4.51508C11.633 4.51508 12.5476 4.53367 12.6242 4.56192C12.7476 4.5991 12.7669 4.89951 12.7669 6.48559C12.7669 8.07167 12.7476 8.37208 12.6242 8.41C12.5476 8.42859 11.6426 8.45685 10.6046 8.45685C9.21405 8.45685 8.68982 8.42859 8.60431 8.3349C8.51805 8.25013 8.48013 7.74374 8.4608 6.47592C8.45113 5.08764 8.47046 4.71213 8.57531 4.62736C8.67049 4.54333 9.26982 4.51508 10.5942 4.51508ZM15.6439 4.51508C16.7109 4.51508 17.6159 4.55226 17.7207 4.60877C17.9022 4.69354 17.9118 4.7969 17.9118 6.43874C17.9118 7.89395 17.8925 8.19361 17.7683 8.31556C17.6449 8.42859 17.2827 8.45685 15.7681 8.45685C14.7196 8.45685 13.834 8.41 13.7195 8.36315C13.5484 8.26872 13.5291 8.1661 13.5098 6.50418C13.5008 5.08764 13.5194 4.71213 13.6243 4.62736C13.7195 4.54333 14.3195 4.51508 15.6439 4.51508ZM20.7226 4.51508C21.7696 4.51508 22.6938 4.55226 22.7704 4.60877C22.8939 4.67421 22.9132 4.99395 22.9132 6.48559C22.9132 7.96905 22.8939 8.28805 22.7704 8.36315C22.6938 8.41 21.7696 8.45685 20.7218 8.45685C19.312 8.45685 18.7885 8.42859 18.7023 8.3349C18.6167 8.25013 18.5781 7.74374 18.5595 6.47592C18.5498 5.08764 18.5692 4.71213 18.674 4.62736C18.7692 4.54333 19.3693 4.51508 20.7218 4.51508H20.7226ZM54.0183 8.42859C54.1521 8.45685 54.3708 8.53195 54.4942 8.59739C54.628 8.66282 54.7991 8.83236 54.8757 8.9729C54.9998 9.19821 55.0184 10.0333 55.0184 14.8294C55.0184 19.2776 54.9998 20.5253 54.895 20.9387C54.7898 21.3073 54.6591 21.668 54.5039 22.0184C54.3708 22.3278 54.0376 22.8535 53.7804 23.1822C53.5231 23.5197 53.0754 23.98 52.7795 24.2046C52.4102 24.491 52.0111 24.7365 51.589 24.937C51.2269 25.1155 50.6075 25.3215 50.2074 25.4062C49.6928 25.5193 49.2355 25.5475 48.5403 25.5096C47.8636 25.4813 47.3877 25.3966 46.8732 25.2188C46.4828 25.0776 45.9303 24.8151 45.6343 24.6269C45.3488 24.4396 44.9108 24.0923 44.6528 23.8484C44.3963 23.6134 44.0059 23.1442 43.7768 22.8163C43.5095 22.3862 43.2861 21.9303 43.1098 21.4555C42.9355 20.9401 42.8329 20.4032 42.805 19.8598C42.7745 19.3411 42.8097 18.8207 42.9098 18.3109C42.9961 17.9168 43.2437 17.2409 43.4623 16.8088C43.7672 16.1991 44.0341 15.8422 44.5866 15.2986C45.1391 14.7543 45.5012 14.4911 46.111 14.1907C46.5586 13.975 47.2449 13.7311 47.6353 13.656C48.1402 13.5527 48.6258 13.5147 49.2549 13.5527C49.7694 13.5809 50.4364 13.6843 50.7792 13.7966C51.122 13.9007 51.6842 14.1535 52.6367 14.7261L52.6843 11.8729C52.7319 9.16995 52.7512 9.01974 52.9319 8.78551C53.0464 8.6539 53.2755 8.50369 53.4562 8.46577C53.6368 8.41892 53.8949 8.40033 54.0183 8.42859ZM46.6538 16.5932C46.4441 16.7345 46.1586 16.997 46.0158 17.1851C45.873 17.3636 45.6254 17.7666 45.4819 18.0767C45.2439 18.5741 45.206 18.7429 45.206 19.5311C45.206 20.3758 45.2343 20.4695 45.5585 21.1269C45.7868 21.5953 46.0537 21.9619 46.3683 22.2341C46.6255 22.4594 47.0635 22.7501 47.3498 22.8914C47.8257 23.116 47.9781 23.1442 48.9217 23.1442C49.9122 23.1442 50.0074 23.1256 50.5413 22.8535C50.8744 22.6847 51.3414 22.3181 51.6463 22.0088C51.9891 21.6429 52.2463 21.2674 52.3794 20.9105C52.5036 20.6205 52.6174 20.1319 52.656 19.8315C52.695 19.4466 52.6594 19.0578 52.5512 18.6864C52.4591 18.3455 52.3313 18.0152 52.1697 17.7012C52.0463 17.4944 51.7221 17.1189 51.4559 16.8758C51.1882 16.6311 50.7316 16.3218 50.4268 16.1805C49.9881 15.9745 49.7122 15.918 49.0169 15.8898C48.2733 15.8615 48.0926 15.8898 47.5877 16.1054C47.2732 16.237 46.8538 16.4519 46.6538 16.5932ZM82.5037 8.42859C82.6368 8.45685 82.8562 8.55054 82.9796 8.63531C83.1135 8.729 83.2756 8.89779 83.3418 9.02941C83.428 9.1982 83.4563 10.3151 83.4563 13.4969C83.4563 15.8333 83.4845 17.748 83.5039 17.748C83.5321 17.748 85.0282 16.8096 86.8195 15.6645C89.4013 14.0219 90.1635 13.5713 90.4587 13.5437C90.7539 13.5155 90.9256 13.5623 91.1733 13.7222C91.3733 13.8627 91.554 14.0881 91.6395 14.3223C91.7637 14.6509 91.7637 14.7446 91.6491 15.0733C91.5257 15.4109 91.3346 15.5522 89.2674 16.875C88.4792 17.3908 87.6853 17.8977 86.8857 18.3957C86.7809 18.4522 87.2768 19.0523 89.1343 21.0889C90.8015 22.91 91.554 23.8105 91.6395 24.0551C91.7161 24.299 91.7161 24.505 91.6588 24.7117C91.6016 24.8805 91.4685 25.1155 91.3443 25.2278C91.2305 25.3497 90.9539 25.4717 90.7442 25.5096C90.5248 25.5378 90.249 25.5193 90.0772 25.4531C89.9062 25.3787 88.8674 24.3079 84.7427 19.7468L83.4563 20.6108V22.6468C83.4563 24.2804 83.428 24.7496 83.3135 24.9742C83.2063 25.1562 83.0516 25.3056 82.8659 25.4062C82.6465 25.5096 82.4272 25.5378 82.1223 25.4999C81.865 25.4717 81.6174 25.3683 81.4843 25.2374C81.3398 25.082 81.2323 24.8959 81.1697 24.6931C81.1125 24.4961 81.0842 21.3425 81.0842 16.9226C81.0746 10.8594 81.1028 9.43244 81.2077 9.17962C81.2843 9.01082 81.4174 8.8041 81.5222 8.71041C81.6174 8.62564 81.8271 8.51336 81.9795 8.46577C82.1416 8.41892 82.3796 8.40033 82.5037 8.42859ZM5.62177 9.11344C7.07921 9.10451 7.6131 9.14169 7.69862 9.22646C7.78413 9.31049 7.8228 9.78936 7.8228 11.0096C7.8228 11.9294 7.7938 12.7362 7.76554 12.821C7.72687 12.9333 7.40341 12.9623 5.62177 12.9623C3.8498 12.9623 3.52559 12.9333 3.478 12.821C3.45941 12.7362 3.43041 11.9287 3.41108 11.0096C3.40216 9.67708 3.42075 9.31049 3.52559 9.22646C3.62151 9.14169 4.23944 9.11344 5.62177 9.11344ZM12.7193 9.16028V12.9147H8.52772L8.51805 11.1315C8.50839 10.1552 8.51805 9.30156 8.53664 9.22646C8.56564 9.13277 9.01328 9.11344 12.7193 9.16028ZM15.7108 9.11344C17.1682 9.10451 17.7111 9.14169 17.7973 9.22646C17.8828 9.31049 17.9207 9.78936 17.9118 11.0378C17.9118 11.9673 17.8828 12.7741 17.8449 12.8396C17.7876 12.9333 17.2731 12.9526 13.5767 12.9147L13.5388 11.1412C13.5098 9.77077 13.5291 9.33874 13.6243 9.24505C13.7195 9.14169 14.1671 9.11344 15.7108 9.11344ZM22.7704 9.11344L22.8656 9.34841C22.9229 9.47036 22.9697 10.2682 22.9697 11.1033C22.9697 12.1919 22.9325 12.6797 22.8463 12.7927C22.7422 12.9526 22.5511 12.9615 18.6257 12.9147L18.6167 11.1315C18.6071 10.1552 18.6167 9.30156 18.6353 9.23538C18.6643 9.14169 19.1417 9.11344 22.7704 9.11344ZM25.8377 9.11344C27.7242 9.11344 27.8291 9.1231 27.9146 9.30156C27.9718 9.40492 28.0194 10.2117 28.0194 11.1033C28.0194 12.3138 27.9912 12.7548 27.896 12.8396C27.8097 12.9243 27.2476 12.9526 23.6754 12.9147L23.6367 11.1412C23.6085 9.77077 23.6278 9.33874 23.723 9.24505C23.8182 9.14169 24.2658 9.11344 25.8377 9.11344ZM62.2112 13.5333C62.6748 13.5334 63.1374 13.5775 63.5928 13.6649C63.9646 13.7393 64.5646 13.9557 64.9268 14.1245C65.2986 14.3029 65.8221 14.6316 66.0987 14.8569C66.3649 15.0726 66.7843 15.4853 67.0222 15.776C67.2602 16.0586 67.5844 16.5456 67.7368 16.8557C67.8892 17.165 68.0893 17.6907 68.1755 18.0291C68.2796 18.4232 68.3369 18.9861 68.3369 19.6241C68.3369 20.4123 68.2893 20.7506 68.0893 21.3604C67.9554 21.7738 67.7085 22.3181 67.5464 22.5806C67.3754 22.8334 67.0891 23.2372 66.8988 23.4625C66.6337 23.7598 66.3401 24.0302 66.0221 24.27C65.7365 24.4857 65.2696 24.7764 64.9736 24.9266C64.5753 25.1088 64.1608 25.2532 63.7355 25.3579C63.2352 25.4715 62.7242 25.5313 62.2112 25.5364C61.7725 25.5364 61.1255 25.4709 60.782 25.3869C60.4489 25.3118 59.8488 25.0865 59.4584 24.8984C59.0584 24.7013 58.4865 24.3072 58.1341 23.9882C57.8002 23.6789 57.3622 23.1903 57.1622 22.9093C56.9614 22.6178 56.7235 22.1954 56.6194 21.9708C56.5145 21.7359 56.3621 21.2198 56.2758 20.8161C56.1865 20.3834 56.1355 19.9437 56.1234 19.5021C56.1234 19.1831 56.1807 18.6202 56.2573 18.2633C56.3428 17.8975 56.5807 17.2401 56.8001 16.8088C57.1049 16.1991 57.3719 15.8422 57.9244 15.2979C58.4672 14.7536 58.839 14.4903 59.4487 14.1899C59.8964 13.9743 60.5441 13.7401 60.8779 13.6649C61.3182 13.5863 61.764 13.5423 62.2112 13.5333ZM60.1247 16.5084C59.8488 16.6958 59.4963 16.9962 59.3536 17.1844C59.21 17.3628 58.9721 17.7658 58.8293 18.0759C58.645 18.4577 58.5381 18.8721 58.5148 19.2954C58.4865 19.7936 58.5245 20.1126 58.6769 20.6093C58.7914 20.9945 59.0294 21.4541 59.2391 21.7359C59.4391 21.9887 59.8391 22.3649 60.1247 22.5613C60.4109 22.7591 60.8779 22.9844 61.1635 23.0684C61.5353 23.1725 61.9353 23.2 62.4975 23.1725C63.1637 23.1346 63.4121 23.0781 63.8783 22.8431C64.2218 22.6743 64.6695 22.327 64.984 22.008C65.3261 21.6422 65.5841 21.2667 65.7172 20.9097C65.8468 20.5768 65.9396 20.2307 65.9938 19.8776C66.0221 19.6055 66.0027 19.1638 65.9462 18.8924C65.8698 18.5724 65.7612 18.261 65.622 17.9629C65.5075 17.719 65.193 17.287 64.9268 17.0156C64.6125 16.6831 64.2413 16.4096 63.8307 16.208C63.3072 15.9641 63.0975 15.9173 62.3539 15.889C61.7539 15.8704 61.3724 15.9076 61.0675 16.0206C60.7388 16.1537 60.4232 16.317 60.1247 16.5084ZM75.7869 13.5616C76.5112 13.5898 76.9305 13.6553 77.5016 13.8427C77.921 13.9839 78.5687 14.2933 78.9308 14.5372C79.2929 14.7818 79.6647 15.1008 79.7599 15.2599C79.8551 15.4102 79.9317 15.6823 79.9317 15.8697C79.9317 16.0482 79.8454 16.3307 79.7406 16.4988C79.6357 16.6683 79.4454 16.846 79.3123 16.9025C79.1209 16.9626 78.9217 16.9941 78.7211 16.9962C78.4735 16.9962 78.2355 16.9122 77.9589 16.7152C77.6694 16.5142 77.3671 16.3324 77.054 16.1708C76.5967 15.9359 76.4636 15.9173 75.5489 15.9173C74.6626 15.9173 74.4916 15.9455 74.0053 16.1701C73.7004 16.3114 73.2342 16.6401 72.9575 16.8929C72.672 17.1464 72.3381 17.5785 72.1954 17.8789C72.0352 18.2176 71.9137 18.5733 71.8332 18.9392C71.776 19.2396 71.7574 19.6903 71.7961 19.9527C71.8332 20.2056 71.9477 20.6473 72.0623 20.938C72.1857 21.2667 72.4526 21.6518 72.7865 21.9984C73.1286 22.3553 73.5294 22.6557 73.9294 22.8431C74.444 23.0877 74.6916 23.1435 75.3586 23.1814C75.949 23.2 76.3015 23.1717 76.6443 23.0595C76.9112 22.9747 77.4064 22.7211 77.7403 22.5055C78.2073 22.2051 78.4452 22.1114 78.7404 22.1114C78.9598 22.1114 79.255 22.1857 79.3881 22.2713C79.5309 22.365 79.722 22.5992 79.7978 22.7873C79.8997 23.0253 79.9279 23.2535 79.8833 23.4722C79.8454 23.6692 79.6833 23.9324 79.4744 24.1295C79.2832 24.3079 78.8453 24.6173 78.5025 24.8047C78.1686 24.9928 77.5403 25.2359 77.1209 25.3401C76.6066 25.4679 76.0789 25.534 75.5489 25.5371C75.0191 25.5329 74.4915 25.4667 73.977 25.3401C73.5576 25.2359 72.9865 25.03 72.6906 24.8708C72.405 24.7206 71.9284 24.392 71.6243 24.1481C71.2962 23.8687 70.9903 23.5642 70.7097 23.2372C70.4593 22.9022 70.2362 22.5476 70.0427 22.1768C69.8577 21.8016 69.7107 21.4087 69.6039 21.0042C69.5184 20.6844 69.4612 20.0278 69.4612 19.549C69.4612 19.0708 69.4991 18.4604 69.5564 18.1882C69.6136 17.9161 69.833 17.3532 70.0323 16.9211C70.2999 16.3679 70.5952 15.9545 71.0525 15.486C71.4049 15.1194 71.9284 14.6688 72.2147 14.4814C72.5099 14.2933 72.9865 14.0501 73.2914 13.9274C73.6309 13.7938 73.9815 13.6903 74.3391 13.6181C74.615 13.5705 75.2634 13.543 75.7869 13.5616ZM98.3184 13.5705C98.8233 13.5898 99.4613 13.6746 99.7468 13.7586C100.043 13.8427 100.576 14.068 100.938 14.2561C101.395 14.4903 101.853 14.8376 102.377 15.3447C102.825 15.7857 103.263 16.3396 103.443 16.6683C103.605 16.9776 103.834 17.5688 103.939 17.9822C104.044 18.3949 104.139 19.0143 104.139 19.3616C104.13 19.897 104.101 20.0375 103.892 20.2814C103.767 20.4316 103.5 20.6004 103.3 20.6569C103.091 20.7127 101.214 20.7506 98.7281 20.7506C95.4221 20.7506 94.5075 20.7692 94.5075 20.8629C94.5075 20.9291 94.6309 21.173 94.7745 21.4072C94.9269 21.6325 95.2221 21.9984 95.4407 22.2051C95.6504 22.4118 96.0601 22.6929 96.3367 22.8245C96.6126 22.9658 97.0989 23.1249 97.4127 23.1814C97.7942 23.2558 98.1846 23.2558 98.5564 23.2C98.8975 23.1453 99.2325 23.0574 99.5565 22.9375C99.7944 22.8334 100.138 22.6274 100.319 22.4676C100.493 22.323 100.678 22.1913 100.871 22.0735C100.986 22.0177 101.253 21.9708 101.462 21.9708C101.776 21.9708 101.91 22.0266 102.176 22.2988C102.481 22.5903 102.51 22.6743 102.51 23.1152C102.51 23.5941 102.491 23.632 101.967 24.1191C101.579 24.4773 101.135 24.7692 100.653 24.9831C100.233 25.1705 99.671 25.3772 99.3944 25.4337C99.1185 25.4903 98.4991 25.5371 98.0135 25.5371C97.5272 25.5371 96.8602 25.4709 96.5368 25.3958C96.2126 25.3118 95.6697 25.1237 95.3455 24.9549C94.9425 24.7455 94.557 24.5038 94.193 24.2321C93.8426 23.9479 93.5204 23.6307 93.2308 23.2848C92.9642 22.9365 92.7283 22.5658 92.5258 22.1768C92.3356 21.7855 92.1825 21.3772 92.0685 20.9573C91.9637 20.4874 91.9354 20.0464 91.9637 19.2486C92.0016 18.4232 92.0685 18.0194 92.2403 17.5599C92.3637 17.2215 92.5928 16.7337 92.7452 16.4802C92.8976 16.2177 93.3453 15.692 93.7453 15.3068C94.2026 14.8473 94.6979 14.4717 95.1269 14.2561C95.5112 14.0642 95.9091 13.9009 96.3174 13.7676C96.6126 13.6932 96.9747 13.6084 97.1272 13.5802C97.2893 13.5519 97.8224 13.5519 98.3184 13.5705ZM95.8028 16.6021C95.5456 16.7903 95.1745 17.1464 94.9931 17.3903C94.8027 17.6253 94.6027 17.954 94.5358 18.1131L94.4123 18.4038C100.309 18.4038 101.557 18.3667 101.557 18.3102C101.557 18.2544 101.481 18.0573 101.376 17.8595C101.281 17.6722 101.014 17.3063 100.786 17.0527C100.5 16.7434 100.138 16.4898 99.6517 16.2549C99.0516 15.9738 98.8322 15.9173 98.1749 15.889C97.6038 15.8704 97.2796 15.9076 96.8416 16.0578C96.4716 16.1898 96.1219 16.373 95.8028 16.6021ZM110.275 23.8477C110.408 23.8477 110.627 23.8945 110.75 23.9599C110.884 24.0261 111.037 24.1756 111.084 24.2886C111.142 24.4106 111.18 24.6084 111.18 24.7392C111.18 24.8612 111.075 25.0768 110.951 25.2084C110.877 25.2858 110.789 25.3467 110.69 25.3872C110.592 25.4277 110.486 25.4469 110.379 25.4434C110.188 25.4434 109.97 25.4055 109.883 25.3676C109.798 25.3304 109.675 25.1802 109.598 25.0396C109.531 24.8984 109.474 24.6924 109.474 24.589C109.483 24.4857 109.608 24.2693 109.75 24.1198C109.912 23.9599 110.122 23.8477 110.275 23.8477ZM109.827 24.8047C109.883 24.9831 109.903 24.9549 109.941 24.6455C109.988 24.2886 110.008 24.27 110.322 24.27C110.646 24.27 110.665 24.2886 110.713 24.6455C110.76 24.9549 110.779 24.9831 110.846 24.8329C110.903 24.711 110.884 24.5608 110.789 24.4106C110.7 24.2544 110.553 24.1667 110.35 24.1481C110.122 24.1198 110.027 24.1667 109.903 24.3541C109.808 24.5043 109.779 24.6738 109.827 24.8047ZM110.112 25.0679C110.046 25.0768 110.075 25.1237 110.179 25.1802C110.238 25.2133 110.304 25.2299 110.371 25.2282C110.438 25.2265 110.504 25.2065 110.56 25.1705C110.732 25.0865 110.732 25.0679 110.588 25.0679C110.493 25.0679 110.417 25.0017 110.417 24.9266C110.417 24.8426 110.379 24.7861 110.322 24.7861C110.275 24.7861 110.227 24.8426 110.227 24.9274C110.227 25.0017 110.179 25.0679 110.112 25.0679Z" fill="#2496ED"/>
</g>
</g>
<defs>
<clipPath id="clip0_337_5001">
<rect width="114.513" height="29" fill="white"/>
</clipPath>
</defs>
</svg>
