<svg width="130" height="28" viewBox="0 0 130 28" fill="none" xmlns="http://www.w3.org/2000/svg">
<path d="M34.449 16.1329C34.447 16.2559 34.3994 16.3732 34.3164 16.459C34.2334 16.5448 34.1218 16.5921 34.0061 16.5907H25.8489C26.0581 18.7362 27.5714 20.6985 29.7122 20.6985C31.1763 20.6985 32.259 20.1098 33.071 18.867C33.1088 18.8017 33.1611 18.7473 33.2233 18.7085C33.2855 18.6698 33.3558 18.6478 33.4278 18.6446C33.4815 18.643 33.535 18.6531 33.585 18.6742C33.6349 18.6953 33.6803 18.727 33.7183 18.7675C33.7563 18.8079 33.7862 18.8561 33.806 18.9092C33.8259 18.9623 33.8353 19.0192 33.8338 19.0763C33.8341 19.1553 33.8127 19.2325 33.7723 19.2987C32.948 20.8163 31.3116 21.5619 29.7122 21.5619C26.9685 21.5619 25 18.9455 25 16.159C25 13.3725 26.9562 10.7561 29.7122 10.7561C32.4681 10.7561 34.4367 13.3464 34.449 16.1329ZM33.5754 15.7273C33.4032 13.5818 31.853 11.6195 29.7122 11.6195C27.5714 11.6195 26.0581 13.5818 25.8489 15.7273H33.5754Z" fill="#12141D"/>
<path d="M44.3666 10.9655C44.4733 10.9688 44.5747 11.0153 44.6502 11.0956C44.7257 11.1759 44.7695 11.2838 44.7726 11.3972C44.7741 11.4544 44.7646 11.5112 44.7448 11.5643C44.7249 11.6174 44.6951 11.6657 44.6571 11.7061C44.619 11.7465 44.5737 11.7783 44.5237 11.7994C44.4738 11.8205 44.4203 11.8306 44.3666 11.8289H42.1766V20.9733C42.1756 21.0875 42.1325 21.1967 42.0566 21.2775C41.9806 21.3582 41.8779 21.404 41.7706 21.4051C41.6638 21.4018 41.5624 21.3552 41.4869 21.275C41.4114 21.1947 41.3676 21.0868 41.3645 20.9733V11.8289H39.2607C39.2069 11.8306 39.1534 11.8205 39.1035 11.7994C39.0535 11.7783 39.0082 11.7465 38.9702 11.7061C38.9322 11.6657 38.9023 11.6174 38.8824 11.5643C38.8626 11.5112 38.8531 11.4544 38.8547 11.3972C38.8556 11.283 38.8987 11.1738 38.9746 11.0931C39.0506 11.0124 39.1533 10.9665 39.2607 10.9655H41.3645V7.62957C41.3647 7.51903 41.402 7.41219 41.4697 7.32826C41.5373 7.24434 41.6309 7.18882 41.7336 7.17169C41.791 7.16359 41.8494 7.16875 41.9048 7.18684C41.9601 7.20493 42.0112 7.23551 42.0544 7.2765C42.0976 7.31749 42.132 7.36791 42.1552 7.42433C42.1784 7.48075 42.1899 7.54183 42.1889 7.6034V10.9655H44.3666Z" fill="#12141D"/>
<path d="M57.7127 15.3873V20.9211C57.7096 21.0345 57.6658 21.1424 57.5903 21.2227C57.5149 21.3029 57.4134 21.3495 57.3067 21.3528C57.2529 21.3544 57.1995 21.3443 57.1495 21.3232C57.0995 21.3021 57.0542 21.2704 57.0162 21.2299C56.9782 21.1895 56.9483 21.1413 56.9284 21.0882C56.9086 21.0351 56.8991 20.9782 56.9007 20.9211V15.3873C56.9007 13.5166 55.9041 11.6589 53.9478 11.6589C51.438 11.6589 50.3553 13.9875 50.5029 16.3816C50.5029 16.447 50.5275 16.7217 50.5275 16.7609V20.908C50.5273 21.0185 50.49 21.1254 50.4224 21.2093C50.3547 21.2932 50.2611 21.3487 50.1584 21.3659C50.101 21.374 50.0426 21.3688 49.9873 21.3507C49.9319 21.3326 49.8809 21.302 49.8377 21.261C49.7944 21.2201 49.76 21.1696 49.7368 21.1132C49.7136 21.0568 49.7022 20.9957 49.7032 20.9341V2.73689C49.7042 2.62271 49.7472 2.51349 49.8232 2.43275C49.8991 2.35201 50.0018 2.3062 50.1092 2.30518C50.2159 2.30847 50.3174 2.35501 50.3929 2.43527C50.4683 2.51552 50.5121 2.62343 50.5152 2.73689V13.0194C51.2165 11.6851 52.4714 10.7824 53.9355 10.7824C56.347 10.7824 57.7127 13.0194 57.7127 15.3873Z" fill="#12141D"/>
<path d="M72.367 16.1329C72.365 16.2559 72.3173 16.3732 72.2343 16.459C72.1513 16.5448 72.0398 16.5921 71.924 16.5907H63.7669C63.9761 18.7362 65.4894 20.6985 67.6302 20.6985C69.0943 20.6985 70.177 20.1098 70.989 18.867C71.0268 18.8017 71.0791 18.7473 71.1413 18.7085C71.2035 18.6698 71.2737 18.6478 71.3458 18.6446C71.3995 18.643 71.453 18.6531 71.5029 18.6742C71.5529 18.6953 71.5983 18.727 71.6363 18.7675C71.6743 18.8079 71.7041 18.8561 71.724 18.9092C71.7439 18.9623 71.7533 19.0192 71.7518 19.0763C71.7521 19.1553 71.7307 19.2325 71.6903 19.2987C70.8659 20.8163 69.2296 21.5619 67.6302 21.5619C64.8865 21.5619 62.918 18.9455 62.918 16.159C62.918 13.3725 64.8742 10.7561 67.6302 10.7561C70.3615 10.7561 72.3547 13.3464 72.367 16.1329ZM71.4811 15.7273C71.3089 13.5818 69.7586 11.6195 67.6179 11.6195C65.4771 11.6195 63.9638 13.5818 63.7546 15.7273H71.4811Z" fill="#12141D"/>
<path d="M82.3937 11.3714C82.4015 11.4875 82.3658 11.6022 82.2943 11.6905C82.2229 11.7787 82.1215 11.8333 82.0123 11.8423C79.6131 12.2217 78.5304 14.3018 78.5304 16.722V20.869C78.5302 20.9795 78.493 21.0864 78.4253 21.1703C78.3576 21.2542 78.264 21.3097 78.1613 21.3269C78.1039 21.335 78.0456 21.3298 77.9902 21.3117C77.9348 21.2936 77.8838 21.2631 77.8406 21.2221C77.7974 21.1811 77.763 21.1307 77.7398 21.0742C77.7166 21.0178 77.7051 20.9567 77.7061 20.8952V11.4368C77.7063 11.3262 77.7436 11.2194 77.8113 11.1355C77.8789 11.0515 77.9725 10.996 78.0752 10.9789C78.1326 10.9708 78.191 10.976 78.2464 10.9941C78.3017 11.0121 78.3528 11.0427 78.396 11.0837C78.4392 11.1247 78.4736 11.1751 78.4968 11.2315C78.52 11.288 78.5315 11.349 78.5304 11.4106V13.3337C79.2071 12.117 80.5482 10.9658 81.9508 10.9658C82.1599 10.9658 82.3937 11.1228 82.3937 11.3714Z" fill="#12141D"/>
<path d="M95.8064 16.1329C95.8045 16.2559 95.7568 16.3732 95.6738 16.459C95.5908 16.5448 95.4792 16.5921 95.3635 16.5907H87.2064C87.4155 18.7362 88.9288 20.6985 91.0696 20.6985C92.5337 20.6985 93.6164 20.1098 94.4284 18.867C94.4662 18.8017 94.5185 18.7473 94.5808 18.7085C94.643 18.6698 94.7132 18.6478 94.7852 18.6446C94.839 18.643 94.8924 18.6531 94.9424 18.6742C94.9923 18.6953 95.0377 18.727 95.0757 18.7675C95.1137 18.8079 95.1436 18.8561 95.1634 18.9092C95.1833 18.9623 95.1928 19.0192 95.1912 19.0763C95.1915 19.1553 95.1701 19.2325 95.1297 19.2987C94.3054 20.8163 92.6691 21.5619 91.0696 21.5619C88.326 21.5619 86.3574 18.9455 86.3574 16.159C86.3574 13.3725 88.3137 10.7561 91.0696 10.7561C93.8256 10.7561 95.7941 13.3464 95.8064 16.1329ZM94.9329 15.7273C94.7606 13.5818 93.2104 11.6195 91.0696 11.6195C88.9288 11.6195 87.4155 13.5818 87.2064 15.7273H94.9329Z" fill="#12141D"/>
<path d="M108.994 11.4754V20.9731C108.991 21.0865 108.947 21.1944 108.872 21.2747C108.796 21.355 108.695 21.4015 108.588 21.4048C108.534 21.4064 108.481 21.3964 108.431 21.3752C108.381 21.3541 108.336 21.3224 108.298 21.282C108.26 21.2415 108.23 21.1933 108.21 21.1402C108.19 21.0871 108.181 21.0302 108.182 20.9731V19.1677C107.505 20.5937 106.312 21.6272 104.786 21.6272C102.363 21.6272 101.021 19.3901 101.021 17.0223V11.4624C101.022 11.3482 101.066 11.239 101.141 11.1582C101.217 11.0775 101.32 11.0317 101.427 11.0307C101.534 11.0339 101.636 11.0805 101.711 11.1607C101.787 11.241 101.83 11.3489 101.834 11.4624V17.0223C101.834 18.893 102.83 20.7507 104.786 20.7507C107.53 20.7507 108.182 18.0165 108.182 14.9945V11.4493C108.183 11.3793 108.2 11.3106 108.231 11.2488C108.262 11.1871 108.306 11.1341 108.36 11.0944C108.415 11.0547 108.477 11.0294 108.542 11.0206C108.608 11.0118 108.674 11.0197 108.736 11.0437C108.813 11.082 108.878 11.1429 108.924 11.2194C108.97 11.2959 108.994 11.3848 108.994 11.4754Z" fill="#12141D"/>
<path d="M129.652 15.3479V20.9078C129.648 21.0213 129.605 21.1292 129.529 21.2094C129.454 21.2897 129.352 21.3362 129.246 21.3395C129.192 21.3411 129.138 21.3311 129.088 21.31C129.038 21.2888 128.993 21.2571 128.955 21.2167C128.917 21.1763 128.887 21.128 128.867 21.0749C128.847 21.0218 128.838 20.9649 128.84 20.9078V15.3479C128.84 13.4771 127.843 11.6456 125.887 11.6456C123.426 11.6456 122.491 14.4452 122.491 16.6169V20.9078C122.488 21.0213 122.444 21.1292 122.369 21.2094C122.293 21.2897 122.192 21.3362 122.085 21.3395C122.031 21.3411 121.978 21.3311 121.928 21.31C121.878 21.2888 121.833 21.2571 121.794 21.2167C121.756 21.1763 121.727 21.128 121.707 21.0749C121.687 21.0218 121.677 20.9649 121.679 20.9078V15.3479C121.679 13.4771 120.682 11.6456 118.726 11.6456C116.241 11.6456 115.22 13.7257 115.306 16.4991C115.306 16.5645 115.33 16.6823 115.306 16.7215V20.8947C115.306 21.0053 115.268 21.1121 115.201 21.196C115.133 21.28 115.039 21.3355 114.937 21.3526C114.879 21.3607 114.821 21.3555 114.766 21.3374C114.71 21.3194 114.659 21.2888 114.616 21.2478C114.573 21.2068 114.538 21.1564 114.515 21.1C114.492 21.0435 114.48 20.9825 114.482 20.9209V11.4363C114.482 11.3258 114.519 11.219 114.587 11.135C114.654 11.0511 114.748 10.9956 114.851 10.9785C114.908 10.9704 114.966 10.9755 115.022 10.9936C115.077 11.0117 115.128 11.0423 115.171 11.0833C115.215 11.1243 115.249 11.1747 115.272 11.2311C115.295 11.2875 115.307 11.3486 115.306 11.4102V12.9931C116.007 11.6587 117.262 10.7822 118.726 10.7822C120.387 10.7822 121.679 11.9073 122.208 13.5426C122.885 11.9204 124.201 10.7822 125.887 10.7822C128.286 10.7822 129.652 12.9931 129.652 15.3479Z" fill="#12141D"/>
<path opacity="0.6" d="M7.92684 10.4365L0 14.2649L7.92684 19.251L15.8632 14.2649L7.92684 10.4365Z" fill="#12141D"/>
<path opacity="0.45" d="M0 14.2647L7.92684 19.2508V0.27124L0 14.2647Z" fill="#12141D"/>
<path opacity="0.8" d="M7.92871 0.27124V19.2508L15.8651 14.2647L7.92871 0.27124Z" fill="#12141D"/>
<path opacity="0.45" d="M0 15.8696L7.92684 27.7509V20.8455L0 15.8696Z" fill="#12141D"/>
<path opacity="0.8" d="M7.92871 20.8455V27.7509L15.8651 15.8696L7.92871 20.8455Z" fill="#12141D"/>
</svg>
