<svg width="36" height="36" viewBox="0 0 36 36" fill="none" xmlns="http://www.w3.org/2000/svg">
<g clip-path="url(#clip0_337_2965)">
<path d="M15.9861 0.095426C16.3068 0.0625578 16.6278 0.033413 16.9492 0.00799743C17.124 -0.00331685 17.784 -0.00331685 18.4085 0.00799743C19.0336 0.019826 19.8746 0.0722831 20.2769 0.124226C20.6797 0.170512 21.2812 0.263083 21.6198 0.327369C21.959 0.39114 22.4838 0.512512 22.7875 0.593769C23.0911 0.675026 23.64 0.843197 24.0021 0.964569C24.3579 1.09211 24.9245 1.30657 25.2517 1.45725C25.584 1.60228 26.1271 1.86354 26.4657 2.04303C26.8049 2.22251 27.4231 2.59897 27.8379 2.8772C28.2522 3.14977 28.9002 3.61931 29.268 3.91503C29.6363 4.2164 30.2958 4.81297 30.7341 5.24188C31.1656 5.67697 31.7671 6.33166 32.0708 6.6968C32.774 7.57284 33.4046 8.50328 33.9563 9.47908C34.1374 9.81491 34.3998 10.3539 34.5459 10.6841C34.6977 11.0091 34.9143 11.5712 35.0426 11.9245C35.1652 12.284 35.3348 12.8286 35.4162 13.13C35.4981 13.4314 35.6207 13.9529 35.6849 14.2892C35.749 14.6255 35.8482 15.2396 35.9009 15.651C35.9708 16.1787 36 16.8339 36 17.8537C36 18.6591 35.9708 19.5632 35.9301 19.8821C35.8951 20.2009 35.8075 20.763 35.7433 21.1282C35.6791 21.4933 35.5503 22.0961 35.4569 22.4612C35.3635 22.8263 35.1824 23.4347 35.0541 23.8117C34.92 24.1825 34.6977 24.7565 34.5464 25.081C34.4003 25.4111 34.1374 25.9501 33.9569 26.2865C33.7758 26.6228 33.396 27.2369 33.1158 27.6483C32.8414 28.0597 32.3687 28.7031 32.0708 29.0682C31.7671 29.4334 31.1421 30.1117 30.6751 30.5751C30.2082 31.039 29.531 31.6474 29.1809 31.9318C28.7251 32.2848 28.2577 32.6231 27.7795 32.9459C27.2502 33.2845 26.7047 33.5977 26.1449 33.8845C25.6397 34.1423 25.1234 34.3782 24.5974 34.5917C24.2296 34.7367 23.6108 34.9455 23.2252 35.0555C22.7526 35.1871 22.2756 35.303 21.7951 35.4032C21.2819 35.5013 20.7658 35.5845 20.2477 35.6526C19.6696 35.7277 19.0163 35.757 18 35.757C16.9842 35.757 16.3304 35.7277 15.7523 35.6526C15.2341 35.5845 14.7181 35.5013 14.2049 35.4032C13.7244 35.303 13.2474 35.1871 12.7748 35.0555C12.3112 34.9192 11.8535 34.7644 11.4026 34.5917C10.8771 34.3771 10.3608 34.1412 9.85513 33.8845C9.3767 33.6413 8.6353 33.218 8.22052 32.9459C7.74326 32.6217 7.27593 32.2835 6.81913 31.9318C6.4633 31.6474 5.7913 31.039 5.32487 30.5751C4.85739 30.1117 4.23287 29.4334 3.92922 29.0682C3.63183 28.7031 3.15861 28.0602 2.88417 27.6488C2.604 27.2374 2.2247 26.6228 2.04365 26.2865C1.83529 25.8923 1.63868 25.4922 1.45409 25.0866C1.30174 24.7565 1.08574 24.1943 0.957391 23.8405C0.822401 23.4419 0.697838 23.0399 0.583826 22.635C0.501913 22.3337 0.379304 21.8122 0.31513 21.4758C0.231594 21.0237 0.159572 20.5696 0.0991304 20.114C0.0292174 19.575 0 18.9435 0 17.8825C0 16.8221 0.0292174 16.1905 0.0991304 15.651C0.151304 15.2396 0.250957 14.6255 0.31513 14.2892C0.379304 13.9529 0.501913 13.4314 0.583826 13.13C0.665739 12.8286 0.834783 12.284 0.957391 11.9302C1.08574 11.5712 1.30174 11.0091 1.45357 10.6841C1.59965 10.3539 1.86261 9.81491 2.04313 9.47857C2.59491 8.50278 3.22547 7.57235 3.9287 6.69628C4.3567 6.19576 4.8029 5.71065 5.26643 5.24188C5.73857 4.78233 6.22742 4.33976 6.732 3.91503C7.19469 3.55071 7.67176 3.2045 8.16209 2.8772C8.57687 2.59948 9.19513 2.22251 9.53426 2.04303C9.87287 1.86303 10.416 1.60228 10.7489 1.45725C11.0755 1.30657 11.6421 1.09211 11.9979 0.964569C12.3995 0.830769 12.8045 0.707299 13.2125 0.594283C13.657 0.482031 14.1049 0.383241 14.5555 0.298055C14.9875 0.222969 15.636 0.130397 15.9861 0.095426Z" fill="#393939"/>
<path d="M9.3585 11.1602C9.59798 11.0964 9.95433 11.0213 10.1463 10.992C10.3394 10.9627 10.7484 10.9396 11.0515 10.9339C11.3552 10.9339 11.8576 10.9689 12.1613 11.0095C12.4649 11.0558 12.9376 11.1715 13.2121 11.2702C13.4865 11.3685 13.9185 11.5829 14.1752 11.7511C14.4324 11.9136 14.8587 12.2613 15.1154 12.5164C15.3778 12.7771 15.7107 13.171 15.851 13.3912C15.9971 13.6118 16.2011 13.9651 16.3065 14.1739C16.4114 14.3822 16.5809 14.8116 16.6915 15.1305C16.7969 15.4488 16.9368 16.0228 17.0015 16.4049C17.0656 16.7875 17.1298 17.3846 17.1528 18.3756L12.1493 18.3931C8.20285 18.3988 7.13433 18.4219 7.11659 18.48C7.10511 18.515 7.11659 18.822 7.14581 19.1584C7.17502 19.4942 7.2512 19.9462 7.32111 20.1725C7.38528 20.3988 7.53711 20.7578 7.65398 20.9836C7.78807 21.2386 8.02181 21.54 8.2785 21.8013C8.58215 22.1026 8.80963 22.2703 9.1832 22.4503C9.45763 22.5892 9.82598 22.7342 10.0008 22.7861C10.1761 22.8324 10.6373 22.8905 11.0228 22.908C11.554 22.9312 11.8456 22.9198 12.2197 22.8442C12.5056 22.7861 12.9027 22.6591 13.1536 22.5311C13.437 22.3879 13.7001 22.2088 13.9362 21.9982C14.123 21.8239 14.3448 21.5632 14.4319 21.4186C14.5138 21.2736 14.6249 21.0304 14.7825 20.5783L15.8625 20.5665C16.4583 20.5547 16.9488 20.5547 16.9488 20.5665C16.9488 20.5721 16.8846 20.8159 16.7969 21.0998C16.6983 21.4279 16.5734 21.7478 16.4234 22.0564C16.2657 22.3412 16.084 22.6125 15.8802 22.8674C15.7107 23.0762 15.3783 23.395 15.1388 23.5864C14.8988 23.7715 14.543 24.0091 14.3505 24.1135C14.1051 24.2416 13.8515 24.354 13.5914 24.4499C13.3639 24.5306 12.9611 24.635 12.6867 24.6874C12.4122 24.7394 11.9161 24.7975 11.5775 24.8207C11.2383 24.8381 10.69 24.8207 10.3514 24.7857C9.98799 24.7449 9.62737 24.6831 9.27137 24.6005C8.95094 24.5142 8.63838 24.4017 8.33694 24.2642C8.04435 24.1265 7.76146 23.9696 7.49015 23.7946C7.21824 23.6049 6.96244 23.3937 6.72528 23.1631C6.51554 22.9543 6.23485 22.6241 6.1065 22.4328C5.93504 22.1704 5.77727 21.8995 5.63381 21.6213C5.48725 21.3205 5.36038 21.0108 5.25398 20.694C5.14541 20.3313 5.05383 19.9639 4.97954 19.5929C4.89815 19.1815 4.83972 18.6364 4.82198 18.0568C4.79902 17.3964 4.81676 16.9963 4.88615 16.5499C4.93885 16.2141 5.04998 15.7214 5.13137 15.4488C5.21902 15.1762 5.37137 14.7766 5.4705 14.5504C5.57485 14.3241 5.77937 13.9651 5.92546 13.7388C6.06581 13.5187 6.31676 13.171 6.47433 12.9741C6.63763 12.7709 6.98824 12.4408 7.26215 12.232C7.60035 11.9798 7.95994 11.7568 8.33694 11.5654C8.65781 11.4091 9.11954 11.2234 9.3585 11.1602ZM20.5159 14.2608C19.2022 12.4757 18.1336 10.9977 18.1514 10.9745V10.9689C18.1691 10.9457 18.8114 10.9277 20.9771 10.9277L21.1404 11.1484C21.2281 11.2702 21.9815 12.3657 22.8162 13.5825C23.651 14.7941 24.346 15.7908 24.3637 15.7908C24.3809 15.7908 25.175 14.6954 27.8667 10.9282H29.2096C30.2547 10.9282 30.5463 10.9457 30.5291 10.9977C30.5171 11.0383 29.4543 12.4814 28.1583 14.2027C26.0218 17.0482 25.8173 17.344 25.8815 17.4484C25.9216 17.5111 27.0689 19.0992 28.4458 21.0041L28.5147 21.0998C29.9161 23.0469 31.0837 24.6813 31.1009 24.7337C31.1359 24.832 31.0425 24.8381 28.2522 24.8088L26.3427 21.9982C25.2976 20.4502 24.4044 19.1872 24.3637 19.1872C24.3225 19.1872 23.435 20.4508 20.4809 24.8088L19.1265 24.8263C18.2505 24.832 17.7658 24.815 17.7658 24.78C17.7658 24.745 18.9105 23.1343 20.3056 21.1867C21.7013 19.2391 22.8632 17.6165 22.8804 17.5816C22.8982 17.5409 21.8354 16.0516 20.5159 14.2608Z" fill="white"/>
<path d="M9.5928 13.0897C9.82018 13.0062 10.0544 12.9422 10.293 12.8984C10.4683 12.8696 10.8538 12.8582 11.1398 12.8696C11.4257 12.887 11.8112 12.9333 11.9865 12.9853C12.1613 13.0316 12.4999 13.1653 12.7394 13.2866C12.9789 13.4085 13.3352 13.6518 13.5272 13.8318C13.7477 14.0324 13.9455 14.2559 14.1173 14.4983C14.2457 14.6834 14.4032 14.9848 14.4794 15.1592C14.5493 15.333 14.6485 15.6344 14.6954 15.8257C14.7424 16.0165 14.7945 16.2716 14.8467 16.6074H7.14062V16.4222C7.14062 16.3178 7.1928 16.0226 7.25697 15.7676C7.34121 15.4601 7.45476 15.1612 7.5961 14.8748C7.72445 14.614 7.96341 14.2782 8.19089 14.0344C8.40167 13.8143 8.7168 13.5417 8.8921 13.4317C9.06689 13.316 9.38254 13.1653 9.5928 13.0897Z" fill="#393939"/>
</g>
<defs>
<clipPath id="clip0_337_2965">
<rect width="36" height="36" fill="white"/>
</clipPath>
</defs>
</svg>
