<svg width="180" height="60" viewBox="0 0 180 60" fill="none" xmlns="http://www.w3.org/2000/svg">
<path d="M82.1816 37H79.2324V22.9082H88.4609V25.3398H82.1816V29.1191H87.9141V31.4531H82.1816V37ZM90.0137 37V26.5312H92.8652V37H90.0137ZM91.4395 25.3789C90.5801 25.3789 89.916 24.7246 89.916 23.9043C89.916 23.0742 90.5801 22.4297 91.4395 22.4297C92.2988 22.4297 92.9629 23.0742 92.9629 23.9043C92.9629 24.7246 92.2988 25.3789 91.4395 25.3789ZM99.6035 34.7734C101.029 34.7734 101.938 33.6406 101.938 31.7461C101.938 29.8613 101.029 28.6504 99.6035 28.6504C98.1973 28.6504 97.3086 29.8418 97.3086 31.7461C97.3086 33.6602 98.1875 34.7734 99.6035 34.7734ZM99.5547 40.9453C96.8008 40.9453 94.9355 39.6074 94.7109 37.7422H97.5039C97.7285 38.4648 98.5488 38.9629 99.6328 38.9629C101.107 38.9629 101.928 38.1426 101.928 36.9316V35.0957H101.869C101.381 36.209 100.15 36.9707 98.6367 36.9707C96.0781 36.9707 94.3887 34.998 94.3887 31.7266C94.3887 28.4062 96.0293 26.3652 98.6855 26.3652C100.189 26.3652 101.371 27.1562 101.918 28.3574H101.967V26.5312H104.779V36.8535C104.779 39.3535 102.689 40.9453 99.5547 40.9453ZM106.645 37V26.5312H109.398V28.4258H109.457C109.896 27.166 111.02 26.3359 112.445 26.3359C113.959 26.3359 115.014 27.1172 115.365 28.4844H115.424C115.893 27.166 117.143 26.3359 118.676 26.3359C120.727 26.3359 122.104 27.7422 122.104 29.8516V37H119.252V30.5645C119.252 29.3535 118.646 28.6895 117.543 28.6895C116.459 28.6895 115.746 29.4805 115.746 30.6426V37H113.002V30.4766C113.002 29.3535 112.367 28.6895 111.312 28.6895C110.229 28.6895 109.496 29.5098 109.496 30.6816V37H106.645ZM127.953 35.1055C129.193 35.1055 130.219 34.2949 130.219 33.1621V32.4004L128.012 32.5371C126.947 32.6152 126.342 33.0938 126.342 33.8359C126.342 34.6172 126.986 35.1055 127.953 35.1055ZM127.016 37.166C125.023 37.166 123.51 35.877 123.51 33.9922C123.51 32.0879 124.975 30.9844 127.582 30.8281L130.219 30.6719V29.9785C130.219 29.002 129.535 28.4355 128.461 28.4355C127.396 28.4355 126.723 28.9629 126.586 29.7344H123.979C124.086 27.7031 125.814 26.3066 128.588 26.3066C131.273 26.3066 133.021 27.6934 133.021 29.8027V37H130.268V35.3984H130.209C129.623 36.5117 128.324 37.166 127.016 37.166Z" fill="black"/>
<mask id="mask0_617_3054" style="mask-type:luminance" maskUnits="userSpaceOnUse" x="32" y="10" width="40" height="40">
<path d="M72 10H32V50H72V10Z" fill="white"/>
</mask>
<g mask="url(#mask0_617_3054)">
<mask id="mask1_617_3054" style="mask-type:luminance" maskUnits="userSpaceOnUse" x="32" y="10" width="40" height="40">
<path d="M72 10H32V50H72V10Z" fill="white"/>
</mask>
<g mask="url(#mask1_617_3054)">
<path d="M45.3346 50.0001C49.0146 50.0001 52.0013 47.0135 52.0013 43.3335V36.6667H45.3346C41.6546 36.6667 38.668 39.6535 38.668 43.3335C38.668 47.0135 41.6546 50.0001 45.3346 50.0001Z" fill="#0ACF83"/>
<path d="M38.668 29.9999C38.668 26.3199 41.6546 23.3333 45.3346 23.3333H52.0013V36.6666H45.3346C41.6546 36.6666 38.668 33.6799 38.668 29.9999Z" fill="#A259FF"/>
<path d="M38.668 16.6667C38.668 12.9867 41.6546 10 45.3346 10H52.0013V23.3334H45.3346C41.6546 23.3334 38.668 20.3466 38.668 16.6667Z" fill="#F24E1E"/>
<path d="M52.001 10H58.6676C62.3476 10 65.3343 12.9867 65.3343 16.6667C65.3343 20.3466 62.3476 23.3334 58.6676 23.3334H52.001V10Z" fill="#FF7262"/>
<path d="M65.3343 29.9999C65.3343 33.6799 62.3476 36.6666 58.6676 36.6666C54.9876 36.6666 52.001 33.6799 52.001 29.9999C52.001 26.3199 54.9876 23.3333 58.6676 23.3333C62.3476 23.3333 65.3343 26.3199 65.3343 29.9999Z" fill="#1ABCFE"/>
</g>
</g>
</svg>
