<svg width="100" height="50" viewBox="0 0 100 50" fill="none" xmlns="http://www.w3.org/2000/svg">
<mask id="mask0_333_2530" style="mask-type:luminance" maskUnits="userSpaceOnUse" x="3" y="7" width="28" height="35">
<path d="M30.568 22.9762L21.5242 32.0249L30.568 41.0724H20.2323L11.1848 32.0249L20.2323 22.9768L30.568 22.9762ZM20.2323 7.47119L3.43359 24.2706L8.60297 29.4393L30.568 7.47182L20.2323 7.47119Z" fill="white"/>
</mask>
<g mask="url(#mask0_333_2530)">
<path d="M16.3538 37.1936L30.5681 22.9761H20.2325L11.1875 32.0248L16.3538 37.1942V37.1936Z" fill="#39CEFD"/>
</g>
<mask id="mask1_333_2530" style="mask-type:luminance" maskUnits="userSpaceOnUse" x="3" y="7" width="28" height="35">
<path d="M30.568 22.9762L21.5242 32.0249L30.568 41.0724H20.2323L11.1848 32.0249L20.2323 22.9768L30.568 22.9762ZM20.2323 7.47119L3.43359 24.2706L8.60297 29.4393L30.568 7.47182L20.2323 7.47119Z" fill="white"/>
</mask>
<g mask="url(#mask1_333_2530)">
<path d="M3.43359 24.2706L20.2323 7.47119H30.568L8.60297 29.4399L3.43359 24.2706Z" fill="#39CEFD"/>
</g>
<mask id="mask2_333_2530" style="mask-type:luminance" maskUnits="userSpaceOnUse" x="3" y="7" width="28" height="35">
<path d="M30.568 22.9762L21.5242 32.0249L30.568 41.0724H20.2323L11.1848 32.0249L20.2323 22.9768L30.568 22.9762ZM20.2323 7.47119L3.43359 24.2706L8.60297 29.4393L30.568 7.47182L20.2323 7.47119Z" fill="white"/>
</mask>
<g mask="url(#mask2_333_2530)">
<path d="M20.2323 41.0689H30.5673L21.5229 32.0239L16.3535 37.1933L20.2323 41.0689Z" fill="#03569B"/>
</g>
<mask id="mask3_333_2530" style="mask-type:luminance" maskUnits="userSpaceOnUse" x="3" y="7" width="28" height="35">
<path d="M30.568 22.9762L21.5242 32.0249L30.568 41.0724H20.2323L11.1848 32.0249L20.2323 22.9768L30.568 22.9762ZM20.2323 7.47119L3.43359 24.2706L8.60297 29.4393L30.568 7.47182L20.2323 7.47119Z" fill="white"/>
</mask>
<g mask="url(#mask3_333_2530)">
<path d="M21.5229 32.0249L16.3535 37.1937L24.0204 34.5374L21.5229 32.0249Z" fill="url(#paint0_linear_333_2530)"/>
</g>
<mask id="mask4_333_2530" style="mask-type:luminance" maskUnits="userSpaceOnUse" x="3" y="7" width="28" height="35">
<path d="M30.568 22.9762L21.5242 32.0249L30.568 41.0724H20.2323L11.1848 32.0249L20.2323 22.9768L30.568 22.9762ZM20.2323 7.47119L3.43359 24.2706L8.60297 29.4393L30.568 7.47182L20.2323 7.47119Z" fill="white"/>
</mask>
<g mask="url(#mask4_333_2530)">
<path d="M11.1865 32.0228L16.3565 26.854L21.5259 32.0228L16.3565 37.1928L11.1865 32.0228Z" fill="#16B9FD"/>
</g>
<path d="M30.5689 22.9762L21.5252 32.0249L30.5689 41.0724H20.2333L11.1858 32.0249L20.2333 22.9768L30.5689 22.9762ZM20.2333 7.47119L3.43457 24.2706L8.60395 29.4393L30.5689 7.47182L20.2333 7.47119Z" fill="url(#paint1_radial_333_2530)"/>
<path d="M33.8496 16.478H42.8834V18.2449H35.6834V23.5899H42.1834V25.3349H35.6834V32.0974H33.8496V16.478ZM45.0684 16.478H46.9234V32.098H45.0684V16.478ZM53.7059 32.4468C52.3684 32.4468 51.3409 32.0549 50.6227 31.2693C49.9296 30.4787 49.5834 29.3805 49.5834 27.9749V20.9724H51.4371V27.6912C51.4371 28.7474 51.6771 29.5249 52.1571 30.0249C52.6371 30.5249 53.2846 30.7749 54.099 30.7749C54.724 30.7749 55.2802 30.6074 55.7652 30.273C56.2561 29.9494 56.6484 29.4968 56.899 28.9649C57.1752 28.4262 57.3127 27.8587 57.3127 27.263V20.9799H59.1665V32.1049H57.3996V30.483H57.3121C57.0065 31.0362 56.5196 31.5018 55.8509 31.8793C55.1999 32.2522 54.4623 32.4474 53.7121 32.4455L53.7059 32.4468ZM66.3027 32.273C65.8714 32.2765 65.443 32.2027 65.0377 32.0549C64.6824 31.9229 64.3562 31.7227 64.0777 31.4655C63.7919 31.1973 63.5685 30.8696 63.4234 30.5055C63.2784 30.1424 63.2052 29.6993 63.2052 29.1749V22.6524H61.2634V20.9724H63.2052V17.8305H65.0596V20.9724H67.7646V22.6524H65.0596V28.7174C65.0596 29.3287 65.1759 29.7799 65.4096 30.0699C65.6859 30.3899 66.0859 30.5499 66.6096 30.5499C67.0315 30.5499 67.439 30.4262 67.8309 30.1793V31.9899C67.6127 32.0918 67.3871 32.1649 67.1546 32.2087C66.9359 32.2524 66.6527 32.2749 66.3046 32.2749L66.3027 32.273ZM74.1665 32.273C73.7352 32.2765 73.3067 32.2027 72.9015 32.0549C72.5461 31.9229 72.22 31.7227 71.9415 31.4655C71.6557 31.1973 71.4323 30.8696 71.2871 30.5055C71.1421 30.1424 71.069 29.6993 71.069 29.1749V22.6524H69.1271V20.9724H71.069V17.8305H72.9234V20.9724H75.6284V22.6524H72.9234V28.7174C72.9234 29.3287 73.0396 29.7799 73.2734 30.0699C73.5496 30.3899 73.9496 30.5499 74.4734 30.5499C74.8952 30.5499 75.3027 30.4262 75.6946 30.1793V31.9899C75.4765 32.0918 75.2509 32.1649 75.0184 32.2087C74.7996 32.2524 74.5165 32.2749 74.1684 32.2749L74.1665 32.273ZM82.3334 32.4474C81.2777 32.4474 80.3252 32.193 79.4752 31.6843C78.6315 31.1749 77.9702 30.4774 77.4902 29.5899C77.0246 28.688 76.7915 27.6774 76.7915 26.5568C76.7915 25.4805 77.0096 24.4918 77.4459 23.5899C77.8971 22.688 78.5296 21.968 79.344 21.4299C80.1584 20.8912 81.104 20.6218 82.1802 20.6218C83.2702 20.6218 84.2159 20.8718 85.0159 21.3718C85.8159 21.8518 86.4271 22.5205 86.849 23.378C87.2852 24.2368 87.5034 25.218 87.5034 26.323C87.5034 26.5418 87.4809 26.7305 87.4365 26.8899H78.6452C78.6896 27.7337 78.8927 28.4462 79.2559 29.028C79.619 29.6099 80.0777 30.0462 80.6309 30.3368C81.1761 30.6224 81.7822 30.7721 82.3977 30.773C83.8227 30.773 84.9209 30.1043 85.6915 28.7668L87.2627 29.5299C86.7827 30.4318 86.1277 31.1443 85.299 31.668C84.4846 32.1918 83.4959 32.453 82.3327 32.453L82.3334 32.4474ZM85.5402 25.3574C85.5109 24.8918 85.3802 24.4262 85.1484 23.9618C84.9152 23.4962 84.544 23.103 84.0359 22.783C83.5359 22.463 82.9109 22.303 82.1609 22.303C81.2884 22.303 80.5471 22.5868 79.9359 23.153C79.3396 23.7062 78.9471 24.4405 78.7577 25.3568H85.5427L85.5402 25.3574ZM89.6515 20.9724H91.4184V22.7618H91.5059C91.724 22.1505 92.1459 21.6493 92.7709 21.2568C93.3965 20.8493 94.0509 20.6455 94.734 20.6455C95.2427 20.6455 95.679 20.7187 96.0427 20.8643V22.8705C95.5771 22.6374 95.0534 22.5205 94.4715 22.5205C93.9327 22.5205 93.4384 22.6737 92.9884 22.9793C92.5371 23.2843 92.1759 23.6993 91.9052 24.2224C91.6423 24.7384 91.5078 25.3102 91.5134 25.8893V32.1055H89.659V20.9805L89.6515 20.9724Z" fill="#808080"/>
<defs>
<linearGradient id="paint0_linear_333_2530" x1="17.8623" y1="38.1911" x2="21.7123" y2="34.3411" gradientUnits="userSpaceOnUse">
<stop stop-color="#1A237E" stop-opacity="0.4"/>
<stop offset="1" stop-color="#1A237E" stop-opacity="0"/>
</linearGradient>
<radialGradient id="paint1_radial_333_2530" cx="0" cy="0" r="1" gradientUnits="userSpaceOnUse" gradientTransform="translate(4.19707 9.76182) scale(41.1068)">
<stop stop-color="white" stop-opacity="0.1"/>
<stop offset="1" stop-color="white" stop-opacity="0"/>
</radialGradient>
</defs>
</svg>
