<svg width="122" height="33" viewBox="0 0 122 33" fill="none" xmlns="http://www.w3.org/2000/svg">
<path d="M25.1858 24.4097C25.5242 24.4097 25.6411 24.3297 25.8011 24.0528C25.9611 23.7759 25.8873 23.3267 25.8811 23.2098C25.8688 22.939 25.7765 22.6437 25.7642 22.496C25.7642 22.4037 25.7642 21.8191 25.7765 21.5853C25.9796 17.801 27.6041 16.9026 28.0717 16.8041C28.3732 16.718 28.6932 16.7364 28.9763 16.8656V11.0815V11.0015V9.46929C28.9763 8.63243 28.3794 7.60481 27.6594 7.18638L15.8019 0.319211C15.0696 -0.105372 13.8759 -0.105372 13.1621 0.313057L1.31682 7.15562C0.590724 7.57405 0 8.60166 0 9.43852V10.9338C0 10.9399 0 10.9523 0 10.9584V13.1429C0.0676872 13.1798 0.135374 13.2228 0.203061 13.2659C0.430736 13.4198 0.658412 13.4997 0.89224 13.6597C1.55065 14.0597 2.16599 14.5335 2.71979 15.075C2.83056 15.1796 3.18745 15.635 3.2736 15.7396C3.53819 16.1026 3.8274 16.4349 4.15353 16.7426C4.33198 16.9026 4.52889 17.0502 4.7381 17.1672C5.08884 17.3456 5.66111 17.3087 5.95647 17.1795C8.21476 16.2011 9.63004 16.6934 10.2823 17.0872C11.9006 18.0594 12.436 19.4131 12.6083 21.0623C12.6329 21.2776 12.639 21.493 12.6267 21.7022C12.6267 22.096 12.6144 22.7237 13.0267 22.8283C13.6174 22.9821 13.7651 22.3483 13.8513 21.9299C14.0482 20.9761 15.3158 20.3546 16.2449 20.8346C16.8849 21.1669 17.1433 21.3515 17.7771 21.0746C18.5647 20.7238 18.977 19.8377 19.2539 19.3639C19.5247 18.9024 19.9185 18.5271 20.3923 18.2809C21.623 17.5118 24.7243 17.7087 24.8412 21.1299C24.8412 21.3145 24.8412 21.7884 24.8412 22.0776C24.8412 22.4037 24.8535 22.7237 24.8289 23.0559C24.8166 23.2775 24.7735 23.5113 24.755 23.7451C24.755 23.739 24.6381 24.4097 25.1858 24.4097Z" fill="#E4A663"/>
<path d="M28.976 16.8657C28.8898 16.8411 28.6498 16.6811 28.0776 16.8041C27.6099 16.9087 25.9854 17.8071 25.7824 21.5853C25.7701 21.8191 25.7639 22.4037 25.7701 22.496C25.7824 22.6498 25.8747 22.9452 25.887 23.2098C25.887 23.3329 25.9793 23.7759 25.807 24.0528C25.6347 24.3359 25.5301 24.4097 25.1916 24.4097C24.644 24.4097 24.7609 23.739 24.7609 23.739C24.7794 23.5113 24.8224 23.2836 24.8347 23.0498C24.8532 22.7114 24.847 22.3976 24.847 22.0714C24.847 21.7822 24.847 21.3084 24.847 21.1238C24.7363 17.7087 21.635 17.5056 20.3982 18.2748C19.9243 18.5271 19.5305 18.8963 19.2598 19.3578C18.9829 19.8316 18.5768 20.7177 17.783 21.0684C17.1492 21.3453 16.8907 21.1607 16.2508 20.8284C15.3216 20.3485 14.054 20.9761 13.8571 21.9237C13.771 22.3422 13.6233 22.976 13.0326 22.8221C12.6203 22.7175 12.6326 22.0899 12.6326 21.6961C12.6387 21.4807 12.6326 21.2653 12.6141 21.0561C12.4418 19.407 11.9003 18.0533 10.2882 17.081C9.6359 16.6872 8.22062 16.1949 5.96233 17.1733C5.66081 17.3026 5.08855 17.3456 4.74396 17.161C4.53475 17.0441 4.33784 16.9026 4.15939 16.7364C3.83326 16.4288 3.54405 16.0903 3.27946 15.7334C3.19331 15.6288 2.83026 15.1735 2.72565 15.0689C2.17185 14.5335 1.55651 14.0597 0.898099 13.6536C0.664271 13.4998 0.442749 13.4013 0.20892 13.2598C0.141233 13.2167 0.0735465 13.1798 0.00585938 13.1367V23.136C0.00585938 23.9728 0.602737 25.0004 1.32268 25.4189L13.1679 32.2737C13.894 32.6922 15.0816 32.6922 15.8016 32.2737L27.6591 25.4312C28.3852 25.0127 28.976 23.9851 28.976 23.1483V16.8657Z" fill="#5E464D"/>
<path d="M15.993 15.1858C15.1746 15.6597 13.8331 15.6597 13.0147 15.1858L0.892578 8.79248C1.02795 8.92785 13.187 15.9919 13.187 15.9919C13.9131 16.4104 15.1007 16.4104 15.8207 15.9919C15.8207 15.9919 27.9613 8.95247 28.0967 8.81709L15.993 15.1858Z" fill="white"/>
<path d="M12.9957 1.22997C13.8141 0.762314 15.1555 0.762314 15.9801 1.22997L17.4508 1.83916C17.3154 1.70378 15.8078 0.731547 15.8078 0.731547C15.0817 0.313117 13.9003 0.313117 13.1742 0.731547C13.1742 0.731547 10.7743 2.14067 10.6328 2.27605L12.9957 1.22997Z" fill="white"/>
<path d="M50.9202 19.6823C50.3218 20.5133 49.5738 21.2114 48.7262 21.7433C47.9283 22.2253 47.0142 22.4747 46.0834 22.4747C45.1858 22.4913 44.2883 22.2752 43.5071 21.843C42.7425 21.4109 42.0777 20.7959 41.5956 20.048C41.0471 19.2003 40.6482 18.2529 40.4155 17.2556C40.133 16.0589 40 14.8455 40 13.6155C40 12.6349 40.1163 11.6708 40.3158 10.7068C40.5319 9.70953 40.8477 8.7455 41.2632 7.83133C41.6787 6.90054 42.1774 6.00299 42.7758 5.17193C43.3409 4.35749 44.0223 3.62615 44.7869 3.01117C45.5349 2.39618 46.3826 1.89755 47.2801 1.5485C48.2109 1.18283 49.2082 1 50.2054 1C50.7373 1 51.2692 1.08311 51.7845 1.24932C52.2499 1.39891 52.682 1.63161 53.0477 1.94741C53.3967 2.26322 53.6793 2.62888 53.8621 3.06103C54.0782 3.52642 54.1779 4.02507 54.1779 4.54032C54.1779 5.05558 54.0782 5.57084 53.8787 6.03624C53.6793 6.51825 53.4134 6.98365 53.0976 7.39918C52.7651 7.83134 52.3662 8.23024 51.9341 8.57929C51.5019 8.92833 51.0531 9.22752 50.5545 9.49346C50.0891 9.74277 49.5905 9.94223 49.0918 10.0752C48.6264 10.2082 48.1444 10.2747 47.6458 10.2913C47.2967 10.2913 46.9477 10.1749 46.6817 9.95885C46.3826 9.69291 46.233 9.31063 46.2662 8.92834C46.2662 8.81199 46.2662 8.71226 46.2828 8.59591C46.2995 8.47957 46.3161 8.37984 46.3493 8.26349C46.3659 8.18038 46.4158 8.08065 46.449 7.99754C46.4823 7.93106 46.5322 7.89782 46.5986 7.89782C46.6485 7.89782 46.6984 7.91444 46.7482 7.94768C46.7981 7.98092 46.8646 8.01416 46.9311 8.04741C47.0308 8.08065 47.1305 8.1139 47.2469 8.14714C47.4297 8.18038 47.6125 8.197 47.7954 8.197C48.2441 8.18038 48.6763 8.08065 49.0752 7.89782C49.524 7.69836 49.9561 7.43242 50.3384 7.11662C50.7207 6.80082 51.0531 6.43515 51.3191 6.00299C51.5684 5.60408 51.7014 5.15532 51.7014 4.68992C51.7014 4.50709 51.6681 4.32425 51.6016 4.15804C51.5352 3.95858 51.4188 3.79236 51.2858 3.64277C51.1196 3.45994 50.9202 3.32697 50.7041 3.22724C50.4215 3.11089 50.1057 3.06103 49.8065 3.06103C49.1583 3.06103 48.5101 3.194 47.9117 3.47656C47.2801 3.77574 46.6984 4.17466 46.1997 4.67329C45.6512 5.20517 45.1526 5.80354 44.7371 6.45177C44.2883 7.13324 43.906 7.86457 43.6068 8.62915C43.291 9.42697 43.0583 10.2414 42.8921 11.0891C42.7259 11.9035 42.6428 12.7512 42.6262 13.5823C42.6095 14.5131 42.7093 15.4439 42.8921 16.358C43.0417 17.0894 43.291 17.7875 43.6401 18.4523C43.906 18.9676 44.2883 19.433 44.7703 19.782C45.1692 20.0812 45.6678 20.2474 46.1665 20.2474C46.6651 20.2474 47.1638 20.1477 47.6292 19.9482C48.0613 19.7488 48.4768 19.4828 48.8259 19.167C49.1916 18.818 49.5074 18.4357 49.7567 18.0035C50.0226 17.5714 50.2387 17.1226 50.4215 16.6572C50.6044 16.2084 50.7373 15.743 50.8371 15.2776C50.9202 14.8621 50.97 14.43 50.97 14.0144C50.97 13.8482 50.9534 13.682 50.9368 13.5158C50.9202 13.3662 50.9035 13.2166 50.9035 13.0837C50.9035 12.9673 50.9202 12.8676 50.9866 12.7678C51.0365 12.6847 51.1196 12.6349 51.2027 12.6016C51.3025 12.5684 51.4188 12.5351 51.5185 12.5351C51.6349 12.5351 51.7678 12.5351 51.9008 12.5351C52.067 12.5351 52.2332 12.5684 52.3828 12.6182C52.5657 12.6681 52.7485 12.7512 52.9147 12.851C53.0643 12.9341 53.2139 13.0504 53.3302 13.2C53.4466 13.3163 53.4965 13.4493 53.5131 13.6155C53.43 14.3801 53.3801 15.1114 53.3635 15.8095C53.3469 16.5076 53.3302 17.2057 53.3302 17.9204C53.3302 18.6351 53.3302 19.2834 53.3302 19.9981C53.3302 20.7128 53.3302 21.5106 53.3302 22.3916C53.6294 22.3417 53.912 22.3084 54.1945 22.2918L54.9924 22.242C55.358 22.242 55.5907 22.3251 55.7071 22.5578C55.8234 22.8071 55.8401 23.073 55.757 23.3223C55.6738 23.6215 55.5243 23.8875 55.3248 24.1202C55.142 24.3362 54.876 24.4858 54.5935 24.5024C54.3608 24.5024 54.1447 24.5024 53.9286 24.5024C53.7125 24.5024 53.5131 24.5191 53.2804 24.5523C53.2471 25.0842 53.1973 25.6327 53.1474 26.1812C53.0809 26.7131 52.9812 27.245 52.8482 27.7768C52.7153 28.2755 52.5324 28.7575 52.3163 29.2229C52.1003 29.655 51.8343 30.0539 51.5019 30.403C51.1695 30.7354 50.7706 31.018 50.3218 31.2008C49.8065 31.4003 49.258 31.5 48.7095 31.5C48.2109 31.5 47.7289 31.4169 47.2635 31.2507C46.8646 31.0845 46.4989 30.8518 46.1997 30.5526C45.9005 30.2534 45.6512 29.8877 45.5016 29.4888C45.3354 29.0567 45.2523 28.6079 45.2523 28.1591C45.2357 27.4776 45.4019 26.8128 45.7343 26.2311C46.0668 25.6659 46.4989 25.1507 47.0308 24.7518C47.5959 24.303 48.2109 23.9373 48.8757 23.6714C49.5738 23.3722 50.2719 23.1229 51.0033 22.9234V22.6409C51.0033 22.0259 51.0033 21.494 50.97 21.012C50.9368 20.53 50.9202 20.0313 50.9202 19.6823ZM48.7926 29.2229C49.1251 29.2229 49.4409 29.1065 49.6902 28.8738C49.9561 28.6079 50.1722 28.2921 50.3052 27.9264C50.488 27.4943 50.621 27.0289 50.7041 26.5801C50.8038 26.0316 50.8703 25.4831 50.9035 24.9346C50.0226 25.1507 49.1916 25.5662 48.5101 26.1646C47.9782 26.63 47.679 27.3114 47.6956 28.0095C47.6125 28.5913 48.0114 29.1398 48.5932 29.2395C48.6763 29.2561 48.7428 29.2561 48.8259 29.2561L48.7926 29.2229Z" fill="#5E464D"/>
<path d="M64.9653 20.2474C65.2645 20.2474 65.5637 20.1477 65.7798 19.9482C66.0125 19.7155 66.2285 19.4662 66.3781 19.167C66.5444 18.8512 66.6939 18.5188 66.7937 18.1698C66.8934 17.8041 66.9931 17.4717 67.0596 17.1559C67.0929 16.9232 67.2092 16.6905 67.3754 16.5076C67.4918 16.3747 67.658 16.3082 67.8242 16.3082C67.9572 16.3082 68.0901 16.3414 68.2065 16.4079C68.4724 16.5575 68.6885 16.7902 68.8215 17.0728C68.888 17.2057 68.9212 17.3387 68.9212 17.4883V17.5548C68.9212 17.6046 68.9046 17.6379 68.888 17.6711C68.7384 18.1698 68.5722 18.6684 68.3561 19.1504C68.1234 19.6657 67.8408 20.1477 67.4752 20.5798C67.1095 21.012 66.6773 21.3777 66.1787 21.6602C65.6468 21.9594 65.0318 22.109 64.4168 22.0924C63.9182 22.109 63.4196 21.9926 62.9708 21.7766C62.5885 21.5771 62.2561 21.2945 62.0068 20.9289C61.6743 21.2613 61.292 21.5439 60.8599 21.7433C60.3779 21.976 59.846 22.0924 59.3141 22.0924C58.7656 22.109 58.2005 21.9926 57.7019 21.7599C57.2531 21.5439 56.8542 21.2447 56.5384 20.8458C56.2059 20.4469 55.9732 19.9815 55.8237 19.4828C55.6574 18.9343 55.5743 18.3692 55.591 17.8041C55.5743 16.7071 55.7904 15.6267 56.2226 14.6294C56.6048 13.7153 57.17 12.9008 57.8847 12.2193C58.5662 11.5545 59.3806 11.0392 60.2615 10.6902C61.1424 10.3411 62.0899 10.1583 63.0373 10.1583C63.4029 10.1417 63.7852 10.258 64.0844 10.4741C64.3504 10.6736 64.5166 11.006 64.4999 11.3384C64.5166 11.5046 64.4833 11.6875 64.4168 11.8537C64.3504 11.9534 64.234 12.0199 64.101 12.0033C63.9514 12.0033 63.8019 11.9866 63.6523 11.9866C63.5027 11.97 63.3365 11.9534 63.1869 11.9534C62.5719 11.9534 61.9569 12.0864 61.3918 12.3025C60.7768 12.5518 60.2117 12.9174 59.7463 13.3828C59.2144 13.9147 58.7989 14.5297 58.5163 15.2278C58.1839 16.0755 58.0177 16.9896 58.0343 17.9038C58.001 18.5188 58.1672 19.1338 58.5163 19.6324C58.8321 20.0313 59.2975 20.2474 59.7961 20.2142C60.195 20.2308 60.5939 20.0646 60.8599 19.782C61.1424 19.4828 61.3751 19.1338 61.5414 18.7515V14.3635C61.5414 14.2471 61.5414 14.1308 61.5414 14.0144C61.5247 13.9313 61.5081 13.8482 61.4915 13.7817C61.4915 13.7153 61.4583 13.6654 61.4583 13.6155C61.4583 13.5657 61.4583 13.5158 61.4583 13.4659C61.4583 13.3163 61.558 13.1834 61.691 13.1169C61.8572 13.0338 62.0566 12.9839 62.2561 12.9839C62.7048 12.9673 63.137 13.0836 63.486 13.3496C63.7686 13.549 63.9348 13.8815 63.9348 14.2139V18.9177C63.9348 19.0673 63.9514 19.2335 64.0013 19.3831C64.0345 19.5327 64.101 19.6657 64.1841 19.7986C64.367 20.0646 64.6828 20.2308 64.9986 20.2142L64.9653 20.2474Z" fill="#5E464D"/>
<path d="M67.1925 11.8537C67.2092 11.6542 67.1759 11.4548 67.126 11.2719C67.0762 11.1722 67.0596 11.0559 67.0596 10.9395C67.0762 10.7899 67.1593 10.657 67.3089 10.5905C67.4917 10.5074 67.6912 10.4575 67.8906 10.4575C68.3394 10.4409 68.7716 10.5572 69.1206 10.8232C69.4032 11.0392 69.5694 11.355 69.5694 11.7041V12.9839C69.7688 12.6016 70.0015 12.2194 70.2675 11.8703C70.5168 11.5379 70.7827 11.2387 71.0819 10.9728C71.3645 10.7234 71.6803 10.524 72.0127 10.3744C72.3451 10.2248 72.7274 10.1583 73.0931 10.1583C73.5419 10.1417 73.974 10.2248 74.3729 10.4243C74.6887 10.5905 74.9713 10.8232 75.1707 11.1057C75.3702 11.3883 75.5032 11.7041 75.5863 12.0365C75.6694 12.3689 75.7026 12.7014 75.7026 13.0338V18.9343C75.7026 19.0008 75.7026 19.1006 75.7026 19.2501C75.7192 19.3997 75.7359 19.5493 75.7857 19.6823C75.8356 19.8319 75.9187 19.9649 76.0184 20.0646C76.1348 20.1809 76.3176 20.2474 76.4838 20.2308C76.783 20.2308 77.0822 20.1311 77.2983 19.9316C77.531 19.6989 77.7304 19.4496 77.88 19.1504C78.0462 18.8346 78.1958 18.5022 78.2955 18.1531C78.3953 17.7875 78.495 17.455 78.5615 17.1392C78.5947 16.8899 78.6944 16.6739 78.8607 16.491C78.977 16.3747 79.1432 16.2916 79.3094 16.2916C79.4424 16.2916 79.5754 16.3248 79.6917 16.3913C79.8247 16.4578 79.941 16.5575 80.0574 16.6572C80.1571 16.7736 80.2568 16.8899 80.3233 17.0395C80.3898 17.1725 80.4231 17.3055 80.4231 17.4551V17.5215C80.4231 17.5714 80.4064 17.6046 80.3898 17.6379C80.2402 18.1531 80.074 18.6518 79.8579 19.1338C79.6252 19.6491 79.3261 20.1311 78.977 20.5632C78.6113 20.9954 78.1792 21.361 77.6805 21.6436C77.1487 21.9428 76.5337 22.0924 75.9187 22.0758C75.5364 22.0758 75.1541 22.0093 74.8051 21.8597C74.4893 21.7267 74.2233 21.5273 73.9906 21.2779C73.7579 21.0286 73.5917 20.7461 73.4754 20.4303C73.359 20.0978 73.2925 19.7488 73.2925 19.3997V13.682C73.2925 13.4493 73.2925 13.2499 73.2925 13.0504C73.2759 12.8842 73.2593 12.7014 73.2094 12.5352C73.1762 12.4022 73.1097 12.2858 73.01 12.1861C72.9102 12.0864 72.7773 12.0531 72.6443 12.0531C72.3285 12.103 72.0459 12.236 71.8299 12.4687C71.4642 12.7845 71.1318 13.1501 70.8658 13.5491C70.5334 14.0145 70.2675 14.5297 70.0514 15.045C69.8187 15.5769 69.6691 16.142 69.6026 16.7237V20.879C69.6026 21.012 69.6026 21.1616 69.6026 21.2946C69.6026 21.4275 69.5694 21.5605 69.5029 21.6768C69.453 21.7932 69.3533 21.8929 69.237 21.976C69.0874 22.0591 68.9045 22.109 68.7217 22.0924C68.5555 22.0924 68.3893 22.0758 68.2231 22.0425C68.0568 22.0093 67.8906 21.9594 67.741 21.8597C67.5914 21.7766 67.4585 21.6436 67.3754 21.4774C67.2756 21.2779 67.2092 21.0619 67.2258 20.8292L67.1925 11.8537Z" fill="#5E464D"/>
<path d="M87.3374 20.2474C87.6366 20.2474 87.9358 20.1477 88.1519 19.9482C88.3846 19.7321 88.6006 19.4662 88.7502 19.1836C88.9165 18.8678 89.066 18.5354 89.1658 18.1863C89.2655 17.8207 89.3652 17.4883 89.4317 17.1725C89.4649 16.9398 89.5813 16.7071 89.7475 16.5242C89.8639 16.3912 90.0301 16.3248 90.1963 16.3248C90.3293 16.3248 90.4622 16.358 90.5786 16.4245C90.8445 16.5741 91.0606 16.7902 91.1936 17.0727C91.26 17.2057 91.2933 17.3387 91.2933 17.4883V17.5547C91.2933 17.6046 91.2767 17.6378 91.26 17.6711C91.1105 18.1863 90.9276 18.685 90.7115 19.167C90.4788 19.6823 90.1963 20.1643 89.8306 20.5964C89.465 21.0286 89.0328 21.3942 88.5342 21.6768C88.0023 21.976 87.3873 22.1256 86.7723 22.109C86.2737 22.1256 85.775 22.0092 85.3263 21.7932C84.944 21.5937 84.6115 21.3111 84.3622 20.9455C84.0298 21.2779 83.6475 21.5605 83.2154 21.7599C82.7333 21.9926 82.2015 22.109 81.6696 22.109C81.1211 22.1256 80.556 22.0092 80.0573 21.7765C79.6086 21.5605 79.2096 21.2613 78.8938 20.8624C78.5614 20.4635 78.3287 19.9981 78.1791 19.4994C78.0129 18.9509 77.9298 18.3858 77.9464 17.8207C77.9298 16.7237 78.1459 15.6433 78.578 14.646C78.9603 13.7318 79.5254 12.9174 80.2235 12.2359C80.905 11.5711 81.7194 11.0558 82.6004 10.7068C83.4813 10.3577 84.4287 10.1749 85.3761 10.1749C85.7418 10.1583 86.1241 10.2746 86.4233 10.4907C86.6892 10.6902 86.8554 11.0226 86.8388 11.355C86.8554 11.5212 86.8222 11.7041 86.7557 11.8703C86.6892 11.97 86.5728 12.0365 86.4399 12.0199C86.2903 12.0199 86.1407 12.0032 85.9911 12.0032C85.8415 11.9866 85.6753 11.97 85.5257 11.97C84.9107 11.97 84.2957 12.103 83.7306 12.319C83.1156 12.5684 82.5505 12.934 82.0851 13.3994C81.5699 13.9313 81.1543 14.5629 80.8718 15.2444C80.5393 16.0921 80.3731 17.0062 80.3897 17.9204C80.3565 18.5354 80.5227 19.1504 80.8718 19.649C81.1876 20.0479 81.6696 20.2806 82.1682 20.2474C82.5671 20.264 82.966 20.0978 83.232 19.8152C83.5145 19.5161 83.7472 19.167 83.9134 18.7847V14.3801C83.9134 14.2637 83.9134 14.1474 83.9134 14.031C83.8968 13.9479 83.8802 13.8648 83.8636 13.7983C83.847 13.7319 83.8303 13.682 83.8303 13.6321C83.8303 13.5823 83.8303 13.5324 83.8303 13.4825C83.8303 13.3329 83.9301 13.2 84.063 13.1335C84.2459 13.0338 84.4287 13.0005 84.6282 13.0005C85.0769 12.9839 85.5091 13.1002 85.8581 13.3662C86.1407 13.5656 86.3069 13.8981 86.3235 14.2471V18.9509C86.3235 19.1005 86.3402 19.2667 86.39 19.4163C86.4233 19.5659 86.4897 19.6989 86.5728 19.8319C86.7557 20.0978 87.0715 20.264 87.3873 20.2474H87.3374Z" fill="#5E464D"/>
<path d="M94.5838 22.1256C93.9023 22.1256 93.2209 22.0092 92.5727 21.7765C91.9244 21.5438 91.3427 21.1948 90.844 20.746C90.3288 20.2806 89.9132 19.6989 89.6307 19.0673C89.3149 18.3359 89.1653 17.5381 89.1819 16.7403C89.1819 15.9259 89.3149 15.1114 89.5642 14.3302C89.7969 13.5823 90.1626 12.8675 90.6113 12.2193C91.0435 11.6209 91.592 11.1057 92.2236 10.7234C92.8386 10.3411 93.5533 10.1583 94.2846 10.1583C94.7667 10.1417 95.232 10.2414 95.6642 10.4575C96.0132 10.6403 96.329 10.873 96.5784 11.1722C96.8111 11.4381 96.9773 11.7539 97.0936 12.0863C97.1934 12.3689 97.2432 12.6515 97.2598 12.9506C97.2598 13.1335 97.21 13.2997 97.0936 13.4493C96.9939 13.5989 96.8609 13.7152 96.7113 13.8316C96.5617 13.9313 96.3789 14.0144 96.2127 14.0643C96.0465 14.1141 95.8969 14.1308 95.7307 14.1308C95.5977 14.1308 95.4814 14.0809 95.3816 13.9978C95.2819 13.8981 95.2653 13.7485 95.2985 13.6155C95.2487 13.4659 95.2154 13.3163 95.1822 13.1667C95.1489 12.9839 95.0825 12.8177 94.9993 12.6515C94.9162 12.4853 94.7833 12.3523 94.6337 12.2359C94.4508 12.1196 94.2348 12.0531 94.0021 12.0697C93.6863 12.0863 93.4037 12.2193 93.1876 12.4354C92.8885 12.718 92.6391 13.067 92.4729 13.4493C92.2568 13.9313 92.074 14.4299 91.9743 14.9452C91.8413 15.5436 91.7748 16.1419 91.7748 16.7569C91.7582 17.2722 91.8413 17.7708 92.0075 18.2528C92.1405 18.6684 92.3732 19.034 92.6724 19.3498C92.9549 19.649 93.304 19.8817 93.6863 20.0313C94.0852 20.1809 94.5173 20.264 94.9661 20.264C95.5146 20.2806 96.0631 20.1643 96.5618 19.9482C96.9939 19.7487 97.3928 19.4662 97.7252 19.1338C98.041 18.7847 98.307 18.4024 98.4898 17.9703C98.6726 17.5547 98.8056 17.1226 98.9053 16.6738C98.9386 16.4079 99.1048 16.1752 99.3375 16.0422C99.5536 15.9425 99.7863 15.9092 100.019 15.9757C100.252 16.0256 100.451 16.1586 100.617 16.3248C100.784 16.491 100.85 16.7403 100.817 16.973C100.767 17.3054 100.684 17.6378 100.601 17.9536C100.484 18.3526 100.335 18.7182 100.135 19.0839C99.9192 19.4828 99.6533 19.8651 99.3707 20.1975C99.0383 20.5798 98.656 20.9122 98.2239 21.1782C97.7419 21.4773 97.21 21.71 96.6615 21.8763C95.9468 22.0591 95.2653 22.1422 94.5838 22.1256Z" fill="#5E464D"/>
<path d="M98.8724 3.79225C98.8724 3.62604 98.8558 3.45982 98.8226 3.31023C98.8059 3.2105 98.7561 3.11078 98.7228 3.02768C98.6896 2.96119 98.6563 2.91133 98.6231 2.86146C98.5899 2.82822 98.5732 2.77835 98.5732 2.72848C98.5732 2.662 98.6065 2.61214 98.6563 2.59552C98.7395 2.54565 98.8226 2.51241 98.9057 2.49579C99.0054 2.46255 99.1217 2.44593 99.2381 2.4293C99.3544 2.41268 99.4708 2.41269 99.5871 2.41269C100.036 2.39607 100.468 2.51242 100.817 2.77836C101.1 2.99443 101.266 3.31023 101.266 3.65928V13.0004C101.465 12.6181 101.698 12.2358 101.964 11.8868C102.197 11.5544 102.479 11.2552 102.778 10.9892C103.061 10.7399 103.377 10.5405 103.709 10.3909C104.042 10.2413 104.424 10.1748 104.79 10.1748C105.238 10.1582 105.671 10.2413 106.069 10.4408C106.385 10.607 106.651 10.8397 106.867 11.1222C107.067 11.4048 107.2 11.7206 107.283 12.053C107.366 12.3854 107.399 12.7179 107.399 13.0503V18.9508C107.399 19.0173 107.399 19.117 107.399 19.2666C107.416 19.4162 107.432 19.5658 107.482 19.6988C107.532 19.8484 107.615 19.9813 107.715 20.0811C107.831 20.1974 108.014 20.2639 108.18 20.2473C108.48 20.2473 108.779 20.1476 108.995 19.9481C109.227 19.732 109.444 19.4661 109.593 19.1835C109.759 18.8677 109.909 18.5353 110.009 18.1863C110.108 17.8206 110.208 17.4882 110.275 17.1724C110.308 16.9397 110.408 16.7236 110.557 16.5408C110.657 16.4244 110.806 16.3413 110.973 16.3247C111.122 16.3081 111.288 16.3413 111.421 16.4244C111.571 16.5075 111.721 16.6072 111.837 16.7568C111.953 16.8898 112.036 17.0394 112.086 17.2056C112.136 17.3552 112.153 17.5214 112.103 17.671C111.953 18.1863 111.754 18.6683 111.538 19.1669C111.305 19.6822 111.023 20.1642 110.657 20.5963C110.308 21.0285 109.859 21.3942 109.377 21.6767C108.845 21.9759 108.23 22.1255 107.615 22.1089C107.233 22.1089 106.851 22.0424 106.502 21.8928C106.186 21.7598 105.92 21.5604 105.687 21.3111C105.454 21.0617 105.288 20.7792 105.172 20.4634C105.056 20.1309 104.989 19.7819 104.989 19.4328V13.6819C104.989 13.4492 104.989 13.2497 104.989 13.0503C104.972 12.8841 104.956 12.7012 104.906 12.535C104.873 12.4021 104.806 12.2857 104.706 12.186C104.607 12.1029 104.474 12.053 104.341 12.053C104.025 12.0863 103.742 12.2358 103.526 12.4685C103.161 12.7843 102.845 13.15 102.562 13.5489C102.23 14.0143 101.964 14.5296 101.748 15.0615C101.515 15.5933 101.366 16.1585 101.299 16.7402V20.8955C101.299 21.0285 101.299 21.1781 101.299 21.3111C101.299 21.444 101.266 21.577 101.216 21.6933C101.166 21.8097 101.066 21.9094 100.95 21.9925C100.8 22.0756 100.618 22.1255 100.435 22.1089C100.269 22.1089 100.102 22.0923 99.9362 22.059C99.77 22.0258 99.6038 21.9759 99.4542 21.8762C99.3046 21.7931 99.1716 21.6601 99.0885 21.4939C98.9888 21.2944 98.9223 21.0783 98.9389 20.8457L98.8724 3.79225Z" fill="#5E464D"/>
<path d="M117.605 13.0503C117.605 13.6154 117.505 14.1639 117.306 14.6958C117.106 15.2609 116.807 15.7928 116.425 16.2748C116.009 16.7901 115.527 17.2388 114.979 17.6045C114.364 18.02 113.699 18.3192 112.984 18.502C113.084 18.7514 113.233 18.9841 113.4 19.1835C113.566 19.3996 113.765 19.5991 113.998 19.7486C114.247 19.9149 114.53 20.0478 114.812 20.1309C115.161 20.2307 115.527 20.2805 115.893 20.2639C116.441 20.2805 116.973 20.1642 117.472 19.9481C117.887 19.7486 118.27 19.4661 118.585 19.1337C118.885 18.7846 119.134 18.4023 119.317 17.9702C119.5 17.5546 119.633 17.1225 119.732 16.6737C119.766 16.4078 119.932 16.1751 120.164 16.0421C120.381 15.9424 120.613 15.9091 120.846 15.9756C121.079 16.0255 121.278 16.1585 121.444 16.3247C121.611 16.4909 121.677 16.7402 121.644 16.9729C121.594 17.3053 121.527 17.6377 121.444 17.9535C121.345 18.3358 121.195 18.7181 121.012 19.0838C120.813 19.4827 120.563 19.865 120.264 20.1974C119.948 20.5797 119.566 20.9121 119.151 21.1781C118.669 21.4772 118.153 21.7099 117.605 21.8762C116.94 22.059 116.258 22.1587 115.577 22.1421C114.879 22.1421 114.181 22.0091 113.516 21.7598C112.868 21.5105 112.253 21.1448 111.738 20.6628C111.206 20.1642 110.79 19.5658 110.508 18.901C110.192 18.153 110.026 17.3386 110.042 16.5075C110.042 15.6598 110.175 14.8121 110.458 13.9977C110.707 13.2664 111.073 12.6015 111.538 11.9865C111.954 11.4546 112.469 10.9892 113.067 10.6568C113.599 10.341 114.214 10.1914 114.829 10.1748C115.228 10.1748 115.644 10.2413 116.009 10.3909C116.342 10.5238 116.657 10.7233 116.907 10.9726C117.156 11.2386 117.339 11.5377 117.455 11.8868C117.555 12.2691 117.621 12.668 117.605 13.0503ZM112.552 16.4078C112.552 16.4909 112.552 16.574 112.552 16.6571C112.552 16.7402 112.552 16.8233 112.552 16.923C112.934 16.7568 113.3 16.5407 113.632 16.2748C113.948 16.0255 114.231 15.7263 114.447 15.3773C114.912 14.6958 115.161 13.8813 115.145 13.0503C115.161 12.801 115.095 12.535 114.962 12.3189C114.862 12.1527 114.679 12.053 114.48 12.053C114.231 12.053 113.998 12.1361 113.799 12.2857C113.582 12.4519 113.416 12.668 113.283 12.9007C113.134 13.1666 113.001 13.4658 112.918 13.765C112.818 14.0808 112.751 14.4132 112.685 14.729C112.618 15.0282 112.585 15.344 112.569 15.6598C112.552 15.9258 112.552 16.1751 112.552 16.4078Z" fill="#5E464D"/>
</svg>
