<svg width="154" height="26" viewBox="0 0 154 26" fill="none" xmlns="http://www.w3.org/2000/svg">
<g clip-path="url(#clip0_337_4965)">
<path fill-rule="evenodd" clip-rule="evenodd" d="M151.935 6.07056H153.74V20.0258H152.008V19.3679C152.008 19.0061 151.995 18.7099 151.981 18.7099C151.968 18.7099 151.735 18.927 151.468 19.1904C151.129 19.5182 150.836 19.7364 150.523 19.8811C150.277 19.9941 149.89 20.1377 149.657 20.1908C149.43 20.2428 148.99 20.2892 148.677 20.2892C148.317 20.2892 147.918 20.2439 147.578 20.158C147.258 20.0703 146.946 19.9557 146.646 19.8155C146.392 19.6833 146.026 19.3871 145.646 19.0061C145.314 18.676 144.934 18.2227 144.794 17.9853C144.61 17.6482 144.457 17.2957 144.335 16.9318C144.135 16.3394 144.121 16.2535 144.121 15.2859C144.115 14.4109 144.135 14.1939 144.268 13.7394C144.354 13.45 144.541 12.9888 144.681 12.7186C144.828 12.4485 145.134 12.0019 145.36 11.7318C145.607 11.4492 145.98 11.1066 146.247 10.9292C146.507 10.7573 146.912 10.5471 147.159 10.4544C147.412 10.3617 147.871 10.2509 148.191 10.2113C148.585 10.15 148.987 10.1611 149.377 10.2441C149.784 10.3097 150.157 10.4352 150.542 10.6194C150.975 10.8229 151.209 10.9879 151.974 11.7713L151.935 6.07056ZM147.679 12.1071C147.412 12.2441 147.165 12.4168 146.945 12.6203C146.746 12.8113 146.486 13.1403 146.366 13.3573C146.253 13.5676 146.106 13.9169 146.053 14.1339C145.987 14.3849 145.947 14.8054 145.947 15.2531C145.947 15.6544 145.987 16.1292 146.04 16.3066C146.086 16.4909 146.193 16.7735 146.279 16.9318C146.36 17.0968 146.539 17.3794 146.673 17.5569C146.806 17.7355 147.079 17.9921 147.279 18.1368C147.479 18.2747 147.852 18.4533 148.112 18.5246C148.485 18.6376 148.697 18.6568 149.144 18.6376C149.584 18.6105 149.803 18.5585 150.143 18.407C150.404 18.2885 150.648 18.1357 150.869 17.9526C151.029 17.8079 151.281 17.5117 151.422 17.2946C151.569 17.0765 151.748 16.6955 151.822 16.4378C151.928 16.1032 151.968 15.8002 151.968 15.2859C151.974 14.9106 151.935 14.438 151.882 14.2334C151.799 13.9502 151.687 13.6763 151.548 13.4161C151.402 13.1414 151.221 12.8868 151.009 12.6587C150.792 12.4519 150.545 12.2792 150.277 12.1466C150.021 12.024 149.753 11.9292 149.477 11.864C149.279 11.8313 149.078 11.8113 148.877 11.8041C148.698 11.8178 148.521 11.842 148.345 11.8765C148.178 11.9093 147.878 12.0076 147.679 12.1071ZM80.7808 10.0271C80.9402 10.0271 81.3008 10.0723 81.58 10.1254C81.8671 10.1842 82.299 10.3357 82.5465 10.4544C82.7986 10.5787 83.1253 10.7969 83.279 10.9405C83.4384 11.0863 83.5843 11.1846 83.6182 11.1586C83.6453 11.1326 83.6645 10.9552 83.6645 10.4148H85.7965L85.8101 15.0428C85.8236 17.584 85.8236 19.9206 85.8169 20.2236C85.8001 20.5785 85.7509 20.9312 85.6699 21.2772C85.5784 21.6167 85.4558 21.947 85.3036 22.264C85.1428 22.5872 84.9537 22.8955 84.7384 23.1853C84.5576 23.4227 84.2376 23.7449 84.0251 23.9032C83.8047 24.0614 83.4181 24.292 83.166 24.4164C82.8424 24.5587 82.5083 24.6759 82.1667 24.7668C81.7936 24.864 81.4138 24.9036 80.9006 24.9036C80.3083 24.9036 80.0483 24.8708 79.5689 24.7329C79.2246 24.6343 78.8901 24.5041 78.5696 24.344C78.2907 24.1865 78.0253 24.0061 77.7761 23.8048C77.5154 23.5876 77.2747 23.3474 77.0571 23.087C76.8557 22.8371 76.6753 22.5709 76.5179 22.2912C76.4049 22.0662 76.3178 21.8695 76.337 21.8503C76.3574 21.8367 76.8039 21.6389 77.3375 21.4207C77.8699 21.198 78.3029 21.0262 78.3096 21.033C78.3096 21.0398 78.4023 21.2105 78.5097 21.4015C78.616 21.5993 78.8828 21.9283 79.1021 22.1329C79.3621 22.3759 79.6413 22.5602 79.9013 22.6597C80.228 22.7908 80.4213 22.8179 80.9673 22.8179C81.4873 22.8179 81.7134 22.7908 81.9994 22.6789C82.1995 22.5998 82.5262 22.3963 82.7263 22.2245C82.9689 22.004 83.1656 21.7378 83.305 21.4411C83.4384 21.1777 83.5583 20.8024 83.5922 20.5526C83.6261 20.3219 83.6317 19.9206 83.5718 19.2028L83.2191 19.4854C83.0258 19.638 82.7127 19.8415 82.5329 19.9263C82.3464 20.019 82.0129 20.1445 81.7801 20.2033C81.4737 20.2824 81.1934 20.3027 80.6677 20.2756C80.2736 20.2581 79.8826 20.1963 79.5023 20.0913C79.1821 19.9883 78.8704 19.8609 78.5696 19.7104C78.2305 19.5386 77.923 19.2955 77.4369 18.8151C76.9113 18.2951 76.7044 18.0385 76.4908 17.6236C76.326 17.3054 76.1858 16.9751 76.0714 16.6356C75.9787 16.3462 75.9188 15.9178 75.8905 15.4509C75.8645 14.9049 75.8792 14.5952 75.9651 14.1667C76.0318 13.8638 76.1573 13.4297 76.2443 13.2126C76.3661 12.9413 76.5039 12.6774 76.6569 12.4225C76.7903 12.2054 77.1374 11.7906 77.4369 11.4955C77.7309 11.205 78.1491 10.8625 78.3696 10.7381C78.5889 10.6126 78.9348 10.4408 79.136 10.3617C79.6658 10.1732 80.2195 10.0613 80.7808 10.0271ZM79.6413 12.5084C79.4616 12.6067 79.1756 12.8373 79.0083 13.0216C78.8147 13.2427 78.6474 13.4855 78.5097 13.7451C78.383 14.029 78.2846 14.3247 78.2158 14.6279C78.1367 15.036 78.1299 15.2203 78.1966 15.6487C78.2362 15.9517 78.356 16.3462 78.4566 16.57C78.5629 16.7871 78.8229 17.1556 79.0422 17.3862C79.3089 17.6756 79.5689 17.8666 79.8674 18.0113C80.2743 18.2035 80.3478 18.2148 81.034 18.2148C81.7202 18.2148 81.8004 18.2035 82.1995 18.0113C82.4866 17.8734 82.7455 17.6835 82.9523 17.4518C83.1546 17.2244 83.327 16.9721 83.4656 16.7012C83.5718 16.4841 83.6849 16.1292 83.7256 15.9121C83.7688 15.6619 83.793 15.4087 83.7979 15.1547C83.7979 14.9569 83.7527 14.6008 83.6916 14.3646C83.6227 14.0905 83.5222 13.8253 83.3921 13.5744C83.2594 13.3407 83.0985 13.1243 82.9128 12.93C82.7474 12.7631 82.5639 12.6152 82.3656 12.4892C82.1548 12.3769 81.9313 12.2903 81.6998 12.2314C81.4712 12.1733 81.237 12.1404 81.0012 12.1331C80.8339 12.1331 80.5343 12.1783 80.3343 12.2382C80.0957 12.3076 79.8638 12.398 79.6413 12.5084Z" fill="#5F6368"/>
<path d="M11.724 1.33732C12.0699 1.25819 12.5492 1.1655 12.79 1.13385C13.0297 1.09993 13.7757 1.0875 14.4551 1.09993C15.3606 1.12028 15.8682 1.15985 16.3543 1.25819C16.7194 1.33732 17.3061 1.4888 17.652 1.60071C17.999 1.71263 18.5982 1.94889 18.9848 2.1275C19.3703 2.31176 20.0169 2.68028 20.417 2.94367C20.8161 3.21385 21.2558 3.52245 21.6153 3.83219L19.8631 5.56289C18.9045 6.51132 18.1381 7.31506 18.1652 7.34785C18.1991 7.38741 18.1788 7.38741 18.1189 7.3535C17.9833 7.26711 17.8499 7.17741 17.7187 7.08446C17.4738 6.91988 17.2177 6.77256 16.9523 6.64358C16.6082 6.47881 16.2522 6.34013 15.8874 6.22872C15.3414 6.06367 15.1944 6.04445 14.2223 6.04445C13.2557 6.04445 13.1031 6.06367 12.5696 6.22193C12.2073 6.33559 11.8534 6.47421 11.5104 6.6368C11.2406 6.77181 10.9784 6.92124 10.7247 7.08446C10.5585 7.19637 10.2454 7.44619 10.025 7.63724C9.71974 7.91306 9.592 7.98541 9.49253 7.95376C9.41905 7.92663 8.93861 7.88706 8.42653 7.86785C7.92689 7.83933 7.42571 7.85446 6.9287 7.91306C6.54651 7.96923 6.16848 8.0508 5.79714 8.15724C5.39755 8.27686 5.00757 8.4265 4.63053 8.60489C4.30496 8.76315 3.91835 8.95985 3.78496 9.04576C3.64479 9.13167 3.5114 9.17011 3.4854 9.14411C3.45148 9.11132 3.51931 8.84793 3.61879 8.55176C3.71827 8.25559 3.94435 7.71524 4.12522 7.3535C4.29818 6.99176 4.57061 6.49211 4.73114 6.23437C4.89053 5.97776 5.15731 5.5968 5.32348 5.37863C5.49079 5.16158 5.8367 4.76706 6.0967 4.49689C6.34992 4.2335 6.78966 3.82541 7.06209 3.60158C7.33566 3.37776 7.81496 3.02845 8.12809 2.83176C8.44122 2.62828 8.93409 2.34454 9.22687 2.19871C9.52079 2.05515 10.06 1.83132 10.4251 1.70585C10.7925 1.5815 11.3792 1.41645 11.7251 1.33732H11.724Z" fill="#EA4335"/>
<path d="M18.1196 7.28795L19.8582 5.56404C21.2102 4.22108 21.6228 3.85143 21.7098 3.89099C21.7697 3.9249 22.0557 4.20751 22.3485 4.52404C22.6424 4.83264 23.0686 5.35264 23.3015 5.66238C23.5276 5.9789 23.9209 6.63682 24.1674 7.12404C24.4138 7.61012 24.7066 8.27595 24.8196 8.59812C24.9937 9.12491 25.0457 9.21082 25.3125 9.40751C25.4798 9.53299 25.8664 9.87551 26.166 10.1717C26.4791 10.4746 26.9189 11.0014 27.1653 11.3699C27.4117 11.7317 27.7249 12.2856 27.8571 12.6078C27.9973 12.9243 28.1906 13.4692 28.2833 13.8253C28.4167 14.3317 28.4642 14.6742 28.4902 15.4836C28.5173 16.267 28.4969 16.6491 28.4167 17.1295C28.3367 17.5416 28.2321 17.9485 28.1036 18.3481C27.9905 18.6759 27.7712 19.1903 27.6039 19.5C27.3928 19.8892 27.1549 20.2631 26.8917 20.6192C26.6219 20.9681 26.3256 21.2958 26.0055 21.5993C25.7321 21.8477 25.4453 22.0809 25.1463 22.2979C24.927 22.4561 24.5201 22.6992 24.2476 22.8506C23.8601 23.0436 23.4593 23.2087 23.0483 23.3446C22.6616 23.469 22.0625 23.6205 21.7166 23.6804C21.2034 23.7595 20.4166 23.7787 14.1562 23.7787L14.189 18.841H17.3656C19.9576 18.841 20.637 18.8218 21.0169 18.7359C21.2769 18.6839 21.6556 18.5448 21.876 18.4261C22.0896 18.3086 22.4084 18.0712 22.5757 17.8869C22.7487 17.7094 22.968 17.4257 23.0686 17.2618C23.1613 17.0967 23.2879 16.787 23.3478 16.5699C23.4009 16.3529 23.4473 15.9979 23.4473 15.7809C23.4449 15.5366 23.4138 15.2934 23.3546 15.0563C23.2833 14.8183 23.1918 14.5868 23.081 14.3645C22.9322 14.1058 22.7485 13.8688 22.535 13.6602C22.2869 13.4253 22.0039 13.2301 21.6963 13.0814C21.3967 12.9367 21.07 12.8373 20.4166 12.7717L20.3714 11.9352C20.3478 11.52 20.2964 11.1068 20.2176 10.6985C20.1338 10.3737 20.0292 10.0546 19.9045 9.74325C19.742 9.35686 19.5432 8.98669 19.311 8.63769C19.0985 8.32795 18.7458 7.90064 18.1196 7.28795Z" fill="#4285F4"/>
<path d="M5.50959 8.24192C5.83628 8.13678 6.3348 8.00452 6.62872 7.95252C6.92263 7.90052 7.53419 7.85418 7.99428 7.85418C8.46002 7.84739 9.10663 7.89374 9.45932 7.95252C9.80637 8.00565 10.3185 8.12435 10.592 8.21592C10.8656 8.30861 11.3313 8.49852 11.6241 8.63757C11.918 8.78226 12.3645 9.03887 12.6234 9.21635C12.8834 9.39383 13.2836 9.71035 13.5165 9.92852C13.7493 10.1388 14.0625 10.4598 14.4886 10.955L12.6912 12.7252C11.6976 13.6997 10.878 14.4966 10.8588 14.4966C10.8385 14.4966 10.6983 14.3124 10.5525 14.0885C10.373 13.8309 10.1601 13.5983 9.91941 13.3967C9.70326 13.235 9.47105 13.096 9.22645 12.9818C8.97879 12.8858 8.72199 12.8154 8.46002 12.7716C8.16338 12.7124 7.85797 12.7124 7.56132 12.7716C7.30132 12.8168 6.90228 12.9423 6.66263 13.0542C6.36493 13.2035 6.09287 13.3993 5.85663 13.6341C5.63619 13.8511 5.40332 14.1801 5.27672 14.4299C5.16367 14.6673 5.03706 15.0686 4.99637 15.3196C4.94308 15.6133 4.94308 15.9143 4.99637 16.2081C5.03706 16.4455 5.15689 16.8197 5.26315 17.0446C5.37619 17.2741 5.60228 17.6098 5.78315 17.7941C5.95611 17.9784 6.24211 18.2225 6.74176 18.5447L3.14472 22.0999L2.97176 21.9812C2.87906 21.9213 2.57159 21.6387 2.29237 21.3561C1.94427 20.9935 1.62561 20.6038 1.33941 20.1906C1.08409 19.8014 0.857407 19.3941 0.66115 18.972C0.528798 18.6714 0.412944 18.3639 0.314107 18.0507C0.228805 17.736 0.157517 17.4176 0.100455 17.0966C0.0383076 16.6603 0.00507569 16.2204 0.000976562 15.7797C0.000976563 15.384 0.0473244 14.7928 0.100455 14.4627C0.160368 14.1349 0.254194 13.7053 0.314107 13.5086C0.367237 13.3108 0.526629 12.897 0.66002 12.5873C0.793411 12.2776 1.10089 11.7316 1.34619 11.3687C1.59263 11.0002 2.03237 10.4745 2.3455 10.1704C2.64506 9.86861 3.03167 9.53287 3.19785 9.41418C3.35837 9.29548 3.61837 9.13157 3.76419 9.04565C3.91115 8.96652 4.23106 8.79583 4.48428 8.67035C4.73072 8.546 5.18967 8.35383 5.50959 8.24192Z" fill="#FBBC05"/>
<path d="M3.09863 22.1193L4.9175 20.3219L6.72959 18.5325L7.12863 18.65C7.49489 18.7631 7.79559 18.7755 14.1893 18.7755V23.7133H10.7053C7.85437 23.7133 7.12185 23.6929 6.62898 23.6138C6.22859 23.5368 5.83272 23.4379 5.44315 23.3176C5.08117 23.1908 4.72577 23.0459 4.37828 22.8835C4.11828 22.7513 3.71811 22.5218 3.09863 22.1193Z" fill="#34A853"/>
<path fill-rule="evenodd" clip-rule="evenodd" d="M45.2636 4.39723C45.6638 4.41079 46.2493 4.47071 46.5625 4.52949C46.8756 4.58827 47.3425 4.70697 47.5946 4.79966C47.8478 4.89123 48.3271 5.10262 48.6606 5.27444C48.994 5.43836 49.5197 5.7741 49.8464 6.01714C50.1663 6.26697 50.4399 6.49757 50.4591 6.53036C50.4794 6.56427 50.1539 6.93844 49.7401 7.35331C49.3332 7.77497 48.9737 8.11749 48.9477 8.11071C48.9138 8.11071 48.7069 7.95923 48.4808 7.77497C48.1824 7.55011 47.8633 7.35404 47.5279 7.1894C47.1854 7.02596 46.8291 6.89355 46.463 6.79375C46.0786 6.7081 45.6888 6.6488 45.2964 6.61627C44.8567 6.59027 44.478 6.61627 44.045 6.68862C43.6858 6.75267 43.3318 6.84297 42.9858 6.95879C42.6688 7.08517 42.3616 7.23479 42.0667 7.40644C41.8067 7.55114 41.3659 7.90044 41.0742 8.17627C40.7521 8.48855 40.4599 8.8303 40.2015 9.19705C39.9862 9.52033 39.799 9.86146 39.642 10.2167C39.5124 10.5588 39.4122 10.9112 39.3424 11.2703C39.2779 11.629 39.242 11.9922 39.235 12.3566C39.235 12.646 39.2689 13.0744 39.3085 13.3107C39.3424 13.5481 39.4554 13.9765 39.5549 14.2659C39.6555 14.5553 39.868 15.0165 40.0342 15.2867C40.1947 15.5557 40.5407 15.9966 40.8007 16.2668C41.0539 16.5302 41.4473 16.8795 41.6666 17.031C41.8859 17.1824 42.2205 17.3859 42.3991 17.4718C42.5856 17.5634 42.9259 17.7024 43.1655 17.7748C43.4052 17.8539 43.7647 17.9523 43.9647 17.9851C44.1648 18.0246 44.6645 18.0574 45.0635 18.0574C45.6174 18.0574 45.9498 18.0178 46.4291 17.8991C46.8295 17.7917 47.2196 17.6487 47.5946 17.4718C47.8885 17.3271 48.3214 17.0637 48.5543 16.8919C48.794 16.7144 49.1195 16.3923 49.28 16.1752C49.4406 15.9571 49.6395 15.6484 49.7266 15.4834C49.8136 15.3195 49.9402 14.977 50.0126 14.726C50.086 14.4694 50.1663 14.1676 50.2262 13.8375H44.964L44.998 11.6331L48.6809 11.6128C52.131 11.5992 52.3571 11.606 52.4113 11.7111C52.4373 11.7778 52.4566 12.4097 52.4509 13.1129C52.4509 14.2919 52.4306 14.4502 52.27 15.0561C52.1448 15.4842 51.9872 15.9021 51.7987 16.3064C51.5986 16.6977 51.3668 17.072 51.1057 17.4255C50.8582 17.7528 50.5841 18.0591 50.2861 18.3411C49.9753 18.6188 49.6435 18.872 49.2936 19.0985C48.9805 19.302 48.474 19.5722 48.1609 19.7033C47.7808 19.8588 47.3916 19.9909 46.9954 20.099C46.4494 20.2425 46.2629 20.2572 44.9968 20.2493C43.7115 20.2493 43.5453 20.2369 42.9654 20.0786C42.5462 19.9615 42.1347 19.8184 41.7333 19.6502C41.3194 19.4661 40.9189 19.253 40.535 19.0126C40.1029 18.716 39.6951 18.3857 39.3153 18.0246C39.0053 17.7316 38.7117 17.4218 38.4358 17.0965C38.021 16.5543 37.6764 15.9618 37.4105 15.3331C37.2633 14.9746 37.1387 14.6072 37.0374 14.2331C36.9436 13.8601 36.8837 13.3548 36.8566 12.7184C36.8306 11.9949 36.8441 11.606 36.93 11.1064C36.99 10.7446 37.1233 10.1975 37.224 9.88775C37.3302 9.57914 37.5495 9.07836 37.71 8.76862C37.9065 8.40207 38.1294 8.05032 38.377 7.71618C38.5827 7.44488 39.036 6.95879 39.3752 6.63662C39.7375 6.29646 40.1248 5.98396 40.5339 5.70175C40.8278 5.51749 41.22 5.28688 41.3998 5.19418C41.5863 5.1094 41.9865 4.94436 42.2996 4.83244C42.6711 4.71004 43.0493 4.60889 43.4323 4.52949C43.7443 4.47636 44.1185 4.41757 44.2643 4.39836C44.4113 4.38479 44.8634 4.38366 45.2636 4.39723ZM89.6603 4.95114L89.6264 19.9927H87.3621L87.3418 12.5544C87.335 8.46566 87.3418 5.07549 87.3621 5.03027C87.3813 4.97036 87.682 4.95114 89.6603 4.95114ZM112.208 5.81366C112.699 5.79903 113.19 5.83846 113.673 5.93123C114 5.99792 114.513 6.14262 114.806 6.25453C115.098 6.36644 115.612 6.63662 115.938 6.85366C116.264 7.07071 116.724 7.43244 117.376 8.07792L116.137 9.28297L115.665 8.84775C115.405 8.60471 115.032 8.30853 114.832 8.19662C114.297 7.89496 113.713 7.68985 113.107 7.59071C112.82 7.54698 112.531 7.52281 112.241 7.51836C112.001 7.51836 111.595 7.55114 111.342 7.59071C111.089 7.62349 110.636 7.7354 110.343 7.83375C110.049 7.93323 109.583 8.15027 109.311 8.32097C108.968 8.54003 108.648 8.79383 108.358 9.07836C108.077 9.35321 107.826 9.65798 107.612 9.98723C107.452 10.2359 107.239 10.6519 107.146 10.9085C107.045 11.1584 106.925 11.5868 106.872 11.8434C106.809 12.242 106.778 12.6449 106.778 13.0484C106.778 13.443 106.819 13.989 106.872 14.2467C106.925 14.509 107.045 14.9363 107.146 15.1872C107.239 15.4371 107.451 15.8587 107.605 16.1085C107.765 16.3595 108.072 16.7472 108.284 16.9643C108.505 17.1824 108.871 17.4911 109.109 17.6561C109.35 17.8144 109.703 18.0111 109.896 18.097C110.083 18.1829 110.476 18.314 110.762 18.3931C111.169 18.5062 111.455 18.5378 112.141 18.5378C112.627 18.5378 113.18 18.4983 113.406 18.4519C113.627 18.4067 114.032 18.2744 114.306 18.1693C114.58 18.0574 115.018 17.8404 115.271 17.6753C115.525 17.5114 115.925 17.1949 116.577 16.5697L117.171 17.1621C117.503 17.4911 117.77 17.7872 117.77 17.82C117.77 17.8539 117.597 18.0506 117.39 18.2552C117.177 18.4587 116.871 18.73 116.704 18.8544C116.538 18.9787 116.224 19.1901 116.005 19.3212C115.785 19.4456 115.379 19.6445 115.105 19.7564C114.767 19.8857 114.423 19.9973 114.073 20.0911C113.707 20.1905 113.24 20.2425 112.574 20.2697C111.955 20.2957 111.402 20.2764 111.042 20.2233C110.67 20.1694 110.303 20.0877 109.943 19.9791C109.568 19.8524 109.201 19.7033 108.844 19.5326C108.497 19.3567 108.163 19.1565 107.844 18.9335C107.582 18.742 107.328 18.5375 107.086 18.3208C106.828 18.06 106.588 17.7828 106.366 17.4911C106.116 17.1573 105.891 16.8056 105.693 16.4386C105.546 16.1481 105.354 15.7004 105.267 15.4506C105.16 15.1164 105.076 14.7753 105.014 14.4298C104.954 14.1212 104.913 13.5029 104.913 13.0473C104.913 12.594 104.954 11.9745 105.014 11.6659C105.067 11.3562 105.18 10.895 105.267 10.6451C105.353 10.3885 105.527 9.99288 105.647 9.75662C105.767 9.51923 106 9.12357 106.173 8.8681C106.34 8.61714 106.719 8.16949 107.012 7.8801C107.305 7.59071 107.759 7.2154 108.011 7.05036C108.271 6.87966 108.664 6.64905 108.897 6.53714C109.123 6.42523 109.53 6.26131 109.797 6.16862C110.057 6.0827 110.516 5.96514 110.808 5.91201C111.102 5.85888 111.729 5.81366 112.208 5.81366ZM119.368 6.07027H121.167V20.0255H119.368V6.07027ZM58.6186 10.1116C59.3194 10.1319 59.6247 10.1715 59.9853 10.2834C60.2373 10.3625 60.6443 10.5264 60.884 10.6451C61.1236 10.7638 61.4967 11.0001 61.716 11.1651C61.9364 11.3302 62.2755 11.6512 62.4688 11.8762C62.6621 12.1068 62.9357 12.5149 63.0815 12.7851C63.2217 13.0541 63.4093 13.5153 63.4885 13.8047C63.6083 14.2196 63.6354 14.5022 63.6354 15.1544C63.6354 15.7084 63.6015 16.1289 63.5224 16.4386C63.4138 16.8128 63.2708 17.1761 63.0951 17.5238C62.869 17.9715 62.6486 18.2812 62.3151 18.6373C62.0496 18.9123 61.7602 19.1631 61.4503 19.3868C61.19 19.5572 60.918 19.7091 60.6364 19.8412C60.3221 19.9684 59.9996 20.0741 59.671 20.1577C59.3047 20.2425 58.8921 20.2889 58.4524 20.2889C58.0127 20.2889 57.6 20.2437 57.2406 20.1577C56.899 20.0728 56.5648 19.9605 56.2413 19.822C55.9451 19.6842 55.6602 19.5236 55.3889 19.3416C55.083 19.1094 54.7974 18.8514 54.5354 18.5706C54.2329 18.2511 53.9813 17.887 53.7893 17.4911C53.63 17.1632 53.4502 16.6884 53.3903 16.4386C53.3168 16.1424 53.2773 15.7004 53.2773 15.1872C53.2773 14.7011 53.3225 14.2196 53.3903 13.937C53.4434 13.6804 53.63 13.1931 53.8029 12.8506C54.0629 12.3171 54.2031 12.1384 54.7163 11.632C55.0487 11.3042 55.4884 10.9413 55.6885 10.8294C55.8886 10.7107 56.248 10.5332 56.4877 10.4405C56.7273 10.3422 57.1004 10.2235 57.3197 10.1783C57.5865 10.1161 58.0194 10.0946 58.6186 10.1116ZM57.1072 12.4425C56.9467 12.5217 56.6946 12.6991 56.5408 12.8303C56.3475 13.0166 56.1733 13.2219 56.0208 13.443C55.8942 13.6408 55.728 13.9969 55.6613 14.2331C55.5687 14.561 55.5483 14.8255 55.5687 15.3523C55.5879 15.9514 55.615 16.1029 55.7947 16.4714C55.901 16.7088 56.0943 17.031 56.2209 17.1881C56.3475 17.3464 56.6211 17.5905 56.82 17.7352C57.0201 17.8731 57.3796 18.0517 57.6204 18.123C57.86 18.1953 58.2331 18.2484 58.4524 18.2484C58.6728 18.2484 59.0459 18.1953 59.2855 18.1241C59.5387 18.0506 59.8847 17.8731 60.1175 17.7081C60.3707 17.5238 60.624 17.2616 60.8037 16.9982C60.9642 16.7608 61.1575 16.3595 61.2299 16.1085C61.3429 15.7332 61.3633 15.523 61.3373 14.9894C61.3101 14.3971 61.2841 14.2795 61.0637 13.8183C60.911 13.4954 60.7037 13.2013 60.451 12.949C60.2249 12.7251 59.9118 12.5081 59.6382 12.3758C59.2392 12.1927 59.1058 12.1588 58.553 12.1464C58.1596 12.1328 57.8193 12.1588 57.6532 12.2119C57.5062 12.2639 57.2598 12.3634 57.1072 12.4425ZM69.7432 10.0856C70.3027 10.0856 70.6554 10.1195 71.042 10.2167C71.336 10.2902 71.8616 10.488 72.2075 10.6576C72.7467 10.9153 72.9344 11.0532 73.4804 11.5924C74.0332 12.1396 74.1586 12.3103 74.4254 12.8506C74.5995 13.1931 74.7793 13.6668 74.8324 13.9031C74.8991 14.1676 74.9387 14.6537 74.9387 15.1872C74.9387 15.7411 74.8991 16.1944 74.8324 16.4714C74.7725 16.7088 74.5995 17.1621 74.439 17.4911C74.2471 17.887 73.9954 18.2511 73.6929 18.5706C73.4465 18.8419 73.0599 19.1833 72.8406 19.3416C72.6213 19.4931 72.2414 19.7101 71.995 19.822C71.6707 19.9586 71.3367 20.0708 70.9957 20.1577C70.6294 20.2425 70.2157 20.2889 69.776 20.2889C69.3373 20.2889 68.9236 20.2437 68.5641 20.1577C68.235 20.0761 67.9123 19.9703 67.5987 19.8412C67.3146 19.7105 67.0406 19.5586 66.7792 19.3868C66.4673 19.1622 66.1773 18.9086 65.9133 18.6294C65.6226 18.3248 65.3718 17.9845 65.1672 17.6165C64.9928 17.2816 64.8502 16.9312 64.741 16.5697C64.6212 16.1481 64.5873 15.8791 64.5873 15.1872C64.5873 14.4965 64.6212 14.2264 64.741 13.8047C64.8201 13.5153 65.0067 13.0541 65.1536 12.7851C65.2938 12.5137 65.5538 12.1192 65.7267 11.9146C65.9564 11.6543 66.2083 11.4145 66.4796 11.1979C66.7193 11.0069 67.1522 10.7435 67.445 10.5988C67.7389 10.4609 68.2047 10.2902 68.4771 10.2235C68.8241 10.1319 69.2107 10.0924 69.7432 10.0856ZM68.1176 12.6404C67.9311 12.7715 67.6654 13.0281 67.5117 13.2124C67.3349 13.4325 67.1892 13.676 67.0787 13.9358C66.9589 14.2399 66.9193 14.4965 66.8922 15.055C66.8719 15.6677 66.8922 15.8463 67.012 16.208C67.0855 16.4454 67.2653 16.8004 67.4054 16.9982C67.5388 17.1949 67.8384 17.4978 68.0645 17.6685C68.338 17.8799 68.6297 18.0303 68.9304 18.1162C69.1768 18.1897 69.5634 18.2484 69.7963 18.2484C70.0224 18.2484 70.3954 18.1897 70.6294 18.1162C70.8555 18.045 71.2026 17.8731 71.4015 17.742C71.6464 17.5562 71.8661 17.3392 72.0549 17.0965C72.2143 16.8795 72.4076 16.537 72.4879 16.3391C72.5738 16.1085 72.6348 15.7468 72.6608 15.3523C72.6812 14.8775 72.6676 14.6344 72.5738 14.3315C72.4998 14.0824 72.4041 13.8403 72.2878 13.608C72.1449 13.3583 71.9675 13.13 71.761 12.9297C71.5215 12.709 71.2525 12.5226 70.9618 12.3758C70.5695 12.1927 70.4293 12.1588 69.8766 12.1464C69.3769 12.126 69.1644 12.1531 68.8445 12.2583C68.624 12.3374 68.2973 12.5013 68.1176 12.6404ZM95.7217 10.1048C96.4938 10.1251 96.6871 10.1511 97.12 10.3026C97.3936 10.401 97.7802 10.5796 97.9792 10.6983C98.1725 10.8102 98.5331 11.0996 98.7727 11.3358C99.0124 11.5732 99.3447 11.9689 99.5188 12.2255C99.685 12.4742 99.9314 12.949 100.072 13.2779C100.211 13.6069 100.298 13.8906 100.271 13.911C100.238 13.937 98.706 14.5689 96.8544 15.3195C95.7163 15.7791 94.5795 16.2418 93.4439 16.7077C93.41 16.7212 93.4563 16.8591 93.5434 17.0038C93.6225 17.1553 93.8565 17.4255 94.0566 17.603C94.2691 17.7951 94.5766 17.9851 94.7891 18.0642C94.9892 18.1365 95.3814 18.2157 95.655 18.2349C95.9941 18.2552 96.2948 18.2281 96.5876 18.1557C96.8273 18.097 97.18 17.9523 97.38 17.8336C97.5733 17.7149 97.9 17.4515 98.4528 16.8659L99.2848 17.4063C99.7381 17.7092 100.111 17.9986 100.111 18.0506C100.111 18.1037 99.8376 18.4191 99.4985 18.7492C99.1593 19.085 98.6789 19.4659 98.4189 19.6174C98.0998 19.7979 97.7654 19.95 97.4196 20.0718C96.9267 20.2425 96.8069 20.2561 95.8212 20.2561C94.7891 20.2561 94.736 20.2493 94.156 20.0391C93.824 19.9233 93.5012 19.7824 93.1907 19.6174C92.9906 19.4987 92.5712 19.1505 92.2513 18.8408C91.8579 18.4587 91.5911 18.123 91.3989 17.7872C91.2243 17.4592 91.075 17.1184 90.9524 16.7676C90.819 16.3595 90.7715 16.0497 90.7455 15.4178C90.7184 14.8051 90.732 14.4626 90.8122 14.0681C90.8721 13.7787 90.9987 13.3503 91.0982 13.114C91.192 12.8766 91.3786 12.5217 91.512 12.3227C91.6386 12.126 91.8647 11.8174 92.0184 11.6388C92.1654 11.4613 92.4706 11.1844 92.691 11.0272C92.9103 10.8622 93.2698 10.6384 93.4902 10.5332C93.7095 10.4213 94.1029 10.2766 94.3561 10.2111C94.7292 10.1116 95.0016 10.0924 95.7217 10.1048ZM94.2227 12.5409C94.0085 12.6867 93.8136 12.8592 93.6428 13.0541C93.5106 13.2124 93.3173 13.5221 93.2167 13.7391C93.1036 13.9822 93.0166 14.3044 92.9973 14.5757L92.9567 15.0165C96.4678 13.5741 97.4931 13.1592 97.5066 13.1536C97.5202 13.1468 97.5134 13.0869 97.4931 13.0145C97.4739 12.9422 97.3597 12.7851 97.2399 12.6596C97.0657 12.5008 96.8682 12.3697 96.6543 12.2707C96.3927 12.1506 96.109 12.086 95.8212 12.0808C95.528 12.0596 95.2335 12.0977 94.9553 12.1927C94.6997 12.2832 94.4543 12.3999 94.2227 12.5409ZM127.928 10.1975C128.221 10.2167 128.687 10.2902 128.961 10.3557C129.233 10.4281 129.687 10.6056 129.959 10.7435C130.233 10.8882 130.626 11.1391 130.825 11.2906C131.025 11.4489 131.338 11.7711 131.518 12.0017C131.691 12.2311 131.944 12.6268 132.071 12.8834C132.204 13.14 132.358 13.5481 132.425 13.8047C132.491 14.0613 132.564 14.5169 132.591 14.8255C132.624 15.168 132.611 15.6157 132.557 15.9774C132.505 16.3458 132.42 16.7089 132.305 17.0626C132.188 17.3685 132.05 17.6658 131.891 17.9523C131.764 18.1693 131.419 18.5842 131.126 18.8736C130.832 19.163 130.426 19.4987 130.226 19.6174C129.913 19.7782 129.591 19.919 129.261 20.0391C128.754 20.2097 128.534 20.2493 127.861 20.2764C127.195 20.3024 126.969 20.2821 126.496 20.1634C126.117 20.0651 125.749 19.9307 125.397 19.7621C125.071 19.6015 124.761 19.4099 124.471 19.1901C124.203 18.9691 123.96 18.7197 123.745 18.4463C123.539 18.1652 123.356 17.8676 123.198 17.5566C123.067 17.2797 122.956 16.9937 122.866 16.7009C122.806 16.4838 122.739 15.9514 122.719 15.5162C122.693 14.9566 122.712 14.5745 122.785 14.2004C122.839 13.9098 122.958 13.4825 123.059 13.2451C123.152 13.0077 123.331 12.6528 123.451 12.455C123.887 11.8164 124.446 11.2723 125.097 10.8554C125.337 10.7243 125.756 10.5389 126.03 10.4484C126.334 10.3492 126.646 10.274 126.962 10.2235C127.202 10.1907 127.635 10.1783 127.928 10.1975ZM126.096 12.2651C125.929 12.3634 125.65 12.5804 125.477 12.7579C125.266 12.9844 125.084 13.2366 124.937 13.5085C124.817 13.7459 124.685 14.0681 124.644 14.232C124.604 14.3971 124.551 14.7068 124.531 14.9238C124.504 15.1409 124.517 15.5365 124.558 15.7931C124.598 16.0565 124.704 16.4578 124.798 16.6817C124.89 16.9123 125.097 17.2672 125.263 17.4718C125.43 17.6821 125.703 17.9579 125.883 18.0834C126.056 18.2089 126.362 18.3739 126.562 18.4519C126.762 18.5254 127.156 18.6034 127.428 18.6237C127.728 18.6497 128.075 18.6305 128.294 18.5785C128.494 18.5311 128.84 18.3999 129.06 18.288C129.28 18.175 129.606 17.9319 129.793 17.7477C129.973 17.5634 130.219 17.2412 130.339 17.0242C130.452 16.8128 130.599 16.4443 130.652 16.208C130.712 15.9706 130.758 15.5297 130.758 15.22C130.758 14.9103 130.712 14.4897 130.659 14.2795C130.584 14.019 130.486 13.7656 130.366 13.5221C130.236 13.2847 130.084 13.0599 129.913 12.8506C129.735 12.6602 129.536 12.49 129.32 12.3431C129.09 12.2033 128.847 12.0866 128.594 11.9949C128.281 11.8974 127.955 11.8527 127.628 11.8626C127.276 11.8626 126.935 11.909 126.73 11.9813C126.549 12.0412 126.263 12.1724 126.096 12.2639V12.2651ZM134.016 10.4801H135.888L135.921 16.9643L136.082 17.3599C136.174 17.577 136.354 17.8731 136.487 18.0178C136.628 18.1625 136.893 18.3536 137.093 18.4395C137.353 18.5514 137.613 18.6034 138.053 18.6237C138.566 18.6497 138.712 18.6373 139.052 18.5051C139.299 18.4135 139.578 18.2417 139.785 18.0506C139.971 17.8799 140.211 17.5645 140.331 17.3531C140.451 17.1361 140.591 16.754 140.644 16.5042C140.731 16.1357 140.75 15.497 140.75 10.4801H142.549V20.0255H140.817V18.7097L140.304 19.2229C139.944 19.5778 139.652 19.8017 139.352 19.9464C139.061 20.0751 138.76 20.1787 138.452 20.2561C138.178 20.3118 137.9 20.3446 137.62 20.3544C137.42 20.3544 137.107 20.3284 136.92 20.2957C136.683 20.2454 136.449 20.1793 136.221 20.0978C135.95 19.9816 135.694 19.8361 135.455 19.6637C135.185 19.4539 134.949 19.2029 134.756 18.9199C134.589 18.6769 134.362 18.2292 134.056 17.3599L134.016 10.4801Z" fill="#5F6368"/>
</g>
<defs>
<clipPath id="clip0_337_4965">
<rect width="153.739" height="26" fill="white"/>
</clipPath>
</defs>
</svg>
