<svg width="103" height="37" viewBox="0 0 103 37" fill="none" xmlns="http://www.w3.org/2000/svg">
<path d="M15.7116 0.222186C16.0795 0.165182 16.6509 0.0952229 16.9806 0.0634818C17.3103 0.0317408 17.9827 0.00647776 18.4705 0C18.9596 0 19.7013 0.0259103 20.1197 0.0576513C20.5388 0.0952224 21.1536 0.165182 21.4839 0.222186C21.8137 0.273361 22.4161 0.387369 22.8158 0.476115C23.2155 0.571338 23.9196 0.767615 24.3698 0.913365C24.82 1.06624 25.5682 1.35126 26.019 1.54171C26.4692 1.73798 27.1287 2.06187 27.4778 2.25232C27.9301 2.51128 28.3742 2.78413 28.8097 3.07046C29.2767 3.38251 29.7316 3.71247 30.1732 4.05962C30.5412 4.34464 31.2265 4.97298 31.702 5.44909C32.1774 5.91808 32.8058 6.60343 33.0908 6.97137C33.3823 7.33866 33.8079 7.92231 34.043 8.27146C34.2769 8.61996 34.639 9.21656 34.8541 9.60329C35.0698 9.99001 35.4124 10.6883 35.6152 11.1579C35.8251 11.6269 36.123 12.4133 36.2817 12.9018C36.4398 13.3902 36.6432 14.1196 36.732 14.5193C36.8207 14.9189 36.9347 15.5402 36.9917 15.9016C37.0429 16.2572 37.1187 16.9866 37.1569 17.5126C37.1951 18.0581 37.2074 18.8827 37.1822 19.4028C37.1627 19.9107 37.0999 20.6531 37.0487 21.0521C36.9977 21.4663 36.9344 21.8789 36.8589 22.2893C36.8077 22.5679 36.7067 23.0246 36.6367 23.3038C36.5668 23.5823 36.4398 24.0526 36.3517 24.3506C36.2165 24.7785 36.0661 25.2016 35.9009 25.6189C35.692 26.1348 35.4636 26.6426 35.2162 27.1412C35.0005 27.5791 34.6325 28.2515 34.3915 28.6317C34.0916 29.1085 33.7739 29.5739 33.4393 30.027C33.074 30.504 32.6913 30.9675 32.2921 31.4165C31.8889 31.8544 31.4677 32.2754 31.0296 32.6784C30.6811 32.9958 30.1097 33.4648 29.7612 33.7317C29.2984 34.0755 28.8224 34.4011 28.3342 34.7079C27.8288 35.0201 27.3101 35.3101 26.7795 35.5772C26.3611 35.7799 25.6764 36.0844 25.2572 36.2496C24.6742 36.4841 24.4138 36.554 24.1476 36.554C23.9066 36.5475 23.7414 36.5093 23.621 36.4271C23.5096 36.3525 23.413 36.2581 23.3359 36.1485C23.2407 36.0086 23.2278 35.6594 23.2278 32.8183C23.2213 30.1035 23.2083 29.5833 23.1202 29.2024C23.0659 28.9668 23.0002 28.734 22.9233 28.5048C22.8483 28.3055 22.7615 28.1108 22.6635 27.9218C22.5592 27.7157 22.429 27.5237 22.2762 27.3504C22.1557 27.2176 22.0611 27.0784 22.0546 27.046C22.0546 27.0142 22.4031 26.932 22.8346 26.8749C23.2595 26.8115 23.8937 26.691 24.2428 26.5958C24.6064 26.5019 24.9662 26.3938 25.3214 26.2719C25.5682 26.1838 26.019 25.9868 26.3358 25.8281C26.6532 25.6694 27.0529 25.4414 27.2239 25.3209C27.4014 25.194 27.7123 24.9465 27.9151 24.769C28.1953 24.5115 28.4561 24.2337 28.6956 23.9379C28.9172 23.6594 29.2411 23.158 29.4056 22.8283C29.5773 22.4979 29.8053 21.9525 29.9135 21.6234C30.021 21.2931 30.1667 20.7288 30.2373 20.3667C30.3067 20.0118 30.3954 19.3141 30.4336 18.8192C30.4712 18.3185 30.4842 17.6402 30.4589 17.3099C30.433 16.9795 30.3766 16.4917 30.3254 16.2313C30.2652 15.9317 30.1891 15.6355 30.0974 15.3439C30.0275 15.1152 29.85 14.7026 29.7101 14.424C29.5708 14.1448 29.3739 13.7892 29.2663 13.6312C29.1588 13.4725 28.9619 13.2127 28.5875 12.7431L28.7144 12.2546C28.7844 11.9819 28.8667 11.5 28.8984 11.189C28.9243 10.8781 28.9301 10.3456 28.8984 10.0159C28.8634 9.62099 28.8019 9.22885 28.7144 8.84215C28.6257 8.46032 28.4983 8.08853 28.3342 7.73251H27.9403C27.7188 7.73251 27.3126 7.78951 27.0334 7.85299C26.7549 7.92231 26.2976 8.06806 26.019 8.17623C25.6403 8.33058 25.2697 8.5042 24.9087 8.6964C24.5784 8.87389 24.0776 9.16539 23.2912 9.67972L22.784 9.55924C22.3733 9.47037 21.9608 9.38982 21.5468 9.31762C21.0626 9.24072 20.5761 9.17936 20.088 9.13365C19.6028 9.09158 19.1162 9.06846 18.6292 9.06434C18.2295 9.06434 17.5701 9.09608 17.1704 9.12782C16.7707 9.16539 16.099 9.25478 15.6805 9.32409C15.2614 9.39405 14.703 9.50158 13.9671 9.68555L13.3842 9.31179C13.0603 9.10838 12.5148 8.7981 12.1793 8.62644C11.8094 8.44286 11.4325 8.27366 11.0496 8.11923C10.7286 7.99946 10.4004 7.89994 10.0669 7.82125C9.80648 7.77008 9.42559 7.73251 8.84259 7.76425L8.65862 8.33429C8.55692 8.64522 8.42996 9.1913 8.3736 9.5398C8.30874 9.99125 8.28942 10.4481 8.31595 10.9034C8.33538 11.3665 8.40469 11.8297 8.64631 12.7113L8.32243 13.1363C8.15141 13.3649 7.90979 13.7069 7.80226 13.8974C7.68825 14.0814 7.49781 14.4616 7.37084 14.7408C7.25036 15.02 7.07286 15.5337 6.97764 15.8828C6.81246 16.4853 6.80663 16.587 6.80663 17.9758C6.81311 19.2001 6.83189 19.5551 6.95238 20.1957C7.02817 20.6142 7.19335 21.2548 7.31384 21.6228C7.43432 21.9907 7.6753 22.5621 7.84696 22.8918C8.01797 23.2215 8.34121 23.7222 8.5634 24.0014C8.78559 24.2806 9.12178 24.6427 9.31158 24.8008C9.50203 24.9595 9.85118 25.2257 10.0986 25.3902C10.3454 25.5554 10.771 25.7964 11.0496 25.9298C11.3288 26.0633 11.8807 26.2783 12.2739 26.4053C12.6606 26.5323 13.3712 26.7033 13.8408 26.792C14.3098 26.8814 14.7859 26.9507 14.887 26.9507C14.9887 26.9507 15.0904 26.9831 15.1092 27.0142C15.1286 27.0466 15.0392 27.1982 14.9123 27.3511C14.7918 27.4962 14.6013 27.7883 14.5003 27.9975C14.3986 28.2068 14.2528 28.6447 14.0306 29.5516L13.6821 29.6785C13.4917 29.7478 13.149 29.8495 12.921 29.9001C12.5967 29.961 12.2676 29.9928 11.9377 29.9953C11.6267 29.9953 11.196 29.9512 10.9861 29.8942C10.7347 29.8217 10.4905 29.7261 10.2567 29.6086C10.0083 29.4696 9.7746 29.306 9.55903 29.1201C9.36858 28.9491 8.99482 28.4983 8.73441 28.118C8.47465 27.7378 8.13198 27.2934 7.97327 27.1347C7.75791 26.9283 7.52442 26.7416 7.27562 26.577C7.0476 26.4306 6.67966 26.2531 6.451 26.1831C6.21372 26.1133 5.96874 26.0731 5.7216 26.0633C5.55059 26.0633 5.30962 26.0885 5.20144 26.1261C5.08095 26.165 4.9799 26.2408 4.96047 26.3166C4.94103 26.3865 4.9799 26.5193 5.0369 26.621C5.09391 26.7162 5.18913 26.8303 5.23966 26.8749C5.29666 26.9132 5.56355 27.1094 5.83561 27.2999C6.14007 27.5156 6.46395 27.8265 6.69197 28.1116C6.93881 28.4347 7.15748 28.7784 7.34558 29.1389C7.50428 29.4563 7.67594 29.8113 7.71999 29.9318C7.76404 30.0523 7.9357 30.3509 8.09376 30.5919C8.25894 30.8393 8.55044 31.1684 8.76615 31.3401C8.97538 31.5111 9.34332 31.7462 9.59077 31.8667C9.83822 31.9872 10.2949 32.1453 10.6058 32.2217C11.0496 32.3234 11.367 32.3551 12.0329 32.3487C12.5025 32.3487 13.1173 32.304 13.3965 32.2534C13.7773 32.19 13.9166 32.1835 13.9484 32.234C13.9743 32.2793 13.9866 33.1415 13.9801 34.1624C13.9671 35.9263 13.9607 36.0216 13.8344 36.1926C13.7472 36.303 13.6394 36.3954 13.5169 36.4646C13.4159 36.5165 13.1931 36.554 13.0162 36.5475C12.807 36.5475 12.4449 36.44 11.9377 36.2431C11.3888 36.0245 10.8491 35.7833 10.3202 35.5202C9.81213 35.2641 9.31507 34.9868 8.83028 34.6891C8.37461 34.3995 7.93012 34.0927 7.49781 33.7692C7.01823 33.4072 6.55484 33.0242 6.10897 32.6214C5.67774 32.2282 5.26488 31.8154 4.87172 31.3841C4.57374 31.055 4.11058 30.4967 3.84435 30.1475C3.51176 29.7076 3.19648 29.2549 2.89924 28.7904C2.58142 28.2745 2.28535 27.7454 2.01179 27.2047C1.7543 26.6846 1.51513 26.1557 1.2947 25.6189C1.10551 25.1291 0.936088 24.6318 0.786843 24.1284C0.657644 23.6724 0.539283 23.2134 0.431861 22.7519C0.344178 22.3417 0.268141 21.9291 0.203844 21.5146C0.152669 21.1726 0.0827093 20.4367 0.0386605 19.879C0.000441677 19.3206 -0.011866 18.4895 0.0127495 18.0393C0.0321827 17.5891 0.095665 16.8597 0.146192 16.4218C0.203196 15.9845 0.317852 15.2862 0.406597 14.8678C0.495343 14.4493 0.660526 13.7769 0.774534 13.3779C0.888543 12.9776 1.11656 12.3052 1.28174 11.8867C1.44693 11.4682 1.80191 10.7013 2.06814 10.174C2.38502 9.56756 2.72802 8.97515 3.09616 8.39842C3.39414 7.94822 3.83787 7.32635 4.07884 7.02837C4.37458 6.66368 4.67913 6.30622 4.99221 5.9563C5.35547 5.56273 5.73654 5.18598 6.13424 4.82723C6.50217 4.49686 7.01521 4.05961 7.27562 3.86334C7.66057 3.5775 8.05192 3.3004 8.44939 3.03224C8.98412 2.68971 9.53446 2.37218 10.0986 2.08066C10.6188 1.80859 11.2776 1.49766 11.5574 1.38948C11.836 1.27547 12.3503 1.08503 12.6988 0.964539C13.048 0.844053 13.7203 0.653607 14.1893 0.539598C14.6923 0.413521 15.2002 0.307632 15.7116 0.222186ZM47.2039 10.5931C47.5391 10.5033 47.8777 10.4271 48.219 10.3644C48.631 10.3009 49.1388 10.2822 50.0587 10.2945C50.9591 10.3139 51.5356 10.3579 52.0558 10.4467C52.4554 10.5231 52.9691 10.6436 53.1978 10.7259C53.4258 10.8081 53.6862 10.9228 53.7873 10.9863C53.8825 11.0433 53.9589 11.1443 53.9589 11.202C53.9589 11.2648 53.832 11.8614 53.6739 12.5209C53.5152 13.181 53.3565 13.7516 53.3241 13.7899C53.2826 13.832 53.1492 13.8171 52.9251 13.7452C52.6602 13.66 52.3913 13.588 52.1192 13.5295C51.8595 13.4789 51.1994 13.4155 50.6604 13.396C49.9058 13.3708 49.5631 13.3831 49.1706 13.4595C48.8907 13.5172 48.5228 13.6247 48.3453 13.6946C48.1172 13.8012 47.9006 13.9308 47.6988 14.0814C47.4954 14.2271 47.248 14.4998 47.0834 14.7538C46.9312 14.9947 46.7466 15.3562 46.6708 15.5654C46.5784 15.8253 46.5001 16.09 46.4363 16.3583C46.3793 16.6057 46.3288 17.2587 46.3029 18.0075C46.2776 18.9468 46.2964 19.3964 46.3728 19.879C46.4233 20.2275 46.525 20.6841 46.5885 20.8934C46.6585 21.1026 46.7854 21.4135 46.8671 21.591C46.9565 21.7627 47.1339 22.0354 47.2674 22.1935C47.4002 22.3522 47.6353 22.5744 47.7999 22.6884C47.9586 22.803 48.276 22.9553 48.504 23.0317C48.8467 23.1515 49.0624 23.171 49.7412 23.1768C50.1915 23.1768 50.7304 23.1574 51.2946 23.0816V20.037H50.299C49.5761 20.037 49.2716 20.0182 49.2146 19.9612C49.1576 19.8977 49.1382 19.5428 49.1382 18.5782C49.1382 17.6454 49.1576 17.2529 49.2146 17.1959C49.2716 17.1389 49.887 17.1194 51.8595 17.1194C53.8572 17.1194 54.4538 17.1389 54.5173 17.1959C54.5801 17.2594 54.5931 18.1157 54.5931 25.1117L54.1364 25.3591C53.8825 25.4984 53.3753 25.7077 53.0073 25.8281C52.6394 25.9486 52.0687 26.1009 51.739 26.165C51.2946 26.2466 50.8451 26.2783 50.0263 26.2725C49.2904 26.2725 48.7009 26.2336 48.2818 26.1643C47.8964 26.0985 47.5152 26.0096 47.1404 25.8981C46.8619 25.8094 46.3793 25.6001 46.0619 25.4414C45.6305 25.2128 45.3642 25.0165 44.9522 24.6038C44.6478 24.3059 44.2922 23.8939 44.1594 23.684C44.0194 23.4754 43.8167 23.0751 43.6962 22.7965C43.5822 22.5174 43.4177 22.0607 43.3347 21.7815C43.2277 21.3849 43.1429 20.9827 43.0808 20.5766C43.0111 20.0503 42.9646 19.5212 42.9415 18.9909C42.9221 18.5024 42.9415 17.6901 42.9798 17.1836C43.0238 16.6757 43.1126 15.9781 43.176 15.6289C43.2558 15.2442 43.3531 14.8634 43.4675 14.4875C43.5569 14.2083 43.715 13.7957 43.8232 13.5677C43.9242 13.339 44.1341 12.9717 44.2863 12.7431C44.4321 12.515 44.8 12.1024 45.0915 11.8232C45.4782 11.4553 45.7769 11.2337 46.1888 11.0239C46.5063 10.8593 46.9565 10.6689 47.2039 10.5931ZM69.1052 18.4137C69.0929 12.1212 69.1052 10.9798 69.1817 10.9163C69.2451 10.8593 69.6824 10.8405 70.7357 10.8405C71.535 10.8405 72.2262 10.8658 72.2703 10.8911C72.3279 10.9228 72.3532 11.6075 72.3849 16.4535L76.7296 16.4859V13.7899C76.7296 12.1212 76.7548 11.0433 76.793 10.9669C76.8565 10.8464 76.92 10.8399 78.3658 10.8399C79.4949 10.8399 79.8881 10.8593 79.9516 10.9163C80.0151 10.9798 80.028 12.515 80.028 18.4202C80.028 24.1601 80.0151 25.8599 79.9516 25.9169C79.8946 25.9804 79.4949 25.9998 78.3788 25.9998C77.2627 25.9998 76.8688 25.9804 76.806 25.9234C76.7425 25.8599 76.7296 25.1434 76.7296 19.4663L72.3849 19.4987L72.3214 25.9681L70.7992 25.981C69.6636 25.9933 69.2575 25.9745 69.1946 25.9169C69.1311 25.8534 69.1117 24.4011 69.1052 18.4137ZM92.3267 18.4642C92.3202 13.1363 92.339 11.0498 92.3902 10.9604C92.4595 10.8464 92.5483 10.8405 93.9695 10.8405C95.0986 10.8405 95.4918 10.8593 95.5552 10.9163C95.6122 10.9798 95.631 11.5635 95.631 13.4854C95.631 14.8555 95.6505 15.9781 95.6822 15.9781C95.7075 15.9781 95.929 15.8893 96.17 15.7811C96.4979 15.6446 96.8377 15.5383 97.185 15.4637C97.5025 15.4009 97.9967 15.3439 98.2953 15.3439C98.5933 15.3439 99.037 15.3879 99.278 15.4385C99.519 15.4896 99.9063 15.6224 100.134 15.73C100.401 15.8576 100.686 16.0668 100.934 16.3142C101.219 16.5993 101.397 16.8532 101.587 17.247C101.727 17.545 101.898 18.014 101.974 18.2932C102.044 18.5717 102.133 19.1554 102.17 19.5933C102.215 20.0435 102.222 20.7159 102.202 21.1473C102.171 21.6243 102.124 22.1003 102.063 22.5744C102.006 22.9423 101.892 23.4683 101.802 23.7481C101.714 24.0267 101.568 24.4011 101.479 24.5721C101.39 24.7502 101.162 25.0547 100.965 25.2639C100.769 25.4667 100.496 25.7012 100.357 25.7841C100.182 25.8779 100.002 25.9606 99.8176 26.0315C99.6207 26.1006 99.4192 26.1556 99.2145 26.1961C99.0435 26.2285 98.5681 26.2596 98.1684 26.2596C97.7687 26.2596 97.2356 26.2149 96.9946 26.1643C96.6931 26.0983 96.3966 26.0115 96.1071 25.9046C95.8655 25.8158 95.4853 25.6254 94.8699 25.2387L94.8382 25.3967C94.8194 25.4855 94.7876 25.6319 94.7688 25.7336C94.7494 25.8281 94.6989 25.9234 94.6607 25.9486C94.6166 25.9745 94.1152 25.9998 93.5381 25.9998C92.7769 25.9998 92.4725 25.9804 92.409 25.9234C92.3455 25.8599 92.3332 24.3253 92.3267 18.4642ZM56.8512 11.4747C56.9847 11.3918 57.2257 11.2843 57.3837 11.2396C57.5424 11.1955 57.8151 11.1761 57.9868 11.1955C58.1643 11.2085 58.4493 11.2907 58.621 11.373C58.7985 11.4618 59.033 11.6328 59.1534 11.7727C59.2739 11.9061 59.4326 12.1406 59.5026 12.2993C59.5849 12.4891 59.6296 12.7243 59.6296 12.997C59.6296 13.2885 59.5849 13.5042 59.4832 13.7264C59.4074 13.9039 59.2234 14.1636 59.0777 14.3159C58.9189 14.4746 58.678 14.6397 58.4811 14.7091C58.2971 14.779 58.0244 14.836 57.8786 14.836C57.7264 14.836 57.4666 14.7978 57.2891 14.7473C57.0576 14.6713 56.8453 14.5458 56.6673 14.3793C56.4963 14.2271 56.2864 13.9674 56.1976 13.7899C56.0924 13.5722 56.0383 13.3333 56.0396 13.0916C56.0396 12.8823 56.0713 12.5973 56.1031 12.4574C56.1406 12.3181 56.2676 12.0771 56.3881 11.9184C56.5021 11.7597 56.712 11.5635 56.8512 11.4747ZM62.2045 12.7431L63.5875 12.7236H63.6872C64.4011 12.7171 65.0236 12.712 65.0903 12.7236C65.1603 12.7301 65.2555 12.7431 65.2995 12.7431C65.3572 12.7431 65.3825 13.0857 65.4077 15.6289L67.6911 15.6924L67.7034 16.9607C67.7164 17.8935 67.6976 18.2485 67.6406 18.312C67.583 18.3755 67.285 18.3943 65.376 18.3884L65.3948 20.6271C65.4077 22.7324 65.4142 22.8723 65.5347 23.0693C65.6105 23.1897 65.788 23.3413 65.9784 23.4372C66.2576 23.57 66.3781 23.5894 67.0123 23.5894C67.5894 23.5894 67.7294 23.6089 67.7546 23.6846C67.7734 23.7352 67.7864 24.2489 67.7864 24.826C67.7864 25.8411 67.7799 25.8728 67.6464 25.9616C67.5642 26.0121 67.2597 26.1009 66.9617 26.152C66.5802 26.2157 66.1942 26.2494 65.8074 26.2531C65.4647 26.2531 64.9633 26.209 64.6971 26.152C64.3859 26.0824 64.0821 25.9826 63.7902 25.8541C63.5226 25.7204 63.2766 25.547 63.0608 25.3397C62.8651 25.1354 62.6985 24.905 62.5659 24.655C62.4555 24.4094 62.3664 24.1548 62.2997 23.8939C62.2297 23.5894 62.2045 22.9041 62.1727 18.4202L61.4751 18.4072C61.0948 18.3943 60.7139 18.3755 60.6381 18.3567C60.4918 18.3243 60.4917 18.312 60.4917 16.1679L60.7962 16.0791C60.9614 16.0351 61.3228 15.9463 61.602 15.8828C61.8812 15.8193 62.1287 15.7371 62.1604 15.6989C62.1857 15.6606 62.2045 15.0453 62.2045 14.3288C62.1976 13.8003 62.1976 13.2716 62.2045 12.7431ZM56.1789 20.8169C56.1789 18.0833 56.1976 15.8064 56.2171 15.7559C56.2488 15.6736 56.4833 15.6606 57.8028 15.6606C58.7732 15.6606 59.3627 15.6866 59.3821 15.7241C59.4009 15.7623 59.4139 18.0522 59.4139 20.8176C59.4139 24.7055 59.3944 25.8599 59.3309 25.9234C59.2739 25.9868 58.9189 26.0056 57.8281 25.9998C56.5656 25.9998 56.3881 25.9804 56.2864 25.8851C56.1789 25.7841 56.1724 25.4919 56.1789 20.8176V20.8169ZM81.3916 19.5745C81.3916 16.276 81.4039 15.7747 81.4868 15.7241C81.5374 15.6924 82.2285 15.6606 83.0408 15.6606C83.846 15.6606 84.5314 15.6866 84.5754 15.7118C84.6324 15.7429 84.6519 16.6563 84.6901 22.7965L84.8481 23.0816C84.9434 23.2597 85.0956 23.4119 85.229 23.4754C85.3813 23.5577 85.597 23.5894 85.9267 23.5894C86.1864 23.5894 86.5291 23.557 86.6878 23.5195C86.8465 23.4812 87.1257 23.386 87.6394 23.1451V19.4981C87.6394 16.2631 87.6517 15.8381 87.7405 15.7559C87.8234 15.6801 88.0896 15.6606 89.2945 15.6606C90.5 15.6606 90.7662 15.6801 90.842 15.7559C90.9249 15.8381 90.9372 16.4853 90.9372 20.7982C90.9372 23.9697 90.912 25.7899 90.8738 25.8728C90.8168 25.9933 90.7474 25.9998 89.8146 25.9998C89.2627 25.9998 88.7808 25.9739 88.7426 25.9486C88.705 25.9234 88.6538 25.7841 88.6286 25.6312C88.6098 25.4855 88.5586 25.3656 88.5275 25.3656C88.4958 25.3656 88.2418 25.4732 87.9756 25.6124C87.7029 25.7459 87.252 25.9298 86.9735 26.0186C86.6943 26.1073 86.1929 26.209 85.8632 26.2531C85.4845 26.2982 85.1025 26.309 84.7218 26.2855C84.4024 26.2583 84.0848 26.2138 83.7702 26.152C83.4984 26.0819 83.2331 25.9885 82.9774 25.8728C82.7276 25.7422 82.497 25.5779 82.292 25.3844C82.0946 25.1814 81.9281 24.9505 81.7978 24.6991C81.6735 24.4229 81.5736 24.1363 81.4991 23.8427C81.4039 23.4178 81.3916 22.9494 81.3916 19.5745Z" fill="#010101"/>
</svg>
