<svg width="110" height="34" viewBox="0 0 110 34" fill="none" xmlns="http://www.w3.org/2000/svg">
<g clip-path="url(#clip0_337_4925)">
<path d="M5.81143 1.83261C6.01543 1.19573 6.22938 0.703144 6.35543 0.60612V0.596998C6.4624 0.510754 6.69543 0.432803 6.86128 0.432803C7.02631 0.432803 7.24026 0.510754 7.33728 0.606949C7.4343 0.694022 7.93933 2.0847 8.49328 3.76646C9.02816 5.40841 9.79523 7.75524 10.1941 8.98256C10.5922 10.1999 11.059 11.6395 11.5541 13.1372L18.2214 13.1853C24.1101 13.2234 24.897 13.2143 24.897 13.0883C24.897 13.0111 25.4709 11.205 26.1708 9.07958C26.8699 6.95417 27.7638 4.21012 28.1627 2.99275C28.6876 1.3989 28.9505 0.723047 29.1056 0.596998C29.2217 0.500803 29.4257 0.422852 29.5617 0.422852C29.6977 0.422852 29.9017 0.500803 30.0186 0.596998C30.1745 0.723047 30.4465 1.40885 30.9714 3.04168C31.3794 4.28807 32.0205 6.24846 32.3994 7.3887C32.8234 8.70252 33.2574 10.0131 33.7014 11.3203C34.0414 12.3444 34.3142 13.1944 34.3043 13.2044C34.2852 13.2234 32.1565 13.2525 24.8589 13.3296L21.7185 22.8927L21.3469 24.0321C20.3667 27.0262 19.3893 30.0213 18.4146 33.0172C18.3176 33.3166 18.2106 33.5389 18.1816 33.4999C18.1426 33.4518 17.5887 31.8189 16.9477 29.8486C16.3058 27.8774 15.2759 24.7287 14.6639 22.8446C13.9912 20.7986 13.3222 18.7515 12.657 16.703L12.5642 16.4211C12.0202 14.7684 11.5831 13.3777 11.5831 13.3288C11.5831 13.2616 9.97933 13.2425 6.9185 13.2516C3.25479 13.2707 2.24391 13.2516 2.20494 13.1554C2.17591 13.0974 2.90484 10.7589 3.80874 7.96753C4.72177 5.17539 5.62567 2.42222 5.8106 1.83344L5.81143 1.83261Z" fill="#E24329"/>
<path fill-rule="evenodd" clip-rule="evenodd" d="M98.4619 8.35435H99.6287C100.581 8.35435 100.805 8.38337 100.843 8.49947C100.873 8.57659 100.892 9.70688 100.892 13.3772L101.31 13.0588C101.64 12.832 101.988 12.6318 102.35 12.4601C102.942 12.1889 103.059 12.1698 104.098 12.1798C104.992 12.1889 105.342 12.2279 105.848 12.402C106.197 12.5181 106.674 12.7403 106.917 12.8946C107.16 13.0488 107.578 13.3971 107.85 13.6865C108.122 13.9668 108.501 14.5274 108.695 14.923C108.89 15.3194 109.142 15.9952 109.259 16.4206C109.414 17.0293 109.463 17.4929 109.463 18.5942C109.463 19.6374 109.414 20.2361 109.259 20.9609C109.152 21.4916 108.967 22.1683 108.841 22.4585C108.724 22.7488 108.462 23.2505 108.268 23.5698C108.073 23.8882 107.655 24.3808 107.344 24.671C106.958 24.9948 106.538 25.2765 106.091 25.5111C105.637 25.715 105.165 25.8765 104.681 25.9937C104.108 26.1198 103.612 26.1388 102.301 26.1007C101.291 26.0617 100.406 25.9846 100.017 25.8876C99.6668 25.8104 99.1817 25.6753 98.4619 25.453V8.35352V8.35435ZM102.184 14.8848C101.897 15.0051 101.621 15.1506 101.359 15.3194L100.892 15.5997L100.882 23.5689C101.436 23.8202 101.883 23.8592 102.884 23.8592C104.166 23.8592 104.273 23.8401 104.73 23.598C105.002 23.4628 105.401 23.1543 105.614 22.9221C105.871 22.6531 106.09 22.3511 106.266 22.024C106.392 21.7628 106.586 21.2121 106.683 20.8166C106.81 20.285 106.858 19.7244 106.868 18.7393C106.868 17.8602 106.819 17.2217 106.732 16.9041C106.637 16.589 106.517 16.282 106.372 15.9861C106.244 15.73 106.077 15.4953 105.877 15.2903C105.731 15.1452 105.41 14.9421 105.167 14.8367C104.924 14.7298 104.468 14.6236 104.147 14.5946C103.826 14.5755 103.331 14.5946 103.059 14.6427C102.777 14.6916 102.379 14.7978 102.184 14.8848Z" fill="#8C929D"/>
<path d="M0.942878 16.7095C1.4678 15.1157 1.9239 13.7159 1.97283 13.5998V13.5898C2.02093 13.4737 2.09888 13.3767 2.15776 13.3767C2.20585 13.3767 3.78976 15.3479 5.67551 17.7436C7.56044 20.1485 11.0392 24.5934 13.4209 27.626C15.8009 30.6595 17.7646 33.2194 17.7936 33.3256C17.8326 33.4807 17.8127 33.4997 17.7065 33.4226C17.6286 33.3745 13.7999 30.6205 9.20322 27.2976C6.32441 25.2231 3.4474 23.146 0.572195 21.0665C0.399449 20.9313 0.254436 20.7641 0.145122 20.5739C0.0571348 20.3759 0.00787447 20.1628 0 19.9462C0 19.7629 0.417951 18.3042 0.942878 16.7095ZM25.1401 24.8828C28.4638 20.661 31.8456 16.343 32.6715 15.2898C33.4883 14.2466 34.2073 13.3867 34.2654 13.3867C34.3234 13.3867 34.8392 14.8263 35.4222 16.5943C35.9952 18.3614 36.4621 19.8782 36.4621 19.9561C36.4621 20.0332 36.3742 20.2746 36.2871 20.4869C36.1312 20.8252 35.6361 21.2116 32.5645 23.4332C30.6216 24.8347 26.685 27.675 23.8282 29.7415C20.9714 31.8089 18.6204 33.4516 18.6096 33.3936C18.5905 33.3355 18.6975 33.1232 18.8435 32.9209C18.9886 32.7269 21.8263 29.1046 25.1401 24.8828Z" fill="#FCA326"/>
<path d="M6.16093 18.3717C4.81943 16.6739 3.48485 14.9705 2.15723 13.2618V13.2518C2.15723 13.2419 4.27518 13.2319 6.86996 13.2319C9.95069 13.2319 11.5835 13.2618 11.5835 13.329C11.5835 13.387 12.2834 15.5796 13.1475 18.2075C14.0033 20.8355 15.2083 24.5349 15.8302 26.419C16.4037 28.1824 16.9836 29.9438 17.57 31.7031C18.0551 33.1526 18.1621 33.5672 18.046 33.5672C17.9681 33.5672 17.8611 33.4611 17.803 33.3268C17.745 33.1908 16.0052 30.9211 13.9353 28.274C11.8555 25.637 8.35684 21.183 6.16093 18.3717ZM23.7497 16.7198C24.3426 14.9137 24.8286 13.397 24.8286 13.3389C24.8286 13.2709 26.4515 13.2518 29.5521 13.261C32.1469 13.2809 34.2939 13.29 34.3237 13.2809C34.3527 13.2809 34.2748 13.358 34.1678 13.455C34.0517 13.5512 31.777 16.4105 29.1143 19.8113C26.4523 23.2113 23.0117 27.5982 21.4667 29.5685C19.921 31.5389 18.619 33.2397 18.5709 33.355C18.5212 33.481 18.4441 33.5772 18.386 33.5772C18.328 33.5772 18.289 33.5391 18.289 33.481C18.289 33.423 19.28 30.3704 20.4849 26.6992C21.6898 23.0181 23.1576 18.526 23.7505 16.7198H23.7497Z" fill="#FC6D26"/>
<path fill-rule="evenodd" clip-rule="evenodd" d="M51.7189 8.1027C53.0607 8.13172 53.4297 8.1707 54.0027 8.35397C54.3817 8.47007 54.9647 8.71055 55.3146 8.8847C55.6646 9.05885 56.1315 9.33914 56.3645 9.50333C56.5884 9.66753 56.7725 9.86075 56.7725 9.9188C56.7725 9.9868 56.5784 10.4014 56.3355 10.8368C56.0925 11.2904 55.8296 11.6387 55.7525 11.6387C55.6745 11.6387 55.4025 11.5035 55.1405 11.3485C54.826 11.1536 54.494 10.9887 54.1487 10.8559C53.7574 10.7195 53.3584 10.6066 52.9537 10.5175C52.5938 10.4404 51.9428 10.3824 51.4959 10.3824C51.0588 10.3824 50.4178 10.4404 50.067 10.5175C49.7171 10.5855 49.1341 10.7879 48.7551 10.962C48.2891 11.1843 47.8811 11.4845 47.4341 11.919C46.9772 12.3726 46.6952 12.769 46.4423 13.2807C46.2582 13.677 46.0152 14.2857 45.9174 14.6332C45.7814 15.1448 45.7432 15.6184 45.7432 17.1931C45.7432 18.9512 45.7623 19.1933 45.9754 19.8501C46.1023 20.2457 46.3353 20.8353 46.5004 21.1537C46.6563 21.473 47.0352 21.9847 47.3363 22.294C47.6381 22.6033 48.1141 22.9897 48.3861 23.144C48.6681 23.299 49.222 23.5113 49.601 23.6167C50.1259 23.7626 50.6019 23.8107 51.4279 23.8107C52.1759 23.8107 52.7688 23.7527 53.9057 23.4624L53.9546 18.3044H49.8722V17.1931C49.8722 16.295 49.9012 16.0728 50.0181 16.0338C50.0952 16.0048 51.505 15.9857 53.1469 15.9857C54.7988 15.9857 56.1887 16.0239 56.2467 16.0628C56.3247 16.1109 56.3836 17.4063 56.4317 20.4298C56.4706 22.7965 56.4806 24.8249 56.4416 24.941C56.4126 25.0762 56.2376 25.2213 56.0137 25.3175C55.8197 25.4046 55.1488 25.5978 54.5368 25.762C53.5748 26.0132 53.1859 26.0613 51.767 26.1003C50.5231 26.1385 49.9203 26.1194 49.3373 26.0033C48.807 25.8969 48.2867 25.7451 47.7824 25.5497C47.2918 25.3512 46.8202 25.1086 46.3735 24.8249C45.9676 24.5549 45.5929 24.2406 45.2564 23.8878C44.9414 23.5509 44.6583 23.1856 44.4106 22.7965C44.1666 22.3757 43.9492 21.94 43.7596 21.4921C43.6037 21.0957 43.3806 20.3137 43.2637 19.7531C43.0979 18.9802 43.0498 18.3914 43.0498 17.2902C43.0406 16.3622 43.0987 15.5222 43.2057 14.9425C43.2927 14.459 43.4486 13.7832 43.5647 13.4448C43.6817 13.1165 43.9246 12.5268 44.1187 12.1313C44.3227 11.7448 44.7017 11.1461 44.9836 10.8078C45.2656 10.4694 45.7416 9.99592 46.0534 9.7546C46.3635 9.51329 46.8594 9.19402 47.1513 9.03977C47.4424 8.87558 47.9474 8.65333 48.2684 8.54719C48.5893 8.43109 49.1333 8.27685 49.4832 8.20885C49.9211 8.11265 50.611 8.08363 51.7189 8.1027ZM59.7753 8.35397H62.215V10.7688L59.8342 10.7207L59.7753 8.35397ZM65.6067 8.35397H68.0456V12.4116H69.8434C71.3112 12.4116 71.6604 12.4406 71.7872 12.5559C71.8843 12.6628 71.9332 12.9133 71.9332 13.4739C71.9332 14.0535 71.8942 14.2857 71.7773 14.3919C71.6512 14.508 71.2913 14.5362 68.0456 14.5362V18.1783C68.0356 21.1537 68.0646 21.9266 68.1915 22.3329C68.2786 22.6705 68.4635 22.9698 68.6974 23.212C68.9557 23.4531 69.2641 23.6343 69.6004 23.7427C69.9404 23.8488 70.4364 23.9069 70.9804 23.9069C71.6512 23.9069 71.8453 23.9359 71.8843 24.052C71.9033 24.1291 71.9332 24.5645 71.9332 25.0181C71.9332 25.6367 71.8942 25.8781 71.7773 25.9842C71.6612 26.1003 71.3693 26.1293 70.4844 26.1293C69.7754 26.1293 69.1435 26.0713 68.7745 25.9743C68.4429 25.8929 68.118 25.7865 67.8026 25.6558C67.5886 25.5687 67.2196 25.3175 66.9866 25.1052C66.7345 24.8874 66.5123 24.6373 66.3257 24.3613C66.1988 24.1681 65.9948 23.7336 65.8779 23.3952C65.6647 22.7965 65.6647 22.7866 65.6357 15.5703L65.6067 8.35397ZM74.5562 8.35397H75.771C76.7628 8.35397 76.9859 8.38299 77.0348 8.49909C77.0539 8.58533 77.0829 11.9961 77.0829 23.5205H80.4846C82.3504 23.5205 83.9443 23.5495 84.0314 23.5694C84.1483 23.6175 84.1773 23.8298 84.1773 25.8391H79.4157C75.266 25.8391 74.6441 25.83 74.6059 25.6948C74.5761 25.6168 74.5562 21.6853 74.5562 16.9518V8.35397ZM90.6887 12.1404C91.1439 12.1374 91.5986 12.1698 92.0487 12.2374C92.3887 12.2955 92.9427 12.4597 93.2636 12.6048C93.5845 12.74 94.0415 13.0493 94.2844 13.2906C94.5274 13.5228 94.8475 13.9565 94.9835 14.2467C95.1295 14.5461 95.3144 15.0876 95.3923 15.4542C95.5084 16.0048 95.5375 17.0679 95.5474 25.8391L93.7496 25.791L93.3606 24.3232L93.1085 24.6707C92.9725 24.8639 92.6417 25.1632 92.3796 25.3366C92.1167 25.5107 91.6606 25.7429 91.3687 25.859C90.9732 25.9849 90.5663 26.0721 90.1539 26.1194C89.6849 26.1595 89.2133 26.1561 88.7449 26.1094C88.2926 26.0606 87.8503 25.9434 87.433 25.762C87.1121 25.6168 86.6751 25.3473 86.4711 25.1632C86.2354 24.9528 86.0322 24.7085 85.8682 24.4385C85.7076 24.1453 85.5744 23.838 85.4702 23.5205C85.3731 23.1921 85.3043 22.6613 85.3043 22.0717C85.3043 21.376 85.3532 21.0094 85.5183 20.526C85.6352 20.1876 85.8782 19.705 86.0531 19.4637C86.2281 19.2315 86.6262 18.8641 86.9471 18.6518C87.3152 18.4145 87.7057 18.2139 88.113 18.0531C88.5404 17.9094 88.9793 17.8026 89.4249 17.7338C89.8329 17.6667 90.7957 17.6277 93.1376 17.6758L93.0886 16.9037C93.0596 16.4883 92.9626 15.9567 92.8747 15.7444C92.7691 15.5088 92.6282 15.2906 92.4567 15.0976C92.3116 14.9516 91.9716 14.7393 91.7087 14.6232C91.3107 14.4491 91.0387 14.4109 90.2998 14.4209C89.7558 14.4209 89.114 14.498 88.7449 14.595C88.395 14.6813 87.783 14.9135 87.3841 15.0967C86.9761 15.2808 86.5971 15.4061 86.5291 15.3671C86.4611 15.3381 86.2571 15.0387 86.0722 14.7103C85.8881 14.3819 85.7322 14.0535 85.7322 13.9864C85.7322 13.9184 86.0432 13.6571 86.4321 13.4059C86.821 13.1455 87.5301 12.798 88.016 12.6239C88.492 12.4497 89.1239 12.2665 89.4249 12.2275C89.8443 12.1751 90.2662 12.1461 90.6887 12.1404ZM89.036 19.9272C88.696 20.1014 88.4049 20.3419 88.2101 20.613C87.948 20.9804 87.909 21.1247 87.89 21.7724C87.8609 22.4001 87.89 22.5743 88.084 22.8927C88.249 23.1829 88.453 23.3571 88.8909 23.5694C89.3569 23.8016 89.5999 23.8488 90.1539 23.8596C90.5428 23.8596 91.0768 23.7916 91.4177 23.6855C91.8112 23.5525 92.1865 23.3705 92.5347 23.144L93.0696 22.7874L93.1177 19.608C92.5555 19.5185 91.9868 19.4767 91.4177 19.4827C90.9898 19.4827 90.3968 19.5308 90.1058 19.5789C89.7359 19.6494 89.3765 19.7664 89.036 19.9272ZM60.9711 12.4207C61.4952 12.4207 61.982 12.4406 62.069 12.4597C62.1951 12.5078 62.215 13.3387 62.215 25.8391H59.7852L59.7662 19.1834C59.7463 13.4448 59.7662 12.5177 59.8822 12.4787C59.9602 12.4497 60.4462 12.4307 60.9711 12.4207Z" fill="#8C929D"/>
</g>
<defs>
<clipPath id="clip0_337_4925">
<rect width="109.463" height="34" fill="white"/>
</clipPath>
</defs>
</svg>
