<svg width="180" height="60" viewBox="0 0 180 60" fill="none" xmlns="http://www.w3.org/2000/svg">
<path d="M43.2302 21.3649C44.0827 21.3649 44.7738 20.6766 44.7738 19.8277C44.7738 18.9787 44.0827 18.2905 43.2302 18.2905C42.3776 18.2905 41.6865 18.9787 41.6865 19.8277C41.6865 20.6766 42.3776 21.3649 43.2302 21.3649Z" fill="#EA4535"/>
<path d="M43.2302 27.774C44.0827 27.774 44.7738 27.0858 44.7738 26.2369C44.7738 25.3879 44.0827 24.6997 43.2302 24.6997C42.3776 24.6997 41.6865 25.3879 41.6865 26.2369C41.6865 27.0858 42.3776 27.774 43.2302 27.774Z" fill="#EA4535"/>
<path d="M43.2302 34.171C44.0827 34.171 44.7738 33.4828 44.7738 32.6338C44.7738 31.7849 44.0827 31.0967 43.2302 31.0967C42.3776 31.0967 41.6865 31.7849 41.6865 32.6338C41.6865 33.4828 42.3776 34.171 43.2302 34.171Z" fill="#EA4535"/>
<path d="M43.2302 40.5797C44.0827 40.5797 44.7738 39.8915 44.7738 39.0425C44.7738 38.1936 44.0827 37.5054 43.2302 37.5054C42.3776 37.5054 41.6865 38.1936 41.6865 39.0425C41.6865 39.8915 42.3776 40.5797 43.2302 40.5797Z" fill="#EA4535"/>
<path d="M48.7629 18.4325C49.7597 18.4325 50.5677 17.6278 50.5677 16.6352C50.5677 15.6426 49.7597 14.8379 48.7629 14.8379C47.7661 14.8379 46.958 15.6426 46.958 16.6352C46.958 17.6278 47.7661 18.4325 48.7629 18.4325Z" fill="#F9BC15"/>
<path d="M48.7629 24.829C49.7597 24.829 50.5677 24.0243 50.5677 23.0317C50.5677 22.0391 49.7597 21.2344 48.7629 21.2344C47.7661 21.2344 46.958 22.0391 46.958 23.0317C46.958 24.0243 47.7661 24.829 48.7629 24.829Z" fill="#F9BC15"/>
<path d="M48.7629 31.2386C49.7597 31.2386 50.5677 30.434 50.5677 29.4413C50.5677 28.4487 49.7597 27.644 48.7629 27.644C47.7661 27.644 46.958 28.4487 46.958 29.4413C46.958 30.434 47.7661 31.2386 48.7629 31.2386Z" fill="#F9BC15"/>
<path d="M48.7629 37.6351C49.7597 37.6351 50.5677 36.8304 50.5677 35.8378C50.5677 34.8452 49.7597 34.0405 48.7629 34.0405C47.7661 34.0405 46.958 34.8452 46.958 35.8378C46.958 36.8304 47.7661 37.6351 48.7629 37.6351Z" fill="#F9BC15"/>
<path d="M48.7629 44.1625C49.7597 44.1625 50.5677 43.3578 50.5677 42.3652C50.5677 41.3725 49.7597 40.5679 48.7629 40.5679C47.7661 40.5679 46.958 41.3725 46.958 42.3652C46.958 43.3578 47.7661 44.1625 48.7629 44.1625Z" fill="#F9BC15"/>
<path d="M54.2251 22.0153C55.3989 22.0153 56.3505 21.0677 56.3505 19.8988C56.3505 18.7298 55.3989 17.7822 54.2251 17.7822C53.0512 17.7822 52.0996 18.7298 52.0996 19.8988C52.0996 21.0677 53.0512 22.0153 54.2251 22.0153Z" fill="#36A852"/>
<path d="M54.2251 28.4123C55.3989 28.4123 56.3505 27.4647 56.3505 26.2958C56.3505 25.1268 55.3989 24.1792 54.2251 24.1792C53.0512 24.1792 52.0996 25.1268 52.0996 26.2958C52.0996 27.4647 53.0512 28.4123 54.2251 28.4123Z" fill="#36A852"/>
<path d="M54.2251 34.821C55.3989 34.821 56.3505 33.8734 56.3505 32.7044C56.3505 31.5355 55.3989 30.5879 54.2251 30.5879C53.0512 30.5879 52.0996 31.5355 52.0996 32.7044C52.0996 33.8734 53.0512 34.821 54.2251 34.821Z" fill="#36A852"/>
<path d="M54.2251 41.2185C55.3989 41.2185 56.3505 40.2708 56.3505 39.1019C56.3505 37.933 55.3989 36.9854 54.2251 36.9854C53.0512 36.9854 52.0996 37.933 52.0996 39.1019C52.0996 40.2708 53.0512 41.2185 54.2251 41.2185Z" fill="#36A852"/>
<path d="M59.6873 25.4683C61.0382 25.4683 62.1333 24.3778 62.1333 23.0325C62.1333 21.6872 61.0382 20.5967 59.6873 20.5967C58.3364 20.5967 57.2412 21.6872 57.2412 23.0325C57.2412 24.3778 58.3364 25.4683 59.6873 25.4683Z" fill="#557EBF"/>
<path d="M37.7082 24.3094C38.4164 24.3094 38.9906 23.7377 38.9906 23.0324C38.9906 22.3271 38.4164 21.7554 37.7082 21.7554C36.9999 21.7554 36.4258 22.3271 36.4258 23.0324C36.4258 23.7377 36.9999 24.3094 37.7082 24.3094Z" fill="#557EBF"/>
<path d="M37.7082 30.7181C38.4164 30.7181 38.9906 30.1464 38.9906 29.4411C38.9906 28.7358 38.4164 28.1641 37.7082 28.1641C36.9999 28.1641 36.4258 28.7358 36.4258 29.4411C36.4258 30.1464 36.9999 30.7181 37.7082 30.7181Z" fill="#557EBF"/>
<path d="M37.7082 37.1156C38.4164 37.1156 38.9906 36.5438 38.9906 35.8386C38.9906 35.1333 38.4164 34.5615 37.7082 34.5615C36.9999 34.5615 36.4258 35.1333 36.4258 35.8386C36.4258 36.5438 36.9999 37.1156 37.7082 37.1156Z" fill="#557EBF"/>
<path d="M59.6873 31.877C61.0382 31.877 62.1333 30.7864 62.1333 29.4412C62.1333 28.0959 61.0382 27.0054 59.6873 27.0054C58.3364 27.0054 57.2412 28.0959 57.2412 29.4412C57.2412 30.7864 58.3364 31.877 59.6873 31.877Z" fill="#557EBF"/>
<path d="M59.6873 38.2745C61.0382 38.2745 62.1333 37.1839 62.1333 35.8386C62.1333 34.4934 61.0382 33.4028 59.6873 33.4028C58.3364 33.4028 57.2412 34.4934 57.2412 35.8386C57.2412 37.1839 58.3364 38.2745 59.6873 38.2745Z" fill="#557EBF"/>
<path d="M86.1333 29.89C86.1333 31.7471 85.5823 33.2267 84.4804 34.3286C83.2423 35.641 81.6142 36.2971 79.5961 36.2971C77.6647 36.2971 76.0304 35.6286 74.6933 34.2914C73.3561 32.9543 72.6875 31.3076 72.6875 29.3514C72.6875 27.3952 73.3561 25.7486 74.6933 24.4114C76.0304 23.0743 77.6647 22.4057 79.5961 22.4057C80.5742 22.4057 81.4966 22.579 82.3633 22.9257C83.2299 23.2724 83.9418 23.7614 84.499 24.3929L83.2733 25.6186C82.8647 25.1233 82.3323 24.7395 81.6761 24.4671C81.0323 24.1824 80.339 24.04 79.5961 24.04C78.1475 24.04 76.9218 24.5414 75.919 25.5443C74.9285 26.5595 74.4333 27.8286 74.4333 29.3514C74.4333 30.8743 74.9285 32.1433 75.919 33.1586C76.9218 34.1614 78.1475 34.6629 79.5961 34.6629C80.9209 34.6629 82.0228 34.2914 82.9018 33.5486C83.7809 32.8057 84.2885 31.7843 84.4247 30.4843H79.5961V28.8871H86.0404C86.1023 29.2338 86.1333 29.5681 86.1333 29.89ZM87.4871 31.45C87.4871 30.051 87.9266 28.8933 88.8057 27.9771C89.6971 27.061 90.8176 26.6029 92.1671 26.6029C93.5166 26.6029 94.6309 27.061 95.5099 27.9771C96.4014 28.8933 96.8471 30.051 96.8471 31.45C96.8471 32.8614 96.4014 34.019 95.5099 34.9229C94.6309 35.839 93.5166 36.2971 92.1671 36.2971C90.8176 36.2971 89.6971 35.839 88.8057 34.9229C87.9266 34.0067 87.4871 32.849 87.4871 31.45ZM89.1957 31.45C89.1957 32.4281 89.4804 33.2205 90.0499 33.8271C90.6195 34.4338 91.3252 34.7371 92.1671 34.7371C93.009 34.7371 93.7147 34.4338 94.2842 33.8271C94.8538 33.2205 95.1385 32.4281 95.1385 31.45C95.1385 30.4843 94.8538 29.6981 94.2842 29.0914C93.7023 28.4724 92.9966 28.1629 92.1671 28.1629C91.3376 28.1629 90.6318 28.4724 90.0499 29.0914C89.4804 29.6981 89.1957 30.4843 89.1957 31.45ZM98.0648 31.45C98.0648 30.051 98.5043 28.8933 99.3834 27.9771C100.274 27.061 101.395 26.6029 102.744 26.6029C104.094 26.6029 105.208 27.061 106.087 27.9771C106.979 28.8933 107.424 30.051 107.424 31.45C107.424 32.8614 106.979 34.019 106.087 34.9229C105.208 35.839 104.094 36.2971 102.744 36.2971C101.395 36.2971 100.274 35.839 99.3834 34.9229C98.5043 34.0067 98.0648 32.849 98.0648 31.45ZM99.7734 31.45C99.7734 32.4281 100.058 33.2205 100.627 33.8271C101.197 34.4338 101.903 34.7371 102.744 34.7371C103.586 34.7371 104.292 34.4338 104.862 33.8271C105.431 33.2205 105.716 32.4281 105.716 31.45C105.716 30.4843 105.431 29.6981 104.862 29.0914C104.28 28.4724 103.574 28.1629 102.744 28.1629C101.915 28.1629 101.209 28.4724 100.627 29.0914C100.058 29.6981 99.7734 30.4843 99.7734 31.45ZM113.248 34.7371C114.09 34.7371 114.777 34.4338 115.309 33.8271C115.866 33.2205 116.145 32.4281 116.145 31.45C116.145 30.4967 115.866 29.7105 115.309 29.0914C114.765 28.4724 114.077 28.1629 113.248 28.1629C112.431 28.1629 111.744 28.4724 111.186 29.0914C110.629 29.7105 110.351 30.4967 110.351 31.45C110.351 32.4157 110.629 33.2019 111.186 33.8086C111.744 34.4276 112.431 34.7371 113.248 34.7371ZM113.192 40.3086C112.685 40.3086 112.208 40.2405 111.762 40.1043C111.316 39.9805 110.908 39.801 110.536 39.5657C110.177 39.3305 109.868 39.0519 109.608 38.73C109.348 38.4081 109.15 38.049 109.014 37.6529L110.629 36.9843C110.815 37.5167 111.137 37.9438 111.595 38.2657C112.053 38.5876 112.585 38.7486 113.192 38.7486C114.121 38.7486 114.845 38.47 115.365 37.9129C115.885 37.3557 116.145 36.5881 116.145 35.61V34.7371H116.071C115.749 35.22 115.309 35.6038 114.752 35.8886C114.207 36.161 113.613 36.2971 112.969 36.2971C111.781 36.2971 110.759 35.8329 109.905 34.9043C109.063 33.951 108.642 32.7995 108.642 31.45C108.642 30.1005 109.063 28.9552 109.905 28.0143C110.759 27.0733 111.781 26.6029 112.969 26.6029C113.613 26.6029 114.207 26.7452 114.752 27.03C115.309 27.3024 115.749 27.68 116.071 28.1629H116.145V26.9H117.779V35.61C117.779 37.071 117.365 38.2162 116.535 39.0457C115.693 39.8876 114.579 40.3086 113.192 40.3086ZM121.757 22.7029V36H120.048V22.7029H121.757ZM128.019 36.2971C126.682 36.2971 125.58 35.839 124.714 34.9229C123.847 34.0067 123.414 32.849 123.414 31.45C123.414 30.0633 123.835 28.9119 124.677 27.9957C125.518 27.0671 126.596 26.6029 127.908 26.6029C129.258 26.6029 130.328 27.0424 131.121 27.9214C131.926 28.7881 132.328 30.0076 132.328 31.58L132.309 31.7657H125.159C125.184 32.6571 125.481 33.3752 126.051 33.92C126.62 34.4648 127.301 34.7371 128.094 34.7371C129.183 34.7371 130.038 34.1924 130.657 33.1029L132.179 33.8457C131.771 34.6133 131.201 35.2138 130.471 35.6471C129.753 36.0805 128.936 36.2971 128.019 36.2971ZM125.289 30.3543H130.508C130.458 29.7229 130.198 29.2029 129.728 28.7943C129.27 28.3733 128.651 28.1629 127.871 28.1629C127.227 28.1629 126.67 28.361 126.199 28.7571C125.741 29.1533 125.438 29.6857 125.289 30.3543ZM142.906 24.8014L140.733 30.8H145.153L142.98 24.8014H142.906ZM138.857 36H136.963L141.977 22.7029H143.909L148.923 36H147.029L145.747 32.3971H140.157L138.857 36ZM152.377 36H150.668V22.7029H152.377V36Z" fill="#7C7C7C"/>
</svg>
