<svg width="151" height="34" viewBox="0 0 151 34" fill="none" xmlns="http://www.w3.org/2000/svg">
<path d="M23.9144 25.6134C23.8578 25.6134 23.8578 25.6133 23.8011 25.5567L16.874 15.7228C16.874 15.6662 16.874 15.6662 16.874 15.6096L21.8759 4.68098C21.8759 4.62435 21.9325 4.62435 21.9891 4.62435L33.937 3.4541C33.9936 3.4541 33.9936 3.4541 34.0503 3.51073L40.9963 13.3446C40.9963 13.4012 40.9963 13.4012 40.9963 13.4578L35.9566 24.3865C35.9566 24.4431 35.9 24.4431 35.8434 24.4431L23.9144 25.6134ZM17.1194 15.6662L23.971 25.3491L35.8056 24.2543L40.7886 13.4578L33.937 3.71835L22.1024 4.8131L17.1194 15.6662Z" fill="#313335"/>
<path d="M23.8575 25.6135L21.9512 15.6098V4.68115L31.3509 7.45578L41.0338 13.458L33.7858 19.8567L23.8575 25.6135ZM22.0267 4.81328V15.6098L23.933 25.4059L33.6537 19.7811L40.7129 13.458L31.1433 7.5124L22.0267 4.81328Z" fill="#313335"/>
<path d="M31.4651 7.87082C31.6631 7.87082 31.8237 7.71025 31.8237 7.51219C31.8237 7.31413 31.6631 7.15356 31.4651 7.15356C31.267 7.15356 31.1064 7.31413 31.1064 7.51219C31.1064 7.71025 31.267 7.87082 31.4651 7.87082Z" fill="#313335"/>
<path d="M31.4646 8.24838C31.106 8.24838 30.7285 7.94637 30.7285 7.51225C30.7285 7.15362 31.0305 6.77612 31.4646 6.77612C31.8233 6.77612 32.2008 7.07812 32.2008 7.51225C32.1253 7.90862 31.8421 8.24838 31.4646 8.24838Z" fill="#313335"/>
<path d="M33.7864 20.1584C33.9844 20.1584 34.145 19.9978 34.145 19.7998C34.145 19.6017 33.9844 19.4412 33.7864 19.4412C33.5883 19.4412 33.4277 19.6017 33.4277 19.7998C33.4277 19.9978 33.5883 20.1584 33.7864 20.1584Z" fill="#313335"/>
<path d="M33.7859 20.536C33.4273 20.536 33.0498 20.234 33.0498 19.7998C33.0498 19.3657 33.3518 19.0637 33.7859 19.0637C34.1446 19.0637 34.5221 19.3657 34.5221 19.7998C34.5221 20.234 34.1634 20.536 33.7859 20.536ZM33.7859 19.7998C33.7293 19.7998 33.7293 19.7998 33.7859 19.7998V19.7998Z" fill="#313335"/>
<path d="M23.9719 25.8398C24.17 25.8398 24.3305 25.6792 24.3305 25.4812C24.3305 25.2831 24.17 25.1226 23.9719 25.1226C23.7738 25.1226 23.6133 25.2831 23.6133 25.4812C23.6133 25.6792 23.7738 25.8398 23.9719 25.8398Z" fill="#313335"/>
<path d="M23.9715 26.2174C23.6129 26.2174 23.2354 25.9154 23.2354 25.4812C23.2354 25.1226 23.5374 24.7451 23.9715 24.7451C24.4056 24.7451 24.7076 25.0471 24.7076 25.4812C24.7076 25.9154 24.4245 26.2174 23.9715 26.2174Z" fill="#313335"/>
<path d="M22.0276 16.0249C22.2256 16.0249 22.3862 15.8643 22.3862 15.6662C22.3862 15.4682 22.2256 15.3076 22.0276 15.3076C21.8295 15.3076 21.6689 15.4682 21.6689 15.6662C21.6689 15.8643 21.8295 16.0249 22.0276 16.0249Z" fill="#313335"/>
<path d="M22.0271 16.4024C21.6685 16.4024 21.291 16.1004 21.291 15.6663C21.291 15.3077 21.593 14.9302 22.0271 14.9302C22.4613 14.9302 22.7633 15.2322 22.7633 15.6663C22.6878 16.1193 22.3858 16.4024 22.0271 16.4024ZM22.0271 15.6663C21.9516 15.6663 21.9516 15.7229 22.0271 15.6663V15.6663Z" fill="#313335"/>
<path d="M40.9026 13.8164C41.1006 13.8164 41.2612 13.6558 41.2612 13.4577C41.2612 13.2597 41.1006 13.0991 40.9026 13.0991C40.7045 13.0991 40.5439 13.2597 40.5439 13.4577C40.5439 13.6558 40.7045 13.8164 40.9026 13.8164Z" fill="#313335"/>
<path d="M40.9021 14.1939C40.5435 14.1939 40.166 13.8919 40.166 13.4578C40.166 13.0992 40.468 12.7217 40.9021 12.7217C41.2608 12.7217 41.6383 13.0237 41.6383 13.4578C41.6383 13.8542 41.2796 14.1939 40.9021 14.1939Z" fill="#313335"/>
<path d="M22.0276 5.05856C22.2256 5.05856 22.3862 4.898 22.3862 4.69993C22.3862 4.50187 22.2256 4.34131 22.0276 4.34131C21.8295 4.34131 21.6689 4.50187 21.6689 4.69993C21.6689 4.898 21.8295 5.05856 22.0276 5.05856Z" fill="#313335"/>
<path d="M22.0271 5.43612C21.6685 5.43612 21.291 5.13412 21.291 4.69999C21.291 4.34137 21.593 3.96387 22.0271 3.96387C22.4613 3.96387 22.7633 4.26587 22.7633 4.69999C22.6878 5.13412 22.3858 5.43612 22.0271 5.43612ZM22.0271 4.69999C21.9516 4.75662 21.9516 4.75662 22.0271 4.69999V4.69999Z" fill="#313335"/>
<path d="M35.8623 24.4996L26.6701 21.2531L16.874 15.7227C16.8174 15.7227 16.8174 15.6661 16.8174 15.6661C16.8174 15.6095 16.8174 15.6095 16.874 15.5528L24.2353 8.81447L33.8615 3.54834C33.9181 3.54834 33.9181 3.54834 33.9748 3.54834C34.0314 3.54834 34.0314 3.60497 34.0314 3.60497L36.1831 13.118L35.9566 24.3863C35.9378 24.443 35.9378 24.443 35.8623 24.4996ZM17.176 15.6095L26.8023 20.9888L35.749 24.1598L35.9755 13.0613L33.8238 3.73709L24.3674 8.94659L17.176 15.6095Z" fill="#313335"/>
<path d="M33.7858 19.8566L21.8945 15.7419L21.9512 15.6852L31.4642 7.47461L33.7858 19.8566ZM22.0267 15.6664L33.748 19.7056L31.4264 7.56898L22.0267 15.6664Z" fill="#313335"/>
<path d="M26.6891 21.3854L24.1787 8.75806L36.3153 13.1182L26.6891 21.3854ZM24.4807 9.04118L26.8023 20.8758L35.8623 13.0804L24.4807 9.04118Z" fill="#313335"/>
<path d="M22.0939 4.63393L21.8965 4.74487L24.2355 8.90805L24.4329 8.79711L22.0939 4.63393Z" fill="#313335"/>
<path d="M24.1028 25.5567L23.9141 25.4246L26.6887 21.0645L26.8586 21.2155L24.1028 25.5567Z" fill="#313335"/>
<path d="M36.1249 13.0029L36.1084 13.2288L40.8709 13.5767L40.8874 13.3508L36.1249 13.0029Z" fill="#313335"/>
<path d="M46.376 10.4568H48.2824V13.7033H52.0196V10.4568H53.926V19.177H52.0196V15.4398H48.2824V19.177H46.376V10.4568Z" fill="#313335"/>
<path d="M57.7768 15.4964L54.4736 10.4568H56.8519L58.6828 13.7033L60.6458 10.4568H62.9108L59.6643 15.4964V19.2337H57.7579V15.4964H57.7768Z" fill="#313335"/>
<path d="M63.4769 10.4569H66.7234C67.1575 10.4569 67.5728 10.5135 68.0258 10.5701C68.4599 10.6267 68.7619 10.7966 69.0639 11.0042C69.3659 11.1741 69.6301 11.5139 69.8 11.797C69.9699 12.1556 70.0265 12.5897 70.0265 13.0994C70.0265 13.609 69.9699 14.0054 69.8 14.4017C69.6301 14.7604 69.4414 15.0246 69.1205 15.1945C68.8185 15.3644 68.4976 15.5531 68.0824 15.6286C67.7238 15.6852 67.2896 15.7419 66.78 15.7419H65.3644V19.1016H63.458V10.438H63.4769V10.4569ZM65.3644 14.1375H66.6668C66.8366 14.1375 67.0254 14.1375 67.1764 14.0809C67.3463 14.0242 67.4784 14.0242 67.6105 13.911C67.7238 13.8544 67.837 13.7411 67.9125 13.609C67.988 13.4769 68.0258 13.307 68.0258 13.0994C68.0258 12.8729 67.9691 12.6652 67.8559 12.5331C67.7426 12.401 67.6294 12.3066 67.4973 12.2311C67.3274 12.1745 67.1386 12.1179 66.931 12.1179C66.7234 12.1179 66.5724 12.1179 66.3648 12.1179H65.4021L65.3644 14.1375Z" fill="#313335"/>
<path d="M71.1963 10.4568H77.1419V12.231H73.1593V13.8732H76.9532V15.6474H73.1593V17.4217H77.4062V19.1959H71.2907L71.1963 10.4568Z" fill="#313335"/>
<path d="M78.7275 10.4569H82.1062C82.5403 10.4569 82.9555 10.5135 83.4085 10.5701C83.8427 10.6267 84.1447 10.7966 84.4467 11.0042C84.7487 11.1741 85.0129 11.5139 85.1828 11.797C85.3527 12.1556 85.4093 12.5331 85.4093 13.0994C85.4093 13.7222 85.2394 14.2696 84.8997 14.6849C84.5977 15.119 84.1069 15.421 83.484 15.4776L85.6924 19.1582H83.3897L81.5588 15.6475H80.6528V19.1582H78.7464V10.438H78.7275V10.4569ZM80.7094 14.0809H81.8797C82.0495 14.0809 82.2383 14.0809 82.4459 14.0809C82.6535 14.0809 82.8045 14.0242 83.0122 13.9676C83.182 13.911 83.3142 13.7977 83.3708 13.6656C83.484 13.5524 83.484 13.3636 83.484 13.0994C83.484 12.8351 83.4274 12.6652 83.3708 12.5331C83.3142 12.401 83.2009 12.3066 83.0122 12.2311C82.8989 12.1745 82.7102 12.1179 82.5025 12.1179C82.2949 12.1179 82.1439 12.0612 81.9363 12.0612H80.6339L80.7094 14.0809Z" fill="#313335"/>
<path d="M86.7119 10.4568H88.6183V17.3839H92.1856V19.1582H86.6553L86.7119 10.4568Z" fill="#313335"/>
<path d="M93.2236 10.4568H99.1693V12.231H95.1866V13.8732H98.9805V15.6474H95.1866V17.4217H99.4335V19.1959H93.318L93.2236 10.4568Z" fill="#313335"/>
<path d="M100.755 10.4568H103.642C104.322 10.4568 105.001 10.5134 105.605 10.6833C106.209 10.8532 106.776 11.1174 107.248 11.4194C107.757 11.778 108.097 12.2122 108.342 12.7784C108.644 13.3447 108.776 14.0242 108.776 14.8169C108.776 15.553 108.663 16.1759 108.342 16.6478C108.116 17.214 107.719 17.6104 107.248 18.0068C106.813 18.3654 106.285 18.6297 105.662 18.8562C105.039 19.026 104.416 19.1582 103.831 19.1582H100.717L100.755 10.4568ZM102.736 17.4594H103.699C104.133 17.4594 104.548 17.4028 104.945 17.3462C105.303 17.2895 105.681 17.1197 105.907 16.912C106.209 16.7422 106.417 16.4024 106.587 16.1193C106.757 15.7607 106.813 15.3832 106.813 14.8735C106.813 14.4394 106.757 14.0808 106.587 13.7788C106.417 13.4768 106.228 13.2125 105.907 12.986C105.681 12.8162 105.285 12.6274 104.945 12.4764C104.586 12.3254 104.209 12.3065 103.775 12.3632H102.604L102.736 17.4594Z" fill="#313335"/>
<path d="M117.95 18.4974C117.384 18.7994 116.78 19.0071 116.176 19.1203C115.553 19.2336 114.93 19.2902 114.269 19.2902C113.609 19.2902 112.967 19.1769 112.363 18.9882C111.797 18.8183 111.268 18.4786 110.891 18.0822C110.456 17.7236 110.154 17.2328 109.928 16.6099C109.701 16.0437 109.569 15.3642 109.569 14.7036C109.569 14.0429 109.683 13.3446 109.928 12.7972C110.173 12.2498 110.494 11.7591 110.891 11.3249C111.325 10.8908 111.797 10.5888 112.363 10.4189C112.929 10.2491 113.609 10.1169 114.269 10.1169C114.93 10.1169 115.628 10.1736 116.176 10.3434C116.798 10.5133 117.27 10.7776 117.704 11.1928L116.345 12.6651C116.119 12.4386 115.779 12.1554 115.496 12.0422C115.213 11.9289 114.76 11.8723 114.25 11.8723C113.816 11.8723 113.458 11.9289 113.156 12.0422C112.854 12.1554 112.533 12.3442 112.306 12.6651C112.08 12.8916 111.872 13.2313 111.74 13.5711C111.627 13.9297 111.57 14.3072 111.57 14.6658C111.57 15.0999 111.627 15.4586 111.74 15.7606C111.853 16.1192 112.042 16.3834 112.306 16.6099C112.57 16.8364 112.872 17.0441 113.156 17.2328C113.458 17.3461 113.892 17.4027 114.25 17.4027C114.684 17.4027 115.043 17.3461 115.345 17.2894C115.647 17.1762 115.911 17.1196 116.081 16.9874V15.5718H114.496V13.7976H117.931L117.95 18.4974Z" fill="#313335"/>
<path d="M119.592 10.4568H125.537V12.231H121.555V13.8732H125.349V15.6474H121.555V17.4217H125.802V19.1959H119.686L119.592 10.4568Z" fill="#313335"/>
<path d="M127.143 10.4568H130.521C130.955 10.4568 131.371 10.5134 131.824 10.57C132.258 10.6267 132.56 10.7965 132.862 11.0042C133.164 11.174 133.428 11.5138 133.598 11.7969C133.768 12.1555 133.824 12.533 133.824 13.0993C133.824 13.7222 133.654 14.2695 133.315 14.6848C133.013 15.1189 132.522 15.3643 131.899 15.4775L134.107 19.1582H131.786L129.955 15.6474H129.049V19.1582H127.143V10.4568ZM129.106 14.0808H130.276C130.446 14.0808 130.634 14.0808 130.842 14.0808C131.012 14.0808 131.201 14.0242 131.408 13.9675C131.578 13.9109 131.71 13.7977 131.767 13.6655C131.88 13.5523 131.937 13.3635 131.937 13.0993C131.937 12.835 131.88 12.6652 131.824 12.533C131.767 12.4009 131.654 12.3065 131.465 12.231C131.352 12.1744 131.163 12.1178 130.955 12.1178C130.785 12.1178 130.597 12.0612 130.389 12.0612H129.106V14.0808Z" fill="#313335"/>
</svg>
