<svg width="180" height="60" viewBox="0 0 180 60" fill="none" xmlns="http://www.w3.org/2000/svg">
<path d="M84.0586 36V28.1484H86.1973V36H84.0586ZM85.128 27.2842C84.4835 27.2842 83.9854 26.7935 83.9854 26.1782C83.9854 25.5557 84.4835 25.0723 85.128 25.0723C85.7725 25.0723 86.2706 25.5557 86.2706 26.1782C86.2706 26.7935 85.7725 27.2842 85.128 27.2842ZM87.6768 36V25.4312H89.8155V36H87.6768ZM91.3096 36V25.4312H93.4482V36H91.3096ZM102.143 28.1484V36H100.077V34.5864H100.033C99.6445 35.5752 98.8682 36.1465 97.6816 36.1465C95.9824 36.1465 94.8546 35.0405 94.8546 33.2095V28.1484H96.9932V32.7627C96.9932 33.8101 97.5133 34.3667 98.4581 34.3667C99.4102 34.3667 100.004 33.6855 100.004 32.6455V28.1484H102.143ZM103.402 30.4556C103.402 28.9614 104.699 27.98 106.713 27.98C108.683 27.98 109.965 28.9761 109.994 30.4995H108.024C107.98 29.8696 107.475 29.4814 106.684 29.4814C105.944 29.4814 105.46 29.8184 105.46 30.3237C105.46 30.7119 105.797 30.9756 106.486 31.1367L107.987 31.459C109.562 31.8105 110.199 32.4331 110.199 33.605C110.199 35.1504 108.778 36.1685 106.706 36.1685C104.611 36.1685 103.322 35.1577 103.205 33.627H105.292C105.395 34.2861 105.915 34.667 106.764 34.667C107.577 34.667 108.068 34.3447 108.068 33.832C108.068 33.4365 107.804 33.2168 107.101 33.0483L105.651 32.7261C104.164 32.3892 103.402 31.6128 103.402 30.4556ZM111.84 26.3394H113.979V28.1484H115.429V29.7598H113.979V33.5171C113.979 34.1177 114.271 34.4033 114.901 34.4033C115.092 34.4033 115.29 34.3887 115.421 34.3667V35.9414C115.202 35.9927 114.835 36.0293 114.403 36.0293C112.558 36.0293 111.84 35.4141 111.84 33.8833V29.7598H110.734V28.1484H111.84V26.3394ZM116.601 36V28.1484H118.666V29.562H118.71C118.988 28.5659 119.655 28.0239 120.578 28.0239C120.827 28.0239 121.039 28.0605 121.186 28.1045V29.9868C121.01 29.9136 120.717 29.8623 120.409 29.8623C119.354 29.8623 118.739 30.5068 118.739 31.6128V36H116.601ZM124.906 34.5791C125.836 34.5791 126.605 33.9712 126.605 33.1216V32.5503L124.95 32.6528C124.152 32.7114 123.698 33.0703 123.698 33.627C123.698 34.2129 124.181 34.5791 124.906 34.5791ZM124.203 36.1245C122.709 36.1245 121.574 35.1577 121.574 33.7441C121.574 32.3159 122.672 31.4883 124.628 31.3711L126.605 31.2539V30.7339C126.605 30.0015 126.093 29.5767 125.287 29.5767C124.489 29.5767 123.983 29.9722 123.881 30.5508H121.925C122.006 29.0273 123.302 27.98 125.382 27.98C127.396 27.98 128.708 29.02 128.708 30.6021V36H126.642V34.7988H126.598C126.159 35.6338 125.185 36.1245 124.203 36.1245ZM130.663 26.3394H132.802V28.1484H134.252V29.7598H132.802V33.5171C132.802 34.1177 133.095 34.4033 133.725 34.4033C133.915 34.4033 134.113 34.3887 134.245 34.3667V35.9414C134.025 35.9927 133.659 36.0293 133.227 36.0293C131.381 36.0293 130.663 35.4141 130.663 33.8833V29.7598H129.557V28.1484H130.663V26.3394ZM138.91 36.1685C136.537 36.1685 135.021 34.645 135.021 32.0669C135.021 29.5254 136.559 27.98 138.91 27.98C141.261 27.98 142.799 29.5181 142.799 32.0669C142.799 34.6523 141.283 36.1685 138.91 36.1685ZM138.91 34.5352C139.958 34.5352 140.624 33.6489 140.624 32.0742C140.624 30.5142 139.95 29.6133 138.91 29.6133C137.87 29.6133 137.189 30.5142 137.189 32.0742C137.189 33.6489 137.855 34.5352 138.91 34.5352ZM143.905 36V28.1484H145.971V29.562H146.015C146.293 28.5659 146.959 28.0239 147.882 28.0239C148.131 28.0239 148.344 28.0605 148.49 28.1045V29.9868C148.314 29.9136 148.021 29.8623 147.714 29.8623C146.659 29.8623 146.044 30.5068 146.044 31.6128V36H143.905Z" fill="black"/>
<path fill-rule="evenodd" clip-rule="evenodd" d="M29.0849 14.5222H50.9141C54.2236 14.5222 56.8994 17.198 56.8994 20.5076V41.492C56.8994 44.8016 54.2236 47.4773 50.9141 47.4773H29.0849C25.7754 47.4773 23.0996 44.8016 23.0996 41.492V20.5076C23.0996 17.198 25.7754 14.5222 29.0849 14.5222Z" fill="#330000"/>
<path fill-rule="evenodd" clip-rule="evenodd" d="M39.4787 34.2955H34.2398L33.1696 37.6049C33.1415 37.7317 33.0288 37.8164 32.902 37.8023H30.2543C30.0995 37.8023 30.057 37.7177 30.0995 37.5488L34.6345 24.4936C34.6766 24.3527 34.7191 24.1975 34.7753 24.0287C34.8314 23.733 34.8598 23.423 34.8598 23.1133C34.8458 23.0428 34.9024 22.9726 34.9726 22.9585C34.9866 22.9585 35.0006 22.9585 35.0151 22.9585H38.6203C38.733 22.9585 38.7892 23.0006 38.8035 23.0712L43.9437 37.5769C43.9862 37.7317 43.9437 37.8023 43.803 37.8023H40.8596C40.761 37.8164 40.6623 37.7462 40.6342 37.6475L39.4787 34.2955ZM35.0564 31.4367H38.6335C38.5489 31.1407 38.4362 30.7889 38.3098 30.4227C38.183 30.0425 38.0563 29.6341 37.9296 29.2113C37.7888 28.7749 37.662 28.3522 37.5212 27.9158C37.3805 27.479 37.2537 27.0707 37.141 26.6623C37.0282 26.268 36.9296 25.9018 36.8314 25.5637H36.8033C36.6765 26.1693 36.5216 26.775 36.3244 27.3807C36.1129 28.0566 35.9019 28.7609 35.6765 29.4649C35.4791 30.1832 35.2678 30.8451 35.0564 31.4367ZM47.0135 25.3667C46.5486 25.3808 46.0982 25.1979 45.76 24.8738C45.4359 24.5216 45.267 24.0571 45.281 23.5782C45.267 23.0992 45.4499 22.6488 45.788 22.3247C46.1262 22.0007 46.5767 21.8318 47.0415 21.8318C47.5907 21.8318 48.0134 22.0007 48.323 22.3247C48.6328 22.6629 48.802 23.1133 48.7879 23.5782C48.802 24.0571 48.6332 24.5216 48.295 24.8738C47.9709 25.2119 47.4924 25.3948 47.0135 25.3667ZM45.4363 37.5909V26.7465C45.4363 26.6058 45.4925 26.5492 45.6196 26.5492H48.4081C48.5349 26.5492 48.591 26.6198 48.591 26.7465V37.5909C48.591 37.7458 48.5349 37.8164 48.4081 37.8164H45.6476C45.5069 37.8164 45.4363 37.7317 45.4363 37.5909Z" fill="#FF9A00"/>
</svg>
