<svg width="99" height="35" viewBox="0 0 99 35" fill="none" xmlns="http://www.w3.org/2000/svg">
<path fill-rule="evenodd" clip-rule="evenodd" d="M9.3853 11.2905V13.4242L14.479 12.8939H16.3536V16.3472L13.1963 17.3092L8.9043 18.3452L9.54563 20.4295L13.6526 18.8509L16.3536 18.0245V23.6855H14.479L9.3853 23.1552V25.2889H24.9253V23.1552L19.844 23.6855H17.957V18.0245L20.658 18.8509L24.7773 20.4295L25.4063 18.3452L21.139 17.3092L17.957 16.3472V12.8939H19.844L24.9253 13.4242V11.2905H9.3853Z" fill="black"/>
<path fill-rule="evenodd" clip-rule="evenodd" d="M88.048 18.8385L86.8393 15.6072H86.5433L85.3347 18.8385H88.048ZM90.7737 22.7112H89.4787L88.4673 20.0102H84.903L83.8917 22.7112H82.5967L85.9513 13.7695H87.419L90.7737 22.7112Z" fill="black"/>
<path fill-rule="evenodd" clip-rule="evenodd" d="M76.9105 18.2219C77.8355 18.2219 78.9455 17.9382 78.9455 16.5939C78.9455 15.1632 77.6752 14.9535 76.9105 14.9535H74.1849V18.2342H76.9105V18.2219ZM77.9342 19.2949L80.0925 22.6989H78.6125L76.5405 19.4182H74.1849V22.6989H72.9639V13.7695H76.9105C79.1675 13.7695 80.1665 15.1879 80.1665 16.5939C80.1665 18.6042 78.5139 19.1592 77.9342 19.2949Z" fill="black"/>
<path fill-rule="evenodd" clip-rule="evenodd" d="M68.6471 19.3072C68.6471 19.4059 68.6224 21.6505 66.2791 21.6505C64.0961 21.6505 63.9111 19.8499 63.9111 19.3072V13.7695H62.6777V19.3072C62.6777 20.9229 63.6151 22.8099 66.2791 22.8099C68.9307 22.8099 69.8804 20.9229 69.8804 19.3072V13.7695H68.6471V19.3072Z" fill="black"/>
<path fill-rule="evenodd" clip-rule="evenodd" d="M60.2359 13.7695V14.9535H54.2542V17.2969H59.5699V18.4685H54.2542V22.6989H53.0332V13.7695H60.2359Z" fill="black"/>
<path fill-rule="evenodd" clip-rule="evenodd" d="M48.0009 13.7695V20.8612H47.7296L43.4006 13.7695H41.8096V22.6989H43.0306V15.8292H43.3019L47.4336 22.6989H49.2219V13.7695H48.0009Z" fill="black"/>
<path fill-rule="evenodd" clip-rule="evenodd" d="M31.8574 13.7695V14.8672H34.5831V21.5889H31.8574V22.6865H38.5298V21.5889H35.8041V14.8672H38.5298V13.7695H31.8574Z" fill="black"/>
</svg>
