<svg width="102" height="35" viewBox="0 0 102 35" fill="none" xmlns="http://www.w3.org/2000/svg">
<path d="M97.625 20.6935C97.1462 21.981 95.95 22.696 94.475 22.696C93.9481 22.7054 93.4247 22.6097 92.9352 22.4145C92.4457 22.2194 92 21.9287 91.6241 21.5594C91.2482 21.1901 90.9497 20.7496 90.7458 20.2637C90.542 19.7778 90.4371 19.2561 90.4371 18.7292C90.4371 18.2022 90.542 17.6805 90.7458 17.1946C90.9497 16.7087 91.2482 16.2682 91.6241 15.8989C92 15.5296 92.4457 15.2389 92.9352 15.0438C93.4247 14.8486 93.9481 14.7529 94.475 14.7623C95.95 14.7623 97.1087 15.3923 97.625 16.766H101.671C101.001 13.246 98.0737 10.986 94.4737 10.986C93.4451 10.9675 92.4231 11.1542 91.4674 11.535C90.5117 11.9159 89.6414 12.4834 88.9075 13.2043C88.1735 13.9252 87.5905 14.7851 87.1925 15.7338C86.7946 16.6825 86.5896 17.701 86.5896 18.7298C86.5896 19.7586 86.7946 20.7771 87.1925 21.7258C87.5905 22.6745 88.1735 23.5344 88.9075 24.2553C89.6414 24.9762 90.5117 25.5436 91.4674 25.9245C92.4231 26.3054 93.4451 26.492 94.4737 26.4735C98.0737 26.4735 101.185 23.9448 101.671 20.6935H97.625ZM80.9587 11.3748H85.1725V26.1998H80.96L80.9587 11.3748ZM85.5962 7.79228C85.6037 8.131 85.5435 8.4678 85.4191 8.78291C85.2947 9.09803 85.1085 9.38512 84.8716 9.62732C84.6348 9.86953 84.3519 10.062 84.0396 10.1934C83.7273 10.3247 83.3919 10.3924 83.0531 10.3924C82.7143 10.3924 82.3789 10.3247 82.0667 10.1934C81.7544 10.062 81.4715 9.86953 81.2346 9.62732C80.9977 9.38512 80.8116 9.09803 80.6871 8.78291C80.5627 8.4678 80.5025 8.131 80.51 7.79228C80.51 7.11764 80.778 6.47063 81.255 5.99358C81.7321 5.51654 82.3791 5.24854 83.0537 5.24854C83.7284 5.24854 84.3754 5.51654 84.8524 5.99358C85.3295 6.47063 85.5962 7.11764 85.5962 7.79228ZM68.89 13.1898C69.5975 11.9148 71.2025 11.0435 73.515 11.0435C77.2525 11.0435 79.2312 13.4223 79.2312 16.9535V26.1985H75.0187V17.3948C75.0187 15.666 74.2475 14.476 72.385 14.476C70.3425 14.476 69.2112 15.7273 69.2112 17.701V26.186H65V11.3735H68.8912L68.89 13.1898Z" fill="#001A3A"/>
<path fill-rule="evenodd" clip-rule="evenodd" d="M55.8881 22.6961C56.4149 22.7055 56.9384 22.6099 57.4279 22.4149C57.9174 22.2198 58.3631 21.9291 58.7391 21.5599C59.115 21.1907 59.4137 20.7503 59.6176 20.2644C59.8215 19.7785 59.9265 19.2568 59.9266 18.7299C59.9267 18.2029 59.8218 17.6812 59.6181 17.1953C59.4143 16.7093 59.1158 16.2688 58.74 15.8995C58.3641 15.5301 57.9185 15.2393 57.429 15.0441C56.9396 14.8489 56.4162 14.7531 55.8893 14.7624C54.8494 14.7808 53.8584 15.2069 53.1295 15.9488C52.4006 16.6907 51.9922 17.6892 51.9922 18.7292C51.9922 19.7693 52.4006 20.7677 53.1295 21.5097C53.8584 22.2516 54.8494 22.6776 55.8893 22.6961H55.8881ZM55.8881 26.4724C56.9214 26.4986 57.9495 26.3178 58.9118 25.9405C59.8742 25.5632 60.7512 24.9971 61.4914 24.2755C62.2315 23.554 62.8197 22.6916 63.2213 21.7391C63.6229 20.7867 63.8298 19.7635 63.8298 18.7299C63.8298 17.6962 63.6229 16.673 63.2213 15.7206C62.8197 14.7682 62.2315 13.9057 61.4914 13.1842C60.7512 12.4626 59.8742 11.8965 58.9118 11.5192C57.9495 11.1419 56.9214 10.9611 55.8881 10.9874C54.8547 10.9611 53.8266 11.1419 52.8643 11.5192C51.902 11.8965 51.0249 12.4626 50.2848 13.1842C49.5446 13.9057 48.9564 14.7682 48.5548 15.7206C48.1532 16.673 47.9463 17.6962 47.9463 18.7299C47.9463 19.7635 48.1532 20.7867 48.5548 21.7391C48.9564 22.6916 49.5446 23.554 50.2848 24.2755C51.0249 24.9971 51.902 25.5632 52.8643 25.9405C53.8266 26.3178 54.8547 26.4986 55.8881 26.4724Z" fill="#001A3A"/>
<path d="M42.449 11.3748H46.6615V26.1998H42.449V11.3748ZM47.0865 7.79228C47.0865 8.46693 46.8185 9.11394 46.3415 9.59099C45.8644 10.068 45.2174 10.336 44.5428 10.336C43.8681 10.336 43.2211 10.068 42.7441 9.59099C42.267 9.11394 41.999 8.46693 41.999 7.79228C41.999 7.11764 42.267 6.47063 42.7441 5.99358C43.2211 5.51654 43.8681 5.24854 44.5428 5.24854C45.2174 5.24854 45.8644 5.51654 46.3415 5.99358C46.8185 6.47063 47.0865 7.11764 47.0865 7.79228Z" fill="#001A3A"/>
<path d="M4.2 17.5C4.2 10.155 10.155 4.20001 17.5 4.20001C20.4575 4.20001 23.1875 5.16251 25.3962 6.79626C25.685 6.11736 26.1201 5.51058 26.6705 5.01923C27.2208 4.52787 27.8728 4.16406 28.58 3.95376C25.4563 1.39198 21.5398 -0.00554 17.5 1.65056e-05C7.835 1.65056e-05 0 7.83501 0 17.5C0 27.165 7.835 35 17.5 35C27.165 35 35 27.165 35 17.5C35 15.4775 34.6562 13.5313 34.0225 11.72C33.5842 12.3141 33.0197 12.8036 32.3695 13.1533C31.7194 13.5031 30.9997 13.7043 30.2625 13.7425C30.6125 14.9325 30.8 16.1925 30.8 17.5C30.8 24.845 24.845 30.8 17.5 30.8C10.155 30.8 4.2 24.845 4.2 17.5Z" fill="#176BFF"/>
<path d="M34.64 13.955C34.4841 13.1971 34.2778 12.4504 34.0225 11.72C33.5842 12.3141 33.0197 12.8036 32.3695 13.1533C31.7194 13.503 30.9998 13.7043 30.2625 13.7425C30.5136 14.5979 30.6778 15.4766 30.7525 16.365C31.5361 16.2678 32.2893 16.0021 32.9604 15.586C33.6314 15.17 34.2045 14.6136 34.64 13.955ZM17.5 25.1562C19.5298 25.1539 21.4759 24.3465 22.9112 22.9112C24.3465 21.4759 25.1539 19.5298 25.1562 17.5C25.1539 15.4701 24.3465 13.5241 22.9112 12.0888C21.4759 10.6534 19.5298 9.84606 17.5 9.84375C15.4701 9.84606 13.5241 10.6534 12.0888 12.0888C10.6534 13.5241 9.84607 15.4701 9.84375 17.5C9.84706 19.5295 10.6548 21.475 12.0899 22.9101C13.525 24.3452 15.4704 25.1529 17.5 25.1562ZM28.985 10.9375C29.4877 10.9375 29.9855 10.8385 30.45 10.6461C30.9144 10.4537 31.3364 10.1717 31.6919 9.81627C32.0474 9.46079 32.3293 9.03878 32.5217 8.57433C32.7141 8.10988 32.8131 7.61209 32.8131 7.10937C32.8131 6.60666 32.7141 6.10886 32.5217 5.64441C32.3293 5.17996 32.0474 4.75796 31.6919 4.40248C31.3364 4.04701 30.9144 3.76503 30.45 3.57265C29.9855 3.38027 29.4877 3.28125 28.985 3.28125C27.9697 3.28125 26.996 3.68457 26.2781 4.40248C25.5602 5.12039 25.1569 6.09409 25.1569 7.10937C25.1569 8.12465 25.5602 9.09835 26.2781 9.81627C26.996 10.5342 27.9697 10.9375 28.985 10.9375Z" fill="#176BFF"/>
</svg>
