<svg width="180" height="50" viewBox="0 0 180 50" fill="none" xmlns="http://www.w3.org/2000/svg">
<path d="M50 41.375H65C70.1778 41.375 74.375 37.1778 74.375 32V17C74.375 11.8222 70.1778 7.625 65 7.625H50C44.8222 7.625 40.625 11.8222 40.625 17V32C40.625 37.1778 44.8222 41.375 50 41.375Z" fill="#ECEFF1"/>
<path d="M46.9839 18.8506C46.7944 18.8506 46.6127 18.9259 46.4788 19.0598C46.3448 19.1938 46.2695 19.3755 46.2695 19.565C46.2695 19.7544 46.3448 19.9361 46.4788 20.0701C46.6127 20.2041 46.7944 20.2793 46.9839 20.2793C47.1734 20.2793 47.3551 20.2041 47.489 20.0701C47.623 19.9361 47.6983 19.7544 47.6983 19.565C47.6983 19.3755 47.623 19.1938 47.489 19.0598C47.3551 18.9259 47.1734 18.8506 46.9839 18.8506Z" fill="#FFC107"/>
<path d="M49.983 22.4471L51.3368 21.8752C51.9743 20.7315 53.0571 20.0687 54.4605 20.0687C54.7793 20.0687 55.0784 20.109 55.3624 20.1746L56.6487 19.6318C56.0149 19.3196 55.2884 19.1387 54.4605 19.1387C52.2199 19.1387 50.6215 20.3696 49.983 22.4471ZM47.4659 23.5102V22.0393H46.5059V23.9162L47.4659 23.5102Z" fill="#FF5722"/>
<path d="M47.4659 26.1247V23.51L46.5059 23.9159V26.5297L47.4659 26.1247ZM50.6955 24.6388C50.6955 23.5428 50.9262 22.6109 51.3368 21.875L49.983 22.4469C49.7824 23.0994 49.6709 23.8306 49.6709 24.6388C49.6709 24.8272 49.6971 24.9969 49.7084 25.1769L50.704 24.7559C50.703 24.7156 50.6955 24.68 50.6955 24.6388ZM63.5196 19.3438C63.258 19.4244 63.0162 19.5266 62.794 19.6503L63.5196 19.3438ZM56.6487 19.6316L55.3624 20.1744C56.3252 20.3966 57.0762 20.9834 57.5655 21.8581L58.5237 21.4531C58.0849 20.6356 57.4446 20.0244 56.6487 19.6316Z" fill="#F44336"/>
<path d="M47.4659 28.7382V26.1245L46.5059 26.5295V29.1432L47.4659 28.7382ZM63.5196 19.3435L62.794 19.6501C61.8724 20.1629 61.3155 21.0226 61.3155 22.0689C61.3155 22.352 61.3587 22.6042 61.4252 22.8423L62.3927 22.4335C62.3609 22.3098 62.3402 22.1804 62.3402 22.0398C62.3402 20.8895 63.3874 20.0551 64.9034 20.0551C65.6496 20.0551 66.2787 20.2548 66.739 20.5979L67.7215 20.1826C67.0709 19.5414 66.0949 19.1392 64.9334 19.1392C64.4196 19.1382 63.9462 19.2123 63.5196 19.3435ZM50.703 24.7567L49.7074 25.1776C49.7627 26.0767 49.9512 26.8754 50.2671 27.5551L51.2084 27.1576C50.8943 26.4882 50.718 25.681 50.703 24.7567ZM58.5237 21.4539L57.5655 21.8589C57.9227 22.4982 58.1309 23.2951 58.1824 24.212L59.1771 23.792C59.089 22.9032 58.8752 22.111 58.5237 21.4539Z" fill="#E91E63"/>
<path d="M59.0084 26.476C59.1452 25.9116 59.2352 25.307 59.2352 24.6385C59.2352 24.3423 59.2043 24.0676 59.1762 23.791L58.1815 24.211C58.1899 24.3545 58.2096 24.4885 58.2096 24.6385C58.2096 25.546 58.0437 26.3345 57.7587 27.0038L59.0084 26.476ZM51.2093 27.1566L50.268 27.5541C50.6505 28.3782 51.213 29.0241 51.934 29.4648L53.1134 28.967C52.2687 28.6501 51.619 28.0285 51.2093 27.1566ZM47.4659 28.7382L46.5059 29.1432V29.927H47.4659V28.7382ZM62.3937 22.4326L61.4262 22.8413C61.6559 23.6532 62.284 24.2204 63.4221 24.6123L64.9221 23.9785L64.6052 23.8988C63.2393 23.5576 62.568 23.1188 62.3937 22.4326ZM67.549 21.9432H68.5596C68.5127 21.2579 68.2043 20.656 67.7224 20.1816L66.7399 20.597C67.1824 20.927 67.4702 21.391 67.549 21.9432Z" fill="#9C27B0"/>
<path d="M59.0089 26.4761L57.7592 27.0039C57.1695 28.3876 56.0248 29.2164 54.4602 29.2164C53.9652 29.2164 53.5217 29.1198 53.113 28.9661L51.9336 29.4639C52.6386 29.8942 53.4786 30.1464 54.4602 30.1464C56.8442 30.1464 58.4558 28.757 59.0089 26.4761ZM62.0267 27.1801H61.0161C61.0405 27.5251 61.1352 27.8411 61.2636 28.1373L62.1908 27.7454C62.112 27.5682 62.0502 27.3817 62.0267 27.1801ZM65.652 24.1632L64.9217 23.9795L63.4217 24.6132C63.6411 24.6892 63.8783 24.7595 64.1361 24.8232L65.3445 25.1307C66.0139 25.2957 66.523 25.5048 66.8998 25.7579L68.0295 25.2807C67.5345 24.7979 66.7611 24.4379 65.652 24.1632Z" fill="#3F51B5"/>
<path d="M62.1909 27.7464L61.2637 28.1383C61.6171 28.9539 62.3315 29.5736 63.2943 29.8942L64.8805 29.2248C63.5877 29.1939 62.5771 28.6211 62.1909 27.7464ZM68.6699 27.6245C68.7027 27.4436 68.729 27.2589 68.729 27.0639C68.729 26.3289 68.5096 25.7476 68.0305 25.2808L66.9009 25.7579C67.4437 26.1236 67.7034 26.5858 67.7034 27.1736C67.7034 27.542 67.5805 27.8767 67.3771 28.1701L68.6699 27.6245Z" fill="#03A9F4"/>
<path d="M68.6696 27.6245L67.3768 28.1711C66.9343 28.8104 66.0699 29.2323 64.9862 29.2323C64.9496 29.2323 64.9168 29.2267 64.8812 29.2258L63.2949 29.8951C63.7768 30.0554 64.313 30.1473 64.898 30.1473C66.9671 30.1464 68.3893 29.1536 68.6696 27.6245Z" fill="#009688"/>
<path d="M91.1719 33V20.4375H94.5938V33H91.1719ZM92.8828 19.0547C91.8516 19.0547 91.0547 18.2695 91.0547 17.2852C91.0547 16.2891 91.8516 15.5156 92.8828 15.5156C93.9141 15.5156 94.7109 16.2891 94.7109 17.2852C94.7109 18.2695 93.9141 19.0547 92.8828 19.0547ZM104.801 15.7969C109.805 15.7969 112.957 19.1602 112.957 24.5508C112.957 29.9297 109.805 33.293 104.801 33.293C99.7852 33.293 96.6445 29.9297 96.6445 24.5508C96.6445 19.1602 99.7852 15.7969 104.801 15.7969ZM104.801 18.75C102.035 18.75 100.254 21 100.254 24.5508C100.254 28.0898 102.023 30.3281 104.801 30.3281C107.566 30.3281 109.336 28.0898 109.336 24.5508C109.336 21 107.566 18.75 104.801 18.75ZM114.609 28.1836H118.02C118.184 29.5781 119.637 30.4922 121.512 30.4922C123.398 30.4922 124.688 29.5898 124.688 28.3477C124.688 27.2461 123.879 26.6367 121.84 26.1797L119.637 25.6992C116.52 25.0312 114.984 23.4492 114.984 20.9766C114.984 17.8594 117.68 15.7969 121.453 15.7969C125.391 15.7969 127.863 17.8242 127.922 20.8828H124.605C124.488 19.4531 123.234 18.5859 121.465 18.5859C119.719 18.5859 118.547 19.418 118.547 20.6719C118.547 21.7148 119.367 22.3008 121.312 22.7461L123.363 23.1797C126.75 23.9062 128.227 25.3594 128.227 27.9375C128.227 31.2188 125.566 33.293 121.371 33.293C117.305 33.293 114.715 31.3594 114.609 28.1836Z" fill="black"/>
</svg>