<svg width="72" height="26" viewBox="0 0 72 26" fill="none" xmlns="http://www.w3.org/2000/svg">
<path d="M33 6.34082H35.4478V20.6445H33V6.34082ZM37.8956 6.34082H42.8875C43.9739 6.34082 44.8815 6.46342 45.5828 6.695C46.2842 6.92659 46.848 7.25353 47.2468 7.6622C47.6425 8.04848 47.9354 8.52587 48.0994 9.0517C48.2651 9.58568 48.3486 10.1414 48.3469 10.7C48.3495 11.2945 48.2662 11.8863 48.0994 12.4573C47.9368 13.0077 47.6446 13.512 47.2468 13.9286C46.7781 14.3842 46.2082 14.7247 45.5828 14.923C44.8815 15.1682 44.0014 15.2908 42.9287 15.2908H40.3022V20.6445H37.8956V6.34082ZM42.8737 13.2883C43.3885 13.3034 43.9028 13.2437 44.4002 13.1112C44.7482 13.02 45.069 12.8471 45.3353 12.6072C45.5617 12.3892 45.7275 12.1171 45.8166 11.8171C45.9073 11.4793 45.9535 11.1313 45.9541 10.7818C45.9622 10.4272 45.9158 10.0735 45.8166 9.73283C45.7252 9.4423 45.5537 9.18282 45.3215 8.98359C45.0447 8.76002 44.7203 8.60165 44.3727 8.52042C43.8825 8.40062 43.3785 8.34565 42.8737 8.35695H40.3297V13.2883H42.8737ZM59.362 6.34082V8.42507H52.5962V12.471H58.9632V14.5688H52.5962V20.6445H50.1484V6.34082H59.362ZM62.965 16.2716C63.075 17.2116 63.4188 17.8927 63.9826 18.315C64.5464 18.7373 65.4128 18.9553 66.5404 18.9553C67.0099 18.9687 67.4786 18.9089 67.9293 18.7782C68.2588 18.6756 68.5664 18.514 68.837 18.3014C69.0579 18.1117 69.224 17.8672 69.3183 17.593C69.4139 17.3123 69.4604 17.0174 69.4558 16.7212C69.4585 16.4951 69.4261 16.27 69.3595 16.0537C69.2837 15.8274 69.162 15.6188 69.002 15.4407C68.8016 15.2347 68.5636 15.0683 68.3006 14.9503C67.9397 14.7961 67.561 14.6863 67.173 14.6233L65.3303 14.2828C64.6712 14.1671 64.0227 13.9985 63.3913 13.7787C62.8708 13.602 62.3864 13.3345 61.9611 12.9886C61.5772 12.6656 61.2797 12.2539 61.0947 11.7898C60.8885 11.2365 60.7905 10.6494 60.806 10.0598C60.7841 9.46258 60.9151 8.86962 61.1868 8.33609C61.4585 7.80255 61.8621 7.34579 62.3599 7.00832C62.8831 6.64686 63.4712 6.38791 64.0926 6.24546C64.8042 6.07713 65.5338 5.9948 66.2654 6.00025C67.2555 6.00025 68.0944 6.10923 68.7682 6.34082C69.3675 6.5257 69.9238 6.82668 70.4047 7.22628C70.806 7.57904 71.1291 8.01042 71.3535 8.49318C71.5685 8.97048 71.7165 9.47463 71.7936 9.99166L69.4833 10.3458C69.2908 9.54211 68.9745 8.95634 68.5069 8.56129C68.0394 8.16624 67.3105 7.97552 66.2929 7.97552C65.8073 7.96775 65.3224 8.01806 64.849 8.12537C64.5127 8.205 64.1951 8.34841 63.9138 8.54767C63.6927 8.70972 63.5174 8.92555 63.405 9.1743C63.3062 9.40725 63.2548 9.65724 63.2538 9.90992C63.2538 10.5366 63.4188 10.9997 63.7626 11.313C64.1064 11.6264 64.7114 11.8579 65.5778 12.035L67.5718 12.4165C69.0982 12.7025 70.2121 13.1793 70.9272 13.8468C71.6423 14.5143 71.9998 15.4952 71.9998 16.7621C72.0047 17.3369 71.8925 17.9068 71.6698 18.4376C71.4466 18.9587 71.097 19.4173 70.6522 19.7726C70.1478 20.1786 69.5687 20.484 68.947 20.6717C68.1761 20.9033 67.3733 21.0136 66.5679 20.9987C64.7252 20.9987 63.2675 20.6172 62.2224 19.8407C61.1773 19.0643 60.5859 17.8791 60.4897 16.2716H62.965Z" fill="#12141D"/>
<g clip-path="url(#clip0_333_2521)">
<mask id="mask0_333_2521" style="mask-type:luminance" maskUnits="userSpaceOnUse" x="0" y="0" width="22" height="26">
<path d="M0.0322266 0.00708008H21.9692V25.4239H0.0322266V0.00708008Z" fill="white"/>
</mask>
<g mask="url(#mask0_333_2521)">
<path d="M11.1698 0.0814748C11.3374 0.25464 11.5573 0.348094 11.7607 0.463538C13.9294 1.71967 16.1009 2.97031 18.2723 4.2237C19.4377 4.89437 20.6004 5.57054 21.7658 6.23846C21.9143 6.32367 21.9692 6.43087 21.9692 6.59854C21.9665 10.6638 21.9665 14.7291 21.9692 18.7943C21.9692 18.962 21.9143 19.0719 21.7658 19.1571C20.5317 19.8636 19.3003 20.5782 18.0662 21.2874C16.9832 21.9113 15.903 22.5352 14.82 23.1619C13.6353 23.8464 12.4507 24.5335 11.266 25.2207C11.1918 25.2647 11.1121 25.3031 11.0653 25.3801C11.0323 25.4296 10.9774 25.4323 10.9499 25.3993C10.7822 25.1959 10.5403 25.1107 10.3232 24.9843C8.9736 24.1954 7.61852 23.4148 6.26343 22.6342C4.66096 21.7106 3.0585 20.7871 1.45878 19.8636C1.04648 19.6272 0.636931 19.3853 0.221884 19.1489C0.0899483 19.0774 0.0322266 18.9757 0.0322266 18.8218C0.0349752 14.7401 0.0349752 10.6583 0.0322266 6.57655C0.0322266 6.42812 0.084451 6.32917 0.216386 6.25221C1.29661 5.63376 2.37408 5.00981 3.45155 4.38862C4.52628 3.76742 5.601 3.14897 6.67573 2.52778C7.98684 1.76915 9.2952 1.01052 10.6063 0.25464C10.6888 0.207913 10.7657 0.15294 10.8317 0.0842235C10.8564 0.0567369 10.8839 0.0347477 10.9114 0.0100098H11.0846C11.1148 0.031999 11.145 0.0539883 11.1698 0.0814748Z" fill="#336D6F"/>
<path d="M10.8971 0.0065918C10.8888 0.0505703 10.8504 0.0643136 10.8174 0.0808055C10.8284 0.0560676 10.8394 0.0313297 10.8476 0.0065918H10.8971ZM11.1527 0.0808055C11.117 0.0643136 11.0813 0.0505703 11.0703 0.0065918H11.1197L11.1527 0.0808055Z" fill="#4A9DA0"/>
<path d="M6.92511 9.5139C6.20496 9.09885 5.48481 8.68105 4.76466 8.26601C3.88235 7.75751 3.00278 7.249 2.12046 6.73775C2.04075 6.69103 1.92805 6.67179 1.90331 6.56734C1.86758 6.42166 1.87583 6.27048 1.89782 6.1248C1.90606 6.06158 1.96103 6.03135 2.01326 6.00111C3.53327 5.12429 5.05052 4.24472 6.56778 3.3679C7.60952 2.76595 8.65401 2.16674 9.69575 1.56203C9.81944 1.49057 9.91565 1.48232 10.0476 1.55654C10.2647 1.67473 10.5011 1.7407 10.7595 1.75169C11.18 1.76818 11.5758 1.70771 11.9359 1.47683C12.0019 1.4356 12.0678 1.44384 12.1338 1.48232C12.9996 1.98258 13.8682 2.48283 14.734 2.98309C15.8472 3.62628 16.9632 4.26946 18.0792 4.9099C18.7361 5.28921 19.3903 5.66578 20.0472 6.04509C20.2918 6.18802 20.2946 6.48763 20.0499 6.62781C18.2468 7.66955 16.4437 8.70854 14.6433 9.74753C14.6158 9.76402 14.5856 9.77777 14.5554 9.79151C14.5471 9.78876 14.5361 9.78601 14.5334 9.78052C14.4702 9.5991 14.3245 9.60185 14.1706 9.60185C13.0244 9.6046 11.8782 9.6046 10.732 9.6046H10.644C10.4599 9.60735 10.4186 9.64858 10.4159 9.83274C10.4132 10.6161 10.4159 11.3967 10.4159 12.1801C10.4159 13.5819 10.4159 14.9865 10.4132 16.3883C10.4132 16.4762 10.4379 16.5724 10.3554 16.6439C10.3169 16.5889 10.3307 16.523 10.3307 16.4625V11.1521C10.3307 10.9817 10.3307 10.9817 10.1795 11.0559C10.1135 11.0889 10.0476 11.1246 9.98436 11.1631C9.92664 11.1988 9.87167 11.2153 9.8112 11.1823C9.74798 11.1768 9.73423 11.1301 9.72049 11.0806C9.4951 10.2368 8.8904 9.83824 8.08229 9.67332C7.75245 9.60735 7.41987 9.58261 7.08453 9.57437C7.02681 9.57437 6.95534 9.59086 6.92511 9.5139Z" fill="#449193"/>
<path d="M12.851 12.5988C12.8345 12.4889 12.9033 12.4339 12.9857 12.3872C13.5739 12.0464 14.1621 11.7083 14.7503 11.3674L14.9318 11.2602C15.0197 11.2987 14.995 11.3812 14.9922 11.4444C14.9895 11.6835 15.028 11.9144 15.1104 12.1371C15.2671 12.5686 15.5749 12.8655 15.9708 13.0744C16.3556 13.2778 16.7734 13.385 17.1829 13.5086C17.4413 13.5884 17.6997 13.6571 17.9498 13.7615C18.615 14.0364 18.7991 14.9242 18.2879 15.4025C18.0817 15.5949 17.8261 15.6856 17.5457 15.7158C16.8063 15.7928 16.1192 15.6059 15.454 15.3008C15.2561 15.2101 15.2424 15.2101 15.1819 15.419C15.1297 15.5976 15.0719 15.7763 15.0197 15.9522C14.973 16.1034 14.984 16.1309 15.1269 16.2078C15.5557 16.4332 16.0175 16.5651 16.4957 16.6366C17.04 16.7191 17.5842 16.7108 18.1229 16.5871C18.5407 16.4909 18.9228 16.3233 19.2389 16.0237C19.5165 15.7625 19.6787 15.4409 19.7502 15.0671C19.8271 14.6548 19.7969 14.2508 19.6677 13.855C19.5248 13.4179 19.2087 13.1376 18.8211 12.9232C18.4555 12.7225 18.0652 12.5878 17.6694 12.4669C17.3808 12.3789 17.095 12.28 16.8091 12.1838C16.1109 11.9474 16.1192 11.1778 16.4243 10.7765C16.5177 10.65 16.6552 10.5786 16.8008 10.5236C16.9658 10.4604 17.1362 10.4411 17.3121 10.4301C17.9195 10.3999 18.4968 10.5264 19.0547 10.7545C19.2059 10.8177 19.2307 10.804 19.2966 10.65C19.3708 10.4714 19.4478 10.2927 19.5165 10.1113C19.5632 9.99311 19.5522 9.96288 19.4368 9.90516C19.0547 9.70725 18.6424 9.60281 18.2192 9.53134C18.1642 9.52309 18.0982 9.52584 18.09 9.44613C18.5133 9.196 18.9366 8.94588 19.3653 8.70125C19.8326 8.43463 20.3026 8.1735 20.7672 7.90688C20.8524 7.85741 20.9183 7.85741 20.9898 7.92063C21.009 7.93712 21.0255 7.95636 21.0503 7.96461C21.2619 8.03882 21.2757 8.20099 21.2757 8.39889C21.2702 11.3125 21.2702 14.226 21.2757 17.1396C21.2757 17.2853 21.2344 17.3623 21.1025 17.4392C20.5115 17.7801 20.1789 18.2913 20.1789 18.9867C20.1789 19.1736 20.1515 19.3056 19.9618 19.4128C18.7881 20.0779 17.6227 20.7569 16.4545 21.4303C15.0362 22.2494 13.6179 23.0685 12.1996 23.8903C12.1144 23.9398 12.0457 23.9343 11.955 23.8958C11.7626 23.8134 11.7021 23.6842 11.7021 23.4725C11.7103 20.5535 11.7076 17.6371 11.7048 14.7181C11.7048 14.5366 11.7598 14.4349 11.9247 14.3497C12.2243 14.1903 12.4552 13.9429 12.6256 13.6461C12.6696 13.5691 12.7466 13.5884 12.8153 13.5856C13.2193 13.5801 13.6234 13.5829 14.0302 13.5829C14.0769 13.5829 14.1209 13.5856 14.1676 13.5801C14.2803 13.5691 14.3243 13.5306 14.3298 13.4179C14.338 13.22 14.338 13.0221 14.3298 12.8242C14.3243 12.7005 14.2776 12.6648 14.1319 12.6621C13.7691 12.6593 13.4063 12.6648 13.0407 12.6593C12.972 12.6593 12.8923 12.6786 12.851 12.5988ZM9.24204 13.3382C9.39047 13.8028 9.69832 14.1381 10.1161 14.3717C10.2426 14.4432 10.2893 14.5256 10.2893 14.6658C10.2865 17.6261 10.2865 20.5837 10.2865 23.544C10.2865 23.7309 10.1189 23.9151 9.9347 23.9315C9.88798 23.937 9.84675 23.9151 9.80552 23.8931C8.83799 23.3351 7.87046 22.7744 6.90294 22.2164C5.58908 21.4578 4.27247 20.6964 2.95861 19.9378C2.62603 19.7453 2.29344 19.5529 1.9581 19.3633C1.84266 19.3001 1.80968 19.2039 1.81792 19.0829C1.85091 18.6431 1.70523 18.2611 1.4441 17.9147C1.27919 17.6976 1.06479 17.5354 0.825657 17.409C0.734951 17.3623 0.699219 17.2963 0.701967 17.2001V17.0874C0.701967 14.1903 0.701967 11.2932 0.699219 8.39615C0.699219 8.22848 0.726705 8.10479 0.905368 8.04981C0.96309 8.03332 1.02356 8.00034 1.06479 7.95911C1.15824 7.8684 1.24345 7.89314 1.3424 7.95086C2.43637 8.5858 3.53308 9.21799 4.6298 9.85293C4.73425 9.9134 4.73699 9.90791 4.74524 9.78422C4.75074 9.69626 4.715 9.60281 4.77273 9.52035C4.83045 9.56158 4.8277 9.62754 4.8332 9.68801C4.84694 9.86118 4.80846 10.0343 4.80846 10.2075C4.81121 12.236 4.80846 14.2618 4.80846 16.2903C4.80846 16.5706 4.82495 16.5844 5.10257 16.5844C5.3307 16.5844 5.55884 16.5871 5.78423 16.5844C5.96289 16.5816 6.00138 16.5459 6.00138 16.3617C6.00412 15.6334 6.00138 14.905 6.00138 14.1766C6.00138 13.8495 6.00687 13.8605 6.33946 13.8687C6.91668 13.8797 7.49939 13.9182 8.07111 13.8C8.43943 13.7258 8.78851 13.6021 9.09087 13.3685C9.14034 13.341 9.18157 13.2997 9.24204 13.3382Z" fill="#449193"/>
<path d="M9.23129 13.3375C8.72278 13.78 8.10434 13.9037 7.4584 13.9394C7.02961 13.9614 6.59807 13.9614 6.16928 13.9174C6.06209 13.9064 6.04834 13.9477 6.04834 14.0384C6.05109 14.8602 6.04834 15.6848 6.05384 16.5067C6.05384 16.6221 6.0236 16.6524 5.91091 16.6496C5.57283 16.6414 5.23199 16.6414 4.89391 16.6496C4.77846 16.6524 4.75098 16.6166 4.75098 16.5039C4.75373 14.753 4.75373 13.0049 4.75373 11.254C4.75373 10.7153 4.75647 10.1793 4.75922 9.64053C4.75922 9.5993 4.76472 9.55807 4.76747 9.51684C5.48762 9.51409 6.20776 9.51409 6.92791 9.51135C7.33196 9.51959 7.73602 9.53059 8.13457 9.61579C8.78051 9.75323 9.31375 10.0528 9.63534 10.6548C9.7233 10.8197 9.76727 11.0011 9.814 11.1798C9.86073 11.5454 9.85798 11.9109 9.78926 12.2765C9.70955 12.6915 9.51989 13.0379 9.23129 13.3375ZM18.0792 9.44538C18.42 9.50585 18.7636 9.56357 19.088 9.69001C19.2501 9.75323 19.4068 9.82469 19.5635 9.90165C19.6349 9.93739 19.6349 9.97037 19.6075 10.0363C19.4975 10.292 19.3903 10.5448 19.2914 10.8032C19.2556 10.8939 19.2199 10.8967 19.1374 10.8609C18.6262 10.6383 18.0957 10.4871 17.5322 10.4816C17.2409 10.4789 16.9523 10.4954 16.6884 10.6355C16.3723 10.8005 16.2816 11.0891 16.2843 11.4162C16.2871 11.7542 16.4548 11.9934 16.7736 12.1061C17.2409 12.271 17.7136 12.4167 18.1837 12.5761C18.5162 12.6888 18.8351 12.84 19.1237 13.0461C19.5003 13.3155 19.7174 13.6783 19.7999 14.1318C19.8741 14.5469 19.8686 14.9564 19.7339 15.3577C19.558 15.8855 19.1814 16.2318 18.6894 16.4572C18.1699 16.6963 17.6174 16.7568 17.054 16.7403C16.3283 16.7211 15.6384 16.5589 14.9952 16.2126C14.9073 16.1658 14.8935 16.1219 14.9238 16.0284C15.0227 15.7261 15.1134 15.421 15.2069 15.1104C15.5092 15.2698 15.8116 15.4017 16.1304 15.4952C16.6444 15.6463 17.1639 15.7288 17.6971 15.6244C18.3651 15.4952 18.7224 14.7915 18.4036 14.2225C18.2661 13.9779 18.0352 13.8432 17.7796 13.7608C17.3591 13.6233 16.9358 13.5024 16.5125 13.3677C16.1881 13.2633 15.8775 13.1313 15.6054 12.9169C15.1162 12.5321 14.9128 12.0154 14.921 11.4052V11.2567C14.998 10.281 15.6274 9.74773 16.5015 9.52234C16.955 9.40415 17.4168 9.39865 17.8813 9.43438C17.9473 9.43988 18.0132 9.44263 18.0792 9.44538ZM12.8403 12.5981C13.3075 12.6008 13.7748 12.6036 14.2421 12.6008C14.3438 12.6008 14.3768 12.6256 14.374 12.73C14.3658 12.9939 14.3685 13.2605 14.374 13.5244C14.3768 13.6178 14.3438 13.6426 14.2531 13.6426C13.7528 13.6371 13.2526 13.6398 12.7523 13.6398C12.7083 13.6398 12.6616 13.6426 12.6176 13.6453C12.3235 13.6426 12.0322 13.6426 11.7381 13.6371C11.6309 13.6343 11.6583 13.7085 11.6583 13.7635C11.6583 14.6733 11.6556 15.5831 11.6611 16.4902C11.6611 16.6194 11.6281 16.6579 11.4989 16.6496C11.334 16.6386 11.1691 16.6496 11.0042 16.6496C10.9959 16.6606 10.9877 16.6606 10.9794 16.6496L10.361 16.6414C10.361 15.2478 10.361 13.8515 10.3582 12.4579C10.3582 11.5261 10.3582 10.5971 10.3527 9.66527C10.3527 9.56082 10.3802 9.53608 10.4819 9.53608C11.782 9.53883 13.0794 9.53883 14.3795 9.53883C14.5554 9.53883 14.5554 9.53883 14.5527 9.71475C14.5527 9.73948 14.5554 9.76422 14.5554 9.78896C14.5197 10.0143 14.5307 10.2425 14.517 10.4706C14.5115 10.5668 14.4785 10.5833 14.3905 10.5833C13.9892 10.5806 13.5879 10.5833 13.1866 10.5861C13.0519 10.63 12.9145 10.6465 12.7716 10.6465C12.4857 10.6438 12.1998 10.6438 11.9167 10.6465C11.7546 10.6493 11.7326 10.685 11.7051 10.8389C11.6089 11.3969 11.6831 11.9576 11.6611 12.5184C11.6611 12.5431 11.6583 12.5679 11.6721 12.5898C12.0597 12.6091 12.45 12.6008 12.8403 12.5981Z" fill="#FEFEFE"/>
<path d="M11.6715 12.5918C11.6385 12.5616 11.6523 12.5231 11.6523 12.4873C11.6523 11.8909 11.655 11.2944 11.655 10.7007C11.655 10.6347 11.6495 10.5825 11.7485 10.5825C12.2295 10.588 12.7077 10.588 13.1888 10.588C12.8562 10.7832 12.5236 10.9756 12.1937 11.1707C12.125 11.2092 12.0646 11.2092 11.9958 11.168C11.9299 11.1268 11.8584 11.0938 11.7897 11.0525C11.699 11.0003 11.677 11.0333 11.677 11.1268C11.6797 11.5775 11.677 12.0283 11.677 12.4791C11.6742 12.5176 11.6715 12.5561 11.6715 12.5918Z" fill="#449193"/>
<path d="M11.0026 24.9816C11.0134 24.9816 11.0219 22.7972 11.0219 20.1027C11.0219 17.4082 11.0134 15.2239 11.0026 15.2239C10.9919 15.2239 10.9834 17.4082 10.9834 20.1027C10.9834 22.7972 10.9919 24.9816 11.0026 24.9816Z" fill="#3B7577"/>
<path d="M3.7375 13.0964C3.7375 14.2316 3.73476 15.3641 3.74025 16.4993C3.74025 16.6312 3.70177 16.6532 3.58083 16.6504C3.24275 16.6422 2.90191 16.6422 2.56383 16.6504C2.43739 16.6559 2.4209 16.612 2.4209 16.4993C2.42365 14.8666 2.42365 13.2366 2.42365 11.6067C2.42365 10.9662 2.4264 10.323 2.4209 9.6826C2.4209 9.57815 2.43739 9.53967 2.55558 9.54242C2.90741 9.55067 3.25924 9.55067 3.61107 9.54242C3.71277 9.53967 3.743 9.56716 3.743 9.67161C3.7375 10.8123 3.7375 11.9557 3.7375 13.0964Z" fill="#FEFEFE"/>
<path d="M8.54728 12.1039C8.44284 12.5602 8.14323 12.8158 7.7007 12.923C7.51104 12.967 7.31864 12.9972 7.12348 13C6.80464 13.0027 6.48854 13 6.1697 13C6.11472 13 6.0625 13.0055 6.0625 12.9202L6.07075 10.6911C6.12297 10.6499 6.17245 10.6746 6.21917 10.7021C6.95032 11.1281 7.68696 11.5514 8.42085 11.9747C8.47582 12.0022 8.51705 12.0489 8.54728 12.1039Z" fill="#449193"/>
<path d="M8.54681 12.1041C8.19773 11.9062 7.84865 11.7083 7.50232 11.5104C7.02405 11.2383 6.54853 10.9634 6.07027 10.6885C6.05378 10.5044 6.05378 10.5044 6.23244 10.5044C6.61175 10.5071 6.99382 10.4906 7.37313 10.5181C7.6315 10.5346 7.87613 10.6006 8.10152 10.738C8.39013 10.9139 8.53581 11.1751 8.57429 11.4994C8.59903 11.7001 8.59353 11.9035 8.54681 12.1041Z" fill="#336D6F"/>
</g>
</g>
<defs>
<clipPath id="clip0_333_2521">
<rect width="21.9892" height="25.5625" fill="white"/>
</clipPath>
</defs>
</svg>
