<svg width="138" height="42" viewBox="0 0 138 42" fill="none" xmlns="http://www.w3.org/2000/svg">
<g clip-path="url(#clip0_337_4877)">
<path d="M12.7082 0.758798C13.2214 0.574762 14.0507 0.325817 14.5623 0.216617C15.0747 0.109707 15.9582 0.011962 16.5249 0.000507494C17.2121 -0.0101834 17.9322 0.0654166 18.6516 0.21738C19.2518 0.347198 19.9826 0.531235 20.2873 0.650362C20.5821 0.758798 21.1273 1.03982 21.487 1.26738C21.8474 1.50563 22.6103 2.17687 23.1777 2.76182C23.9627 3.56363 24.3231 4.03938 24.6286 4.64571C24.8462 5.08938 25.1295 5.84767 25.2494 6.32418C25.3808 6.79993 25.5113 7.5796 25.6205 8.92207L26.4269 9.7888C26.8744 10.2653 27.496 11.0442 27.8122 11.5207C28.1784 12.0813 28.5169 12.6596 28.8263 13.2534C29.0661 13.7299 29.4044 14.531 29.5899 15.0403C29.764 15.5489 30.026 16.4683 30.168 17.0968C30.3971 18.0819 30.4292 18.5156 30.4185 20.2911C30.4185 21.9803 30.3749 22.5438 30.1787 23.4312C30.0588 24.0268 29.7969 24.9577 29.6006 25.4884C29.415 26.0184 29.0661 26.8416 28.4124 28.1405L28.7499 28.433C28.9355 28.6063 29.186 28.9523 29.3058 29.2233C29.415 29.4944 29.6334 30.0901 29.7755 30.5444C29.9496 31.0859 30.0481 31.6487 30.0481 32.1145C30.0481 32.5261 29.9717 33.1103 29.8625 33.4463C29.7426 33.7929 29.5029 34.2038 29.2845 34.4313C28.979 34.7452 28.7614 34.8536 28.2482 34.9621C27.845 35.0484 27.2555 35.0705 26.7217 35.0384C25.9695 34.9728 25.8168 34.9292 25.5992 34.691C25.4128 34.4856 25.2494 34.4207 24.889 34.4207C24.6385 34.4207 24.1696 34.497 23.8535 34.5833C23.4503 34.7024 23.2869 34.7994 23.2869 34.9292C23.2869 35.0377 23.199 35.211 23.0906 35.3187C22.9921 35.4279 22.8394 35.5142 22.763 35.5035C22.6981 35.5035 22.621 35.6119 22.621 35.7417C22.61 35.9508 22.61 36.1604 22.621 36.3695C22.6439 36.5756 22.7195 37.0415 22.8065 37.3981C22.8829 37.7555 22.9593 38.2755 22.9593 38.5565C22.9593 38.946 22.8944 39.1415 22.7088 39.3255C22.5774 39.466 22.2071 39.65 21.3014 39.8883L21.3778 40.4305C21.4328 40.9062 21.4106 41.0032 21.193 41.2308C21.0509 41.372 20.8218 41.5339 20.6691 41.5881C20.5164 41.6531 19.8627 41.7615 19.1968 41.8478C18.5325 41.9348 17.5504 41.9997 17.0159 41.9997C16.4813 41.9997 15.5001 41.902 14.8349 41.7936C14.1698 41.6859 13.5154 41.5454 13.3626 41.4805C13.1336 41.3934 13.0251 41.1659 12.6318 39.986C12.313 39.0025 12.0113 38.0134 11.7269 37.0193H11.0511C10.6693 37.0193 10.0698 36.9323 9.70941 36.8131C9.34974 36.7055 8.34632 36.2832 7.47425 35.8823C6.60141 35.4821 5.8057 35.0804 5.6965 34.9735C5.53308 34.8323 5.48956 34.5833 5.39105 32.2015L4.49759 31.2592C4.00581 30.7506 3.3193 29.9488 2.98101 29.4723C2.55839 28.8717 2.17231 28.2461 1.82486 27.5991C1.51941 27.0363 1.11621 26.1268 0.93141 25.5961C0.717185 24.9745 0.534946 24.3424 0.38541 23.7023C0.26552 23.1929 0.124247 22.2185 0.0585741 21.5358C-0.0157746 20.7257 -0.0193517 19.9106 0.0478832 19.0998C0.102101 18.4393 0.232683 17.5191 0.330429 17.0426C0.429701 16.5668 0.658792 15.7329 0.843592 15.2022C1.08261 14.5374 1.35924 13.8868 1.67214 13.2534C1.93406 12.7227 2.45792 11.846 2.82828 11.3046C3.18796 10.7739 3.97374 9.84302 4.56174 9.24738C5.50025 8.29436 5.62014 8.12102 5.62014 7.78578C5.62014 7.5796 5.6965 7.13593 5.79425 6.81138C5.89276 6.48607 6.08901 6.0424 6.23105 5.83698C6.37232 5.6308 6.62356 5.38185 6.78697 5.27342C6.96185 5.17643 7.1581 4.91603 7.24516 4.67778C7.33221 4.45098 7.55061 4.06076 7.73541 3.80113C7.92097 3.54149 8.34632 3.14058 8.67392 2.90233C9.00076 2.66407 9.84076 2.15549 10.5273 1.77673C11.2145 1.40865 12.1958 0.942835 12.7082 0.758798Z" fill="#231F20"/>
<path d="M3.79912 11.521C4.16484 11.0496 4.54689 10.5912 4.94457 10.1464C5.27141 9.79973 5.57686 9.55079 5.64177 9.58286C5.70744 9.61569 5.75097 9.74551 5.74028 9.87533C5.74028 10.0051 5.64177 10.2327 5.53333 10.3839C5.41268 10.5359 5.29279 10.8497 5.23857 11.088C5.19504 11.3583 4.98733 11.7271 4.69333 12.0624C4.37635 12.4449 4.07793 12.8425 3.79912 13.2537C3.55933 13.611 3.15537 14.3151 2.89421 14.8237C2.58402 15.4769 2.30722 16.1454 2.0649 16.8267C1.86864 17.4223 1.60672 18.396 1.48683 18.9916C1.36693 19.5873 1.22566 20.4318 1.18137 20.8755C1.13784 21.3085 1.05155 21.6987 0.996571 21.7422C0.941589 21.7743 0.920207 21.1245 0.953044 20.1287C0.98588 19.2085 1.05079 18.2341 1.09432 17.963C1.12715 17.6927 1.23635 17.2055 1.32341 16.8802C1.41046 16.5556 1.50897 16.1769 1.53112 16.047C1.56319 15.9058 1.71592 15.4728 1.86864 15.0726C2.02137 14.6603 2.3925 13.8707 2.6865 13.3079C3.01746 12.6883 3.38915 12.0914 3.79912 11.521ZM20.6365 21.6231C20.9855 21.4062 21.4437 21.1573 21.6506 21.0595C21.8584 20.9733 22.0981 20.8977 22.1745 20.887C22.2394 20.887 22.4036 20.984 22.5235 21.1031C22.6434 21.2222 22.7411 21.3849 22.7411 21.4605C22.7411 21.5368 22.5449 21.601 22.218 21.6231C21.9347 21.6445 21.5964 21.7316 21.4658 21.8178C21.2688 21.937 21.2146 22.0668 21.2146 22.4562C21.2146 22.7487 21.1604 22.9656 21.084 22.987C21.0077 23.0091 20.8114 23.0633 20.6472 23.0954C20.3968 23.1489 20.3418 23.2145 20.3746 23.4314C20.3861 23.5719 20.3639 23.7017 20.3212 23.7017C20.2662 23.7017 20.2112 23.5612 20.1784 23.3772C20.1463 23.1932 20.1898 22.9763 20.2662 22.89C20.3311 22.7922 20.4624 22.7166 20.5388 22.7273C20.6037 22.7273 20.6694 22.6838 20.6694 22.6189C20.6694 22.554 20.5388 22.4998 20.3746 22.4891C20.1684 22.4677 20.0585 22.3913 20.0371 22.2401C20.0042 22.0775 20.157 21.9263 20.6365 21.6231ZM14.0066 22.6953C14.0066 22.121 14.0609 21.7529 14.1808 21.5361C14.3006 21.2978 14.4312 21.2115 14.6496 21.2115C14.813 21.2115 15.217 21.2879 15.5438 21.3849C15.8714 21.4818 16.5144 21.7422 16.9619 21.969C17.4086 22.1966 17.8668 22.4028 17.976 22.4455C18.0738 22.4784 18.1608 22.554 18.1608 22.6189C18.1608 22.6838 17.9974 22.7816 17.8126 22.8358C17.6358 22.8942 17.4524 22.9306 17.2666 22.9442C17.1582 22.9442 17.0925 22.987 17.1253 23.0519C17.1582 23.1168 17.2124 23.1389 17.2674 23.1061C17.3109 23.0847 17.5285 23.1061 17.7576 23.1603C17.976 23.2252 18.1608 23.3337 18.1608 23.4093C18.1608 23.507 18.0524 23.5177 17.7576 23.4635C17.5285 23.41 17.2666 23.3008 17.1796 23.2145C17.0925 23.1168 17.0161 22.89 17.0161 22.6953C17.0161 22.3913 16.9726 22.3379 16.5801 22.2073C16.3289 22.1317 15.7951 22.0775 14.5084 22.1317V23.5062C14.5084 24.2645 14.4755 24.8495 14.432 24.806C14.3992 24.7632 14.29 24.46 14.1914 24.1347C14.0937 23.8102 14.0173 23.1611 14.0066 22.6953ZM18.5755 22.7922C18.5541 22.4998 18.5869 22.4135 18.761 22.37C18.8809 22.3371 19.0115 22.3165 19.0665 22.305C19.11 22.305 19.1429 22.3814 19.1429 22.4891C19.1429 22.5868 19.0665 22.7816 18.9794 22.9221C18.8916 23.0519 18.7717 23.1603 18.7068 23.1603C18.6412 23.1603 18.5869 22.9977 18.5755 22.7922Z" fill="#EF3D3A"/>
<path d="M25.3592 13.3077C25.4684 12.6258 25.5998 11.6728 25.6318 11.1963L25.7082 10.3303L26.09 10.7633C26.2977 11.0016 26.7223 11.5651 27.0278 12.008C27.3332 12.4525 27.8456 13.3513 28.1625 14.0118C28.5107 14.748 28.8597 15.6788 29.056 16.4478C29.2309 17.1297 29.4378 18.2553 29.5035 18.9373C29.5798 19.6413 29.602 20.5837 29.5577 21.1037C29.5142 21.6123 29.4164 22.4248 29.3286 22.9219C29.2415 23.4099 29.0231 24.2865 28.8383 24.8608C28.6528 25.445 28.2603 26.3873 27.4424 27.9787L26.9193 28.065C26.6353 28.1085 25.9808 28.314 25.4684 28.5201L25.4165 28.54C24.9278 28.7256 24.5299 28.8768 24.5085 28.8661C24.4978 28.8554 24.6613 28.3361 24.8797 27.7076C25.0981 27.0799 25.5883 25.5748 25.9701 24.3514C26.3519 23.1281 26.6681 21.959 26.6681 21.7528C26.6681 21.5367 26.5703 21.2335 26.4283 21.0273C26.2863 20.8441 25.7082 20.2912 25.1416 19.7933C24.5742 19.3061 24.0183 18.8082 23.9198 18.6784C23.8106 18.5585 23.7235 18.3638 23.7235 18.2561C23.7235 18.1584 23.9198 17.7139 24.1489 17.2924C24.3886 16.8594 24.7162 16.0576 24.869 15.5276C25.0217 14.9969 25.2508 13.9897 25.3592 13.3077ZM3.80024 13.2535C4.04002 12.8961 4.43253 12.3769 4.66162 12.0844V12.0951C4.9014 11.8026 5.09689 11.5758 5.1198 11.5758C5.13049 11.5758 5.14118 11.8782 5.15187 12.2463C5.16333 12.6258 5.27176 13.2428 5.39165 13.6323C5.51231 14.0217 5.75209 14.5418 5.93765 14.7907C6.12245 15.0504 6.44929 15.3864 6.657 15.549C6.86394 15.7224 7.24576 15.9278 7.497 16.0255C7.92234 16.1874 7.96587 16.2416 8.04224 16.6746C8.08576 16.9342 8.29271 17.4764 8.50042 17.8766C8.71805 18.2889 8.89293 18.7318 8.89293 18.8838C8.89293 19.1221 8.65238 19.2954 7.0602 20.237L4.53027 21.7421C4.13776 21.9804 3.67958 22.2728 3.51616 22.3912C3.26569 22.5867 3.22216 22.7058 3.22216 23.1067C3.22216 23.4313 3.45125 24.2323 3.92013 25.5099C4.30194 26.5713 4.66085 27.6099 4.73722 27.8161C4.80289 28.0222 4.92278 28.6064 5.02129 29.1158C5.10834 29.6244 5.18471 30.1872 5.17402 30.6858L4.683 30.1436C4.2866 29.6742 3.91202 29.1867 3.56045 28.6828C3.21071 28.1735 2.74184 27.4045 2.5242 26.9722C2.2756 26.4812 2.04984 25.979 1.84762 25.4671C1.69489 25.0548 1.49864 24.4377 1.40089 24.0811C1.31384 23.7237 1.1718 23.0525 1.10613 22.5867C1.04122 22.1209 1.00838 21.7207 1.04122 21.6986C1.0626 21.6879 1.12827 21.3091 1.18249 20.8761C1.22602 20.4317 1.35736 19.5871 1.48794 18.9922C1.60784 18.3966 1.86976 17.4222 2.06602 16.8266C2.26227 16.2309 2.63264 15.3321 2.89456 14.8236C3.16742 14.284 3.46977 13.7599 3.80024 13.2535ZM21.3898 21.8505C21.499 21.7635 21.7717 21.6558 22.0221 21.623C22.2627 21.5794 22.491 21.5466 22.5238 21.5367C22.546 21.5367 22.6437 21.5688 22.7201 21.6123C22.8186 21.6657 22.8843 22.0239 22.9171 22.6623C22.9606 23.4313 22.9385 23.6802 22.8178 23.8536C22.6552 24.0597 22.6117 24.0697 21.5533 23.9398C20.4842 23.7993 20.4521 23.7887 20.3864 23.5069C20.3536 23.3335 20.3429 23.193 20.3536 23.1709C20.3765 23.1602 20.5613 23.1067 20.7797 23.0632C21.1386 22.9868 21.1615 22.9548 21.1829 22.4996C21.2043 22.2079 21.2806 21.9475 21.3898 21.8505ZM14.4759 23.7665C14.4323 23.009 14.4323 22.3156 14.4759 22.2293C14.5415 22.1102 14.7599 22.0667 15.4029 22.0781C15.8718 22.0781 16.417 22.143 16.6354 22.2079C16.9623 22.3271 17.0173 22.3912 17.0173 22.6844C17.0173 22.8792 17.1043 23.1174 17.2135 23.2259C17.3334 23.3442 17.5625 23.4206 17.8351 23.4206C18.1948 23.4206 18.2704 23.4526 18.2704 23.6367C18.2704 23.778 17.9985 24.0697 17.5297 24.4385C17.1257 24.7516 16.5262 25.1418 16.1994 25.2938C15.8611 25.445 15.4029 25.5855 15.1631 25.6183C14.7813 25.6618 14.7157 25.6397 14.6393 25.4121C14.5858 25.2716 14.5194 24.5248 14.4759 23.7665ZM18.8706 22.9876C19.0126 22.8356 19.1432 22.6188 19.1325 22.4996C19.1325 22.3484 19.1761 22.3049 19.3181 22.3698C19.4158 22.4133 19.5472 22.5538 19.5907 22.6951C19.6564 22.8463 19.6342 23.0311 19.5472 23.2144C19.4708 23.3664 19.2853 23.5176 19.1432 23.5504C18.9584 23.5939 18.8271 23.5504 18.7293 23.4313C18.6201 23.2908 18.6423 23.2144 18.8706 22.9876Z" fill="#D33833"/>
<path fill-rule="evenodd" clip-rule="evenodd" d="M84.356 11.4675H88.6094V21.4826L93.4623 16.6641L98.3259 16.7183L95.5119 19.3383C93.9633 20.7785 92.5238 22.121 91.9351 22.7167L95.3921 26.2141C97.3004 28.1415 98.8277 29.7436 98.7841 29.7979C98.7513 29.8414 97.628 29.8742 96.3084 29.8742C94.9782 29.8742 93.8434 29.8299 93.7785 29.7872C93.7235 29.7436 92.5238 28.5096 88.6094 24.3516L88.5545 29.8192L84.356 29.8735V11.4675ZM100.605 11.4675H104.858V14.9321H100.605V11.4675ZM45.9695 12.2251L45.9374 21.1901C45.9153 29.0182 45.8825 30.2087 45.7297 30.6317C45.6427 30.9021 45.4243 31.3893 45.2609 31.7146C45.0867 32.0391 44.6942 32.5805 44.3888 32.9059C44.0505 33.2518 43.5266 33.6519 43.1234 33.8474C42.7416 34.0421 42.033 34.3018 41.5534 34.4316C41.0189 34.5729 40.1246 34.6813 37.7803 34.7997L37.8452 31.3351L38.718 31.2701C39.1976 31.2381 39.7107 31.151 39.8635 31.0968C40.0162 31.0319 40.2987 30.8479 40.5065 30.6745C40.7027 30.5019 40.9753 30.1659 41.1059 29.9277C41.335 29.4947 41.335 29.4084 41.3678 20.9954C41.3785 16.3181 41.4114 12.4312 41.4442 12.3549C41.477 12.2579 42.0437 12.2251 45.9695 12.2251ZM56.5802 16.3502C57.1041 16.3395 57.9113 16.4151 58.3694 16.5129C58.8375 16.5992 59.5905 16.8489 60.0372 17.0543C60.6588 17.3468 61.0513 17.6385 61.6844 18.2669C62.251 18.8404 62.6221 19.3169 62.8512 19.8041C63.0368 20.1936 63.2651 20.8221 63.3529 21.2115C63.4507 21.601 63.5599 22.4891 63.6905 24.46L53.6364 24.5135L53.7892 25.1091C53.8655 25.4344 54.0717 25.9003 54.2473 26.1385C54.4535 26.4302 54.8033 26.7013 55.2935 26.9503C56.0243 27.329 56.0465 27.329 57.4088 27.329C58.4779 27.3183 59.0017 27.2641 59.7646 27.0694C60.4332 26.8858 61.0888 26.658 61.7271 26.3875C62.2731 26.1492 62.7749 25.943 62.8512 25.9109C62.949 25.8781 62.9711 26.2248 62.9276 29.0617L62.0547 29.3542C61.5752 29.5161 60.6703 29.7543 60.0372 29.8841C59.0888 30.0903 58.5542 30.1339 56.9842 30.1224C55.3592 30.1224 54.9453 30.0903 54.203 29.8841C53.6405 29.7186 53.0933 29.505 52.5673 29.2457C52.1313 29.0182 51.5211 28.5638 51.15 28.195C50.7896 27.8384 50.3429 27.2534 50.1466 26.8968C49.9503 26.5387 49.6991 25.8567 49.5685 25.3802C49.4051 24.7525 49.3501 24.1676 49.3501 23.2688C49.3501 22.37 49.4051 21.7858 49.5685 21.1573C49.6991 20.6816 49.9397 20.021 50.1245 19.6957C50.3363 19.3143 50.5808 18.952 50.8553 18.6129C51.095 18.3425 51.6189 17.8989 52.0328 17.6171C52.4474 17.3246 53.0797 17.0001 53.4402 16.8703C53.7991 16.7404 54.4329 16.5778 54.8575 16.5022C55.2828 16.4258 56.0465 16.3502 56.5802 16.3502ZM54.6612 19.9126C54.3015 20.2371 54.0618 20.5838 53.9197 20.974C53.8105 21.2764 53.7128 21.6124 53.7128 21.6995C53.7128 21.84 54.0946 21.8614 56.4718 21.8614H59.2194C59.1323 21.0496 58.9689 20.6052 58.7841 20.302C58.5321 19.8912 58.3145 19.685 57.8563 19.4575C57.3874 19.22 57.1262 19.1543 56.6574 19.1657C56.3298 19.1657 55.8609 19.2307 55.6211 19.2956C55.3699 19.3712 54.9667 19.6316 54.6612 19.9126ZM75.5238 16.3495C75.9163 16.3495 76.5486 16.4144 76.9411 16.5121C77.3343 16.5984 77.8467 16.7824 78.0865 16.9237C78.3263 17.0642 78.7081 17.3781 78.9258 17.627C79.1549 17.8653 79.4603 18.3204 79.613 18.6121C79.7658 18.916 79.962 19.4567 80.0605 19.8362C80.2018 20.3883 80.2453 21.352 80.3217 29.8727H75.959V25.704C75.959 22.8785 75.9155 21.3513 75.8285 20.9618C75.7406 20.5937 75.5887 20.2906 75.3703 20.063C75.1519 19.8576 74.8357 19.6949 74.4867 19.6201C74.1649 19.5473 73.8326 19.5323 73.5055 19.5758C73.2422 19.6292 72.986 19.7128 72.7418 19.8248C72.5677 19.9118 72.2401 20.1821 72.0332 20.4311C71.7932 20.7216 71.5917 21.042 71.4337 21.3841C71.2375 21.8713 71.2153 22.218 71.1611 29.8727H66.9077V16.6641H71.1611L71.1497 18.5594L71.8369 17.8989C72.2187 17.5308 72.7854 17.1085 73.0908 16.9459C73.4077 16.7947 73.9308 16.5992 74.2363 16.5129C74.6579 16.4114 75.0894 16.3568 75.523 16.3502L75.5238 16.3495ZM117.508 16.3495C117.901 16.3495 118.534 16.4144 118.927 16.5121C119.319 16.5984 119.831 16.7824 120.071 16.9237C120.311 17.0642 120.693 17.3781 120.911 17.627C121.14 17.8653 121.446 18.3089 121.599 18.6121C121.751 18.9046 121.948 19.4567 122.045 19.8248C122.187 20.3883 122.231 21.352 122.307 29.8727H117.945V25.704C117.945 22.8785 117.901 21.3513 117.814 20.9618C117.727 20.5937 117.574 20.2906 117.356 20.063C117.138 19.8576 116.822 19.6949 116.473 19.6201C116.151 19.5473 115.818 19.5323 115.491 19.5758C115.228 19.631 114.973 19.7144 114.728 19.8248C114.543 19.9118 114.226 20.1821 114.019 20.4311C113.779 20.7215 113.577 21.0418 113.419 21.3841C113.223 21.8713 113.202 22.218 113.147 29.8727H108.894V16.6641H113.147L113.136 18.5594L113.823 17.8989C114.204 17.5308 114.772 17.1085 115.077 16.9459C115.448 16.775 115.831 16.6304 116.222 16.5129C116.643 16.4114 117.075 16.3561 117.508 16.3495ZM131.217 16.3495C131.838 16.3495 132.896 16.4144 133.561 16.5014C134.237 16.5984 135.186 16.7504 136.538 17.0428L136.56 18.6449C136.593 20.1172 136.582 20.2364 136.396 20.1722C136.299 20.1394 135.775 19.966 135.229 19.7927C134.684 19.6087 133.834 19.4032 133.321 19.3055C132.744 19.2147 132.161 19.1639 131.576 19.1535C131.129 19.1535 130.497 19.2299 130.18 19.3162C129.81 19.4246 129.537 19.5758 129.395 19.7713C129.265 19.9439 129.166 20.1936 129.166 20.3448C129.166 20.496 129.265 20.7457 129.395 20.9076C129.515 21.0809 129.777 21.2543 129.963 21.32C130.159 21.3734 131.01 21.5246 131.849 21.6437C132.689 21.7629 133.769 21.9584 134.248 22.0882C134.728 22.2073 135.415 22.4669 135.775 22.6617C136.168 22.8785 136.571 23.2039 136.79 23.4956C136.996 23.7552 137.236 24.2424 137.323 24.5677C137.443 24.9785 137.476 25.4551 137.443 26.1377C137.411 26.8632 137.323 27.2633 137.127 27.6963C136.986 28.0216 136.648 28.4867 136.375 28.7356C136.102 28.9853 135.666 29.2992 135.394 29.4397C135.121 29.5695 134.531 29.7757 134.085 29.8948C133.572 30.0247 132.711 30.1216 131.795 30.1652C130.758 30.2087 129.94 30.1759 129.013 30.046C128.294 29.9483 127.236 29.7643 125.633 29.3748L125.601 27.7834C125.579 26.3103 125.589 26.192 125.764 26.2561C125.873 26.2996 126.429 26.4951 126.997 26.6899C127.563 26.8846 128.501 27.1335 129.068 27.2313C129.756 27.3504 130.475 27.3932 131.195 27.3611C131.947 27.3283 132.406 27.2527 132.667 27.1228C132.874 27.0144 133.136 26.8197 133.234 26.6899C133.343 26.5707 133.43 26.2889 133.43 26.0835C133.43 25.8667 133.343 25.5742 133.212 25.4008C133.092 25.2389 132.819 25.0648 132.58 25.0007C132.362 24.9465 131.511 24.806 130.704 24.6868C129.991 24.5816 129.282 24.4517 128.577 24.2974C128.167 24.1825 127.766 24.0376 127.378 23.8636C127.072 23.7231 126.615 23.3764 126.342 23.0847C126.038 22.7605 125.804 22.377 125.655 21.9584C125.535 21.601 125.469 21.0489 125.469 20.5075C125.469 20.0309 125.535 19.3925 125.622 19.0993C125.709 18.7969 125.95 18.3418 126.146 18.0715C126.353 17.8004 126.756 17.4323 127.051 17.2589C127.416 17.0508 127.799 16.877 128.196 16.7397C128.608 16.6214 129.027 16.5271 129.45 16.4571C129.81 16.4037 130.606 16.3594 131.217 16.3495ZM100.605 16.6633H104.859V29.8735H100.605V16.6641V16.6633Z" fill="black"/>
<path d="M14.9988 2.56721C15.4836 2.42164 15.9749 2.29881 16.4711 2.19913C16.8857 2.12277 17.867 2.06932 18.652 2.05786C19.4378 2.05786 20.3641 2.11208 20.7245 2.18768C21.0842 2.26404 21.5203 2.43739 21.7058 2.56721C21.8914 2.69703 22.2182 3.02157 22.4366 3.29266C22.6657 3.56299 22.8513 3.83408 22.8513 3.8883C22.8513 3.94175 22.7421 4.01812 22.6 4.0395C22.4695 4.07233 22.2297 4.1907 22.0548 4.30983C21.8737 4.46594 21.7381 4.66803 21.6623 4.89477C21.6073 5.07881 21.5859 5.33844 21.6073 5.45757C21.6401 5.5767 21.7493 5.67444 21.8479 5.67444C21.9456 5.66375 22.109 5.62099 22.1968 5.56601C22.2839 5.51255 22.5787 5.47972 22.8513 5.48964C23.1781 5.5011 23.4943 5.59884 23.8211 5.80426C24.138 5.99899 24.3992 6.28077 24.5633 6.59462C24.7046 6.86572 24.8573 7.4499 24.9223 7.89433C24.9772 8.33724 25.0322 9.44223 25.0322 10.3303C25.0322 11.2719 24.9665 12.3769 24.868 12.9611C24.781 13.5032 24.574 14.3585 24.4213 14.8556C24.2579 15.3428 23.9631 16.0904 23.7447 16.5013C23.5385 16.9136 23.1338 17.6063 22.8513 18.0171C22.5672 18.4295 22.1525 18.938 21.9128 19.132C21.6837 19.3275 21.0957 19.6849 20.6153 19.9124C20.1358 20.1392 19.4699 20.389 19.1431 20.4539C18.8162 20.5295 18.1503 20.573 17.6708 20.5402C16.93 20.5081 16.6673 20.4317 15.9259 20.0743C15.3264 19.7712 14.8033 19.4031 14.2466 18.8831C13.7569 18.411 13.3014 17.9047 12.8835 17.368C12.5239 16.8808 12.3161 16.6861 12.2948 16.8044C12.2841 16.9022 12.404 17.2489 12.5674 17.5627C12.7415 17.8766 13.3524 18.6127 13.9954 19.2626C14.6063 19.8903 15.108 20.4103 15.108 20.4317C15.108 20.4424 14.9232 20.4539 14.7048 20.4539C14.4536 20.4424 14.1703 20.5295 13.9961 20.67C13.7342 20.854 13.5922 20.8762 12.9599 20.8219C12.2291 20.757 12.2184 20.7456 11.7274 20.1728C11.4135 19.7905 11.1291 19.3848 10.8767 18.9594C10.6919 18.6234 10.4078 17.9743 10.2658 17.5299C10.0933 16.9621 9.95862 16.3835 9.86258 15.798C9.78622 15.2894 9.67778 14.8129 9.61211 14.7365C9.52075 14.6492 9.40013 14.5991 9.27382 14.596C9.15392 14.596 8.93552 14.6938 8.7828 14.8129C8.63007 14.9213 8.39029 15.0511 8.23756 15.0939C8.08483 15.1374 7.79083 15.116 7.58389 15.0511C7.37618 14.9862 7.06003 14.7915 6.87447 14.6067C6.58047 14.2936 6.54763 14.2066 6.55832 13.5452C6.55832 13.1451 6.58047 12.593 6.61331 12.3112C6.63469 12.0195 6.67822 11.7919 6.71105 11.7919C6.74389 11.7919 6.87447 11.7484 7.00582 11.7049C7.2456 11.6293 7.2456 11.6514 7.19062 12.2791C7.14709 12.6907 7.17992 13.0481 7.26698 13.2535C7.39832 13.5781 7.40902 13.5674 7.464 12.9068C7.49607 12.5388 7.60527 12.16 7.69309 12.0623C7.78014 11.976 7.93287 11.9218 8.01992 11.9546C8.10698 11.976 8.30323 12.2356 8.43382 12.5174C8.63083 12.9175 8.71789 12.9939 8.7828 12.8748C8.83778 12.7877 8.83778 12.5174 8.7828 12.2791C8.72934 12.0409 8.57662 11.7163 8.23756 11.2505L8.54302 11.3696C8.7072 11.4346 8.90345 11.543 8.97982 11.6079C9.05618 11.6843 9.12109 11.8355 9.10963 11.9546C9.10963 12.1493 9.15392 12.16 9.67702 12.0951C9.99392 12.0516 10.3315 11.9431 10.4193 11.8568C10.5605 11.7049 10.5605 11.5644 10.3315 10.6335C10.2009 10.0486 10.0917 9.46361 10.0917 9.33379C10.0917 9.19328 10.2009 8.56557 10.3315 7.92641C10.4628 7.27732 10.6041 6.73513 10.6369 6.70306C10.6804 6.67023 10.8439 6.41059 10.9966 6.10743C11.1386 5.81495 11.4876 5.27353 11.7602 4.91615C12.0221 4.55953 12.4582 4.09372 12.7201 3.87761C12.982 3.66073 13.4395 3.33543 13.7449 3.1407C14.0397 2.95742 14.6063 2.69703 14.9988 2.56721ZM18.4344 21.2977C18.9689 21.2549 19.5569 21.1793 19.7326 21.1251C19.9067 21.0709 20.0808 21.0487 20.1144 21.0816C20.1465 21.103 19.9831 21.2878 19.7433 21.4932C19.3393 21.8506 19.2736 21.8612 18.7612 21.807C18.4672 21.7635 18.0419 21.6558 17.4531 21.374L18.4344 21.2977Z" fill="#F0D6B7"/>
<path d="M21.3783 25.4886C21.4218 25.0121 21.4768 24.5898 21.5096 24.5463V24.5356C21.531 24.4921 21.7387 24.4592 21.9564 24.4592C22.1748 24.4592 22.5238 24.557 22.72 24.6761C22.9056 24.7952 23.0904 24.9686 23.1232 25.0556C23.156 25.1419 23.0255 25.4985 22.8292 25.8345C22.6436 26.1812 22.1748 26.9609 21.793 27.5672C21.4111 28.1842 21.0843 28.6714 21.0515 28.6501C21.0186 28.6394 21.0622 28.1193 21.1492 27.4916C21.237 26.8632 21.3348 25.9644 21.3783 25.4886ZM16.1222 26.2568C16.2535 26.0835 16.646 25.7269 17.0057 25.4779C17.3547 25.2183 17.6815 25.0121 17.7365 25.0121C17.7907 25.0121 18.0091 25.2717 18.2161 25.5749C18.423 25.8888 18.8705 26.744 19.1974 27.4695C19.525 28.2064 19.7976 28.8448 19.7976 28.9097C19.7976 28.9746 19.5135 28.9204 19.176 28.7906C18.827 28.6714 17.8892 28.2492 15.6533 27.1778L15.7732 26.8746C15.8389 26.712 15.9916 26.4409 16.1222 26.2568Z" fill="#81B0C4"/>
<path d="M23.418 21.5902C23.3637 21.335 23.2982 21.0822 23.2217 20.8327C23.1561 20.6594 23.1667 20.638 23.2981 20.735C23.3852 20.7999 23.9625 21.2328 24.5963 21.6987C25.2278 22.1645 25.7517 22.5539 25.7624 22.5539C25.7738 22.5646 25.686 22.9762 25.5661 23.4856C25.4221 24.0864 25.2586 24.6823 25.0758 25.2725C24.9117 25.7482 24.552 26.744 24.2687 27.4916C23.9739 28.2384 23.6471 28.9204 23.5486 29.0074C23.4287 29.1044 22.9491 29.2136 22.284 29.2778C21.6952 29.3427 21.2149 29.3541 21.2149 29.3106C21.2149 29.2564 21.7273 28.379 22.3489 27.3503C22.9705 26.3332 23.5486 25.3588 23.6249 25.1961C23.767 24.9365 23.7563 24.8823 23.4722 24.5791C23.2217 24.2866 23.1996 24.211 23.2981 24.0048C23.3745 23.8643 23.4508 23.3878 23.4829 22.9434C23.5058 22.5005 23.4829 21.8934 23.418 21.5902ZM5.57715 23.507C5.57715 23.4306 6.54697 22.9327 7.9322 22.305L10.288 21.2435L10.9967 21.688C11.3785 21.9369 12.0986 22.3271 12.5774 22.5646C13.4403 22.9869 13.4724 23.0091 13.5816 23.4856C13.6465 23.7559 13.8321 24.4058 13.9955 24.9365C14.1597 25.4664 14.3994 26.0186 14.53 26.1598C14.7263 26.3546 14.8576 26.3981 15.5441 26.3003L15.2715 26.7012C15.0859 26.9716 14.9989 27.2312 15.021 27.4374C15.0539 27.7406 15.1623 27.8162 18.4345 29.419L16.9072 29.4832C16.0672 29.5267 14.7156 29.6244 13.9084 29.7107C13.3713 29.7723 12.8334 29.8265 12.2949 29.8734C12.1963 29.8734 12.1635 29.4946 12.1635 26.7883L11.7275 26.3003C11.3785 25.8994 11.2693 25.8345 11.1601 25.9536C11.0623 26.0514 11.0188 26.5928 11.0188 27.8704C11.0188 28.8448 10.986 29.6787 10.9425 29.7329C10.8989 29.7756 10.6584 29.6894 10.4186 29.516C10.1788 29.3534 9.92835 29.2235 9.87337 29.2235C9.80846 29.2235 9.76417 29.2884 9.76417 29.3534C9.75348 29.4297 9.82984 29.5702 9.92835 29.6565C10.0261 29.7436 10.1025 29.9062 10.0918 30.0032C10.0918 30.1223 9.97188 30.2201 9.78631 30.2628C9.62289 30.3064 9.38311 30.4362 9.02268 30.7936L9.30675 31.0211C9.48086 31.151 9.86268 31.2808 10.2002 31.3243C10.5286 31.3678 10.8989 31.4213 11.0188 31.4541C11.2036 31.4976 11.2479 31.6382 11.3243 32.3422C11.367 32.7897 11.5053 33.8038 11.6129 34.5995L11.6183 34.6377C11.7382 35.4388 11.8038 36.1207 11.771 36.1528C11.7382 36.1856 11.3785 36.1421 10.9539 36.0665C10.5385 36.0016 9.84129 35.7962 9.40449 35.6335C8.97915 35.4708 8.20559 35.1028 6.76537 34.3231L6.85318 33.6954C6.9074 33.3487 6.91809 32.4614 6.88526 31.7138C6.8315 30.7534 6.73339 29.7961 6.59126 28.8448C6.41901 27.7206 6.2153 26.6014 5.98035 25.4886C5.7734 24.4814 5.58784 23.5826 5.57715 23.507ZM20.953 31.671C21.1935 31.6275 21.499 31.5297 21.6509 31.4434C21.9022 31.2915 21.9129 31.3029 21.9892 31.855C22.0434 32.1681 22.0984 32.9486 22.1526 34.7889L21.4547 34.908C21.0843 34.9615 20.7567 34.9943 20.7353 34.9615C20.7132 34.9294 20.659 34.1933 20.5169 31.7359L20.953 31.671Z" fill="#335061"/>
<path d="M11.5967 21.4275C11.4875 21.3412 11.4111 21.2007 11.4111 21.1144C11.4333 21.0273 11.499 21.0059 11.6074 21.0495C11.7059 21.0922 12.077 21.1793 12.4367 21.2327C12.7964 21.2869 13.2003 21.3412 13.3302 21.3526C13.5272 21.374 13.5592 21.4175 13.5165 21.5901C13.4722 21.7092 13.4287 21.8284 13.3958 21.8612C13.3744 21.8933 13.069 21.8505 12.7315 21.7749C12.4722 21.7085 12.21 21.6542 11.9457 21.6123C11.8586 21.6016 11.6952 21.5145 11.5967 21.4282V21.4275ZM19.4706 25.8993C19.1651 25.1632 19.1544 25.0876 19.3064 24.8386C19.4056 24.6867 19.5576 24.5675 19.6668 24.5675C19.7646 24.5675 20.0922 24.6874 20.9421 25.0769L20.8772 26.3109C20.8443 26.9936 20.768 27.7183 20.6481 28.304L20.2227 27.4907C19.9936 27.0463 19.6561 26.3208 19.4706 25.8993ZM25.0428 29.7221C25.3047 29.6136 25.9156 29.3754 26.3952 29.1692C26.8748 28.9745 27.3986 28.8118 27.562 28.8011C27.769 28.7904 27.9874 28.9096 28.2379 29.1478C28.4853 29.3784 28.6747 29.7106 28.8052 30.1436C28.9038 30.501 28.9908 30.9668 28.9801 31.173C28.9801 31.3784 28.8709 31.8763 28.5219 33.0133L26.7984 32.9484C25.8607 32.9049 25.0756 32.8721 25.065 32.8614C25.0535 32.8614 24.9451 32.2337 24.8244 31.4754C24.6946 30.7072 24.5846 30.0466 24.5739 30.0031C24.5739 29.9496 24.7809 29.8198 25.0428 29.7221ZM12.4039 30.6201C12.8399 30.5445 13.767 30.4368 14.4542 30.3605C15.1415 30.2841 16.2427 30.22 16.9078 30.2093C17.5722 30.2093 18.3801 30.2307 19.3071 30.3276L19.3178 32.7865C19.3285 34.1283 19.3942 35.893 19.4599 36.6941C19.5248 37.4959 19.634 38.4481 19.6996 38.8055C19.7539 39.1629 19.8302 39.5638 19.8524 39.7043C19.8959 39.9105 19.7974 39.9968 18.9795 40.3763C18.4671 40.6138 17.9761 40.8085 17.8891 40.8085C17.802 40.8085 17.7035 40.8521 17.6707 40.917C17.6386 40.9819 17.3331 41.0254 16.9834 41.0254C16.6459 41.0254 16.0464 40.972 15.6539 40.9063C15.2606 40.8528 14.7704 40.7658 14.5634 40.7329C14.3093 40.6911 14.0605 40.6219 13.8212 40.5268C13.6364 40.4405 13.4722 40.3 13.4722 40.2137C13.4754 40.133 13.4645 40.0524 13.4401 39.9754C13.3757 39.7905 13.3141 39.6047 13.2553 39.418L13.2324 39.3469C13.1232 39.0545 12.9384 38.3947 12.8185 37.8853C12.6413 37.1666 12.4776 36.4446 12.3275 35.7197C12.141 34.779 11.9811 33.8332 11.8479 32.8835C11.7166 31.9954 11.6188 31.1615 11.6188 31.0103C11.6188 30.7614 11.6731 30.7278 12.4039 30.6201ZM22.9168 32.0389C22.8176 31.3563 22.7091 30.6644 22.6763 30.501C22.6114 30.2093 22.6328 30.1978 23.0581 30.1978C23.4506 30.1978 23.527 30.2413 23.6797 30.5552C23.7782 30.7392 23.9302 31.2593 24.0066 31.6922C24.0944 32.1145 24.1593 32.5804 24.1593 32.7209C24.1707 32.9049 24.0615 33.0027 23.669 33.1539C23.3964 33.2516 23.1566 33.3272 23.1345 33.3165C23.1123 33.2944 23.0154 32.7209 22.9168 32.0389Z" fill="white"/>
<path d="M9.56846 3.82279C9.9406 3.51066 10.3341 3.22488 10.746 2.96752C11.0728 2.76134 11.4111 2.59945 11.4982 2.59945C11.5967 2.58876 11.5203 2.72927 11.3241 2.93545C11.1492 3.13018 10.8224 3.56316 10.6154 3.8877C10.397 4.21301 10.1351 4.51617 10.0259 4.54825C9.90599 4.58108 9.63337 4.59178 9.41497 4.57039C9.18588 4.55894 9.00108 4.48334 9.00108 4.42912C9.00108 4.37567 9.26301 4.09312 9.56846 3.82279ZM7.97628 6.32447C8.21606 6.1725 8.69563 5.95563 9.0553 5.84796C9.41574 5.72883 9.77541 5.63108 9.85177 5.63108C9.97166 5.62039 9.98236 5.84796 9.92814 6.72461C9.8953 7.34163 9.82963 8.15414 9.77541 8.54359C9.72228 8.99359 9.72947 9.44866 9.79679 9.89676C9.86246 10.2541 9.91745 10.7093 9.91745 10.9147C9.92814 11.1209 9.87392 11.3041 9.81894 11.3263C9.76472 11.3477 9.66621 11.1858 9.62268 10.9582C9.55701 10.7093 9.37221 10.3954 9.13166 10.1678C8.86772 9.91295 8.54017 9.73361 8.18323 9.64857C7.79072 9.55083 7.52879 9.53937 7.25617 9.62643C7.04923 9.67988 6.84152 9.73487 6.79799 9.73487C6.74377 9.73487 6.71094 9.4317 6.71094 9.05294C6.71094 8.6841 6.7873 8.13199 6.87436 7.84028C6.96217 7.53712 7.15843 7.13621 7.2997 6.94148C7.44174 6.74599 7.74719 6.46497 7.97628 6.32447Z" fill="#6D6B6D"/>
<path d="M22.2836 20.0532C22.2729 20.0097 22.4256 19.815 22.6219 19.6202C22.8181 19.4255 23.0365 19.3064 23.1129 19.3384C23.1786 19.382 23.8108 19.9555 24.5195 20.6061C25.642 21.6668 25.7948 21.8508 25.7948 22.154C25.7948 22.3487 25.7734 22.5114 25.7413 22.5114C25.7085 22.5114 25.1083 22.0891 24.4103 21.5583C23.7123 21.0391 23.0251 20.5083 22.883 20.3671C22.7417 20.2372 22.5569 20.1288 22.4691 20.1288C22.3821 20.1288 22.2943 20.0967 22.2836 20.0532ZM6.6023 21.4713C7.08337 21.1801 7.57443 20.9058 8.07459 20.6488C8.61982 20.3671 9.13222 20.1296 9.22004 20.1296C9.3071 20.1181 9.5904 20.3457 9.84088 20.616C10.1028 20.8871 10.3097 21.136 10.3097 21.1796C10.3097 21.233 9.24066 21.7424 7.93255 22.3166C6.53662 22.9443 5.5775 23.4208 5.5775 23.5079C5.58819 23.5827 5.77375 24.4708 5.9807 25.4888C6.1991 26.5067 6.4824 28.0332 6.61299 28.8992C6.7764 29.9713 6.85277 31.0213 6.86422 32.2019C6.87491 33.1542 6.84208 34.0209 6.79855 34.1186C6.73288 34.2584 6.65651 34.2912 6.52593 34.2156C6.36251 34.1392 6.31899 33.8903 6.24262 32.7861C6.1991 32.0499 6.05706 30.7395 5.93717 29.8736C5.80582 29.0076 5.54466 27.6438 5.33695 26.8419C5.13 26.0401 4.75888 24.9038 4.09375 23.2689L5.09717 22.5327C5.58932 22.1659 6.09094 21.812 6.60153 21.4713H6.6023ZM11.4117 28.8663C11.4002 28.3142 11.4117 27.459 11.4552 26.9496L11.5316 26.0302L11.8477 26.409C12.1532 26.7877 12.1532 26.7877 12.1639 29.8736L11.8584 29.9385C11.695 29.9713 11.5423 29.9713 11.5094 29.9278C11.4766 29.8843 11.4331 29.4085 11.4117 28.8663ZM20.5608 31.0648C20.5608 30.4799 20.583 30.415 20.8006 30.3715C20.9426 30.3501 21.2152 30.3287 21.4008 30.318C21.6948 30.3066 21.7712 30.3501 21.8147 30.5448C21.8475 30.6853 21.8697 30.9129 21.8697 31.0641C21.8697 31.2382 21.7933 31.3787 21.6299 31.4543C21.4879 31.5307 21.1931 31.617 20.5608 31.7139V31.0648ZM10.2555 31.3352C9.80804 31.2817 9.4919 31.1733 9.27426 30.9992L8.94666 30.7395L11.1276 30.7938L11.1719 31.1725C11.1933 31.465 11.1719 31.5299 11.0627 31.4871C10.9749 31.4436 10.6152 31.3787 10.2555 31.3352Z" fill="#49728B"/>
<path d="M10.1458 2.69739C10.5055 2.49121 11.1493 2.18804 11.5639 2.02539C11.9778 1.8635 12.3703 1.74437 12.4253 1.75506C12.4795 1.76575 12.5452 1.84212 12.5666 1.90702C12.578 1.98262 12.5123 2.08037 12.4031 2.12313C12.3054 2.15597 12.087 2.28579 11.9129 2.39422C11.7487 2.50266 11.5639 2.58895 11.5089 2.58895C11.4547 2.58895 11.0943 2.77299 10.7239 2.98986C10.3421 3.20597 9.72049 3.70386 9.32798 4.07193C8.88126 4.50568 8.49944 4.7867 8.29173 4.81953C8.10693 4.85161 7.9542 4.85161 7.94275 4.81953C7.92136 4.7867 7.99773 4.62481 8.11762 4.45146C8.22682 4.28881 8.58649 3.90928 8.90264 3.61757C9.28702 3.27224 9.70328 2.96413 10.1458 2.69739ZM7.70296 5.91306C8.03056 5.69619 8.51013 5.43655 8.78275 5.36095C9.05536 5.2739 9.40435 5.1983 9.56776 5.1983C9.76402 5.18761 9.89536 5.25175 9.9282 5.37164C9.96027 5.48008 9.97173 5.56637 9.96027 5.57782C9.93889 5.58775 9.57846 5.69619 9.16456 5.81532C8.74991 5.93444 8.20467 6.18339 7.96489 6.34604C7.70054 6.54218 7.46238 6.77135 7.25624 7.02797C7.1142 7.23415 6.92864 7.62361 6.85227 7.8947C6.77591 8.16502 6.711 8.68506 6.711 9.05313C6.711 9.44259 6.66747 9.73506 6.6018 9.73506C6.53613 9.73506 6.50329 9.26924 6.52544 8.51171C6.54758 7.42888 6.57966 7.24408 6.83089 6.81186C6.99431 6.53008 7.36544 6.15132 7.70296 5.91306ZM12.7414 22.0235C12.4467 21.9372 12.1198 21.786 11.9999 21.699L11.7815 21.5157L11.9999 21.5905C12.1198 21.634 12.5017 21.7203 12.8506 21.7967C13.1882 21.8616 13.4722 21.9479 13.4722 21.9914C13.4722 22.0449 13.4287 22.0999 13.363 22.1319C13.2974 22.1648 13.0247 22.1106 12.7414 22.0235ZM18.8375 24.1892C18.9681 24.1785 19.1865 24.1243 19.3064 24.0487C19.4263 23.9838 19.5683 23.9295 19.6333 23.9295C19.6989 23.9295 19.9387 24.0594 20.1785 24.1999C20.4183 24.3518 20.7023 24.471 20.8001 24.471C20.9421 24.471 20.9963 24.5572 20.9963 25.12L20.4297 24.8497C20.1136 24.6985 19.7646 24.5794 19.6661 24.5794C19.5569 24.5794 19.3935 24.6878 19.3064 24.8176C19.1537 25.0444 19.1537 25.1094 19.3499 25.608C19.4591 25.9005 19.8081 26.6466 20.1136 27.2536C20.5168 28.0654 20.6481 28.4228 20.5718 28.5526C20.4839 28.7366 20.4725 28.7259 20.3641 28.5312C20.3098 28.4121 19.9609 27.6759 19.6119 26.907C19.2629 26.128 18.8154 25.2613 18.6191 24.9795C18.3251 24.5466 18.2923 24.4496 18.4229 24.3411C18.5099 24.2762 18.6955 24.2113 18.8375 24.1892ZM24.3663 30.6098C24.3121 30.3937 24.2899 30.1555 24.3227 30.1012C24.3663 30.0363 24.4319 29.9928 24.4862 29.9928C24.5518 29.9928 24.5954 30.0142 24.5954 30.0463C24.5954 30.0791 24.6939 30.7183 24.8245 31.4758C24.9443 32.2341 25.0535 32.8618 25.0642 32.8732C25.0749 32.8839 25.8599 32.916 28.5212 33.0244L28.7396 32.2883C28.8595 31.8874 28.9573 31.4651 28.9573 31.346C28.9573 31.1627 28.9794 31.1512 29.0886 31.2704C29.1863 31.3574 29.2299 31.7362 29.2299 32.3746C29.2299 33.1764 29.197 33.3818 29.0008 33.6308C28.846 33.826 28.6706 34.0039 28.4777 34.1615C28.2379 34.3348 27.9653 34.3776 27.1261 34.4104C26.3731 34.4425 26.1005 34.4104 26.1769 34.3341C26.2418 34.2699 26.5907 34.1508 26.9726 34.0744C27.3437 33.9988 27.6491 33.9232 27.6491 33.8912C27.6491 33.8583 27.5178 33.8041 27.3544 33.7613C27.1803 33.7171 26.5472 33.7171 24.8351 33.8362L24.7702 33.5659C24.7038 33.0978 24.6455 32.6286 24.5954 32.1585C24.5297 31.53 24.4319 30.8374 24.3663 30.6098ZM19.2957 33.5659C19.2514 32.4616 19.2514 31.2917 19.2843 30.9565C19.3393 30.3609 19.3499 30.3502 19.6226 30.4143C19.786 30.4472 19.9387 30.5556 19.9609 30.6427C19.9937 30.729 20.0701 31.6598 20.1243 32.6999C20.1899 33.7384 20.2877 35.4719 20.3419 36.5433C20.3969 37.6154 20.4839 38.9029 20.5275 39.4123C20.571 39.9216 20.6145 40.3974 20.6145 40.4844C20.6145 40.5821 20.4083 40.6906 20.0701 40.7876C19.7753 40.8639 19.0773 40.9609 18.5428 41.0044C17.7906 41.0579 17.5837 41.0472 17.6493 40.9502C17.6921 40.8739 17.8021 40.8204 17.8883 40.8204C17.9762 40.8204 18.4664 40.6249 18.9788 40.3867C19.7967 40.0079 19.8952 39.9208 19.8517 39.7047C19.8295 39.5749 19.7531 39.174 19.6989 38.8166C19.6333 38.46 19.5355 37.5826 19.4805 36.8678C19.4156 36.1538 19.3393 34.6701 19.2957 33.5659ZM23.1452 33.7285C23.0902 33.4254 23.1124 33.3925 23.5377 33.2192C23.7882 33.1222 24.028 33.0359 24.083 33.0359C24.1265 33.0244 24.1479 33.2299 24.1372 33.4788C24.1043 33.9126 24.083 33.9446 23.7011 34.0531C23.4827 34.1065 23.2758 34.1394 23.2537 34.1065C23.2323 34.0744 23.1773 33.9011 23.1452 33.7285ZM20.7237 35.872L21.1605 35.7636C21.3896 35.7102 21.6187 35.6872 21.6615 35.7201C21.7058 35.7529 21.847 36.2943 21.9669 36.922C22.0983 37.5505 22.196 38.2111 22.196 38.4058C22.196 38.709 22.1418 38.7739 21.847 38.8716C21.6346 38.9364 21.4146 38.9726 21.1926 38.9793C20.8986 38.9793 20.8871 38.9472 20.8871 38.46C20.8871 38.1782 20.8551 37.4864 20.7237 35.872Z" fill="#DCD9D8"/>
<path d="M14.0176 1.68995C14.4101 1.47384 14.9996 1.22413 15.3264 1.12715C15.7518 1.01871 16.2314 0.975185 16.9622 1.00802C17.5295 1.04009 18.3688 1.14853 18.8163 1.26766C19.263 1.38678 20.0045 1.65711 20.452 1.87398C21.2484 2.24206 21.2591 2.25275 20.7788 2.17715C20.5062 2.13438 19.4486 2.11224 18.4344 2.11224C16.8965 2.12293 16.4276 2.16646 15.7083 2.36118C15.2287 2.491 14.5956 2.70788 14.2902 2.84838C13.9962 2.98966 13.4395 3.32489 13.0691 3.60668C12.7095 3.88769 12.1749 4.39704 11.9023 4.73228C11.5817 5.1386 11.2937 5.56961 11.0409 6.02129C10.8554 6.40006 10.6591 6.70322 10.6156 6.70322C10.5606 6.70322 10.5606 6.59478 10.5934 6.46497C10.6263 6.32446 10.5934 5.90217 10.5171 5.51195C10.3865 4.80864 10.3865 4.80864 10.7133 4.32068C10.9702 3.9671 11.2626 3.64085 11.5862 3.34704C11.9445 3.03004 12.3233 2.73693 12.7202 2.46962C13.1416 2.19166 13.5747 1.93179 14.0183 1.69071L14.0176 1.68995ZM21.9021 4.44057C21.9785 4.35351 22.2297 4.20231 22.4695 4.08318L22.9055 3.88769L23.5164 4.59177L23.1568 4.6246C22.9245 4.64504 22.6965 4.69959 22.4802 4.78649C22.2946 4.86286 22.077 5.08966 21.9456 5.35006C21.7395 5.76089 21.728 5.77235 21.6402 5.53333C21.5753 5.39282 21.5867 5.15457 21.6516 4.93769C21.7166 4.75442 21.8258 4.52686 21.9021 4.44057ZM6.3079 11.0124C6.44994 10.8284 6.73325 10.6115 6.94019 10.5359C7.1479 10.4496 7.51827 10.3847 7.7695 10.3847C8.15132 10.3847 8.30405 10.4496 8.56521 10.7093C8.74008 10.8826 8.89281 11.0773 8.89281 11.1422C8.89281 11.1965 8.91419 11.3049 8.94627 11.3805C8.97987 11.4782 8.77216 11.4454 8.25976 11.2827C7.72521 11.1102 7.45259 11.0773 7.22427 11.1529C7.06008 11.2071 6.87528 11.3591 6.79892 11.4889C6.73325 11.6294 6.64619 11.9761 6.61336 12.2793C6.58052 12.5718 6.55837 13.1559 6.58052 14.3365L6.31859 13.8493C6.163 13.5189 6.03899 13.1745 5.94823 12.8207C5.86041 12.4313 5.86041 12.1487 5.93678 11.8135C6.00245 11.5645 6.17732 11.2071 6.3079 11.0124ZM9.08907 15.4194C9.28532 15.1811 9.43805 14.8886 9.43805 14.7695C9.43805 14.5748 9.44874 14.5633 9.57932 14.7153C9.66637 14.8023 9.79772 15.2895 9.86263 15.7981C9.93899 16.296 10.1032 17.0322 10.2231 17.4224C10.343 17.8011 10.6049 18.4395 10.8111 18.8298C11.0188 19.2085 11.4006 19.7828 11.674 20.0966C12.0443 20.5296 12.1207 20.6701 11.968 20.6701C11.8695 20.6594 11.5312 20.551 11.2372 20.4105C10.9317 20.2807 10.5499 19.9989 10.3758 19.7935C10.2009 19.5873 9.86339 19.0031 9.62285 18.5045C9.38307 17.9959 9.0883 17.1948 8.75077 15.8523L9.08907 15.4194Z" fill="#F7E4CD"/>
<path d="M6.79799 11.5006C6.84152 11.402 7.01639 11.2615 7.17981 11.1859C7.38772 11.0977 7.62102 11.0901 7.83425 11.1646C8.0305 11.218 8.2489 11.3158 8.33596 11.3914C8.41232 11.4677 8.5429 11.6403 8.61926 11.7923C8.69563 11.9435 8.78268 12.2039 8.81552 12.3879C8.84836 12.5612 8.83766 12.788 8.78268 12.8751C8.70632 13.0049 8.62996 12.9179 8.4337 12.5177C8.29243 12.2359 8.10686 11.9763 8.01981 11.9549C7.93199 11.9221 7.78003 11.9763 7.69221 12.0626C7.60516 12.1603 7.49596 12.5391 7.46312 12.9072C7.40966 13.5677 7.39821 13.5792 7.26686 13.2539C7.17981 13.0477 7.14697 12.7018 7.1905 12.3008C7.25617 11.6838 7.25617 11.6838 6.98432 11.738C6.83159 11.7709 6.71094 11.7709 6.71094 11.738C6.71094 11.7052 6.74377 11.5975 6.79799 11.4998V11.5006Z" fill="#231F20"/>
<path d="M19.6669 25.3043C19.6307 25.2145 19.6269 25.1149 19.6562 25.0226C19.6891 24.947 19.8196 24.8927 19.9502 24.9141C20.0923 24.9363 20.1793 25.0226 20.1793 25.1638C20.1793 25.2937 20.0923 25.3906 19.9617 25.4128C19.8418 25.4342 19.7104 25.3906 19.6669 25.3043ZM19.9617 26.7331C19.929 26.646 19.929 26.5499 19.9617 26.4628C19.9831 26.3757 20.1144 26.3001 20.2343 26.3001C20.3542 26.3001 20.4634 26.3437 20.4848 26.3979C20.4955 26.4513 20.4955 26.5712 20.4848 26.6682C20.4626 26.7659 20.3542 26.8415 20.2343 26.8415C20.1144 26.8415 19.9945 26.7988 19.9617 26.7331Z" fill="#1D1919"/>
<path d="M13.3307 5.51175C13.5055 5.30557 13.9202 5.00317 14.247 4.82983C14.5632 4.66717 14.9015 4.53735 14.9778 4.53735C15.0427 4.53735 15.2611 4.61372 15.436 4.70001C15.6208 4.7863 15.7629 4.91612 15.7629 4.97034C15.7629 5.02379 15.6651 5.05663 15.5452 5.02379C15.4246 4.99172 15.1191 5.02379 14.8686 5.08946C14.5525 5.17575 14.2257 5.39263 13.8438 5.77139C13.4399 6.1723 13.2658 6.43194 13.2108 6.72441C13.1673 6.99932 13.1054 7.10623 13.026 7.04895C12.9382 7.00619 12.9168 6.78932 12.9603 6.43194C13.0038 6.06386 13.1237 5.77139 13.3307 5.51175ZM22.7417 8.70528C22.8074 8.55408 23.0037 8.33797 23.1999 8.21884L23.5382 8.01266L23.6802 8.46779C23.7673 8.71674 23.833 8.96568 23.833 9.03059C23.833 9.08404 23.6581 9.20394 23.429 9.29023C23.1999 9.37728 22.9273 9.40935 22.8295 9.36659C22.7203 9.33375 22.6333 9.22532 22.6333 9.13903C22.6333 9.05197 22.6875 8.85724 22.7425 8.70604L22.7417 8.70528ZM15.7193 8.96492C15.7193 8.66252 15.785 8.55408 16.0905 8.34866C16.2966 8.21884 16.5372 8.09972 16.6349 8.09972C16.7441 8.09972 16.8969 8.32652 17.0496 8.74881C17.1809 9.10619 17.2787 9.4315 17.268 9.46357C17.2573 9.49641 17.0167 9.53994 16.7556 9.57201C16.4501 9.60484 16.1554 9.57201 15.9919 9.48495C15.7735 9.37728 15.7193 9.25815 15.7193 8.96568V8.96492ZM19.1435 13.5452C19.1435 13.3505 19.2091 13.0695 19.2741 12.9175C19.3397 12.777 19.4925 12.6472 19.6017 12.6472C19.7109 12.6472 19.8636 12.7663 19.9399 12.9175C20.0163 13.0695 20.0484 13.21 20.027 13.2207C19.9942 13.2428 19.7758 13.4047 19.1435 13.8927V13.5452ZM15.3268 16.1981C15.2283 15.7002 15.2398 15.6139 15.4032 15.4948C15.5124 15.4184 15.6758 15.365 15.7629 15.365C15.8614 15.365 16.0355 15.4077 16.1554 15.4512C16.3409 15.5276 16.3516 15.5482 16.1989 15.6345C16.1011 15.6895 15.9591 15.8407 15.8934 15.982C15.8285 16.1118 15.7735 16.35 15.7735 16.4906C15.7735 16.6639 15.7086 16.7616 15.6101 16.7616C15.4902 16.7616 15.4032 16.5776 15.3268 16.1981Z" fill="#F7E4CD"/>
<path d="M14.0176 5.5982C14.2902 5.36071 14.6506 5.13238 14.8354 5.07893C15.021 5.02471 15.3043 5.00257 15.4899 5.0354C15.6754 5.06824 15.9045 5.17668 16.0137 5.27366C16.1229 5.3714 16.21 5.54475 16.1985 5.65242C16.1985 5.80438 16.1008 5.83646 15.6533 5.83646C15.3478 5.83646 14.9775 5.89068 14.8026 5.95558C14.6392 6.0098 14.3673 6.19384 14.2031 6.35649C13.98 6.5803 13.7858 6.8312 13.6251 7.10333C13.4838 7.36297 13.3196 7.54777 13.2547 7.51569C13.189 7.48286 13.1455 7.3202 13.1455 7.13617C13.1455 6.95213 13.2326 6.62682 13.3311 6.41071C13.4395 6.19384 13.7442 5.82577 14.0176 5.5982ZM23.8326 8.92231C23.7127 8.59777 23.6142 8.19686 23.6142 8.03497C23.6142 7.85093 23.647 7.77533 23.7127 7.84024C23.7562 7.89369 24.0067 8.34882 24.2579 8.83602C24.4977 9.33391 24.6833 9.81042 24.6505 9.89748C24.6176 9.98377 24.3992 10.1571 24.1594 10.2762C23.9197 10.3954 23.5814 10.4923 23.3958 10.4923C23.211 10.4923 22.9712 10.4389 22.8513 10.3839C22.7894 10.3486 22.737 10.2985 22.699 10.2382C22.6609 10.1779 22.6382 10.1091 22.6329 10.038C22.6329 9.81042 22.6986 9.77835 23.3087 9.70198C23.6906 9.65922 24.0067 9.59355 24.0289 9.57217C24.0395 9.53933 23.9525 9.24762 23.8326 8.92308V8.92231ZM17.3005 9.30108C17.1149 8.91162 16.94 8.46795 16.8965 8.30529C16.853 8.11057 16.8644 8.00213 16.9515 8.00213C17.0164 8.00213 17.1691 8.22969 17.3005 8.5214C17.4203 8.80395 17.693 9.21478 17.8999 9.44235C18.1076 9.65922 18.271 9.95093 18.271 10.0914C18.271 10.2213 18.1511 10.4496 17.9877 10.6008C17.7365 10.839 17.6166 10.8711 16.8965 10.8711C16.2428 10.8711 16.0565 10.8283 15.861 10.655C15.719 10.5145 15.6533 10.3625 15.6968 10.222C15.7625 10.0273 15.8175 10.0158 16.3406 10.0922C16.646 10.135 17.0714 10.1457 17.2676 10.1136C17.4532 10.0807 17.6166 10.0487 17.6166 10.0372C17.6166 10.0158 17.4746 9.69053 17.3005 9.30108ZM20.3321 9.13918C20.2557 8.84671 20.2336 8.51148 20.2771 8.40304C20.3206 8.2946 20.397 8.22969 20.4627 8.26177C20.5177 8.2946 20.5826 8.45726 20.6154 8.61915C20.6482 8.79249 20.8666 9.23617 21.1171 9.62638C21.3683 10.0158 21.7929 10.6008 22.0655 10.9253C22.3382 11.2506 22.7963 11.7592 23.6363 12.6038L23.4615 13.1994C23.3087 13.7622 23.2545 13.8165 22.6115 14.1952C22.2297 14.4121 21.6188 14.6931 21.2477 14.813C20.8058 14.9506 20.3472 15.0269 19.8846 15.0398C19.4493 15.0505 19.1538 14.997 19.0782 14.91C18.9854 14.786 18.9151 14.6467 18.8705 14.4984C18.827 14.3472 18.827 14.0654 18.8598 13.8814C18.8926 13.6866 18.969 13.524 19.0339 13.524C19.0996 13.524 19.1431 13.6324 19.1431 13.7729C19.1431 13.9027 19.2302 14.1303 19.3287 14.2708C19.5035 14.5098 19.5906 14.5205 20.1794 14.477C20.6261 14.4442 21.1064 14.3037 21.7066 14.0219C22.1854 13.8058 22.6108 13.5561 22.6551 13.4919C22.6986 13.4155 22.7421 13.243 22.7421 13.091C22.7421 12.9177 22.4588 12.4633 21.9136 11.7921C21.4554 11.2285 20.9422 10.5244 20.7681 10.222C20.5933 9.92955 20.397 9.44235 20.3321 9.13918ZM22.0877 15.3758C22.5344 15.2131 23.0804 14.9863 23.2866 14.8565C23.4943 14.7259 23.7234 14.6175 23.7776 14.6175C23.8433 14.6068 23.8219 14.7588 23.7242 14.9535C23.6363 15.1482 23.353 15.5056 23.0903 15.7653C22.7528 16.1119 22.4802 16.2746 22.0006 16.4044C21.6623 16.4907 21.3569 16.5342 21.3241 16.5014C21.2912 16.4586 21.2698 16.2525 21.2698 16.0356C21.2698 15.6568 21.2698 15.6461 22.0877 15.3758ZM17.2019 15.6469C17.0714 15.527 16.9515 15.3643 16.94 15.2887C16.94 15.2025 17.0927 15.2131 17.4639 15.3323C17.7586 15.4193 18.6307 15.527 20.8338 15.6354L20.888 16.5556H20.1794C19.7869 16.5556 19.2088 16.5022 18.9033 16.4365C18.5544 16.3607 18.2144 16.248 17.8892 16.1005C17.6434 15.976 17.4128 15.8243 17.2019 15.6469ZM16.8423 16.9886C16.4933 16.5449 16.2314 16.144 16.2642 16.1013C16.297 16.047 16.3734 16.0142 16.4498 16.0142C16.5261 16.0142 16.7002 16.1875 16.853 16.4151C17.0171 16.6534 17.344 16.913 17.6708 17.0757C18.0526 17.2589 18.5322 17.3681 19.2523 17.4437C19.8197 17.4873 20.5505 17.5086 20.8559 17.4758C21.1713 17.4437 21.4333 17.4437 21.4333 17.4758C21.4333 17.5086 21.3897 17.6278 21.3241 17.7469C21.2591 17.866 21.0301 18.0172 20.8124 18.0936C20.5833 18.1692 19.9281 18.2234 19.3615 18.2341C18.533 18.2341 18.2382 18.1906 17.8999 18.0172C17.6494 17.8874 17.2241 17.4758 16.8423 16.9886ZM25.534 30.5011C25.7631 30.3278 26.1006 30.1552 26.2862 30.101C26.4717 30.0468 26.7008 29.9926 26.7986 29.9926C26.9078 29.9819 26.9948 30.0033 26.9948 30.0353C26.9948 30.0682 26.6787 30.2629 26.2862 30.4691C25.8937 30.6753 25.4683 30.8371 25.3377 30.815C25.13 30.7936 25.1522 30.7608 25.534 30.5011ZM25.6646 31.335C25.6539 31.3022 25.7631 31.2266 25.9158 31.1724C26.0571 31.1075 26.4061 31.0754 26.6894 31.0968C26.9734 31.1075 27.2674 31.1831 27.3438 31.2594C27.453 31.3679 27.311 31.3893 26.5802 31.3893C26.0899 31.3893 25.6753 31.3679 25.6646 31.335ZM25.8723 32.4072C25.828 32.385 25.8173 32.3201 25.8494 32.2552C25.8937 32.1903 26.1663 32.1468 26.4832 32.1468C26.8207 32.1468 27.1369 32.2117 27.2674 32.3094C27.4637 32.4606 27.4316 32.4721 26.7222 32.4606C26.2969 32.4499 25.9273 32.4286 25.8723 32.4072Z" fill="#231F20"/>
</g>
<defs>
<clipPath id="clip0_337_4877">
<rect width="137.455" height="42" fill="white"/>
</clipPath>
</defs>
</svg>
