<svg width="92" height="44" viewBox="0 0 92 44" fill="none" xmlns="http://www.w3.org/2000/svg">
<g clip-path="url(#clip0_337_5394)">
<path fill-rule="evenodd" clip-rule="evenodd" d="M26.2634 0C33.35 0 39.3487 0.062 39.5354 0.154667C39.846 0.278667 39.1934 2.54133 37.2354 8.304C35.7747 12.6733 34.562 16.2673 34.5934 16.2673C34.6247 16.2673 35.184 16.5467 35.8674 16.8873C36.5207 17.228 37.2974 17.8473 37.608 18.2813C37.888 18.7153 38.3234 19.552 38.5094 20.1413C38.7274 20.7607 38.7894 21.752 38.6647 22.4647C38.5407 23.1467 38.354 23.9213 38.1987 24.1687C38.0747 24.448 38.1674 25.222 38.4474 26.0287C38.7274 26.9267 38.8514 28.042 38.758 29.1267C38.696 30.0567 38.354 31.3887 38.012 32.0707C37.6394 32.752 36.8 33.8367 36.0854 34.456C35.4014 35.1073 34.2827 35.8507 33.63 36.0987C33.008 36.3773 31.2987 36.78 29.838 37.0587C28.3774 37.3073 26.5747 37.6787 25.798 37.8653C25.0207 38.0507 22.2234 39.1973 19.5814 40.4367C16.9394 41.6767 13.9867 42.9467 13.0547 43.2567C12.028 43.5967 10.4747 43.814 9.16869 43.814C7.58402 43.814 6.58936 43.628 5.43936 43.1327C4.56936 42.7293 3.41936 41.986 2.85936 41.428C2.26936 40.8707 1.52336 39.8787 1.18136 39.1973C0.839357 38.5153 0.43469 37.2453 0.280023 36.4087C0.155357 35.5407 0.18669 33.9293 0.342023 32.69C0.52869 31.4507 1.11936 29.4987 2.79736 25.7187L2.02069 24.54C1.43002 23.7033 1.21202 22.9907 1.24336 21.9067C1.24336 21.1007 1.39869 20.078 1.58536 19.5827C1.77202 19.1173 2.20669 18.4047 2.58002 18.0333C2.95336 17.6307 3.82336 17.0107 4.50669 16.67C5.40802 16.2047 6.18536 16.0807 7.33536 16.1433C8.54736 16.236 9.23136 16.5147 10.1327 17.2273C10.816 17.754 11.5934 18.6527 11.8727 19.2413C12.184 19.8307 12.4327 20.9767 12.4327 21.8447C12.4014 22.8667 12.184 23.7967 11.7174 24.602C11.3447 25.2527 10.412 26.1513 9.66602 26.616C8.33002 27.422 8.29936 27.422 8.48536 28.816C8.60936 29.684 8.95202 30.4587 10.1014 31.574L11.562 30.83C12.402 30.3967 13.7067 29.4667 14.484 28.7233C15.2607 28.01 16.0374 27.174 16.1934 26.864C16.4107 26.4613 16.2247 26.0273 15.4474 25.0667C14.6707 24.0753 14.422 23.4247 14.3594 22.1853C14.266 21.008 14.422 20.264 14.9814 19.2107C15.3854 18.436 16.1934 17.5067 16.784 17.104C17.3747 16.732 17.996 16.36 18.1207 16.3287C18.2447 16.298 17.1567 12.7653 15.696 8.52067C14.2354 4.24533 13.116 0.588667 13.1787 0.372C13.3027 0.0926667 16.2247 0 26.2634 0ZM18.742 9.45067C19.9854 13.1073 21.104 16.1127 21.2907 16.1127C21.446 16.1127 22.658 14.0367 23.9327 11.4647C25.2067 8.89267 26.326 6.81667 26.4194 6.81667C26.5127 6.81667 27.662 9.01667 28.9994 11.682C30.3974 14.5327 31.5474 16.4533 31.672 16.2673C31.8274 16.0813 32.946 12.9833 34.1587 9.358L36.3654 2.78867H16.5347L18.7414 9.45067H18.742ZM23.902 17.662C25.1447 19.4593 25.4867 20.11 25.4867 20.234C25.4554 20.358 25.922 20.4507 26.4814 20.4507C27.3514 20.42 27.5687 20.2647 28.2214 18.964L28.9367 17.5073C27.3207 13.7887 26.6987 12.704 26.512 12.704C26.3254 12.704 25.642 13.82 25.052 15.1833L23.902 17.662ZM4.00869 20.1407C3.82202 20.482 3.69802 21.2567 3.69802 21.8453C3.69802 22.6507 3.94669 23.1773 4.63069 23.8587C5.31402 24.572 5.84269 24.7887 6.71269 24.7887C7.45936 24.7887 8.14269 24.572 8.57802 24.1687C8.95136 23.8287 9.41669 23.1773 9.60336 22.7127C9.79002 22.248 9.85202 21.504 9.75869 21.0707C9.66536 20.6367 9.29269 19.986 8.88869 19.614C8.51536 19.2113 7.70736 18.8393 7.11736 18.7467C6.43336 18.6533 5.68736 18.7773 5.15869 19.056C4.69269 19.304 4.16402 19.8 4.00869 20.1407ZM16.8767 21.0087C16.7834 21.4733 16.8454 22.248 17.032 22.7127C17.2187 23.1773 17.6847 23.828 18.0574 24.1687C18.4927 24.572 19.1767 24.7887 19.9534 24.7887C20.8547 24.7887 21.352 24.572 22.036 23.8593C22.7507 23.146 22.968 22.6507 22.968 21.69C22.968 20.8533 22.72 20.2033 22.2534 19.6767C21.818 19.1493 21.1034 18.8087 20.2954 18.7153C19.27 18.5607 18.8654 18.6847 18.0574 19.3353C17.498 19.7687 16.97 20.544 16.8767 21.0087ZM29.9614 21.0707C29.868 21.5973 29.9927 22.4647 30.2414 23.0227C30.49 23.58 31.0494 24.2 31.4847 24.4167C31.92 24.634 32.6967 24.7887 33.2247 24.7887C33.878 24.7887 34.468 24.51 35.09 23.8593C35.8047 23.146 36.0227 22.6507 36.0227 21.69C36.0227 20.8533 35.774 20.2033 35.3074 19.6767C34.8727 19.1493 34.1574 18.8087 33.3494 18.7153C32.324 18.5607 31.92 18.6847 31.1114 19.3353C30.5214 19.8 30.024 20.544 29.9614 21.0707ZM23.28 26.3067C22.5027 26.8953 21.7567 27.1433 20.5134 27.236C18.8667 27.3293 18.7734 27.3907 17.9334 28.692C17.4367 29.436 16.318 30.6447 15.4167 31.326C14.5154 32.0393 12.9607 33.03 11.9354 33.526C10.226 34.3627 9.97736 34.4247 9.13802 34.022C8.64069 33.8053 7.77069 33.0613 7.21136 32.3793C6.58936 31.636 6.03002 30.5513 5.87469 29.684C5.68802 28.878 5.62602 27.9793 5.71936 27.732C5.81269 27.4527 5.65669 27.2667 5.40802 27.2667C5.12802 27.2667 4.66202 27.7933 4.35136 28.4447C4.00936 29.0647 3.51202 30.3653 3.26336 31.2953C2.98336 32.2247 2.73536 33.774 2.73536 34.7033C2.73536 35.8813 2.98402 36.9033 3.51202 38.05C4.19602 39.4133 4.56936 39.7853 5.93669 40.436C7.05536 40.9627 8.08136 41.2107 9.20002 41.2107C10.1014 41.2107 11.5 40.994 12.308 40.7147C13.116 40.436 15.8207 39.2893 18.3067 38.112C20.762 36.9653 23.4974 35.788 24.3674 35.54C25.2074 35.2613 26.8854 34.8893 28.0974 34.7033C29.2787 34.518 30.9574 34.1767 31.8274 33.96C32.9154 33.65 33.692 33.154 34.5314 32.256C35.184 31.574 35.8367 30.4587 35.992 29.8387C36.1474 29.188 36.1787 28.1967 36.054 27.6387C35.8987 26.864 35.7434 26.6787 35.4014 26.864C35.1214 27.0193 34.0027 27.112 32.884 27.112C31.112 27.112 30.6774 26.988 29.6827 26.2753C29.0607 25.8107 28.3147 24.912 28.004 24.3233C27.5374 23.4247 27.2894 23.2387 26.4507 23.2387C25.6107 23.2387 25.362 23.4247 24.896 24.3853C24.616 25.0053 23.8707 25.872 23.28 26.3067ZM86.996 13.9433H89.4827V17.9713H90.726C91.876 17.9713 91.9693 18.0333 91.9693 18.9007C91.9693 19.7993 91.876 19.8307 89.4827 19.8307V28.816H90.726C91.938 28.816 91.9693 28.8473 91.9693 29.9007C91.9693 30.9233 91.9067 30.9853 90.9433 30.9853C90.384 30.9853 89.4207 30.8613 88.768 30.6753C87.8353 30.4273 87.5247 30.1793 87.276 29.374C87.1207 28.816 86.9647 26.4307 86.996 19.8307H85.908C84.8827 19.8307 84.8207 19.7687 84.8207 18.9007C84.8207 18.064 84.8827 17.9713 86.996 17.9713V13.9433ZM54.392 13.0133H56.8474L56.754 20.574C56.692 27.7627 56.63 28.1967 56.008 29.0333C55.666 29.498 55.0134 30.1487 54.6094 30.4587C54.1747 30.7993 53.118 31.0787 52.0294 31.1713C50.476 31.326 49.916 31.2333 48.7667 30.6133C47.8647 30.1487 47.15 29.5287 46.808 28.816C46.4974 28.2273 46.28 27.0813 46.28 24.788L47.43 24.8813C48.58 24.9433 48.6107 24.974 48.7667 26.3993C48.8287 27.2047 49.1707 28.1033 49.5434 28.4753C49.9787 28.94 50.538 29.1573 51.408 29.1573C52.1547 29.1573 52.9314 28.94 54.2054 27.9487L54.2987 20.4813L54.392 13.0133ZM79.0707 17.5993C79.754 17.6613 80.78 17.9713 81.3394 18.25C81.93 18.5287 82.5827 19.1173 82.8314 19.6133C83.0487 20.078 83.266 20.7287 83.266 21.07C83.266 21.5653 83.0487 21.69 82.1787 21.69C81.4014 21.69 81.0907 21.5653 81.0907 21.2247C81.0907 20.9767 80.6867 20.4807 80.2207 20.14C79.692 19.7373 78.884 19.4893 78.138 19.52C77.454 19.52 76.5527 19.7373 76.18 19.9853C75.8067 20.2333 75.496 20.7287 75.496 21.07C75.496 21.41 75.8067 21.8753 76.18 22.1233C76.5527 22.3713 77.796 22.8053 78.9147 23.0833C80.0027 23.3633 81.3394 23.7347 81.8367 23.9513C82.334 24.1687 82.9867 24.6647 83.2974 25.098C83.6707 25.5627 83.888 26.3993 83.888 27.112C83.888 27.9487 83.6707 28.6613 83.1734 29.25C82.8 29.746 82.0234 30.3653 81.4634 30.5827C80.904 30.7993 79.5367 30.9853 78.4487 30.9853C77.33 30.9853 75.962 30.7993 75.4027 30.5827C74.8434 30.3653 74.0974 29.7767 73.7247 29.25C73.3827 28.754 73.0407 27.9793 72.9473 27.5147C72.854 26.7093 72.916 26.6473 74.004 26.6473C74.9987 26.6473 75.1854 26.7713 75.3407 27.422C75.434 27.8867 75.8694 28.382 76.4287 28.6613C76.926 28.9093 77.9514 29.126 78.666 29.126C79.5367 29.1573 80.2827 28.94 80.842 28.506C81.308 28.166 81.712 27.6393 81.712 27.3593C81.712 27.05 81.4633 26.5853 81.1527 26.2753C80.8734 25.9967 79.412 25.4387 77.9827 25.0353C76.522 24.6333 74.9367 24.0753 74.4707 23.7653C73.9734 23.4553 73.476 22.774 73.3207 22.154C73.072 21.3173 73.1027 20.822 73.476 19.9853C73.7247 19.3967 74.3147 18.6527 74.7813 18.374C75.2474 18.064 76.118 17.754 76.7394 17.63C77.33 17.5373 78.3867 17.5067 79.0707 17.5993ZM65.7054 17.6613C67.0107 17.6613 67.85 17.8473 68.5647 18.2813C69.1247 18.6213 69.9327 19.428 70.368 20.078C70.896 20.822 71.238 21.8753 71.6107 25.098H66.7C63.654 25.098 61.82 25.222 61.82 25.408C61.82 25.594 62.0067 26.1827 62.2247 26.74C62.4734 27.2667 62.908 27.98 63.25 28.2893C63.5607 28.568 64.4 28.9093 65.0834 29.0333C65.8607 29.1573 66.7 29.064 67.3527 28.7853C67.9434 28.5373 68.596 27.9793 68.8447 27.5147C69.1867 26.802 69.466 26.6473 71.4554 26.6473L70.958 27.8247C70.6787 28.4447 70.2434 29.2193 69.9327 29.56C69.6527 29.87 69.0314 30.3033 68.5647 30.5513C68.0987 30.7993 66.8867 30.9847 65.8607 30.9847C64.618 30.9847 63.582 30.7787 62.7527 30.3653C62.0067 29.994 61.1367 29.188 60.6394 28.4447C59.986 27.422 59.7687 26.616 59.676 24.9433C59.5514 23.0833 59.6447 22.5567 60.3287 21.07C60.9194 19.8613 61.5407 19.1173 62.504 18.5287C63.5607 17.816 64.1827 17.6613 65.7054 17.6613ZM62.5354 21.3793C62.1314 21.968 61.7894 22.5573 61.7894 22.712C61.7894 22.836 63.4987 22.9287 65.55 22.9287C69.2487 22.9287 69.28 22.9287 69.0934 22.2473C69 21.8447 68.4407 21.07 67.85 20.5433C67.0734 19.7993 66.4827 19.5207 65.7674 19.5207C65.208 19.5207 64.4314 19.7067 63.996 19.9233C63.592 20.14 62.9394 20.7907 62.5354 21.3793Z" fill="#98434F"/>
</g>
<defs>
<clipPath id="clip0_337_5394">
<rect width="92" height="44" fill="white"/>
</clipPath>
</defs>
</svg>
