<svg width="180" height="50" viewBox="0 0 180 50" fill="none" xmlns="http://www.w3.org/2000/svg">
<g clip-path="url(#clip0_594_3017)">
<path d="M30 42.928V7H66V42.928H30Z" fill="#F0DB4F"/>
<path d="M56.1678 23.4151C56.3655 23.3786 56.5998 23.3426 56.6853 23.3337C56.7709 23.3248 57.05 23.3113 57.3062 23.3113C57.5582 23.3066 57.9631 23.3248 58.2062 23.352C58.4446 23.3786 58.836 23.4506 59.0702 23.509C59.304 23.5675 59.7 23.7157 59.9478 23.841C60.1955 23.9626 60.528 24.1603 60.6902 24.2814C60.852 24.403 61.1133 24.6451 61.2751 24.8111C61.4373 24.9822 61.6935 25.31 61.8511 25.5391C62.004 25.7635 62.1302 25.9655 62.1302 25.9879C62.1255 26.0061 61.5542 26.3834 60.8613 26.8281C60.1638 27.2722 59.5695 27.6406 59.5429 27.6495C59.52 27.6542 59.4526 27.5822 59.4031 27.4924C59.3048 27.3348 59.195 27.1848 59.0744 27.0436C58.9486 26.886 58.7509 26.6976 58.6335 26.6167C58.4983 26.5289 58.3552 26.4538 58.2062 26.3923C58.0329 26.3357 57.8553 26.2935 57.6751 26.2661C57.4707 26.2346 57.2628 26.2346 57.0584 26.2661C56.8762 26.2963 56.6981 26.3476 56.5278 26.419C56.4015 26.4821 56.208 26.6303 56.0864 26.7696C55.9335 26.9356 55.848 27.0791 55.7989 27.2544C55.7508 27.4451 55.7341 27.6423 55.7493 27.8384C55.7624 28.081 55.8031 28.2381 55.8886 28.3994C55.9518 28.5257 56.0911 28.7094 56.1991 28.8085C56.3024 28.9114 56.5142 29.0731 56.6629 29.1676C56.8111 29.262 57.0855 29.406 57.2702 29.4911C57.4544 29.5762 57.9808 29.8053 58.44 30.0031C58.8991 30.2004 59.5246 30.4926 59.8351 30.645C60.1973 30.8314 60.5503 31.0353 60.8926 31.2561C61.2153 31.4728 61.518 31.7178 61.7973 31.9882C62.0264 32.2126 62.3013 32.5357 62.4135 32.711C62.5215 32.8863 62.6791 33.1786 62.7558 33.3623C62.8366 33.5465 62.94 33.8607 62.9895 34.0584C63.0526 34.3053 63.0886 34.6377 63.1064 35.1361C63.1246 35.6841 63.1158 35.9534 63.0573 36.2722C63.0166 36.4966 62.9217 36.852 62.8502 37.0581C62.7586 37.2931 62.6503 37.5212 62.5262 37.7407C62.4182 37.9161 62.2382 38.1723 62.1213 38.3158C62.0044 38.4551 61.7431 38.6978 61.5495 38.8549C61.356 39.0073 61.0142 39.2275 60.7982 39.3444C60.5775 39.4566 60.2175 39.6137 59.9926 39.6946C59.7678 39.7708 59.3942 39.8741 59.1604 39.919C58.9262 39.9685 58.4582 40.0265 58.1253 40.0536C57.6886 40.0896 57.3469 40.0896 56.9097 40.0536C56.5773 40.027 56.0915 39.9638 55.8297 39.9101C55.5177 39.8463 55.2099 39.7639 54.9078 39.6632C54.6007 39.5517 54.3002 39.4228 54.0078 39.277C53.76 39.1466 53.3953 38.9264 53.1975 38.7782C52.9599 38.5972 52.733 38.4023 52.5182 38.1947C52.3101 37.9804 52.1148 37.754 51.9333 37.5168C51.7893 37.319 51.6046 37.0404 51.5326 36.901C51.4606 36.7622 51.4064 36.6364 51.4204 36.6271C51.4335 36.6135 52.0189 36.2722 52.7248 35.8636C53.1732 35.6031 53.6232 35.3456 54.0751 35.0912C54.1246 35.0735 54.2013 35.1497 54.3453 35.3699C54.4575 35.5358 54.7184 35.8458 54.9297 36.0571C55.1415 36.2675 55.4253 36.506 55.56 36.5822C55.6955 36.6631 55.9382 36.7842 56.1 36.8473C56.3011 36.926 56.5091 36.9861 56.7213 37.0268C56.8966 37.0628 57.2342 37.0899 57.4591 37.0899C57.6886 37.0899 58.0173 37.0581 58.1926 37.0226C58.3932 36.9766 58.589 36.9119 58.7775 36.8295C58.9262 36.7617 59.1375 36.6229 59.2497 36.5195C59.3629 36.4204 59.5158 36.2273 59.5878 36.0974C59.714 35.8729 59.7229 35.8234 59.7229 35.4054C59.7229 35.0015 59.7088 34.9341 59.5966 34.7228C59.5117 34.5695 59.4073 34.4278 59.2862 34.3011C59.1547 34.1805 59.0149 34.0695 58.8678 33.9687C58.7462 33.8878 58.5031 33.7531 58.3278 33.6629C58.152 33.5778 57.5582 33.3127 57 33.0701C56.4999 32.8571 56.0048 32.6326 55.5151 32.3968C55.2162 32.2388 54.9235 32.0695 54.6375 31.8891C54.3624 31.701 54.1007 31.4941 53.8544 31.2696C53.6478 31.0718 53.3869 30.7932 53.2742 30.645C53.162 30.4968 52.9862 30.1962 52.8782 29.9717C52.7497 29.6959 52.6429 29.4105 52.5589 29.118C52.4509 28.7141 52.442 28.5883 52.4373 27.8384C52.4326 27.102 52.4462 26.9627 52.536 26.6256C52.5949 26.4148 52.7206 26.0735 52.8198 25.8621C52.9189 25.6513 53.0895 25.3591 53.1975 25.2109C53.3013 25.0627 53.5398 24.798 53.7198 24.6227C53.904 24.4474 54.1653 24.2318 54.3 24.1468C54.4355 24.057 54.6693 23.927 54.8175 23.8503C54.9662 23.7783 55.2495 23.6615 55.4478 23.5988C55.6844 23.5248 55.9247 23.4638 56.1678 23.4151ZM46.0966 35.8234C46.164 35.5672 46.1733 35.0061 46.1911 29.5089L46.2046 23.4824L49.5526 23.5044V29.5678C49.5526 34.3282 49.5391 35.7112 49.4942 36.0123C49.4629 36.2236 49.3862 36.5873 49.3231 36.8211C49.26 37.0544 49.1253 37.427 49.0173 37.6514C48.9046 37.8758 48.72 38.1863 48.5989 38.3481C48.4726 38.5094 48.2435 38.7562 48.0855 38.9044C47.928 39.0484 47.6446 39.2551 47.46 39.3626C47.2758 39.4701 46.9606 39.623 46.7624 39.6992C46.5159 39.7915 46.2633 39.8665 46.0064 39.9236C45.7909 39.969 45.3678 40.0316 45.062 40.0545C44.6926 40.0859 44.342 40.0859 43.982 40.0545C43.6952 40.0309 43.4096 39.9934 43.1264 39.9423C42.9511 39.9059 42.6635 39.8301 42.4878 39.7712C42.2646 39.6922 42.0466 39.5993 41.8351 39.493C41.6048 39.3715 41.3811 39.2381 41.1646 39.0933C40.9241 38.9158 40.6983 38.7191 40.4895 38.5051C40.2823 38.286 40.0899 38.0532 39.9135 37.8085C39.792 37.6248 39.6349 37.3644 39.4502 37.0006L39.5493 36.9375C39.6078 36.9015 40.224 36.5289 42.1955 35.3385L42.3573 35.6219C42.4471 35.7743 42.6318 36.0436 42.7622 36.2147C42.8926 36.3896 43.0951 36.6009 43.2166 36.6907C43.3335 36.7851 43.5135 36.888 43.6126 36.9286C43.7118 36.9688 43.9231 37.0231 44.0848 37.0455C44.2653 37.068 44.5173 37.068 44.7375 37.0408C44.9358 37.0184 45.1878 36.9553 45.3 36.9062C45.4126 36.8566 45.5702 36.7533 45.6511 36.6724C45.7366 36.5915 45.8535 36.4344 45.912 36.3176C45.9709 36.1965 46.056 35.9758 46.0966 35.8234Z" fill="#323330"/>
</g>
<path d="M76.4961 27.8872H78.6421C78.6567 28.7441 79.2134 29.3081 80.0483 29.3081C80.9712 29.3081 81.4692 28.7368 81.4692 27.6748V20.4312H83.6812V27.6895C83.6812 29.938 82.3335 31.2197 80.0703 31.2197C77.9097 31.2197 76.4961 29.9087 76.4961 27.8872ZM88.376 29.5791C89.3062 29.5791 90.0752 28.9712 90.0752 28.1216V27.5503L88.4199 27.6528C87.6216 27.7114 87.1675 28.0703 87.1675 28.627C87.1675 29.2129 87.6509 29.5791 88.376 29.5791ZM87.6729 31.1245C86.1787 31.1245 85.0435 30.1577 85.0435 28.7441C85.0435 27.3159 86.1421 26.4883 88.0977 26.3711L90.0752 26.2539V25.7339C90.0752 25.0015 89.5625 24.5767 88.7568 24.5767C87.9585 24.5767 87.4531 24.9722 87.3506 25.5508H85.395C85.4756 24.0273 86.772 22.98 88.8521 22.98C90.8662 22.98 92.1772 24.02 92.1772 25.6021V31H90.1118V29.7988H90.0679C89.6284 30.6338 88.6543 31.1245 87.6729 31.1245ZM100.695 23.1484L98 31H95.583L92.8657 23.1484H95.1582L96.7915 29.1104H96.8354L98.4614 23.1484H100.695ZM104.284 29.5791C105.214 29.5791 105.983 28.9712 105.983 28.1216V27.5503L104.328 27.6528C103.53 27.7114 103.076 28.0703 103.076 28.627C103.076 29.2129 103.559 29.5791 104.284 29.5791ZM103.581 31.1245C102.087 31.1245 100.952 30.1577 100.952 28.7441C100.952 27.3159 102.05 26.4883 104.006 26.3711L105.983 26.2539V25.7339C105.983 25.0015 105.471 24.5767 104.665 24.5767C103.867 24.5767 103.361 24.9722 103.259 25.5508H101.303C101.384 24.0273 102.68 22.98 104.76 22.98C106.774 22.98 108.085 24.02 108.085 25.6021V31H106.02V29.7988H105.976C105.537 30.6338 104.562 31.1245 103.581 31.1245ZM109.257 27.9897H111.389C111.491 28.8613 112.399 29.4326 113.571 29.4326C114.75 29.4326 115.556 28.8687 115.556 28.0923C115.556 27.4038 115.051 27.0229 113.776 26.7373L112.399 26.437C110.451 26.0195 109.492 25.0308 109.492 23.4854C109.492 21.5371 111.176 20.248 113.535 20.248C115.996 20.248 117.541 21.5151 117.578 23.4268H115.505C115.432 22.5332 114.648 21.9912 113.542 21.9912C112.451 21.9912 111.718 22.5112 111.718 23.2949C111.718 23.9468 112.231 24.313 113.447 24.5913L114.729 24.8623C116.845 25.3164 117.768 26.2246 117.768 27.8359C117.768 29.8867 116.105 31.1831 113.483 31.1831C110.942 31.1831 109.323 29.9746 109.257 27.9897ZM126.081 26.0708H124.096C123.972 25.2432 123.422 24.6572 122.543 24.6572C121.489 24.6572 120.83 25.5508 120.83 27.0669C120.83 28.6123 121.489 29.4912 122.551 29.4912C123.408 29.4912 123.964 28.9785 124.096 28.1216H126.088C125.979 29.9746 124.594 31.1685 122.529 31.1685C120.163 31.1685 118.662 29.6304 118.662 27.0669C118.662 24.5474 120.163 22.98 122.514 22.98C124.638 22.98 125.986 24.291 126.081 26.0708ZM127.121 31V23.1484H129.187V24.562H129.23C129.509 23.5659 130.175 23.0239 131.098 23.0239C131.347 23.0239 131.56 23.0605 131.706 23.1045V24.9868C131.53 24.9136 131.237 24.8623 130.93 24.8623C129.875 24.8623 129.26 25.5068 129.26 26.6128V31H127.121ZM132.622 31V23.1484H134.76V31H132.622ZM133.691 22.2842C133.046 22.2842 132.548 21.7935 132.548 21.1782C132.548 20.5557 133.046 20.0723 133.691 20.0723C134.335 20.0723 134.833 20.5557 134.833 21.1782C134.833 21.7935 134.335 22.2842 133.691 22.2842ZM140.773 23.0239C142.766 23.0239 143.989 24.54 143.989 27.0742C143.989 29.6011 142.773 31.1245 140.81 31.1245C139.667 31.1245 138.789 30.5679 138.371 29.6816H138.327V33.5635H136.188V23.1484H138.298V24.5181H138.342C138.767 23.5952 139.638 23.0239 140.773 23.0239ZM140.056 29.4033C141.125 29.4033 141.799 28.5024 141.799 27.0742C141.799 25.6533 141.125 24.7378 140.056 24.7378C139.008 24.7378 138.32 25.668 138.32 27.0742C138.32 28.4951 139.008 29.4033 140.056 29.4033ZM145.666 21.3394H147.805V23.1484H149.255V24.7598H147.805V28.5171C147.805 29.1177 148.098 29.4033 148.728 29.4033C148.918 29.4033 149.116 29.3887 149.248 29.3667V30.9414C149.028 30.9927 148.662 31.0293 148.229 31.0293C146.384 31.0293 145.666 30.4141 145.666 28.8833V24.7598H144.56V23.1484H145.666V21.3394Z" fill="black"/>
<defs>
<clipPath id="clip0_594_3017">
<rect width="36" height="36" fill="white" transform="translate(30 7)"/>
</clipPath>
</defs>
</svg>