<svg width="180" height="60" viewBox="0 0 180 60" fill="none" xmlns="http://www.w3.org/2000/svg">
<path d="M100.97 23.7029H103.18V23.7771L98.2398 29.4786L103.514 36.9257V37H101.416L97.0884 30.7971L95.0455 33.1557V37H93.3369V23.7029H95.0455V30.5557H95.1198L100.97 23.7029ZM108.501 37.2971C107.164 37.2971 106.062 36.839 105.196 35.9229C104.329 35.0067 103.896 33.849 103.896 32.45C103.896 31.0633 104.317 29.9119 105.159 28.9957C106 28.0671 107.078 27.6029 108.39 27.6029C109.74 27.6029 110.81 28.0424 111.603 28.9214C112.408 29.7881 112.81 31.0076 112.81 32.58L112.791 32.7657H105.641C105.666 33.6571 105.963 34.3752 106.533 34.92C107.102 35.4648 107.783 35.7371 108.576 35.7371C109.665 35.7371 110.52 35.1924 111.139 34.1029L112.661 34.8457C112.253 35.6133 111.683 36.2138 110.953 36.6471C110.235 37.0805 109.418 37.2971 108.501 37.2971ZM105.771 31.3543H110.99C110.94 30.7229 110.68 30.2029 110.21 29.7943C109.752 29.3733 109.133 29.1629 108.353 29.1629C107.709 29.1629 107.152 29.361 106.681 29.7571C106.223 30.1533 105.92 30.6857 105.771 31.3543ZM116.267 37H114.558V27.9H116.192V29.3857H116.267C116.44 28.9029 116.793 28.4943 117.325 28.16C117.87 27.8133 118.402 27.64 118.922 27.64C119.418 27.64 119.839 27.7143 120.185 27.8629L119.665 29.5157C119.455 29.429 119.121 29.3857 118.662 29.3857C118.019 29.3857 117.455 29.6457 116.972 30.1657C116.502 30.6857 116.267 31.2924 116.267 31.9857V37ZM122.372 34.2143C122.372 34.66 122.558 35.0314 122.929 35.3286C123.313 35.6257 123.759 35.7743 124.266 35.7743C124.985 35.7743 125.622 35.5081 126.179 34.9757C126.749 34.4433 127.034 33.8181 127.034 33.1C126.501 32.679 125.758 32.4686 124.805 32.4686C124.112 32.4686 123.53 32.6357 123.059 32.97C122.601 33.3043 122.372 33.719 122.372 34.2143ZM124.582 27.6029C125.845 27.6029 126.842 27.9433 127.572 28.6243C128.303 29.2929 128.668 30.2152 128.668 31.3914V37H127.034V35.7371H126.959C126.254 36.7771 125.313 37.2971 124.136 37.2971C123.134 37.2971 122.292 37 121.611 36.4057C120.942 35.8114 120.608 35.0686 120.608 34.1771C120.608 33.2362 120.961 32.4871 121.666 31.93C122.385 31.3729 123.338 31.0943 124.526 31.0943C125.542 31.0943 126.377 31.28 127.034 31.6514V31.2614C127.034 30.6671 126.798 30.1657 126.328 29.7571C125.857 29.3362 125.306 29.1257 124.675 29.1257C123.722 29.1257 122.966 29.5281 122.409 30.3329L120.905 29.3857C121.735 28.1971 122.96 27.6029 124.582 27.6029ZM137.654 34.4743C137.654 35.2667 137.308 35.9352 136.614 36.48C135.921 37.0248 135.048 37.2971 133.996 37.2971C133.079 37.2971 132.275 37.0619 131.581 36.5914C130.888 36.1086 130.393 35.4771 130.096 34.6971L131.619 34.0471C131.841 34.5919 132.163 35.019 132.584 35.3286C133.018 35.6257 133.488 35.7743 133.996 35.7743C134.54 35.7743 134.992 35.6567 135.351 35.4214C135.723 35.1862 135.909 34.9076 135.909 34.5857C135.909 34.0038 135.463 33.5767 134.571 33.3043L133.011 32.9143C131.241 32.4686 130.356 31.6143 130.356 30.3514C130.356 29.5219 130.69 28.8595 131.359 28.3643C132.039 27.8567 132.906 27.6029 133.959 27.6029C134.763 27.6029 135.488 27.7948 136.131 28.1786C136.788 28.5624 137.246 29.0762 137.506 29.72L135.983 30.3514C135.809 29.9676 135.525 29.6705 135.129 29.46C134.745 29.2371 134.311 29.1257 133.829 29.1257C133.383 29.1257 132.98 29.2371 132.621 29.46C132.275 29.6829 132.101 29.9552 132.101 30.2771C132.101 30.7971 132.59 31.1686 133.569 31.3914L134.943 31.7443C136.75 32.19 137.654 33.1 137.654 34.4743Z" fill="black"/>
<mask id="mask0_833_2443" style="mask-type:luminance" maskUnits="userSpaceOnUse" x="42" y="15" width="30" height="30">
<path d="M72 15H42V45H72V15Z" fill="white"/>
</mask>
<g mask="url(#mask0_833_2443)">
<path d="M72 15H42V45H72V15ZM52.5619 21.45L52.8112 21.66V29.4628L60.8878 21.4013H63.3394L63.5887 21.8991L57.1631 28.2759L64.0041 38.1975L63.75 38.5734H61.3284L55.5131 29.9747L52.8131 32.5725V38.3241L52.5788 38.5734H50.7525L50.5031 38.3241V21.6591L50.7131 21.4491L52.5619 21.45Z" fill="black"/>
</g>
</svg>
