<svg width="148" height="27" viewBox="0 0 148 27" fill="none" xmlns="http://www.w3.org/2000/svg">
<g clip-path="url(#clip0_337_4913)">
<path d="M7.505 3.22295C10.035 1.99295 12.206 0.966945 12.335 0.948945C12.4707 0.924429 12.6075 0.90674 12.745 0.895945C12.845 0.890945 13.061 0.913945 13.225 0.948945C13.424 0.984945 15.034 1.72695 17.674 3.00495C19.957 4.10095 22.053 5.11495 22.34 5.25495C22.627 5.39695 22.966 5.60895 23.095 5.72095C23.224 5.83295 23.388 6.03295 23.464 6.16295C23.557 6.32795 23.95 7.91894 24.746 11.3769C25.8 15.9299 25.893 16.3899 25.864 16.7369C25.8445 16.9791 25.779 17.2153 25.671 17.4329C25.577 17.6029 24.055 19.5529 22.281 21.7629C19.395 25.3499 19.021 25.7979 18.453 26.1039H7.593L7.171 25.8979C6.803 25.7209 6.686 25.6209 6.346 25.2079C6.129 24.9379 4.672 23.1289 3.114 21.1849C1.165 18.7519 0.24 17.5509 0.141 17.3269C0.041 17.0969 0 16.8969 0 16.6489C0 16.4079 0.357 14.7169 1.118 11.3469C1.733 8.62494 2.283 6.29295 2.342 6.16295C2.394 6.03295 2.547 5.82095 2.675 5.69195C2.869 5.49694 3.717 5.06194 7.505 3.22295Z" fill="#326DE6"/>
<path fill-rule="evenodd" clip-rule="evenodd" d="M37.1278 5.13208V9.81608C37.1278 12.3901 37.1458 14.4991 37.1748 14.4991C37.1978 14.5051 37.5608 14.1221 37.9828 13.6631C38.4038 13.1971 38.9608 12.5791 39.2128 12.2841C39.4698 11.9951 39.9028 11.4831 40.6988 10.5521H42.5898C44.3868 10.5461 44.4698 10.5521 44.3868 10.6521C44.3398 10.7121 43.8958 11.2181 43.3978 11.7891C42.8998 12.3551 42.0688 13.2861 41.5418 13.8511C41.0207 14.422 40.488 14.9821 39.9438 15.5311L40.4828 16.0901C40.7808 16.3961 41.2668 16.9561 41.5708 17.3271C41.8758 17.6981 42.3378 18.2931 42.6008 18.6521C42.8648 19.0121 43.2748 19.5891 43.5088 19.9481C43.7488 20.3081 44.0948 20.8731 44.2818 21.2151C44.4688 21.5571 44.6218 21.8511 44.6218 21.8751C44.6218 21.9051 43.8138 21.9221 41.0218 21.9281L40.1198 20.5851C39.6218 19.8481 39.0188 18.9881 38.7728 18.6821C38.5268 18.3761 38.0938 17.8751 37.8008 17.5801C37.5138 17.2801 37.2388 17.0321 37.2038 17.0321C37.1458 17.0321 37.1278 17.5621 37.1278 21.9221H33.9668V5.60408L34.2468 5.56808C34.3998 5.54508 35.0498 5.43808 35.6938 5.33308C36.3378 5.23308 36.9238 5.13708 37.1278 5.13208ZM62.0078 5.13208V7.93108C62.0078 9.46808 62.0258 10.7291 62.0548 10.7291C62.0788 10.7291 62.2838 10.6691 62.5058 10.5881C62.7288 10.5111 63.1148 10.4171 63.3558 10.3751C63.6298 10.3281 64.0978 10.3111 64.6138 10.3351C65.2338 10.3521 65.5328 10.3931 65.8438 10.4931C66.0658 10.5631 66.4518 10.7231 66.6918 10.8531C66.9318 10.9761 67.2658 11.1941 67.4238 11.3301C67.5878 11.4711 67.8158 11.6901 67.9338 11.8191C68.0438 11.9491 68.2488 12.2251 68.3838 12.4371C68.5188 12.6491 68.7058 13.0271 68.7988 13.2741C68.8988 13.5271 69.0278 14.0461 69.0988 14.4231C69.1798 14.9171 69.2208 15.3951 69.2208 16.0901C69.2268 16.7671 69.1978 17.2151 69.1328 17.5631C69.0581 17.9217 68.9622 18.2757 68.8458 18.6231C68.7408 18.9291 68.5538 19.3531 68.4358 19.5651C68.2786 19.8324 68.1028 20.0883 67.9098 20.3311C67.6934 20.5845 67.4522 20.8157 67.1898 21.0211C66.9608 21.1911 66.5798 21.4391 66.3398 21.5621C66.0998 21.6921 65.6498 21.8631 65.3448 21.9451C64.9601 22.0436 64.5692 22.1164 64.1748 22.1631C63.7469 22.2057 63.3163 22.2158 62.8868 22.1931C62.3981 22.1607 61.91 22.1194 61.4228 22.0691C60.9025 22.0147 60.3849 21.9363 59.8718 21.8341C59.4498 21.7511 59.0458 21.6451 58.8178 21.5391L58.7598 5.62108L59.8128 5.45608C60.3928 5.36808 61.0538 5.26208 61.2768 5.22108C61.4988 5.17908 61.7558 5.14408 62.0078 5.13208ZM62.2308 13.3091L61.9498 13.4391V19.2711C62.2018 19.3411 62.6928 19.3591 63.2088 19.3591C64.0928 19.3591 64.1628 19.3531 64.4668 19.2061C64.6428 19.1241 64.9068 18.9531 65.0408 18.8231C65.1808 18.7001 65.3748 18.4581 65.4628 18.2991C65.5558 18.1341 65.7028 17.7921 65.7958 17.5331C65.9478 17.0911 65.9598 17.0031 65.9538 16.0901C65.9538 15.3301 65.9308 15.0351 65.8488 14.7351C65.7904 14.5233 65.7159 14.3164 65.6258 14.1161C65.5428 13.9624 65.4493 13.8148 65.3458 13.6741C65.2578 13.5621 65.0178 13.3741 64.8128 13.2621C64.4558 13.0681 64.4088 13.0561 63.7648 13.0441C63.3668 13.0381 62.9688 13.0621 62.7988 13.1031C62.6047 13.1577 62.4148 13.2266 62.2308 13.3091ZM121.488 7.19408V10.4941H125.351L125.322 13.1741L121.488 13.2041L121.505 15.6011C121.517 17.9391 121.523 18.0161 121.652 18.3581C121.728 18.5521 121.839 18.7821 121.903 18.8701C121.962 18.9651 122.167 19.1061 122.348 19.1941C122.658 19.3481 122.74 19.3591 123.361 19.3541C123.73 19.3541 124.192 19.3181 124.385 19.2771C124.579 19.2351 124.865 19.1651 125.029 19.1171C125.187 19.0651 125.328 19.0351 125.334 19.0471C125.334 19.0591 125.433 19.6011 125.55 20.2551C125.668 20.9151 125.749 21.4751 125.732 21.5101C125.714 21.5391 125.445 21.6501 125.129 21.7451C124.819 21.8451 124.309 21.9631 124.005 22.0101C123.7 22.0571 123.098 22.0991 122.67 22.0991C122.19 22.0991 121.728 22.0631 121.441 22.0041C121.169 21.9445 120.902 21.8697 120.639 21.7801C120.394 21.6777 120.159 21.5539 119.936 21.4101C119.705 21.248 119.491 21.0623 119.298 20.8561C119.1 20.6123 118.929 20.3474 118.789 20.0661C118.639 19.7342 118.52 19.3894 118.432 19.0361C118.309 18.4871 118.303 18.3811 118.268 7.66608L118.543 7.63008C118.701 7.60708 119.351 7.50008 119.995 7.39408C120.639 7.29408 121.236 7.20008 121.488 7.19408ZM76.7318 10.2811C77.4578 10.2991 77.7738 10.3281 78.1368 10.4281C78.3948 10.4991 78.7928 10.6461 79.0148 10.7521C79.2378 10.8641 79.6058 11.0941 79.8288 11.2711C80.0458 11.4411 80.3618 11.7421 80.5188 11.9361C80.6778 12.1311 80.9238 12.5261 81.0638 12.8201C81.2108 13.1091 81.3918 13.6041 81.4678 13.9101C81.5438 14.2161 81.6378 14.7881 81.6778 15.1771C81.7258 15.6421 81.7308 16.1191 81.6498 17.2671H74.4198L74.4548 17.4571C74.4718 17.5621 74.5548 17.7981 74.6298 17.9751C74.7118 18.1521 74.8998 18.4231 75.0518 18.5751C75.2268 18.7581 75.4908 18.9351 75.7948 19.0771C76.0878 19.2121 76.4568 19.3241 76.7898 19.3831C77.2408 19.4591 77.4458 19.4591 78.1948 19.4011C78.6748 19.3591 79.2848 19.2771 79.5418 19.2181C79.7998 19.1531 80.1448 19.0531 80.3148 18.9941C80.6128 18.8881 80.6128 18.8881 80.6428 19.0061C80.6598 19.0711 80.7598 19.6241 80.8648 20.2431C80.9698 20.8561 81.0348 21.4091 81.0168 21.4631C80.9878 21.5331 80.8008 21.6211 80.4898 21.7221C80.2268 21.8041 79.6298 21.9341 79.1618 22.0101C78.6928 22.0871 77.9548 22.1701 77.5218 22.1931C77.0532 22.218 76.5835 22.206 76.1168 22.1571C75.7416 22.1124 75.3701 22.0415 75.0048 21.9451C74.6537 21.8381 74.3114 21.7044 73.9808 21.5451C73.6414 21.3719 73.3181 21.1688 73.0148 20.9381C72.7655 20.7369 72.5361 20.5122 72.3298 20.2671C72.1851 20.0682 72.0483 19.8637 71.9198 19.6541C71.7989 19.4339 71.6894 19.2076 71.5918 18.9761C71.4866 18.6785 71.4043 18.3733 71.3458 18.0631C71.282 17.643 71.2333 17.2207 71.1998 16.7971C71.1634 16.3557 71.1654 15.9121 71.2058 15.4711C71.2408 15.1471 71.3338 14.6291 71.4158 14.3221C71.4918 14.0161 71.6448 13.5741 71.7498 13.3501C71.8548 13.1201 72.0368 12.7851 72.1538 12.5961C72.2708 12.4141 72.5638 12.0601 72.7918 11.8131C73.0258 11.5651 73.4068 11.2411 73.6288 11.0941C73.8518 10.9471 74.2488 10.7341 74.5068 10.6341C74.7648 10.5281 75.1628 10.4041 75.3848 10.3521C75.6898 10.2821 76.0348 10.2621 76.7318 10.2811ZM75.4268 13.2381C75.2568 13.3501 75.0398 13.5621 74.9348 13.7161C74.8348 13.8751 74.7058 14.1281 74.6538 14.2931C74.6008 14.4521 74.5368 14.6881 74.5138 14.8061L74.4778 15.0291H78.6928C78.658 14.7807 78.6073 14.5349 78.5408 14.2931C78.4748 14.0855 78.3823 13.8872 78.2658 13.7031C78.1313 13.5152 77.9672 13.3504 77.7798 13.2151C77.5975 13.0995 77.403 13.0046 77.1998 12.9321C77.009 12.8809 76.8123 12.855 76.6148 12.8551C76.4164 12.8603 76.2196 12.8923 76.0298 12.9501C75.8185 13.0229 75.6162 13.1195 75.4268 13.2381ZM88.7918 10.2871C89.4818 10.3051 90.0798 10.3521 90.5188 10.4281C90.8868 10.4931 91.2618 10.5761 91.3498 10.6051C91.4438 10.6401 91.5138 10.6881 91.5138 10.7111C91.5198 10.7411 91.4028 11.3361 91.2678 12.0431C91.0748 13.0331 90.9978 13.3211 90.9278 13.3211C90.702 13.2907 90.4775 13.2513 90.2548 13.2031C89.9328 13.1331 89.4468 13.0681 89.1718 13.0441C88.8968 13.0261 88.4348 13.0441 88.1478 13.0791C87.8548 13.1211 87.5738 13.1621 87.5158 13.1741C87.4218 13.2041 87.4158 13.4561 87.4158 21.8631H84.1958V11.0831L84.7638 10.9061C85.1575 10.7913 85.5536 10.6849 85.9518 10.5871C86.2918 10.5111 86.7658 10.4171 87.0058 10.3811C87.2458 10.3461 87.5098 10.3051 87.5918 10.2931C87.6738 10.2751 88.2118 10.2751 88.7918 10.2871ZM97.9818 10.2811C99.2468 10.2991 99.3638 10.3111 99.8848 10.4581C100.19 10.5461 100.6 10.6941 100.793 10.7881C100.986 10.8821 101.29 11.0761 101.466 11.2181C101.642 11.3591 101.923 11.6651 102.087 11.9081C102.245 12.1481 102.438 12.5081 102.514 12.7021C102.584 12.8971 102.684 13.2031 102.731 13.3801C102.772 13.5571 102.836 13.8861 102.871 14.1161C102.9 14.3521 102.93 16.0661 102.93 21.8041H99.7678L99.7508 18.1931C99.7328 15.1471 99.7158 14.5401 99.6398 14.2931C99.5928 14.1281 99.4998 13.8931 99.4288 13.7631C99.3611 13.6294 99.2742 13.5065 99.1708 13.3981C99.1008 13.3271 98.9018 13.2091 98.7438 13.1321C98.4738 13.0091 98.3748 12.9971 97.5438 13.0021C97.0458 13.0021 96.5898 13.0261 96.5308 13.0441C96.4368 13.0851 96.4308 13.3441 96.4308 21.8041H93.2708V10.8761L93.9838 10.7171C94.3969 10.6204 94.8127 10.536 95.2308 10.4641C95.5178 10.4171 95.9568 10.3521 96.1968 10.3221C96.4368 10.2921 97.2388 10.2751 97.9828 10.2821L97.9818 10.2811ZM110.95 10.2811C111.793 10.2991 111.98 10.3221 112.425 10.4581C112.712 10.5401 113.081 10.6821 113.245 10.7641C113.415 10.8531 113.713 11.0291 113.906 11.1711C114.1 11.3061 114.386 11.5651 114.55 11.7361C114.708 11.9131 114.943 12.2131 115.06 12.4081C115.177 12.6021 115.352 12.9621 115.452 13.2031C115.546 13.4451 115.68 13.9221 115.75 14.2631C115.821 14.6051 115.891 15.1591 115.909 15.5011C115.926 15.8421 115.926 16.3781 115.868 17.2681L108.638 17.2981L108.655 17.4741C108.667 17.5681 108.755 17.8161 108.848 18.0161C108.942 18.2221 109.118 18.4871 109.241 18.6061C109.369 18.7291 109.621 18.9111 109.814 19.0181C110.002 19.1241 110.37 19.2591 110.628 19.3301C110.979 19.4181 111.278 19.4481 111.799 19.4481C112.185 19.4481 112.776 19.4061 113.116 19.3591C113.456 19.3061 113.988 19.1821 114.299 19.0761C114.615 18.9761 114.872 18.9001 114.872 18.9171C114.872 18.9351 114.972 19.4891 115.083 20.1551C115.2 20.8201 115.288 21.4031 115.27 21.4511C115.253 21.4981 115.025 21.6101 114.767 21.6981C114.503 21.7921 113.883 21.9281 113.391 22.0101C112.905 22.0871 112.144 22.1701 111.711 22.1931C111.262 22.2172 110.812 22.2071 110.365 22.1631C110.019 22.1199 109.677 22.0551 109.34 21.9691C109.052 21.8898 108.769 21.7954 108.491 21.6861C108.207 21.5626 107.933 21.4168 107.672 21.2501C107.367 21.0402 107.083 20.8017 106.823 20.5381C106.566 20.2672 106.34 19.9687 106.149 19.6481C105.986 19.3464 105.845 19.0332 105.728 18.7111C105.616 18.3543 105.53 17.9901 105.47 17.6211C105.394 17.1511 105.383 16.7671 105.406 16.0011C105.429 15.1651 105.459 14.9061 105.587 14.4111C105.675 14.0871 105.822 13.6511 105.904 13.4391C106.032 13.1529 106.183 12.8771 106.354 12.6141C106.518 12.3721 106.793 12.0191 106.969 11.8241C107.145 11.6361 107.449 11.3651 107.642 11.2301C107.836 11.0881 108.152 10.9001 108.345 10.8051C108.538 10.7051 108.842 10.5821 109.018 10.5231C109.194 10.4631 109.486 10.3811 109.662 10.3401C109.873 10.2871 110.312 10.2701 110.95 10.2811ZM109.937 13.0501C109.761 13.1429 109.598 13.2578 109.451 13.3921C109.299 13.5331 109.118 13.7511 109.041 13.8811C108.965 14.0111 108.878 14.2111 108.842 14.3221C108.799 14.4714 108.763 14.6229 108.737 14.7761L108.696 15.0291H112.853C112.794 14.5521 112.712 14.2521 112.624 14.0571C112.517 13.8234 112.371 13.6102 112.191 13.4271C112.023 13.2638 111.832 13.1269 111.623 13.0211C111.398 12.9339 111.161 12.8839 110.921 12.8731C110.698 12.8611 110.435 12.8731 110.335 12.9031C110.198 12.9403 110.065 12.9895 109.937 13.0501ZM132.523 10.2811C133.249 10.2991 133.565 10.3281 133.928 10.4281C134.185 10.4991 134.584 10.6461 134.806 10.7521C135.028 10.8641 135.397 11.0941 135.62 11.2711C135.836 11.4411 136.147 11.7421 136.305 11.9361C136.463 12.1311 136.709 12.5261 136.855 12.8201C136.995 13.1091 137.177 13.6041 137.259 13.9101C137.335 14.2161 137.429 14.7881 137.47 15.1771C137.511 15.6181 137.516 16.1431 137.44 17.2671H130.269V17.4151C130.269 17.4981 130.322 17.7041 130.38 17.8691C130.45 18.0571 130.62 18.3221 130.808 18.5291C131.03 18.7761 131.235 18.9291 131.528 19.0711C131.75 19.1771 132.125 19.3121 132.347 19.3651C132.681 19.4421 132.938 19.4531 133.723 19.4301C134.256 19.4061 134.876 19.3531 135.099 19.3061C135.321 19.2531 135.713 19.1411 135.959 19.0531C136.211 18.9591 136.422 18.9001 136.433 18.9171C136.451 18.9351 136.556 19.5011 136.673 20.1841C136.791 20.8611 136.884 21.4391 136.884 21.4621C136.884 21.4921 136.744 21.5621 136.574 21.6271C136.358 21.7032 136.139 21.7699 135.918 21.8271C135.725 21.8751 135.21 21.9751 134.777 22.0461C134.156 22.1521 133.746 22.1811 132.874 22.1811C132.031 22.1811 131.656 22.1571 131.323 22.0751C131.083 22.0221 130.673 21.9051 130.415 21.8151C130.094 21.6972 129.783 21.5558 129.484 21.3921C129.18 21.2211 128.841 20.9501 128.507 20.6261C128.214 20.3311 127.91 19.9661 127.781 19.7421C127.649 19.5021 127.528 19.2565 127.418 19.0061C127.311 18.7178 127.225 18.4224 127.16 18.1221C127.102 17.8281 127.026 17.2621 126.991 16.8561C126.944 16.4056 126.944 15.9515 126.991 15.5011C127.026 15.1591 127.125 14.6291 127.201 14.3221C127.277 14.0161 127.447 13.5391 127.582 13.2621C127.711 12.9851 127.933 12.6021 128.074 12.4081C128.208 12.2131 128.507 11.8781 128.723 11.6661C128.946 11.4531 129.274 11.1821 129.449 11.0651C129.625 10.9471 129.994 10.7581 130.269 10.6461C130.544 10.5341 130.954 10.4051 131.176 10.3521C131.481 10.2821 131.826 10.2621 132.523 10.2811ZM131.323 13.1511C131.133 13.275 130.96 13.4229 130.808 13.5911C130.667 13.7511 130.503 14.0281 130.439 14.2051C130.371 14.393 130.318 14.5859 130.281 14.7821L130.24 15.0291H134.425C134.425 14.8231 134.384 14.6051 134.332 14.4111C134.28 14.2058 134.203 14.0076 134.103 13.8211C134.033 13.6921 133.863 13.4861 133.729 13.3621C133.571 13.2258 133.396 13.1111 133.208 13.0211C132.774 12.8573 132.302 12.8243 131.85 12.9261C131.667 12.9829 131.491 13.0579 131.323 13.1501V13.1511ZM144.29 10.2811C145.32 10.3051 145.554 10.3281 146.251 10.4811C146.684 10.5811 147.147 10.6991 147.275 10.7461C147.404 10.7941 147.51 10.8531 147.51 10.8821C147.51 10.9121 147.393 11.4721 147.246 12.1311C147.006 13.2321 146.971 13.3271 146.866 13.3031C146.801 13.2861 146.432 13.1911 146.046 13.0851C145.414 12.9081 145.256 12.8911 144.495 12.8851C143.821 12.8791 143.593 12.9031 143.382 12.9791C143.236 13.0391 143.055 13.1501 142.973 13.2331C142.856 13.3631 142.826 13.4501 142.826 13.7031C142.826 13.9811 142.85 14.0461 143.014 14.2161C143.113 14.3221 143.388 14.5111 143.628 14.6291C143.862 14.7471 144.319 14.9411 144.641 15.0591C144.963 15.1821 145.543 15.4421 145.929 15.6361C146.462 15.9131 146.731 16.0901 147.035 16.3841C147.252 16.5961 147.504 16.8851 147.586 17.0321C147.674 17.1801 147.791 17.4681 147.849 17.6801C147.908 17.8921 147.972 18.3401 147.99 18.6821C148.013 19.1531 148.001 19.3891 147.925 19.6661C147.863 19.8994 147.779 20.1261 147.674 20.3431C147.592 20.5131 147.387 20.7971 147.223 20.9681C147.036 21.1622 146.828 21.334 146.602 21.4801C146.379 21.6151 146.144 21.7295 145.9 21.8221C145.651 21.9163 145.397 21.9948 145.139 22.0571C144.81 22.1269 144.477 22.1783 144.143 22.2111C143.804 22.2461 143.265 22.2751 142.943 22.2751C142.621 22.2751 142.083 22.2351 141.743 22.1931C141.409 22.1465 141.077 22.0854 140.748 22.0101C140.463 21.9351 140.18 21.8527 139.899 21.7631C139.642 21.6801 139.407 21.5921 139.372 21.5631C139.331 21.5271 139.402 21.0801 139.571 20.2551C139.663 19.8336 139.751 19.4112 139.835 18.9881C139.841 18.9761 140.092 19.0531 140.397 19.1591C140.701 19.2591 141.14 19.3771 141.363 19.4191C141.585 19.4591 142.194 19.5121 142.709 19.5361C143.371 19.5661 143.751 19.5601 143.997 19.5061C144.19 19.4661 144.419 19.3951 144.506 19.3531C144.612 19.2915 144.699 19.2019 144.758 19.0941C144.809 18.9871 144.839 18.8714 144.846 18.7531C144.834 18.6278 144.794 18.5069 144.729 18.3991C144.645 18.2788 144.54 18.175 144.419 18.0931C144.319 18.0281 144.073 17.8931 143.88 17.8041C143.583 17.6663 143.28 17.5405 142.973 17.4271C142.617 17.2901 142.266 17.1428 141.919 16.9851C141.625 16.8498 141.342 16.6945 141.07 16.5201C140.846 16.3657 140.639 16.1903 140.449 15.9961C140.29 15.8172 140.15 15.6213 140.034 15.4121C139.933 15.2023 139.847 14.9858 139.776 14.7641C139.694 14.4991 139.671 14.2221 139.671 13.6741C139.671 13.0091 139.688 12.8971 139.835 12.5261C139.923 12.2961 140.081 11.9961 140.18 11.8481C140.286 11.7011 140.461 11.4881 140.572 11.3831C140.931 11.0511 141.348 10.7875 141.802 10.6051C141.977 10.5351 142.346 10.4281 142.621 10.3691C143.043 10.2751 143.295 10.2631 144.29 10.2811ZM46.0268 10.4931H49.2468V13.8631C49.2518 16.4081 49.2698 17.3451 49.3278 17.6801C49.3688 17.9221 49.4678 18.2641 49.5448 18.4401C49.6208 18.6171 49.7848 18.8471 49.9018 18.9591C50.0368 19.0711 50.2588 19.1941 50.4578 19.2471C50.7278 19.3241 50.9678 19.3421 51.6178 19.3181C52.0678 19.3001 52.4718 19.2711 52.5078 19.2531C52.5658 19.2181 52.5828 18.2811 52.5828 10.4931H55.7448L55.7148 21.4801L55.1298 21.6101C54.8078 21.6861 54.1868 21.7981 53.7538 21.8631C53.3208 21.9331 52.4778 22.0161 51.8808 22.0521C51.0608 22.1051 50.6508 22.1051 50.1828 22.0521C49.7968 22.0081 49.4149 21.9332 49.0408 21.8281C48.7191 21.7325 48.406 21.6101 48.1048 21.4621C47.8177 21.2955 47.5523 21.094 47.3148 20.8621C47.053 20.606 46.8369 20.307 46.6758 19.9781C46.5094 19.6383 46.3761 19.2834 46.2778 18.9181C46.1878 18.5297 46.1233 18.1359 46.0848 17.7391C46.0498 17.3981 46.0258 15.6301 46.0258 13.8041V10.4941L46.0268 10.4931Z" fill="black"/>
<path d="M12.3002 4.6371C12.3182 4.5431 12.4232 4.3901 12.5282 4.3021C12.6452 4.1961 12.7862 4.1311 12.8912 4.1311C12.9912 4.1311 13.1432 4.1961 13.2422 4.2781C13.346 4.36417 13.4182 4.48241 13.4472 4.6141C13.4652 4.7201 13.4422 5.0741 13.3892 5.3971C13.3454 5.68042 13.316 5.96579 13.3012 6.2521C13.3012 6.3991 13.3362 6.5701 13.3892 6.6351C13.4362 6.6991 13.4712 6.7941 13.4772 6.8411C13.4772 6.9061 13.6292 6.9591 14.0442 7.0411C14.3612 7.1001 14.8822 7.2411 15.2042 7.3531C15.5262 7.4651 15.9182 7.6241 16.0822 7.7071C16.2402 7.7891 16.5562 7.9771 16.7842 8.1251C17.0132 8.2661 17.3872 8.5671 17.6162 8.7911C17.8502 9.0151 18.0662 9.1971 18.1022 9.1971C18.1372 9.1971 18.1722 9.1741 18.1892 9.1381C18.2072 9.1031 18.3062 9.0791 18.4062 9.0791C18.5462 9.0791 18.6812 9.0091 18.8982 8.8321C19.0622 8.6911 19.3252 8.4371 19.4832 8.2601C19.6412 8.0901 19.8402 7.9131 19.9282 7.8661C20.035 7.81638 20.1506 7.78818 20.2682 7.7831C20.3852 7.7831 20.5022 7.8431 20.6182 7.9601C20.7302 8.0721 20.7942 8.1961 20.7942 8.2961C20.7892 8.3901 20.7362 8.5561 20.6722 8.6671C20.5952 8.8021 20.4322 8.9441 20.1922 9.0731C19.9922 9.1851 19.6652 9.3861 19.4602 9.5271C19.1902 9.7211 19.0852 9.8331 19.0502 9.9691C19.0262 10.0691 18.9742 10.1751 18.9332 10.2051C18.8802 10.2451 18.9212 10.3581 19.0972 10.6521C19.2202 10.8761 19.4192 11.2821 19.5362 11.5651C19.6472 11.8551 19.7932 12.2901 19.8582 12.5371C19.9162 12.7911 19.9982 13.2741 20.0392 13.6161C20.0742 13.9631 20.0922 14.4761 20.0692 14.7761C20.0452 15.1301 20.0572 15.3241 20.0922 15.3241C20.1272 15.3241 20.2212 15.3891 20.3082 15.4651C20.4022 15.5421 20.6132 15.6301 20.7942 15.6651C20.9702 15.7011 21.2862 15.7481 21.4972 15.7651C21.7072 15.7831 21.9952 15.8311 22.1352 15.8721C22.2989 15.9171 22.4467 16.0068 22.5622 16.1311C22.6502 16.2371 22.7262 16.3911 22.7262 16.4731C22.7262 16.5671 22.6622 16.6731 22.5332 16.7731C22.3812 16.8971 22.2992 16.9201 22.1122 16.9031C21.9609 16.8807 21.813 16.839 21.6722 16.7791C21.4816 16.6953 21.2863 16.6225 21.0872 16.5611C20.8839 16.4942 20.6769 16.4391 20.4672 16.3961C20.3032 16.3691 20.1902 16.3781 20.1272 16.4261C20.0742 16.4661 19.9872 16.4901 19.9282 16.4731C19.8522 16.4491 19.7992 16.5131 19.6882 16.8081C19.6122 17.0151 19.4832 17.3091 19.4012 17.4741C19.3252 17.6341 19.1142 17.9871 18.9452 18.2521C18.7692 18.5221 18.4122 18.9711 18.1422 19.2471C17.8792 19.5301 17.4402 19.9251 16.6672 20.5081V20.8441C16.6732 21.1441 16.7022 21.2381 16.9482 21.6571C17.1062 21.9161 17.3052 22.2341 17.3992 22.3641C17.5222 22.5341 17.5692 22.6701 17.5752 22.8471C17.5752 23.0591 17.5452 23.1241 17.3992 23.2471C17.2971 23.3377 17.1667 23.39 17.0302 23.3951C16.8842 23.3951 16.7902 23.3351 16.6092 23.1411C16.4332 22.9591 16.3452 22.7941 16.2692 22.5111C16.2014 22.27 16.1172 22.0338 16.0172 21.8041C15.9352 21.6271 15.7722 21.3861 15.4372 21.0621L15.0872 21.1681C14.8932 21.2211 14.4432 21.3271 14.0912 21.3981C13.5412 21.5091 13.3312 21.5211 12.6282 21.4921C12.1132 21.4681 11.6332 21.4151 11.3402 21.3391C11.0936 21.278 10.8494 21.2073 10.6082 21.1271C10.3982 21.0501 10.3382 21.0501 10.3212 21.1091C10.2702 21.1925 10.2072 21.268 10.1342 21.3331C10.0402 21.4151 9.89423 21.6511 9.80023 21.8631C9.69464 22.1016 9.60119 22.3452 9.52024 22.5931C9.45216 22.7891 9.35508 22.9739 9.23223 23.1411C9.13375 23.258 9.00069 23.3406 8.85223 23.3771C8.67623 23.4121 8.62324 23.3891 8.45424 23.2301C8.31424 23.0881 8.26623 22.9881 8.26623 22.8351C8.26623 22.6881 8.34824 22.5111 8.55324 22.1991C8.71124 21.9691 8.92323 21.6161 9.02724 21.4211C9.18023 21.1441 9.21523 21.0261 9.18623 20.8731C9.16223 20.7671 9.16823 20.6731 9.20323 20.6551C9.23823 20.6381 9.26223 20.6081 9.26223 20.5791C9.26223 20.5551 9.08624 20.4191 8.86924 20.2721C8.55607 20.0474 8.2587 19.8015 7.97923 19.5361C7.67772 19.241 7.39642 18.926 7.13723 18.5931C6.89193 18.2476 6.67457 17.8831 6.48723 17.5031C6.3551 17.2325 6.23171 16.9577 6.11723 16.6791C6.06523 16.5261 6.02423 16.4841 5.95423 16.5141C5.90723 16.5441 5.79623 16.5261 5.71423 16.4841C5.59123 16.4311 5.49123 16.4311 5.22823 16.4841C5.04723 16.5261 4.65423 16.6381 4.35623 16.7381C4.06323 16.8321 3.72423 16.9151 3.61223 16.9151C3.54661 16.9165 3.48144 16.904 3.42096 16.8785C3.36048 16.853 3.30605 16.8151 3.26123 16.7671C3.21549 16.7228 3.17903 16.6698 3.15396 16.6113C3.1289 16.5527 3.11573 16.4898 3.11523 16.4261C3.11846 16.2955 3.1633 16.1694 3.24323 16.0661C3.31865 15.971 3.41476 15.8944 3.52423 15.8421C3.60623 15.8121 3.95823 15.7481 4.31423 15.7071C4.66623 15.6601 5.05223 15.5951 5.16423 15.5651C5.28355 15.5286 5.39345 15.4665 5.48623 15.3831C5.55023 15.3181 5.63823 15.2591 5.67323 15.2651C5.73123 15.2651 5.74323 15.1121 5.71323 14.5991C5.68942 14.1825 5.70146 13.7646 5.74923 13.3501C5.833 12.6609 6.01239 11.9868 6.28223 11.3471C6.38223 11.1171 6.55223 10.7761 6.87323 10.2281L6.74423 9.9921C6.67423 9.8621 6.50423 9.6741 6.37023 9.5681C6.24023 9.4681 5.93023 9.2741 5.69023 9.1381C5.45023 9.0081 5.19323 8.8321 5.11723 8.7551C5.02556 8.64268 4.97952 8.4999 4.98823 8.3551C4.98823 8.2131 5.02923 8.0481 5.08223 7.9781C5.15661 7.89591 5.25429 7.83835 5.36223 7.8131C5.47162 7.79155 5.58465 7.79739 5.69123 7.8301C5.77223 7.8661 6.11823 8.1721 6.46323 8.5141C7.02523 9.0681 7.11924 9.1381 7.30023 9.1381C7.41223 9.1381 7.51723 9.1621 7.53523 9.1981C7.55223 9.2331 7.72823 9.1081 7.92723 8.9201C8.13223 8.7381 8.47723 8.4601 8.70523 8.2961C8.92823 8.1361 9.32623 7.9011 9.58423 7.7721C9.88739 7.61867 10.2 7.48473 10.5202 7.3711C10.8804 7.25606 11.2479 7.16552 11.6202 7.1001C12.1712 7.0001 12.2472 6.9761 12.2472 6.8701C12.2582 6.78607 12.2883 6.70568 12.3352 6.6351C12.3942 6.5581 12.4232 6.3871 12.4232 6.1341C12.4111 5.84818 12.3837 5.56311 12.3412 5.2801C12.3002 5.0201 12.2822 4.7321 12.3002 4.6371Z" fill="white"/>
<path d="M10.6074 8.96107C10.8474 8.86107 11.2464 8.72607 11.4864 8.66707C11.7264 8.60707 11.9714 8.55507 12.0244 8.55507C12.0894 8.54907 12.1304 8.59007 12.1304 8.64907C12.1244 8.70807 12.0884 9.42107 12.0424 10.2281C11.9664 11.6361 11.9544 11.7061 11.8254 11.8361C11.7808 11.8801 11.7275 11.9143 11.669 11.9367C11.6105 11.9591 11.548 11.9691 11.4854 11.9661C11.3154 11.9601 11.0524 11.8011 8.78738 10.1691L9.00938 9.96907C9.23069 9.78669 9.46098 9.61547 9.69938 9.45607C9.95838 9.28607 10.3674 9.06107 10.6074 8.96107ZM13.6574 10.3751C13.6174 9.68007 13.5754 8.98507 13.5524 8.83207L13.5174 8.54907L13.7164 8.58407C13.8274 8.60207 14.1264 8.66707 14.3834 8.73107C14.6414 8.79607 15.0924 8.96107 15.3794 9.10307C15.6654 9.24407 16.0754 9.49707 16.2864 9.65607C16.4964 9.81607 16.7134 9.99807 16.7724 10.0561C16.8724 10.1631 16.8424 10.1921 15.6894 11.0171C15.0334 11.4891 14.4364 11.8951 14.3544 11.9241C14.2569 11.9594 14.1513 11.9656 14.0504 11.9421C13.9514 11.9179 13.8642 11.8595 13.8044 11.7771C13.7454 11.6831 13.7044 11.2531 13.6574 10.3751ZM7.59238 11.9241C7.67438 11.7361 7.78038 11.5241 7.83238 11.4541C7.87938 11.3821 7.92638 11.3241 7.94438 11.3241C7.96138 11.3241 8.44138 11.7421 9.00938 12.2541C9.58338 12.7671 10.1044 13.2501 10.1694 13.3211C10.2371 13.4073 10.2775 13.5117 10.2854 13.6211C10.2854 13.7211 10.2274 13.8511 10.1514 13.9271C10.0514 14.0221 9.61838 14.1751 8.57138 14.4811L8.54538 14.4881C7.14138 14.8941 7.12438 14.8981 7.06538 14.7761C7.03038 14.6931 7.03638 14.4101 7.08338 13.9751C7.11838 13.5981 7.21838 13.0611 7.30038 12.7791C7.37638 12.4961 7.51038 12.1131 7.59238 11.9241ZM15.4314 13.5151C15.4494 13.4451 15.9704 12.9201 16.5914 12.3551C17.2114 11.7891 17.7384 11.3231 17.7614 11.3231C17.7854 11.3231 17.8904 11.4881 17.9904 11.6891C18.0954 11.8891 18.2354 12.2421 18.3174 12.4721C18.3934 12.6961 18.4934 13.1081 18.5404 13.3851C18.5874 13.6561 18.6284 14.1151 18.6284 14.3991C18.6284 14.8641 18.6164 14.9111 18.5224 14.8881C18.4704 14.8701 17.8324 14.6881 17.1064 14.4811C16.3804 14.2751 15.7304 14.0751 15.6544 14.0391C15.5678 13.984 15.5001 13.9037 15.4604 13.8091C15.4257 13.7152 15.4157 13.6139 15.4314 13.5151ZM11.9194 14.2991C11.8894 14.0811 11.9134 14.0281 12.1594 13.7211L12.4284 13.3851H13.3004L13.8744 14.1221L13.7924 14.4751C13.7454 14.6701 13.6924 14.8581 13.6814 14.8991C13.6634 14.9411 13.4934 15.0531 13.3014 15.1531C13.1074 15.2471 12.9084 15.3291 12.8614 15.3291C12.8144 15.3291 12.6154 15.2471 12.4224 15.1531C12.1184 14.9991 12.0594 14.9411 12.0124 14.7531C11.9724 14.6037 11.9414 14.4521 11.9194 14.2991ZM7.48138 16.3431C7.49938 16.3131 8.12538 16.1831 8.86938 16.0481C9.61838 15.9131 10.3204 15.8181 10.4324 15.8301C10.5445 15.8418 10.6504 15.8871 10.7364 15.9601C10.8029 16.0278 10.8477 16.1138 10.8654 16.2071C10.8774 16.3021 10.6724 16.8791 10.3034 17.7681C10.109 18.2521 9.90795 18.7335 9.70038 19.2121C9.68838 19.2291 9.51338 19.1061 9.30838 18.9411C9.06746 18.7388 8.83873 18.5224 8.62338 18.2931C8.42612 18.0707 8.24246 17.8366 8.07338 17.5921C7.91018 17.3435 7.76513 17.0835 7.63938 16.8141C7.53438 16.5781 7.46438 16.3661 7.48138 16.3431ZM14.8174 16.2251C14.8114 16.0891 14.8524 16.0071 14.9754 15.9191C15.0741 15.8454 15.1924 15.8023 15.3154 15.7951C15.4144 15.7951 16.1164 15.9011 16.8714 16.0311C17.6274 16.1661 18.2594 16.2841 18.2764 16.2961C18.2944 16.3131 18.2474 16.4661 18.1764 16.6311C18.1014 16.8021 17.9084 17.1561 17.7384 17.4151C17.5684 17.6751 17.2704 18.0571 17.0764 18.2631C16.8618 18.4875 16.633 18.698 16.3914 18.8931C16.2044 19.0351 16.0344 19.1531 16.0114 19.1531C15.9814 19.1591 15.7064 18.5401 15.3964 17.7861C15.0804 17.0321 14.8224 16.3311 14.8164 16.2251H14.8174ZM11.7264 18.5341C12.1124 17.8211 12.4814 17.1911 12.5514 17.1381C12.624 17.0763 12.7143 17.0392 12.8094 17.0321C12.8854 17.0321 13.0194 17.0791 13.1014 17.1381C13.2014 17.1971 13.5174 17.7151 13.9514 18.5051C14.3314 19.2001 14.6474 19.8011 14.6474 19.8301C14.6474 19.8661 14.3894 19.9421 14.0794 20.0071C13.6594 20.0912 13.2317 20.1308 12.8034 20.1251C12.3464 20.1191 11.9364 20.0841 11.6324 20.0131C11.4496 19.9762 11.2695 19.9271 11.0934 19.8661C11.0414 19.8421 11.2334 19.4361 11.7264 18.5341Z" fill="#326DE6"/>
</g>
<defs>
<clipPath id="clip0_337_4913">
<rect width="148" height="27" fill="white"/>
</clipPath>
</defs>
</svg>
