<svg width="67" height="50" viewBox="0 0 67 50" fill="none" xmlns="http://www.w3.org/2000/svg">
<g clip-path="url(#clip0_337_5029)">
<path fill-rule="evenodd" clip-rule="evenodd" d="M0 0H1.72327C3.33918 0 3.44696 0.0213114 3.55433 0.486885C3.61925 0.740984 3.66253 1.48197 3.64089 2.1168C3.64089 3.1541 3.74867 3.40779 4.58888 4.55123C5.3858 5.63074 5.75201 5.92705 7.13071 6.54098C8.50983 7.17623 8.94055 7.26066 10.2331 7.23975C11.5257 7.21844 11.978 7.09139 13.4645 6.35041C14.8003 5.69467 15.3605 5.2709 15.9206 4.50902C16.5453 3.66229 16.6963 3.23852 16.8253 1.90533C16.9115 1.0373 16.9976 0.253689 16.9976 0.148361C17.0192 0.0635246 18.9152 0 25.4213 0L25.6797 1.54508C25.8087 2.3709 26.0892 3.25984 26.2831 3.49262C26.4983 3.72582 26.6277 4.04303 26.5844 4.19139C26.5416 4.31844 26.3472 4.44549 26.1754 4.44549C26.0031 4.44549 25.701 4.7627 25.5291 5.14385C25.3352 5.50369 24.904 5.94836 24.5595 6.09672C24.1932 6.22377 23.956 6.45656 24.021 6.56229C24.0855 6.66803 23.9993 6.92213 23.8487 7.09139C23.6764 7.30328 23.2453 7.43033 22.6206 7.40902C22.0821 7.40902 21.393 7.51475 21.0696 7.66311C20.7679 7.81107 20.1429 8.36148 19.6905 8.89057C19.2165 9.44098 18.7858 10.2033 18.6997 10.6898C18.5919 11.1557 18.5707 11.7275 18.6564 11.9602C18.7213 12.193 18.9581 12.7648 19.1737 13.2303C19.5182 13.9713 19.6044 15.0508 19.7983 21.4434C19.9922 27.7098 20.1 28.916 20.4233 29.6996C20.7246 30.3766 21.0476 30.6943 21.78 31.0541C22.2973 31.3295 23.0513 31.541 23.4175 31.541C23.8054 31.541 24.1287 31.6258 24.1287 31.7529C24.1287 31.8799 24.301 31.9643 24.495 31.9643C24.7105 31.9643 25.5291 31.7738 26.326 31.541C27.2307 31.2869 27.899 30.9484 28.0497 30.6943C28.2003 30.4615 28.3943 30.2709 28.4804 30.2709C28.5882 30.2709 28.6094 30.3557 28.5449 30.4828C28.4733 30.6238 28.5811 30.6238 28.8683 30.4828C29.1055 30.3557 29.4496 30.3131 29.6223 30.3766C29.8162 30.4402 29.9453 30.7369 29.9453 31.1176C29.9453 31.7102 30.0963 31.8164 33.7156 33.5734L34.4696 33.2135C34.8787 33.0016 35.396 32.8324 35.5899 32.8111C35.8051 32.8111 35.9345 32.8959 35.8696 33.0229C35.805 33.15 35.8912 33.2135 36.0206 33.2135C36.1713 33.1922 36.4297 33.1922 36.5591 33.2135C36.7098 33.2135 36.7963 33.3615 36.7314 33.5098C36.6453 33.6791 36.947 33.7848 37.7439 33.8275C38.3689 33.8484 39.3382 33.9119 39.8771 33.9332C40.4156 33.9541 41.148 33.8275 41.4926 33.6578C41.8371 33.4885 42.7423 32.875 43.5175 32.3242C44.2932 31.7529 45.0257 31.1389 45.1551 30.9484C45.2841 30.7369 45.7152 30.2709 46.0814 29.9115C46.4476 29.5303 46.7494 29.1279 46.7494 29.0008C46.7494 28.8738 46.9861 28.7045 47.2879 28.5775C47.5896 28.4504 47.7835 28.2811 47.7186 28.1541C47.6541 28.027 47.9341 27.7729 48.3003 27.5402C48.6882 27.3287 49.1405 26.8205 49.3128 26.4393C49.4851 25.9951 49.6574 24.3225 49.7435 22.0578C49.8513 19.2209 49.8085 18.4168 49.5929 18.4168C49.4206 18.4168 49.3345 18.0779 49.3345 17.4639C49.3345 16.8926 49.2267 16.4902 49.0544 16.427C48.9033 16.3844 48.6666 15.5799 48.4943 14.4791C48.322 13.4422 47.9986 11.9389 47.7835 11.1135C47.5679 10.309 47.3095 9.29303 47.2233 8.86967C47.1368 8.46721 46.9216 7.95943 46.7494 7.74754C46.5767 7.53607 46.0814 7.19713 45.6719 6.98525C45.2629 6.77377 44.3365 6.49877 43.6253 6.37172C42.9145 6.22336 42.1605 5.96967 41.9449 5.75779C41.7081 5.56721 41.2341 5.10164 40.8679 4.74139C40.4801 4.38197 39.9199 3.59877 39.5754 3.00574C39.101 2.1168 39.0152 1.71475 39.2092 0L47.5034 0.105738L47.6108 1.69344C47.7186 3.13279 47.8263 3.38689 48.6449 4.50902C49.3345 5.41885 49.8946 5.88484 50.8855 6.39303C52.1352 7.02828 52.3936 7.09139 54.2896 7.09139C56.2929 7.09139 56.3574 7.07008 57.801 6.24467C58.7274 5.69426 59.4814 5.05943 59.9338 4.44549C60.4939 3.6623 60.6446 3.19631 60.774 1.79918C60.8601 0.868033 60.9463 0.0848361 60.9463 0.0422131C60.9679 0.0213115 62.325 0 67 0V49.9578H60.9679L60.7524 49.4283C60.6233 49.132 60.5368 47.9676 60.5368 46.8459C60.5156 45.2369 60.6017 44.7078 60.8601 44.4537C61.0324 44.2844 61.2047 43.9459 61.248 43.7131C61.2696 43.4164 61.4631 43.2684 62.476 43.1836V41.3422C62.4973 39.8602 62.4111 39.3734 62.1098 38.9713C61.8298 38.6115 61.4419 38.4631 60.6446 38.3783C60.0416 38.3152 59.3092 38.3152 58.9642 38.3996C58.5551 38.4844 58.3612 38.675 58.3179 39.0557C58.2967 39.3311 58.3179 39.6061 58.3828 39.6488C58.4473 39.691 58.3612 39.691 58.2101 39.6488C58.0811 39.6275 57.8655 39.818 57.7365 40.1143C57.6071 40.4107 57.4348 40.6857 57.3054 40.7496C57.1764 40.8127 57.0898 40.1143 57.0898 36.8332H56.4435C55.8189 36.8332 55.7973 36.8754 55.7973 37.7857C55.7973 38.675 55.776 38.7172 55.3666 38.5266C55.1298 38.3996 54.6986 38.3152 54.3969 38.3152C54.0956 38.3152 53.5567 38.548 53.2122 38.8438C52.8459 39.1406 52.5659 39.5217 52.5659 39.691C52.5638 39.7746 52.529 39.8543 52.4689 39.9134C52.4088 39.9725 52.3279 40.0066 52.2429 40.0086C52.0702 40.0086 51.8335 39.7754 51.704 39.4791C51.575 39.1828 51.2733 38.802 50.9932 38.6324C50.7348 38.4631 50.3253 38.3152 50.0885 38.3152C49.8513 38.3152 49.399 38.4631 48.4726 38.9504V37.8918C48.4726 36.8545 48.451 36.8332 47.8264 36.8332C47.2017 36.8332 47.1801 36.8545 47.1156 37.9549C47.0723 39.0348 47.0723 39.0557 46.426 38.9922C46.0598 38.9713 45.6291 38.8016 45.4568 38.6324C45.2841 38.4631 44.8967 38.3361 44.595 38.3361C44.2932 38.3361 43.8625 38.4209 43.6253 38.5053C43.3669 38.6115 43.0868 38.5902 42.9145 38.4422C42.699 38.2725 42.6345 38.2725 42.6561 38.4631C42.6561 38.675 42.5483 38.675 42.225 38.5266C41.9882 38.3996 41.5787 38.3152 41.2986 38.3152C41.0402 38.3152 40.5879 38.4844 40.2861 38.675C39.7909 39.0348 39.7693 39.0348 39.8767 38.6324C39.9849 38.2725 39.8983 38.209 39.3814 38.2512C39.0581 38.2938 38.649 38.4422 38.498 38.5902C38.304 38.802 38.0027 38.8229 37.2703 38.6959C36.7314 38.5689 35.9128 38.4418 35.4393 38.3783C34.9648 38.3152 34.2541 38.3361 33.8662 38.3996C33.3061 38.5053 33.1771 38.6324 33.1771 39.0557C33.1771 39.3947 33.0476 39.5852 32.8537 39.5852C32.6814 39.5852 32.4875 39.7332 32.423 39.9025C32.3581 40.0721 32.1213 40.2201 31.8841 40.2201C31.6469 40.2201 31.2378 40.3471 30.9577 40.4742C30.7176 40.619 30.4999 40.7972 30.3115 41.0033C30.2253 41.1516 30.0743 41.2787 29.9453 41.2787C29.8162 41.2787 29.7301 40.432 29.7301 37.0451H28.222V39.1619C28.222 40.432 28.1358 41.2787 28.0064 41.2787C27.8774 41.2787 27.7909 41.1939 27.7909 41.0668C27.7909 40.9398 27.6402 40.8553 27.4679 40.8553C27.2956 40.8553 27.1446 40.6861 27.1446 40.4742C27.1662 40.2836 26.8645 39.966 26.4983 39.7967C26.1321 39.6275 25.8304 39.352 25.852 39.2041C25.852 39.077 25.4858 38.5689 25.0334 38.1033C24.6027 37.6377 24.1071 37.2566 23.9565 37.2566C23.827 37.2566 23.5686 37.066 23.4175 36.8545C23.1595 36.452 23.1375 36.452 21.651 36.9602C20.5956 37.3201 19.9706 37.6799 19.5615 38.1668C19.2598 38.5266 18.9364 38.802 18.8719 38.7385C18.7858 38.675 18.8291 38.2725 19.1737 37.0447L18.3763 37.0873C17.6439 37.1508 17.5577 37.2143 17.4067 37.934C17.2993 38.4422 17.1054 38.7385 16.9115 38.7385C16.7392 38.7385 16.4591 38.7807 16.3081 38.8443C16.1362 38.9291 15.9635 38.6115 15.7696 37.9975C15.5328 37.1082 15.4683 37.0447 14.7571 37.0447C14.0463 37.0447 13.9818 37.0873 13.7233 38.0189C13.5939 38.5689 13.4 39.0348 13.2922 39.077C13.2061 39.1193 12.9693 39.077 12.7537 38.9713C12.5598 38.8443 12.2797 38.3996 12.1719 37.9549C11.978 37.2352 11.849 37.1508 11.2023 37.0873C10.4487 37.0025 10.4487 37.0025 10.5993 37.7225C10.6855 38.1037 10.8149 38.6115 10.8794 38.8443C10.9872 39.2041 10.901 39.2889 10.2331 39.3734C9.71625 39.4369 9.37168 39.3734 9.19898 39.1828C9.04833 39.0135 8.7899 38.5053 8.6172 38.0189C8.29427 37.193 8.22976 37.1508 6.57058 37.1508L5.53686 39.7967C4.95509 41.2574 4.43823 42.718 4.39495 43.0779C4.33045 43.4377 4.13652 44.9406 3.96382 46.4648C3.79153 47.9889 3.61925 49.3861 3.55475 49.5766C3.4686 49.8943 3.18853 49.9578 0 49.9578V30.8C0 13.9078 0.0432795 11.6426 0.323348 11.6426C0.408293 11.6406 0.48921 11.6066 0.549331 11.5474C0.609451 11.4883 0.644166 11.4087 0.64628 11.325C0.64406 11.2414 0.6093 11.1619 0.54919 11.1028C0.489081 11.0438 0.408223 11.0098 0.323348 11.0078C0.0861429 11.0078 0 10.7746 0 10.1607C0 9.50492 0.0861429 9.31393 0.366211 9.29303C0.732422 9.27172 0.732422 9.25082 0.366211 9.18729C0.0216397 9.10246 0 8.72131 0 4.55123V0ZM59.8476 39.3734C60.3433 39.3734 60.8169 39.4791 60.9034 39.6061C61.0108 39.7332 60.9246 39.9238 60.7524 40.0295C60.5801 40.1143 60.3433 40.1143 60.2139 40.0086C60.0844 39.9025 59.8905 39.8602 59.7831 39.9238C59.6537 39.9873 59.4165 39.8816 59.2442 39.7123C58.9642 39.4156 59.0291 39.3734 59.8476 39.3734ZM40.8246 39.6488C41.0186 39.6697 41.2558 39.8393 41.3631 40.0086C41.4713 40.1779 41.5787 40.9611 41.5787 43.1836H42.225C42.7206 43.1836 42.8713 43.0992 42.8713 42.7602C42.8713 42.5275 43.0435 42.2734 43.2375 42.2098C43.453 42.1254 43.8409 42.1254 44.0993 42.2098C44.401 42.2947 44.595 42.5061 44.595 42.7602C44.595 43.1201 44.7456 43.1836 45.6074 43.2262C46.6416 43.2898 46.6416 43.2898 47.2662 44.5598C47.7835 45.5971 47.8909 46.1049 47.8909 47.3115C47.8909 48.116 47.7835 49.0475 47.3956 49.9578L39.1014 49.8516L38.8642 48.8992C38.7135 48.3701 38.4551 47.6713 38.2607 47.3115C38.0027 46.8246 38.0027 46.634 38.1967 46.5283C38.3902 46.4225 38.3473 46.2742 38.024 45.9357C37.6149 45.5123 37.6149 45.4701 37.9811 44.7504C38.1962 44.3479 38.3473 43.8824 38.3473 43.7131C38.3473 43.5434 38.4334 43.4377 38.5629 43.5012C38.6702 43.5648 38.8209 43.5225 38.8858 43.3955C38.9503 43.2684 39.1875 43.1836 39.4243 43.1836C39.7693 43.1836 39.8554 43.0357 39.8554 42.443C39.8554 42.0406 39.9416 41.702 40.0706 41.702C40.1788 41.702 40.3294 41.4266 40.3939 41.0668C40.4584 40.707 40.5879 40.4742 40.7169 40.5377C40.8251 40.6012 40.9757 40.4742 41.0402 40.2623C41.1047 40.0721 41.1047 39.8607 41.0402 39.7967C40.9757 39.7332 40.9324 39.818 40.9324 39.9451C40.9324 40.093 40.7385 40.1992 40.5229 40.1566C40.2358 40.1283 40.1642 40.0295 40.3078 39.8602C40.4156 39.7332 40.6524 39.6488 40.8246 39.6488ZM18.8719 42.3369C18.9152 42.3369 19.2169 42.5275 19.5399 42.7602C19.9277 43.0357 20.6169 43.2471 21.4358 43.3107C22.4267 43.3955 22.9007 43.332 23.5041 43.0357C23.9348 42.8238 24.2577 42.718 24.2149 42.8029C24.1716 42.9086 24.2577 42.9508 24.3872 42.9299C24.5378 42.9299 24.8395 42.9721 25.0334 43.0357C25.249 43.1201 25.4213 43.332 25.4213 43.5012C25.4213 43.7131 25.6364 43.8189 26.0676 43.8189C26.4121 43.8189 26.8645 43.9668 27.0372 44.1365C27.2095 44.3057 27.3601 44.5807 27.3601 44.7078C27.3601 44.8561 27.7263 44.5598 29.0405 43.0779L29.8162 43.4377C30.247 43.6496 31.0227 43.8824 31.5612 43.9668C32.0997 44.0729 32.5308 44.2 32.5308 44.2844C32.5308 44.3902 33.0476 44.4537 33.6506 44.4537C34.4696 44.4537 35.051 44.6234 35.6973 44.9832C36.3007 45.3217 36.6236 45.6607 36.6236 45.9357C36.6236 46.1684 36.7747 46.4012 36.947 46.4648C37.2054 46.5496 37.2699 46.9516 37.2699 49.9578H26.9298V49.4709C26.9298 49.2168 26.8437 48.857 26.7359 48.6877C26.6069 48.4971 26.4126 48.4336 26.197 48.518C26.0035 48.6242 25.8096 48.9627 25.6369 49.9578H21.3285C17.4504 49.9578 16.998 49.9152 16.8257 49.5766C16.718 49.3861 16.5673 48.4123 16.4812 47.4176C16.3734 45.8508 16.4167 45.4701 16.8474 44.3902C17.1274 43.7131 17.4292 43.2471 17.5369 43.332C17.6659 43.4377 17.6659 43.3955 17.5369 43.2049C17.4075 43.0213 17.4504 42.8664 17.6659 42.7393C17.8382 42.6332 18.0754 42.5488 18.2044 42.5488C18.3126 42.5488 18.2694 42.6545 18.0971 42.7602C17.9244 42.8664 17.8599 42.9721 17.9889 42.9721C18.0971 42.993 18.3339 42.8451 18.5061 42.6545C18.6568 42.4852 18.8291 42.3369 18.8719 42.3369Z" fill="#FBFBFB"/>
<path fill-rule="evenodd" clip-rule="evenodd" d="M3.51131 0H17.0195L16.9113 1.22787C16.8494 1.8216 16.7776 2.4143 16.6962 3.00574C16.6312 3.34467 16.265 4.02213 15.8772 4.55123C15.3603 5.2709 14.7785 5.71516 13.4643 6.35041C11.9995 7.09139 11.5255 7.21844 10.233 7.26066C8.87589 7.28197 8.55254 7.21844 7.00155 6.45656C5.55793 5.73689 5.1705 5.44016 4.50258 4.44549C3.77015 3.4082 3.6836 3.11189 3.59745 1.62992L3.51131 0ZM25.3566 0.0213115H39.209L39.1008 1.01598C38.9934 1.90533 39.0579 2.18033 39.7475 3.30246C40.1782 4.00082 40.7816 4.78402 41.1045 5.03811C41.4279 5.31311 41.837 5.65205 42.0097 5.82131C42.182 5.99057 42.9144 6.24467 43.6252 6.37172C44.3364 6.49877 45.2627 6.79508 45.6718 6.98566C46.0813 7.19713 46.5765 7.53607 46.7492 7.74795C46.9215 7.95943 47.1366 8.46721 47.2232 8.89057C47.3093 9.29303 47.5678 10.309 47.7829 11.1348C48.0201 11.9389 48.3218 13.4422 48.4941 14.4791C48.6664 15.5799 48.9032 16.4053 49.0759 16.448C49.2265 16.4902 49.3343 16.8926 49.3343 17.4643C49.3343 18.0992 49.4421 18.4168 49.6144 18.4168C49.8083 18.4168 49.8512 19.2209 49.7434 22.0787C49.6572 24.3439 49.485 25.9951 49.3127 26.4393C49.1404 26.8418 48.7097 27.3287 48.3218 27.5615C47.934 27.7729 47.6539 28.0484 47.7184 28.1541C47.7829 28.2811 47.5894 28.4717 47.2877 28.5775C46.986 28.7045 46.7492 28.8951 46.7492 29.0008C46.7492 29.1279 46.4475 29.5299 46.0813 29.9111C45.7151 30.2922 45.3056 30.7578 45.1549 30.9484C45.0255 31.1389 44.2931 31.7529 43.5174 32.3242C42.7421 32.8959 41.837 33.4885 41.4924 33.6578C41.1478 33.8484 40.4366 33.9754 39.8765 33.9332C39.1724 33.9063 38.4686 33.8711 37.7654 33.8275C36.9468 33.7848 36.6451 33.7004 36.7312 33.5098C36.7962 33.3615 36.7312 33.2344 36.5806 33.2135H36.0421C35.891 33.2344 35.8049 33.15 35.8698 33.0229C35.9343 32.9172 35.8698 32.8111 35.7188 32.8111C35.5681 32.8111 35.6759 32.6631 35.9772 32.4934C36.2789 32.3455 36.6451 32.1971 36.7962 32.1971C36.9468 32.1971 36.9897 32.3033 36.9035 32.4512C36.8174 32.5996 36.9252 32.5783 37.1624 32.3877C37.3775 32.2184 38.0026 31.9643 38.5411 31.8373C39.1012 31.7102 39.6613 31.6258 39.812 31.6893C39.9626 31.7316 40.0704 31.668 40.0704 31.541C40.0704 31.4352 40.286 31.393 40.5661 31.4775C40.8245 31.541 41.3418 31.4775 41.6863 31.3295C42.0525 31.1811 42.5482 30.9061 42.8066 30.7156C43.0867 30.5463 43.3022 30.3131 43.3022 30.2287C43.3022 30.1439 43.7762 29.6148 44.3576 29.0643C44.9394 28.5139 45.6718 27.9004 45.9735 27.6885C46.2752 27.4766 46.5336 27.1803 46.5336 26.9898C46.5336 26.8205 46.7276 26.6299 46.9643 26.5664C47.2015 26.5242 47.3955 26.3758 47.3955 26.2488C47.3953 26.1926 47.3724 26.1388 47.332 26.0992C47.2916 26.0595 47.2369 26.0373 47.1799 26.0373C47.1228 26.0373 47.068 26.015 47.0276 25.9753C46.9872 25.9355 46.9645 25.8816 46.9643 25.8254C46.9643 25.7197 47.1583 25.6139 47.3955 25.6139C47.6323 25.6139 47.934 25.4234 48.0418 25.1906C48.1708 24.9787 48.2569 24.5131 48.2569 24.1955C48.2569 23.8783 48.1708 23.4971 48.0418 23.3701C47.934 23.2217 47.7829 22.2266 47.74 21.1471C47.6755 20.0467 47.5461 18.6918 47.4383 18.0992C47.3093 17.5275 47.1583 16.0881 47.0721 14.9238C46.986 13.7598 46.7492 12.1082 46.512 11.2193C46.2536 10.2668 45.909 9.46229 45.6289 9.18729C45.3489 8.9332 44.7671 8.53074 44.3364 8.29795C43.8836 8.04385 43.4096 7.85369 43.259 7.87459C43.1083 7.8959 42.785 7.83238 42.5482 7.74754C42.311 7.66311 41.8158 7.45123 41.4279 7.28197C41.04 7.13361 40.7167 6.90082 40.7167 6.77377C40.7167 6.66803 40.6093 6.60451 40.4587 6.62582C40.3076 6.64672 39.8769 6.43525 39.4891 6.13893C39.1228 5.86352 38.864 5.525 38.9073 5.39795C38.9718 5.29221 38.5194 4.78402 37.9377 4.29713C37.1836 3.6832 36.6235 3.3873 36.1499 3.36598C35.6755 3.35164 35.6039 3.31639 35.9343 3.25984C36.1927 3.21762 36.4083 3.09057 36.4083 2.96352C36.4083 2.85779 36.1499 2.81557 35.8265 2.9C35.5036 2.96352 34.8785 3.04836 34.4695 3.06926C34.06 3.11189 33.4782 3.19631 33.1769 3.28115C32.6813 3.4082 32.6813 3.45041 33.0258 3.6832C33.3704 3.89508 33.1981 4.02213 31.69 4.7627C30.139 5.525 29.9451 5.69426 29.9451 6.20246C29.9451 6.56229 29.8161 6.8377 29.5789 6.92213C29.3417 7.00656 29.1694 6.96434 29.1482 6.81639C29.1049 6.64672 28.9759 6.68934 28.717 6.92213C28.459 7.15492 28.1136 7.21844 27.64 7.13361C27.1448 7.02787 26.6492 7.13361 26.0241 7.45123C25.5073 7.68402 24.8394 8.1709 24.5164 8.50984C24.0853 8.9332 23.7191 9.10246 23.2235 9.10246C22.836 9.10246 22.233 9.25082 21.8664 9.42008C21.2846 9.69508 21.1985 9.84344 21.0695 11.05C20.9829 11.791 20.8968 12.4893 20.8968 12.5951C20.8968 12.7221 20.9829 16.1516 21.2201 27.6037L21.9309 27.8791C22.3188 28.027 22.836 28.1541 23.1161 28.1541C23.3741 28.1541 23.7195 28.2598 23.8697 28.4295C23.9992 28.5775 24.0637 28.768 23.9779 28.8525C23.8914 28.9373 23.9559 29.1492 24.1286 29.3393C24.3009 29.509 24.5377 29.657 24.6238 29.657C24.7099 29.657 24.7099 29.5299 24.6238 29.382C24.5377 29.2336 24.5593 29.1701 24.6671 29.2336C24.7961 29.3184 25.3779 29.5725 25.9596 29.8475C26.7566 30.2074 27.2738 30.2922 27.8989 30.2074C28.389 30.1415 28.8775 30.0639 29.3637 29.9746C29.7945 29.8898 29.9451 29.9324 29.9451 30.1652C29.9451 30.3557 29.8161 30.4402 29.6222 30.3766C29.4495 30.3344 29.1049 30.3766 28.8681 30.4828C28.581 30.6238 28.4728 30.6238 28.5448 30.4828C28.6097 30.3766 28.588 30.2709 28.5019 30.2709C28.4157 30.2709 28.2218 30.4615 28.0708 30.6943C27.8985 30.9697 27.2306 31.2869 26.3475 31.541C25.5501 31.7738 24.7099 31.9643 24.5164 31.9643C24.3009 31.9643 24.1286 31.8799 24.1286 31.7529C24.1286 31.6471 23.8269 31.541 23.439 31.541C23.0512 31.541 22.2971 31.3295 21.7803 31.0754C21.0478 30.7156 20.7245 30.3766 20.4232 29.6996C20.0998 28.9373 20.0137 27.7094 19.7981 21.4439C19.6042 15.0721 19.5181 13.9713 19.1735 13.2303C18.9579 12.7648 18.7211 12.1934 18.6566 11.9598C18.5701 11.7275 18.5917 11.1557 18.6995 10.6902C18.8073 10.2033 19.2164 9.44098 19.6904 8.89098C20.1427 8.38279 20.7678 7.83238 21.0907 7.68402C21.3924 7.53607 22.082 7.40902 22.6205 7.42992C23.2451 7.42992 23.6975 7.32418 23.8697 7.1127C24.0208 6.92213 24.0853 6.68934 24.0208 6.56229C23.9559 6.45656 24.1931 6.24467 24.5593 6.09672C24.9039 5.94836 25.335 5.525 25.5289 5.14385C25.7012 4.7627 26.0029 4.44549 26.1752 4.44549C26.3475 4.44549 26.5414 4.31844 26.6059 4.12787C26.6704 3.95861 26.5414 3.6832 26.3475 3.51393C26.1319 3.36598 25.8951 2.81557 25.809 2.30738C25.7229 1.79918 25.5934 1.07951 25.5073 0.698361L25.3566 0.0213115ZM47.5028 0.0213115H60.9678L60.86 1.12213C60.7987 1.70815 60.7341 2.29381 60.666 2.8791C60.6232 3.21762 60.2998 3.93729 59.912 4.46639C59.4813 5.08033 58.7489 5.71557 57.8009 6.26557C56.3789 7.09139 56.2927 7.1127 54.2894 7.1127C52.4151 7.1127 52.135 7.04918 50.9069 6.41393C49.959 5.94836 49.291 5.39795 48.688 4.61475C47.8907 3.59836 47.8046 3.36598 47.6539 1.75697L47.5028 0.0213115ZM0.344832 11.0287C0.516702 11.0287 0.667764 11.177 0.667764 11.3463C0.6685 11.3883 0.660632 11.43 0.644632 11.4689C0.628633 11.5078 0.604829 11.5432 0.574644 11.5728C0.544459 11.6025 0.508513 11.6258 0.468955 11.6415C0.429398 11.6571 0.38704 11.6648 0.344416 11.6639C0.150491 11.6639 0.0214844 11.5369 0.0214844 11.3463C0.0214844 11.177 0.150907 11.0287 0.344832 11.0287ZM23.1161 36.452C23.2022 36.452 23.3312 36.5791 23.3962 36.7484C23.4607 36.9816 23.3312 37.066 22.965 37.066C22.6633 37.066 22.4049 36.9816 22.3833 36.8754C22.3404 36.7697 22.4698 36.6426 22.6421 36.5791C22.8144 36.5156 23.0295 36.4734 23.1161 36.452ZM24.5809 37.7012C24.6887 37.7012 25.0333 37.9975 25.335 38.3365C25.6151 38.6959 25.8519 39.0984 25.8519 39.2463C25.8519 39.3947 26.1536 39.6488 26.5198 39.818C26.886 40.0086 27.1661 40.3049 27.1661 40.5164C27.1661 40.7283 27.2522 40.8762 27.3816 40.8762C27.4894 40.8762 27.7478 41.0246 27.9418 41.1939C28.179 41.3844 28.2863 41.7865 28.2647 42.3582C28.243 42.993 28.308 43.2049 28.5664 43.2049C28.782 43.2049 28.6742 43.4799 28.1785 44.073C27.7478 44.6234 27.4461 44.8348 27.3816 44.6656C27.3383 44.4963 27.1661 44.2635 27.0154 44.1152C26.8643 43.9668 26.4336 43.8402 26.0891 43.8402C25.6579 43.8402 25.4428 43.734 25.4428 43.5225C25.4428 43.3533 25.2701 43.1627 25.0549 43.0779C24.8394 42.993 24.5805 42.9508 24.4732 42.9721C24.3296 42.9861 24.3296 42.7111 24.4732 42.1463C24.6167 41.5959 24.6167 41.1303 24.4732 40.7492C24.3441 40.432 23.9992 40.0508 23.7191 39.9025C23.4174 39.7545 22.7282 39.5213 22.211 39.352C21.4785 39.1619 21.2413 38.9922 21.2413 38.6537C21.2413 38.3152 21.3924 38.2303 22.1465 38.1881C22.6417 38.1668 23.3529 38.2725 23.7195 38.4422C24.3437 38.7594 24.3654 38.7594 24.3654 38.2303C24.3654 37.9553 24.4515 37.7012 24.5809 37.7012ZM39.5536 38.2303C39.812 38.2303 40.0059 38.3152 39.9631 38.3996C39.8981 38.4844 39.5536 38.548 39.1657 38.548C38.735 38.548 38.5839 38.4844 38.7779 38.3996C38.9289 38.3152 39.2951 38.2303 39.5536 38.2303ZM19.5397 39.077C19.5826 39.4369 19.5181 39.8393 19.4107 39.9873C19.2596 40.1566 19.0229 40.1988 18.7428 40.093C18.5056 40.0086 18.3549 39.818 18.4194 39.6697C18.4839 39.5217 18.5484 39.2885 18.5484 39.1406C18.5484 38.9922 18.7428 38.7807 18.9796 38.6537C19.3891 38.4631 19.4536 38.5053 19.5397 39.077ZM42.9789 38.5266C43.1083 38.6537 43.2806 38.6959 43.3667 38.6115C43.4745 38.5266 43.539 38.5266 43.539 38.6115C43.539 38.6959 43.3451 38.8656 43.1083 38.9713C42.7421 39.1619 42.6772 39.1193 42.7205 38.7385C42.7633 38.4209 42.8282 38.3574 42.9789 38.5266ZM16.7823 38.7807C17.0836 38.7807 17.1052 38.8865 16.9329 39.6275C16.8039 40.093 16.6529 40.4742 16.61 40.4742C16.5451 40.4742 16.4161 40.1779 16.3295 39.8389C16.2434 39.4791 16.2222 39.0984 16.2867 38.9713C16.3512 38.8656 16.5672 38.7807 16.7823 38.7807ZM38.5627 38.8443L38.5839 41.0246C38.5839 42.3369 38.6701 43.2049 38.7995 43.2049C38.9073 43.2049 38.9501 43.3107 38.9073 43.4168C38.8428 43.5434 38.6917 43.5861 38.5839 43.5225C38.4549 43.4799 38.3688 43.5648 38.3688 43.734C38.3688 43.9246 38.1961 44.3902 37.9809 44.7926C37.6147 45.5123 37.6147 45.5336 38.0454 45.9779C38.3471 46.2955 38.39 46.4648 38.1961 46.5709C38.0026 46.6766 38.0238 46.8672 38.2826 47.3328C38.4766 47.6926 38.735 48.4336 39.1228 49.9787H37.2918V48.2852C37.2918 46.9729 37.2052 46.5709 36.9684 46.4861C36.7745 46.4439 36.6451 46.1898 36.6451 45.957C36.6451 45.7029 36.3222 45.3639 35.7188 45.0254C35.0725 44.6443 34.4911 44.4963 33.6721 44.4963C33.0475 44.4963 32.5519 44.4115 32.5519 44.3266C32.5519 44.2422 32.0779 44.0939 31.5177 44.0094C30.9576 43.9033 30.2468 43.6918 29.9667 43.5225C29.4495 43.2471 29.536 43.2262 31.087 43.2262C32.4229 43.2262 32.7674 43.1627 32.7674 42.8873C32.7674 42.6545 32.8752 42.6758 33.2414 43.0143C33.6293 43.3533 33.8877 43.4377 34.4907 43.332C34.9002 43.2471 35.6975 43.2049 37.2914 43.2049L37.2485 41.4057C37.2269 40.4107 37.1403 39.4156 37.0113 39.1828C36.839 38.8016 36.9035 38.7807 38.5627 38.8443ZM14.7357 38.8656L14.9296 39.6061C15.0158 40.0295 15.2958 41.0033 15.533 41.7865C15.9421 43.1414 15.985 43.2049 16.6096 43.2049C16.9546 43.2049 17.2563 43.3107 17.2563 43.4168C17.2563 43.5434 17.0407 44.0938 16.8035 44.6443C16.4161 45.5123 16.3728 45.9143 16.5022 47.4385C16.5667 48.4336 16.7174 49.4074 16.8252 49.6189C17.0191 49.9578 16.8901 49.9787 13.5938 49.9787V49.3439C13.5938 48.9205 13.3998 48.5607 12.9904 48.243C12.601 47.9069 12.2272 47.5537 11.8701 47.1844C11.4177 46.6975 11.1377 46.5918 10.2546 46.5918C9.28496 46.5918 9.02653 46.6975 8.05732 47.502C7.06606 48.2852 6.93663 48.4971 6.91541 49.9787H5.19172C3.64073 49.9787 3.46845 49.9578 3.55459 49.6189C3.61909 49.4074 3.79179 48.0102 3.96366 46.4861C4.11473 44.9832 4.30865 43.6283 4.39479 43.4799C4.48094 43.332 4.82551 43.2049 5.19172 43.2049C5.70899 43.2049 5.85964 43.0992 6.05315 42.5697C6.24749 41.9771 6.31199 41.9348 7.45391 41.9348C8.57418 41.9348 8.63868 41.9771 8.85425 42.5697C9.02653 43.1201 9.17718 43.2049 9.82388 43.2049C10.4269 43.2049 10.5563 43.1414 10.4481 42.8451C10.3624 42.6332 10.039 41.7443 9.69445 40.834C9.32824 39.8816 9.17718 39.2463 9.32824 39.3311C9.47889 39.4156 9.93166 39.5004 11.0732 39.5004L11.6333 41.3631C12.1718 43.2049 12.1934 43.2262 12.883 43.2262C13.5721 43.2262 13.5938 43.1627 14.0033 41.7865C14.2401 41.0033 14.4985 40.0295 14.5846 39.6061L14.7357 38.8656ZM12.9691 39.0557C13.4643 39.077 13.486 39.1193 13.2704 39.8602C13.1414 40.2836 12.9691 40.5799 12.8613 40.4955C12.7531 40.432 12.7103 40.1566 12.7531 39.9025C12.7964 39.6484 12.7531 39.5004 12.6674 39.5426C12.5813 39.5852 12.4951 39.4791 12.4735 39.3311C12.4735 39.1406 12.6458 39.0348 12.9687 39.0557H12.9691ZM45.9735 39.0348L47.1366 39.077L47.1799 43.2049H47.9985C48.4508 43.2049 49.1404 43.2684 49.5499 43.332C50.0667 43.4164 50.4762 43.3533 50.7992 43.1201C51.0576 42.9508 51.4454 42.4852 51.6394 42.1041C51.8333 41.7229 51.9411 41.0881 51.8978 40.6434C51.8549 40.1143 51.8978 39.9025 52.0917 39.966C52.2428 40.0086 52.3718 40.4107 52.3718 40.9398C52.3718 41.4693 52.5441 42.1254 52.8029 42.5275C53.0397 42.9299 53.4704 43.2684 53.8154 43.3533C54.1816 43.4377 54.6768 43.3533 55.108 43.1414C55.4958 42.9508 55.7971 42.8873 55.7971 42.993C55.7971 43.1201 56.0988 43.2049 56.4434 43.2049C57.0897 43.2049 57.0897 43.2049 57.0897 42.1041C57.0897 41.3631 57.1974 40.8975 57.413 40.6648C57.6069 40.4955 57.7576 40.2627 57.7364 40.1357C57.7364 40.0295 57.887 39.7967 58.1026 39.6061C58.4039 39.352 58.4255 39.352 58.2749 39.6061C58.1026 39.8393 58.1671 39.8816 58.5549 39.7545C58.8134 39.691 59.1579 39.691 59.309 39.7967C59.4596 39.9025 59.9336 39.9873 60.3643 39.966C60.7955 39.9451 61.1184 40.0086 61.0539 40.093C61.0106 40.1779 60.86 40.2414 60.7093 40.2201C60.5583 40.1988 60.0198 40.2414 59.5241 40.3258C58.9211 40.4107 58.49 40.6225 58.2749 40.9398C58.1026 41.1939 57.9515 41.6594 57.9515 41.9348C57.9515 42.2311 58.1454 42.6967 58.3826 42.9508C58.6194 43.2049 59.0718 43.4168 59.3519 43.4168C59.6536 43.4168 60.1921 43.2898 60.5366 43.0992C61.0323 42.8664 61.2046 42.8451 61.2262 43.0566C61.2262 43.2049 61.2262 43.5012 61.2046 43.734C61.1829 43.9668 61.0106 44.3057 60.86 44.475C60.6444 44.7078 60.5583 45.4066 60.5583 46.8672C60.5583 48.0102 60.6444 49.1746 60.9678 49.9787H57.5208V49.132C57.5208 48.3701 57.4347 48.2217 56.4005 47.4385C55.4742 46.7402 55.108 46.5918 54.2894 46.5918C53.4921 46.5918 53.1258 46.7402 52.1995 47.4385C51.1654 48.2217 51.0576 48.3701 51.0576 49.9787H47.5028L47.8046 48.8779C47.9556 48.2643 48.0201 47.3328 47.9556 46.8037C47.8907 46.2955 47.5894 45.3004 47.2444 44.6021C46.9215 43.9033 46.512 43.3107 46.3181 43.2684C46.0596 43.2049 45.9951 42.7816 45.9951 41.1094L45.9735 39.0348ZM34.7924 39.5217C35.4387 39.5217 35.6759 39.6061 35.7188 39.8816C35.762 40.1779 35.611 40.2627 35.008 40.2627C34.5985 40.2627 33.9738 40.3898 33.6076 40.5799C33.4123 40.6719 33.2397 40.8049 33.1019 40.9695C32.9642 41.1341 32.8647 41.3263 32.8103 41.5328C32.638 42.1676 32.638 42.1676 31.1948 42.1676C30.0529 42.1676 29.7299 42.1041 29.7299 41.85C29.7299 41.6594 29.9235 41.3631 30.139 41.1516C30.3546 40.9611 30.7424 40.6648 31.0005 40.5164C31.2593 40.3684 31.6471 40.2623 31.8839 40.2623C32.1211 40.2623 32.4228 40.1143 32.5302 39.966C32.6596 39.7967 33.0258 39.6275 33.3492 39.5848C33.6721 39.5426 34.3188 39.5217 34.7924 39.5217ZM40.6955 39.691C41.2556 39.7332 41.2989 39.7754 41.0829 40.1992C40.9323 40.4533 40.76 40.6221 40.6738 40.559C40.5877 40.5164 40.4583 40.7496 40.3938 41.1094C40.3505 41.4479 40.1998 41.7443 40.0704 41.7443C39.9631 41.7443 39.8553 41.3209 39.8332 40.8127C39.8124 40.3258 39.8553 39.8602 39.9414 39.7967C40.0276 39.7332 40.3721 39.691 40.6955 39.691ZM43.8407 39.6697C44.487 39.7332 44.487 39.7545 44.6164 42.2734H42.8711L42.8499 41.0881C42.8282 40.432 42.8927 39.8393 43.0005 39.7545C43.1083 39.6697 43.4745 39.6275 43.8407 39.6697ZM18.6995 40.2627C18.7211 40.2627 18.6995 40.3471 18.635 40.4742C18.563 40.6152 18.6708 40.6152 18.9579 40.4742C19.2813 40.3049 19.4103 40.3258 19.4103 40.5164C19.4319 40.7283 19.4536 40.7283 19.5185 40.5164C19.5613 40.3684 19.7553 40.2623 19.9276 40.2623C20.1427 40.2623 20.2076 40.3893 20.1427 40.6225C20.057 40.8766 20.0928 40.9328 20.2509 40.7918C20.3945 40.6504 20.8468 40.6717 21.6076 40.8553C22.2326 41.0033 22.8144 41.1725 22.9005 41.2152C22.9867 41.2787 23.0512 41.4479 23.0512 41.6385C23.0512 41.8078 22.9434 42.0197 22.7927 42.1041C22.6421 42.1889 22.5772 42.1676 22.6637 42.0619C22.7495 41.9348 22.5555 41.85 22.211 41.85C21.8235 41.85 21.6296 41.9348 21.6941 42.1041C21.7586 42.316 21.608 42.316 21.0695 42.1676C20.6816 42.0406 20.2721 41.85 20.1427 41.7229C20.0353 41.6172 19.8198 41.5115 19.6691 41.5328C19.5181 41.5328 19.3891 41.7656 19.3891 42.0619C19.3891 42.3369 19.3029 42.5275 19.1735 42.4852C19.0657 42.4217 18.7856 42.5275 18.5917 42.6967C18.3762 42.8664 18.0316 42.9721 17.8377 42.9086C17.4714 42.8029 17.4714 42.7393 17.7948 41.6807C17.9887 41.0668 18.2688 40.4955 18.3982 40.4107C18.5272 40.3258 18.6562 40.2627 18.6995 40.2627ZM26.3904 48.518C26.5843 48.518 26.7782 48.6451 26.8215 48.8357C26.886 49.0049 26.9293 49.3439 26.9293 49.5766C26.9293 49.8943 26.7998 50 26.283 50C25.938 50 25.6579 49.8943 25.6579 49.7881C25.7149 49.5373 25.7869 49.29 25.8735 49.0475C25.9813 48.7512 26.2181 48.518 26.3904 48.518Z" fill="#FAFAFA"/>
<path d="M29.9027 5.69403L31.5831 4.86862C32.5311 4.42394 33.3496 4.0428 33.4574 4.02148C33.5436 4.02148 33.6081 10.6473 33.6081 33.4461L31.8848 32.5994C30.3334 31.8371 30.1611 31.6887 30.075 31.0539C30.0104 30.694 29.9672 24.8305 29.9027 5.69403ZM24.6892 8.12845L25.6371 7.68378C26.1756 7.42968 26.6713 7.21821 26.7786 7.21821C26.8648 7.19689 26.9297 12.3412 26.9297 18.628C26.9297 24.9149 26.8864 30.0588 26.8219 30.0588C26.7574 30.0588 26.2834 29.8473 24.7753 29.1063L24.6892 8.12845ZM21.2422 9.82189L21.9746 9.48337L22.7287 9.16575L22.7715 18.6067C22.8148 23.7932 22.7715 28.069 22.7287 28.1112C22.6642 28.1326 22.3408 28.0055 21.3283 27.5186L21.2422 9.82189ZM43.0871 13.4416C43.4317 13.378 43.6689 13.2301 43.6044 13.1239C43.5182 12.9969 43.5182 12.9125 43.6044 12.9125C43.6689 12.9125 43.8844 12.9547 44.0996 13.0395C44.4446 13.1453 44.4658 13.6108 44.3584 24.6608L42.4408 24.1321V22.269C42.4408 20.5121 42.4841 20.385 43.0871 19.7289C43.4317 19.3477 43.7117 18.9244 43.7117 18.776C43.7117 18.628 43.4104 18.2047 43.0655 17.8235C42.4625 17.1674 42.4408 17.0403 42.4408 13.5473L43.0871 13.4416ZM37.5935 14.0768L38.3476 13.9285C38.7571 13.8649 39.1661 13.8014 39.2523 13.7805C39.3384 13.7592 39.425 16.003 39.425 23.8141L38.7138 23.6448C38.3259 23.56 37.8952 23.4756 37.7442 23.4756C37.529 23.4969 37.4862 22.4383 37.5935 14.0768Z" fill="#9E4F2E"/>
<path d="M33.6082 33.0229L33.5865 18.7552V4.46631L34.0817 4.57246C34.3622 4.61467 34.6419 4.78393 34.7284 4.93229C34.8146 5.05934 34.9436 5.52492 35.0085 5.92696C35.0947 6.32942 35.2237 6.81631 35.3098 6.98557C35.418 7.15483 35.5686 7.91713 35.6548 8.67901C35.7409 9.44131 35.8487 10.3511 35.8699 10.6901C35.8916 11.0286 36.1288 11.8753 36.3656 12.5528C36.624 13.2089 36.9473 14.6909 37.0551 15.8126C37.1841 16.9561 37.3352 18.0778 37.3997 18.3106C37.4426 18.5434 37.3136 19.8557 37.0551 21.2319C36.8179 22.5868 36.4301 24.2167 36.1716 24.8098C35.9132 25.4655 35.6764 26.7569 35.5682 27.9425C35.4609 29.3819 35.3102 30.0593 35.0514 30.313C34.8362 30.5249 34.6852 31.0331 34.6852 31.4774C34.6635 32.0913 34.5345 32.3671 33.6082 33.0229ZM26.9082 30.0802L26.8649 18.7975L26.822 7.51467L27.3605 7.47246C27.6406 7.45114 28.3302 7.55688 29.8162 8.00155L29.9244 29.6573H29.45C29.1699 29.6782 28.7609 29.7204 28.5237 29.7417C28.2865 29.7839 27.8345 29.8688 26.9082 30.0802ZM22.8362 18.1626C22.8149 13.6536 22.8794 9.82246 22.9443 9.65278C23.0089 9.48352 23.1595 9.33516 23.2673 9.33516C23.3751 9.33516 23.7625 9.48352 24.7538 9.97041L24.646 27.8577L23.8919 27.9212C23.1811 27.9848 23.1379 27.9425 22.9872 27.1802C22.9011 26.7356 22.8362 22.6712 22.8362 18.1626ZM39.5325 22.8196C39.4892 23.0315 39.4463 21.1475 39.4463 18.6495C39.4463 16.1516 39.4892 14.1827 39.5325 14.3098C39.5753 14.4159 40.1787 15.0929 40.8683 15.7917C41.5362 16.4901 42.1609 17.0405 42.2037 17.0196C42.2686 16.9983 42.3331 17.104 42.3548 17.2311C42.3977 17.3794 42.4626 17.9507 42.5487 18.5434C42.6777 19.5598 42.6349 19.6442 41.6436 20.9778C40.9544 21.8671 40.416 22.3753 40.1142 22.3962C39.8342 22.4384 39.597 22.629 39.5325 22.8196Z" fill="#F2842E"/>
<path d="M34.297 3.1331C34.7493 3.154 35.2666 3.09048 35.3956 2.96343C35.5462 2.85769 35.8263 2.75195 36.0202 2.75195C36.2358 2.75195 36.4081 2.83638 36.4081 2.96343C36.4081 3.06958 36.1929 3.21753 35.9129 3.25974C35.5966 3.30236 35.6686 3.33761 36.128 3.36589C36.6232 3.38679 37.1838 3.6622 37.9162 4.27572C38.5196 4.78392 38.972 5.27081 38.9071 5.39785C38.8426 5.504 39.1226 5.84253 39.4888 6.13884C39.8767 6.41384 40.3074 6.64703 40.4368 6.60441C40.5875 6.58351 40.7169 6.66794 40.7169 6.77408C40.7169 6.87982 41.0398 7.11261 41.4065 7.28228C41.7939 7.45113 42.3112 7.64171 42.548 7.74785C42.7706 7.82185 43.0028 7.86461 43.2375 7.8749C43.3882 7.85359 43.8838 8.04417 44.3145 8.27654C44.7669 8.53064 45.3486 8.9331 45.6071 9.1872C45.8871 9.41999 46.1027 9.6954 46.1027 9.77982C46.1027 9.88556 43.3665 8.59458 40.0061 6.96425C36.6665 5.31343 33.8875 3.9163 33.823 3.83146C33.7585 3.76794 33.5858 3.70441 33.4351 3.70441C33.3061 3.70441 33.0906 3.6831 32.9828 3.64089C32.875 3.61999 32.9395 3.49294 33.1118 3.34458C33.2845 3.21753 33.823 3.11179 34.297 3.1331ZM28.5878 7.40892C28.2216 7.40892 28.2216 7.38761 28.5662 7.00687C28.8034 6.75277 28.9757 6.68925 29.0835 6.85851C29.1912 6.98556 29.4064 7.02777 29.6003 6.92203C29.8592 6.8163 29.9453 6.87982 29.9453 7.19744C29.9453 7.53597 29.8371 7.59949 29.4497 7.51466C29.1669 7.4508 28.8779 7.41537 28.5878 7.40892ZM24.2366 9.10236C24.1716 8.99662 24.1716 8.78474 24.2366 8.679C24.3223 8.57326 24.4517 8.46753 24.5595 8.46753C24.6885 8.46753 24.7746 8.65769 24.7746 8.89089C24.7746 9.12367 24.6669 9.31425 24.5595 9.31425C24.4301 9.31425 24.3007 9.2081 24.2361 9.10236H24.2366ZM46.4473 27.0532C46.4044 27.2438 46.3611 23.645 46.3611 19.0515C46.3611 11.9815 46.4044 10.8384 46.62 11.6425C46.7706 12.172 46.9645 13.5901 47.0507 14.8179C47.1368 16.0458 47.3091 17.5274 47.4385 18.0991C47.5463 18.6708 47.6753 20.0675 47.7186 21.1688C47.7615 22.2692 47.9125 23.2851 48.0199 23.3913C48.1493 23.497 48.2571 23.8569 48.2571 24.1954C48.2571 24.513 48.1493 24.9577 48.0415 25.1905C47.9125 25.4233 47.6325 25.6138 47.3953 25.6138C47.1585 25.6138 46.9646 25.7196 46.9646 25.8257C46.9646 25.9315 47.0507 26.0372 47.1801 26.0372C47.2875 26.0372 47.3953 26.1429 47.3953 26.2491C47.3953 26.3548 47.2013 26.5032 46.9646 26.5663C46.7273 26.6298 46.4906 26.8417 46.4473 27.0532ZM20.9186 14.077C20.8537 13.2515 20.8325 12.4257 20.8537 12.2142C20.897 12.0237 20.9831 11.8544 21.0264 11.8544C21.0693 11.8544 21.0909 12.6798 21.0264 15.5589L20.9186 14.077ZM37.4855 13.9712V13.2302C37.4855 12.6589 37.5716 12.4892 37.8517 12.4892C38.0669 12.4892 38.7131 12.6163 39.3166 12.786C39.8983 12.9552 40.803 13.1876 42.225 13.5479V16.7233L39.5321 13.7171L37.4855 13.9712ZM39.2304 23.772C39.4243 23.7933 40.1351 23.1794 40.803 22.3962C41.4926 21.5917 42.0956 20.9569 42.1389 20.9569C42.1817 20.9569 42.225 21.6552 42.225 24.0265L40.2429 24.513C39.1443 24.7671 38.0669 24.979 37.8517 24.979C37.5716 24.979 37.5067 24.8306 37.5284 24.3015C37.5929 23.6663 37.6574 23.6028 38.2396 23.6663C38.5841 23.7085 39.0369 23.7511 39.2304 23.772ZM23.9128 28.6831C24.1929 28.8528 24.1929 28.8315 23.9128 28.5138C23.6327 28.1962 23.6548 28.154 24.1929 28.154C24.6673 28.154 24.7746 28.2388 24.7746 28.6831V29.3819C24.7746 29.4667 24.6669 29.5302 24.5374 29.5302C24.4084 29.5302 24.1284 29.297 23.9344 29.0007C23.6544 28.5774 23.6544 28.5138 23.9128 28.6831ZM36.8604 32.3876C36.9037 32.2183 38.6915 31.2024 40.8247 30.1229C42.9574 29.0433 44.7669 28.1753 44.8534 28.1753C44.9608 28.154 45.0257 28.1962 45.0257 28.2597C45.0257 28.3233 44.6379 28.7466 44.1639 29.2126C43.6899 29.6782 43.302 30.1224 43.302 30.2286C43.302 30.3134 43.0652 30.5249 42.8064 30.7155C42.548 30.8847 42.0527 31.1602 41.6865 31.3081C41.3203 31.4565 40.8247 31.52 40.5446 31.4565C40.2862 31.3929 40.0702 31.4138 40.0702 31.5409C40.0702 31.6679 39.9412 31.7106 39.7906 31.6679C39.6615 31.6257 39.0794 31.6892 38.5409 31.8372C38.0024 31.9642 37.3777 32.2183 37.1838 32.3876C36.8392 32.663 36.7959 32.663 36.8604 32.3876ZM18.8504 40.1147C19.0226 40.1778 19.2811 40.072 19.4321 39.9028C19.6261 39.6274 19.7122 39.6274 19.8412 39.8392C19.9273 39.9872 19.8845 40.2204 19.7334 40.3679C19.6044 40.495 19.4754 40.5163 19.4321 40.4106C19.4105 40.3048 19.2382 40.3048 19.001 40.4106C18.8071 40.5163 18.4841 40.5376 18.3119 40.4528C18.0746 40.3048 18.0534 40.2413 18.2469 40.1356C18.398 40.072 18.6781 40.0511 18.8504 40.1147ZM46.0382 41.1729C45.9949 41.5327 45.9521 41.3421 45.9521 40.7495C45.9521 40.1778 45.9949 39.8815 46.0382 40.1142C46.0811 40.347 46.0811 40.813 46.0382 41.1729ZM6.91519 49.1745C6.91519 48.4757 7.06626 48.2642 8.03547 47.481C9.00509 46.6765 9.26352 46.5708 10.2327 46.5708C11.1379 46.5708 11.3963 46.6552 11.8486 47.1421C12.1503 47.481 12.6672 47.9466 12.9906 48.2007C13.3784 48.5392 13.5723 48.8991 13.5723 49.9577H6.89355L6.91519 49.1745ZM51.0362 49.1319C51.0145 48.37 51.1223 48.222 52.1564 47.4384C53.0828 46.7188 53.449 46.5708 54.2676 46.5708C55.1078 46.5495 55.4311 46.6978 56.3791 47.4175C57.4132 48.1794 57.5206 48.3487 57.5206 49.9577H51.0578L51.0362 49.1319Z" fill="#F8F9F8"/>
<path fill-rule="evenodd" clip-rule="evenodd" d="M45.9955 10.055V27.4132L40.0712 30.3132C36.8181 31.9009 34.0819 33.2136 33.9746 33.2136C33.888 33.2345 33.8451 32.9804 33.8451 32.6632C33.8668 32.3243 33.9097 32.1972 33.9529 32.3456C33.9958 32.4726 34.1901 32.5571 34.362 32.4935C34.5776 32.423 34.6854 32.1054 34.6854 31.5411C34.6854 31.0329 34.836 30.5464 35.0516 30.3345C35.31 30.0595 35.4611 29.3821 35.5684 27.9423C35.6766 26.7357 35.9134 25.4657 36.1935 24.7673C36.4515 24.1321 36.8398 22.6079 37.4644 19.1575L37.4215 22.6927C37.3999 24.6189 37.4428 26.2911 37.5505 26.3972C37.6367 26.4816 39.2093 26.1431 44.38 24.6612V13.1243L41.2131 12.1509C39.4465 11.6214 37.8951 11.1558 37.7445 11.0923C37.5722 11.0288 37.486 11.2829 37.4644 11.9177C37.4644 12.4046 37.4644 14.0349 37.486 15.5591C37.5073 17.0829 37.4644 18.2681 37.3999 18.205C37.3566 18.1415 37.206 17.1255 37.0765 15.9398C36.9475 14.7333 36.6242 13.2091 36.3658 12.553C36.1286 11.8755 35.8914 11.0501 35.8705 10.6903C35.8485 10.3513 35.7411 9.44108 35.6546 8.67919C35.5684 7.9169 35.4178 7.15501 35.31 6.98575C35.2239 6.81649 35.0948 6.3296 35.0083 5.92714C34.9438 5.52509 34.8148 5.05952 34.7282 4.91116C34.6421 4.7628 34.3836 4.61485 34.1469 4.57263C33.9097 4.50911 33.6941 4.46649 33.6724 4.46649C33.6296 4.44559 33.6512 4.36075 33.6941 4.25501C33.7374 4.14927 36.5164 5.41895 45.9955 10.055ZM40.0279 14.5005C40.753 15.306 41.4711 16.1175 42.1823 16.9349C43.0441 17.93 43.7549 18.7767 43.7549 18.8398C43.7549 18.9034 43.1948 19.5173 42.5485 20.2161C41.4282 21.38 41.407 21.4013 42.01 20.5337C42.5701 19.7505 42.6779 19.4116 42.6134 18.628C42.5485 17.8665 42.3333 17.4427 41.5576 16.5329C41.0408 15.8976 40.4157 15.2415 40.1573 15.0509C39.9201 14.8603 39.6621 14.5218 39.5755 14.2886C39.4465 13.9714 39.5755 14.0345 40.0279 14.5005ZM41.3209 21.5919C41.3854 21.5919 41.0191 22.0153 40.5019 22.5444C39.9634 23.0526 39.511 23.4759 39.4894 23.4337C39.4682 23.4124 39.4894 23.1796 39.5327 22.9255C39.5972 22.6079 39.7911 22.4386 40.0712 22.4386C40.3583 22.4386 40.4519 22.3542 40.3512 22.1845C40.2364 22.0013 40.2722 21.9661 40.459 22.0788C40.6097 22.1636 40.8252 22.0788 40.9542 21.9095C41.0836 21.7403 41.2563 21.5919 41.3209 21.5919ZM22.9658 27.3706C23.0519 27.9001 23.1164 27.9423 23.8921 27.9001C24.3445 27.8579 24.689 27.9001 24.6462 28.0058C24.6029 28.0907 24.1718 28.1542 23.6982 28.1542C22.858 28.1542 22.8368 28.1329 22.858 27.4767C22.9013 26.8415 22.9013 26.8415 22.9658 27.371V27.3706Z" fill="#F48535"/>
<path d="M47.1806 43.0777V36.833H47.8269C48.4732 36.833 48.4732 36.8543 48.4732 37.9969C48.4732 39.1617 48.4732 39.1617 48.9472 38.8441C49.2272 38.6748 49.7657 38.5264 50.1319 38.5264C50.6488 38.5264 50.9505 38.6748 51.2739 39.0982C51.5968 39.5215 51.7262 40.008 51.7046 40.7916C51.7046 41.6805 51.5968 42.0617 51.1661 42.5486C50.6488 43.1625 50.5843 43.1834 47.1806 43.0777ZM55.7978 38.6322V37.7433C55.7978 36.8752 55.8194 36.833 57.0904 36.833V43.1834H56.4441C56.0134 43.1834 55.7978 43.0777 55.7978 42.8662C55.7978 42.5908 55.7333 42.5908 55.3238 42.8871C55.0437 43.0564 54.5053 43.2047 54.139 43.2047C53.6218 43.2047 53.3205 43.0355 52.9971 42.6121C52.6742 42.1887 52.5448 41.7228 52.5664 40.9187C52.5664 40.0084 52.6742 39.6908 53.1694 39.1404C53.6867 38.5478 53.859 38.4842 55.7978 38.6322ZM19.885 38.1879C20.014 37.8703 20.4451 37.4892 20.7897 37.3412C21.1559 37.1928 21.781 37.0658 22.19 37.0658C22.5995 37.0449 23.2674 37.1506 23.6549 37.2564C24.1938 37.4256 24.3444 37.5949 24.3444 37.9974C24.3444 38.2937 24.2799 38.5264 24.1938 38.5264C24.0856 38.5264 23.7843 38.3785 23.4826 38.2088C23.1813 38.0609 22.664 37.9125 22.2978 37.9125C21.9532 37.8916 21.4576 38.0396 21.2208 38.2088C20.8758 38.442 20.833 38.59 21.0269 38.8863C21.1559 39.0982 21.8671 39.4367 22.5995 39.6486C23.4181 39.8814 24.0427 40.199 24.2583 40.4953C24.4739 40.8129 24.5384 41.215 24.4739 41.6596C24.3873 42.1461 24.1289 42.4851 23.6549 42.7601C23.1809 43.0424 22.5708 43.1834 21.8238 43.1834C21.1992 43.1834 20.4451 43.099 20.1434 42.9719C19.7772 42.8449 19.6049 42.6121 19.6049 42.231C19.6049 41.956 19.6694 41.7228 19.7772 41.7228C19.8633 41.7228 20.165 41.8711 20.4668 42.0195C20.768 42.1887 21.3931 42.3367 21.8671 42.358C22.4056 42.358 22.8579 42.231 23.0519 42.0195C23.2891 41.7654 23.3103 41.5961 23.138 41.3207C23.009 41.1301 22.384 40.8551 21.7377 40.7068C21.0481 40.5375 20.3806 40.2199 20.1005 39.9023C19.8205 39.6273 19.6049 39.2465 19.6049 39.0555C19.6049 38.8863 19.7339 38.5051 19.885 38.1879ZM5.42921 40.3892C5.94648 39.0769 6.46334 37.849 6.52784 37.6375C6.63604 37.3834 6.89405 37.2564 7.43297 37.2564C8.16539 37.2564 8.18703 37.2986 8.74716 38.8015C9.0701 39.6486 9.54409 40.8974 9.8458 41.5961C10.1259 42.3158 10.341 42.9506 10.341 43.0355C10.341 43.1199 10.083 43.2047 9.75966 43.2047C9.26444 43.2047 9.11338 43.0564 8.89781 42.4637C8.61774 41.7228 8.5961 41.7019 7.43297 41.7019C6.29105 41.7019 6.24777 41.7441 5.92484 42.4428C5.68764 43.0142 5.47249 43.1834 5.06341 43.1834C4.76129 43.1834 4.50286 43.099 4.48122 42.9933C4.46 42.8871 4.89071 41.7228 5.42921 40.3892ZM11.4184 40.1142C11.0522 38.8437 10.7076 37.6797 10.6644 37.5314C10.5999 37.3621 10.7934 37.2568 11.2029 37.2568C11.763 37.2568 11.8708 37.3621 12.0647 38.0609C12.1725 38.5055 12.3876 39.3519 12.5387 39.9658C12.6893 40.5797 12.8833 41.0879 12.9911 41.0879C13.0772 41.0879 13.3573 40.2199 13.6373 39.1617C14.1113 37.2986 14.1326 37.2564 14.7576 37.2564C15.3822 37.2564 15.4255 37.2986 15.9424 39.1617C16.2441 40.2199 16.5242 41.0879 16.5887 41.0879C16.6536 41.0879 16.8687 40.3469 17.0843 39.4367C17.2999 38.5269 17.5583 37.6797 17.6228 37.5318C17.7089 37.3621 18.0323 37.2777 18.8941 37.3621L18.2691 39.4793C17.9461 40.6437 17.5583 41.9564 17.4505 42.4006C17.2566 43.0994 17.1704 43.1838 16.6536 43.1416C16.1363 43.0994 16.0285 42.951 15.7701 42.0199C15.5509 41.282 15.3426 40.5409 15.1455 39.7969C14.9299 39.0142 14.7576 38.7387 14.6502 38.9502C14.5637 39.1408 14.262 40.1568 13.9819 41.2363C13.4867 43.1203 13.4434 43.2051 12.8833 43.2051C12.4954 43.2051 12.237 43.0568 12.1941 42.824C12.1292 42.6125 11.7846 41.4055 11.4184 40.1142ZM28.4377 43.1834V37.2564H29.5147L29.6229 42.231L31.0877 42.2945C32.3803 42.3367 32.5309 42.4002 32.5309 42.7601C32.5309 43.1625 32.3803 43.1834 28.4377 43.1834ZM33.1339 39.0982C33.1127 38.9498 33.1772 38.7592 33.285 38.6748C33.3928 38.6113 34.0607 38.5264 34.7715 38.5264C35.59 38.5264 36.2796 38.6535 36.5809 38.8441C37.012 39.1404 37.0553 39.331 37.0553 41.1728C37.0553 43.1834 37.0553 43.1834 36.5164 43.1834C36.1718 43.1834 35.9779 43.0777 35.9779 42.8662C35.9779 42.5908 35.9134 42.5908 35.5039 42.8871C35.2238 43.0564 34.6853 43.2047 34.3191 43.2047C33.9313 43.2047 33.4577 43.0564 33.285 42.8662C33.1127 42.6965 32.9616 42.231 32.9616 41.8076C32.9616 41.2785 33.0911 41.0031 33.4573 40.7707C33.7157 40.601 34.3836 40.4105 34.9654 40.3469C35.5472 40.2834 35.9779 40.1142 35.9779 39.9658C35.9995 39.8178 35.8272 39.5637 35.6333 39.3732C35.3745 39.1404 35.0299 39.0982 34.233 39.2252C33.414 39.3523 33.1768 39.3096 33.1339 39.0982ZM38.563 43.1834V38.5264H39.2093C39.6404 38.5264 39.8556 38.6322 39.8556 38.8441C39.8556 39.1404 39.9205 39.1404 40.3512 38.8441C40.6096 38.6748 41.1481 38.5264 41.536 38.5264C41.9671 38.5264 42.3117 38.6748 42.5056 38.9498C42.764 39.3519 42.764 39.3519 43.3025 38.9289C43.6042 38.717 44.1644 38.5264 44.5522 38.5264C45.0262 38.5264 45.3491 38.6957 45.5647 39.0133C45.8015 39.3519 45.8876 40.0506 45.8876 41.342C45.8876 43.1834 45.8876 43.1834 45.3491 43.1834C44.8539 43.1834 44.8106 43.1199 44.8106 42.083C44.8106 41.4691 44.7461 40.6433 44.66 40.2621C44.5522 39.8605 44.3366 39.4793 44.1644 39.4367C43.9921 39.3732 43.6259 39.3945 43.3674 39.458C42.8934 39.5851 42.8718 39.7121 42.8718 43.1834H41.5792V41.3842C41.5792 39.8814 41.5143 39.5851 41.213 39.458C40.9975 39.3945 40.6096 39.3945 40.3512 39.458C39.8772 39.5851 39.856 39.7121 39.856 43.1834H38.563ZM58.3401 39.0982C58.3184 38.9498 58.3829 38.7592 58.4907 38.6748C58.5985 38.6113 59.2664 38.5264 59.9772 38.5264C60.7958 38.5264 61.4853 38.6535 61.787 38.8441C62.2177 39.1404 62.261 39.331 62.261 41.1728C62.261 43.1834 62.261 43.1834 61.7221 43.1834C61.3775 43.1834 61.1836 43.0777 61.1836 42.8662C61.1836 42.5908 61.1191 42.5908 60.7096 42.8871C60.4296 43.0564 59.8911 43.2047 59.5248 43.2047C59.137 43.2047 58.663 43.0564 58.4907 42.8662C58.3184 42.6965 58.1678 42.231 58.1678 41.8076C58.1678 41.2785 58.2968 41.0031 58.663 40.7912C58.9214 40.6224 59.5893 40.4318 60.1711 40.3683C60.8607 40.2625 61.1836 40.1355 61.1836 39.9027C61.1836 39.733 60.968 39.4789 60.7096 39.3519C60.4296 39.2248 59.8265 39.1826 59.3093 39.2461C58.6201 39.3519 58.3829 39.3096 58.3401 39.0982Z" fill="#484947"/>
<path d="M28.2866 40.4531C28.2654 38.8863 28.2866 37.4683 28.3299 37.3199C28.3944 37.172 28.7178 37.0449 29.7303 37.0449V42.1253L31.5613 42.2732L29.6225 42.231L29.5147 37.2564H28.4377L28.3515 43.2896L28.2866 40.4531Z" fill="#828281"/>
<path d="M38.2827 25.0002C38.735 24.8945 39.6393 24.6617 40.286 24.4711C40.9323 24.3019 41.708 24.1748 42.0093 24.1748C42.311 24.1748 42.8928 24.3019 43.3023 24.4498C43.7113 24.5982 44.013 24.7461 43.9485 24.7461C43.8836 24.7674 42.4833 25.1486 40.8245 25.6141C39.1657 26.0797 37.7438 26.4609 37.6576 26.4609C37.5498 26.4609 37.4853 26.1859 37.4637 25.8256C37.4425 25.2756 37.5286 25.1908 38.2827 25.0002Z" fill="#F4BA91"/>
<path d="M42.3752 15.8765C42.3323 16.2789 42.2891 15.8978 42.2891 15.0297C42.2891 14.1621 42.3323 13.8232 42.3752 14.2892C42.4185 14.7547 42.4185 15.4744 42.3752 15.8765Z" fill="#9D9593"/>
<path d="M21.264 23.074C21.2423 25.5715 21.2207 23.5822 21.2207 18.6285C21.2207 13.6748 21.2423 11.6215 21.264 14.0773C21.3068 16.5326 21.3068 20.576 21.264 23.074ZM42.3765 23.2855C42.3332 23.6875 42.2903 23.3068 42.2903 22.4387C42.2903 21.5707 42.3332 21.2322 42.3765 21.6978C42.4193 22.1637 42.4193 22.8834 42.3765 23.2855Z" fill="#9F8462"/>
<path d="M46.1461 27.5613C46.0599 27.6457 46.0383 23.6871 46.1032 18.776L46.2106 9.84326L46.2538 18.6281C46.2971 23.4543 46.2322 27.4765 46.1461 27.5613Z" fill="#F7ECB2"/>
<path d="M37.2053 42.3369C37.1624 42.866 37.1191 42.4853 37.1191 41.4902C37.1191 40.4951 37.1624 40.0722 37.2053 40.5377C37.2486 41.0033 37.2486 41.8078 37.2053 42.3369ZM62.411 42.3369C62.3682 42.866 62.3249 42.5275 62.3249 41.5959C62.3249 40.6648 62.3682 40.2414 62.411 40.6435C62.4543 41.0455 62.4543 41.8078 62.411 42.3369ZM44.7455 42.4426C44.7026 42.9086 44.6593 42.6119 44.6593 41.8078C44.6593 41.0033 44.7026 40.6013 44.7455 40.9611C44.7888 41.3209 44.7888 41.9771 44.7455 42.4426Z" fill="#6E6E6D"/>
<path d="M39.8983 12.8914C37.7439 12.2561 37.4638 12.1295 37.4855 11.7061C37.4855 11.4311 37.5716 11.2192 37.7006 11.2192C37.83 11.2192 39.1442 11.6004 40.6524 12.0873C42.1817 12.5528 43.4959 13.0184 43.6253 13.1242C43.7543 13.2303 43.5392 13.3574 43.0868 13.4418C42.5267 13.5479 41.6865 13.3996 39.8983 12.8914Z" fill="#6A4B39"/>
<path d="M6.91509 40.1353C6.93673 40.0722 7.04409 39.7755 7.17352 39.437C7.32458 38.9923 7.41072 38.9288 7.47523 39.2042C7.49687 39.4157 7.38908 39.7333 7.2168 39.9025C7.04451 40.0722 6.89386 40.1775 6.91509 40.1353ZM49.5067 40.0083C49.3989 40.0083 49.334 39.8607 49.334 39.6911C49.334 39.5218 49.3773 39.3734 49.4418 39.3734C49.5067 39.3734 49.7218 39.437 49.9158 39.5005C50.2603 39.6275 50.2603 39.6698 49.9803 39.8181C49.808 39.9238 49.5928 40.0083 49.5067 40.0083ZM54.6124 40.5378C54.0523 40.0931 54.009 39.9874 54.2674 39.6911C54.4401 39.5005 54.8276 39.3734 55.1293 39.4157C55.4955 39.4583 55.7111 39.6275 55.7539 39.9025C55.7756 40.1357 55.6894 40.4956 55.5388 40.6861C55.2799 41.0247 55.2154 41.0034 54.6124 40.5378Z" fill="#FBFBFB"/>
<path d="M50.3683 22.1637C50.0021 22.7563 50.0021 22.7563 49.9809 21.1051C49.9809 19.5387 50.0021 19.4752 50.4116 19.7293C50.7133 19.9198 50.7561 20.0469 50.5622 20.1526C50.4116 20.2375 52.0703 20.3219 54.2247 20.3219C57.5856 20.3219 58.1673 20.2797 58.1673 20.0043C58.1673 19.835 58.318 19.687 58.4903 19.687C58.7487 19.687 58.792 19.9198 58.7058 20.851C58.6197 21.7825 58.6626 22.0153 58.9214 22.0153C59.1366 22.0153 59.2443 22.2272 59.2443 23.2858L57.6284 21.5711L50.7349 21.592L50.3683 22.1637ZM9.04801 20.1104C9.393 20.1104 9.69429 20.0043 9.69429 19.8985C9.69429 19.7715 10.7284 19.687 12.3876 19.687C15.0156 19.687 15.0801 19.7079 15.1883 20.1526C15.2528 20.428 15.2957 21.2112 15.3173 23.1797L13.4646 21.6346L9.97477 21.5711C8.03552 21.5284 6.46289 21.4227 6.46289 21.317C6.46289 21.2321 6.7646 21.1686 7.10917 21.1686C7.58358 21.1686 7.75545 21.0629 7.77709 20.7665C7.77709 20.5547 7.92815 20.301 8.10044 20.2375C8.27272 20.1739 8.70385 20.1104 9.04801 20.1104ZM6.9373 40.3686C7.06631 40.1145 7.28146 39.7969 7.38924 39.6698C7.51825 39.5219 7.62644 39.437 7.64808 39.4584C7.66931 39.4584 7.79873 39.7969 8.18658 40.8555H7.43252C6.72132 40.8555 6.7001 40.8342 6.9373 40.3686ZM48.4294 40.1354C48.4082 39.8395 48.5156 39.5641 48.7095 39.5219H48.6883C48.8606 39.4584 49.0757 39.3948 49.1619 39.3948C49.2697 39.3735 49.3346 39.5219 49.3346 39.6911C49.3346 39.9026 49.5069 39.9875 49.8082 39.9452C50.2393 39.903 50.3038 40.0088 50.3683 40.7497C50.4116 41.3424 50.3038 41.7022 50.0454 41.9772C49.8298 42.1891 49.593 42.3584 49.4852 42.337C49.3991 42.337 49.3346 41.9985 49.3346 41.5965C49.3346 41.0247 49.2268 40.8342 48.9034 40.7497C48.645 40.6862 48.4511 40.4526 48.4294 40.1354ZM54.2031 42.0198C54.0092 41.8293 53.9014 41.3846 53.923 40.8342L53.9663 39.9661L54.6771 40.5165C55.3234 41.0247 55.4095 41.0461 55.6034 40.6862C55.7545 40.4108 55.7974 40.4956 55.819 41.1096C55.819 41.7022 55.7112 41.9772 55.3883 42.1256C55.1511 42.2526 54.8494 42.337 54.7416 42.337C54.6126 42.337 54.3754 42.1891 54.2031 42.0198ZM34.3187 41.8079C34.2754 41.5752 34.3832 41.3211 34.5342 41.2153C34.6849 41.1305 35.0294 41.067 35.2667 41.067C35.6329 41.067 35.719 41.194 35.6974 41.6387C35.6757 42.1469 35.5896 42.2313 35.0294 42.2313C34.5555 42.2313 34.3832 42.1256 34.3187 41.8079ZM59.4383 41.8293C59.4166 41.5329 59.546 41.2575 59.7183 41.194C59.8906 41.1518 60.2785 41.0883 60.5802 41.0883C60.968 41.067 61.1403 41.1731 61.1403 41.4268C61.1403 41.6387 61.0325 41.935 60.9031 42.0834C60.7741 42.2313 60.4079 42.3584 60.0845 42.337C59.6105 42.337 59.4815 42.2313 59.4383 41.8293Z" fill="#FAFAFA"/>
<path d="M45.2633 16.0879C45.414 16.7653 45.4356 16.7653 45.3711 15.8338C45.3278 15.2621 45.3923 14.8174 45.4785 14.8174C45.5863 14.8174 45.6724 16.3629 45.6724 18.2682C45.6724 21.2108 45.6295 21.6338 45.3923 21.2739C45.1772 20.9776 45.091 20.0465 45.091 18.0989C45.0694 16.1727 45.1339 15.5797 45.2633 16.0879Z" fill="#F2842E"/>
<path d="M9.32883 4.82606C9.19983 4.55106 9.0059 4.1277 8.9414 3.8736V3.85229C8.79034 3.40803 8.8332 3.38672 10.2123 3.38672C11.591 3.38672 11.6343 3.40803 11.5049 3.85229C11.4404 4.1277 11.2464 4.55106 11.0742 4.80516C10.8802 5.12278 10.5569 5.29205 10.1907 5.29205C9.7816 5.29205 9.50112 5.14369 9.32883 4.82606ZM53.4931 4.84737C53.3636 4.57237 53.1697 4.14901 53.1052 3.8736C52.9546 3.42893 53.0191 3.40803 54.2684 3.40803C55.518 3.40803 55.5826 3.42893 55.4535 3.8736C55.3886 4.14901 55.2163 4.57237 55.0873 4.84737C54.9146 5.14369 54.6346 5.33426 54.29 5.33426C53.9454 5.33426 53.6654 5.14369 53.4931 4.84737ZM48.9042 42.358C48.5596 42.358 48.4735 42.2097 48.4518 41.5326C48.4302 40.8125 48.4735 40.7068 48.8613 40.8125C49.1626 40.8974 49.292 41.1088 49.3137 41.6384C49.3349 42.231 49.2488 42.358 48.9042 42.358Z" fill="#F8F9F8"/>
</g>
<defs>
<clipPath id="clip0_337_5029">
<rect width="67" height="50" fill="white"/>
</clipPath>
</defs>
</svg>
