<svg width="135" height="33" viewBox="0 0 135 33" fill="none" xmlns="http://www.w3.org/2000/svg">
<g clip-path="url(#clip0_337_2975)">
<mask id="mask0_337_2975" style="mask-type:luminance" maskUnits="userSpaceOnUse" x="0" y="0" width="135" height="33">
<path d="M0 0H135V33H0V0Z" fill="white"/>
</mask>
<g mask="url(#mask0_337_2975)">
<path fill-rule="evenodd" clip-rule="evenodd" d="M10.2952 0.00294092C10.8302 -5.90831e-05 11.0522 0.00994091 11.1752 0.0469409C11.2682 0.0729409 11.4082 0.146941 11.4912 0.206941C11.5742 0.266941 11.7102 0.423941 11.7962 0.550941C11.8832 0.680941 12.1222 1.06394 12.3282 1.41094L12.7362 2.09494C12.7532 2.12494 12.9392 2.43894 13.1482 2.78594C13.3582 3.13594 13.5732 3.49294 13.6332 3.58594C13.6932 3.67694 13.7762 3.81694 13.8192 3.89394C13.8622 3.97394 14.1312 4.42394 14.4132 4.89394C14.6962 5.36494 14.9412 5.77894 14.9612 5.81194C14.9782 5.84594 15.1142 6.07194 15.2572 6.31594C15.768 7.14355 16.2694 7.97693 16.7612 8.81594C16.8212 8.91194 16.8942 9.04194 16.9272 9.10194C16.9612 9.16194 17.1572 9.48994 17.3622 9.83694C17.5722 10.1799 17.7972 10.5569 17.8712 10.6769C18.2105 11.2406 18.5492 11.8046 18.8872 12.3689C19.3382 13.1229 19.7572 13.8239 19.8172 13.9209C19.8772 14.0169 19.9592 14.1639 20.0062 14.2479C20.0522 14.3309 20.1262 14.4549 20.1662 14.5209C20.2092 14.5879 20.4142 14.9309 20.6242 15.2819L21.1482 16.1599C21.2252 16.2929 21.3012 16.4229 21.3212 16.4499C21.3382 16.4769 21.4312 16.6299 21.5272 16.7939L21.8062 17.2609L22.1452 17.8249C22.2782 18.0409 22.3842 18.2279 22.3842 18.2419C22.3842 18.2579 22.4072 18.2919 22.4302 18.3179C22.4572 18.3449 22.5072 18.4219 22.5432 18.4849C22.5762 18.5489 22.8392 18.9829 23.1182 19.4459C23.4272 19.9529 23.6492 20.2899 23.6792 20.2869C23.7062 20.2869 23.8852 20.2469 24.0782 20.1999C24.2702 20.1539 24.6122 20.0699 24.8412 20.0169C25.0712 19.9599 25.4062 19.8799 25.5892 19.8369L26.2692 19.6729C26.4622 19.6259 26.8212 19.5429 27.0662 19.4859C27.3122 19.4299 27.7012 19.3359 27.9302 19.2829C28.1592 19.2259 28.4982 19.1459 28.6872 19.0989C28.8732 19.0559 29.1792 18.9829 29.3652 18.9359C29.5542 18.8919 29.8932 18.8089 30.1222 18.7559C30.3512 18.7019 30.7392 18.6089 30.9852 18.5519C31.2312 18.4949 31.5862 18.4119 31.7752 18.3649C31.9622 18.3219 32.2672 18.2479 32.4532 18.2019C32.6432 18.1579 32.9882 18.0749 33.2272 18.0179L33.9912 17.8349C34.1732 17.7879 34.5262 17.7079 34.7712 17.6479L35.6352 17.4479C35.8642 17.3909 36.2052 17.3109 36.3992 17.2639C36.5912 17.2169 36.8302 17.1609 36.9292 17.1339C37.0292 17.1109 37.2922 17.0469 37.5112 16.9999C37.7312 16.9499 37.9262 16.8999 37.9462 16.8899C37.9662 16.8769 37.6872 16.4399 37.2422 15.7999L36.3162 14.4649C36.2162 14.3179 36.0432 14.0709 35.9342 13.9139C35.8212 13.7569 35.6542 13.5199 35.5582 13.3839C35.3182 13.0444 35.0792 12.704 34.8412 12.3629C34.5952 12.0149 34.2272 11.4879 34.0212 11.1949C33.8534 10.9546 33.684 10.7152 33.5132 10.4769L33.2472 10.1099C33.173 10.0085 33.1156 9.89569 33.0772 9.77594C33.0472 9.64994 33.0512 9.60594 33.1012 9.50994C33.1472 9.42294 33.2142 9.36594 33.3762 9.28594C33.5362 9.20894 33.7352 9.15594 34.1402 9.08194C34.5218 9.01198 34.9038 8.94431 35.2862 8.87894C35.6152 8.82594 36.1162 8.74194 36.3982 8.69494L37.5282 8.50894C37.8662 8.45194 38.3582 8.37194 38.6242 8.32494C38.8892 8.28194 39.2022 8.22794 39.3212 8.20794C39.4412 8.18794 39.7462 8.13494 40.0012 8.08794C40.2582 8.04094 40.5562 7.98094 40.6662 7.95094C40.7762 7.92094 40.9552 7.89794 41.0652 7.89494C41.2142 7.89494 41.3102 7.91494 41.4472 7.97794C41.5472 8.02794 41.7092 8.13194 41.8082 8.21194C41.9082 8.29194 42.1782 8.58194 42.4102 8.85894C42.6392 9.13294 42.8782 9.42594 42.9402 9.50894C43.0042 9.59294 43.0872 9.69594 43.1302 9.74294C43.1702 9.78994 43.3362 9.99294 43.4962 10.1969L44.2532 11.1469C44.5082 11.4679 44.7442 11.7579 44.7742 11.7949C44.8042 11.8319 44.9542 12.0189 45.1062 12.2119C45.2592 12.4059 45.6672 12.9159 46.0102 13.3469L46.7242 14.2339C46.7702 14.2939 46.8562 14.3979 46.9132 14.4679C46.9692 14.5409 47.1692 14.7779 47.3512 14.9979C47.5342 15.2179 47.7102 15.4579 47.7402 15.5319C47.7725 15.6111 47.7848 15.6969 47.7762 15.7819C47.761 15.8549 47.7292 15.9233 47.6832 15.9819C47.5513 16.1306 47.3811 16.2403 47.1912 16.2989C47.0922 16.3329 46.8702 16.3969 46.7012 16.4389C46.5342 16.4829 46.2552 16.5529 46.0862 16.5969C45.9202 16.6399 45.6612 16.7099 45.5152 16.7469L44.9342 16.9039C44.7612 16.9499 44.4922 17.0239 44.3362 17.0669C44.1802 17.1069 43.8742 17.1909 43.6552 17.2509C43.4352 17.3069 43.1302 17.3909 42.9752 17.4309L42.2932 17.6179C42.0742 17.6739 41.7752 17.7609 41.6292 17.8049C41.4832 17.8479 41.3402 17.8849 41.3142 17.8849C41.2015 17.9107 41.0903 17.9427 40.9812 17.9809C40.8252 18.0309 40.7122 18.0809 40.7332 18.0909C40.7492 18.1009 40.8992 18.2879 41.0652 18.5049C41.2272 18.7219 41.3872 18.9349 41.4132 18.9749C41.4402 19.0149 41.6892 19.3459 41.9652 19.7099C42.2372 20.0739 42.6292 20.5869 42.8282 20.8539L43.4722 21.7049C43.6252 21.9049 43.9542 22.3429 44.2002 22.6729C44.4492 23.0029 44.6742 23.3069 44.7012 23.3429C44.7282 23.3829 44.9312 23.6529 45.1462 23.9439C45.3622 24.2379 45.5882 24.5379 45.6442 24.6179C45.7012 24.6979 45.7802 24.8019 45.8172 24.8519C45.8572 24.9019 46.0332 25.1449 46.2122 25.3919C46.3882 25.6389 46.5912 25.9419 46.6642 26.0659C46.7542 26.2229 46.7942 26.3329 46.7942 26.4159C46.7942 26.4929 46.7642 26.5859 46.7172 26.6499C46.6503 26.7328 46.569 26.8029 46.4772 26.8569C46.3852 26.9139 46.1862 27.0069 46.0302 27.0709C45.8732 27.1339 45.6112 27.2339 45.4482 27.2939C45.2822 27.3539 45.0602 27.4379 44.9502 27.4779C44.8402 27.5209 44.6312 27.6009 44.4852 27.6549C44.3392 27.7079 44.1072 27.7949 43.9712 27.8409C43.6718 27.9513 43.3728 28.0626 43.0742 28.1749L42.1442 28.5149C41.8052 28.6349 41.4172 28.7789 41.2802 28.8289L40.5662 29.0889C40.3112 29.1789 39.9292 29.3189 39.7192 29.3959L39.2052 29.5829C39.1322 29.6069 38.9052 29.6899 38.7072 29.7629C38.5042 29.8399 38.2822 29.9229 38.2092 29.9469C38.1352 29.9699 37.9262 30.0469 37.7432 30.1139C37.5612 30.1799 37.2922 30.2769 37.1462 30.3269C37.0002 30.3809 36.6642 30.5009 36.3982 30.5969C36.1332 30.6939 35.7142 30.8439 35.4682 30.9309C35.2232 31.0209 34.8482 31.1549 34.6382 31.2309C34.4292 31.3079 34.1972 31.3909 34.1242 31.4149C33.9518 31.4741 33.7801 31.5354 33.6092 31.5989C33.3992 31.6749 33.1672 31.7549 33.0942 31.7819C33.0212 31.8049 32.6992 31.9189 32.3802 32.0319C32.0612 32.1459 31.5072 32.3359 31.1512 32.4519C30.7962 32.5719 30.3672 32.7129 30.2052 32.7659C30.0392 32.8199 29.7702 32.8959 29.6072 32.9329C29.3972 32.9869 29.2382 33.0029 29.0762 32.9929C28.9326 32.9888 28.7912 32.9562 28.6602 32.8969C28.5238 32.8238 28.3968 32.7341 28.2822 32.6299C28.135 32.4809 28.0015 32.3189 27.8832 32.1459C27.7732 31.9819 27.6642 31.8159 27.6412 31.7789C27.6182 31.7449 27.5082 31.5619 27.3912 31.3719L27.1332 30.9519C27.0452 30.8053 26.9579 30.6583 26.8712 30.5109L26.4852 29.8469C26.3922 29.6799 26.2532 29.4469 26.1762 29.3199C26.1251 29.2427 26.0783 29.1625 26.0362 29.0799C26.0362 29.0699 25.9802 28.9699 25.9112 28.8519C25.8383 28.7341 25.7672 28.6151 25.6982 28.4949C25.6522 28.4119 25.5582 28.2479 25.4882 28.1279L25.2962 27.7949C25.2451 27.7052 25.1944 27.6152 25.1442 27.5249C25.0795 27.4072 25.0129 27.2905 24.9442 27.1749C24.8842 27.0639 24.7982 26.9099 24.7522 26.8269C24.7013 26.735 24.6493 26.6437 24.5962 26.5529C24.5592 26.4869 24.3462 26.1099 24.1312 25.7189C23.9152 25.3289 23.6762 24.8949 23.6032 24.7589C23.5352 24.6313 23.4642 24.5052 23.3902 24.3809C23.3611 24.3364 23.3357 24.2896 23.3142 24.2409C23.3142 24.2309 23.1542 23.9269 22.9552 23.5639C22.7592 23.2039 22.5702 22.8499 22.5332 22.7799C22.4972 22.7129 22.4502 22.6559 22.4332 22.6559C22.4132 22.6559 22.2942 22.6859 22.1682 22.7229C22.0382 22.7629 21.8762 22.8059 21.8032 22.8199C21.7302 22.8359 21.4312 22.9129 21.1382 22.9899C20.8462 23.0699 20.5242 23.1529 20.4242 23.1769C20.3242 23.1969 20.0622 23.2629 19.8442 23.3229L18.5312 23.6629C18.0302 23.7909 17.5582 23.9109 17.4852 23.9239C17.3574 23.9528 17.23 23.9838 17.1032 24.0169C16.9672 24.0569 16.6682 24.1339 16.4392 24.1909L15.7092 24.3749L15.0112 24.5509C14.8012 24.6079 14.2842 24.7349 13.8652 24.8379C13.4442 24.9449 12.9892 25.0579 12.8522 25.0949C12.7162 25.1349 12.4772 25.1849 12.3212 25.2119C12.1639 25.2368 12.0053 25.2525 11.8462 25.2589C11.5531 25.2546 11.2642 25.1874 10.9992 25.0619C10.8514 24.9763 10.7144 24.8732 10.5912 24.7549C10.467 24.6334 10.3545 24.5005 10.2552 24.3579C10.1922 24.2579 9.99023 23.8439 9.80423 23.4399C9.62123 23.0369 9.40823 22.5699 9.33223 22.4059C9.25623 22.2389 9.13923 21.9919 9.07623 21.8559C9.01323 21.7189 8.92423 21.5219 8.87723 21.4219C8.69945 21.0449 8.52444 20.6666 8.35223 20.2869C8.15623 19.8569 7.93123 19.3589 7.84823 19.1859C7.76823 19.0119 7.66523 18.7919 7.62223 18.7019L7.40623 18.2349C7.32623 18.0679 7.10423 17.5809 6.90823 17.1509C6.66289 16.6096 6.41388 16.0699 6.16123 15.5319L5.95123 15.0819L5.45323 13.9969C5.25323 13.5569 5.02523 13.0599 4.94823 12.8969C4.87223 12.7289 4.73623 12.4429 4.64623 12.2519C4.58752 12.135 4.53315 12.0159 4.48323 11.8949C4.48323 11.8849 4.39323 11.6919 4.28423 11.4609C4.17423 11.2309 4.08423 11.0239 4.08423 11.0009C4.08245 10.9742 4.0723 10.9486 4.05523 10.9279C4.03823 10.9079 3.85223 10.5179 3.64323 10.0599L3.14823 8.97594C3.08223 8.83894 2.98623 8.62594 2.92623 8.49894C2.82433 8.2613 2.71798 8.02559 2.60723 7.79194L2.35723 7.25694C2.34123 7.22094 2.28223 7.08394 2.22523 6.95694C2.16523 6.82694 2.06923 6.61694 2.00923 6.48994C1.94923 6.35994 1.86923 6.18994 1.83323 6.10594L1.69323 5.78894L1.17323 4.63794C0.930227 4.09794 0.713227 3.62394 0.696227 3.58694C0.526267 3.21296 0.365551 2.83484 0.214227 2.45294C0.159168 2.29458 0.11408 2.13293 0.0792266 1.96894C0.0523295 1.82571 0.0366154 1.68061 0.0322266 1.53494C0.0322266 1.43494 0.0552266 1.28494 0.0822266 1.20094C0.111615 1.11801 0.154159 1.04035 0.208227 0.970941C0.250227 0.927941 0.350227 0.859941 0.432227 0.823941C0.545227 0.773941 0.690227 0.750941 1.03023 0.730941C1.27523 0.716941 1.84323 0.673941 2.29223 0.633941C2.74023 0.596941 3.50023 0.526941 3.98523 0.483941C4.47023 0.436941 4.98523 0.393941 5.13123 0.383941C5.27723 0.373941 5.80823 0.326941 6.31023 0.283941C6.81123 0.239941 7.61223 0.169941 8.08723 0.129941C8.56223 0.0929409 9.09323 0.0499409 9.26623 0.0329409C9.43823 0.0199409 9.90223 0.00694092 10.2952 0.00294092ZM8.60123 1.55194C8.02723 1.59794 7.12123 1.67194 6.59223 1.71794C6.16645 1.75402 5.74044 1.78736 5.31423 1.81794C5.14123 1.82794 4.69323 1.86794 4.31723 1.90494C3.89175 1.94382 3.4657 1.97616 3.03923 2.00194C2.71023 2.02194 2.41423 2.04494 2.38123 2.05194C2.36378 2.05968 2.34822 2.0711 2.33562 2.08543C2.32302 2.09976 2.31367 2.11665 2.30823 2.13494C2.29823 2.17194 2.30823 2.25894 2.32823 2.32494C2.34823 2.39494 2.44823 2.62494 2.54823 2.83594C2.65023 3.04594 2.84323 3.45294 2.97923 3.73694L3.42123 4.65494L3.83623 5.52194C4.15075 6.17866 4.46608 6.835 4.78223 7.49094L5.19723 8.35794C5.30423 8.57794 5.51723 9.02194 5.66923 9.34294C5.82523 9.66294 6.01423 10.0599 6.09423 10.2269L6.61923 11.3109C6.82823 11.7409 7.08023 12.2689 7.18323 12.4789L7.64523 13.4469C7.80123 13.7669 8.03023 14.2409 8.15323 14.4969C8.27623 14.7549 8.51223 15.2419 8.67523 15.5819C8.84123 15.9219 9.09023 16.4399 9.23223 16.7329C9.37523 17.0269 9.64423 17.5809 9.83023 17.9679L10.6502 19.6529C11.1097 20.5885 11.5737 21.5218 12.0422 22.4529C12.0952 22.5529 12.1822 22.6689 12.2382 22.7129C12.3042 22.7659 12.3612 22.7899 12.4042 22.7759C12.5471 22.7417 12.6912 22.7126 12.8362 22.6889C13.0352 22.6559 13.3442 22.5929 13.5162 22.5559C13.6892 22.5159 14.0182 22.4429 14.2472 22.3889C14.4772 22.3329 14.8352 22.2489 15.0442 22.2019L15.7252 22.0389C15.8882 21.9949 16.2332 21.9149 16.4892 21.8549C16.7452 21.7949 17.0872 21.7119 17.2532 21.6719C17.4162 21.6279 17.7542 21.5479 18.0002 21.4919C18.2462 21.4319 18.5612 21.3579 18.6972 21.3219L19.4452 21.1379C19.7172 21.0709 20.0952 20.9779 20.2822 20.9339C20.4712 20.8909 20.7832 20.8139 20.9792 20.7679C21.1792 20.7209 21.3712 20.6709 21.4112 20.6509C21.4712 20.6279 21.4872 20.5939 21.4842 20.5109C21.4842 20.4439 21.4072 20.2709 21.2712 20.0369C21.1552 19.8329 20.9792 19.5299 20.8832 19.3569C20.7862 19.1859 20.6702 18.9789 20.6232 18.9019C20.5772 18.8259 20.4912 18.6719 20.4282 18.5649C20.3682 18.4549 20.2852 18.3079 20.2422 18.2349C20.1673 18.1006 20.0906 17.9673 20.0122 17.8349L19.8272 17.5179C19.8102 17.4909 19.7532 17.3909 19.7002 17.3009C19.5083 16.9682 19.3179 16.6345 19.1292 16.2999L18.9732 16.0329C18.9202 15.9389 18.8332 15.7889 18.7802 15.6989C18.7272 15.6059 18.6502 15.4719 18.6112 15.3989C18.5682 15.3249 18.5012 15.2049 18.4612 15.1319C18.4212 15.0589 18.3622 14.9619 18.3322 14.9149C18.2661 14.8128 18.204 14.708 18.1462 14.6009L17.9102 14.1839C17.6963 13.8023 17.4783 13.4229 17.2562 13.0459C17.0462 12.6889 16.7082 12.1019 16.5022 11.7459C16.2962 11.3879 16.0472 10.9509 15.9482 10.7769C15.8482 10.6039 15.7352 10.4039 15.6952 10.3339C15.5585 10.0898 15.4192 9.8471 15.2772 9.60594C15.0842 9.27294 14.8722 8.90194 14.7992 8.77894L14.5862 8.40894C14.5137 8.27993 14.4393 8.15192 14.3632 8.02494C14.2872 7.89494 14.1282 7.62494 14.0152 7.42494C13.8982 7.22094 13.7592 6.97394 13.6992 6.87394C13.6392 6.77394 13.4772 6.48694 13.3342 6.23994C13.1912 5.99294 13.0282 5.70594 12.9692 5.60594C12.9092 5.50594 12.7592 5.24194 12.6372 5.02194C12.5102 4.80194 12.3772 4.56794 12.3372 4.50394C12.2972 4.44094 12.1982 4.27394 12.1222 4.13694C12.0422 4.00094 11.9022 3.74994 11.8062 3.58694C11.7102 3.41994 11.5412 3.11994 11.4242 2.91994C11.3082 2.71594 11.1892 2.50594 11.1552 2.45194C11.1222 2.39594 11.0492 2.26894 10.9892 2.16894C10.9303 2.07023 10.8736 1.97021 10.8192 1.86894C10.7682 1.7796 10.7165 1.6906 10.6642 1.60194L10.5742 1.45194C10.3043 1.44347 10.0341 1.44447 9.76423 1.45494L8.60123 1.55194ZM40.4342 9.24194C40.2872 9.27594 39.9892 9.34194 39.7692 9.38894C39.5502 9.43294 39.1252 9.51894 38.8232 9.57594C38.5212 9.63294 38.0992 9.71594 37.8832 9.76294C37.7296 9.79706 37.5744 9.82376 37.4182 9.84294C37.3782 9.84294 37.1662 9.87994 36.9472 9.92294C36.7272 9.96994 36.4052 10.0299 36.2322 10.0569C36.0602 10.0869 35.7582 10.1369 35.5582 10.1699C35.2302 10.2239 35.2032 10.2339 35.2032 10.2999C35.2032 10.3439 35.2232 10.4169 35.2432 10.4669C35.2662 10.5169 35.3992 10.7109 35.5352 10.8969L36.1332 11.7079L36.5842 12.3219C36.6412 12.3989 36.8442 12.6719 37.0332 12.9299C37.2192 13.1869 37.5012 13.5699 37.6572 13.7799C37.8102 13.9899 38.0262 14.2839 38.1322 14.4309C38.2422 14.5779 38.5212 14.9509 38.7502 15.2649C38.9822 15.5749 39.2412 15.9289 39.3242 16.0489C39.4112 16.1689 39.4972 16.2829 39.5242 16.3059C39.5602 16.3399 39.6202 16.3359 39.8032 16.2999C39.9292 16.2729 40.1852 16.2129 40.3672 16.1659L40.9322 16.0129C41.0582 15.9789 41.2312 15.9359 41.3142 15.9189C41.3972 15.9029 41.8822 15.7789 42.3932 15.6489C42.9042 15.5159 43.4062 15.3889 43.5052 15.3659C43.6052 15.3419 43.8012 15.2919 43.9372 15.2559L44.5682 15.0859C44.7782 15.0319 45.0232 14.9759 45.1162 14.9659C45.2062 14.9559 45.3162 14.9249 45.3562 14.8979C45.3982 14.8719 45.4322 14.8249 45.4322 14.7979C45.4322 14.7709 45.1592 14.4049 44.8242 13.9839C44.4922 13.5599 44.0942 13.0559 43.9372 12.8559L42.9572 11.5949L42.0672 10.4439C41.9413 10.2765 41.8143 10.1098 41.6862 9.94394C41.5832 9.80694 41.4632 9.64994 41.4232 9.59294C41.3698 9.52409 41.3197 9.45267 41.2732 9.37894C41.2243 9.31247 41.1653 9.25409 41.0982 9.20594C41.0425 9.17249 40.9799 9.15198 40.9152 9.14594C40.8648 9.14862 40.8146 9.1553 40.7652 9.16594C40.7292 9.17294 40.5802 9.20594 40.4342 9.24294V9.24194ZM37.8762 18.5289C37.6942 18.5749 37.3652 18.6619 37.1462 18.7189L36.4482 18.8989L35.9832 19.0189C35.8902 19.0429 35.6312 19.1129 35.4032 19.1759C35.1732 19.2359 34.8972 19.3099 34.7882 19.3329C34.6782 19.3599 34.2962 19.4559 33.9412 19.5499L32.9782 19.8029C32.8052 19.8469 32.4832 19.9329 32.2642 19.9899L31.6162 20.1599C31.4802 20.1999 31.2842 20.2499 31.1852 20.2739C31.0852 20.2939 30.8232 20.3599 30.6032 20.4209C30.3842 20.4769 29.9732 20.5839 29.6902 20.6609C29.4082 20.7339 29.1392 20.8039 29.0922 20.8109C29.0462 20.8209 28.9022 20.8579 28.7772 20.8939C28.6472 20.9339 28.4612 20.9839 28.3622 21.0079C28.2622 21.0309 28.0062 21.0949 27.7972 21.1479C27.5872 21.2049 27.2062 21.3049 26.9502 21.3749C26.6952 21.4419 26.4022 21.5149 26.3032 21.5379C26.1638 21.5716 26.0251 21.6083 25.8872 21.6479C25.7572 21.6849 25.6182 21.7219 25.5722 21.7319C25.5262 21.7389 25.2802 21.8019 25.0242 21.8719C24.8655 21.9126 24.7071 21.9549 24.5492 21.9989C24.5462 22.0019 24.5992 22.1019 24.6692 22.2219C24.7422 22.3419 24.8282 22.4919 24.8612 22.5559L25.1372 23.0399C25.2502 23.2399 25.3862 23.4739 25.4362 23.5569C25.4862 23.6409 25.5722 23.7909 25.6282 23.8909C25.6852 23.9909 25.8112 24.2079 25.9042 24.3749C26.0002 24.5379 26.1342 24.7649 26.1962 24.8749C26.2592 24.9849 26.3392 25.1189 26.3722 25.1749C26.4062 25.2289 26.4622 25.3289 26.4992 25.3919C26.5322 25.4559 26.6782 25.7119 26.8242 25.9589C26.9702 26.2059 27.0962 26.4329 27.1102 26.4599C27.1232 26.4869 27.1932 26.6069 27.2692 26.7269C27.3452 26.8469 27.4452 27.0169 27.4952 27.1069C27.5412 27.1969 27.5982 27.2939 27.6152 27.3239C27.6352 27.3539 27.6912 27.4509 27.7442 27.5439L28.0002 27.9779C28.0832 28.1249 28.2722 28.4379 28.4112 28.6779C28.5542 28.9159 28.7012 29.1659 28.7372 29.2299C28.7732 29.2929 28.8272 29.3829 28.8532 29.4299L29.0832 29.7869C29.1792 29.9399 29.2582 30.0739 29.2582 30.0869C29.2831 30.1373 29.317 30.1828 29.3582 30.2209C29.4077 30.2751 29.4634 30.3231 29.5242 30.3639C29.5796 30.3848 29.6381 30.396 29.6972 30.3969C29.7572 30.3969 29.9332 30.3509 30.0892 30.2939C30.215 30.2462 30.3424 30.2028 30.4712 30.1639C30.5242 30.1469 30.8762 30.0269 31.2512 29.8969C31.6262 29.7669 32.1712 29.5769 32.4632 29.4769C32.7552 29.3769 33.1872 29.2299 33.4262 29.1469L34.6882 28.7119C35.1432 28.5519 35.7512 28.3449 36.0332 28.2489L36.9962 27.9189C37.6487 27.6906 38.3021 27.4646 38.9562 27.2409C39.1507 27.1786 39.344 27.113 39.5362 27.0439C39.7732 26.9599 40.2742 26.7839 40.6492 26.6569C41.0252 26.5269 41.4562 26.3799 41.6122 26.3269C41.7692 26.2769 42.2902 26.0969 42.7752 25.9269C43.0998 25.8104 43.4265 25.7001 43.7552 25.5959C43.8082 25.5819 43.9212 25.5389 44.0042 25.5019C44.0699 25.474 44.1286 25.432 44.1762 25.3789C44.1932 25.3489 44.1902 25.2849 44.1702 25.2319C44.1532 25.1819 43.9442 24.8779 43.7082 24.5579L43.1802 23.8409C43.067 23.6847 42.953 23.529 42.8382 23.3739C42.7022 23.1899 42.5662 23.0039 42.5362 22.9559C42.5062 22.9099 42.3162 22.6459 42.1142 22.3719C41.9112 22.0959 41.6592 21.7549 41.5532 21.6079L41.2972 21.2549C41.2612 21.2009 41.1412 21.0379 41.0312 20.8879C40.9212 20.7339 40.7422 20.4879 40.6332 20.3379L40.1612 19.6829C40.0112 19.4729 39.8032 19.1829 39.6962 19.0359C39.5491 18.8365 39.4074 18.6331 39.2712 18.4259C39.1582 18.2559 39.1512 18.2519 38.9962 18.2559C38.8363 18.2736 38.6783 18.3058 38.5242 18.3519C38.3512 18.4019 38.0592 18.4819 37.8762 18.5289ZM128.451 8.13894L131.662 8.15894L131.862 8.25494C131.971 8.30794 132.097 8.38194 132.137 8.42194C132.18 8.46194 132.25 8.55194 132.36 8.75894L132.376 23.2229L134.774 23.2399L135 23.4899L135.003 24.7079L134.734 24.9579H131.231L131.031 24.8649C130.922 24.8168 130.825 24.7451 130.746 24.6549C130.69 24.5751 130.643 24.4888 130.606 24.3979C130.553 24.2679 130.55 23.6709 130.55 9.87694H128.424L128.175 9.64994L128.155 8.43794L128.305 8.28794L128.451 8.13794V8.13894ZM62.7872 9.58494C63.4552 9.59194 63.4582 9.59194 63.5482 9.67494C63.5982 9.71894 63.6582 9.79894 63.6842 9.84894C63.7242 9.92594 63.7312 10.9429 63.7312 23.2219L69.3132 23.2389L69.5762 23.5229L69.5722 24.8069L69.2832 25.0909H62.6352L62.3922 24.9639C62.2566 24.8949 62.1305 24.8085 62.0172 24.7069C61.9334 24.6215 61.8687 24.5192 61.8272 24.4069C61.7752 24.2499 61.7672 23.7429 61.7712 17.0669C61.7712 11.5009 61.7812 9.87594 61.8142 9.81894C61.8342 9.77894 61.8912 9.71894 61.9372 9.68194C61.9771 9.64772 62.022 9.61974 62.0702 9.59894C62.0972 9.58494 62.4192 9.58194 62.7872 9.58494ZM122.164 12.1249C122.799 12.1379 122.845 12.1409 123.26 12.2549C123.496 12.3179 123.811 12.4149 123.958 12.4679C124.104 12.5219 124.303 12.6079 124.406 12.6579C124.506 12.7079 124.751 12.8749 124.954 13.0279C125.153 13.1819 125.415 13.4089 125.535 13.5329C125.655 13.6589 125.811 13.8529 125.884 13.9629C125.953 14.0729 126.073 14.2729 126.143 14.4129C126.216 14.5499 126.322 14.7609 126.382 14.8809C126.442 14.9969 126.521 15.1879 126.558 15.2979C126.594 15.4079 126.658 15.6479 126.694 15.8319C126.754 16.1149 126.767 16.3219 126.787 17.2499C126.804 18.1839 126.797 18.3569 126.751 18.5179C126.724 18.6179 126.651 18.7809 126.591 18.8809C126.528 18.9809 126.438 19.0909 126.385 19.1309C126.292 19.1979 126.276 19.2009 119.042 19.2349L119.046 19.9519C119.049 20.6059 119.059 20.6969 119.135 20.9869C119.182 21.1599 119.268 21.4139 119.331 21.5539C119.394 21.6909 119.494 21.8779 119.557 21.9709C119.62 22.0609 119.73 22.2009 119.803 22.2809C119.879 22.3649 120.029 22.4909 120.138 22.5649C120.248 22.6389 120.447 22.7519 120.587 22.8149C120.825 22.9273 121.076 23.008 121.334 23.0549C121.434 23.0749 122.237 23.0889 123.36 23.0889C125.07 23.0859 125.226 23.0919 125.332 23.1459C125.396 23.1789 125.479 23.2459 125.515 23.2989C125.578 23.3859 125.585 23.4389 125.585 24.5939L125.336 24.8239L123.615 24.8309L121.483 24.8369C121.184 24.8369 121.002 24.8209 120.836 24.7739C120.654 24.7209 120.476 24.6541 120.304 24.5739C120.092 24.471 119.887 24.3541 119.69 24.2239C119.508 24.1024 119.33 23.973 119.159 23.8359C119.016 23.7209 118.878 23.5984 118.747 23.4689C118.628 23.3476 118.515 23.2208 118.408 23.0889C118.299 22.9336 118.199 22.772 118.109 22.6049C118.023 22.4379 117.903 22.2149 117.847 22.1049C117.787 21.9949 117.717 21.8279 117.687 21.7379C117.583 21.4117 117.509 21.0767 117.465 20.7369C117.442 20.5429 117.435 19.6849 117.455 16.2989L117.541 15.9319C117.588 15.7279 117.658 15.4749 117.691 15.3649C117.773 15.1095 117.869 14.8591 117.98 14.6149C118.013 14.5469 118.113 14.3899 118.206 14.2629C118.295 14.1329 118.478 13.8929 118.611 13.7289C118.781 13.5227 118.965 13.3289 119.162 13.1489C119.331 12.9949 119.577 12.8019 119.707 12.7149C119.833 12.6319 120.065 12.5079 120.221 12.4419C120.568 12.2979 120.93 12.1971 121.301 12.1419C121.41 12.1279 121.799 12.1219 122.164 12.1239V12.1249ZM121.035 14.1229C120.852 14.1829 120.59 14.2999 120.454 14.3799C120.314 14.4599 120.115 14.6069 120.009 14.7099C119.901 14.8143 119.801 14.9274 119.71 15.0479C119.653 15.1279 119.567 15.2739 119.517 15.3709C119.442 15.5218 119.378 15.6779 119.325 15.8379C119.272 15.9979 119.212 16.2649 119.192 16.4319C119.175 16.5959 119.159 16.9519 119.159 17.2229V17.7169H125.07C125.067 17.0029 125.053 16.6589 125.037 16.4889C125.009 16.2737 124.961 16.0615 124.894 15.8549C124.826 15.6575 124.743 15.4656 124.645 15.2809C124.559 15.1277 124.458 14.9825 124.346 14.8469C124.248 14.7381 124.14 14.6377 124.024 14.5469C123.921 14.4741 123.815 14.4041 123.708 14.3369C123.547 14.2572 123.381 14.189 123.21 14.1329C122.979 14.0555 122.739 14.0041 122.496 13.9799C122.342 13.9627 122.187 13.9527 122.031 13.9499C121.975 13.9529 121.802 13.9699 121.649 13.9859C121.493 14.0029 121.218 14.0659 121.035 14.1229ZM76.4472 12.2249C76.5102 12.2349 76.7462 12.2479 76.9652 12.2579C77.2642 12.2709 77.4732 12.3049 77.8122 12.3879C78.0582 12.4519 78.3562 12.5449 78.4762 12.5919C78.7449 12.7035 79.001 12.8433 79.2402 13.0089C79.3032 13.0549 79.4362 13.1589 79.5322 13.2419C79.6322 13.3259 79.8122 13.5159 79.9342 13.6619C80.051 13.8001 80.1595 13.945 80.2592 14.0959C80.3162 14.1859 80.4252 14.3899 80.4992 14.5469C80.5722 14.6999 80.6882 15.0169 80.8842 15.6649V24.7209L80.6642 24.9409L79.4392 24.9579L79.1902 24.7279L79.1572 23.2319L78.9072 23.5159C78.7682 23.6729 78.5292 23.9129 78.3732 24.0529C78.2172 24.1929 77.9842 24.3769 77.8582 24.4599C77.6988 24.5649 77.5335 24.6607 77.3632 24.7469C77.1987 24.8249 77.0327 24.8995 76.8652 24.9709C76.7352 25.0239 76.5632 25.0879 76.4832 25.1109C76.3297 25.1543 76.1746 25.192 76.0182 25.2239C75.8151 25.2625 75.6102 25.2906 75.4042 25.3079C75.1622 25.3249 75.0222 25.3109 74.6742 25.2439C74.4735 25.2062 74.274 25.1618 74.0762 25.1109C73.9531 25.0745 73.831 25.0345 73.7102 24.9909C73.5295 24.9195 73.3523 24.8394 73.1792 24.7509C72.9881 24.6568 72.8048 24.5475 72.6312 24.4239C72.4683 24.2972 72.313 24.161 72.1662 24.0159C72.0127 23.8605 71.8768 23.6884 71.7612 23.5029C71.6768 23.3587 71.6013 23.2094 71.5352 23.0559C71.481 22.8966 71.4333 22.7352 71.3922 22.5719C71.3322 22.3219 71.3192 22.1779 71.3192 21.7379C71.3192 21.2939 71.3322 21.1499 71.3922 20.9029C71.4322 20.7369 71.4992 20.5199 71.5382 20.4199C71.5752 20.3159 71.6512 20.1529 71.7082 20.0529C71.7642 19.9489 71.8742 19.7789 71.9502 19.6689C72.0272 19.5589 72.1932 19.3689 72.3192 19.2519C72.4452 19.1319 72.6812 18.9449 72.8472 18.8349C73.2029 18.6037 73.5885 18.422 73.9932 18.2949C74.0932 18.2669 74.2552 18.2239 74.3582 18.2009C74.4582 18.1739 74.8102 18.1169 75.1382 18.0709C75.4682 18.0239 75.8862 17.9709 76.0682 17.9539L76.5662 17.8999C76.6562 17.8939 76.9322 17.8569 77.1812 17.8199C77.4272 17.7839 77.7392 17.7429 77.8782 17.7299C78.0142 17.7169 78.2002 17.6799 78.2932 17.6469C78.4253 17.5857 78.5474 17.5048 78.6552 17.4069C78.7622 17.3099 78.8882 17.1629 78.9382 17.0829C79.0212 16.9359 79.0242 16.9189 79.0242 16.3329C79.0242 15.8049 79.0142 15.7019 78.9512 15.4979C78.8999 15.3462 78.8319 15.2006 78.7482 15.0639C78.6782 14.9539 78.5522 14.8039 78.4732 14.7369C78.3413 14.6287 78.2038 14.5276 78.0612 14.4339C77.9038 14.3289 77.7371 14.2386 77.5632 14.1639C77.4011 14.1043 77.2346 14.0575 77.0652 14.0239C76.812 13.9897 76.5568 13.9717 76.3012 13.9699C76.046 13.9663 75.7907 13.9796 75.5372 14.0099C75.3407 14.0449 75.1466 14.0927 74.9562 14.1529C74.7672 14.2151 74.5847 14.2955 74.4112 14.3929C74.2718 14.4789 74.1388 14.5748 74.0132 14.6799C73.9192 14.7669 73.7732 14.9369 73.6872 15.0639C73.6145 15.1748 73.5458 15.2882 73.4812 15.4039C73.4498 15.4659 73.4054 15.5205 73.3512 15.5639C73.3012 15.5979 73.1962 15.6139 73.0362 15.6139C72.8402 15.6139 72.7872 15.6009 72.7542 15.5509C72.7312 15.5179 72.5782 15.4079 72.4152 15.3039C72.2747 15.2226 72.1433 15.1264 72.0232 15.0169C71.9759 14.9641 71.9386 14.9031 71.9132 14.8369C71.9002 14.7939 71.9172 14.7099 71.9472 14.6469C71.9772 14.5799 72.0902 14.4099 72.1932 14.2629C72.2962 14.1169 72.5252 13.8559 72.7012 13.6789C73.0342 13.3386 73.4161 13.0497 73.8342 12.8219C73.9492 12.7619 74.1622 12.6679 74.3082 12.6079C74.4542 12.5519 74.7732 12.4519 75.0222 12.3879C75.3642 12.3009 75.5672 12.2679 75.8862 12.2549C76.1112 12.2449 76.3042 12.2279 76.3142 12.2209C76.3585 12.2156 76.4034 12.2169 76.4472 12.2249ZM77.7622 19.2819C77.5222 19.3219 77.1872 19.3749 77.0152 19.4049C76.8392 19.4319 76.4802 19.4849 76.2182 19.5189C75.9649 19.5537 75.7098 19.5747 75.4542 19.5819C75.2761 19.5857 75.0985 19.6037 74.9232 19.6359C74.7832 19.6619 74.6202 19.6959 74.5572 19.7119C74.4912 19.7259 74.2912 19.8119 74.1122 19.9019C73.9022 20.0089 73.7072 20.1359 73.5812 20.2519C73.4482 20.3719 73.3352 20.5229 73.2552 20.6699C73.1852 20.7969 73.1052 21.0069 73.0762 21.1369C73.0362 21.3039 73.0262 21.4569 73.0402 21.6869C73.0462 21.8639 73.0832 22.0809 73.1162 22.1879C73.1522 22.2879 73.2222 22.4519 73.2762 22.5549C73.3282 22.6549 73.4612 22.8289 73.5742 22.9389C73.6842 23.0489 73.8802 23.1959 74.0092 23.2659C74.1352 23.3359 74.3212 23.4189 74.4242 23.4559C74.5242 23.4889 74.7102 23.5359 74.8392 23.5559C74.9862 23.5829 75.2312 23.5889 75.5202 23.5789C75.7662 23.5689 76.0882 23.5359 76.2342 23.5059C76.3802 23.4759 76.5742 23.4289 76.6662 23.4029C76.7562 23.3759 76.9582 23.2829 77.1142 23.1989C77.2672 23.1159 77.4642 22.9989 77.5432 22.9419C77.6262 22.8849 77.7352 22.7989 77.7922 22.7549C77.8452 22.7089 77.9552 22.6019 78.0342 22.5219C78.1142 22.4379 78.2272 22.2949 78.2902 22.2049C78.3502 22.1109 78.5002 21.8409 78.6222 21.6049C78.7422 21.3639 78.8682 21.0699 78.9042 20.9529C78.9412 20.8329 78.9842 20.6359 79.0042 20.5199C79.0242 20.3999 79.0412 20.0359 79.0412 19.7089V19.1189C78.8521 19.1243 78.6634 19.141 78.4762 19.1689C78.3202 19.1919 77.9982 19.2449 77.7622 19.2819ZM91.4282 12.2149C91.7342 12.2149 91.7872 12.2209 91.8802 12.2879C91.9402 12.3279 92.0102 12.3919 92.0402 12.4279C92.0792 12.4819 92.0892 12.6079 92.0892 13.1359C92.0922 13.7059 92.0862 13.7889 92.0292 13.8699C91.9801 13.9324 91.918 13.9836 91.8472 14.0199C91.7572 14.0629 91.6412 14.0799 91.3852 14.0799C91.1392 14.0799 90.9402 14.1029 90.6652 14.1669C90.4665 14.2104 90.2718 14.2706 90.0832 14.3469C89.9732 14.3969 89.7482 14.5269 89.5852 14.6369C89.4192 14.7439 89.0902 14.9909 88.8552 15.1809C88.6152 15.3709 88.2432 15.6749 88.0242 15.8549C87.8042 16.0389 87.5822 16.2219 87.4432 16.3489V23.2219H88.7052C89.7212 23.2219 89.9832 23.2289 90.0562 23.2689C90.1062 23.2929 90.1832 23.3529 90.2222 23.4029C90.2962 23.4829 90.2992 23.5159 90.3022 24.7069L90.0332 24.9569H86.9112C84.2012 24.9569 83.7762 24.9509 83.6902 24.9069C83.6233 24.8671 83.5665 24.8123 83.5242 24.7469C83.4642 24.6499 83.4582 24.5799 83.4582 23.5059L83.7462 23.2219H85.6162V14.0799L83.7402 14.0769L83.4582 13.7969V13.2359C83.4582 12.9289 83.4712 12.6379 83.4912 12.5949C83.5072 12.5479 83.5812 12.4719 83.7732 12.3449L86.7622 12.3609L86.9922 12.4779C87.1942 12.5779 87.2342 12.6179 87.4262 12.9619L87.4332 13.5859C87.4392 13.9299 87.4492 14.2129 87.4592 14.2129C87.4662 14.2129 87.6952 14.0499 87.9642 13.8559C88.2342 13.6589 88.5952 13.3929 88.7712 13.2619C88.9442 13.1359 89.2432 12.9219 89.4352 12.7949C89.6252 12.6649 89.8502 12.5349 89.9342 12.5049C90.0142 12.4749 90.2092 12.4109 90.3652 12.3609C90.5182 12.3149 90.7442 12.2609 90.8642 12.2449C90.9802 12.2309 91.2352 12.2149 91.4282 12.2149ZM98.5522 12.2279C98.5682 12.2349 98.7342 12.2409 98.9172 12.2449C99.1002 12.2479 99.3522 12.2649 99.4812 12.2849C99.6082 12.3009 99.8832 12.3579 100.096 12.4149C100.305 12.4709 100.581 12.5619 100.71 12.6179C100.837 12.6719 101.032 12.7719 101.142 12.8349C101.252 12.8989 101.438 13.0289 101.557 13.1219C101.673 13.2159 101.849 13.3759 101.942 13.4789C102.035 13.5789 102.148 13.7059 102.195 13.7629C102.238 13.8159 102.328 13.9429 102.394 14.0469C102.542 14.2726 102.665 14.5129 102.763 14.7639C102.809 14.8739 102.882 15.0969 102.929 15.2639C102.979 15.4339 103.028 15.7339 103.048 15.9649C103.068 16.2089 103.082 17.9439 103.082 20.4529C103.082 22.7249 103.068 24.5829 103.052 24.6409C103.035 24.6939 102.969 24.7869 102.786 24.9579H101.624L101.341 24.6939L101.335 23.9839C101.331 23.5929 101.318 23.2789 101.305 23.2889C101.291 23.2959 101.099 23.4889 100.88 23.7159C100.695 23.9095 100.5 24.0931 100.295 24.2659C100.192 24.3439 100.059 24.4399 99.9962 24.4839C99.8568 24.5714 99.713 24.6515 99.5652 24.7239C99.3882 24.8109 99.1362 24.9269 99.0002 24.9839C98.8739 25.0324 98.7465 25.0781 98.6182 25.1209C98.5452 25.1409 98.3422 25.1879 98.1702 25.2239C97.978 25.2638 97.7837 25.2929 97.5882 25.3109C97.3862 25.3279 97.2172 25.3139 96.8912 25.2579C96.6522 25.2139 96.3762 25.1609 96.2772 25.1339C96.1248 25.0926 95.9749 25.0425 95.8282 24.9839C95.6542 24.911 95.4827 24.8319 95.3142 24.7469C95.1742 24.6739 94.9642 24.5469 94.8492 24.4639C94.6834 24.3396 94.5267 24.2036 94.3802 24.0569C94.2274 23.9028 94.0885 23.7355 93.9652 23.5569C93.8678 23.3965 93.7826 23.2291 93.7102 23.0559C93.6562 22.9159 93.5902 22.7059 93.5642 22.5879C93.5272 22.4419 93.5072 22.1849 93.5002 21.8039C93.4942 21.3509 93.5042 21.1769 93.5502 20.9539C93.5872 20.7969 93.6472 20.5859 93.6862 20.4859C93.7262 20.3829 93.8092 20.1959 93.8762 20.0689C93.9392 19.9389 94.0382 19.7759 94.0952 19.7019C94.2611 19.4788 94.4528 19.2761 94.6662 19.0979C94.7882 18.9945 94.9158 18.8977 95.0482 18.8079C95.406 18.5856 95.7913 18.4108 96.1942 18.2879C96.3762 18.2339 96.7942 18.1509 97.1242 18.1009C97.4522 18.0539 97.7712 18.0069 97.8382 18.0009C97.9012 17.9939 98.1172 17.9709 98.3192 17.9469C98.5192 17.9269 98.8342 17.8869 99.0172 17.8599C99.1992 17.8339 99.5772 17.7839 99.8642 17.7499C100.245 17.7069 100.415 17.6729 100.528 17.6169C100.607 17.5729 100.757 17.4699 100.853 17.3869C100.966 17.2899 101.066 17.1629 101.119 17.0489C101.205 16.8729 101.208 16.8429 101.205 16.3319C101.205 15.9279 101.192 15.7449 101.145 15.5819C101.103 15.4383 101.049 15.2985 100.983 15.1639C100.911 15.0382 100.825 14.9208 100.727 14.8139C100.582 14.6811 100.426 14.5595 100.262 14.4499C100.064 14.31 99.8454 14.2011 99.6142 14.1269C99.3522 14.0399 99.1862 14.0099 98.8342 13.9799C98.5581 13.9566 98.2804 13.9566 98.0042 13.9799C97.7912 13.9999 97.4792 14.0529 97.3062 14.0999C97.1245 14.1491 96.9469 14.2127 96.7752 14.2899C96.6552 14.3499 96.4762 14.4599 96.3762 14.5339C96.2612 14.6229 96.1526 14.7198 96.0512 14.8239C95.9578 14.9309 95.8722 15.0445 95.7952 15.1639C95.7466 15.2305 95.7076 15.3036 95.6792 15.3809C95.6792 15.3979 95.6262 15.4579 95.5632 15.5149C95.4562 15.6049 95.4232 15.6149 95.2142 15.6149C95.0112 15.6149 94.9722 15.6009 94.9052 15.5349C94.8052 15.4486 94.6974 15.3716 94.5832 15.3049C94.4448 15.2221 94.3174 15.1219 94.2042 15.0069C94.0942 14.8839 94.0742 14.8439 94.0882 14.7469C94.0982 14.6769 94.1682 14.5439 94.2512 14.4299C94.3342 14.3199 94.4242 14.1899 94.4542 14.1469C94.6994 13.8391 94.9766 13.5582 95.2812 13.3089C95.4362 13.1889 95.6422 13.0389 95.7452 12.9719C95.8452 12.9049 95.9712 12.8289 96.0282 12.8019C96.0812 12.7749 96.2672 12.6949 96.4432 12.6279C96.6933 12.534 96.9483 12.4538 97.2072 12.3879C97.5392 12.3009 97.7652 12.2649 98.0872 12.2449C98.3232 12.2309 98.5322 12.2249 98.5522 12.2279ZM99.8472 19.2979C99.6442 19.3279 99.3392 19.3779 99.1662 19.4049C98.6554 19.4943 98.1399 19.5544 97.6222 19.5849C97.3655 19.594 97.11 19.6241 96.8582 19.6749C96.7282 19.7089 96.4792 19.8089 96.3002 19.8949C95.9381 20.0594 95.6338 20.3291 95.4272 20.6689C95.3672 20.7789 95.2942 20.9599 95.2642 21.0699C95.2342 21.1839 95.2142 21.4069 95.2142 21.5869C95.2142 21.7609 95.2342 21.9869 95.2642 22.0949C95.3316 22.3519 95.4488 22.5932 95.6092 22.8049C95.6762 22.8949 95.8222 23.0319 95.9352 23.1049C96.0452 23.1789 96.1842 23.2649 96.2472 23.3019C96.3072 23.3389 96.4102 23.3859 96.4762 23.4119C96.5392 23.4359 96.7122 23.4859 96.8582 23.5219C97.0442 23.5689 97.2372 23.5889 97.5052 23.5889C97.7452 23.5889 98.0272 23.5629 98.2692 23.5189C98.4792 23.4829 98.7182 23.4329 98.8012 23.4059C98.8812 23.3829 99.0402 23.3219 99.1492 23.2719C99.2592 23.2219 99.4752 23.0989 99.6312 22.9959C99.7842 22.8889 100.01 22.7089 100.129 22.5879C100.252 22.4679 100.408 22.2819 100.481 22.1709C100.554 22.0609 100.7 21.7979 100.803 21.5869C100.896 21.3957 100.981 21.2008 101.059 21.0029C101.096 20.8929 101.149 20.6599 101.175 20.4859C101.202 20.3099 101.225 19.9319 101.225 19.6419V19.1179C101.003 19.1232 100.781 19.1446 100.561 19.1819C100.324 19.2227 100.086 19.2614 99.8472 19.2979ZM106.721 12.4619L106.848 12.5619C106.934 12.6319 106.977 12.6949 106.994 12.7779C107.004 12.8419 107.077 13.0819 107.16 13.3119C107.239 13.5389 107.379 13.9399 107.465 14.1969C107.555 14.4539 107.751 15.0139 107.9 15.4469C108.053 15.8779 108.222 16.3719 108.282 16.5489L108.594 17.4489C108.707 17.7699 108.857 18.1969 108.927 18.4009C109 18.6009 109.149 19.0279 109.262 19.3509C109.375 19.6719 109.531 20.1229 109.607 20.3529C109.687 20.5799 109.873 21.1199 110.022 21.5539L110.351 22.4949C110.381 22.5819 110.414 22.6549 110.424 22.6549C110.431 22.6549 110.574 22.2609 110.737 21.7779L111.407 19.7859C111.613 19.1679 112.072 17.8039 112.427 16.7489C112.782 15.6919 113.224 14.3799 113.407 13.8289C113.593 13.2789 113.772 12.7789 113.802 12.7149C113.851 12.6382 113.917 12.5733 113.994 12.5249C114.117 12.4519 114.16 12.4449 114.576 12.4449C114.821 12.4479 115.084 12.4579 115.157 12.4719C115.27 12.4919 115.3 12.5149 115.446 12.7949L115.346 13.0119C115.29 13.1289 115.064 13.7459 114.845 14.3799C114.625 15.0099 114.25 16.0919 114.008 16.7829L113.403 18.5179C113.314 18.7809 113.204 19.0979 113.161 19.2179L112.899 19.9689C112.792 20.2629 112.679 20.5829 112.646 20.6869C112.613 20.7869 112.503 21.0999 112.404 21.3869L112.002 22.5379C111.872 22.904 111.745 23.2711 111.62 23.6389C111.53 23.8959 111.417 24.2169 111.371 24.3569C111.329 24.4769 111.279 24.5938 111.221 24.7069C111.175 24.7752 111.117 24.8343 111.049 24.8809C110.942 24.9509 110.903 24.9539 109.561 24.9569L109.445 24.8409C109.378 24.7739 109.328 24.6869 109.325 24.6469C109.325 24.6069 109.265 24.3999 109.189 24.1899C109.082 23.878 108.974 23.5667 108.863 23.2559C108.76 22.9519 108.611 22.5249 108.531 22.3049L108.193 21.3369C108.083 21.0229 107.94 20.6199 107.877 20.4369L107.718 19.9689C107.694 19.8959 107.522 19.3989 107.336 18.8679C107.15 18.3339 106.954 17.7799 106.901 17.6329C106.851 17.4869 106.701 17.0559 106.569 16.6829C106.439 16.3049 106.243 15.7409 106.134 15.4309L105.808 14.4969C105.735 14.2929 105.589 13.8669 105.476 13.5459C105.366 13.2219 105.277 12.9119 105.277 12.8519C105.277 12.7819 105.31 12.7019 105.376 12.6249C105.424 12.5644 105.483 12.5135 105.549 12.4749C105.592 12.4579 105.871 12.4489 106.721 12.4619Z" fill="#E74430"/>
</g>
</g>
<defs>
<clipPath id="clip0_337_2975">
<rect width="135" height="33" fill="white"/>
</clipPath>
</defs>
</svg>
