<svg width="164" height="52" viewBox="0 0 164 52" fill="none" xmlns="http://www.w3.org/2000/svg">
<path d="M131.374 24.5863C130.73 24.0598 130.028 23.7088 129.326 23.2525C128.888 22.9717 128.42 22.6909 128.039 22.3048C127.396 21.673 127.513 20.4094 128.215 19.8478C129.18 19.0756 130.789 19.4968 130.964 21.0763C130.964 21.1114 130.994 21.1465 131.023 21.1465H132.485C132.515 21.1465 132.544 21.1114 132.544 21.0763C132.456 19.9882 132.105 19.0756 131.462 18.4789C130.847 17.9173 130.145 17.6365 129.385 17.6365C125.524 17.6365 125.173 22.5505 127.25 24.0949C127.484 24.2704 129.531 25.4989 130.262 26.0605C130.994 26.587 131.198 27.5698 130.906 28.342C130.613 29.044 129.882 29.5354 129.151 29.4652C128.332 29.395 127.718 28.8685 127.484 28.0612C127.454 27.9208 127.425 27.64 127.425 27.4996C127.425 27.4645 127.396 27.4294 127.367 27.4294H125.787C125.758 27.4294 125.729 27.4645 125.729 27.4996C125.729 28.8685 126.021 29.6407 126.782 30.3427C127.513 31.0096 128.303 31.2904 129.151 31.2904C131.315 31.2904 132.427 29.8162 132.661 28.3069C132.836 26.8327 132.485 25.4989 131.374 24.5863Z" fill="#161616"/>
<path d="M62.4315 17.9172H61.7295H60.969C60.9398 17.9172 60.9105 17.9523 60.9105 17.9523L59.5943 23.112C59.565 23.1822 59.5065 23.1822 59.4773 23.112L58.161 17.9523C58.161 17.9172 58.1318 17.9172 58.1025 17.9172H57.342H56.64H55.704C55.6748 17.9172 55.6455 17.9523 55.6455 17.9874V31.1499C55.6455 31.185 55.6748 31.2201 55.704 31.2201H57.2835C57.3128 31.2201 57.342 31.185 57.342 31.1499V21.1464C57.342 21.0762 57.4298 21.0411 57.459 21.1113L58.7753 26.3061L58.863 26.6571C58.863 26.6922 58.8923 26.6922 58.9215 26.6922H60.15C60.1793 26.6922 60.2085 26.6571 60.2085 26.6571L60.2963 26.3061L61.6125 21.1113C61.6418 21.0411 61.7295 21.0411 61.7295 21.1464V31.1499C61.7295 31.185 61.7588 31.2201 61.788 31.2201H63.3675C63.3968 31.2201 63.426 31.185 63.426 31.1499V17.9874C63.426 17.9523 63.3968 17.9172 63.3675 17.9172H62.4315Z" fill="#161616"/>
<path d="M107.067 17.9172C107.037 17.9172 107.008 17.9523 107.008 17.9523L105.692 23.112C105.663 23.1822 105.604 23.1822 105.575 23.112L104.259 17.9523C104.259 17.9172 104.229 17.9172 104.2 17.9172H101.772C101.743 17.9172 101.714 17.9523 101.714 17.9874V31.1499C101.714 31.185 101.743 31.2201 101.772 31.2201H103.352C103.381 31.2201 103.41 31.185 103.41 31.1499V21.1464C103.41 21.0762 103.498 21.0411 103.527 21.1113L104.844 26.3061L104.931 26.6571C104.931 26.6922 104.961 26.6922 104.99 26.6922H106.218C106.248 26.6922 106.277 26.6571 106.277 26.6571L106.365 26.3061L107.681 21.1113C107.71 21.0411 107.798 21.0411 107.798 21.1464V31.1499C107.798 31.185 107.827 31.2201 107.856 31.2201H109.436C109.465 31.2201 109.494 31.185 109.494 31.1499V17.9874C109.494 17.9523 109.465 17.9172 109.436 17.9172H107.067Z" fill="#161616"/>
<path d="M86.5924 17.9172H83.6381H82.0586H79.0751C79.0459 17.9172 79.0166 17.9523 79.0166 17.9874V19.6371C79.0166 19.6722 79.0459 19.7073 79.0751 19.7073H81.9709V31.1499C81.9709 31.185 82.0001 31.2201 82.0294 31.2201H83.6089C83.6381 31.2201 83.6674 31.185 83.6674 31.1499V19.7073H86.5631C86.5924 19.7073 86.6216 19.6722 86.6216 19.6371V17.9874C86.6509 17.9523 86.6216 17.9172 86.5924 17.9172Z" fill="#161616"/>
<path d="M95.9522 31.2201H97.3855C97.4147 31.2201 97.4439 31.185 97.4439 31.1148L94.4605 17.9172C94.4605 17.8821 94.4312 17.8821 94.402 17.8821H93.8462H92.881H92.3252C92.2959 17.8821 92.2667 17.9172 92.2667 17.9172L89.2832 31.1148C89.2832 31.1499 89.3125 31.2201 89.3417 31.2201H90.775C90.8042 31.2201 90.8335 31.185 90.8335 31.185L91.711 27.324C91.711 27.2889 91.7402 27.2889 91.7695 27.2889H94.9577C94.9869 27.2889 95.0162 27.324 95.0162 27.324L95.8937 31.185C95.8937 31.185 95.923 31.2201 95.9522 31.2201ZM92.1497 25.3935L93.3197 20.2338C93.349 20.1636 93.4075 20.1636 93.4367 20.2338L94.6067 25.3935C94.6067 25.4286 94.5775 25.4988 94.5482 25.4988H92.2375C92.179 25.4988 92.1497 25.4286 92.1497 25.3935Z" fill="#161616"/>
<path d="M120.58 31.2201H122.013C122.043 31.2201 122.072 31.185 122.072 31.1148L119.088 17.9172C119.088 17.8821 119.059 17.8821 119.03 17.8821H118.474H117.509H116.953C116.924 17.8821 116.895 17.9172 116.895 17.9172L113.911 31.1148C113.911 31.1499 113.94 31.2201 113.97 31.2201H115.403C115.432 31.2201 115.461 31.185 115.461 31.185L116.339 27.324C116.339 27.2889 116.368 27.2889 116.397 27.2889H119.586C119.615 27.2889 119.644 27.324 119.644 27.324L120.522 31.185C120.522 31.185 120.551 31.2201 120.58 31.2201ZM116.778 25.3935L117.948 20.2338C117.977 20.1636 118.035 20.1636 118.065 20.2338L119.235 25.3935C119.235 25.4286 119.205 25.4988 119.176 25.4988H116.865C116.807 25.4988 116.778 25.4286 116.778 25.3935Z" fill="#161616"/>
<path d="M69.8606 29.2545V25.1829C69.8606 25.1478 69.8898 25.1127 69.9191 25.1127H74.1603C74.1896 25.1127 74.2188 25.0776 74.2188 25.0425V23.3928C74.2188 23.3577 74.1896 23.3226 74.1603 23.3226H69.9191C69.8898 23.3226 69.8606 23.2875 69.8606 23.2524V19.7775C69.8606 19.7424 69.8898 19.7073 69.9191 19.7073H74.7161C74.7453 19.7073 74.7746 19.6722 74.7746 19.6371V17.9874C74.7746 17.9523 74.7453 17.9172 74.7161 17.9172H69.8606H68.2226C68.1933 17.9172 68.1641 17.9523 68.1641 17.9874V19.7073V23.3577V25.1478V29.3598V31.1499C68.1641 31.185 68.1933 31.2201 68.2226 31.2201H69.8606H74.9208C74.9501 31.2201 74.9793 31.185 74.9793 31.1499V29.43C74.9793 29.3949 74.9501 29.3598 74.9208 29.3598H69.8898C69.8898 29.3247 69.8606 29.2896 69.8606 29.2545Z" fill="#161616"/>
<path d="M145.882 31.0797L140.383 24.2703C140.353 24.2352 140.353 24.2001 140.383 24.165L145.326 17.9874C145.355 17.9523 145.326 17.8821 145.297 17.8821H143.278C143.249 17.8821 143.249 17.8821 143.249 17.9172L139.037 23.1822C139.008 23.2173 138.949 23.1822 138.949 23.1471V18.0225C138.949 17.9874 138.92 17.9523 138.891 17.9523H137.282C137.253 17.9523 137.224 17.9874 137.224 18.0225V31.185C137.224 31.2201 137.253 31.2552 137.282 31.2552H138.862C138.891 31.2552 138.92 31.2201 138.92 31.185V25.3935C138.92 25.3233 138.979 25.2882 139.008 25.3584L143.746 31.2552L143.776 31.2903H145.794C145.882 31.2201 145.911 31.1148 145.882 31.0797Z" fill="#161616"/>
<path d="M44.7932 10.8269L35.1992 19.3913L36.9835 14.3369L44.7932 10.8269Z" fill="#E17726" stroke="#E17726" stroke-width="0.2925" stroke-linecap="round" stroke-linejoin="round"/>
<path d="M22.6221 10.8269L32.1576 19.4615L30.4611 14.3369L22.6221 10.8269Z" fill="#E27625" stroke="#E27625" stroke-width="0.2925" stroke-linecap="round" stroke-linejoin="round"/>
<path d="M41.3426 30.6584L38.7686 35.3619L44.2676 37.187L45.8178 30.7637L41.3426 30.6584Z" fill="#E27625" stroke="#E27625" stroke-width="0.2925" stroke-linecap="round" stroke-linejoin="round"/>
<path d="M21.6279 30.7637L23.1782 37.187L28.6479 35.3619L26.1032 30.6584L21.6279 30.7637Z" fill="#E27625" stroke="#E27625" stroke-width="0.2925" stroke-linecap="round" stroke-linejoin="round"/>
<path d="M28.355 22.7258L26.834 25.4987L32.2452 25.7795L32.0697 18.7595L28.355 22.7258Z" fill="#E27625" stroke="#E27625" stroke-width="0.2925" stroke-linecap="round" stroke-linejoin="round"/>
<path d="M39.0904 22.7257L35.3172 18.6892L35.2002 25.7794L40.6114 25.4986L39.0904 22.7257Z" fill="#E27625" stroke="#E27625" stroke-width="0.2925" stroke-linecap="round" stroke-linejoin="round"/>
<path d="M28.6475 35.3618L31.9235 33.4664L29.0862 30.7988L28.6475 35.3618Z" fill="#E27625" stroke="#E27625" stroke-width="0.2925" stroke-linecap="round" stroke-linejoin="round"/>
<path d="M35.5215 33.4664L38.7682 35.3618L38.3295 30.7988L35.5215 33.4664Z" fill="#E27625" stroke="#E27625" stroke-width="0.2925" stroke-linecap="round" stroke-linejoin="round"/>
<path d="M38.7682 35.3617L35.5215 33.4663L35.7847 35.9935L35.7555 37.0816L38.7682 35.3617Z" fill="#D5BFB2" stroke="#D5BFB2" stroke-width="0.2925" stroke-linecap="round" stroke-linejoin="round"/>
<path d="M28.6475 35.3617L31.6895 37.0816L31.6602 35.9935L31.9235 33.4663L28.6475 35.3617Z" fill="#D5BFB2" stroke="#D5BFB2" stroke-width="0.2925" stroke-linecap="round" stroke-linejoin="round"/>
<path d="M31.7486 29.114L29.0283 28.1663L30.9296 27.1133L31.7486 29.114Z" fill="#233447" stroke="#233447" stroke-width="0.2925" stroke-linecap="round" stroke-linejoin="round"/>
<path d="M35.6973 29.114L36.487 27.1133L38.4175 28.1663L35.6973 29.114Z" fill="#233447" stroke="#233447" stroke-width="0.2925" stroke-linecap="round" stroke-linejoin="round"/>
<path d="M28.6473 35.3619L29.1153 30.6584L26.1025 30.7637L28.6473 35.3619Z" fill="#CC6228" stroke="#CC6228" stroke-width="0.2925" stroke-linecap="round" stroke-linejoin="round"/>
<path d="M38.3291 30.6584L38.7679 35.3619L41.3419 30.7637L38.3291 30.6584Z" fill="#CC6228" stroke="#CC6228" stroke-width="0.2925" stroke-linecap="round" stroke-linejoin="round"/>
<path d="M40.6105 25.4988L35.1992 25.7796L35.6965 29.1141L36.4862 27.1134L38.4167 28.1664L40.6105 25.4988Z" fill="#CC6228" stroke="#CC6228" stroke-width="0.2925" stroke-linecap="round" stroke-linejoin="round"/>
<path d="M29.0277 28.1664L30.929 27.1134L31.748 29.1141L32.2452 25.7796L26.834 25.4988L29.0277 28.1664Z" fill="#CC6228" stroke="#CC6228" stroke-width="0.2925" stroke-linecap="round" stroke-linejoin="round"/>
<path d="M26.834 25.4988L29.0862 30.7989L29.0277 28.1664L26.834 25.4988Z" fill="#E27525" stroke="#E27525" stroke-width="0.2925" stroke-linecap="round" stroke-linejoin="round"/>
<path d="M38.4169 28.1664L38.3291 30.7989L40.6106 25.4988L38.4169 28.1664Z" fill="#E27525" stroke="#E27525" stroke-width="0.2925" stroke-linecap="round" stroke-linejoin="round"/>
<path d="M32.2453 25.7795L31.748 29.114L32.3623 33.0803L32.5086 27.8504L32.2453 25.7795Z" fill="#E27525" stroke="#E27525" stroke-width="0.2925" stroke-linecap="round" stroke-linejoin="round"/>
<path d="M35.1998 25.7795L34.9365 27.8504L35.0535 33.0803L35.697 29.114L35.1998 25.7795Z" fill="#E27525" stroke="#E27525" stroke-width="0.2925" stroke-linecap="round" stroke-linejoin="round"/>
<path d="M35.6972 29.114L35.0537 33.0803L35.5217 33.4664L38.3297 30.7988L38.4175 28.1663L35.6972 29.114Z" fill="#F5841F" stroke="#F5841F" stroke-width="0.2925" stroke-linecap="round" stroke-linejoin="round"/>
<path d="M29.0283 28.1663L29.0868 30.7988L31.9241 33.4664L32.3628 33.0803L31.7486 29.114L29.0283 28.1663Z" fill="#F5841F" stroke="#F5841F" stroke-width="0.2925" stroke-linecap="round" stroke-linejoin="round"/>
<path d="M35.7552 37.0817L35.7845 35.9936L35.5212 35.7479H31.8942L31.6602 35.9936L31.6895 37.0817L28.6475 35.3618L29.7005 36.4148L31.865 38.2049H35.5505L37.715 36.4148L38.768 35.3618L35.7552 37.0817Z" fill="#C0AC9D" stroke="#C0AC9D" stroke-width="0.2925" stroke-linecap="round" stroke-linejoin="round"/>
<path d="M35.5212 33.4664L35.0532 33.0803H32.3622L31.9234 33.4664L31.6602 35.9936L31.8942 35.7479H35.5212L35.7844 35.9936L35.5212 33.4664Z" fill="#161616" stroke="#161616" stroke-width="0.2925" stroke-linecap="round" stroke-linejoin="round"/>
<path d="M45.2032 19.9529L46.0222 15.2144L44.7937 10.8269L35.5215 19.1105L39.09 22.7258L44.121 24.4808L45.2325 22.9364L44.7645 22.5152L45.525 21.6728L44.94 21.1112L45.7005 20.4092L45.2032 19.9529Z" fill="#763E1A" stroke="#763E1A" stroke-width="0.2925" stroke-linecap="round" stroke-linejoin="round"/>
<path d="M21.4229 15.2144L22.2419 19.9529L21.7154 20.4092L22.4759 21.1112L21.8909 21.6728L22.6806 22.5152L22.1834 22.9364L23.2949 24.4808L28.3551 22.7258L31.9236 19.1105L22.6221 10.8269L21.4229 15.2144Z" fill="#763E1A" stroke="#763E1A" stroke-width="0.2925" stroke-linecap="round" stroke-linejoin="round"/>
<path d="M44.1206 24.4806L39.0896 22.7256L40.6106 25.4985L38.3291 30.7986L41.3419 30.7635H45.8171L44.1206 24.4806Z" fill="#F5841F" stroke="#F5841F" stroke-width="0.2925" stroke-linecap="round" stroke-linejoin="round"/>
<path d="M28.3554 22.7256L23.2952 24.4806L21.6279 30.7635H26.1032L29.0867 30.7986L26.8344 25.4985L28.3554 22.7256Z" fill="#F5841F" stroke="#F5841F" stroke-width="0.2925" stroke-linecap="round" stroke-linejoin="round"/>
<path d="M35.1994 25.7795L35.5212 19.1105L36.9837 14.3369H30.4609L31.9234 19.1105L32.2452 25.7795L32.3622 27.8855V33.0803H35.0532V27.8855L35.1994 25.7795Z" fill="#F5841F" stroke="#F5841F" stroke-width="0.2925" stroke-linecap="round" stroke-linejoin="round"/>
</svg>
