<svg width="180" height="60" viewBox="0 0 180 60" fill="none" xmlns="http://www.w3.org/2000/svg">
<path d="M102.946 38H100.057V27.5371H99.9707L95.7598 37.8496H93.7188L89.5078 27.5371H89.4219V38H86.5322V22.499H90.292L94.6963 33.4883H94.7822L99.1865 22.499H102.946V38ZM110.541 38.2471C107.061 38.2471 104.837 36.0127 104.837 32.2314C104.837 28.5039 107.093 26.2373 110.541 26.2373C113.989 26.2373 116.245 28.4932 116.245 32.2314C116.245 36.0234 114.021 38.2471 110.541 38.2471ZM110.541 35.8516C112.077 35.8516 113.055 34.5518 113.055 32.2422C113.055 29.9541 112.066 28.6328 110.541 28.6328C109.016 28.6328 108.017 29.9541 108.017 32.2422C108.017 34.5518 108.994 35.8516 110.541 35.8516ZM128.33 30.7705H125.419C125.236 29.5566 124.431 28.6973 123.142 28.6973C121.595 28.6973 120.628 30.0078 120.628 32.2314C120.628 34.498 121.595 35.7871 123.152 35.7871C124.409 35.7871 125.226 35.0352 125.419 33.7783H128.341C128.18 36.4961 126.149 38.2471 123.12 38.2471C119.65 38.2471 117.448 35.9912 117.448 32.2314C117.448 28.5361 119.65 26.2373 123.099 26.2373C126.214 26.2373 128.19 28.1602 128.33 30.7705ZM129.931 38V22.499H133.014V28.5361H133.078C133.69 27.0859 134.947 26.2695 136.698 26.2695C139.255 26.2695 140.716 27.9238 140.716 30.5879V38H137.579V31.2539C137.579 29.7715 136.849 28.8691 135.42 28.8691C133.938 28.8691 133.067 29.9111 133.067 31.4258V38H129.931ZM147.172 35.916C148.536 35.916 149.664 35.0244 149.664 33.7783V32.9404L147.236 33.0908C146.065 33.1768 145.399 33.7031 145.399 34.5195C145.399 35.3789 146.108 35.916 147.172 35.916ZM146.141 38.1826C143.949 38.1826 142.284 36.7646 142.284 34.6914C142.284 32.5967 143.896 31.3828 146.764 31.2109L149.664 31.0391V30.2764C149.664 29.2021 148.912 28.5791 147.73 28.5791C146.56 28.5791 145.818 29.1592 145.668 30.0078H142.8C142.918 27.7734 144.819 26.2373 147.87 26.2373C150.824 26.2373 152.747 27.7627 152.747 30.083V38H149.718V36.2383H149.653C149.009 37.4629 147.58 38.1826 146.141 38.1826Z" fill="black"/>
<g clip-path="url(#clip0_594_2840)">
<path d="M34.4008 13.4882C37.833 11.4913 41.2728 9.50724 44.7199 7.53611C47.7198 5.80811 49.5199 4.91992 49.9999 4.91992C50.4798 4.91992 51.968 5.61587 54.4399 7.0324C56.4799 8.20787 61.1359 10.8962 64.76 13.0083C70.3518 16.2483 71.4318 16.968 71.7679 17.6639C72.1519 18.4083 72.1999 19.512 72.1999 30.0001C72.1999 40.4882 72.1519 41.592 71.7679 42.3601C71.4318 43.056 70.5678 43.6561 66.44 46.0563C63.7279 47.6162 59.096 50.2799 56.1196 51.9842C52.4959 54.072 50.4798 55.0799 49.9999 55.0799C49.5203 55.0799 47.7439 54.2159 44.7199 52.4641C42.2001 51.0243 37.5678 48.3601 34.3999 46.5362C29.4799 43.704 28.5679 43.0802 28.2318 42.3601C27.8478 41.592 27.7998 40.4882 27.7998 30.0001C27.7998 19.512 27.8478 18.4083 28.2318 17.6402C28.5679 16.9442 29.5278 16.2962 34.3999 13.4882H34.4008Z" fill="#8D6748"/>
<path d="M40.0886 13.6318C44.4807 11.112 48.3925 8.85564 48.8007 8.66383C49.1848 8.44783 49.7122 8.27979 49.9282 8.27979C50.1684 8.27979 50.7205 8.44827 51.1288 8.66427C51.5608 8.88027 55.5926 11.1837 60.0565 13.7757C64.545 16.3677 68.4088 18.7437 68.6485 19.0798C69.0805 19.6561 69.1047 20.2799 69.0805 40.44L68.5284 41.0396C68.2407 41.3757 64.0646 43.9198 59.2404 46.704C51.9448 50.9039 50.3607 51.72 49.7606 51.6236C49.3528 51.5757 45.1045 49.2239 40.2808 46.4396C35.4567 43.6558 31.4006 41.1839 31.2326 40.9679C31.0166 40.656 30.9207 37.896 30.8965 19.4401L31.497 18.8396C31.8084 18.5039 35.6727 16.1759 40.0886 13.6318Z" fill="white"/>
<path d="M40.7596 14.2082C45.4395 11.5199 49.4238 9.264 49.6156 9.19229C49.8078 9.12015 50.1197 9.12015 50.3357 9.19229C50.5517 9.264 54.4397 11.472 58.9995 14.0881C63.5601 16.7039 67.5198 19.1279 68.3596 20.0402V29.8799C68.3596 36.2161 68.2637 39.9122 68.1195 40.2479C67.9518 40.6082 64.8319 42.5522 59.0475 45.8881C54.1996 48.6961 50.1197 51 49.9996 51C49.8558 51 45.8235 48.7441 40.9998 45.9602C36.1756 43.176 32.0958 40.7283 31.9278 40.4881C31.7118 40.1762 31.6396 37.7522 31.6396 30C31.6396 22.224 31.7118 19.8242 31.9278 19.5119C32.0958 19.2959 36.0793 16.9199 40.7596 14.2082Z" fill="#8D6748"/>
<path d="M49.3523 17.8082C49.3281 17.6397 49.4482 17.3762 49.6405 17.2077C49.904 16.968 50.0241 17.0159 50.2885 17.4479C50.4561 17.7603 50.5762 18.2402 50.6004 18.5279C50.6004 18.8403 50.4803 19.1284 50.3602 19.2001C50.2401 19.2723 49.9761 19.1522 49.8081 18.9362C49.5445 18.6001 49.4962 18.6001 49.3285 19.1042C49.1601 19.5837 49.0884 19.6079 48.9203 19.3202C48.8002 19.128 48.6801 18.7197 48.6801 18.4083C48.6801 18.048 48.8002 17.9279 49.0404 18C49.2564 18.0722 49.3761 17.9763 49.3523 17.8082ZM47.6001 24.7682C47.2645 24.0238 46.9521 22.8242 46.8562 21.7679L46.6882 20.0399H52.4001L52.2325 21.888C52.1124 23.0639 51.848 24.1681 51.5123 24.8399C50.9602 25.9199 50.9602 25.9199 48.2002 26.04L47.6001 24.7682ZM34.0401 32.52C33.5843 32.52 33.5605 32.3519 33.5605 29.7599C33.5605 27.1442 33.5843 26.9999 34.0401 26.9999C34.3602 26.9999 34.7602 27.3999 35.2402 28.2C35.6484 28.848 36.0325 29.3759 36.1521 29.3759C36.2485 29.3759 36.6563 28.848 37.0403 28.1762C37.5682 27.3122 37.9043 26.9761 38.3121 26.9761C38.8405 26.9761 38.8405 27.0483 38.8405 29.7599C38.8405 32.3519 38.8163 32.5204 38.3601 32.5204C37.9281 32.5204 37.8805 32.3519 37.8805 30.96C37.8805 29.8563 37.7842 29.4001 37.5924 29.4001C37.4239 29.4001 37.0161 29.8079 36.1279 31.2002L35.7443 30.5997C35.5283 30.2883 35.1685 29.7841 34.9525 29.5197C34.5451 29.0411 34.5442 29.0877 34.5205 30.7596V30.7682C34.5205 32.3519 34.4721 32.52 34.0401 32.52ZM41.3841 28.2721C41.6722 27.8881 42.1522 27.4561 42.4641 27.288C42.7764 27.12 43.3281 26.9999 43.7125 26.9999C44.0724 26.9999 44.6483 27.1442 45.0323 27.3122C45.3922 27.504 45.8721 28.0319 46.1123 28.5119C46.3283 28.9918 46.5201 29.5444 46.5201 29.7604C46.5201 29.9522 46.3521 30.4801 46.1603 30.96C45.9685 31.4162 45.4881 31.9441 45.0803 32.1601C44.6962 32.3519 44.0482 32.52 43.6404 32.52C43.2559 32.52 42.6321 32.3519 42.2723 32.1839C41.8882 31.9921 41.4325 31.5359 41.2402 31.176C41.0484 30.8162 40.8804 30.1682 40.8804 29.7362C40.8804 29.3042 41.1201 28.6324 41.3841 28.2721ZM48.8724 28.2C49.1359 27.8639 49.5921 27.4561 49.9044 27.2885C50.2163 27.12 50.7684 26.9999 51.1525 26.9999C51.5123 26.9999 52.1603 27.1684 52.5923 27.3602C53.2641 27.6963 53.3125 27.7922 53.0001 28.1041C52.7124 28.3922 52.5206 28.416 52.1124 28.2C51.8005 28.0561 51.2959 27.9602 50.9602 27.9602C50.6241 27.9602 50.1442 28.1762 49.8802 28.4397C49.5605 28.7603 49.4003 29.2402 49.4003 29.88C49.4003 30.6481 49.5441 30.9358 50.0725 31.3199C50.4323 31.5838 50.8643 31.7998 51.0324 31.7998C51.1762 31.7998 51.6562 31.6322 52.0402 31.44C52.6882 31.1039 52.7841 31.1039 53.0001 31.44C53.1924 31.7039 53.0965 31.872 52.7124 32.1601C52.4001 32.3519 51.7521 32.52 51.2721 32.52C50.7684 32.52 50.0483 32.3282 49.6405 32.088C49.256 31.8482 48.8002 31.3441 48.6322 30.9605C48.4883 30.5522 48.3686 29.9042 48.3924 29.5202C48.4162 29.1119 48.6326 28.5119 48.8724 28.2ZM55.6401 32.52C55.1843 32.52 55.1605 32.3519 55.1605 29.7599C55.1605 27.1442 55.1843 26.9999 55.6401 26.9999C56.0483 26.9999 56.1205 27.1442 56.1205 29.4001L58.6403 29.28V28.1283C58.6403 27.0958 58.7125 26.9999 59.1924 26.9999C59.7203 26.9999 59.7203 27.0483 59.7203 29.7604C59.7203 32.3524 59.6961 32.52 59.2404 32.52C58.8321 32.52 58.7604 32.3282 58.6399 30.2399L56.1205 30.1202V31.3199C56.1205 32.3524 56.0483 32.52 55.6401 32.52ZM62.6005 29.7599C63.0325 28.8242 63.4645 27.8159 63.5841 27.5282C63.7042 27.2401 63.9924 26.9761 64.2084 26.9761C64.5203 26.9761 64.9523 27.6721 65.7921 29.5681C66.4163 30.9842 66.9205 32.2318 66.9205 32.3282C66.9205 32.4241 66.7045 32.52 66.4401 32.52C66.1204 32.52 65.8802 32.2802 65.7204 31.8003C65.5044 31.1281 65.4085 31.0801 64.2801 31.0801C63.2001 31.0801 63.0562 31.1281 62.7205 31.7998C62.5045 32.2318 62.1685 32.52 61.8803 32.52C61.4721 32.52 61.4483 32.4241 61.6164 31.9679C61.7365 31.6802 62.1922 30.6714 62.6005 29.7599ZM58.7604 34.3681C54.0801 34.416 46.3041 34.416 41.4804 34.3681C36.6563 34.3201 40.4963 34.2959 50.0003 34.2959C59.5043 34.2959 63.4403 34.3201 58.7604 34.3681Z" fill="white"/>
<path d="M47.624 22.1518C47.5518 21.6481 47.5518 21.1198 47.624 21.0001C47.6961 20.8316 48.5122 20.7599 51.4398 20.88V21.9358C51.4398 22.7998 51.3439 23.0158 50.9603 23.088C50.6959 23.1359 49.9041 23.256 49.1839 23.3519C48.3921 23.4478 47.8879 23.4241 47.8404 23.2802C47.792 23.1601 47.6957 22.6322 47.624 22.1518ZM41.9358 29.7598C41.9121 29.352 42.0801 28.7761 42.3203 28.488C42.5838 28.1039 42.9683 27.9601 43.5921 27.9601C44.12 27.9359 44.6479 28.1039 44.9119 28.3679C45.1758 28.6318 45.3439 29.1602 45.3439 29.7598C45.3439 30.3603 45.1758 30.8882 44.9119 31.1521C44.6484 31.4156 44.12 31.5841 43.5921 31.5599C42.9199 31.5599 42.5838 31.4161 42.3199 31.032C42.1281 30.7201 41.9358 30.1434 41.9358 29.7598ZM63.3682 30.2402L63.6801 29.4721C63.8719 29.0401 64.1121 28.6798 64.208 28.6798C64.3039 28.656 64.5679 28.9921 64.7601 29.3999C64.9519 29.784 65.072 30.168 64.9999 30.2402C64.9282 30.3119 64.5441 30.3361 63.3682 30.2402Z" fill="#8D6748"/>
</g>
<defs>
<clipPath id="clip0_594_2840">
<rect width="54" height="54" fill="white" transform="translate(23 3)"/>
</clipPath>
</defs>
</svg>