<svg width="120" height="32" viewBox="0 0 120 32" fill="none" xmlns="http://www.w3.org/2000/svg">
<g clip-path="url(#clip0_337_2912)">
<path d="M7.15091 1.1998C7.13297 0.919471 7.10892 0.639574 7.07877 0.360313C7.05518 0.187377 7.0599 0.177845 7.1172 0.264313C7.15495 0.316738 7.30664 0.609505 7.45832 0.911122C7.61068 1.2141 7.82372 1.60287 7.93293 1.7758C8.04686 1.94806 8.53563 2.51861 9.02911 3.04695C9.5172 3.57461 10.101 4.23163 10.3194 4.5101C10.5379 4.78789 10.8837 5.26312 11.088 5.56542C11.2916 5.86772 11.5815 6.33274 11.7332 6.59691C11.8896 6.8604 12.1552 7.37921 12.3305 7.74823C12.5057 8.11793 12.7579 8.68848 12.886 9.01938C13.0141 9.35095 13.2325 9.96508 13.37 10.3872C13.5028 10.8093 13.7071 11.5242 13.8203 11.9702C13.9296 12.4209 14.063 13.0881 14.1102 13.4572C14.181 13.9855 14.1999 14.4362 14.1999 15.5923C14.1999 16.7341 14.181 17.1896 14.1143 17.6553C14.0671 17.9862 13.9767 18.5234 13.9107 18.855C13.8269 19.2498 13.7302 19.6417 13.6208 20.0301C13.5074 20.4181 13.381 20.8021 13.2419 21.1814C13.0721 21.6199 12.8868 22.052 12.6864 22.4771C12.4898 22.884 12.2793 23.2839 12.0554 23.6761C11.899 23.9402 11.6334 24.3481 11.4723 24.5884C11.3057 24.8281 11.0118 25.2257 10.8129 25.4755C10.5176 25.8327 10.2072 26.1769 9.88259 26.507C9.57243 26.8242 9.24805 27.1268 8.91046 27.4139C8.68731 27.591 8.45945 27.7639 8.40282 27.7925C8.31248 27.8401 8.27473 27.8313 8.14192 27.7258C8.02304 27.6117 7.91926 27.4827 7.83315 27.3418C7.72577 27.1435 7.63554 26.9362 7.56349 26.7222C7.48197 26.4467 7.41669 26.1666 7.36799 25.8834C7.30788 25.4859 7.2685 25.0854 7.25001 24.6837C7.22574 24.1942 7.23585 23.6284 7.27832 22.9087C7.31607 22.328 7.36394 21.3155 7.38754 20.6538C7.41585 19.9967 7.42529 18.2694 7.41113 16.8158C7.40169 15.367 7.38282 13.0548 7.36866 11.6822C7.3545 10.3103 7.33495 8.12746 7.32147 6.83657C7.30664 5.54636 7.28776 4.24593 7.2736 3.95793C7.25945 3.67061 7.2399 3.07555 7.22641 2.63912C7.21031 2.15889 7.18491 1.67903 7.15023 1.1998H7.15091Z" fill="#12924F"/>
<path d="M7.08529 25.4031C7.12305 25.0048 7.1608 24.6453 7.1608 24.597C7.16552 24.5493 7.18911 24.5255 7.21271 24.5398C7.2417 24.5534 7.2599 24.6739 7.25586 24.808C7.25114 24.9374 7.28417 25.2737 7.32192 25.557C7.35968 25.8443 7.43586 26.2473 7.48777 26.4584C7.54507 26.6695 7.64956 26.9718 7.72035 27.1304C7.79653 27.2884 7.92934 27.4947 8.01496 27.5907C8.10462 27.6867 8.21383 27.7827 8.2563 27.8065C8.33248 27.8453 8.32305 27.9318 8.13361 28.8816C8.00246 29.55 7.89006 30.222 7.79653 30.8969C7.7537 31.2445 7.70471 31.5913 7.64956 31.9372C7.63541 31.9808 7.52147 31.9999 7.29833 31.9999C7.03271 31.9999 6.96597 31.9856 6.96597 31.9277C6.96597 31.8896 6.9235 31.4388 6.87159 30.9302C6.81428 30.4264 6.71923 29.5958 6.54395 28.1857L6.65788 27.8113C6.72395 27.6104 6.82844 27.1447 6.89518 26.7798C6.95653 26.4203 7.04215 25.7966 7.08462 25.4031H7.08529Z" fill="#B8C4C2"/>
<path d="M6.71938 0.863319C6.80972 0.676766 6.88522 0.441191 6.90006 0.277787C6.91893 0.124596 6.94725 0 6.97084 0C6.99444 0 7.02275 0.0238298 7.03691 0.0476596C7.05174 0.0769362 7.07062 0.196766 7.08006 0.321362C7.09421 0.450723 7.12253 0.844255 7.15084 1.19966C7.17983 1.55438 7.21286 2.20187 7.22702 2.63898C7.24118 3.07472 7.26073 3.67047 7.27421 3.95779C7.28904 4.24579 7.30792 5.54621 7.3214 6.83643C7.33624 8.12732 7.35511 10.3101 7.36927 11.682C7.38343 13.054 7.40298 15.362 7.41242 16.8157C7.4259 18.2645 7.41713 19.9816 7.39286 20.6298C7.36927 21.2773 7.31736 22.3047 7.27893 22.9086C7.24118 23.5132 7.2223 24.1409 7.24118 24.2996C7.26006 24.5161 7.25534 24.5787 7.21286 24.5542C7.17511 24.5304 7.15556 24.5447 7.15556 24.5971C7.15556 24.6448 7.12253 25.0056 7.08477 25.4032C7.03571 25.8609 6.9723 26.3168 6.89466 26.7704C6.83587 27.1064 6.76163 27.4395 6.67219 27.7685C6.61017 27.9605 6.54882 28.1137 6.52994 28.1137C6.50567 28.1137 6.29264 27.9557 6.05534 27.7685C5.6828 27.4595 5.32338 27.1346 4.97803 26.7949C4.61074 26.4319 4.25636 26.0558 3.91556 25.6674C3.62726 25.3239 3.34894 24.972 3.08096 24.6121C2.80835 24.2372 2.54865 23.853 2.3023 23.4601C2.05156 23.0452 1.8159 22.6212 1.59579 22.1889C1.38499 21.7647 1.19025 21.3325 1.01197 20.8933C0.874438 20.5529 0.680281 19.9769 0.575786 19.6221C0.462538 19.2425 0.364481 18.8584 0.281854 18.4708C0.220073 18.1435 0.161643 17.8155 0.106573 17.487C0.0674719 17.2235 0.0202809 16.5563 0.00679775 16C-0.00803371 15.4009 0.0014045 14.69 0.0351124 14.2488C0.0681461 13.841 0.134888 13.2031 0.186798 12.8334C0.241441 12.4484 0.304603 12.0648 0.376236 11.6827C0.42882 11.4186 0.538034 10.9433 0.613539 10.6267C0.694438 10.3101 0.831966 9.81651 0.927022 9.52374C1.01669 9.23098 1.19264 8.74621 1.31129 8.44392C1.42522 8.14162 1.63354 7.65685 1.76635 7.36408C1.90388 7.07132 2.13713 6.61106 2.29287 6.3326C2.44522 6.05481 2.76747 5.52715 3.00949 5.15745C3.27268 4.7549 3.55132 4.36289 3.84478 3.9823C4.10076 3.6636 4.36489 3.35166 4.63691 3.04681C4.85466 2.80647 5.37713 2.29311 5.79444 1.89481C6.44433 1.28545 6.58657 1.12749 6.71938 0.863319Z" fill="#10AA50"/>
<path fill-rule="evenodd" clip-rule="evenodd" d="M86.5963 10.4976L87.2604 10.5262C87.6257 10.5452 88.8022 10.5547 89.87 10.5452C90.9372 10.5357 92.479 10.5309 93.2853 10.5309C94.2628 10.5309 94.9127 10.5547 95.2309 10.5983C95.4918 10.6317 95.9516 10.7277 96.2509 10.8046C96.5496 10.8809 96.9911 11.0252 97.2231 11.126C97.4556 11.2213 97.8021 11.3942 97.9821 11.5005C98.1628 11.6108 98.452 11.8021 98.6179 11.9273C98.7891 12.0567 99.0925 12.3345 99.2968 12.5462C99.5003 12.7573 99.799 13.112 99.9561 13.3374C100.112 13.5628 100.34 13.9372 100.454 14.1769C100.573 14.4125 100.739 14.8346 100.829 15.1124C100.914 15.3915 101.023 15.832 101.07 16.0962C101.137 16.4557 101.156 16.8159 101.156 17.5355C101.156 18.2456 101.132 18.6194 101.07 18.9748C101.023 19.2383 100.933 19.6366 100.867 19.862C100.805 20.088 100.677 20.4427 100.587 20.6538C100.497 20.8649 100.34 21.1862 100.236 21.3735C100.127 21.5607 99.9325 21.8582 99.7943 22.0455C99.6568 22.2273 99.3959 22.5296 99.2159 22.7168C99.0359 22.8993 98.7129 23.1825 98.5039 23.3452C98.2956 23.5086 97.9821 23.7292 97.8021 23.8395C97.6262 23.945 97.3417 24.1085 97.1664 24.199C96.9857 24.2855 96.6399 24.4346 96.3932 24.5306C96.1464 24.6211 95.7197 24.7553 95.4439 24.8179C95.1689 24.886 94.7233 24.9765 94.4482 25.0242C94.097 25.0773 93.5179 25.1107 92.5026 25.125C91.7057 25.1399 90.0453 25.1399 86.5727 25.0916V24.9813C86.5727 24.9234 86.6057 24.7607 86.6435 24.6211C86.6819 24.487 86.7621 24.3195 86.8242 24.2569C86.9051 24.1656 87.0089 24.1323 87.3082 24.0935C87.5296 24.0634 87.7454 24.0006 87.9487 23.9069C88.1239 23.8157 88.2332 23.7197 88.2898 23.6046C88.3377 23.5086 88.3943 23.2349 88.4226 22.9565C88.4469 22.6787 88.4705 20.4142 88.4705 17.5355C88.4705 13.2557 88.461 12.5605 88.399 12.3542C88.3541 12.2057 88.2761 12.0695 88.1711 11.9559C88.0768 11.8552 87.915 11.7639 87.735 11.7108C87.5786 11.6632 87.2368 11.5862 86.9759 11.5433C86.715 11.4998 86.4305 11.4569 86.3448 11.4426C86.2026 11.4187 86.1932 11.4085 86.2168 11.2601C86.2309 11.1784 86.3212 10.9673 86.421 10.7999L86.5963 10.4976ZM91.0417 11.7013C90.9638 11.7553 90.9001 11.8278 90.8563 11.9124C90.7808 12.0567 90.7761 12.4455 90.7572 16.4128C90.7478 18.7971 90.7572 21.206 90.7855 21.7622C90.8233 22.6644 90.8374 22.7937 90.9419 23.0286C91.0039 23.1682 91.132 23.35 91.2217 23.4317C91.312 23.5134 91.492 23.6285 91.6248 23.6856C91.7536 23.7483 92.0664 23.8443 92.3132 23.9022C92.6738 23.9879 92.9206 24.0077 93.5705 24.0125C94.1826 24.0125 94.4718 23.9927 94.7799 23.926C95.003 23.8783 95.3448 23.7769 95.539 23.7006C95.7856 23.5966 96.0237 23.473 96.2509 23.3309C96.4451 23.2016 96.7538 22.9612 96.9338 22.789C97.1091 22.6208 97.3848 22.309 97.5413 22.0979C97.6977 21.8868 97.9208 21.5171 98.03 21.2822C98.1439 21.0426 98.2815 20.7069 98.3381 20.5387C98.3954 20.3658 98.4803 20.0397 98.5282 19.8191C98.5754 19.5937 98.6415 19.1621 98.6752 18.8591C98.7082 18.5187 98.7177 18.0101 98.7035 17.5403C98.6846 17.046 98.6368 16.6 98.5754 16.293C98.513 16.0105 98.4402 15.7304 98.357 15.4535C98.2674 15.1996 98.1629 14.9513 98.0442 14.71C97.9397 14.4989 97.7496 14.1721 97.6262 13.9903C97.4312 13.7238 97.2138 13.4748 96.9763 13.2462C96.7419 13.0174 96.4916 12.8058 96.2273 12.613C96.0193 12.4789 95.8056 12.3539 95.5869 12.2385C95.3478 12.1248 95.1022 12.0257 94.8514 11.9416C94.6141 11.8647 94.1772 11.7592 93.8786 11.7061C93.5273 11.6441 93.0291 11.6005 92.479 11.591C92.0098 11.5815 91.5163 11.5862 91.3882 11.6101C91.2696 11.6268 91.1533 11.6574 91.0417 11.7013ZM102.698 10.584L106.342 10.5888C109.377 10.5983 110.061 10.6079 110.436 10.6705C110.683 10.7134 111.033 10.7951 111.219 10.8475C111.399 10.9054 111.688 11.0245 111.859 11.1117C112.03 11.1982 112.295 11.3656 112.452 11.4862C112.609 11.6005 112.803 11.783 112.884 11.8838C112.965 11.9845 113.088 12.1622 113.154 12.2719C113.226 12.3876 113.339 12.6463 113.406 12.8479C113.496 13.1216 113.538 13.3565 113.552 13.7262C113.571 14.0904 113.557 14.3165 113.501 14.5513C113.457 14.7284 113.363 15.0021 113.287 15.1505C113.184 15.3482 113.067 15.5376 112.936 15.717C112.809 15.8835 112.668 16.0378 112.514 16.1779C112.4 16.2732 112.172 16.4414 112.001 16.5524C111.853 16.6501 111.697 16.7365 111.536 16.8111C111.451 16.8397 111.384 16.8785 111.384 16.8928C111.384 16.9023 111.57 16.9745 111.797 17.0507C112.025 17.1277 112.404 17.2809 112.642 17.3966C112.874 17.5117 113.216 17.7275 113.401 17.8759C113.581 18.0203 113.832 18.2647 113.956 18.4138C114.079 18.567 114.246 18.821 114.321 18.9789C114.402 19.1376 114.511 19.4494 114.568 19.6754C114.653 20.0254 114.668 20.169 114.644 20.7069C114.63 21.1624 114.591 21.417 114.516 21.6662C114.434 21.9042 114.337 22.1366 114.226 22.3621C114.127 22.5588 113.927 22.8659 113.78 23.0429C113.587 23.2697 113.375 23.4785 113.145 23.6666C112.907 23.8565 112.656 24.0297 112.395 24.1847C112.191 24.3005 111.831 24.4822 111.598 24.583C111.361 24.6885 110.934 24.8329 110.649 24.9044C110.36 24.9765 109.861 25.0725 109.535 25.1154C109.207 25.159 108.576 25.1971 108.135 25.2019C107.689 25.2114 106.214 25.1924 102.371 25.1202V24.9527C102.371 24.8567 102.432 24.6552 102.646 24.2092L102.949 24.1752C103.11 24.1561 103.396 24.1085 103.58 24.0649C103.761 24.022 103.979 23.945 104.064 23.8974C104.15 23.8443 104.254 23.734 104.292 23.657C104.33 23.5753 104.387 23.3214 104.411 23.0913C104.444 22.8325 104.463 20.7117 104.472 17.5403C104.482 12.7525 104.477 12.3876 104.396 12.1765C104.349 12.0472 104.259 11.9124 104.183 11.8599C104.091 11.8006 103.992 11.7522 103.889 11.7156C103.799 11.687 103.429 11.6203 103.068 11.5672C102.712 11.5148 102.409 11.4719 102.395 11.4719C102.38 11.4719 102.366 11.4188 102.361 11.3561C102.357 11.2935 102.428 11.0926 102.523 10.9149L102.698 10.584ZM106.84 11.879C106.754 12.0131 106.745 12.1718 106.721 14.3355C106.698 16.1588 106.702 16.662 106.75 16.7008C106.787 16.7294 107.295 16.7532 108.063 16.758C109.112 16.7627 109.383 16.7532 109.677 16.6817C109.876 16.6382 110.137 16.5422 110.265 16.4707C110.393 16.3985 110.578 16.2446 110.683 16.1343C110.782 16.024 110.92 15.8225 110.981 15.6931C111.048 15.559 111.133 15.3289 111.176 15.175C111.214 15.0164 111.247 14.695 111.242 14.422C111.242 14.1578 111.214 13.8024 111.171 13.6397C111.125 13.4497 111.06 13.2649 110.977 13.0882C110.882 12.9124 110.765 12.7494 110.63 12.6034C110.492 12.4566 110.34 12.3247 110.175 12.2099C110.047 12.1282 109.781 11.9988 109.582 11.9273C109.319 11.8391 109.049 11.7731 108.775 11.7299C108.437 11.6859 108.096 11.6654 107.755 11.6686C107.442 11.6686 107.129 11.687 107.058 11.7013C106.967 11.7341 106.891 11.7967 106.84 11.879ZM106.673 17.895C106.688 20.7784 106.712 21.9059 106.735 22.2661C106.764 22.6882 106.806 22.9762 106.859 23.1056C106.901 23.2111 107.006 23.3936 107.087 23.5086C107.19 23.657 107.309 23.7578 107.471 23.83C107.604 23.8872 107.85 23.9641 108.016 23.9934C108.187 24.0268 108.657 24.0553 109.06 24.0553C109.663 24.0553 109.861 24.0363 110.151 23.96C110.35 23.9022 110.649 23.7864 110.815 23.7006C111.01 23.6046 111.247 23.4215 111.437 23.2308C111.659 23.0048 111.802 22.808 111.92 22.5541C112.015 22.3525 112.125 22.0257 112.167 21.8194C112.206 21.6131 112.239 21.2584 112.239 21.0283C112.239 20.7982 112.21 20.457 112.167 20.2746C112.111 20.035 112.03 19.802 111.925 19.5794C111.8 19.3234 111.631 19.0913 111.428 18.8931C111.166 18.6344 111.005 18.5187 110.616 18.3321C110.329 18.1949 110.03 18.0839 109.724 18.0005C109.439 17.9362 109.151 17.8867 108.86 17.8521C108.604 17.8235 108.063 17.8045 107.651 17.8045C107.238 17.8092 106.854 17.8283 106.787 17.8521L106.673 17.895ZM26.1136 15.4392C26.2417 15.4487 26.4689 15.4916 26.6118 15.5304C26.7534 15.5733 26.9765 15.6598 27.1093 15.7265C27.2374 15.7939 27.4936 15.9907 27.6689 16.1636C27.8496 16.3406 28.068 16.5953 28.1583 16.7342C28.2433 16.873 28.343 16.9888 28.3761 16.9888C28.4098 16.9888 28.5568 16.8976 28.699 16.7913C28.8406 16.6817 29.1493 16.4754 29.3866 16.3263C29.666 16.1533 29.9541 15.9949 30.2496 15.8518C30.4923 15.736 30.8428 15.5971 31.0329 15.5447C31.275 15.4773 31.517 15.4487 31.8298 15.4487C32.0907 15.4487 32.3994 15.4821 32.5653 15.525C32.7217 15.5685 32.9684 15.6598 33.1114 15.7265C33.2529 15.7987 33.4714 15.9376 33.5947 16.0383C33.7181 16.1391 33.9271 16.3651 34.0599 16.5422C34.188 16.7199 34.3633 17.0269 34.4442 17.2285C34.5251 17.4252 34.6383 17.7704 34.6909 17.9958C34.7853 18.3845 34.7907 18.5234 34.7947 23.6809L34.8992 23.8347C34.9754 23.9403 35.0893 24.022 35.27 24.0887C35.4116 24.1418 35.7251 24.2181 36.3938 24.3529L36.3601 24.6647C36.3419 24.8329 36.3082 25.0099 36.2846 25.0582C36.2469 25.1297 36.1848 25.1399 35.8248 25.1202C35.4186 25.0976 35.012 25.0817 34.6053 25.0725C33.9727 25.0586 33.3398 25.0634 32.7075 25.0868C32.1055 25.1107 31.6073 25.1209 31.5925 25.1059C31.579 25.0964 31.5594 24.9425 31.5547 24.7655C31.5453 24.5885 31.5547 24.425 31.5783 24.3958C31.5979 24.3672 31.821 24.295 32.0671 24.2378C32.3138 24.1752 32.57 24.0887 32.6367 24.0404C32.7182 23.9736 32.7831 23.8885 32.8262 23.7919C32.8882 23.657 32.8976 23.254 32.8976 21.1624C32.8976 18.6964 32.8976 18.6868 32.783 18.3798C32.7215 18.1957 32.6406 18.0188 32.5417 17.8521C32.4427 17.7041 32.3281 17.5674 32.1999 17.4443C32.0436 17.3112 31.8715 17.1985 31.6875 17.1086C31.4219 16.984 31.3127 16.9595 30.9055 16.9452C30.563 16.9357 30.3453 16.95 30.1221 17.0079C29.9516 17.0555 29.6765 17.1563 29.5053 17.2332C29.3347 17.3102 29.0738 17.4538 28.9221 17.5546C28.7745 17.6506 28.637 17.7609 28.6275 17.8038C28.6141 17.8426 28.6228 18.1013 28.6511 18.3798C28.6754 18.6535 28.6983 19.9675 28.6983 21.2918C28.6983 23.1246 28.7132 23.734 28.7556 23.8245C28.7893 23.8974 28.879 23.9934 28.9599 24.041C29.0354 24.0887 29.3347 24.1799 30.1464 24.3576L30.1599 24.5449C30.1693 24.6504 30.1552 24.8233 30.075 25.1202H25.3302L25.3019 24.9044C25.283 24.7845 25.2884 24.6116 25.3545 24.3624L25.8763 24.2569C26.1608 24.199 26.45 24.118 26.5168 24.0744C26.5925 24.0194 26.6542 23.9471 26.6967 23.8633C26.7345 23.7871 26.7824 23.4698 26.8107 23.1532C26.8343 22.8366 26.8444 21.7139 26.8343 20.6586C26.8154 19.013 26.8006 18.6964 26.7298 18.4519C26.6726 18.2575 26.5997 18.068 26.512 17.8855C26.4296 17.7225 26.3292 17.5695 26.2127 17.4293C26.1278 17.3292 25.9282 17.1801 25.7765 17.0991C25.5984 17.0052 25.4086 16.9358 25.2123 16.8928C25.0555 16.8637 24.8969 16.8459 24.7376 16.8397C24.6332 16.8397 24.377 16.8833 24.168 16.9357C23.959 16.9888 23.5747 17.142 23.3145 17.2713C23.0536 17.4007 22.7637 17.5879 22.5075 17.8569V20.7934C22.5075 23.5086 22.5123 23.7387 22.5884 23.8586C22.6356 23.9307 22.7307 24.0267 22.8021 24.0744C22.8729 24.1221 23.1527 24.2038 23.9314 24.3624L23.9448 24.5735C23.955 24.6892 23.9401 24.8567 23.8842 25.1113L21.5024 25.1154C19.1583 25.1154 19.1206 25.1154 19.0923 25.0249C19.0746 24.9249 19.0665 24.8234 19.068 24.7219C19.068 24.6116 19.0875 24.4775 19.1152 24.425C19.1293 24.396 19.151 24.3714 19.1777 24.3537C19.2045 24.336 19.2355 24.3258 19.2675 24.3243C19.3289 24.3243 19.5662 24.2766 19.8035 24.2235C20.1311 24.1418 20.2687 24.0839 20.3873 23.9689C20.4871 23.8736 20.5579 23.7483 20.5909 23.6094C20.6199 23.48 20.6482 22.2273 20.6671 20.6109C20.6907 18.1061 20.686 17.8092 20.6145 17.6458C20.5626 17.5301 20.4581 17.4157 20.3111 17.319C20.1184 17.2066 19.9168 17.1105 19.7084 17.0317C19.5115 16.9583 19.317 16.8784 19.1253 16.792C18.9547 16.7151 18.9257 16.6763 18.9352 16.5714C18.9521 16.4856 18.9993 16.4089 19.068 16.3556C19.1394 16.3025 19.3714 16.2351 19.6376 16.1922C19.988 16.1312 20.3361 16.0576 20.6812 15.9716C21.0803 15.8731 21.4761 15.7611 21.8678 15.6359C22.337 15.4821 22.4651 15.4582 22.4934 15.5066C22.517 15.5447 22.5271 15.8606 22.517 16.2215C22.5075 16.8587 22.5075 16.8683 22.612 16.8785C22.6788 16.888 22.8257 16.8104 22.9916 16.681C23.1433 16.566 23.4136 16.3794 23.5983 16.2644C23.779 16.1534 24.1019 15.9764 24.3102 15.8804C24.5192 15.7796 24.8273 15.655 24.9979 15.5971C25.1691 15.5447 25.4347 15.4821 25.5911 15.463C25.7482 15.4392 25.9808 15.429 26.1136 15.4392ZM53.0934 15.4099C53.1123 15.4051 53.1547 15.4535 53.183 15.5107C53.2215 15.5876 53.2302 15.8177 53.2073 16.2787C53.1878 16.7056 53.1932 16.9405 53.2262 16.9405C53.2498 16.9405 53.4062 16.8349 53.568 16.7056C53.7338 16.581 53.9947 16.389 54.1511 16.2787C54.3075 16.1731 54.6257 15.9907 54.863 15.8702C55.0956 15.7558 55.4367 15.6067 55.6221 15.5399C55.8972 15.4439 56.0442 15.429 56.5235 15.429C56.9887 15.429 57.1498 15.4487 57.4006 15.5345C57.616 15.6153 57.8227 15.7182 58.0174 15.8416C58.1887 15.9525 58.4212 16.1391 58.5399 16.2637C58.6579 16.3842 58.8291 16.6143 58.9282 16.7723C59.0233 16.9309 59.1561 17.2189 59.2181 17.4205C59.2842 17.6172 59.3745 17.9719 59.417 18.2123C59.4837 18.5622 59.5026 19.1042 59.5316 21.1862C59.5545 23.4991 59.5639 23.7435 59.6401 23.8586C59.6927 23.9403 59.8208 24.0267 59.9725 24.0839C60.11 24.1316 60.4039 24.2092 60.6264 24.2521C60.8496 24.295 61.0444 24.3433 61.0633 24.3529C61.0821 24.3672 61.101 24.487 61.101 24.6266C61.101 24.7655 61.0774 24.9527 61.0066 25.2162H56.1675L56.1392 25.0004C56.1211 24.8572 56.1195 24.7123 56.1345 24.5687C56.148 24.4489 56.1675 24.3481 56.177 24.3433C56.1864 24.3386 56.3718 24.3052 56.595 24.2664C56.8174 24.2283 57.083 24.1561 57.1875 24.1085C57.2947 24.0563 57.3852 23.9746 57.4484 23.8729C57.5098 23.7483 57.5192 23.3786 57.5145 21.4266C57.5145 19.8477 57.4956 19.0082 57.4579 18.7638C57.4171 18.5407 57.3501 18.3233 57.2583 18.1163C57.1598 17.9267 57.0372 17.7509 56.8936 17.5934C56.7396 17.448 56.5674 17.3237 56.3812 17.2237C56.1761 17.1332 55.9611 17.0671 55.7408 17.0269C55.5007 16.9837 55.2549 16.9837 55.0147 17.0269C54.7645 17.0706 54.5186 17.1364 54.2799 17.2237C54.0561 17.3141 53.8415 17.4266 53.6395 17.5593C53.4352 17.7085 53.3496 17.8045 53.2923 17.9576C53.2262 18.1347 53.2215 18.4996 53.2356 20.9227C53.2498 23.2587 53.2639 23.7054 53.326 23.849C53.3763 23.956 53.4595 24.0437 53.5633 24.0989C53.6482 24.1418 53.9374 24.214 54.1983 24.2521C54.4592 24.2902 54.6871 24.3243 54.706 24.3243C54.7255 24.3243 54.7444 24.4489 54.7444 24.6021C54.7444 24.7559 54.7208 24.9527 54.6493 25.2162H49.7961L49.7536 25.0964C49.7246 25.029 49.7152 24.8329 49.7341 24.6647C49.7489 24.4918 49.763 24.3433 49.7725 24.3379C49.7819 24.329 49.9572 24.295 50.1662 24.2569C50.3752 24.2187 50.6314 24.1616 50.7305 24.1227C50.8535 24.0859 50.9596 24.006 51.0298 23.8974C51.0911 23.8014 51.1532 23.6094 51.1714 23.465C51.1909 23.3166 51.2051 21.9638 51.2051 20.457C51.2098 17.7799 51.2051 17.7132 51.1147 17.6077C51.0628 17.5498 50.868 17.4252 50.688 17.334C50.4715 17.2283 50.2499 17.1337 50.0239 17.0507C49.8386 16.9888 49.6444 16.8873 49.5824 16.8302C49.5257 16.7682 49.4732 16.6865 49.4785 16.6382C49.4785 16.5905 49.5352 16.4945 49.6066 16.4176C49.6935 16.3272 49.8062 16.2667 49.9289 16.2446C50.0334 16.231 50.479 16.1391 50.9253 16.0431C51.4218 15.9359 51.9125 15.8032 52.3956 15.6455C52.6277 15.5653 52.8603 15.4868 53.0934 15.4099ZM67.3161 15.4392C67.5109 15.4487 67.8332 15.4868 68.028 15.525C68.2221 15.5638 68.7156 15.7027 69.1188 15.8416C69.8212 16.0819 69.8779 16.0914 70.4711 16.1105C70.9457 16.1296 71.1541 16.1153 71.3725 16.0533C71.543 16.0097 71.7568 15.8994 72.1552 15.5971L72.1835 15.7265C72.2024 15.7987 72.2071 16.0193 72.1929 16.2208C72.1788 16.4271 72.1363 16.6477 72.0837 16.7485C72.0365 16.8397 71.9556 16.9643 71.899 17.0269C71.8127 17.1117 71.7154 17.1843 71.6098 17.2427C71.4487 17.3292 71.3536 17.3435 71.0165 17.334C70.8346 17.3294 70.6528 17.3215 70.4711 17.3102C70.3525 17.3006 70.3289 17.3149 70.3383 17.3966C70.3478 17.449 70.3855 17.7085 70.4233 17.9719C70.4853 18.3655 70.49 18.5336 70.4428 18.9319C70.4093 19.2158 70.3536 19.4965 70.2763 19.7714C70.21 19.9782 70.1259 20.1787 70.0248 20.3706C69.9493 20.4999 69.7828 20.726 69.6601 20.8696C69.4716 21.0674 69.2668 21.2487 69.048 21.4116C68.839 21.5702 68.4878 21.7861 68.2653 21.8916C68.0421 21.9971 67.6579 22.1367 67.4111 22.1987C67.1644 22.2613 66.7801 22.328 66.557 22.343C66.2887 22.3621 66.0844 22.405 65.9448 22.4724C65.8269 22.5296 65.6934 22.6303 65.6462 22.697C65.5896 22.7699 65.5559 22.8945 65.5559 23.0191C65.5606 23.1825 65.5943 23.2587 65.7129 23.3936C65.8026 23.4889 65.959 23.5951 66.0824 23.6332C66.201 23.6761 66.8179 23.749 67.4819 23.8014C68.1325 23.849 68.872 23.9165 69.1188 23.945C69.3655 23.9736 69.7781 24.0404 70.0296 24.0887C70.3006 24.1418 70.6181 24.2473 70.7887 24.3338C70.9552 24.4203 71.1925 24.583 71.3152 24.7083C71.4433 24.8274 71.6051 25.0249 71.6806 25.144C71.7568 25.2598 71.8612 25.4756 71.9084 25.624C71.961 25.7684 72.0129 26.0176 72.0318 26.1755C72.0479 26.3915 72.0432 26.6086 72.0177 26.8237C71.9782 27.0674 71.9212 27.308 71.8471 27.5433C71.7803 27.7401 71.6381 28.0519 71.5289 28.2392C71.3801 28.4718 71.2168 28.6946 71.0401 28.9064C70.8137 29.153 70.568 29.3807 70.3053 29.5873C70.0586 29.7786 69.6311 30.057 69.3561 30.1966C69.081 30.3403 68.6543 30.5275 68.4075 30.6092C68.1608 30.6909 67.7765 30.791 67.5534 30.8298C67.3309 30.8679 66.8941 30.9163 66.5806 30.9306C66.2484 30.9485 65.9154 30.9387 65.5848 30.9013C65.3456 30.87 65.108 30.8269 64.8729 30.7719C64.6542 30.705 64.4402 30.6231 64.2325 30.5268C64.0086 30.4232 63.7943 30.2997 63.592 30.1578C63.4072 30.0211 63.2357 29.867 63.0797 29.6976C62.9237 29.5052 62.7871 29.2976 62.6718 29.078C62.572 28.8771 62.4628 28.5891 62.4291 28.4312C62.3944 28.2496 62.3851 28.0639 62.4015 27.8797C62.415 27.7299 62.4824 27.495 62.5532 27.3513C62.6287 27.1832 62.7952 26.9673 62.9893 26.7753C63.1646 26.6031 63.5637 26.2674 63.8765 26.0319C64.19 25.797 64.5123 25.5525 64.5979 25.4899C64.6835 25.432 64.7543 25.3605 64.7543 25.336C64.7543 25.3074 64.5979 25.2067 64.4078 25.1113C64.1838 24.9951 63.9791 24.8444 63.801 24.6647C63.6553 24.5146 63.5305 24.3451 63.4302 24.1609C63.3594 24.0029 63.3264 23.8545 63.3359 23.7292C63.3547 23.542 63.3642 23.5277 63.8529 23.2302C64.128 23.0667 64.4934 22.8319 64.6687 22.7168C64.8588 22.5922 64.9916 22.4676 64.9916 22.4193C64.9908 22.3688 64.9705 22.3206 64.935 22.2851C64.9012 22.2565 64.7779 22.1987 64.6592 22.1558C64.5406 22.1122 64.3087 21.9828 64.1374 21.8725C63.9347 21.7348 63.7457 21.5775 63.5732 21.4027C63.3988 21.2091 63.2535 20.9907 63.1417 20.7546C63.0317 20.5156 62.9441 20.2666 62.8801 20.0111C62.8329 19.8 62.7992 19.4256 62.7952 19.1233C62.7952 18.7638 62.8188 18.4901 62.8707 18.2838C62.9179 18.1115 63.023 17.8187 63.108 17.6363C63.1983 17.449 63.3783 17.161 63.5111 16.9983C63.6761 16.8083 63.8572 16.6334 64.0525 16.4754C64.2183 16.3549 64.5123 16.1731 64.7064 16.0724C64.9019 15.9764 65.2862 15.8177 65.5606 15.7265C65.8363 15.6312 66.2057 15.5352 66.3911 15.5059C66.5711 15.4719 66.7754 15.4439 66.8415 15.4344C66.9082 15.4242 67.1219 15.4242 67.3161 15.4392ZM65.6556 16.5088C65.5511 16.5619 65.3759 16.6858 65.2619 16.7873C65.1527 16.8928 65.0057 17.08 64.9343 17.2094C64.8635 17.3387 64.7684 17.5839 64.7253 17.7561C64.6741 17.9576 64.6451 18.2409 64.6451 18.5718C64.6498 18.9122 64.6828 19.2097 64.7496 19.5073C64.8062 19.7422 64.9296 20.088 65.0293 20.2746C65.1244 20.457 65.3098 20.7165 65.4426 20.8506C65.5707 20.9799 65.7979 21.1481 65.9401 21.2203C66.0824 21.2918 66.3197 21.3735 66.4619 21.3973C66.6048 21.4266 66.8084 21.4504 66.9129 21.4504C67.0174 21.4504 67.2406 21.4068 67.4111 21.3544C67.6248 21.2918 67.7907 21.2005 67.9471 21.0569C68.0988 20.918 68.2363 20.7355 68.3408 20.5149C68.4311 20.3229 68.5356 19.9968 68.5781 19.7714C68.6347 19.4739 68.6496 19.2199 68.63 18.8591C68.6111 18.5813 68.5687 18.2259 68.5262 18.0679C68.4673 17.8634 68.391 17.6643 68.2983 17.4729C68.195 17.2768 68.0674 17.0947 67.9188 16.9309C67.765 16.7796 67.589 16.6533 67.397 16.5565C67.2273 16.478 67.049 16.4201 66.8657 16.3842C66.7329 16.3699 66.5759 16.3502 66.5098 16.3454C66.443 16.3359 66.2678 16.3502 66.1161 16.3699C65.9575 16.3968 65.8028 16.4434 65.6556 16.5088ZM65.5612 25.6867C65.4709 25.7248 65.2666 25.8548 65.1096 25.9699C64.9331 26.1078 64.7669 26.2584 64.612 26.4206C64.4981 26.55 64.3559 26.761 64.2985 26.8959C64.2379 27.0252 64.1759 27.2315 64.161 27.3513C64.1421 27.4712 64.1516 27.6918 64.1853 27.8552C64.2183 28.0131 64.2986 28.2487 64.3606 28.3828C64.4273 28.5122 64.6026 28.7376 64.7496 28.8867C64.9012 29.0303 65.1675 29.2271 65.3523 29.3231C65.5323 29.4191 65.841 29.5485 66.0352 29.6063C66.3055 29.688 66.5617 29.7166 67.1266 29.7357C67.7051 29.7547 67.9471 29.7404 68.2653 29.6785C68.4878 29.6308 68.7871 29.5491 68.9293 29.4913C69.0716 29.4286 69.2853 29.3136 69.4039 29.2325C69.5354 29.1385 69.6604 29.0357 69.7781 28.9248C69.8684 28.8383 70.0012 28.6661 70.0774 28.5503C70.1529 28.4312 70.248 28.2147 70.2857 28.071C70.3289 27.9226 70.3619 27.6536 70.3619 27.4719C70.3608 27.2676 70.3271 27.0648 70.2621 26.8713C70.1897 26.6845 70.08 26.5146 69.9399 26.3723C69.8118 26.2429 69.5839 26.0795 69.4275 26.0033C69.2432 25.9198 69.0527 25.8509 68.8579 25.797C68.7015 25.7534 68.3172 25.6914 68.0044 25.6526C67.5946 25.6046 67.183 25.5728 66.7707 25.5573C66.4053 25.543 66.021 25.5525 65.9165 25.5709C65.7953 25.6008 65.677 25.6395 65.5612 25.6867ZM43.3815 15.4582C43.7157 15.4503 44.0499 15.4777 44.3785 15.5399C44.6105 15.5924 44.9523 15.6884 45.1377 15.7646C45.3177 15.8375 45.6163 15.9859 45.8017 16.0962C45.9959 16.2065 46.3141 16.4707 46.5655 16.7246C46.817 16.9786 47.0732 17.2904 47.1918 17.4926C47.2956 17.6744 47.4433 17.9672 47.5141 18.1394C47.5808 18.3076 47.6759 18.6004 47.723 18.7876C47.7702 18.9701 47.8323 19.3493 47.8646 19.6271C47.903 19.992 47.903 20.2793 47.87 20.6824C47.837 21.005 47.7864 21.3255 47.7183 21.6424C47.6481 21.9025 47.5642 22.1587 47.4669 22.4097C47.3556 22.6578 47.2256 22.8968 47.0779 23.1246C46.9498 23.3214 46.7266 23.6142 46.5844 23.7673C46.4141 23.9463 46.2316 24.1131 46.0383 24.2664C45.8155 24.4262 45.5811 24.5689 45.3372 24.6933C45.1087 24.809 44.7338 24.967 44.5066 25.0439C44.2788 25.1202 43.937 25.221 43.7475 25.2598C43.5433 25.3027 43.1684 25.336 42.8125 25.336C42.4496 25.3392 42.0873 25.3054 41.7311 25.2353C41.4463 25.1738 41.1657 25.0937 40.8911 24.9956C40.6438 24.8918 40.4058 24.7665 40.1799 24.6211C39.9434 24.4564 39.7211 24.2719 39.5152 24.0696C39.319 23.8622 39.1398 23.639 38.9792 23.4024C38.8369 23.1774 38.7116 22.9418 38.6044 22.6977C38.5235 22.4962 38.4102 22.1408 38.3482 21.9059C38.2767 21.5768 38.2245 21.2437 38.1918 20.9085C38.1547 20.5496 38.1531 20.1878 38.1871 19.8286C38.217 19.5127 38.2725 19.1999 38.3529 18.8931C38.415 18.663 38.5383 18.3369 38.6192 18.1735C38.7001 18.0101 38.8559 17.7466 38.9603 17.5879C39.0696 17.43 39.2785 17.1753 39.4302 17.0222C39.5819 16.8683 39.8381 16.6477 39.9992 16.5231C40.2164 16.3709 40.4432 16.233 40.6781 16.1105C40.8871 16.005 41.2714 15.847 41.5316 15.7605C41.8187 15.6638 42.1119 15.5869 42.4093 15.5304C42.6318 15.4916 43.068 15.4582 43.3815 15.4582ZM41.603 16.6572C41.3926 16.7695 41.1992 16.9117 41.0287 17.0793C40.8487 17.2618 40.7064 17.4681 40.583 17.7323C40.4647 17.9938 40.3741 18.2672 40.3127 18.5479C40.2507 18.8502 40.2271 19.1907 40.2271 19.6986C40.2271 20.1166 40.2554 20.6062 40.2985 20.8744C40.341 21.1243 40.4455 21.5553 40.5399 21.8344C40.6302 22.1074 40.7961 22.4962 40.9053 22.6923C41.0287 22.9183 41.2471 23.2016 41.4844 23.4412C41.7406 23.7054 41.9684 23.8824 42.1963 24.0029C42.3763 24.0982 42.675 24.214 42.8603 24.2569C43.0875 24.31 43.3201 24.329 43.6194 24.3147C43.9134 24.2998 44.1318 24.2569 44.3307 24.1799C44.4871 24.118 44.7197 23.9784 44.8525 23.8681C44.9806 23.7626 45.1707 23.5563 45.2705 23.4119C45.3648 23.269 45.4977 22.9898 45.5597 22.7937C45.6257 22.5922 45.7012 22.3137 45.7302 22.1701C45.7585 22.021 45.797 21.6131 45.8111 21.2584C45.8246 20.8839 45.8159 20.4046 45.7828 20.1309C45.744 19.8157 45.6855 19.5032 45.6075 19.1954C45.5455 18.9415 45.379 18.5091 45.2462 18.2354C45.0332 17.8038 44.9428 17.6703 44.5923 17.3197C44.2835 17.0079 44.1028 16.8683 43.8325 16.7389C43.6495 16.6477 43.4591 16.5723 43.2635 16.5136C43.0827 16.4807 42.9005 16.4566 42.7174 16.4414C42.5276 16.4278 42.3369 16.4344 42.1484 16.4611C41.9594 16.5045 41.7768 16.5704 41.603 16.6572ZM79.1765 15.4725C79.7408 15.4821 79.997 15.5107 80.2916 15.5924C80.4999 15.6502 80.8842 15.7987 81.1451 15.928C81.4208 16.0676 81.7572 16.2787 81.9473 16.4414C82.132 16.5953 82.3929 16.8635 82.5305 17.0365C82.668 17.2046 82.8723 17.5307 82.9909 17.7561C83.1048 17.9767 83.2518 18.3369 83.3179 18.5479C83.3846 18.759 83.4655 19.1137 83.4938 19.3391C83.5316 19.5978 83.5457 20.0016 83.5269 20.4666C83.508 21.0181 83.4702 21.2972 83.3799 21.6662C83.2838 21.995 83.1633 22.3159 83.0192 22.6262C82.8911 22.8897 82.6586 23.2635 82.5069 23.465C82.3552 23.6625 82.0464 23.9689 81.8287 24.1513C81.5563 24.3664 81.2639 24.5543 80.9556 24.7124C80.6947 24.8417 80.3199 25.0004 80.1251 25.063C79.9309 25.1304 79.5891 25.221 79.3666 25.2645C79.0532 25.3265 78.8064 25.3408 78.2752 25.3217C77.8673 25.3081 77.45 25.2645 77.2552 25.2162C77.0218 25.1566 76.7922 25.0829 76.5675 24.9956C76.3373 24.9021 76.115 24.7898 75.9028 24.6599C75.7254 24.5424 75.5529 24.4175 75.3857 24.2855C75.2671 24.1902 75.0493 23.9498 74.8923 23.753C74.696 23.4899 74.5245 23.2088 74.3799 22.9136C74.2367 22.604 74.1194 22.2829 74.0293 21.9536C73.9538 21.6454 73.8951 21.3334 73.8534 21.0187C73.8239 20.6917 73.816 20.363 73.8298 20.0349C73.8506 19.7038 73.8982 19.375 73.972 19.0518C74.0388 18.7971 74.1433 18.4758 74.2046 18.3321C74.3007 18.1242 74.4118 17.9237 74.537 17.7323C74.6509 17.545 74.8451 17.2863 74.959 17.1563C75.0729 17.0269 75.3291 16.792 75.5233 16.6334C75.7275 16.47 76.1213 16.2303 76.4489 16.0724C76.7617 15.9137 77.1884 15.7408 77.3974 15.6836C77.6064 15.6305 77.9239 15.5542 78.1093 15.5154C78.3271 15.4773 78.6925 15.4582 79.1765 15.4725ZM77.2552 16.6477C77.1224 16.7103 76.8756 16.9064 76.7051 17.0793C76.4961 17.2856 76.3444 17.4967 76.2446 17.7085C76.1637 17.8759 76.0693 18.1496 76.0262 18.3076C75.9884 18.4662 75.9271 18.7978 75.8981 19.0518C75.8635 19.3865 75.8556 19.7234 75.8745 20.0594C75.8934 20.361 75.946 20.8125 75.9932 21.0671C76.0457 21.3163 76.1307 21.6615 76.188 21.8344C76.2446 22.0019 76.3727 22.3042 76.4725 22.5057C76.5675 22.7025 76.7617 23.0048 76.8945 23.1777C77.032 23.3452 77.2505 23.5801 77.388 23.6904C77.5208 23.8062 77.7628 23.9593 77.9192 24.041C78.0756 24.118 78.3318 24.214 78.4889 24.2521C78.6453 24.295 78.9439 24.329 79.1529 24.329C79.3997 24.329 79.6417 24.295 79.8406 24.233C80.0118 24.1799 80.2532 24.0649 80.3866 23.9743C80.5147 23.8872 80.6994 23.7197 80.7992 23.6046C80.8936 23.4848 81.0365 23.2492 81.112 23.0817C81.199 22.8792 81.272 22.6708 81.3305 22.4581C81.3729 22.2851 81.4302 21.863 81.4586 21.5219C81.5002 21.1234 81.5017 20.7217 81.4633 20.3229C81.4302 20.0063 81.3588 19.5406 81.2927 19.2914C81.2231 19.0136 81.1344 18.7411 81.0271 18.4758C80.9284 18.2418 80.8093 18.0171 80.6711 17.8045C80.5262 17.5891 80.3575 17.391 80.1682 17.2142C79.9792 17.0467 79.7741 16.8987 79.5561 16.7723C79.374 16.6765 79.1835 16.5979 78.9871 16.5374C78.7841 16.49 78.5779 16.4582 78.3702 16.4421C78.1518 16.4271 77.9098 16.4366 77.7534 16.4754C77.5819 16.5155 77.415 16.5732 77.2552 16.6477ZM118.268 21.5076C118.596 21.5178 118.724 21.5464 118.975 21.6662C119.17 21.7575 119.355 21.8964 119.507 22.0598C119.635 22.1987 119.796 22.4342 119.867 22.5874C119.981 22.8271 119.995 22.9231 120 23.3214C120 23.7292 119.986 23.8062 119.853 24.0887C119.772 24.2569 119.611 24.4918 119.497 24.6116C119.383 24.7273 119.151 24.8907 118.98 24.9718C118.7 25.1011 118.624 25.1202 118.221 25.1202C117.813 25.1202 117.742 25.1011 117.462 24.967C117.264 24.8688 117.083 24.7391 116.926 24.583C116.786 24.4364 116.667 24.2699 116.575 24.0887C116.48 23.8926 116.442 23.7197 116.428 23.4419C116.414 23.173 116.428 22.9714 116.48 22.7937C116.541 22.6068 116.627 22.4292 116.736 22.2661C116.847 22.1091 116.98 21.9687 117.13 21.8487C117.248 21.7622 117.462 21.6472 117.604 21.5941C117.808 21.5171 117.951 21.4987 118.268 21.5076ZM117.367 21.8868C117.227 21.9705 117.1 22.0757 116.992 22.1987C116.878 22.3358 116.783 22.4873 116.708 22.6494C116.646 22.7937 116.584 23.0382 116.57 23.2009C116.556 23.3866 116.574 23.5733 116.622 23.753C116.665 23.8974 116.764 24.118 116.84 24.2426C116.921 24.3672 117.087 24.5449 117.21 24.6361C117.334 24.7273 117.542 24.8424 117.675 24.8853C117.808 24.933 118.045 24.967 118.221 24.967C118.415 24.962 118.607 24.9264 118.79 24.8615C118.932 24.8084 119.155 24.6695 119.288 24.5544C119.441 24.4109 119.567 24.2421 119.663 24.0553C119.777 23.83 119.81 23.6959 119.824 23.3936C119.838 23.0913 119.819 22.9517 119.744 22.7454C119.684 22.5825 119.6 22.4291 119.497 22.2899C119.389 22.1579 119.265 22.0403 119.127 21.9399C118.971 21.8399 118.802 21.7637 118.624 21.7139C118.477 21.674 118.326 21.65 118.173 21.6424C118.045 21.6513 117.918 21.672 117.794 21.7044C117.675 21.7384 117.486 21.8201 117.367 21.8868ZM117.509 22.1701L117.97 22.1653C118.226 22.1653 118.496 22.1891 118.577 22.213C118.666 22.246 118.743 22.3044 118.799 22.3811C118.847 22.4485 118.899 22.597 118.913 22.7073C118.932 22.8462 118.918 22.9714 118.866 23.0913C118.818 23.2016 118.729 23.3023 118.482 23.4269L118.705 23.926C118.828 24.199 118.932 24.4346 118.932 24.4489C118.932 24.4584 118.866 24.4727 118.79 24.4727C118.657 24.4727 118.634 24.4387 118.173 23.465H117.794V24.4727H117.509V22.1701ZM117.841 23.2254C118.368 23.2016 118.472 23.1723 118.548 23.1056C118.619 23.0334 118.648 22.9517 118.648 22.8176C118.648 22.712 118.629 22.6017 118.61 22.5684C118.571 22.5232 118.522 22.4871 118.468 22.4628C118.41 22.4336 118.245 22.4097 118.102 22.4097H117.841V23.2254Z" fill="#21313C"/>
</g>
<defs>
<clipPath id="clip0_337_2912">
<rect width="120" height="32" fill="white"/>
</clipPath>
</defs>
</svg>
