<svg width="88" height="26" viewBox="0 0 88 26" fill="none" xmlns="http://www.w3.org/2000/svg">
<g clip-path="url(#clip0_337_2909)">
<path d="M1.45994 0.686391C1.48072 0.506205 1.5015 0.336298 1.51189 0.312112C1.52167 0.278252 1.96594 0.270996 5.76889 0.287926L5.82817 0.478391C5.85872 0.582391 6.95872 3.93458 8.26894 7.92346C9.57978 11.9129 10.6614 15.1889 10.6718 15.2029C10.6859 15.2131 11.8054 11.8646 15.6194 0.287926L19.6778 0.270996L19.7022 0.433647C19.7193 0.526764 19.7853 1.07458 19.8507 1.65565C19.9167 2.23793 20.031 3.29728 20.1074 4.01076C20.1838 4.72425 20.3017 5.8876 20.3677 6.59021C20.4368 7.29704 20.548 8.51904 20.6134 9.30872C20.6794 10.0984 20.7631 11.1753 20.8047 11.6983C20.8426 12.2213 20.9049 13.1422 20.9434 13.7414C20.9813 14.34 21.0332 15.2754 21.0644 15.819C21.0901 16.3233 21.1249 17.0507 21.1463 17.5017L21.1512 17.6027C21.1683 18.0387 21.2031 18.8423 21.2202 19.3864C21.2379 19.9294 21.2551 20.4385 21.2551 20.6671H17.8573L17.8402 20.418C17.8328 20.2789 17.8157 19.7529 17.8053 19.2474C17.7949 18.7419 17.7705 17.9111 17.7534 17.3947C17.7326 16.8789 17.6941 15.9369 17.6666 15.2996C17.6354 14.6623 17.5798 13.603 17.545 12.9451C17.4008 10.547 17.2158 8.15139 16.9901 5.75941C16.9314 5.17048 16.8728 4.63053 16.8312 4.44369L16.7719 4.61662C16.7408 4.71337 15.6139 8.24211 14.2688 12.4602C12.9232 16.6782 11.7822 20.2517 11.6508 20.6671L9.03956 20.6496L8.02756 17.4643C7.469 15.712 6.31461 12.0829 5.4615 9.39518C4.60778 6.70811 3.90072 4.50234 3.88667 4.48844C3.87628 4.47453 3.84511 4.717 3.82067 5.02537C3.79622 5.33374 3.74489 6.02909 3.71006 6.57328C3.67217 7.11686 3.61961 7.95188 3.58844 8.42593C3.56094 8.89997 3.51572 9.75193 3.48456 10.313C3.45706 10.8742 3.40817 11.8712 3.38067 12.5291C3.35317 13.1876 3.30733 14.4096 3.27678 15.2476C3.24349 16.3036 3.21456 17.3597 3.19 18.416L3.13806 20.6496L0 20.6677L0.0171111 20.158L0.0195556 20.0945C0.0317778 19.7613 0.0611111 18.9644 0.0904444 18.243C0.117944 17.4709 0.163167 16.3596 0.190667 15.767C0.218167 15.175 0.267056 14.2814 0.294556 13.7759C0.322667 13.2704 0.377667 12.384 0.416167 11.8023C0.454056 11.2206 0.534111 10.1365 0.589722 9.39579C0.726446 7.66816 0.883512 5.94217 1.06089 4.21816C1.12689 3.58146 1.23444 2.59769 1.30044 2.03658C1.3695 1.47607 1.43978 0.866577 1.45994 0.686391ZM24.8814 11.6046C23.8413 8.36002 22.9882 5.68323 22.9882 5.65541C22.9882 5.61067 23.1959 5.60341 26.3169 5.60341L26.3859 5.81807C26.4208 5.939 27.0276 7.90653 27.7347 10.1921C28.4387 12.4777 29.0522 14.4791 29.1011 14.6417C29.15 14.805 29.2362 15.1055 29.2954 15.3171C29.3504 15.5288 29.4482 15.9097 29.5069 16.1655C29.5656 16.4218 29.6456 16.8197 29.6798 17.0483C29.7183 17.2768 29.7593 17.6438 29.7703 17.8621C29.7911 18.2152 29.7978 18.2503 29.8393 18.1741C29.8638 18.1257 30.0716 17.5265 30.3007 16.8409C30.5293 16.1552 30.8348 15.1889 30.9766 14.6937C31.119 14.1979 31.3311 13.4191 31.4447 12.962C31.5596 12.5049 31.7222 11.8192 31.8089 11.4383C31.8957 11.0574 32.0344 10.3862 32.1206 9.94965C32.3214 8.91494 32.4972 7.87566 32.648 6.83267C32.6969 6.4729 32.7556 6.05025 32.8179 5.62095L36.0427 5.60341L36.0287 5.70016C36.0219 5.75276 35.9107 6.33081 35.7824 6.98867C35.6334 7.73463 35.4774 8.47919 35.3143 9.22225C35.1859 9.79365 34.9611 10.7423 34.8119 11.3349C34.5157 12.5038 34.1859 13.6642 33.8232 14.8147C33.5729 15.6018 33.2988 16.3814 33.0012 17.1523C32.84 17.5708 32.6713 17.9864 32.4952 18.399C32.3498 18.7419 32.0797 19.3272 31.8957 19.6978C31.6946 20.1069 31.4831 20.511 31.2614 20.9096C31.0386 21.2903 30.8063 21.6655 30.5647 22.0348C30.349 22.3607 30.0025 22.8348 29.7947 23.0911C29.59 23.3475 29.2325 23.746 29.0039 23.9776C28.7603 24.2197 28.5059 24.4509 28.2413 24.6705C28.0241 24.841 27.7983 25.0004 27.5648 25.1482C27.3845 25.2624 27.0967 25.4221 26.9231 25.5013C26.7502 25.5847 26.4623 25.699 26.2821 25.7576C26.049 25.8299 25.8116 25.8876 25.5713 25.9306C25.3391 25.9729 25.0336 26.0001 24.7909 26.0001C24.5282 26.0001 24.2746 25.9759 24.0454 25.9306C23.8883 25.9005 23.7324 25.8648 23.5779 25.8236C23.5119 25.806 23.2723 25.7232 22.6417 25.4982V23.6801L22.9607 23.7043C23.1373 23.7212 23.6194 23.7321 24.0283 23.7284C24.7188 23.7248 24.7983 23.7182 25.1203 23.6317C25.311 23.5833 25.5848 23.486 25.7272 23.417C25.8696 23.3475 26.081 23.226 26.1953 23.1431C26.3566 23.0208 26.5084 22.8866 26.6493 22.7416C26.785 22.5996 26.972 22.3674 27.0655 22.2253C27.1596 22.0838 27.2769 21.8655 27.3295 21.7409C27.3778 21.6158 27.4438 21.3945 27.4749 21.2451C27.5055 21.1 27.5299 20.8715 27.5299 20.7366C27.5299 20.6012 27.4994 20.3176 27.4646 20.1029C27.4046 19.7926 27.3353 19.4841 27.2568 19.1778C27.1596 18.8067 27.0555 18.4374 26.9445 18.0701C26.851 17.7551 25.9215 14.8461 24.8814 11.6046Z" fill="#00758F"/>
<path fill-rule="evenodd" clip-rule="evenodd" d="M44.6926 -7.33763e-05C44.7586 -0.00309663 45.0605 0.0108103 45.3617 0.0283452C45.66 0.0489034 46.0621 0.0869964 46.2534 0.11481C46.444 0.142624 46.752 0.197648 46.9396 0.239368C47.5849 0.395619 48.2141 0.611207 48.8188 0.883322C49.0584 0.994578 49.4049 1.17779 49.5919 1.28541C49.7758 1.39244 49.939 1.50309 49.9494 1.52728C49.9628 1.54844 49.7929 1.95658 49.5784 2.42821C49.3596 2.89862 49.1726 3.28681 49.1549 3.28318C49.1415 3.28318 49.0718 3.259 48.9991 3.22816C48.8306 3.15995 48.6606 3.09524 48.4894 3.03407C48.2816 2.96151 47.907 2.8436 47.6571 2.78132C47.3763 2.70893 47.0929 2.64641 46.8076 2.59388C46.5491 2.54874 46.289 2.51304 46.0279 2.48686C45.8201 2.46932 45.4901 2.45239 45.2994 2.45239C45.1087 2.45239 44.8142 2.46932 44.6406 2.48686C44.4425 2.5123 44.2459 2.54803 44.0515 2.59388C43.8987 2.63197 43.6354 2.73295 43.4618 2.81579C43.2882 2.89862 43.0426 3.05765 42.9069 3.1689C42.7527 3.305 42.6112 3.45455 42.484 3.61574C42.3758 3.76009 42.2797 3.91297 42.1968 4.07286C42.1337 4.20703 42.0814 4.34593 42.0404 4.48825C42.0036 4.63857 41.9781 4.79135 41.964 4.94537C41.9536 5.09774 41.9603 5.31965 41.9847 5.4823C42.0092 5.63467 42.0752 5.87714 42.1302 6.01923C42.1858 6.16072 42.3074 6.39653 42.4009 6.53862C42.4944 6.68072 42.671 6.90565 42.789 7.03686C42.9106 7.16867 43.1287 7.36942 43.2717 7.4843C43.4135 7.59797 43.6806 7.78844 43.8609 7.90635C44.0411 8.02728 44.4952 8.2909 44.8661 8.49467C45.2371 8.70267 45.8476 9.04188 46.2185 9.24988C46.5895 9.45788 47.3069 9.863 47.8135 10.1502C48.3195 10.4344 48.8811 10.7772 49.0614 10.9121C49.2417 11.0469 49.5711 11.3347 49.7899 11.556C50.0117 11.7779 50.2751 12.0893 50.3863 12.252C50.4932 12.4152 50.646 12.6783 50.7187 12.8409C50.7951 13.0042 50.899 13.2666 50.9479 13.4298C50.9968 13.5925 51.0518 13.8174 51.0726 13.9317C51.0897 14.046 51.1215 14.3023 51.1422 14.5031C51.163 14.7353 51.1594 15.0291 51.1386 15.317C51.1202 15.5718 51.0925 15.8259 51.0555 16.0788C51.0274 16.2481 50.965 16.5323 50.9167 16.7016C50.8648 16.8715 50.7676 17.1557 50.6949 17.3256C50.6216 17.4949 50.5006 17.7446 50.4242 17.8795C50.3133 18.0644 50.193 18.2436 50.0636 18.4164C49.942 18.579 49.7098 18.8421 49.5472 19.0047C49.3841 19.168 49.0962 19.4171 48.9056 19.5592C48.7149 19.7043 48.4204 19.902 48.2468 19.9951C48.0732 20.0919 47.8099 20.2273 47.6571 20.2932C47.5043 20.3622 47.2171 20.4698 47.0154 20.5387C46.815 20.6052 46.5027 20.6911 46.3224 20.7292C46.1421 20.7673 45.8299 20.8259 45.6288 20.8574C45.4106 20.8924 44.9389 20.9239 44.45 20.9336C43.9232 20.9475 43.493 20.9372 43.2363 20.913C43.0181 20.8888 42.7059 20.8471 42.5433 20.8193C42.3221 20.7796 42.1024 20.7322 41.8845 20.6772C41.6829 20.6288 41.3467 20.5321 41.139 20.4595C40.9312 20.39 40.6189 20.2721 40.4454 20.2031C40.2718 20.1306 39.9461 19.9812 39.7175 19.8669C39.4297 19.7196 39.1464 19.5637 38.8681 19.3996C38.7 19.3 38.5345 19.1962 38.3719 19.0882C38.3169 19.0428 38.3444 18.9805 38.7501 18.163C38.9891 17.6854 39.1901 17.2875 39.1938 17.2839C39.1938 17.2766 39.36 17.3498 39.5611 17.4429C39.7627 17.5366 40.1196 17.6926 40.3586 17.7857C40.5981 17.8825 41.0033 18.0252 41.26 18.1008C41.5166 18.1806 41.9224 18.2809 42.162 18.3293C42.4003 18.3777 42.8134 18.4333 43.0805 18.4575C43.4581 18.4889 43.6836 18.489 44.0857 18.4545C44.3592 18.4347 44.6314 18.4 44.901 18.3505C45.0635 18.3124 45.2964 18.2501 45.4204 18.2084C45.7381 18.0948 46.0408 17.9435 46.3218 17.7579C46.4263 17.689 46.6377 17.4985 46.7905 17.3395C46.9775 17.1418 47.1162 16.955 47.2134 16.7711C47.2898 16.6188 47.3906 16.3872 47.4322 16.2517C47.4872 16.0788 47.5153 15.8847 47.5287 15.5763C47.5428 15.2474 47.5324 15.0811 47.4872 14.884C47.4399 14.6935 47.3737 14.5079 47.2898 14.3302C47.202 14.1485 47.0988 13.9745 46.9812 13.8102C46.8445 13.6347 46.695 13.4693 46.5339 13.3156C46.378 13.1704 46.1385 12.9655 46.0034 12.8651C45.859 12.7587 45.711 12.6571 45.5597 12.5603C45.4559 12.4914 45.1503 12.3143 44.8832 12.1655C44.1361 11.7457 43.3906 11.3233 42.6466 10.8982C41.2532 10.1018 40.823 9.84183 40.5321 9.61025C40.3305 9.45062 40.0359 9.18095 39.8734 9.01104C39.7102 8.84174 39.4847 8.56058 39.3667 8.39128C39.2431 8.204 39.1308 8.00956 39.0306 7.809C38.9616 7.66388 38.8644 7.42202 38.8125 7.2763C38.7636 7.12695 38.6945 6.82583 38.653 6.60755C38.5974 6.29918 38.5833 6.06035 38.5833 5.55123C38.5833 5.03546 38.5974 4.80751 38.653 4.49551C38.6909 4.27723 38.7776 3.93439 38.8436 3.73365C38.9134 3.52087 38.9967 3.31266 39.093 3.11025C39.1663 2.96816 39.3044 2.72569 39.4046 2.57332C39.5024 2.42095 39.6931 2.17183 39.8281 2.01946C39.9601 1.86709 40.1924 1.6349 40.3445 1.50309C40.4936 1.37551 40.7576 1.17416 40.9312 1.05988C41.1041 0.945601 41.4164 0.769647 41.6242 0.668671C41.832 0.568299 42.1791 0.429834 42.3869 0.363927C42.5946 0.294996 42.9246 0.208531 43.1153 0.170438C43.3448 0.125629 43.5763 0.0909279 43.8089 0.0664383C43.9996 0.0452755 44.2489 0.0210894 44.3632 0.0180662C44.4781 0.0108103 44.626 0.00415918 44.6926 -7.33763e-05ZM61.1626 0.0108103C61.5715 0.0180662 62.1019 0.0489034 62.3415 0.0803452C62.6207 0.116857 62.8982 0.165274 63.1732 0.225462C63.392 0.273834 63.7354 0.367555 63.9365 0.433461C64.4451 0.608694 64.9333 0.837348 65.3927 1.11551C65.5345 1.20923 65.7912 1.39607 65.9647 1.53453C66.1377 1.6736 66.3944 1.90881 66.5367 2.06058C66.6791 2.20993 66.8832 2.45239 66.9908 2.59388C67.0984 2.73295 67.2682 2.98207 67.3721 3.14472C67.473 3.30797 67.66 3.65746 67.7883 3.92411C67.9166 4.19016 68.0902 4.61342 68.177 4.8589C68.2637 5.10802 68.3884 5.52704 68.4544 5.79369C68.5198 6.06035 68.617 6.52109 68.6659 6.81556C68.7141 7.11002 68.7801 7.56351 68.8076 7.81928C68.8357 8.07625 68.8773 8.62346 68.8981 9.0316C68.9225 9.46816 68.9292 10.1157 68.9152 10.6007C68.9052 11.0164 68.8867 11.4319 68.8596 11.8469C68.8384 12.092 68.8142 12.3369 68.7869 12.5815C68.7258 13.0811 68.6436 13.578 68.5406 14.0708C68.4194 14.6284 68.2621 15.1778 68.0694 15.7154C67.993 15.9162 67.861 16.2348 67.7779 16.4253C67.6948 16.6157 67.5249 16.941 67.4033 17.1521C67.286 17.3637 67.1124 17.6406 67.0189 17.7755C66.9285 17.9109 66.7519 18.1425 66.6302 18.2955C66.5092 18.4472 66.2349 18.7381 65.6354 19.3167L69.3454 21.1518L69.2861 21.2661C69.2519 21.332 68.95 21.855 68.617 22.4264C68.2845 23.0009 68.0034 23.4725 67.993 23.4725C67.9826 23.4725 66.8832 22.8346 63.1212 20.6427L62.8096 20.7225C62.6029 20.7741 62.3946 20.819 62.185 20.8574C61.9719 20.8915 61.7582 20.9218 61.544 20.9481C61.3637 20.968 60.8644 20.9856 60.4342 20.9856C59.9349 20.9856 59.4809 20.965 59.1692 20.9269C58.9015 20.8955 58.4964 20.8302 58.2672 20.7848C57.9686 20.7184 57.6735 20.6377 57.3829 20.5429C57.1057 20.4485 56.8338 20.3395 56.5683 20.2164C56.3359 20.1022 56.1102 19.975 55.8924 19.8355C55.6784 19.6904 55.4712 19.5356 55.2715 19.3717C55.0758 19.2041 54.8917 19.0237 54.7203 18.8318C54.5816 18.6685 54.3597 18.3813 54.2314 18.1909C54.0836 17.9722 53.946 17.7471 53.8189 17.5161C53.683 17.2503 53.559 16.9788 53.4474 16.7022C53.3243 16.3891 53.2134 16.0714 53.1149 15.7499C53.0385 15.4935 52.9316 15.0569 52.8754 14.78C52.8204 14.5031 52.7507 14.1149 52.7226 13.9142C52.68 13.6208 52.6444 13.3264 52.6156 13.0314C52.5808 12.7091 52.5496 12.0337 52.5392 11.2658C52.5252 10.4755 52.5356 9.80374 52.56 9.43007C52.5808 9.10416 52.6334 8.58476 52.6712 8.26974C52.7091 7.95472 52.7922 7.43532 52.8582 7.11002C52.9242 6.78774 53.0416 6.30281 53.118 6.03616C53.198 5.77011 53.316 5.40248 53.382 5.2223C53.448 5.04272 53.635 4.63034 53.7945 4.30504C53.9639 3.96016 54.1527 3.62487 54.3597 3.30072C54.5125 3.07216 54.7894 2.70514 54.977 2.48686C55.1676 2.26918 55.4585 1.97109 55.6321 1.82174C55.8056 1.673 56.0831 1.45169 56.256 1.32653C56.4296 1.20197 56.8042 0.983694 57.0884 0.842206C57.4078 0.682265 57.7379 0.54428 58.0765 0.429229C58.3332 0.346392 58.739 0.235741 58.9779 0.187368C59.2364 0.137204 59.4967 0.0968639 59.7583 0.0664383C59.949 0.0452755 60.1739 0.0210894 60.2606 0.0144383C60.3474 0.00718244 60.7532 0.00718244 61.1626 0.0108103ZM59.6544 2.61504C59.5016 2.64286 59.2517 2.71179 59.0995 2.76742C58.9467 2.82244 58.6974 2.93672 58.5446 3.02741C58.3919 3.11388 58.1596 3.2729 58.0282 3.38053C57.8738 3.50977 57.73 3.65089 57.598 3.80258C57.4905 3.92714 57.3206 4.15932 57.213 4.32258C57.1091 4.48462 56.9564 4.75793 56.8769 4.92844C56.7829 5.1268 56.6973 5.32893 56.6202 5.5343C56.5616 5.69695 56.4571 6.03253 56.3947 6.27862C56.3213 6.56479 56.2589 6.85362 56.2077 7.14448C56.1582 7.43192 56.1166 7.72065 56.0831 8.01035C56.0428 8.4193 56.0126 8.82918 55.9926 9.2396C55.9713 9.75871 55.9656 10.2783 55.9755 10.7978C55.989 11.2271 56.0134 11.7882 56.0342 12.0446C56.0519 12.301 56.1002 12.7611 56.135 13.0664C56.1729 13.3706 56.2493 13.838 56.3049 14.1046C56.3599 14.3713 56.4607 14.7764 56.5267 15.0056C56.5958 15.2335 56.7278 15.6078 56.825 15.8363C56.9221 16.0685 57.1061 16.4144 57.2375 16.6157C57.3695 16.8165 57.5705 17.0795 57.6811 17.2004C57.7924 17.3256 58.0111 17.5191 58.1633 17.6297C58.3161 17.7446 58.5972 17.9139 58.7872 18.0046C58.9779 18.0941 59.2835 18.2084 59.4637 18.2568C59.6434 18.3021 59.9557 18.3608 60.1567 18.3813C60.3859 18.4091 60.7012 18.4164 61.0062 18.4055C61.2769 18.3916 61.6234 18.3541 61.7866 18.3154C61.9497 18.281 62.1991 18.2048 62.3415 18.1497C62.4832 18.0941 62.702 17.9937 62.8267 17.9242C63.1795 17.7237 63.497 17.4676 63.7666 17.166C63.8741 17.045 64.0404 16.8268 64.1339 16.6847C64.231 16.5426 64.3734 16.2971 64.4529 16.1405C64.5292 15.9821 64.6399 15.7354 64.6991 15.5939C64.7578 15.4518 64.855 15.1573 64.921 14.9469C64.987 14.7316 65.0805 14.3507 65.1287 14.1046C65.1813 13.8591 65.2504 13.4226 65.2882 13.1354C65.3327 12.7494 65.3686 12.3626 65.3958 11.975C65.4202 11.5663 65.4306 10.926 65.4166 10.2095C65.4062 9.58909 65.3787 8.89676 65.3579 8.6676C65.329 8.35526 65.2931 8.04359 65.2504 7.73281C65.2017 7.39092 65.1438 7.05039 65.0768 6.71156C65.0013 6.3733 64.9112 6.03842 64.8067 5.70783C64.7117 5.4256 64.6028 5.14813 64.4804 4.87644C64.3714 4.65619 64.25 4.44221 64.1167 4.23551C63.9823 4.04053 63.8339 3.85543 63.6725 3.68165C63.5173 3.52619 63.3504 3.38268 63.1732 3.25235C63.023 3.14741 62.8667 3.05131 62.7051 2.96453C62.5246 2.88059 62.3396 2.8067 62.1508 2.74323C61.9184 2.67033 61.6808 2.61475 61.4401 2.57695C61.1641 2.54185 60.886 2.52569 60.6077 2.52858C60.3511 2.52858 60.0944 2.53886 60.0357 2.54551C59.9765 2.55276 59.8066 2.5836 59.6544 2.61504ZM85.1597 18.1358L85.9261 18.1564L86.2518 18.9703C86.4321 19.4171 86.5849 19.7877 86.5879 19.7908C86.5916 19.7944 86.7028 19.5066 86.8342 19.1498C86.9662 18.7931 87.1012 18.4194 87.2021 18.1395H87.9996V20.6669H87.4447L87.427 18.9255L86.7859 20.6669L86.3869 20.6705L85.6939 18.8245L85.6761 20.6669H85.1561L85.1597 18.1358ZM71.8418 0.27081H75.1357V18.1395H81.5499V20.6669H71.8418V0.27081ZM82.59 18.1395H84.6012V18.5893H83.9082V20.6669H83.3704L83.346 20.5526C83.3325 20.4903 83.3185 20.0229 83.3185 18.5893H82.59V18.1395Z" fill="#F29111"/>
</g>
<defs>
<clipPath id="clip0_337_2909">
<rect width="88" height="26" fill="white"/>
</clipPath>
</defs>
</svg>
