<svg width="109" height="26" viewBox="0 0 109 26" fill="none" xmlns="http://www.w3.org/2000/svg">
<g clip-path="url(#clip0_337_4987)">
<mask id="mask0_337_4987" style="mask-type:luminance" maskUnits="userSpaceOnUse" x="0" y="0" width="109" height="26">
<path d="M0.000976562 0H108.334V26H0.000976562V0Z" fill="white"/>
</mask>
<g mask="url(#mask0_337_4987)">
<path fill-rule="evenodd" clip-rule="evenodd" d="M66.6879 0.00415039L67.6189 0.0165313C68.4521 0.025198 68.5747 0.037579 68.8031 0.118055C68.943 0.168817 69.1585 0.282722 69.2854 0.371246C69.4123 0.455436 69.5856 0.633103 69.6791 0.759389C69.7676 0.886293 69.8821 1.09739 69.9286 1.22367C69.9874 1.38029 70.0171 1.56167 70.0214 1.77277C70.0214 1.9461 69.9917 2.19434 69.9539 2.32125C69.9199 2.44815 69.7887 2.70506 69.6618 2.89077C69.5349 3.08515 69.3659 3.27458 69.2687 3.34267C69.16 3.41174 69.0417 3.46431 68.9177 3.49867C68.8199 3.52406 68.4608 3.5451 68.1135 3.5451C67.7712 3.5451 67.2252 3.51601 66.8996 3.48629C66.5739 3.45225 66.2397 3.40148 66.1592 3.37239C66.0566 3.33303 65.9576 3.28498 65.8633 3.22877C65.7584 3.15821 65.6618 3.07597 65.5754 2.98363C65.4926 2.88206 65.4191 2.7733 65.3557 2.65863C65.2977 2.5334 65.2551 2.40162 65.2288 2.26615C65.2003 2.12006 65.2003 1.92753 65.2288 1.68796C65.2541 1.45582 65.3136 1.24101 65.3897 1.07634C65.4529 0.937055 65.5928 0.729674 65.6943 0.615769C65.8001 0.506198 65.9394 0.371246 66.0112 0.324817C66.0793 0.274055 66.2607 0.181198 66.413 0.118055L66.6879 0.00415039ZM100.994 5.32672C101.015 5.32239 101.836 5.41525 102.814 5.52915C104.218 5.69382 104.662 5.76129 104.928 5.84548C105.115 5.90863 105.479 6.05658 105.732 6.17915C105.986 6.30172 106.312 6.47877 106.451 6.57163C106.591 6.66448 106.781 6.82482 106.875 6.92634C106.972 7.03158 107.132 7.25506 107.234 7.42839C107.39 7.69025 107.424 7.79115 107.437 7.99791C107.45 8.15886 107.429 8.31487 107.39 8.4201C107.352 8.51296 107.242 8.66525 107.136 8.7581C106.976 8.90544 106.866 8.95187 106.363 9.10415C106.041 9.20134 105.622 9.30225 105.436 9.33196C105.225 9.36601 104.912 9.37406 104.611 9.36167C104.305 9.34439 104 9.29922 103.702 9.22672C103.405 9.15058 103.075 9.01563 102.602 8.78348C102.23 8.59777 101.751 8.39472 101.545 8.33158C101.215 8.23067 101.088 8.21767 100.614 8.21396C100.085 8.20901 100.051 8.21767 99.7889 8.34025C99.6089 8.42719 99.4362 8.52864 99.2727 8.64358C99.0907 8.77482 98.9978 8.88067 98.9217 9.04472C98.8559 9.17908 98.8197 9.32603 98.8158 9.47558C98.8158 9.61487 98.8542 9.76653 98.9217 9.91015C98.9978 10.0662 99.095 10.1801 99.2473 10.294C99.3699 10.3868 99.5308 10.4883 99.5983 10.5224C99.6701 10.5558 99.9158 10.6443 100.149 10.7205C100.381 10.7966 100.791 10.9105 101.058 10.9823C101.324 11.0498 101.819 11.1513 102.157 11.2102C102.585 11.2781 103.016 11.3274 103.448 11.3581C103.858 11.3792 104.256 11.4299 104.463 11.4807C104.649 11.5308 104.924 11.6237 105.076 11.6955C105.229 11.7673 105.495 11.9109 105.669 12.0205C105.842 12.1257 106.358 12.4043 106.811 12.6371C107.416 12.9447 107.699 13.1181 107.864 13.2747C107.991 13.3923 108.147 13.5613 108.338 13.8232L108.334 17.2205L108.147 17.5919C108.025 17.8327 107.86 18.0686 107.669 18.2716C107.513 18.445 107.268 18.6598 107.128 18.757C106.988 18.8498 106.739 18.9891 106.578 19.0603C106.418 19.1371 106.139 19.238 105.965 19.2844C105.791 19.3352 105.495 19.3946 105.309 19.4193C105.123 19.441 104.819 19.4912 104.632 19.5295C104.411 19.5763 104.193 19.6327 103.977 19.6985C103.803 19.7573 103.439 19.8966 103.173 20.0142C102.906 20.1331 102.581 20.2427 102.454 20.2637C102.327 20.2804 101.688 20.3399 101.037 20.3906C99.8818 20.4878 99.8397 20.4878 99.2603 20.4154C98.8915 20.3704 98.5245 20.3113 98.1602 20.2383C97.5152 20.1034 96.8817 19.9185 96.2653 19.6855C95.9625 19.5623 95.6634 19.4301 95.3683 19.2893C94.9412 19.0863 94.8056 18.9934 94.5097 18.7149C94.2602 18.4827 94.1203 18.3137 94.0442 18.1491C93.96 17.972 93.9346 17.8538 93.9346 17.6427C93.9383 17.4446 93.9637 17.309 94.0442 17.1363C94.1036 17.0094 94.1965 16.8491 94.2559 16.7772C94.3153 16.7098 94.4546 16.6002 94.5691 16.5414C94.7084 16.4652 94.9666 16.3928 95.3683 16.3173C95.761 16.2508 96.156 16.1988 96.5526 16.1613C96.8788 16.1359 97.3394 16.1272 97.5808 16.1402C97.847 16.157 98.0971 16.1991 98.2364 16.2498C98.4013 16.3205 98.5597 16.4055 98.7099 16.5036C98.8498 16.5965 99.108 16.7983 99.2813 16.9586C99.459 17.1152 99.7549 17.322 99.9369 17.4192C100.155 17.5285 100.381 17.6202 100.614 17.6934C100.901 17.7776 101.041 17.7906 101.545 17.7863C101.997 17.782 102.213 17.7609 102.454 17.6978C102.627 17.6513 102.902 17.5498 103.067 17.47C103.232 17.3938 103.439 17.2626 103.528 17.1827C103.621 17.0979 103.74 16.9376 103.79 16.8193C103.858 16.6801 103.892 16.5327 103.892 16.3767C103.892 16.2498 103.871 16.0808 103.846 15.9966C103.803 15.8913 103.749 15.7909 103.685 15.697C103.602 15.5861 103.5 15.4904 103.384 15.4141C103.279 15.3423 103.02 15.2284 102.814 15.1522C102.593 15.0775 102.375 14.9989 102.157 14.9164C102.005 14.857 101.434 14.5908 100.888 14.3252C100.17 13.9785 99.7759 13.8145 99.4714 13.734C99.0907 13.6331 98.9848 13.6244 98.393 13.6331C98.0333 13.6374 97.5257 13.6455 97.2719 13.6455C96.9122 13.6498 96.7302 13.6288 96.4684 13.5526C96.2206 13.4768 95.9799 13.3795 95.749 13.2617C95.4488 13.1094 95.2878 12.9874 94.9833 12.6878C94.7549 12.4594 94.5264 12.1852 94.4249 12.0081C94.3277 11.8472 94.1797 11.5054 94.0949 11.2485C93.96 10.8344 93.9383 10.7248 93.9173 10.2141C93.9006 9.77953 93.9129 9.5641 93.968 9.28553C94.0108 9.09115 94.1079 8.76615 94.1884 8.56744C94.2683 8.37367 94.4379 8.05734 94.5648 7.87163C94.6874 7.68591 94.9115 7.41972 95.0594 7.27672C95.2074 7.1331 95.5082 6.87991 95.728 6.71525C96.0107 6.51267 96.3076 6.33061 96.6163 6.17048C96.8825 6.0312 97.3103 5.85415 97.5678 5.76934C97.8259 5.68886 98.2153 5.58796 98.4351 5.5502C98.6555 5.51244 99.2392 5.46601 99.7252 5.44496C100.212 5.42329 100.69 5.38553 100.783 5.36448C100.876 5.34777 100.969 5.32672 100.994 5.32672ZM50.5926 5.42329C50.9403 5.42794 51.2869 5.4619 51.6289 5.52482C51.8617 5.57125 52.225 5.67277 52.4324 5.74458C52.6398 5.81577 52.9444 5.94267 53.1097 6.01882C53.2706 6.09434 53.6724 6.32648 53.998 6.52953C54.539 6.86691 54.6109 6.90096 54.8436 6.91767C54.9922 6.92634 55.1655 6.90901 55.267 6.87558C55.3599 6.84587 55.5376 6.71958 55.6688 6.59701C55.7957 6.47444 56.0155 6.30977 56.1554 6.23796C56.2947 6.16244 56.5144 6.05658 56.6413 6.00148C56.7689 5.94701 57.0437 5.86653 57.2548 5.82444C57.4919 5.77367 57.8051 5.74396 58.08 5.74396C58.3251 5.74396 58.6557 5.76934 58.8204 5.80339C58.9813 5.83744 59.2772 5.92596 59.4759 6.00148C59.7762 6.11972 59.8777 6.18348 60.1105 6.41563C60.2925 6.60134 60.4324 6.79077 60.5289 6.98515C60.6051 7.14982 60.6986 7.41601 60.732 7.57634C60.7747 7.77877 60.7877 7.97253 60.766 8.18796C60.745 8.40339 60.6732 8.69063 60.5333 9.07444C60.4144 9.4218 60.3099 9.77393 60.22 10.1299C60.153 10.4579 60.1009 10.7889 60.064 11.1216C60.0373 11.4445 60.0315 11.7687 60.0467 12.0923C60.0591 12.3498 60.1105 12.759 60.1526 12.9998C60.1947 13.2443 60.3092 14.1649 60.402 15.047C60.4949 15.9292 60.6311 17.3852 60.6986 18.276C60.7704 19.1705 60.8292 20.1034 60.8292 20.3436C60.8292 20.5887 60.8044 20.9521 60.7704 21.1459C60.732 21.344 60.6558 21.6566 60.5927 21.8423C60.5289 22.028 60.415 22.3152 60.3302 22.4756C60.2498 22.6402 60.1061 22.8848 60.0133 23.0241C59.9204 23.1633 59.7254 23.4209 59.5818 23.5936C59.4376 23.7712 59.1373 24.0839 58.9176 24.2906C58.6972 24.5011 58.3549 24.784 58.1605 24.9233C57.9655 25.0626 57.6064 25.2991 57.3607 25.4427C57.1155 25.5906 56.819 25.738 56.7051 25.772C56.5416 25.8107 56.3742 25.8305 56.2061 25.8308C55.9858 25.8308 55.8124 25.7931 55.4237 25.6624C55.1525 25.5696 54.8145 25.4643 54.6746 25.434C54.444 25.3869 54.2112 25.3517 53.9769 25.3288C53.6816 25.2957 53.3836 25.2942 53.088 25.3244C52.8429 25.3455 52.5513 25.3839 52.4324 25.4086C52.3185 25.434 51.9929 25.5312 51.7137 25.6241C51.4345 25.7169 50.9566 25.8395 50.6558 25.8946C50.3004 25.9621 49.9581 25.9998 49.6962 25.9998C49.3897 25.9931 49.084 25.9635 48.7819 25.9113C48.4947 25.8597 48.2097 25.7963 47.9276 25.7212C47.666 25.637 47.4115 25.5325 47.1662 25.4086C46.9071 25.2696 46.6596 25.1103 46.4258 24.932C46.2401 24.784 45.9987 24.5605 45.8934 24.4342C45.7723 24.2932 45.6578 24.1465 45.5505 23.9947C45.47 23.8808 45.2923 23.5769 45.1568 23.32C44.9283 22.8891 44.9073 22.834 44.8906 22.5177C44.8782 22.2515 44.8906 22.1339 44.9624 21.9482C45.0088 21.8212 45.119 21.6442 45.2075 21.5513C45.2967 21.4585 45.4824 21.3316 45.6223 21.2641C45.8253 21.1669 45.9349 21.1465 46.193 21.1415C46.4512 21.1372 46.57 21.1626 46.8276 21.2641C47.0009 21.3322 47.3525 21.4839 47.61 21.6015C47.8638 21.716 48.3127 21.8887 48.6042 21.9816C48.8964 22.0788 49.734 22.3282 50.4657 22.5344C51.1974 22.7455 51.9205 22.9566 52.0734 23.003C52.2257 23.0494 52.4832 23.1002 52.6441 23.1169C52.8051 23.1293 53.0713 23.1212 53.2366 23.0922C53.4142 23.0662 53.6761 22.9776 53.8921 22.8724C54.167 22.7412 54.3193 22.6316 54.552 22.3994C54.7631 22.184 54.8987 22.0032 55.0089 21.7792C55.0931 21.6015 55.1909 21.3192 55.2243 21.1248C55.2627 20.9391 55.3091 20.572 55.3302 20.3015C55.3599 19.9858 55.3599 19.6391 55.3345 19.2887C55.2968 18.8455 55.2751 18.7402 55.1909 18.614C55.1242 18.5223 55.0374 18.4471 54.9371 18.3942C54.8371 18.3486 54.7293 18.3227 54.6195 18.3181C54.5353 18.3181 54.2345 18.4066 53.9553 18.5124C53.6767 18.6177 53.304 18.7823 53.1307 18.8752C52.9574 18.9724 52.6825 19.1197 52.5172 19.2045C52.3256 19.2983 52.1276 19.3786 51.9248 19.4447C51.7639 19.4955 51.515 19.563 51.3751 19.5927C51.2358 19.6224 50.8842 19.6434 50.5926 19.6434C50.2583 19.6391 49.9364 19.6137 49.7259 19.5673C49.5034 19.5147 49.2843 19.4485 49.0698 19.3692C48.8585 19.2809 48.6537 19.1779 48.4569 19.0609C48.2562 18.93 48.0653 18.7848 47.8855 18.6263C47.7065 18.4592 47.5423 18.2769 47.3946 18.0816C47.2616 17.9028 47.1428 17.7138 47.0393 17.5164C46.944 17.3241 46.8593 17.1267 46.7855 16.9252C46.7145 16.7409 46.6398 16.558 46.5614 16.3767C46.4654 16.1753 46.3609 15.9781 46.2481 15.7855C46.1029 15.549 45.9448 15.3206 45.7746 15.1015C45.6347 14.9201 45.4787 14.6966 45.4316 14.6038C45.371 14.4712 45.3201 14.3345 45.2793 14.1946C45.2248 13.9965 45.2075 13.6331 45.1951 12.3034C45.1865 11.3581 45.1951 10.4549 45.2199 10.172C45.2459 9.90582 45.3047 9.47125 45.3518 9.20134C45.3982 8.93515 45.4867 8.5761 45.5418 8.39906C45.6012 8.22572 45.7275 7.93477 45.8253 7.75339C45.9225 7.57201 46.1212 7.27672 46.2611 7.09906C46.4105 6.91476 46.5729 6.7414 46.7471 6.58029C46.8746 6.47506 47.1278 6.28934 47.3141 6.16615C47.4999 6.04853 47.8007 5.89191 47.9827 5.82444C48.1604 5.75696 48.4185 5.67277 48.5491 5.63439C48.6853 5.60096 48.9552 5.5502 49.1546 5.52482C49.3527 5.50006 49.6195 5.46167 49.7464 5.44434C49.8733 5.42329 50.254 5.41525 50.5926 5.42329ZM51.6289 9.21806C51.4896 9.2812 51.2612 9.41615 51.1213 9.51334C50.9619 9.63225 50.8134 9.76504 50.6774 9.91015C50.5716 10.0284 50.4193 10.2352 50.3388 10.3701C50.2334 10.5602 50.1456 10.7596 50.0763 10.9656C49.9624 11.295 49.9581 11.3538 49.9581 12.1047C49.9581 12.5399 49.9791 13.1602 50.0045 13.4852C50.0256 13.8102 50.0763 14.1859 50.1098 14.3209C50.1444 14.4521 50.2286 14.6799 50.3004 14.8272C50.3809 14.9839 50.5375 15.1906 50.6941 15.3423C50.8378 15.4816 51.0495 15.6462 51.1634 15.7094C51.2822 15.7732 51.5274 15.866 51.7137 15.9205C51.9842 15.9966 52.1532 16.0177 52.5593 16.0177C53.0038 16.0133 53.1097 16.001 53.4056 15.9001C53.5913 15.832 53.837 15.7224 53.9553 15.6506C54.0698 15.5825 54.2518 15.4562 54.3533 15.372C54.4586 15.2872 54.6362 15.0934 54.7508 14.9412C54.8647 14.7938 55.0213 14.5363 55.0974 14.3716C55.1736 14.2107 55.267 13.9878 55.3048 13.8776C55.3432 13.7681 55.402 13.5019 55.4404 13.2871C55.4998 12.928 55.4998 12.8605 55.436 12.4724C55.3714 12.1328 55.2981 11.7949 55.2163 11.459C55.1315 11.1216 55.0002 10.7248 54.9068 10.5304C54.8015 10.3113 54.6529 10.0915 54.4759 9.89777C54.3236 9.73682 54.0822 9.52634 53.9299 9.43348C53.7878 9.34411 53.6411 9.26228 53.4904 9.18834C53.3515 9.13659 53.2102 9.09155 53.0669 9.05339C52.8931 9.01648 52.716 8.99678 52.5383 8.99458C52.382 8.99955 52.2265 9.01777 52.0734 9.04906C51.9675 9.07877 51.7688 9.15429 51.6289 9.21806ZM12.8808 22.8848C13.16 22.8804 13.9431 22.9232 14.6154 22.982C15.292 23.0414 16.5568 23.1429 17.4284 23.2141C18.3 23.2859 19.2434 23.3831 19.5226 23.4295C19.8228 23.4803 20.0977 23.5515 20.1992 23.6066C20.2878 23.6573 20.4277 23.7799 20.5038 23.8808C20.5967 23.9991 20.6518 24.126 20.6685 24.2609C20.6858 24.3748 20.6771 24.5438 20.6474 24.6491C20.6177 24.7543 20.5459 24.9066 20.4784 24.9871C20.4103 25.0756 20.2333 25.1975 20.0469 25.2904C19.8736 25.3795 19.6198 25.4804 19.4799 25.5188C19.3319 25.5566 19.0614 25.5863 18.8243 25.582C18.6046 25.582 17.3943 25.5312 16.1377 25.4724C14.2725 25.3795 13.6299 25.3622 12.6277 25.3839C11.9548 25.3962 11.0578 25.4383 10.6393 25.4724C10.2202 25.5058 9.61166 25.5566 9.28542 25.5776C8.9598 25.603 8.08447 25.6241 7.33975 25.6241C6.56099 25.6241 5.62623 25.595 5.13966 25.5609C4.61532 25.5188 3.70966 25.4978 2.75013 25.4978C1.46375 25.4978 1.16785 25.4854 0.973467 25.4297C0.826465 25.3839 0.684572 25.3231 0.550038 25.2483C0.425312 25.1735 0.307807 25.0873 0.199038 24.9908C0.0554193 24.8558 0.0380859 24.8174 0.0380859 24.628C0.0424193 24.4633 0.0678002 24.3748 0.177991 24.2102C0.254134 24.0962 0.452848 23.8808 0.6138 23.7335C0.799515 23.5602 1.03661 23.3998 1.24832 23.294C1.43404 23.2054 1.70951 23.1002 1.86118 23.0624C2.01409 23.0241 2.28832 22.9906 2.47466 22.9906C2.66099 22.9863 3.11847 23.0154 3.4899 23.0581C3.86256 23.0959 4.48037 23.151 4.8648 23.1757C5.24985 23.2054 6.23971 23.2265 7.0649 23.2265C7.88947 23.2265 8.90037 23.2054 9.30647 23.1763C9.82881 23.1398 10.3505 23.0948 10.8714 23.0414C11.3246 22.995 11.8489 22.9399 12.0352 22.9232C12.2209 22.9058 12.6017 22.8891 12.8808 22.8848ZM5.62623 0.139103C5.9438 0.151484 6.01994 0.17315 6.25642 0.300055C6.40499 0.379912 6.59071 0.514865 6.66685 0.603388C6.74732 0.687579 6.85751 0.852246 6.91261 0.962436C6.96709 1.07201 7.10699 1.40939 7.22523 1.70901C7.3478 2.01296 7.49637 2.34663 7.56385 2.44815C7.62699 2.55339 7.7669 2.70939 7.87275 2.7942C7.97428 2.87839 8.21075 3.02201 8.39709 3.11053C8.5828 3.20339 8.8199 3.33401 8.92575 3.40582C9.03161 3.47763 9.17523 3.6002 9.25137 3.68006C9.32318 3.7562 10.1694 4.95096 11.1296 6.33082C11.7691 7.25967 12.415 8.18413 13.0672 9.10415C13.1724 9.24777 13.4138 9.53006 13.6002 9.7331C13.7859 9.93553 14.023 10.159 14.1288 10.2222C14.2514 10.2983 14.374 10.3447 14.4798 10.341C14.5987 10.341 14.6618 10.3156 14.7337 10.2271C14.7931 10.1553 14.8482 10.003 14.8822 9.83401C14.907 9.68667 14.9497 9.36167 14.9794 9.11653C15.0085 8.87634 15.0339 8.27648 15.0339 7.78744C15.0382 7.3021 15.0215 6.34382 15.0005 5.65544C14.9738 4.88875 14.9793 4.12127 15.0172 3.35506C15.0469 2.77686 15.0723 2.1312 15.0766 1.9201C15.0809 1.61677 15.1063 1.4942 15.1905 1.30848C15.2651 1.15636 15.3589 1.01446 15.4697 0.886293C15.5626 0.78477 15.7322 0.645484 15.8461 0.586674C15.9606 0.522912 16.168 0.447388 16.3073 0.417674C16.506 0.375579 16.6372 0.375579 16.9208 0.417674C17.1195 0.442436 17.6141 0.485769 18.0208 0.501865C18.6256 0.535912 18.807 0.55696 19.015 0.637436C19.1543 0.687579 19.3617 0.793436 19.4799 0.865246C19.5944 0.940769 19.7931 1.1141 19.9157 1.24906C20.0426 1.38834 20.1906 1.59572 20.2457 1.70901C20.3008 1.82725 20.3942 2.10148 20.4487 2.32125C20.5038 2.54472 20.5713 2.86601 20.5973 3.03934C20.6177 3.21577 20.6431 4.09791 20.6431 5.00172C20.6474 5.90863 20.6771 7.3312 20.7155 8.16691C20.7533 9.12086 20.77 10.0792 20.7576 10.7422C20.7409 11.4169 20.7068 11.9908 20.6604 12.3244C20.5967 12.751 20.5843 13.1354 20.5799 14.2868C20.5799 15.5447 20.5923 15.8233 20.6815 16.5241C20.7576 17.1363 20.7743 17.4359 20.7533 17.7696C20.7409 18.0141 20.6938 18.4233 20.6518 18.6771C20.5967 18.9804 20.5292 19.2256 20.453 19.3735C20.365 19.5326 20.2554 19.6789 20.1274 19.8081C19.9815 19.9423 19.8177 20.0559 19.6408 20.1455C19.387 20.2637 19.2979 20.2804 18.9302 20.2978C18.6974 20.3058 18.2108 20.2804 17.8512 20.2427C17.4921 20.2049 16.9121 20.1251 16.5611 20.0656C16.2208 20.0078 15.8822 19.9401 15.5458 19.8626C15.3212 19.8022 15.1019 19.7233 14.8903 19.6267C14.5179 19.4462 14.18 19.2019 13.8918 18.9049C13.7741 18.778 13.4566 18.3478 13.1898 17.938C12.8592 17.4346 12.5446 16.9209 12.2463 16.3978C12.0123 15.9836 11.7684 15.5751 11.5146 15.1727C11.3157 14.8717 11.1084 14.5763 10.8931 14.2868C10.6337 13.9491 10.3655 13.6182 10.0889 13.2945C9.82794 12.9921 9.57548 12.6825 9.33185 12.3659C9.12623 12.0867 8.92746 11.8024 8.73571 11.5135C8.57042 11.2646 8.32961 10.8882 8.19404 10.6821C8.0628 10.471 7.90247 10.2686 7.83499 10.2259C7.73986 10.1771 7.63626 10.1471 7.5298 10.1373C7.42456 10.1293 7.27599 10.146 7.1918 10.1801C7.09071 10.2297 7.00126 10.3002 6.92932 10.3868C6.8699 10.4673 6.78571 10.6437 6.75166 10.783C6.69223 10.9904 6.67118 11.5259 6.62042 13.687C6.58637 15.1436 6.53994 16.4225 6.51518 16.5234C6.49352 16.6287 6.40066 16.8905 6.31585 17.106C6.16356 17.4774 6.15923 17.5195 6.15923 17.9801C6.15923 18.427 6.17161 18.4945 6.2948 18.8158C6.37094 19.0052 6.43037 19.2039 6.43037 19.2584C6.43037 19.3092 6.40871 19.4231 6.38766 19.5122C6.34562 19.6252 6.28095 19.7284 6.19761 19.8155C6.08309 19.9338 5.95185 19.9975 5.59713 20.1065C5.34332 20.187 4.97932 20.2761 4.77999 20.3052C4.56023 20.3349 4.2049 20.3479 3.87061 20.3349C3.48185 20.3182 3.20204 20.2798 2.91913 20.208C2.67389 20.1418 2.43354 20.0586 2.1998 19.9592C2.02647 19.8787 1.79804 19.74 1.70085 19.6472C1.59932 19.5543 1.45942 19.3933 1.39194 19.2881C1.31006 19.1425 1.24881 18.9863 1.20994 18.8238C1.16351 18.6338 1.12575 17.9633 1.07932 16.5655C1.02361 14.8012 1.02361 14.5524 1.07932 14.3202C1.11275 14.1723 1.19694 13.9402 1.26937 13.8015C1.34551 13.6529 1.54856 13.3873 1.76832 13.1515C1.97137 12.9317 2.20413 12.6445 2.28461 12.5095C2.36509 12.3746 2.46661 12.1678 2.50437 12.0496C2.54709 11.9357 2.58051 11.7753 2.58051 11.6905C2.58051 11.6101 2.55575 11.4503 2.52975 11.3315C2.49632 11.1972 2.35642 10.944 2.14904 10.6357C1.97137 10.3695 1.73428 9.97329 1.62471 9.7492C1.49663 9.48181 1.38499 9.20685 1.29042 8.92587C1.21428 8.69434 1.11709 8.34396 1.07932 8.14587C1.04094 7.95087 0.998848 7.59677 0.986467 7.36463C0.973467 7.13248 0.981515 6.50786 1.01123 5.97177C1.03661 5.43939 1.06632 4.21553 1.07932 3.2492C1.10037 1.93248 1.12142 1.4552 1.16351 1.32891C1.19756 1.22739 1.30342 1.08377 1.42599 0.969865C1.54856 0.860293 1.71385 0.759389 1.82342 0.725341C1.95466 0.68696 2.11561 0.678912 2.36942 0.695627C2.57618 0.712341 2.91913 0.704293 3.17294 0.674579C3.41809 0.649198 3.8539 0.565008 4.14609 0.488865C4.42472 0.417072 4.69988 0.332377 4.97066 0.235055C5.22447 0.142198 5.31732 0.126103 5.62685 0.138484L5.62623 0.139103ZM35.4699 5.57991C35.7599 5.5772 36.0496 5.59686 36.3366 5.63872C36.5569 5.67277 36.9123 5.76129 37.1197 5.82877C37.327 5.90058 37.6694 6.04791 37.8811 6.1581C38.0885 6.26767 38.4054 6.46144 38.5788 6.59267C38.7521 6.72329 39.0443 6.98515 39.2263 7.17086C39.4039 7.36091 39.6621 7.68158 39.7933 7.88401C39.9239 8.08706 40.0936 8.38667 40.1697 8.54639C40.2458 8.71167 40.3554 8.99829 40.4149 9.19267C40.504 9.47558 40.525 9.62353 40.525 9.99434C40.525 10.3744 40.504 10.5391 40.3765 11.0374C40.2756 11.438 40.2155 11.776 40.1994 12.0712C40.187 12.3374 40.1951 12.6581 40.2242 12.8735C40.2539 13.0716 40.3641 13.4895 40.4699 13.8021C40.6012 14.1983 40.6687 14.4688 40.6817 14.688C40.6984 14.9034 40.6773 15.182 40.6136 15.5534C40.5542 15.9233 40.5246 16.2974 40.525 16.672C40.525 16.9883 40.5461 17.3684 40.5671 17.5164C40.5925 17.6681 40.6389 17.9045 40.6773 18.0438C40.7238 18.2085 40.7405 18.3942 40.7281 18.5712C40.7157 18.7526 40.6687 18.926 40.5925 19.0776C40.5294 19.2089 40.4068 19.3816 40.322 19.4701C40.2372 19.5549 40.0595 19.6812 39.6998 19.8589L38.2828 19.888C37.145 19.909 36.8238 19.9003 36.6418 19.8545C36.5079 19.8183 36.3776 19.7703 36.2524 19.7109C36.1595 19.6645 35.9565 19.5209 35.7955 19.3859C35.6389 19.2553 35.4488 19.1241 35.3727 19.0906C35.2858 19.0581 35.1943 19.0395 35.1016 19.0355C35.0046 19.0395 34.9083 19.0536 34.8143 19.0776C34.7338 19.0987 34.5729 19.1915 34.4547 19.2887C34.3408 19.3816 34.1501 19.5085 34.0318 19.563C33.8622 19.6478 33.3125 19.753 31.3538 20.091C30.0006 20.3232 28.8077 20.5126 28.7018 20.5126C28.5279 20.5082 28.3543 20.4941 28.1818 20.4705C28.0036 20.4457 27.7114 20.3863 27.538 20.3399C27.3647 20.2891 27.0391 20.1752 26.8193 20.0861C26.6041 19.9977 26.3937 19.8979 26.1891 19.7871C26.0666 19.7109 25.8381 19.5165 25.6815 19.3519C25.5096 19.1684 25.363 18.9627 25.2457 18.7402C25.1609 18.5669 25.06 18.2927 25.0216 18.128C24.9622 17.8792 24.9535 17.5962 24.9665 16.313C24.9789 14.8483 24.9832 14.7852 25.0767 14.5196C25.1312 14.371 25.2457 14.1308 25.3305 13.9915C25.4147 13.8522 25.5924 13.6374 25.7193 13.5149C25.8462 13.388 26.0579 13.2276 26.1848 13.1515C26.3371 13.0645 26.4953 12.9884 26.6584 12.9237C26.7939 12.8735 27.0434 12.8184 27.2087 12.7974C27.424 12.7806 27.6403 12.7806 27.8556 12.7974C28.0413 12.8184 28.3756 12.8605 28.596 12.8983C28.8622 12.9447 29.0993 12.9577 29.2937 12.941C29.4546 12.9237 29.7208 12.8649 29.8861 12.8098C30.0514 12.751 30.3429 12.5943 30.5423 12.4594C30.7404 12.3244 30.9861 12.1684 31.0914 12.109C31.2557 12.0177 31.4252 11.936 31.599 11.8645C31.7723 11.7883 32.0856 11.6831 32.2973 11.628C32.509 11.5735 32.9361 11.5104 33.2494 11.4844C33.562 11.4596 33.9811 11.4089 34.1798 11.3705C34.3785 11.3371 34.6453 11.2776 34.7716 11.2442C34.8991 11.2058 35.1146 11.1173 35.2545 11.0461C35.3894 10.97 35.5801 10.8263 35.6729 10.7205C35.7701 10.6196 35.9014 10.4085 35.9732 10.2562C36.0493 10.0872 36.1044 9.88477 36.1174 9.72877C36.1259 9.54541 36.1159 9.36167 36.0877 9.18029C36.0532 9.00667 35.9977 8.83788 35.9224 8.67763C35.8485 8.55413 35.7524 8.4454 35.6389 8.35696C35.5334 8.2873 35.4199 8.23056 35.3009 8.18796C35.174 8.1502 34.9326 8.14153 34.3699 8.15886C33.8245 8.17558 33.4902 8.20901 33.1856 8.27277C32.9149 8.3347 32.6468 8.40781 32.3821 8.49191C32.1704 8.56372 31.8188 8.70734 31.5996 8.81691C31.3792 8.9271 31.0363 9.12086 30.8382 9.25148C30.6388 9.38272 30.364 9.58948 30.2247 9.71206C30.0848 9.82967 29.8948 9.96525 29.8013 10.0073C29.662 10.0748 29.5308 10.0878 29.0522 10.0878C28.7316 10.0878 28.1979 10.0581 27.8637 10.0241C27.4854 9.97943 27.1088 9.92161 26.7345 9.85072C26.3922 9.78386 26.134 9.70772 25.9985 9.63591C25.8748 9.56557 25.7634 9.47568 25.6685 9.36972C25.5911 9.26777 25.5231 9.15899 25.4655 9.04472C25.4107 8.91688 25.3739 8.7821 25.3559 8.6442C25.3363 8.49115 25.3492 8.3357 25.3937 8.18796C25.432 8.06168 25.5162 7.87163 25.588 7.76639C25.6561 7.66486 25.7954 7.52125 25.8926 7.44944C25.9941 7.38196 26.1935 7.23401 26.3328 7.12877C26.4727 7.0192 26.7388 6.83782 26.9252 6.72329C27.1109 6.60567 27.3771 6.4571 27.517 6.38591C27.6569 6.31782 27.9404 6.19153 28.1515 6.11167C28.3935 6.01606 28.6407 5.93421 28.8919 5.86653C29.0906 5.81577 29.4038 5.74891 29.5902 5.71487C29.7759 5.68082 30.195 5.64306 30.5206 5.62634C30.9521 5.60901 31.2988 5.62634 31.7897 5.68082C32.2606 5.7298 32.7338 5.75253 33.2073 5.74891C33.6317 5.74859 34.0556 5.72026 34.4763 5.6641C34.8053 5.61445 35.1372 5.58633 35.4699 5.57991ZM32.6359 13.8442C32.1914 13.869 31.7476 13.8987 31.6417 13.9117C31.5358 13.9241 31.3458 13.9538 31.2183 13.9792C31.0914 14.0039 30.8759 14.0844 30.736 14.1562C30.5887 14.2366 30.4534 14.3375 30.3343 14.4558C30.2341 14.5677 30.1436 14.6878 30.0638 14.8149C30.0006 14.9201 29.9245 15.1442 29.8861 15.3126C29.8353 15.5491 29.831 15.676 29.865 15.8821C29.8861 16.0263 29.9071 16.2077 29.9071 16.2839C29.9071 16.3594 29.9498 16.5284 30 16.6633C30.0594 16.8113 30.1783 16.9927 30.3132 17.1363C30.4531 17.288 30.6178 17.4105 30.7788 17.4823C30.931 17.5498 31.1805 17.6173 31.4089 17.647C31.6163 17.6718 31.9333 17.6891 32.1066 17.6767C32.4031 17.6551 32.5424 17.6049 34.2857 16.8658C35.4191 16.3848 36.1929 16.0301 36.2697 15.9626C36.434 15.8044 36.5335 15.5908 36.5489 15.3633C36.5489 15.2829 36.5105 15.1355 36.4641 15.0383C36.4185 14.9378 36.357 14.8452 36.2821 14.7641C36.2074 14.6863 36.1354 14.6059 36.066 14.5233C36.0029 14.4391 35.8382 14.2874 35.707 14.1816C35.5678 14.0716 35.4174 13.9768 35.2582 13.8987C35.1063 13.8379 34.9511 13.7858 34.7933 13.7427C34.6127 13.7017 34.4281 13.6806 34.2429 13.6795C34.082 13.6839 33.8331 13.713 33.6932 13.7427C33.5539 13.7767 33.0754 13.8232 32.6359 13.8442ZM67.5341 5.80339C68.1135 5.81206 68.7059 5.84115 68.8452 5.87148C68.9851 5.89625 69.2136 5.97672 69.3529 6.04791C69.4928 6.11972 69.6915 6.26334 69.7973 6.37353C69.9032 6.4831 70.0381 6.67315 70.0976 6.79944C70.1613 6.92634 70.2331 7.12877 70.2585 7.25134C70.2839 7.37329 70.3049 7.83758 70.3049 8.28515C70.3049 8.94753 70.2796 9.32329 70.157 10.3404C70.0765 11.0288 70.009 11.7673 70.009 11.9871C70.009 12.2105 70.1062 13.6709 70.2245 15.2371C70.3681 17.1573 70.4319 18.2165 70.4189 18.4871C70.3978 18.8412 70.3768 18.926 70.2455 19.1959C70.1483 19.394 70.009 19.584 69.8481 19.7363C69.7169 19.8669 69.4928 20.0272 69.3529 20.0953C69.2136 20.1622 68.9938 20.2383 68.8669 20.2637C68.6973 20.3015 68.4688 20.3015 68.0207 20.2681C67.5595 20.234 67.3267 20.1962 67.0902 20.1121C66.8866 20.0395 66.6886 19.952 66.4978 19.8502C66.3288 19.7573 66.075 19.5549 65.8379 19.3141C65.5123 18.9891 65.4231 18.8709 65.2585 18.5292C65.1542 18.3112 65.0679 18.0851 65.0003 17.8532C64.9582 17.6885 64.9329 17.3975 64.9329 17.1146C64.9329 16.8274 64.9582 16.5488 65.0003 16.3761C65.0387 16.2275 65.144 15.9409 65.2288 15.7428C65.3179 15.5484 65.4275 15.2618 65.4739 15.1095C65.521 14.9622 65.5884 14.7214 65.6181 14.5821C65.6479 14.4428 65.6689 14.0547 65.6732 13.7167C65.6732 13.3706 65.6479 13.0035 65.6181 12.8729C65.5884 12.746 65.4194 11.6738 65.2418 10.4877C65.0257 9.0441 64.9199 8.20467 64.9199 7.93415C64.9155 7.68963 64.9452 7.40239 64.9917 7.19563C65.0344 7.00991 65.1149 6.7691 65.1693 6.65953C65.2244 6.54996 65.3346 6.38529 65.4151 6.30048C65.4912 6.21196 65.6602 6.08567 65.7828 6.0182C65.9097 5.94639 66.1171 5.86591 66.244 5.83682C66.413 5.79844 66.7727 5.79039 67.5341 5.80277V5.80339ZM82.6989 5.95939C83.0586 5.95506 83.5916 5.97177 83.8838 5.99344C84.1753 6.0182 84.5858 6.05225 84.7931 6.07763C85.0005 6.09867 85.3856 6.14077 85.6394 6.16615C85.8932 6.19153 86.2776 6.25901 86.485 6.30977C86.6924 6.36486 87.039 6.4831 87.2464 6.57163C87.4538 6.66015 87.7924 6.83782 87.9955 6.9641C88.1985 7.09101 88.5031 7.31077 88.6677 7.44944C88.8367 7.58872 89.0992 7.85491 89.2559 8.04063C89.4125 8.22634 89.6199 8.50491 89.717 8.65225C89.8142 8.80453 89.9962 9.13758 90.1188 9.39139C90.2414 9.64829 90.4104 10.0371 90.4952 10.2562C90.5757 10.4803 90.6939 10.8598 90.7577 11.1006C90.8165 11.3451 90.8969 11.7252 90.931 11.945C90.9607 12.1678 90.9904 12.5312 90.9904 12.759C90.9904 12.9831 90.9607 13.3842 90.9223 13.6455C90.8768 13.967 90.819 14.2867 90.749 14.6038C90.6744 14.931 90.5856 15.2549 90.4828 15.5744C90.3937 15.845 90.2414 16.2411 90.1442 16.4609C90.0513 16.6844 89.8904 16.997 89.7932 17.1573C89.696 17.322 89.4886 17.6049 89.3363 17.7906C89.1797 17.9763 88.9513 18.2165 88.8244 18.3224C88.7018 18.4233 88.5241 18.5712 88.4313 18.6387C88.3378 18.7105 88.118 18.8542 87.9447 18.9594C87.7714 19.0696 87.5213 19.1878 87.3944 19.2299C87.2421 19.2801 87.039 19.3104 86.8026 19.3054C86.5735 19.3074 86.3454 19.2762 86.1253 19.2126C85.952 19.1624 85.7112 19.1197 85.5967 19.1241C85.4784 19.1241 85.2878 19.1494 85.1738 19.1792C85.0556 19.2089 84.886 19.272 84.7931 19.3228C84.7003 19.3692 84.4799 19.5332 84.3066 19.6899C84.1332 19.8459 83.8918 20.0149 83.7779 20.0693C83.6489 20.1301 83.5144 20.1782 83.3761 20.213C83.2703 20.2383 83.0796 20.2594 82.9527 20.2594C82.7394 20.2499 82.5272 20.223 82.3182 20.1789C82.01 20.118 81.6997 20.0689 81.3878 20.0316C80.9098 19.98 80.4302 19.9463 79.9497 19.9307C79.1289 19.8966 79.0063 19.8799 78.7017 19.7784C78.5154 19.7152 78.2869 19.6224 78.1941 19.5679C78.1012 19.5122 77.4537 19.0566 76.756 18.5545C76.0578 18.0519 75.3811 17.5331 75.2542 17.4019C75.089 17.2335 74.9874 17.0812 74.92 16.9042C74.8568 16.7395 74.806 16.4566 74.7677 16.0808C74.7371 15.792 74.7018 15.5037 74.6618 15.216C74.6364 15.0551 74.5603 14.7133 74.4971 14.4558C74.429 14.2026 74.3065 13.8145 74.226 13.591C74.1418 13.3712 74.0403 13.0673 73.9976 12.9156C73.9388 12.7045 73.9214 12.4848 73.9214 11.966C73.9214 11.3965 73.9388 11.2355 74.0192 10.9322C74.07 10.7378 74.2093 10.3831 74.3238 10.151C74.4377 9.91882 74.6197 9.61858 74.7256 9.48858C74.8314 9.35301 74.9583 9.21806 75.0091 9.18029C75.0636 9.14625 75.2883 9.05339 75.508 8.9692C75.7278 8.88439 76.0324 8.74077 76.1803 8.63986C76.3289 8.54267 76.5784 8.32725 76.7307 8.16691C76.9164 7.96882 77.0817 7.73234 77.2166 7.47048C77.3268 7.25134 77.4748 6.99382 77.5385 6.90096C77.6017 6.8081 77.7459 6.6521 77.8598 6.55429C77.9743 6.45772 78.173 6.31844 78.2999 6.25096C78.4269 6.18286 78.6466 6.09867 78.7865 6.06091C78.9258 6.02687 79.1709 5.99777 79.3362 5.99282C79.4972 5.99282 79.7844 6.02315 79.9707 6.06091C80.284 6.12839 80.3601 6.12839 81.007 6.06091C81.2958 6.03051 81.5849 6.00368 81.8743 5.98044C81.9672 5.97239 82.3398 5.96372 82.6989 5.95939ZM81.1593 9.12891C80.9878 9.22873 80.8263 9.34482 80.6771 9.47558C80.5502 9.5932 80.3639 9.80058 80.2623 9.93986C80.1651 10.0792 79.9961 10.3664 79.8859 10.5732C79.7801 10.7836 79.6278 11.1551 79.5479 11.3965C79.4718 11.641 79.374 12.0589 79.3319 12.3251C79.2814 12.6601 79.2673 12.9997 79.2898 13.3378C79.3022 13.6288 79.3529 14.038 79.3957 14.2447C79.4421 14.4558 79.5306 14.7684 79.59 14.9412C79.6532 15.1188 79.7764 15.4017 79.8649 15.5744C79.9664 15.7812 80.11 15.9756 80.2623 16.1235C80.3936 16.2535 80.6096 16.4269 80.7446 16.516C80.8758 16.6002 81.0999 16.7184 81.2398 16.7735C81.3791 16.8323 81.6416 16.9085 81.8236 16.9419C82.0012 16.9803 82.2891 17.01 82.4581 17.01C82.6228 17.01 82.8939 16.9803 83.0586 16.9462C83.2847 16.8904 83.5044 16.8111 83.7141 16.7098C84.002 16.5705 84.1456 16.4609 84.4378 16.17C84.7467 15.866 84.8309 15.7478 84.9962 15.4054C85.102 15.1863 85.2079 14.9034 85.237 14.7728C85.2624 14.6459 85.3131 14.1352 85.3428 13.6331C85.3893 12.9447 85.3936 12.6241 85.3602 12.3034C85.3277 12.0339 85.281 11.7663 85.2203 11.5017C85.1652 11.295 85.0556 10.9693 84.9751 10.7836C84.8947 10.5979 84.7467 10.307 84.6452 10.1299C84.5175 9.92491 84.3686 9.734 84.2007 9.56039C84.0452 9.41197 83.8735 9.28156 83.6888 9.17163C83.5255 9.08747 83.3574 9.01285 83.1855 8.94815C83.0078 8.88439 82.7967 8.85096 82.4878 8.83796C82.1281 8.82558 81.9802 8.83796 81.7264 8.90977C81.553 8.9562 81.2949 9.05772 81.1593 9.12953V9.12891Z" fill="black"/>
</g>
</g>
<defs>
<clipPath id="clip0_337_4987">
<rect width="108.333" height="26" fill="white"/>
</clipPath>
</defs>
</svg>
