<svg width="180" height="50" viewBox="0 0 180 50" fill="none" xmlns="http://www.w3.org/2000/svg">
<path d="M64.7421 23.7002C64.7421 21.0676 61.4453 18.5723 56.3906 17.0249C57.5568 11.8732 57.0389 7.77431 54.7541 6.46173C54.2277 6.15427 53.6122 6.00795 52.9395 6.00795V7.8146C53.3121 7.8146 53.6122 7.88723 53.8629 8.02506C54.9645 8.65696 55.4427 11.0627 55.07 14.1575C54.981 14.9187 54.8352 15.7213 54.6565 16.5393C53.0694 16.1502 51.3353 15.8502 49.5128 15.6561C48.4191 14.1575 47.2852 12.7967 46.1428 11.606C48.7839 9.15157 51.2627 7.80665 52.948 7.80665V6C50.7199 6 47.8037 7.58771 44.8551 10.3417C41.9061 7.60467 38.9904 6.03287 36.7623 6.03287V7.83952C38.4391 7.83952 40.9259 9.17595 43.5669 11.614C42.3605 12.8834 41.2427 14.2341 40.2214 15.6567C38.3908 15.8512 36.6568 16.1507 35.0691 16.5473C34.8906 15.7718 34.7502 14.988 34.6482 14.1988C34.2676 11.104 34.7373 8.69831 35.8304 8.05793C36.0742 7.91214 36.3896 7.84747 36.7623 7.84747V6.04029C36.0816 6.04029 35.4662 6.18607 34.9318 6.49407C32.6555 7.80665 32.145 11.8976 33.3197 17.0329C28.2804 18.5893 25 21.0761 25 23.7007C25 26.3333 28.2973 28.8286 33.352 30.3755C32.1858 35.5282 32.7037 39.6266 34.9885 40.9392C35.5149 41.2466 36.1304 41.3924 36.8111 41.3924C39.0387 41.3924 41.9548 39.8047 44.9039 37.0507C47.8524 39.7888 50.7686 41.3606 52.9962 41.3606C53.6769 41.3606 54.2923 41.2148 54.8272 40.9068C57.1036 39.5943 57.6135 35.5033 56.4388 30.368C61.4617 28.8201 64.7426 26.3253 64.7426 23.7007L64.7421 23.7002ZM54.1959 18.2967C53.881 19.3796 53.5161 20.4474 53.1022 21.4965C52.7673 20.8384 52.4133 20.1902 52.0409 19.5525C51.6682 18.9109 51.2794 18.2788 50.8747 17.6568C52.025 17.827 53.1346 18.0374 54.1959 18.2967ZM50.485 26.9244C49.8785 27.983 49.2272 29.0153 48.5331 30.0187C47.3155 30.1258 46.0939 30.1799 44.8716 30.1809C43.6486 30.1809 42.4251 30.1242 41.2265 30.0272C40.5313 29.0282 39.8773 28.0012 39.2661 26.9488C38.6583 25.8987 38.096 24.823 37.5808 23.7246C38.0931 22.6235 38.6527 21.5452 39.2581 20.4924C39.8647 19.4337 40.5159 18.4011 41.21 17.3976C42.4276 17.2906 43.6493 17.2367 44.8716 17.2359C46.0951 17.2359 47.3181 17.2926 48.5172 17.3896C49.2124 18.3886 49.8664 19.4156 50.4776 20.468C51.0852 21.5181 51.6473 22.5938 52.1623 23.6922C51.6469 24.7916 51.087 25.8699 50.485 26.9244ZM53.1022 25.871C53.5275 26.9268 53.9006 28.0028 54.2202 29.0952C53.1184 29.3631 52.0046 29.5793 50.8826 29.743C51.2873 29.113 51.6762 28.473 52.0489 27.8235C52.4157 27.1812 52.7669 26.5302 53.1022 25.871ZM44.8875 34.5152C44.0929 33.6902 43.3413 32.825 42.6355 31.9229C43.3644 31.9552 44.1093 31.9796 44.8631 31.9796C45.6249 31.9796 46.3782 31.9637 47.115 31.9229C46.4198 32.8265 45.6762 33.6919 44.8875 34.5152ZM38.86 29.7441C37.7438 29.582 36.6357 29.3683 35.5393 29.1037C35.8542 28.0208 36.2192 26.953 36.633 25.9039C36.9678 26.5621 37.3215 27.2105 37.6937 27.8484C38.0694 28.4881 38.4582 29.1205 38.86 29.7441ZM44.8472 12.8863C45.6418 13.7112 46.3934 14.5764 47.0991 15.4786C46.3569 15.4431 45.6141 15.4242 44.871 15.4218C44.1098 15.4218 43.3565 15.4377 42.6191 15.4786C43.3145 14.5749 44.0583 13.7096 44.8472 12.8863ZM38.852 17.6573C38.0488 18.908 37.3082 20.1978 36.633 21.5219C36.2076 20.4662 35.8345 19.3902 35.5149 18.2977C36.6176 18.0363 37.731 17.8226 38.852 17.6573ZM31.521 27.7991C28.6531 26.5761 26.7987 24.972 26.7987 23.7002C26.7987 22.4279 28.6536 20.8163 31.521 19.6013C32.2176 19.3013 32.9788 19.0341 33.765 18.7828C34.2267 20.3705 34.8343 22.0234 35.5876 23.7161C34.8427 25.4013 34.2432 27.0453 33.7894 28.625C33.0202 28.3869 32.2632 28.1113 31.521 27.7991ZM35.8791 39.3753C34.7775 38.7434 34.2994 36.3377 34.6726 33.2429C34.7616 32.4816 34.9074 31.679 35.0855 30.8611C36.6733 31.2502 38.4067 31.5502 40.2293 31.7442C41.3229 33.2429 42.4574 34.6037 43.5993 35.7944C40.9587 38.2488 38.4799 39.5937 36.7947 39.5937C36.4305 39.5858 36.1225 39.5126 35.8791 39.3753ZM55.0944 33.2026C55.475 36.2969 55.0054 38.7026 53.9117 39.3425C53.6689 39.4888 53.353 39.5534 52.9798 39.5534C51.303 39.5534 48.8162 38.2165 46.1757 35.7785C47.3819 34.509 48.4995 33.1583 49.5207 31.7358C51.3518 31.5417 53.0853 31.2417 54.6735 30.8452C54.859 31.6631 55.0054 32.4488 55.0944 33.2026ZM58.2131 27.7991C57.5165 28.0991 56.7553 28.3663 55.9691 28.6171C55.5079 27.0294 54.8999 25.377 54.1466 23.6838C54.8919 21.999 55.4915 20.3546 55.9447 18.7748C56.7468 19.0261 57.5086 19.3013 58.2211 19.6013C61.089 20.8243 62.9444 22.4284 62.9444 23.7002C62.936 24.9725 61.0805 26.584 58.2131 27.7991Z" fill="#6EDFFC"/>
<circle cx="44.6221" cy="23.2432" r="4.16216" fill="#6EDFFC"/>
<path d="M75.4365 21.1597V24.5288H77.3408C78.4541 24.5288 79.106 23.8916 79.106 22.8442C79.106 21.8188 78.4175 21.1597 77.3188 21.1597H75.4365ZM75.4365 26.1328V30H73.2246V19.4312H77.5532C79.9849 19.4312 81.3765 20.7129 81.3765 22.8003C81.3765 24.1553 80.6733 25.3271 79.4575 25.8032L81.6841 30H79.1792L77.209 26.1328H75.4365ZM86.1006 23.562C85.1631 23.562 84.4893 24.2725 84.416 25.2539H87.7485C87.7046 24.2505 87.0527 23.562 86.1006 23.562ZM87.7778 27.5977H89.7407C89.5063 29.1357 88.1001 30.1685 86.1592 30.1685C83.7422 30.1685 82.292 28.623 82.292 26.1108C82.292 23.606 83.7568 21.98 86.0786 21.98C88.3638 21.98 89.8066 23.5254 89.8066 25.9131V26.5649H84.394V26.6968C84.394 27.8174 85.1045 28.5864 86.1958 28.5864C86.9795 28.5864 87.5801 28.1982 87.7778 27.5977ZM93.9448 28.5791C94.875 28.5791 95.644 27.9712 95.644 27.1216V26.5503L93.9888 26.6528C93.1904 26.7114 92.7363 27.0703 92.7363 27.627C92.7363 28.2129 93.2197 28.5791 93.9448 28.5791ZM93.2417 30.1245C91.7476 30.1245 90.6123 29.1577 90.6123 27.7441C90.6123 26.3159 91.7109 25.4883 93.6665 25.3711L95.644 25.2539V24.7339C95.644 24.0015 95.1313 23.5767 94.3257 23.5767C93.5273 23.5767 93.022 23.9722 92.9194 24.5508H90.9639C91.0444 23.0273 92.3408 21.98 94.4209 21.98C96.4351 21.98 97.7461 23.02 97.7461 24.6021V30H95.6807V28.7988H95.6367C95.1973 29.6338 94.2231 30.1245 93.2417 30.1245ZM106.264 25.0708H104.279C104.155 24.2432 103.605 23.6572 102.727 23.6572C101.672 23.6572 101.013 24.5508 101.013 26.0669C101.013 27.6123 101.672 28.4912 102.734 28.4912C103.591 28.4912 104.147 27.9785 104.279 27.1216H106.271C106.162 28.9746 104.777 30.1685 102.712 30.1685C100.346 30.1685 98.8447 28.6304 98.8447 26.0669C98.8447 23.5474 100.346 21.98 102.697 21.98C104.821 21.98 106.169 23.291 106.264 25.0708ZM107.875 20.3394H110.014V22.1484H111.464V23.7598H110.014V27.5171C110.014 28.1177 110.307 28.4033 110.937 28.4033C111.127 28.4033 111.325 28.3887 111.457 28.3667V29.9414C111.237 29.9927 110.871 30.0293 110.439 30.0293C108.593 30.0293 107.875 29.4141 107.875 27.8833V23.7598H106.77V22.1484H107.875V20.3394ZM117.91 30H115.793V19.4312H117.639L122.575 26.3159H122.634V19.4312H124.75V30H122.919L117.976 23.0786H117.91V30ZM129.189 28.5791C130.119 28.5791 130.888 27.9712 130.888 27.1216V26.5503L129.233 26.6528C128.435 26.7114 127.98 27.0703 127.98 27.627C127.98 28.2129 128.464 28.5791 129.189 28.5791ZM128.486 30.1245C126.992 30.1245 125.856 29.1577 125.856 27.7441C125.856 26.3159 126.955 25.4883 128.911 25.3711L130.888 25.2539V24.7339C130.888 24.0015 130.375 23.5767 129.57 23.5767C128.771 23.5767 128.266 23.9722 128.164 24.5508H126.208C126.289 23.0273 127.585 21.98 129.665 21.98C131.679 21.98 132.99 23.02 132.99 24.6021V30H130.925V28.7988H130.881C130.441 29.6338 129.467 30.1245 128.486 30.1245ZM134.946 20.3394H137.084V22.1484H138.535V23.7598H137.084V27.5171C137.084 28.1177 137.377 28.4033 138.007 28.4033C138.198 28.4033 138.396 28.3887 138.527 28.3667V29.9414C138.308 29.9927 137.941 30.0293 137.509 30.0293C135.664 30.0293 134.946 29.4141 134.946 27.8833V23.7598H133.84V22.1484H134.946V20.3394ZM139.743 30V22.1484H141.882V30H139.743ZM140.812 21.2842C140.168 21.2842 139.67 20.7935 139.67 20.1782C139.67 19.5557 140.168 19.0723 140.812 19.0723C141.457 19.0723 141.955 19.5557 141.955 20.1782C141.955 20.7935 141.457 21.2842 140.812 21.2842ZM150.488 22.1484L147.792 30H145.375L142.658 22.1484H144.951L146.584 28.1104H146.628L148.254 22.1484H150.488ZM154.538 23.562C153.601 23.562 152.927 24.2725 152.854 25.2539H156.186C156.142 24.2505 155.49 23.562 154.538 23.562ZM156.215 27.5977H158.178C157.944 29.1357 156.538 30.1685 154.597 30.1685C152.18 30.1685 150.729 28.623 150.729 26.1108C150.729 23.606 152.194 21.98 154.516 21.98C156.801 21.98 158.244 23.5254 158.244 25.9131V26.5649H152.832V26.6968C152.832 27.8174 153.542 28.5864 154.633 28.5864C155.417 28.5864 156.018 28.1982 156.215 27.5977Z" fill="black"/>
</svg>