<svg width="98" height="38" viewBox="0 0 98 38" fill="none" xmlns="http://www.w3.org/2000/svg">
<g clip-path="url(#clip0_337_2936)">
<path fill-rule="evenodd" clip-rule="evenodd" d="M22.1815 0.525469C22.6326 1.16256 22.6595 2.17312 22.2532 3.21575C22.0733 3.67887 22.0153 4.10162 22.0865 4.42819C22.194 4.921 22.2 4.91625 22.4008 4.12063C22.5669 3.46334 22.7719 3.16231 23.5045 2.50503C23.9992 2.06031 24.4008 1.58769 24.3966 1.45409C24.3769 0.795031 23.3001 0.002375 22.4223 0.0011875L21.8092 0L22.1815 0.525469ZM25.5236 0.897156C25.5236 1.41966 25.0055 2.11791 24.1415 2.76034C23.0945 3.53816 22.7229 4.25956 22.8382 5.28794C22.8806 5.66794 22.8531 5.97906 22.7766 5.97906C22.7001 5.97906 22.185 5.80094 21.6323 5.58244C17.7063 4.03275 12.6091 4.02087 9.3847 5.55512C8.58635 5.93512 7.81849 6.50334 6.76439 7.49372C5.11094 9.04756 4.14946 9.61697 2.64241 9.93403C2.08668 10.051 1.41562 10.2754 1.1521 10.4328C0.512707 10.8122 0 11.7663 0 12.578C0 13.1587 0.0836585 13.3053 0.722451 13.8427C1.11983 14.177 1.48912 14.5985 1.5429 14.7802C1.67437 15.222 2.4022 15.9974 2.84917 16.172C3.12883 16.2812 3.2107 16.4421 3.2107 16.8833C3.2107 17.578 3.41984 17.6112 3.79272 16.9765C4.165 16.3418 4.3126 16.4801 4.2134 17.369C4.11062 18.2905 4.34487 18.3202 4.93765 17.461C5.31172 16.9183 5.50891 16.7948 6.26065 16.6327C6.7865 16.5193 7.7922 16.4754 8.74829 16.5247C12.936 16.7408 16.464 19.0813 18.372 22.9098C18.9337 24.0368 19.4237 25.6049 19.4237 26.2776C19.4237 26.6036 19.3801 26.5881 18.8776 26.0823C18.1724 25.3721 17.6 25.349 17.2576 26.0158C16.957 26.6006 16.0744 27.6337 15.8754 27.6337C15.7959 27.6337 15.7314 27.3 15.7314 26.8921V26.1511L15.2055 27.1753C14.8291 27.9086 14.5775 28.2144 14.32 28.2512C13.7553 28.3332 12.942 27.9959 12.3874 27.4497C11.8305 26.9016 11.7373 26.3126 12.06 25.3816C12.3038 24.6768 11.9859 24.3574 11.0178 24.3366C9.77909 24.3093 8.8206 25.2896 8.70766 26.698C8.61982 27.7863 9.11818 29.1828 9.88665 30.0028C10.1896 30.327 10.4191 30.6108 10.3958 30.6339C10.3731 30.6565 10.1012 30.742 9.79223 30.8239L9.23052 30.9724L9.92549 31.3334C10.8649 31.8202 12.8715 32.3208 13.8706 32.3172C15.0968 32.3131 16.7371 31.9135 17.9448 31.3239C20.1199 30.2623 22.197 27.6646 22.8029 25.2498C22.92 24.7831 23.0682 24.4013 23.1322 24.4013C23.1961 24.4013 23.2953 24.9286 23.3533 25.5734C23.6126 28.4988 22.1319 32.0186 19.9287 33.7119C19.5373 34.013 19.3174 34.2582 19.4405 34.257C19.8289 34.2528 21.5947 33.801 22.626 33.4412C23.1716 33.2512 23.658 33.136 23.707 33.1847C23.8576 33.3367 22.344 35.0051 21.2164 35.9314C20.6272 36.4147 19.7123 37.0779 19.1829 37.4051L18.2196 38L18.9421 37.8961C21.208 37.5707 23.615 36.6035 25.6061 35.2171C27.0104 34.2398 28.9721 32.2086 29.7322 30.9433C30.0221 30.4618 30.3065 30.0651 30.3651 30.0627C30.5162 30.0568 30.0956 31.7864 29.694 32.8195C29.5076 33.3005 29.0707 34.2267 28.7242 34.8763L28.0943 36.0578L28.6142 35.6867C29.5643 35.0099 31.2172 33.2257 32.0125 32.0186C33.0051 30.5116 33.7873 28.7143 34.1482 27.1088C34.303 26.4201 34.4793 25.8566 34.5396 25.8566C34.7022 25.8566 34.9 27.531 34.9077 28.9661C34.9137 30.1851 34.9209 30.2076 35.1928 29.8549C35.6487 29.2618 36.6962 27.1397 37.0464 26.0989C38.1674 22.7715 38.1734 18.7851 37.0619 15.3544C36.5565 13.7966 35.8863 12.2966 35.0625 10.8793C34.2797 9.54691 32.9597 7.75675 32.7595 7.75675C32.6878 7.75675 32.5844 8.09163 32.5288 8.50012C32.4016 9.43587 31.5948 10.9743 30.7995 11.7996C29.5177 13.1296 27.734 13.8979 25.9306 13.8979C24.0465 13.8979 23.2421 13.5464 24.6805 13.3517C26.5293 13.1011 28.463 11.6191 29.3749 9.75472C30.3567 7.74666 30.2031 5.22381 28.9841 3.32619C28.3836 2.39163 28.0429 2.06091 26.8299 1.23322C25.9001 0.599687 25.5236 0.502906 25.5236 0.897156ZM93.5051 12.1392C92.8909 13.1866 92.0812 13.9223 90.8615 14.5421C90.0769 14.9405 89.8935 15.1086 89.8935 15.4268C89.8935 15.7878 89.964 15.8246 90.736 15.8692L91.5792 15.9178L91.6593 20.2813C91.7125 23.1675 91.8027 24.754 91.9264 24.9678C92.2186 25.4725 92.9787 26.1422 93.4759 26.331C94.0489 26.5489 95.2554 26.5507 96.0298 26.334C96.8055 26.1167 98 25.197 98 24.8158C98 24.2814 97.5291 24.1448 97.0349 24.5367C96.487 24.9702 95.6725 24.9886 95.1688 24.5783L94.7893 24.2695V15.9178L95.9934 15.8971C96.6555 15.8852 97.3188 15.8674 97.4676 15.8567C97.7891 15.8329 97.9821 15.3199 97.8393 14.8675C97.7478 14.5766 97.5966 14.5445 96.3035 14.5445H94.87V11.3121L94.4284 11.3157C94.0692 11.3181 93.8971 11.4718 93.5051 12.1392ZM50.0057 13.0471C49.8306 13.0916 49.346 13.4366 48.9301 13.8136C48.2339 14.4436 47.043 15.007 45.87 15.2623C45.224 15.4031 45.2808 15.925 45.9668 16.153C46.2626 16.2509 46.6779 16.5169 46.8894 16.7432C47.2689 17.1493 47.2748 17.2098 47.3256 20.8032C47.3537 22.8101 47.3358 24.6163 47.2856 24.8182C47.1972 25.1738 46.8422 25.3496 45.6991 25.6055C45.3603 25.6809 45.2599 25.7878 45.2975 26.0324C45.3459 26.3459 45.475 26.3589 48.7592 26.3904L52.1707 26.4225L52.1701 26.0187C52.1695 25.6922 52.0308 25.5568 51.4464 25.3151C50.9684 25.1168 50.7001 24.8983 50.654 24.6679C50.6158 24.4779 50.5417 22.7133 50.4885 20.748L50.3929 17.1742L50.9666 16.6672C51.2821 16.3881 51.8808 15.9867 52.2967 15.7753C54.0476 14.8865 55.3144 15.1305 55.9168 16.4718C56.2155 17.1368 56.255 17.5999 56.3141 21.1143L56.3799 25.0177L56.001 25.2599C55.7919 25.3935 55.3144 25.552 54.9392 25.6132C54.381 25.7034 54.2573 25.7866 54.2573 26.0728C54.2573 26.4201 54.2777 26.4225 57.7083 26.4225H61.1598V26.0538C61.1598 25.6666 61.1406 25.6553 60.1164 25.4315L59.4741 25.2908L59.3898 20.8472C59.2966 15.963 59.2876 15.9149 58.2437 14.9263C57.4824 14.2049 56.7498 13.8753 55.6951 13.7786C54.1689 13.6396 52.4951 14.174 51.1697 15.2237C50.8405 15.485 50.5041 15.6572 50.4228 15.6061C50.3397 15.5545 50.3134 14.9435 50.3624 14.2209C50.4108 13.5102 50.4222 12.9366 50.3875 12.9473C50.2606 12.9818 50.1333 13.015 50.0057 13.0471ZM67.3397 13.9626C65.9361 14.4097 64.7499 15.3045 63.8858 16.5686C62.6172 18.4253 62.3967 21.2307 63.357 23.2958C64.5993 25.9665 67.3147 27.2442 70.5463 26.6772C71.8621 26.4468 72.8283 25.9754 74.0671 24.9589L74.9951 24.1977L74.5995 23.7993L74.2033 23.4003L73.558 23.8308C72.8361 24.3117 71.4892 24.7208 70.6192 24.7232C68.8384 24.7291 67.0493 23.3041 66.4709 21.4201C66.2868 20.8193 66.1357 19.9625 66.1357 19.5166V18.7049L69.7079 18.8118C71.6721 18.8712 73.6697 18.9632 74.1466 19.016L75.0142 19.1128L74.9102 18.3492C74.6121 16.1583 72.9538 14.3593 70.8235 13.9139C69.7174 13.683 68.1488 13.7049 67.3397 13.9626ZM80.4228 14.041C78.2554 14.817 77.2527 17.306 78.2751 19.3717C78.841 20.5141 79.5288 20.9374 81.9101 21.6083C84.2675 22.2722 85.0192 22.7092 85.1668 23.5048C85.3096 24.2695 84.7975 25.083 83.8976 25.5218C83.0735 25.9231 82.8226 25.9326 81.7206 25.6031C80.7018 25.2985 79.7099 24.4298 78.9605 23.1847C78.5524 22.5079 78.3385 22.3013 78.0421 22.3013C77.6596 22.3013 77.6572 22.3125 77.766 23.4727C77.9429 25.3519 78.063 25.7539 78.5123 25.9718C80.008 26.6968 83.1458 26.9289 84.8142 26.4373C87.0419 25.7818 88.2621 23.2774 87.3443 21.2444C86.7832 20.0005 85.4088 19.1722 82.914 18.5761C81.2378 18.1753 80.7365 17.9431 80.2763 17.3535C79.662 16.568 79.9244 15.6032 80.9026 15.0498C81.5503 14.6828 82.6791 14.5944 83.3639 14.8568C84.0159 15.1062 84.9194 16.0081 85.4297 16.9183C85.8277 17.6278 85.9872 17.7763 86.3506 17.7763C86.5926 17.7763 86.8256 17.7407 86.8686 17.6973C86.9457 17.6201 86.785 15.9416 86.6021 14.9126C86.5203 14.4501 86.4151 14.3622 85.6735 14.1312C85.2134 13.9882 84.0422 13.8379 83.0711 13.7982C81.5999 13.737 81.1583 13.7768 80.4228 14.041ZM67.9307 14.8069C67.0601 15.254 66.2964 16.5395 66.2964 17.5584V17.9384H71.7964L71.7151 17.3322C71.5006 15.7362 70.56 14.7054 69.2191 14.595C68.7207 14.5546 68.2821 14.6264 67.9307 14.8069Z" fill="#EA2944"/>
</g>
<defs>
<clipPath id="clip0_337_2936">
<rect width="98" height="38" fill="white"/>
</clipPath>
</defs>
</svg>
