<svg width="80" height="44" viewBox="0 0 80 44" fill="none" xmlns="http://www.w3.org/2000/svg">
<g clip-path="url(#clip0_337_2942)">
<path fill-rule="evenodd" clip-rule="evenodd" d="M53.6716 6.47709C51.1895 9.66567 47.9691 13.933 46.5158 15.9619C45.0632 17.9902 43.76 19.6501 43.6197 19.6501C43.4793 19.6501 41.9081 17.5949 40.127 15.0833C38.3453 12.5718 36.4253 10.5166 35.8604 10.5166C35.1874 10.5166 35.9368 12.0324 38.0302 14.9081C39.7881 17.3231 41.5088 19.7814 41.8526 20.3712C42.3102 21.1553 41.4632 22.8572 38.7074 26.6944L34.9368 31.9446L27.5937 31.7246L20.2505 31.5032V21.7579H26.5354C30.2596 21.7579 32.8204 21.4719 32.8204 21.0553C32.8204 20.6387 30.2596 20.3527 26.5354 20.3527H20.2505V11.9217H26.8849C30.8421 11.9217 33.5186 11.6379 33.5186 11.2192C33.5186 10.7933 30.4926 10.5166 25.8372 10.5166H18.1558V32.9999H36.2L39.7551 28.0818C41.7102 25.3765 43.4393 23.1637 43.5958 23.1637C43.753 23.1637 45.4814 25.3765 47.4365 28.0818C49.3916 30.7864 51.4716 32.9999 52.0596 32.9999C52.7642 32.9999 51.7747 31.1618 49.1418 27.5779C46.9495 24.5973 45.1572 21.8125 45.1572 21.3895C45.1572 20.9673 47.9712 16.5304 51.4105 11.5279C58.48 1.24606 58.8477 0.681152 58.4618 0.681152C58.3095 0.681152 56.153 3.28993 53.6716 6.47709ZM0 21.7586C0 36.0288 1.28 37.0436 1.55228 22.9877L1.74596 12.9763L7.96351 22.1099C15.3825 33.0062 23.0421 43.5379 23.5495 43.5379C23.7495 43.5379 23.6196 43.1433 23.2596 42.66C22.9004 42.1774 17.9712 34.7471 12.3074 26.1493C6.64421 17.5509 1.55789 10.5173 1.00491 10.5173C0.172632 10.5173 0 12.4448 0 21.7572V21.7586ZM53.0709 11.2199C53.0709 11.6066 54.7993 11.9224 56.9116 11.9224H60.7523V22.4612C60.7523 31.3605 60.9151 32.9999 61.8 32.9999C62.6842 32.9999 62.8477 31.3605 62.8477 22.4612V11.9224H66.6877C68.8 11.9224 70.5284 11.6066 70.5284 11.2199C70.5284 10.7898 67.1537 10.5173 61.8 10.5173C56.4456 10.5173 53.0709 10.7898 53.0709 11.2199ZM76.2898 26.4424C74.8793 27.0102 75.2877 28.7773 76.9881 29.465L78.5593 30.1001L76.9467 30.1448C75.0435 30.1966 75.5881 31.5947 77.5116 31.5947C79.6526 31.5947 79.9691 30.0788 78.1467 28.5537C76.9404 27.5446 76.8267 27.2784 77.7453 27.6141C78.5789 27.9193 78.9284 27.7915 78.7488 27.2479C78.4211 26.2593 77.4968 25.9563 76.2898 26.4424ZM73.3221 28.4331C73.3221 29.6175 72.9361 30.1895 72.1347 30.1895C71.2505 30.1895 71.1495 30.3925 71.7389 30.9851C73.0688 32.3228 74.7186 31.1164 74.7186 28.8064C74.7186 27.6347 74.4042 26.6766 74.0203 26.6766C73.6365 26.6766 73.3221 27.4665 73.3221 28.4331Z" fill="black"/>
</g>
<defs>
<clipPath id="clip0_337_2942">
<rect width="80" height="44" fill="white"/>
</clipPath>
</defs>
</svg>
