<svg width="95" height="20" viewBox="0 0 95 20" fill="none" xmlns="http://www.w3.org/2000/svg">
<g clip-path="url(#clip0_337_4959)">
<path d="M47.2051 0.0864516C47.0709 0.129677 46.8445 0.25871 46.6993 0.366452C46.529 0.509691 46.3804 0.676797 46.258 0.862581C46.1612 1.02387 46.0374 1.30452 45.9832 1.48194C45.9025 1.76258 45.8922 2.16194 45.8703 4.63613C45.849 7.17548 45.8593 7.47677 45.9348 7.55806C46.0154 7.64968 46.1774 7.65484 47.8348 7.65484C48.8896 7.65484 49.6864 7.63355 49.7348 7.60129C49.8051 7.55806 49.8154 7.22903 49.8316 5.27226C49.8374 4.01613 49.8212 2.64129 49.7941 2.21032C49.7457 1.53097 49.7186 1.38516 49.5845 1.10516C49.4871 0.904997 49.3639 0.718462 49.218 0.550323C49.1051 0.420645 48.8632 0.242581 48.6851 0.156774C48.4006 0.0154839 48.3083 0 47.9045 0C47.6522 0.00516129 47.3399 0.0432258 47.2051 0.0864516ZM2.34251 0.307097C2.18834 0.333209 2.03565 0.367451 1.88509 0.409677C1.7238 0.458064 1.42251 0.581936 1.218 0.690323C1.01348 0.803226 0.738643 0.987097 0.604449 1.10516C0.464449 1.22903 0.297353 1.46645 0.195417 1.67097L0.0283203 2.02129V18.5181C0.248965 18.9329 0.437353 19.1697 0.58832 19.3097C0.738643 19.4555 1.00251 19.6335 1.16897 19.7142C1.45993 19.8542 1.52445 19.8652 2.18187 19.8652C2.76832 19.86 2.92961 19.8439 3.17735 19.7465C3.33864 19.6819 3.57542 19.5529 3.69929 19.4606C3.82832 19.3748 4.00574 19.1968 4.09735 19.0671C4.1838 18.9432 4.30187 18.7168 4.35026 18.5716C4.4309 18.329 4.44187 17.7574 4.46897 12.48L4.49606 6.65742C5.83606 8.28581 7.24058 9.99484 8.47864 11.509C9.72251 13.0187 11.5199 15.2019 12.4832 16.3606C13.447 17.5148 14.367 18.5981 14.5341 18.7606C14.6954 18.9219 14.9754 19.1542 15.1535 19.2671C15.3581 19.4006 15.5739 19.5158 15.7986 19.6116C15.9767 19.6819 16.278 19.7735 16.4715 19.8168C16.6651 19.8542 17.0748 19.8923 17.387 19.8923C17.6993 19.8923 18.0709 19.86 18.2212 19.8219C18.3664 19.7787 18.6083 19.6929 18.7541 19.6174C18.8993 19.5471 19.1412 19.3529 19.2922 19.1916C19.4645 19.0077 19.6148 18.7761 19.6903 18.5819C19.7548 18.4097 19.8361 18.0323 19.8625 17.7194C19.9006 17.3581 19.9167 14.5387 19.9057 9.54193C19.8896 2.56065 19.8786 1.89226 19.798 1.64452C19.7291 1.4551 19.6388 1.27415 19.529 1.10516C19.4069 0.931462 19.2559 0.780015 19.0825 0.657419C18.905 0.546146 18.7151 0.455864 18.5167 0.388387C18.3122 0.329032 18.0264 0.301935 17.6006 0.301935C17.0786 0.301935 16.9335 0.323226 16.6586 0.430968C16.4812 0.501935 16.2283 0.657419 16.1045 0.776129C15.9754 0.9 15.8245 1.0671 15.7709 1.15871C15.6943 1.29684 15.6295 1.44123 15.5774 1.59032C15.4806 1.84387 15.4748 2.18839 15.4483 7.80064L15.4212 13.7465C14.2961 12.3884 12.638 10.3826 11.007 8.40968C9.37671 6.43677 7.55155 4.21613 6.9438 3.47677C6.45656 2.8736 5.96515 2.2738 5.46961 1.67742C5.25929 1.42387 4.96316 1.12194 4.818 1.00903C4.62286 0.862341 4.41567 0.732415 4.19864 0.620645C4.00509 0.523871 3.66058 0.405161 3.42961 0.356129C3.20806 0.309769 2.98293 0.282572 2.75671 0.274839C2.61809 0.280768 2.47973 0.291527 2.34187 0.307097H2.34251ZM76.0928 0.329032C75.9358 0.375592 75.7828 0.43493 75.6354 0.506452C75.4596 0.600438 75.2952 0.714537 75.1457 0.846452C75.0057 0.970323 74.8386 1.19677 74.7257 1.42839C74.5696 1.74645 74.5374 1.88129 74.5103 2.29097C74.489 2.6471 74.5051 2.86774 74.5696 3.12645C74.618 3.32065 74.7148 3.59548 74.7799 3.74645C74.8496 3.89226 75.0006 4.16194 75.1135 4.34C75.2477 4.54452 76.2974 5.64452 78.0412 7.39613L80.7651 10.1348C76.0606 14.8626 75.307 15.6548 75.1135 15.9568C74.9683 16.1781 74.7903 16.4961 74.7257 16.6574C74.6612 16.8194 74.5806 17.1 74.5432 17.2774C74.5103 17.4555 74.4941 17.7948 74.5103 18.0323C74.5374 18.3774 74.5806 18.5394 74.7257 18.8406C74.8496 19.089 75.0057 19.2987 75.1728 19.4503C75.318 19.5794 75.5709 19.7471 75.7322 19.8277C75.9748 19.9458 76.1251 19.9729 76.5399 19.9948C76.9593 20.011 77.1264 19.9948 77.4548 19.8916C77.6754 19.8271 77.9554 19.7252 78.0735 19.6658C78.1922 19.6013 78.4341 19.4555 78.6122 19.3368C78.8006 19.2129 80.0548 18.0161 81.6154 16.4639C83.0903 14.9974 84.3283 13.8006 84.3606 13.8006C84.398 13.8006 85.6251 14.9974 87.0896 16.4587C89.0812 18.4471 89.8561 19.1858 90.1574 19.38C90.378 19.5258 90.7438 19.7194 90.9651 19.8058C91.3309 19.9568 91.4225 19.9671 92.0141 19.9735C92.6116 19.9735 92.6819 19.9626 92.967 19.8219C93.1393 19.7413 93.4083 19.5574 93.5593 19.4123C93.7419 19.2452 93.9038 19.0297 94.0057 18.8084C94.1406 18.5116 94.1677 18.3826 94.189 17.9245C94.1999 17.5258 94.1838 17.2987 94.1135 17.0619C94.0458 16.8401 93.9613 16.6238 93.8606 16.4148C93.7606 16.2209 93.651 16.0321 93.5322 15.849C93.4464 15.7142 92.1438 14.3774 90.647 12.8684L87.9238 10.1348C92.4232 5.61742 93.4515 4.53935 93.6025 4.3129C93.7315 4.11871 93.8877 3.85484 93.9412 3.71935C94.0006 3.58516 94.0812 3.3529 94.1186 3.20774C94.1619 3.05677 94.1941 2.74387 94.1941 2.50645C94.1941 2.22129 94.1619 1.95677 94.0864 1.72516C94.0277 1.53161 93.8928 1.26129 93.7909 1.11613C93.6626 0.949082 93.5122 0.8002 93.3438 0.673548C93.1577 0.547101 92.9549 0.447215 92.7412 0.376774C92.5138 0.309647 92.2783 0.273621 92.0412 0.269677C91.8477 0.269677 91.5464 0.307097 91.3683 0.350323C91.1481 0.413324 90.9324 0.490915 90.7225 0.582581C90.5451 0.668387 90.2761 0.814193 90.1303 0.916129C89.9799 1.0129 88.6503 2.30194 87.1703 3.77871C85.4103 5.53613 84.4412 6.46903 84.3716 6.46903C84.3012 6.46903 83.3322 5.54194 81.5993 3.81097C79.7206 1.93548 78.8219 1.07806 78.558 0.905806C78.3514 0.768979 78.1356 0.646539 77.9122 0.539355C77.7196 0.460854 77.5217 0.395963 77.3199 0.345161C77.0983 0.302261 76.8734 0.278731 76.6477 0.274839C76.4535 0.280645 76.2057 0.301935 76.0928 0.329032ZM45.9077 9.59548C45.8593 9.68194 45.849 10.7168 45.8651 13.9245L45.8915 18.14C46.0806 18.7226 46.2148 19.0135 46.3064 19.1594C46.4032 19.3045 46.5754 19.5039 46.6935 19.6065C46.8122 19.709 47.0386 19.8387 47.189 19.8923C47.3722 19.9626 47.6083 20 47.8509 20C48.0877 20 48.3303 19.9626 48.5077 19.8974C48.6799 19.8329 48.9167 19.6768 49.1051 19.5039C49.3206 19.3103 49.4767 19.1052 49.5896 18.8677L49.7619 18.5174C49.8374 11.4013 49.8374 9.78968 49.7993 9.70323C49.7619 9.59548 49.6974 9.56323 49.487 9.52581C49.3419 9.50387 48.4916 9.48774 47.598 9.48774C46.0154 9.48774 45.967 9.49355 45.9077 9.59548ZM54.2832 0.430968C54.1172 0.467484 53.9551 0.519987 53.7993 0.587742C53.6477 0.652258 53.427 0.808387 53.298 0.932903C53.1741 1.05677 53.0077 1.30452 52.9212 1.48258L52.7761 1.80581V18.1942C53.0077 18.6955 53.169 18.9329 53.2767 19.0458C53.3845 19.1587 53.5941 19.3155 53.7451 19.391C53.8903 19.4665 54.229 19.5742 54.4986 19.6277C54.7913 19.6862 55.0882 19.7208 55.3864 19.731C55.607 19.731 55.9574 19.6923 56.167 19.6497C56.3715 19.6065 56.7109 19.4884 56.9206 19.3852C57.1654 19.2652 57.3995 19.1247 57.6206 18.9652C57.798 18.8297 58.0993 18.5497 58.2877 18.3503C58.4812 18.1458 60.6883 15.5148 63.1909 12.5065C65.6941 9.49871 67.8148 6.94323 67.9006 6.83032C67.9922 6.71677 68.0787 6.6471 68.0999 6.66903C68.1212 6.69032 68.1483 9.33161 68.1541 12.5335L68.1703 18.3555C68.3909 18.771 68.5793 19.0077 68.7296 19.1484C68.8806 19.2935 69.1174 19.4555 69.2574 19.52C69.4025 19.5794 69.6986 19.6555 69.9193 19.6877C70.2264 19.7361 70.4361 19.7361 70.7806 19.6877C71.0335 19.649 71.3728 19.5581 71.5341 19.4877C71.6954 19.4123 71.9322 19.251 72.0561 19.1265C72.1799 18.9974 72.3361 18.771 72.4006 18.6252C72.4703 18.4639 72.5354 18.1561 72.5619 17.8703C72.589 17.6013 72.6051 14.0968 72.6103 10.0806C72.6103 5.59032 72.589 2.63613 72.5567 2.40968C72.522 2.19872 72.468 1.9914 72.3954 1.79032C72.3361 1.64452 72.169 1.42258 72.0077 1.26129C71.837 1.10195 71.6514 0.959358 71.4535 0.835484C71.2542 0.72543 71.0472 0.629913 70.8341 0.549677C70.5648 0.458662 70.284 0.406101 69.9999 0.393548C69.6664 0.377419 69.3915 0.393548 69.1122 0.452903C68.8542 0.51224 68.6033 0.598969 68.3638 0.711613C68.1754 0.808387 67.8632 1.03484 67.6696 1.2129C67.4754 1.39097 66.507 2.50645 65.5109 3.6929C62.8512 6.86614 60.1851 10.0341 57.5128 13.1968L57.1361 13.6497C57.0819 2.10774 57.0767 1.84903 56.9799 1.61742C56.9077 1.45734 56.8214 1.30404 56.7219 1.15935C56.5962 1.00279 56.4492 0.86467 56.2851 0.749032C56.1077 0.625806 55.8657 0.529032 55.6135 0.469032C55.3656 0.413902 55.1126 0.384926 54.8586 0.382581C54.6593 0.388387 54.4012 0.409677 54.2832 0.430968ZM26.4445 0.485161C26.3802 0.507849 26.3228 0.546737 26.278 0.598064C26.2457 0.64129 25.3896 2.21548 24.367 4.09677C23.5503 5.6081 22.7305 7.11778 21.9077 8.62581C21.5309 9.31548 21.2941 9.81161 21.2722 9.94581C21.2457 10.151 21.3851 10.4097 23.8883 14.9329C25.8741 18.5123 26.569 19.72 26.6709 19.7684C26.7735 19.8219 28.0064 19.8381 32.269 19.8381C35.8754 19.8381 37.7748 19.8219 37.8503 19.7845C37.9367 19.7352 38.0091 19.6645 38.0606 19.5794C38.109 19.4987 39.0774 17.7252 40.2135 15.6335C41.3438 13.5419 42.5599 11.2994 42.9103 10.6465C43.2599 9.99484 43.5399 9.45548 43.5341 9.45548C43.5238 9.45032 40.7303 9.43935 37.3283 9.42839C31.5096 9.41226 31.1167 9.41806 30.7883 9.50968C30.5948 9.56323 30.3206 9.67097 30.1754 9.74645C30.0074 9.84469 29.8502 9.96039 29.7064 10.0916C29.5674 10.2371 29.4481 10.4002 29.3515 10.5768C29.2386 10.8032 29.2064 10.9594 29.1845 11.3206C29.1683 11.6871 29.1845 11.8381 29.2709 12.0755C29.3354 12.2368 29.4915 12.4903 29.6206 12.6413C29.7496 12.7871 29.9754 12.9755 30.1212 13.0568C30.2664 13.1374 30.5303 13.24 30.7083 13.2826C30.9825 13.3587 31.4825 13.369 34.0554 13.369C35.7245 13.369 37.0967 13.3852 37.107 13.4071C37.1238 13.4342 36.7793 14.0484 36.3432 14.7761C35.9077 15.5097 35.4928 16.1723 35.4174 16.2477L35.2832 16.3935L29.3348 16.3884C29.1309 16.1994 28.5012 15.1 27.7961 13.8271C27.0961 12.5497 26.3638 11.229 26.1761 10.8897C25.9393 10.4581 25.847 10.2374 25.8741 10.1619C25.8903 10.1026 26.5741 8.83032 27.387 7.33161C28.1999 5.8329 28.9212 4.54968 28.9961 4.47419L29.1199 4.33935C34.8741 4.3129 35.5038 4.32903 35.6438 4.38839C35.7941 4.44774 35.9722 4.70064 36.7632 5.98903C37.2793 6.83032 37.7374 7.5471 37.7696 7.58516C37.8238 7.63871 38.3245 7.65484 40.1006 7.65484C42.2799 7.65484 42.3612 7.64968 42.318 7.55226C42.2961 7.49871 41.349 5.89742 40.2083 3.99484C38.4103 0.991613 38.1141 0.533548 37.9741 0.485161C37.8664 0.447742 35.8909 0.430968 32.1883 0.430968C29.0928 0.436774 26.509 0.458064 26.4445 0.485161Z" fill="black"/>
</g>
<defs>
<clipPath id="clip0_337_4959">
<rect width="94.1936" height="20" fill="white"/>
</clipPath>
</defs>
</svg>
