<svg width="98" height="28" viewBox="0 0 98 28" fill="none" xmlns="http://www.w3.org/2000/svg">
<g clip-path="url(#clip0_337_2819)">
<path d="M89.9356 9.91543C89.6984 9.91543 89.4674 9.96443 89.2636 10.0799L82.8008 13.8118C82.5952 13.9325 82.4248 14.105 82.3067 14.3121C82.1887 14.5193 82.127 14.7538 82.1279 14.9922V22.4428C82.1279 22.9267 82.3817 23.3808 82.8008 23.6223L84.4887 24.5953C85.3086 24.9996 85.6104 24.9926 85.9841 24.9926C87.1977 24.9926 87.8907 24.2558 87.8907 22.9757V15.6257C87.8907 15.5207 87.8014 15.4472 87.6991 15.4472H86.8897C86.7856 15.4472 86.6972 15.5233 86.6972 15.6248V22.9792C86.6972 23.5471 86.1066 24.1184 85.1467 23.6381L83.3923 22.6091C83.3311 22.5758 83.2829 22.5137 83.2829 22.4446V14.9939C83.2829 14.9239 83.3302 14.8513 83.3923 14.8154L89.8419 11.0967C89.871 11.0796 89.9041 11.0706 89.9378 11.0706C89.9714 11.0706 90.0045 11.0796 90.0336 11.0967L96.4823 14.8154C96.5444 14.8522 96.5926 14.9204 96.5926 14.9939V22.4446C96.5931 22.4801 96.5846 22.5151 96.5677 22.5464C96.5509 22.5776 96.5263 22.604 96.4963 22.6231L90.0336 26.3418C90.0042 26.358 89.9713 26.3666 89.9378 26.3666C89.9042 26.3666 89.8713 26.358 89.8419 26.3418L88.1812 25.3531C88.1559 25.3393 88.1277 25.3322 88.0989 25.3322C88.0702 25.3322 88.0419 25.3393 88.0167 25.3531C87.5591 25.6138 87.4724 25.6436 87.0428 25.7923C86.9378 25.8299 86.7759 25.8868 87.0979 26.0671L89.2653 27.3446C89.4718 27.4644 89.7019 27.5231 89.9382 27.5231C90.1771 27.5231 90.4037 27.4662 90.6102 27.3454L97.0729 23.6267C97.2784 23.5058 97.4486 23.3332 97.5667 23.1262C97.6847 22.9191 97.7465 22.6847 97.7458 22.4463V14.9957C97.7458 14.5118 97.4912 14.0577 97.0729 13.8153L90.6102 10.0834C90.4044 9.97097 90.1727 9.91426 89.9382 9.91893L89.9356 9.91543ZM91.6646 15.2389C89.8244 15.2389 88.7281 16.0221 88.7281 17.3249C88.7281 18.7354 89.8157 19.1257 91.5823 19.3007C93.6954 19.5072 93.8599 19.8169 93.8599 20.2334C93.8599 20.9544 93.2851 21.2624 91.9253 21.2624C90.2173 21.2624 89.8419 20.8363 89.7159 19.9849C89.7011 19.8939 89.6311 19.8204 89.5383 19.8204H88.6992C88.6484 19.8213 88.6 19.8419 88.5641 19.8778C88.5282 19.9137 88.5076 19.9622 88.5067 20.0129C88.5067 21.0997 89.0982 22.3859 91.9236 22.3859C93.9684 22.3859 95.1479 21.5853 95.1479 20.1766C95.1479 18.7853 94.1951 18.4091 92.2114 18.1466C90.2094 17.8788 90.0161 17.7511 90.0161 17.2812C90.0161 16.8936 90.1779 16.3756 91.6628 16.3756C92.9884 16.3756 93.4784 16.6617 93.6797 17.5559C93.6972 17.6391 93.7716 17.7082 93.8582 17.7082H94.6973C94.7489 17.7082 94.7988 17.6767 94.8347 17.6391C94.8697 17.5997 94.8942 17.5559 94.8898 17.5026C94.7594 15.9626 93.7331 15.2381 91.6654 15.2381L91.6646 15.2389Z" fill="#83CD29"/>
<path d="M51.9427 0.147738C51.8706 0.14818 51.7998 0.167369 51.7374 0.20342C51.6749 0.239471 51.623 0.291144 51.5865 0.353363C51.5505 0.416214 51.5315 0.487401 51.5314 0.559863V11.0564C51.5324 11.0938 51.5257 11.131 51.512 11.1658C51.4982 11.2006 51.4775 11.2323 51.4512 11.2589C51.4249 11.2856 51.3935 11.3066 51.3589 11.3208C51.3242 11.335 51.2871 11.3421 51.2497 11.3416C51.199 11.3418 51.1492 11.3285 51.1053 11.3031L49.3903 10.3152C49.2653 10.243 49.1234 10.205 48.979 10.205C48.8347 10.205 48.6928 10.243 48.5678 10.3152L41.7209 14.2667C41.5949 14.3416 41.4906 14.4481 41.4183 14.5756C41.3461 14.7031 41.3083 14.8473 41.3088 14.9939V22.8969C41.3085 23.0415 41.3464 23.1837 41.4186 23.3091C41.4908 23.4344 41.5948 23.5385 41.72 23.6109L48.5669 27.5624C48.692 27.635 48.834 27.6732 48.9786 27.6732C49.1232 27.6732 49.2652 27.635 49.3903 27.5624L56.2372 23.6109C56.3625 23.5385 56.4664 23.4344 56.5386 23.3091C56.6108 23.1837 56.6487 23.0415 56.6484 22.8969V3.19361C56.6481 3.04587 56.6087 2.90083 56.5341 2.77327C56.4596 2.6457 56.3526 2.54015 56.224 2.46736L52.1483 0.187988C52.0846 0.156391 52.0136 0.142204 51.9427 0.146863V0.147738ZM7.89779 10.0134C7.7683 10.014 7.64105 10.0471 7.52766 10.1096L0.680785 14.0611C0.555448 14.1332 0.451393 14.2371 0.37917 14.3623C0.306946 14.4876 0.269123 14.6297 0.269535 14.7742L0.283535 25.381C0.283535 25.5289 0.35966 25.6654 0.48916 25.7371C0.551217 25.7745 0.622313 25.7943 0.694785 25.7943C0.767256 25.7943 0.838353 25.7745 0.90041 25.7371L4.96216 23.4052C5.08905 23.3335 5.19503 23.2299 5.26961 23.1047C5.34419 22.9795 5.3848 22.837 5.38741 22.6912V17.7387C5.38741 17.443 5.54228 17.1717 5.79866 17.0247L7.52854 16.0237C7.65334 15.951 7.79533 15.9129 7.93979 15.9135C8.08426 15.9128 8.22626 15.9509 8.35104 16.0237L10.0792 17.0247C10.3355 17.1709 10.4904 17.4421 10.4904 17.7379V22.6904C10.4904 22.9861 10.6628 23.2539 10.9165 23.4044L14.9774 25.7371C15.0401 25.7726 15.1109 25.7911 15.1829 25.7908C15.2549 25.7905 15.3256 25.7715 15.388 25.7355C15.4504 25.6995 15.5023 25.6479 15.5386 25.5857C15.575 25.5236 15.5945 25.453 15.5952 25.381L15.6092 14.7742C15.61 14.6295 15.5724 14.4871 15.5001 14.3616C15.4278 14.2362 15.3236 14.1322 15.1979 14.0602L8.35104 10.1087C8.23747 10.0459 8.10984 10.0127 7.98004 10.0125H7.89866L7.89779 10.0134ZM69.4234 10.1096C69.2791 10.1092 69.1372 10.1469 69.0122 10.219L62.1644 14.1705C62.0391 14.2428 61.9351 14.3469 61.8629 14.4723C61.7907 14.5976 61.7529 14.7398 61.7532 14.8845V22.7875C61.7532 23.085 61.9194 23.3536 62.1784 23.5006L68.9702 27.3716C69.0924 27.4435 69.2312 27.4825 69.373 27.4849C69.5148 27.4874 69.6548 27.4532 69.7795 27.3856L73.8955 25.0931C73.9602 25.0584 74.0145 25.0071 74.0529 24.9445C74.0914 24.882 74.1125 24.8104 74.1143 24.737C74.1149 24.6648 74.0963 24.5937 74.0603 24.5311C74.0243 24.4685 73.9723 24.4167 73.9095 24.3809L67.0207 20.4285C66.9558 20.3905 66.9016 20.3365 66.8633 20.2718C66.8251 20.207 66.8039 20.1336 66.8019 20.0584V17.5865C66.8019 17.4395 66.8929 17.3039 67.0207 17.2304L69.1618 15.9949C69.2243 15.9588 69.2952 15.9398 69.3674 15.9398C69.4396 15.9398 69.5105 15.9588 69.573 15.9949L71.715 17.2304C71.7775 17.2665 71.8295 17.3184 71.8656 17.3809C71.9017 17.4434 71.9207 17.5143 71.9207 17.5865V19.5351C71.9202 19.6076 71.9389 19.6789 71.9749 19.7419C72.0109 19.8048 72.0629 19.857 72.1257 19.8933C72.1885 19.9296 72.2597 19.9486 72.3322 19.9484C72.4047 19.9482 72.4759 19.9287 72.5384 19.8921L76.6404 17.5051C76.7654 17.4327 76.8692 17.3286 76.9413 17.2035C77.0135 17.0784 77.0515 16.9365 77.0517 16.792V14.8845C77.0516 14.74 77.0136 14.5981 76.9414 14.4729C76.8693 14.3477 76.7654 14.2438 76.6404 14.1714L69.8347 10.2199C69.7097 10.1474 69.5678 10.1093 69.4234 10.1096ZM48.951 16.0097C48.9895 16.0097 49.0272 16.0185 49.0613 16.0369L51.4072 17.3957C51.471 17.4316 51.5174 17.5007 51.5174 17.5734V20.2902C51.5161 20.327 51.5053 20.3628 51.486 20.3941C51.4666 20.4254 51.4395 20.4511 51.4072 20.4687L49.0613 21.8267C49.0298 21.8446 48.9942 21.854 48.958 21.854C48.9218 21.854 48.8863 21.8446 48.8548 21.8267L46.5089 20.4687C46.4768 20.4509 46.4499 20.4252 46.4307 20.3939C46.4116 20.3626 46.4008 20.3269 46.3995 20.2902V17.5734C46.3995 17.4999 46.445 17.4316 46.5089 17.3949L48.8548 16.0369C48.8837 16.0189 48.917 16.0095 48.951 16.0097Z" fill="#404137"/>
<path d="M28.4662 10.0679C28.3215 10.0677 28.1793 10.1057 28.054 10.1781L21.2072 14.1156C21.0813 14.1906 20.9772 14.2971 20.9051 14.4246C20.833 14.5521 20.7953 14.6963 20.7959 14.8427V22.7466C20.7956 22.8912 20.8334 23.0333 20.9057 23.1585C20.9779 23.2837 21.0819 23.3876 21.2072 23.4598L28.054 27.4112C28.179 27.4837 28.3208 27.5219 28.4653 27.5219C28.6097 27.5219 28.7516 27.4837 28.8765 27.4112L35.7243 23.4598C35.8494 23.3875 35.9533 23.2835 36.0255 23.1583C36.0977 23.0331 36.1357 22.8911 36.1355 22.7466V14.8427C36.136 14.6964 36.0984 14.5524 36.0263 14.4251C35.9541 14.2977 35.8501 14.1914 35.7243 14.1165L28.8765 10.1781C28.7517 10.1055 28.6106 10.0675 28.4662 10.0679ZM69.41 17.1204C69.3829 17.1204 69.3523 17.1204 69.3278 17.1344L68.01 17.9026C67.9855 17.9163 67.9649 17.9362 67.9505 17.9603C67.9361 17.9844 67.9282 18.0119 67.9278 18.04V19.5494C67.9278 19.6062 67.961 19.6579 68.01 19.6868L69.3269 20.441C69.3496 20.4552 69.3758 20.4627 69.4026 20.4627C69.4294 20.4627 69.4556 20.4552 69.4783 20.441L70.7952 19.6868C70.8196 19.6729 70.84 19.653 70.8545 19.6289C70.8689 19.6049 70.8768 19.5774 70.8774 19.5494V18.04C70.8768 18.0119 70.8689 17.9845 70.8545 17.9604C70.84 17.9363 70.8196 17.9164 70.7952 17.9026L69.4783 17.1344C69.4538 17.1195 69.438 17.1204 69.41 17.1204Z" fill="#83CD29"/>
</g>
<defs>
<clipPath id="clip0_337_2819">
<rect width="98" height="28" fill="white"/>
</clipPath>
</defs>
</svg>
