<svg width="171" height="40" viewBox="0 0 171 40" fill="none" xmlns="http://www.w3.org/2000/svg">
<path d="M43.0078 28.8226V24.0283H37.8447C36.4546 24.0283 35.1496 24.7659 34.412 25.9858L32.7383 28.8226H43.0078Z" fill="#1D1D1B"/>
<path d="M26.582 10.3545V15.1488H40.1707L43.0076 10.3545H26.582Z" fill="#1D1D1B"/>
<path d="M33.277 17.9575L26.6104 28.8227H32.3125L40.3125 15.8298H37.1635C35.5465 15.8298 34.0713 16.6525 33.277 17.9575Z" fill="#1D1D1B"/>
<path d="M54.6674 24.5959C51.8873 24.5959 49.8447 22.5534 49.8447 19.7732C49.8447 17.0498 51.9157 14.9505 54.6958 14.9505C57.4759 14.9505 59.5469 17.0498 59.5469 19.7732C59.5469 22.4966 57.4476 24.5959 54.6674 24.5959ZM54.6958 22.8938C56.4547 22.8938 57.7313 21.5605 57.7313 19.7732C57.7313 17.986 56.483 16.6527 54.6958 16.6527C52.9086 16.6527 51.6603 18.0144 51.6603 19.7732C51.6603 21.5605 52.9086 22.8938 54.6958 22.8938ZM61.3908 27.4612V17.447H63.0646V18.3264H63.1497C63.3199 18.0427 63.9724 17.2768 65.2206 17.2768C67.1497 17.2768 68.483 18.7236 68.483 20.908C68.483 23.0924 67.1781 24.5959 65.2774 24.5959C64.0575 24.5959 63.405 23.9151 63.1781 23.5179H63.093V27.4612H61.3908ZM64.9369 23.0073C66.0433 23.0073 66.7809 22.1562 66.7809 20.908C66.7809 19.6314 66.0433 18.8087 64.9086 18.8087C63.7738 18.8087 63.0646 19.7165 63.0646 20.908C63.0646 22.2129 63.8589 23.0073 64.9369 23.0073ZM73.3908 24.5959C71.3483 24.5959 69.9015 23.064 69.9015 20.9647C69.9015 18.7519 71.3483 17.2768 73.3908 17.2768C75.6036 17.2768 76.8234 18.9222 76.8234 20.908V21.447H71.5752C71.632 22.4966 72.3412 23.2342 73.4476 23.2342C74.2986 23.2342 74.9227 22.8371 75.1781 22.2697H76.7667C76.4263 23.6598 75.1781 24.5959 73.3908 24.5959ZM71.6036 20.1988H75.2064C75.1213 19.2626 74.4121 18.6385 73.4192 18.6385C72.4547 18.6385 71.7171 19.3193 71.6036 20.1988ZM78.6674 24.3973V17.4186H80.2844V18.2697H80.3695C80.6532 17.759 81.3341 17.2484 82.327 17.2484C83.8873 17.2484 84.8234 18.3548 84.8234 19.83V24.3973H83.1213V20.2839C83.1213 19.4328 82.5823 18.8654 81.788 18.8654C80.9653 18.8654 80.3695 19.5179 80.3695 20.3973V24.3973H78.6674ZM86.5256 24.3973V22.8087L91.3199 16.7094V16.6243H86.6958V15.0924H93.4759V16.6527L88.6816 22.7519V22.8654H93.5043V24.3973H86.5256ZM98.1568 24.5959C96.1142 24.5959 94.6674 23.064 94.6674 20.9647C94.6674 18.7519 96.1142 17.2768 98.1568 17.2768C100.37 17.2768 101.589 18.9222 101.589 20.908V21.447H96.3412C96.3979 22.4966 97.1071 23.2342 98.2135 23.2342C99.0646 23.2342 99.6887 22.8371 99.944 22.2697H101.533C101.164 23.6598 99.944 24.5959 98.1568 24.5959ZM96.3412 20.1988H99.944C99.8589 19.2626 99.1497 18.6385 98.1568 18.6385C97.1922 18.6385 96.4547 19.3193 96.3412 20.1988ZM103.405 27.4612V17.447H105.079V18.3264H105.164C105.334 18.0427 105.987 17.2768 107.235 17.2768C109.164 17.2768 110.497 18.7236 110.497 20.908C110.497 23.0924 109.192 24.5959 107.292 24.5959C106.072 24.5959 105.419 23.9151 105.192 23.5179H105.107V27.4612H103.405ZM106.923 23.0073C108.029 23.0073 108.767 22.1562 108.767 20.908C108.767 19.6314 108.029 18.8087 106.894 18.8087C105.76 18.8087 105.05 19.7165 105.05 20.908C105.079 22.2129 105.873 23.0073 106.923 23.0073ZM112.37 27.4612V17.447H114.043V18.3264H114.128C114.299 18.0427 114.951 17.2768 116.199 17.2768C118.128 17.2768 119.462 18.7236 119.462 20.908C119.462 23.0924 118.157 24.5959 116.256 24.5959C115.036 24.5959 114.384 23.9151 114.157 23.5179H114.072V27.4612H112.37ZM115.887 23.0073C116.994 23.0073 117.731 22.1562 117.731 20.908C117.731 19.6314 116.994 18.8087 115.859 18.8087C114.724 18.8087 114.015 19.7165 114.015 20.908C114.043 22.2129 114.809 23.0073 115.887 23.0073ZM124.37 24.5959C122.327 24.5959 120.88 23.064 120.88 20.9647C120.88 18.7519 122.327 17.2768 124.37 17.2768C126.582 17.2768 127.802 18.9222 127.802 20.908V21.447H122.554C122.611 22.4966 123.32 23.2342 124.426 23.2342C125.277 23.2342 125.901 22.8371 126.157 22.2697H127.745C127.377 23.6598 126.157 24.5959 124.37 24.5959ZM122.554 20.1988H126.157C126.072 19.2626 125.362 18.6385 124.37 18.6385C123.405 18.6385 122.667 19.3193 122.554 20.1988ZM131.32 24.3973C130.1 24.3973 129.419 23.6598 129.419 22.4399V14.4683H131.121V22.2981C131.121 22.6952 131.32 22.9222 131.66 22.9222H131.944V24.4257H131.32V24.3973ZM134.44 16.5108C133.816 16.5108 133.391 16.1137 133.391 15.4895C133.391 14.8938 133.816 14.4966 134.44 14.4966C135.065 14.4966 135.49 14.8938 135.49 15.4895C135.518 16.1137 135.065 16.5108 134.44 16.5108ZM133.589 24.3973V17.4186H135.292V24.3973H133.589ZM137.391 24.3973V17.4186H139.008V18.2697H139.093C139.377 17.759 140.057 17.2484 141.05 17.2484C142.611 17.2484 143.547 18.3548 143.547 19.83V24.3973H141.845V20.2839C141.845 19.4328 141.306 18.8654 140.511 18.8654C139.689 18.8654 139.093 19.5179 139.093 20.3973V24.3973H137.391Z" fill="#1D1D1B"/>
</svg>
