<svg width="180" height="60" viewBox="0 0 180 60" fill="none" xmlns="http://www.w3.org/2000/svg">
<mask id="mask0_833_2450" style="mask-type:luminance" maskUnits="userSpaceOnUse" x="41" y="14" width="32" height="32">
<path d="M73 14H41V46H73V14Z" fill="white"/>
</mask>
<g mask="url(#mask0_833_2450)">
<path d="M70.7096 27.0948C71.0674 26.0173 71.1911 24.8758 71.0725 23.7467C70.954 22.6175 70.5958 21.5267 70.022 20.547C69.1713 19.0663 67.8723 17.8939 66.3124 17.199C64.7524 16.504 63.0121 16.3224 61.3422 16.6804C60.3936 15.6251 59.184 14.8381 57.8349 14.3982C56.4858 13.9584 55.0447 13.8814 53.6564 14.1747C52.268 14.4681 50.9814 15.1216 49.9255 16.0697C48.8697 17.0177 48.0819 18.2269 47.6413 19.5757C46.5289 19.8038 45.4779 20.2668 44.5587 20.9336C43.6395 21.6004 42.8732 22.4557 42.3111 23.4424C41.4511 24.9207 41.0836 26.6341 41.2616 28.3351C41.4396 30.036 42.1539 31.6363 43.3013 32.9045C42.9422 33.9815 42.8172 35.1227 42.9347 36.2519C43.0522 37.3811 43.4095 38.4721 43.9826 39.4521C44.8344 40.9334 46.1345 42.106 47.6956 42.801C49.2566 43.4959 50.998 43.6773 52.6688 43.3189C53.4225 44.1676 54.3485 44.8458 55.3852 45.3082C56.4218 45.7705 57.5452 46.0063 58.6802 46C60.3918 46.0015 62.0595 45.4592 63.4427 44.4513C64.826 43.4433 65.8531 42.0219 66.376 40.3922C67.4883 40.1637 68.5391 39.7006 69.4582 39.0338C70.3774 38.367 71.1438 37.5119 71.7062 36.5254C72.556 35.0493 72.9173 33.3423 72.7382 31.6484C72.5592 29.9546 71.8492 28.3606 70.7096 27.0948ZM58.6802 43.9056C57.2785 43.9078 55.9208 43.4165 54.845 42.5178L55.0343 42.4106L61.4053 38.733C61.5639 38.64 61.6955 38.5074 61.7873 38.3481C61.8791 38.1889 61.9279 38.0085 61.9289 37.8246V28.8421L64.6222 30.4002C64.6356 30.407 64.6471 30.4168 64.6559 30.4288C64.6647 30.4409 64.6705 30.4548 64.6729 30.4696V37.913C64.6695 39.5013 64.0371 41.0236 62.914 42.1467C61.7908 43.2698 60.2686 43.9022 58.6802 43.9056ZM45.7993 38.405C45.0963 37.1912 44.8439 35.7683 45.0865 34.3868L45.2758 34.5004L51.6532 38.178C51.811 38.2706 51.9906 38.3194 52.1736 38.3194C52.3565 38.3194 52.5362 38.2706 52.694 38.178L60.4844 33.6866V36.7965C60.4837 36.8126 60.4793 36.8284 60.4716 36.8426C60.464 36.8568 60.4532 36.869 60.4401 36.8785L53.987 40.6002C52.6099 41.3936 50.9742 41.608 49.4391 41.1964C47.9039 40.7849 46.5949 39.7809 45.7993 38.405ZM44.1214 24.5274C44.8293 23.3058 45.9466 22.374 47.2754 21.897V29.4666C47.2731 29.6495 47.3198 29.8297 47.4108 29.9883C47.5017 30.147 47.6336 30.2783 47.7926 30.3686L55.5452 34.841L52.8517 36.399C52.8371 36.4068 52.8209 36.4108 52.8044 36.4108C52.7879 36.4108 52.7716 36.4068 52.7571 36.399L46.3166 32.6837C44.9421 31.8869 43.9392 30.5779 43.5278 29.0433C43.1164 27.5087 43.3298 25.8735 44.1214 24.496V24.5274ZM66.2498 29.6685L58.4721 25.152L61.1593 23.6C61.1739 23.5922 61.1901 23.5882 61.2066 23.5882C61.2232 23.5882 61.2394 23.5922 61.254 23.6L67.6944 27.3217C68.6791 27.8899 69.4819 28.7265 70.009 29.7338C70.5361 30.7412 70.7658 31.8777 70.6712 33.0106C70.5766 34.1436 70.1617 35.2263 69.4749 36.1323C68.7881 37.0383 67.8577 37.7302 66.7924 38.1273V30.5577C66.7868 30.3751 66.7338 30.1972 66.6387 30.0412C66.5436 29.8853 66.4096 29.757 66.2498 29.6685ZM68.9308 25.6377L68.7414 25.5241L62.3768 21.815C62.218 21.7219 62.0373 21.6727 61.8532 21.6727C61.6691 21.6727 61.4883 21.7219 61.3296 21.815L53.5457 26.3062V23.1965C53.5441 23.1807 53.5467 23.1647 53.5534 23.1503C53.56 23.1359 53.5705 23.1235 53.5836 23.1145L60.024 19.399C61.0111 18.8304 62.1397 18.5546 63.2777 18.6038C64.4158 18.653 65.5164 19.0253 66.4507 19.677C67.385 20.3288 68.1144 21.2331 68.5536 22.2841C68.9928 23.3352 69.1237 24.4896 68.9309 25.6124L68.9308 25.6377ZM52.0757 31.1506L49.3824 29.5989C49.3689 29.5908 49.3574 29.5798 49.3486 29.5667C49.3399 29.5537 49.3341 29.5388 49.3317 29.5233V22.0989C49.3332 20.9599 49.6589 19.8449 50.2707 18.8842C50.8825 17.9235 51.7552 17.1569 52.7867 16.6739C53.8182 16.1909 54.9659 16.0115 56.0955 16.1567C57.2252 16.302 58.2902 16.7658 59.166 17.494L58.9766 17.6013L52.6057 21.2786C52.4471 21.3716 52.3155 21.5043 52.2237 21.6635C52.1319 21.8228 52.0831 22.0032 52.0821 22.187L52.0757 31.1506ZM53.5392 27.9968L57.0085 25.997L60.4844 27.9968V31.996L57.0212 33.9956L53.5456 31.996L53.5392 27.9968Z" fill="black"/>
</g>
<path d="M90.9082 24.748C94.0356 24.748 96.0059 26.8501 96.0059 30.2192C96.0059 33.5811 94.0356 35.6831 90.9082 35.6831C87.7734 35.6831 85.8105 33.5811 85.8105 30.2192C85.8105 26.8501 87.7734 24.748 90.9082 24.748ZM90.9082 26.5938C89.1797 26.5938 88.0664 28 88.0664 30.2192C88.0664 32.4312 89.1724 33.8301 90.9082 33.8301C92.6367 33.8301 93.7427 32.4312 93.7427 30.2192C93.7427 28 92.6367 26.5938 90.9082 26.5938ZM101.836 27.5239C103.828 27.5239 105.051 29.04 105.051 31.5742C105.051 34.1011 103.835 35.6245 101.873 35.6245C100.73 35.6245 99.8511 35.0679 99.4336 34.1816H99.3896V38.0635H97.251V27.6484H99.3604V29.0181H99.4043C99.8291 28.0952 100.701 27.5239 101.836 27.5239ZM101.118 33.9033C102.188 33.9033 102.861 33.0024 102.861 31.5742C102.861 30.1533 102.188 29.2378 101.118 29.2378C100.071 29.2378 99.3823 30.168 99.3823 31.5742C99.3823 32.9951 100.071 33.9033 101.118 33.9033ZM109.68 29.062C108.743 29.062 108.069 29.7725 107.996 30.7539H111.328C111.284 29.7505 110.632 29.062 109.68 29.062ZM111.357 33.0977H113.32C113.086 34.6357 111.68 35.6685 109.739 35.6685C107.322 35.6685 105.872 34.123 105.872 31.6108C105.872 29.106 107.336 27.48 109.658 27.48C111.943 27.48 113.386 29.0254 113.386 31.4131V32.0649H107.974V32.1968C107.974 33.3174 108.684 34.0864 109.775 34.0864C110.559 34.0864 111.16 33.6982 111.357 33.0977ZM114.492 35.5V27.6484H116.558V29.0474H116.602C117.019 28.0732 117.847 27.502 119.055 27.502C120.798 27.502 121.78 28.6006 121.78 30.439V35.5H119.641V30.8857C119.641 29.8604 119.158 29.2744 118.198 29.2744C117.239 29.2744 116.631 29.9775 116.631 30.9956V35.5H114.492ZM133.213 35.5L132.407 32.9365H128.694L127.888 35.5H125.618L129.287 24.9312H131.887L135.564 35.5H133.213ZM130.525 26.9526L129.17 31.2812H131.931L130.576 26.9526H130.525ZM138.86 35.5H136.648V24.9312H138.86V35.5Z" fill="black"/>
</svg>
