<svg width="150" height="22" viewBox="0 0 150 22" fill="none" xmlns="http://www.w3.org/2000/svg">
<g clip-path="url(#clip0_337_2922)">
<path fill-rule="evenodd" clip-rule="evenodd" d="M18.3557 0C19.1836 0 19.8836 0.0162963 19.9041 0.0317778C19.9238 0.0513333 20.0959 0.0863704 20.2836 0.113259C20.4721 0.141778 20.8598 0.224074 21.1443 0.294963C21.4279 0.365852 21.8525 0.498667 22.0844 0.585852C22.3164 0.672222 22.6844 0.833556 22.9041 0.946815C23.1246 1.05681 23.4648 1.25726 23.6607 1.39089C23.8574 1.52126 24.1729 1.76489 24.3607 1.92948C24.5492 2.09081 24.7811 2.32304 24.877 2.44037C24.9729 2.55852 25.1008 2.75896 25.1648 2.88852C25.2287 3.01889 25.309 3.23889 25.3451 3.37985C25.3811 3.52163 25.4213 3.87526 25.4328 4.16615C25.4456 4.47407 25.4374 4.78251 25.4082 5.08933C25.3852 5.30607 25.3172 5.71022 25.2607 5.99378C25.2008 6.27652 25.0844 6.74341 24.9967 7.03511C24.909 7.326 24.7525 7.79289 24.6443 8.07644C24.5369 8.35919 24.3287 8.85459 24.1852 9.17644C24.0369 9.50237 23.8 9.98637 23.6566 10.2577C23.5123 10.529 23.2287 11.0155 23.0328 11.3381C22.8361 11.6641 22.5844 12.0576 22.4803 12.2149C22.3721 12.3681 22.2836 12.5017 22.2836 12.5058C22.2836 12.5139 22.3885 12.5139 22.5164 12.5058C22.6402 12.4976 23.0041 12.4585 23.3246 12.4113C23.6421 12.3632 23.9633 12.3422 24.2844 12.3485C24.5844 12.3599 24.7131 12.3836 24.8852 12.4626C25.0049 12.5172 25.1607 12.6076 25.2246 12.663C25.2885 12.7144 25.3926 12.8553 25.4566 12.9727C25.5369 13.1307 25.5648 13.2407 25.5648 13.4021C25.5648 13.5316 25.5328 13.6889 25.4811 13.7948C25.4369 13.8926 25.3336 14.0507 25.2525 14.1484C25.1101 14.298 24.9537 14.4336 24.7852 14.5534C24.609 14.6838 24.2287 14.8989 23.9443 15.0366C23.6607 15.1743 23.2721 15.3275 23.0844 15.3829C22.8959 15.4334 22.5205 15.5165 22.2443 15.563C21.9328 15.6143 21.4639 15.6575 20.2475 15.7015L20.2279 15.9761C20.2156 16.1252 20.1877 16.5065 20.168 16.821C20.1434 17.1356 20.0877 17.6114 20.0402 17.8819C19.9918 18.1533 19.9115 18.5232 19.8557 18.7073C19.8041 18.8923 19.7115 19.1555 19.6557 19.2973C19.5755 19.4835 19.486 19.6657 19.3877 19.8432C19.2775 20.0273 19.156 20.2044 19.0238 20.3736C18.9115 20.504 18.6959 20.7118 18.5434 20.8299C18.3877 20.9481 18.0992 21.1281 17.9041 21.2267C17.6784 21.3403 17.444 21.4362 17.2033 21.5136C17.0148 21.573 16.7475 21.6472 16.6033 21.6749C16.391 21.72 16.1775 21.7594 15.9631 21.793C15.7072 21.8285 15.4493 21.8481 15.191 21.8517C14.9787 21.8517 14.6705 21.8281 14.5107 21.7963C14.3032 21.7535 14.0997 21.6933 13.9025 21.6162C13.7067 21.5377 13.5192 21.4403 13.3426 21.3253C13.1938 21.2182 13.0557 21.0971 12.9303 20.9636C12.8172 20.8353 12.7142 20.6985 12.6221 20.5545C12.5032 20.3458 12.3991 20.1291 12.3107 19.9059C12.2184 19.6811 12.1382 19.4515 12.0705 19.2182C12.0344 19.0773 11.9779 18.7782 11.9426 18.5501C11.8929 18.102 11.8568 17.6526 11.8344 17.2024C11.7902 16.4006 11.7746 16.2751 11.7221 16.2947C11.4085 16.3921 11.0875 16.4643 10.7623 16.5106C10.5459 16.5424 10.1902 16.5497 9.78197 16.5342C9.42951 16.522 9.00574 16.4829 8.8418 16.4479C8.65972 16.407 8.4795 16.3583 8.30164 16.302C8.14693 16.2489 7.99484 16.1886 7.8459 16.1211C7.66641 16.0284 7.4995 15.9134 7.34918 15.7789L6.96557 15.9679C6.71721 16.0901 6.47377 16.1765 6.26885 16.2124C6.1079 16.2435 5.94492 16.2631 5.78115 16.271C5.61579 16.2632 5.45133 16.2422 5.28934 16.2083C5.08101 16.1611 4.87744 16.0951 4.68115 16.0111C4.4786 15.9118 4.28452 15.7962 4.10082 15.6656C3.94508 15.5516 3.70492 15.3316 3.56066 15.1743C3.38119 14.9743 3.2116 14.7657 3.05246 14.5493C2.91639 14.3611 2.68852 14.0034 2.54836 13.7557C2.4041 13.508 2.1877 13.0835 2.06066 12.8121C1.91271 12.4868 1.7698 12.1592 1.63197 11.8295C1.25731 10.8626 0.927457 9.8792 0.643443 8.8823C0.523643 8.43202 0.410516 7.98003 0.304098 7.52644C0.216101 7.13606 0.141467 6.74283 0.0803279 6.34741C0.0381474 6.06741 0.0113318 5.78534 0 5.50244C0 5.34111 0.0278689 4.98748 0.0639344 4.71615C0.1 4.44481 0.168033 4.06756 0.219672 3.87119C0.279221 3.64463 0.351465 3.42157 0.436066 3.20304C0.504098 3.0303 0.636066 2.75489 0.736066 2.59356C0.831967 2.43304 1.01639 2.178 1.14836 2.024C1.27623 1.87081 1.50902 1.64674 1.66475 1.51719C1.82431 1.38644 1.98978 1.263 2.16066 1.14726C2.28033 1.07311 2.52459 0.943556 2.70082 0.860444C2.87623 0.778148 3.16475 0.668148 3.34016 0.616815C3.51639 0.562222 3.83197 0.483185 4.04098 0.44C4.24918 0.396815 4.59262 0.338148 4.80082 0.310444C5.00902 0.282741 5.54098 0.259111 5.98115 0.259111C6.42131 0.263185 6.98934 0.283556 7.2418 0.310444C7.49344 0.338148 8.00574 0.408222 8.38115 0.471778C8.7582 0.534518 9.29754 0.640444 10.1025 0.833556L10.4418 0.695037C10.6779 0.603669 10.9183 0.523991 11.1623 0.456296C11.3705 0.400889 11.7139 0.325926 11.9221 0.286815C12.218 0.235481 12.5303 0.22 13.3426 0.215926C13.959 0.215926 14.5705 0.235481 14.8426 0.267259C15.2869 0.318593 15.323 0.318593 15.8033 0.22C16.0787 0.168667 16.423 0.11 16.5754 0.0896296C16.7229 0.074963 16.8434 0.0472593 16.8434 0.0277037C16.8434 0.0114074 17.5238 0 18.3516 0L18.3557 0ZM139.551 4.44074V17.0174L149.973 17.037L149.969 17.371C149.969 17.556 149.965 17.8151 149.953 18.1964H137.911V4.48148L138.279 4.46926C138.483 4.46111 138.855 4.45296 139.551 4.44156V4.44074ZM78.7393 8.94096C79.4311 8.94911 79.7434 8.96867 80.1 9.03141C80.3516 9.07459 80.7311 9.16911 80.9393 9.24C81.1475 9.30682 81.4197 9.41274 81.5402 9.47141C81.6598 9.53089 81.8598 9.65637 81.9795 9.75089C82.1 9.84459 82.3918 10.1086 83.0639 10.749L83.0803 9.21637L84.5 9.19681V13.7476C84.5 17.6147 84.4926 18.3537 84.4402 18.6878C84.3995 18.9272 84.3419 19.1636 84.268 19.395C84.2041 19.5678 84.0762 19.8432 83.9803 20.0045C83.852 20.2067 83.7046 20.3963 83.5402 20.5708C83.3858 20.7295 83.2186 20.8753 83.0402 21.0067C82.8804 21.1162 82.7133 21.2147 82.5402 21.3017C82.3959 21.3726 82.1877 21.4622 82.0795 21.5054C81.9288 21.5633 81.7757 21.6147 81.6205 21.6594C81.4754 21.7026 81.1877 21.7694 80.9795 21.8126C80.7713 21.8517 80.4549 21.899 80.2795 21.9104C80.1033 21.9267 79.9238 21.9536 79.8795 21.9731C79.8311 21.9976 79.3877 22.0049 78.7795 21.9976C78.2987 21.9898 77.8182 21.9686 77.3385 21.934C77.1066 21.9063 76.6951 21.8444 76.4189 21.789C76.1426 21.7336 75.7467 21.6358 75.5385 21.5649C75.3239 21.4949 75.1162 21.4054 74.918 21.2976C74.7633 21.2028 74.6152 21.0977 74.4746 20.9831C74.3505 20.8744 74.2341 20.7573 74.1262 20.6327C74.0082 20.4792 73.9051 20.315 73.818 20.1422C73.724 19.9453 73.6451 19.7415 73.582 19.5327C73.5426 19.3714 73.4943 19.1905 73.4582 19.0219H74.9385L75.0221 19.3046C75.0705 19.4619 75.1582 19.69 75.2188 19.8081C75.2787 19.9263 75.4262 20.13 75.5467 20.2604C75.6746 20.3973 75.8664 20.5472 76.0025 20.6173C76.1303 20.6881 76.3828 20.7867 76.559 20.8413C76.7352 20.8967 77.059 20.9717 77.2787 21.0108C77.6033 21.0695 77.891 21.0809 78.7787 21.0809C79.6557 21.0809 79.959 21.0695 80.2795 21.0149C80.5364 20.9672 80.7901 20.9041 81.0393 20.8259C81.2361 20.759 81.5156 20.645 81.6598 20.5667C81.8115 20.4804 82.0516 20.2954 82.2402 20.1064C82.4598 19.8945 82.6123 19.6981 82.7082 19.5132C82.7877 19.3641 82.8959 19.1041 82.9443 18.9428C83.0279 18.6723 83.0361 18.5541 83.0598 16.3493L82.7484 16.6556C82.5727 16.8313 82.3824 16.9918 82.1795 17.1356C81.9801 17.2607 81.7731 17.3736 81.5598 17.4737C81.3262 17.5803 81.0855 17.6707 80.8393 17.7442C80.6393 17.7996 80.2713 17.8827 80.0197 17.9251C79.7393 17.9724 79.2754 18.0123 78.8393 18.0278C78.391 18.0392 77.927 18.0319 77.6189 18.0033C77.3426 17.9764 76.9385 17.9219 76.7188 17.8787C76.4423 17.8197 76.1687 17.7473 75.8992 17.6619C75.652 17.5811 75.411 17.4828 75.1779 17.3678C74.9643 17.2508 74.7574 17.1222 74.5582 16.9824C74.3504 16.8305 74.1599 16.6564 73.9902 16.4633C73.8508 16.302 73.6623 16.0396 73.5705 15.8775C73.4733 15.7126 73.3862 15.542 73.3098 15.3666C73.2441 15.1932 73.188 15.0164 73.1418 14.837C73.0904 14.6223 73.0477 14.4057 73.0139 14.1876C72.982 13.9757 72.9738 13.6416 72.9893 13.2644C73.0057 12.9026 73.0467 12.5367 73.0943 12.3208C73.136 12.1281 73.188 11.9377 73.25 11.7504C73.2943 11.6331 73.3779 11.4367 73.4385 11.3186C73.4984 11.2013 73.6025 11.0244 73.6705 10.9259C73.7385 10.8281 73.859 10.6741 73.9344 10.5796C74.0733 10.4316 74.2217 10.2928 74.3787 10.164C74.5426 10.0255 74.7582 9.86496 74.8582 9.80548C75.1934 9.6042 75.5489 9.43843 75.9189 9.31089C76.0951 9.25141 76.391 9.16504 76.5787 9.12185C76.7672 9.07867 77.0787 9.02407 77.2787 9.0037C77.4754 8.98007 77.6828 8.95319 77.7393 8.94504C77.7951 8.93363 78.2434 8.93363 78.7393 8.94096ZM77.4385 10.0019C77.2496 10.0414 77.0628 10.0901 76.8787 10.1477C76.6744 10.2212 76.4742 10.3053 76.2787 10.3995C76.0642 10.5047 75.8594 10.6282 75.6664 10.7686C75.4981 10.9086 75.3418 11.0623 75.1992 11.2281C75.0646 11.3923 74.944 11.5673 74.8385 11.7513C74.7425 11.9481 74.6609 12.1515 74.5943 12.3599C74.4902 12.694 74.4828 12.7576 74.4828 13.4803C74.4787 14.0898 74.4943 14.3016 74.55 14.5216C74.591 14.6716 74.6787 14.9307 74.7467 15.092C74.8107 15.2533 74.9352 15.4847 75.0189 15.6029C75.2213 15.8792 75.4638 16.1241 75.7385 16.3297C75.8148 16.3884 75.9869 16.487 76.1189 16.5538C76.25 16.6206 76.4713 16.7151 76.6066 16.7656C76.7467 16.817 77.0148 16.896 77.2066 16.9351C77.4033 16.9783 77.7672 17.0329 78.0189 17.0606C78.2992 17.0883 78.7434 17.1005 79.159 17.085C79.7115 17.0687 79.9197 17.0443 80.2598 16.9587C80.547 16.8802 80.8279 16.7802 81.1 16.6597C81.332 16.5497 81.6516 16.3647 81.8082 16.2474C81.968 16.1293 82.2 15.9174 82.3197 15.7675C82.4443 15.6224 82.6041 15.3788 82.6762 15.2297C82.7516 15.0798 82.8639 14.797 82.9238 14.6007C83.032 14.2625 83.0361 14.2071 83.0361 13.4607C83.0361 12.7144 83.032 12.659 82.9238 12.3208C82.8572 12.1125 82.7758 11.9091 82.6803 11.7121C82.5767 11.5328 82.4588 11.362 82.3279 11.2013C82.1962 11.0468 82.0531 10.9021 81.9 10.7686C81.7359 10.6409 81.5619 10.5265 81.3795 10.4264C81.2156 10.3327 80.9074 10.2064 80.6992 10.1396C80.4496 10.0671 80.1958 10.0094 79.9393 9.96681C79.6472 9.92795 79.3535 9.90186 79.059 9.88859C78.7828 9.88044 78.3787 9.88859 78.159 9.90407C77.9177 9.92789 77.6774 9.9605 77.4385 10.0019Z" fill="#010400"/>
<path d="M16.4836 0.668322C16.7795 0.625137 17.2197 0.573803 17.464 0.554248C17.7074 0.537952 18.0877 0.519211 18.3115 0.515137C18.5402 0.515137 18.9517 0.531433 19.232 0.550174C19.5164 0.574618 19.9959 0.636544 20.3041 0.691951C20.6123 0.746544 21.1082 0.87284 21.4041 0.967359C21.7008 1.06106 22.1443 1.23788 22.3845 1.3601C22.6246 1.47825 22.9967 1.69417 23.2041 1.83921C23.4131 1.98506 23.7566 2.27106 23.9689 2.4764C24.2566 2.75506 24.3812 2.90825 24.4648 3.08506C24.5246 3.21543 24.6008 3.46232 24.6328 3.63588C24.6812 3.87543 24.6894 4.10684 24.6738 4.59817C24.6533 5.06262 24.6164 5.38854 24.5451 5.73891C24.4894 6.00943 24.4008 6.38669 24.3451 6.58306C24.1477 7.25727 23.9123 7.91994 23.6402 8.56795C23.2723 9.38861 22.8599 10.1888 22.4049 10.9651C22.2648 11.1933 21.9927 11.6056 21.8008 11.8891C21.6241 12.1496 21.4399 12.4051 21.2484 12.6551C21.0484 12.9068 21.0484 12.9109 21.1361 12.9582C21.1845 12.9818 21.341 13.025 21.4845 13.0519C21.6648 13.0837 21.9484 13.0918 22.4049 13.0763C22.8 13.062 23.194 13.0267 23.5853 12.9704C23.9172 12.915 24.1689 12.8946 24.2853 12.9109C24.3853 12.9264 24.5131 12.9614 24.573 12.9932C24.6369 13.025 24.7123 13.0877 24.7451 13.135C24.7827 13.2053 24.8032 13.2835 24.8049 13.3631C24.8008 13.4525 24.7761 13.5397 24.7328 13.6182C24.67 13.7082 24.5992 13.7924 24.5213 13.87C24.3971 13.9794 24.2644 14.0791 24.1246 14.1682C23.9453 14.2794 23.7612 14.383 23.573 14.4786C23.4172 14.5577 23.1451 14.6677 22.973 14.7231C22.7467 14.7927 22.5169 14.8504 22.2845 14.8958C22.0763 14.9349 21.6804 14.9895 21.4041 15.018C21.0915 15.0455 20.7774 15.0518 20.464 15.0368C20.2656 15.0284 20.0679 15.0074 19.8722 14.974C19.7918 14.9504 19.7246 14.9422 19.7246 14.9545C19.7246 14.9659 19.6525 15.4735 19.564 16.0822C19.4763 16.6957 19.3402 17.5488 19.264 17.9807C19.2034 18.3436 19.1287 18.704 19.0402 19.0611C18.9801 19.2635 18.9039 19.4607 18.8123 19.6511C18.7041 19.867 18.5795 20.0283 18.3435 20.2638C18.0795 20.5237 17.9558 20.6101 17.6435 20.7592C17.4361 20.857 17.1394 20.9751 16.9836 21.0183C16.8279 21.0615 16.5795 21.1242 16.4238 21.1601C16.2681 21.1919 15.9631 21.2383 15.7435 21.262C15.523 21.2864 15.2189 21.2937 15.0631 21.2815C14.8703 21.2606 14.6792 21.2266 14.491 21.1797C14.3127 21.1319 14.1388 21.0689 13.9713 20.9914C13.8175 20.9115 13.6703 20.8194 13.5312 20.716C13.3847 20.5954 13.2529 20.4581 13.1386 20.307C13.0217 20.1484 12.9162 19.9817 12.823 19.8083C12.7439 19.6502 12.6781 19.4859 12.6263 19.317C12.5951 19.1866 12.5386 18.8525 12.5033 18.5698C12.4552 18.0798 12.4216 17.5886 12.4025 17.0966C12.3736 16.4695 12.3537 15.8421 12.3427 15.2144L12.123 15.3513C11.8382 15.5321 11.528 15.6699 11.2025 15.7603C11.0144 15.8104 10.8233 15.8485 10.6304 15.8744C10.4183 15.901 10.2048 15.9154 9.99101 15.9176C9.81068 15.9176 9.48281 15.8899 9.2615 15.8581C9.0315 15.8277 8.80429 15.7792 8.582 15.7131C8.41513 15.66 8.25418 15.5901 8.10167 15.5045C7.99035 15.4384 7.89271 15.3518 7.81396 15.2494C7.76276 15.1759 7.73117 15.0907 7.72216 15.0017C7.72216 14.9422 7.74183 14.8559 7.7697 14.8054C7.80408 14.7468 7.84719 14.6938 7.89757 14.6481C7.94593 14.6082 8.0697 14.534 8.18199 14.4827C8.29019 14.4314 8.64921 14.3336 8.98199 14.2708C9.30986 14.204 9.65413 14.1291 9.74183 14.1054C9.83036 14.0818 9.95822 14.0345 10.0222 14.0036C10.0861 13.9718 10.2705 13.8186 10.4304 13.6614C10.5902 13.5082 10.7107 13.3705 10.7025 13.3509C10.6902 13.3346 10.6025 13.3232 10.5025 13.3232C10.3517 13.3177 10.2017 13.2994 10.0541 13.2686C9.90249 13.2368 9.66642 13.1708 9.26232 13.0209L8.882 13.3631C8.6738 13.5505 8.13363 14.0582 7.68199 14.4908C6.9738 15.1671 6.82134 15.2926 6.5615 15.4181C6.39757 15.4963 6.1615 15.5754 6.04183 15.5949C5.92134 15.6112 5.69347 15.6112 5.54183 15.5949C5.3459 15.5765 5.15546 15.5204 4.98117 15.4295C4.80097 15.3363 4.62952 15.2272 4.46888 15.1036C4.3067 14.9677 4.15568 14.8192 4.01724 14.6595C3.89347 14.5177 3.66888 14.2195 3.51314 13.9914C3.36068 13.7632 3.09675 13.3037 2.92462 12.9696C2.71209 12.5376 2.5147 12.0984 2.33281 11.6528C2.15011 11.1989 1.97929 10.7402 1.82052 10.2774C1.66347 9.80916 1.51672 9.33754 1.38036 8.86291C1.25146 8.40031 1.13285 7.93494 1.02462 7.46714C0.948993 7.12783 0.879583 6.78718 0.816421 6.44536C0.76959 6.11338 0.748217 5.77834 0.752486 5.44314C0.752486 5.09766 0.772159 4.68862 0.796749 4.53951C0.824618 4.3904 0.880355 4.11499 0.927896 3.93003C0.972159 3.74588 1.06478 3.47373 1.12462 3.32136C1.20796 3.13227 1.30267 2.94833 1.40822 2.77054C1.50822 2.60188 1.7279 2.34684 1.97708 2.1024C2.30495 1.78462 2.46478 1.6624 2.82134 1.46684C3.08941 1.32078 3.37036 1.19941 3.66068 1.10425C3.88118 1.03743 4.20495 0.959211 4.38117 0.923359C4.5574 0.892396 4.92544 0.845137 5.20085 0.821507C5.58729 0.792436 5.97511 0.785907 6.36232 0.801952C6.72626 0.818248 7.23855 0.856544 7.50249 0.888322C7.76642 0.9201 8.17872 0.98284 8.42298 1.02603C8.66642 1.06921 9.15904 1.17514 10.1828 1.42691L10.5025 1.28921C10.6795 1.21425 10.9672 1.10425 11.1435 1.04966C11.3197 0.994248 11.5992 0.919285 11.7631 0.888322C11.9271 0.856544 12.2271 0.8101 12.4238 0.78647C12.6197 0.766914 13.0197 0.746544 13.3041 0.746544C13.5877 0.746544 14.0681 0.774248 14.364 0.8101C14.6599 0.841063 14.9681 0.884248 15.0443 0.899729C15.1443 0.924174 15.2918 0.903803 15.564 0.841063C15.7722 0.789729 16.1877 0.711507 16.4836 0.668322Z" fill="white"/>
<path fill-rule="evenodd" clip-rule="evenodd" d="M112.102 4.14673C112.742 4.15814 113.357 4.18584 113.661 4.22495C113.938 4.2608 114.37 4.33088 114.622 4.38221C114.874 4.43762 115.233 4.53132 115.422 4.5908C115.61 4.65354 115.914 4.77495 116.102 4.86214C116.29 4.94362 116.558 5.09354 116.702 5.18806C116.846 5.28258 117.106 5.50258 117.286 5.67532C117.462 5.85214 117.683 6.11939 117.774 6.26851C117.866 6.41843 117.994 6.68895 118.062 6.86984C118.126 7.04665 118.211 7.3571 118.242 7.55428C118.274 7.75473 118.302 8.01384 118.302 8.33243H116.522L116.494 7.99021C116.471 7.77971 116.428 7.57182 116.366 7.36932C116.318 7.22192 116.261 7.07768 116.194 6.93747C116.111 6.79844 116.022 6.6633 115.926 6.53251C115.8 6.37364 115.655 6.23103 115.494 6.10799C115.299 5.97498 115.094 5.85651 114.882 5.75354C114.649 5.64617 114.408 5.55576 114.161 5.48302C113.878 5.41049 113.591 5.35148 113.301 5.30621C112.877 5.25011 112.449 5.21991 112.021 5.21576C111.594 5.20415 111.167 5.20931 110.741 5.23125C110.465 5.2508 110.077 5.28991 109.881 5.32576C109.652 5.36324 109.425 5.41027 109.201 5.46673C108.99 5.52251 108.783 5.5908 108.58 5.67125C108.416 5.73806 108.173 5.87576 108.041 5.97762C107.878 6.1097 107.733 6.26164 107.608 6.42984C107.487 6.61224 107.389 6.80906 107.316 7.01569C107.233 7.27073 107.212 7.40843 107.212 7.76206C107.208 8.0611 107.229 8.26969 107.276 8.43021C107.316 8.56058 107.392 8.74473 107.452 8.84332C107.508 8.9411 107.62 9.08695 107.701 9.17332C107.81 9.28467 107.931 9.3846 108.061 9.47154C108.18 9.55465 108.388 9.66465 108.52 9.71599C108.652 9.77058 108.852 9.84147 108.961 9.87651C109.073 9.91236 109.369 9.98651 109.62 10.0419C109.873 10.1006 110.353 10.1992 110.681 10.2619C111.013 10.3247 111.965 10.4941 112.801 10.631C113.638 10.7695 114.565 10.9382 114.862 11.0009C115.158 11.0678 115.566 11.1655 115.762 11.2209C115.958 11.2755 116.258 11.366 116.422 11.4247C116.586 11.4801 116.866 11.5941 117.042 11.6805C117.218 11.7709 117.442 11.8924 117.542 11.96C117.642 12.0268 117.811 12.1637 117.919 12.2623C118.026 12.3601 118.179 12.5377 118.258 12.655C118.342 12.7732 118.458 12.985 118.523 13.1276C118.583 13.2686 118.666 13.5399 118.706 13.7363C118.751 13.9441 118.783 14.2586 118.783 14.5022C118.783 14.7304 118.759 15.0563 118.727 15.2298C118.694 15.4026 118.626 15.6576 118.583 15.7994C118.534 15.9398 118.478 16.0774 118.415 16.2117C118.336 16.3466 118.252 16.4779 118.162 16.6052C118.066 16.7348 117.879 16.9475 117.738 17.0729C117.598 17.2025 117.354 17.3875 117.202 17.4852C117.05 17.583 116.794 17.7175 116.642 17.7884C116.49 17.8592 116.174 17.9766 115.942 18.0556C115.71 18.1298 115.342 18.2284 115.122 18.2715C114.83 18.3268 114.536 18.3765 114.242 18.4207C113.85 18.4761 113.474 18.4875 112.221 18.4915C111.181 18.4915 110.549 18.4752 110.281 18.4402C110.027 18.4072 109.773 18.3705 109.52 18.3302C109.324 18.2952 108.981 18.2243 108.761 18.1729C108.525 18.115 108.292 18.0498 108.061 17.9774C107.897 17.922 107.552 17.7761 107.301 17.6547C107.036 17.5262 106.782 17.3777 106.54 17.2107C106.376 17.0884 106.144 16.8847 106.024 16.7584C105.885 16.6054 105.756 16.4426 105.64 16.2712C105.53 16.1022 105.434 15.9248 105.352 15.7407C105.261 15.5167 105.185 15.287 105.124 15.053C105.056 14.789 105.008 14.4664 104.96 13.6768H106.72L106.752 13.8618C106.768 13.9677 106.78 14.1135 106.78 14.1877C106.78 14.2627 106.816 14.4753 106.861 14.6603C106.908 14.8444 107.02 15.1508 107.116 15.3472C107.244 15.6104 107.369 15.7839 107.588 16.0153C107.752 16.1881 107.992 16.4007 108.124 16.483C108.444 16.6871 108.785 16.8559 109.141 16.9866C109.261 17.0298 109.488 17.0966 109.641 17.1316C109.792 17.1707 110.085 17.2343 110.281 17.2652C110.477 17.3011 110.849 17.3475 111.101 17.3712C111.353 17.3907 111.87 17.4111 112.241 17.4111C112.613 17.4111 113.129 17.3915 113.382 17.3712C113.633 17.3475 114.05 17.2929 114.301 17.249C114.554 17.2025 114.894 17.1235 115.054 17.0729C115.21 17.0216 115.482 16.9157 115.654 16.8334C115.87 16.7348 116.046 16.6134 116.234 16.4325C116.38 16.2951 116.51 16.1421 116.622 15.9762C116.686 15.8662 116.774 15.6812 116.814 15.5639C116.858 15.4458 116.914 15.1704 116.938 14.9544C116.97 14.6831 116.97 14.4672 116.942 14.2472C116.924 14.0878 116.893 13.9301 116.85 13.7754C116.813 13.6747 116.77 13.5763 116.722 13.4804C116.664 13.379 116.598 13.2818 116.526 13.1895C116.416 13.0696 116.294 12.9605 116.162 12.8636C116.03 12.7658 115.834 12.6436 115.722 12.5964C115.533 12.5192 115.339 12.4536 115.142 12.4C114.857 12.3237 114.57 12.2555 114.282 12.1955C114.018 12.1441 113.657 12.0732 113.482 12.0423C113.306 12.0105 112.785 11.9241 112.321 11.8459C111.857 11.7709 111.257 11.6724 110.981 11.6292C110.546 11.5573 110.113 11.4788 109.681 11.3937C109.266 11.3127 108.852 11.2222 108.441 11.1224C108.185 11.0563 107.932 10.983 107.68 10.9024C107.503 10.8456 107.329 10.7776 107.161 10.6987C107.023 10.6305 106.89 10.5554 106.761 10.4738C106.61 10.3731 106.468 10.2603 106.336 10.1364C106.19 9.99353 106.059 9.83689 105.944 9.66873C105.842 9.50684 105.755 9.3358 105.684 9.15784C105.626 9.00287 105.575 8.84515 105.532 8.68525C105.5 8.54428 105.48 8.24199 105.484 7.82154C105.488 7.28702 105.504 7.11754 105.576 6.85843C105.642 6.63635 105.727 6.42063 105.832 6.21391C105.94 5.99799 106.092 5.78532 106.26 5.60851C106.404 5.45532 106.629 5.25813 106.761 5.16851C106.892 5.07399 107.116 4.94443 107.261 4.87354C107.428 4.79271 107.598 4.7193 107.772 4.65354C107.908 4.60221 108.205 4.51584 108.433 4.46451C108.656 4.40991 108.941 4.35043 109.061 4.32762C109.181 4.30806 109.452 4.26814 109.661 4.24125C109.953 4.20992 110.247 4.18358 110.541 4.16221C110.817 4.14591 111.517 4.13858 112.102 4.14591V4.14673ZM128.384 4.1508C128.98 4.16221 129.537 4.19399 129.905 4.24043C130.224 4.28443 130.692 4.36265 130.945 4.41806C131.197 4.47265 131.577 4.57451 131.785 4.64132C131.993 4.70814 132.329 4.83036 132.525 4.91265C132.721 4.99576 133.038 5.14895 133.225 5.2508C133.413 5.35347 133.71 5.53762 133.885 5.66391C134.061 5.78614 134.365 6.02488 134.561 6.19354C134.757 6.3671 135.046 6.65391 135.197 6.83888C135.35 7.02302 135.558 7.29843 135.658 7.44754C135.927 7.86103 136.15 8.30258 136.322 8.76428C136.382 8.92562 136.474 9.22873 136.526 9.43243C136.574 9.63695 136.642 9.95554 136.67 10.1397C136.706 10.3515 136.726 10.7964 136.726 11.3587C136.722 11.885 136.702 12.369 136.67 12.5564C136.642 12.73 136.586 13.0127 136.542 13.1863C136.502 13.359 136.414 13.6499 136.354 13.8341C136.265 14.0756 136.162 14.312 136.046 14.5421C135.942 14.7458 135.75 15.0644 135.622 15.2494C135.455 15.4821 135.273 15.7039 135.078 15.9135C134.906 16.0944 134.61 16.3698 134.414 16.5221C134.221 16.6761 134.07 16.8057 134.074 16.8098C134.082 16.8098 134.438 17.0452 134.865 17.3321C135.293 17.6189 135.85 17.9839 136.098 18.1493C136.346 18.3188 136.55 18.4598 136.55 18.472C136.204 18.8165 135.842 19.1444 135.465 19.4547L135.042 19.1678C134.81 19.0138 134.465 18.7784 134.274 18.6488C134.052 18.4952 133.829 18.3431 133.606 18.1925C133.358 18.0253 133.111 17.8564 132.865 17.6857L132.617 17.8079C132.405 17.9047 132.187 17.9899 131.965 18.0629C131.702 18.1464 131.435 18.2171 131.165 18.2748C130.945 18.3188 130.585 18.3815 130.365 18.4133C129.919 18.4626 129.472 18.4979 129.024 18.5192C128.308 18.5543 127.892 18.5543 127.284 18.5192C126.883 18.4958 126.483 18.4605 126.084 18.4133C125.864 18.3775 125.488 18.3074 125.244 18.2561C125.009 18.2035 124.775 18.1445 124.543 18.0792C124.329 18.0069 124.115 17.9309 123.903 17.8511C123.638 17.7482 123.378 17.6326 123.124 17.5048C122.883 17.3846 122.649 17.2521 122.423 17.108C122.259 17.0021 121.959 16.7821 121.763 16.6167C121.554 16.4442 121.354 16.2621 121.163 16.0707C120.994 15.8885 120.832 15.6995 120.679 15.5044C120.367 15.0978 120.105 14.6558 119.899 14.1877C119.748 13.8319 119.627 13.4639 119.538 13.0877C119.495 12.9027 119.431 12.5418 119.398 12.2818C119.37 12.0227 119.342 11.5974 119.342 11.3383C119.342 11.0792 119.37 10.6278 119.402 10.3361C119.438 10.046 119.511 9.6288 119.567 9.41288C119.619 9.19695 119.702 8.91421 119.747 8.78384C119.937 8.29519 120.179 7.82767 120.467 7.38888C120.794 6.91413 121.182 6.48452 121.623 6.11125C121.803 5.96214 122.131 5.71443 122.356 5.56939C122.628 5.39201 122.911 5.23172 123.203 5.08947C123.447 4.97213 123.86 4.80673 124.124 4.71628C124.388 4.62665 124.792 4.51258 125.024 4.45717C125.256 4.40584 125.48 4.35451 125.524 4.3431C126.007 4.25966 126.495 4.20065 126.984 4.16628C127.451 4.1433 127.918 4.13868 128.384 4.1508ZM126.524 5.32984C126.304 5.3608 125.972 5.42354 125.783 5.46673C125.548 5.5244 125.314 5.59017 125.083 5.66391C124.888 5.73073 124.543 5.86762 124.324 5.97354C124.103 6.07947 123.752 6.27665 123.543 6.41354C123.277 6.59581 123.024 6.79705 122.788 7.01569C122.596 7.19629 122.415 7.38667 122.243 7.58606C122.109 7.76317 121.984 7.94644 121.867 8.13525C121.728 8.36865 121.606 8.61184 121.503 8.86288C121.419 9.0788 121.315 9.40473 121.271 9.58969C121.227 9.77465 121.167 10.0574 121.135 10.2187C121.103 10.3996 121.083 10.8201 121.083 11.3187C121.083 11.9396 121.099 12.2109 121.155 12.4978C121.195 12.7023 121.263 12.9972 121.307 13.1464C121.357 13.3264 121.417 13.5035 121.487 13.6768C121.543 13.8186 121.643 14.0304 121.703 14.1494C121.763 14.2667 121.923 14.5218 122.055 14.7189C122.195 14.9267 122.471 15.2453 122.727 15.4971C123.015 15.7798 123.311 16.0235 123.603 16.2125C123.847 16.3689 124.175 16.5621 124.336 16.6403C124.492 16.7193 124.76 16.8334 124.924 16.9002C125.088 16.967 125.356 17.0534 125.515 17.0958C125.672 17.1398 125.976 17.2098 126.184 17.2538C126.392 17.2929 126.744 17.3475 126.964 17.3761C127.184 17.3989 127.688 17.4184 128.084 17.4184C128.48 17.4184 128.984 17.3989 129.205 17.3752C129.479 17.3407 129.753 17.2975 130.024 17.2457C130.256 17.2025 130.609 17.1153 130.805 17.0567C131.001 16.9939 131.281 16.8961 131.425 16.8407C131.569 16.7821 131.821 16.668 131.985 16.5857C132.149 16.5026 132.449 16.3298 132.645 16.2003C132.853 16.0634 133.052 15.9137 133.242 15.7521C133.374 15.6381 133.581 15.4181 133.706 15.2689C133.842 15.1038 133.971 14.9334 134.093 14.7581C134.182 14.6277 134.318 14.3963 134.393 14.2472C134.578 13.8839 134.723 13.5016 134.825 13.1072C134.87 12.9345 134.925 12.6787 134.95 12.5369C134.974 12.3959 135.006 12.07 135.025 11.8101C135.042 11.5355 135.042 11.115 135.022 10.8078C134.997 10.5169 134.946 10.1006 134.897 9.88465C134.85 9.65236 134.79 9.42278 134.718 9.19695C134.652 9.00279 134.576 8.81238 134.489 8.62658C134.382 8.40948 134.26 8.19963 134.125 7.99836C133.997 7.80117 133.717 7.47117 133.51 7.25525C133.297 7.04339 132.981 6.75984 132.806 6.62621C132.617 6.48423 132.424 6.34916 132.225 6.22125C132.068 6.12674 131.908 6.0376 131.745 5.95399C131.561 5.86833 131.375 5.78977 131.185 5.71851C130.91 5.62043 130.629 5.53774 130.345 5.4708C130.069 5.40399 129.648 5.32576 129.405 5.29399C128.972 5.25445 128.538 5.23623 128.104 5.23939C127.632 5.23939 127.172 5.24754 127.084 5.25488C126.996 5.26302 126.744 5.29399 126.524 5.32984ZM38.4072 4.46451C39.299 4.46858 39.6794 4.48895 39.9671 4.53539C40.1753 4.57125 40.4999 4.64539 40.6876 4.7008C40.8761 4.75947 41.163 4.86947 41.3269 4.94851C41.4908 5.02673 41.7081 5.14895 41.8081 5.21576C41.9072 5.27851 42.0917 5.42762 42.2236 5.54576C42.3515 5.66391 42.54 5.86354 42.6359 5.99391C42.7359 6.12347 42.8843 6.37117 42.972 6.54391C43.0597 6.71665 43.1761 7.03525 43.2318 7.25117C43.304 7.52658 43.34 7.7971 43.3556 8.15562C43.3679 8.46932 43.3597 8.80339 43.3277 9.01932C43.262 9.50271 43.1016 9.96861 42.8556 10.3907C42.7515 10.5642 42.5318 10.8388 42.3679 11.0042C42.2007 11.1723 42.0198 11.3263 41.8269 11.4646C41.6958 11.5542 41.4515 11.6927 41.2876 11.7709C41.1236 11.8532 40.8351 11.9714 40.6474 12.0341C40.1656 12.1825 39.6694 12.28 39.1671 12.325C38.9785 12.3413 37.3425 12.3568 32.2261 12.3609L32.2056 18.177L30.5654 18.1966V4.48162L33.8982 4.46939C35.7261 4.46532 37.7589 4.46532 38.4064 4.46532L38.4072 4.46451ZM32.2056 11.2796L39.0269 11.256C39.6794 11.0987 39.9671 11.0124 40.0876 10.9651C40.416 10.8243 40.7187 10.6305 40.9835 10.3915C41.0671 10.3092 41.1876 10.1674 41.2474 10.081C41.3072 9.99465 41.3949 9.83332 41.4441 9.72739C41.5034 9.58706 41.5527 9.44276 41.5917 9.29554C41.6277 9.16517 41.6638 8.89058 41.6753 8.68606C41.6876 8.48154 41.6753 8.14747 41.6515 7.94702C41.6196 7.71301 41.5647 7.48268 41.4876 7.25932C41.414 7.06345 41.3189 6.87626 41.204 6.70117C41.0931 6.55078 40.9667 6.41232 40.8269 6.28806C40.6893 6.17446 40.5407 6.07458 40.3835 5.98984C40.2224 5.90976 40.0568 5.83903 39.8876 5.77799C39.6776 5.71648 39.4637 5.66911 39.2474 5.63621C38.9433 5.59302 38.2064 5.5808 35.5343 5.5808H32.2064L32.2056 11.2796ZM68.1728 6.24895H69.613V9.19695H72.0933V10.1592L69.6326 10.1201V16.6052L69.7408 16.8293C69.8294 17.0102 69.8933 17.077 70.0408 17.1634C70.149 17.2221 70.3212 17.2889 70.4335 17.3166C70.5408 17.3402 70.813 17.3712 71.0335 17.3875C71.3335 17.407 71.5089 17.3989 71.7335 17.3557C71.8974 17.3207 72.0449 17.2929 72.0613 17.2929C72.0818 17.2929 72.0892 17.5015 72.0736 18.2161L71.7335 18.2675C71.5097 18.2992 71.1613 18.3107 70.713 18.2992C70.2974 18.287 69.9171 18.2561 69.7335 18.2161C69.5695 18.1811 69.3171 18.1021 69.1728 18.0475C68.981 17.9725 68.849 17.8821 68.6687 17.7093C68.4884 17.5325 68.4007 17.407 68.3367 17.2343C68.273 17.0494 68.2301 16.8582 68.2089 16.6639C68.1884 16.4789 68.1728 14.9267 68.1728 10.1006H66.3326V9.19614H68.1728V6.24895ZM49.049 8.90606C49.3687 8.91421 49.8015 8.94191 50.0089 8.96554C50.2171 8.98999 50.5499 9.04051 50.749 9.07962C50.949 9.11873 51.29 9.20999 51.5097 9.27599C51.7294 9.34688 52.09 9.49273 52.3097 9.60191C52.5294 9.71599 52.8097 9.87732 52.9302 9.96858C53.0499 10.0541 53.2458 10.2155 53.3654 10.3214C53.4859 10.4273 53.69 10.6555 53.822 10.829C53.954 11.0018 54.1253 11.2772 54.2097 11.4377C54.29 11.599 54.3982 11.8467 54.4425 11.9877C54.49 12.1295 54.554 12.3576 54.5859 12.4986C54.622 12.6404 54.6663 12.9663 54.6859 13.2262C54.7138 13.5358 54.7138 13.8667 54.6859 14.1885C54.6655 14.4594 54.6283 14.7288 54.5744 14.9952C54.5302 15.1671 54.4417 15.4507 54.3736 15.6234C54.2844 15.8399 54.1804 16.0501 54.0622 16.2524C53.9343 16.4643 53.7384 16.7006 53.4499 16.9833C53.154 17.2783 52.9294 17.4551 52.69 17.5961C52.4884 17.7108 52.2813 17.8157 52.0695 17.9106C51.9179 17.9774 51.7089 18.0597 51.6097 18.0915C51.5097 18.1232 51.2851 18.186 51.1097 18.2332C50.9335 18.2764 50.6294 18.3392 50.4294 18.3701C50.1377 18.4161 49.8439 18.4476 49.549 18.4647C49.2613 18.4842 48.8285 18.4924 48.5892 18.4891C48.349 18.4809 47.9966 18.4647 47.8089 18.4532C47.6203 18.4369 47.2531 18.3864 46.9892 18.3351C46.7186 18.2856 46.4511 18.22 46.1884 18.1387C45.7376 17.983 45.3077 17.7731 44.9081 17.5138C44.7367 17.3878 44.5712 17.254 44.4121 17.1129C44.2331 16.9437 44.0673 16.7612 43.9162 16.5669C43.7555 16.3415 43.6111 16.1048 43.4843 15.8589C43.3628 15.6061 43.2635 15.3432 43.1876 15.0734C43.1183 14.7821 43.069 14.4864 43.04 14.1885C42.9999 13.7762 43.004 13.6035 43.0564 13.1276C43.0917 12.8131 43.1679 12.4008 43.2236 12.2044C43.2843 12.0072 43.4081 11.6935 43.504 11.4964C43.606 11.2906 43.725 11.0936 43.8597 10.9072C43.9597 10.7769 44.1638 10.5455 44.3163 10.3964C44.4679 10.2472 44.7359 10.0232 44.9122 9.90502C45.1416 9.75673 45.381 9.62415 45.6285 9.50821C45.8482 9.40554 46.2081 9.26865 46.4285 9.2051C46.6482 9.14236 47.0089 9.06006 47.2285 9.02095C47.449 8.9851 47.8171 8.94191 48.0482 8.92317C48.281 8.90688 48.7285 8.89791 49.049 8.90606ZM47.6089 9.96776C47.4203 9.99954 47.1326 10.0737 46.9687 10.1291C46.8048 10.1837 46.5605 10.2823 46.4285 10.3491C46.2838 10.4195 46.1434 10.4984 46.0081 10.5854C45.9081 10.6514 45.7048 10.8209 45.5523 10.9627C45.4048 11.1036 45.204 11.3277 45.1162 11.4572C45.0151 11.6083 44.9242 11.7659 44.8441 11.929C44.7802 12.0594 44.6843 12.3218 44.6244 12.5189C44.5203 12.853 44.5122 12.9198 44.5122 13.6776C44.5081 14.3971 44.5203 14.5193 44.5999 14.8184C44.6523 15.0025 44.74 15.2584 44.7966 15.3879C44.8564 15.5175 44.9966 15.7652 45.1081 15.9379C45.2244 16.1107 45.4441 16.3665 45.5917 16.5034C45.7441 16.6452 45.9769 16.8261 46.1081 16.9084C46.2408 16.9915 46.4851 17.117 46.649 17.1838C46.813 17.2506 47.1203 17.3451 47.3294 17.3956C47.5367 17.451 47.9523 17.5097 48.249 17.5341C48.6408 17.5651 48.9458 17.5651 49.3613 17.5341C49.6728 17.5097 50.0613 17.4624 50.222 17.4315C50.3777 17.3997 50.6531 17.3255 50.8294 17.2701C51.0056 17.2147 51.2892 17.0933 51.4654 17.0069C51.6376 16.9165 51.9056 16.7356 52.0613 16.6061C52.2171 16.4757 52.4253 16.272 52.5261 16.1457C52.6261 16.0243 52.7777 15.7888 52.8654 15.6161C52.9499 15.4466 53.0662 15.1402 53.122 14.9357C53.2138 14.5975 53.222 14.4875 53.2261 13.7567C53.2302 13.2221 53.2138 12.8726 53.1777 12.7153C53.1383 12.55 53.093 12.3861 53.0417 12.224C52.9733 12.0286 52.8917 11.838 52.7974 11.6536C52.6695 11.41 52.5499 11.2568 52.254 10.9659C51.9179 10.6359 51.8179 10.565 51.4499 10.3841C51.2169 10.2726 50.9761 10.1781 50.7294 10.1014C50.5654 10.0582 50.2769 9.99547 50.0892 9.95962C49.881 9.92458 49.4531 9.8928 48.9892 9.88547C48.6892 9.8774 48.3891 9.87876 48.0892 9.88954C48.013 9.90095 47.7966 9.9368 47.6089 9.96776ZM60.5515 8.93051C61.0113 8.92643 61.5794 8.93865 61.8113 8.96147C62.0433 8.98591 62.4195 9.03643 62.6515 9.07962C62.8835 9.1228 63.2236 9.2051 63.4122 9.26865C63.5999 9.33139 63.8679 9.43732 64.0122 9.50821C64.1556 9.57502 64.3958 9.72414 64.5523 9.83821C64.704 9.95228 64.9122 10.156 65.0195 10.2978C65.1244 10.4395 65.2564 10.6636 65.3122 10.7972C65.3679 10.9349 65.44 11.1981 65.472 11.3864C65.5048 11.5795 65.5318 11.7718 65.5318 11.9095H64.0523L64.0318 11.7204C64.0154 11.6186 63.9917 11.4613 63.972 11.3668C63.9345 11.2381 63.8851 11.1132 63.8244 10.9936C63.74 10.8458 63.6364 10.7096 63.5162 10.5887C63.3551 10.4403 63.1715 10.3182 62.972 10.2269C62.7835 10.1372 62.4958 10.0272 62.3318 9.98732C62.1679 9.94414 61.8794 9.88954 61.6917 9.8651C61.5031 9.83821 60.999 9.81458 60.5712 9.81458C60.0548 9.81458 59.631 9.83821 59.3113 9.88139C59.0277 9.92376 58.747 9.98418 58.4712 10.0623C58.2712 10.125 57.9949 10.2505 57.8548 10.3369C57.7154 10.4273 57.5384 10.5846 57.463 10.6872C57.3867 10.785 57.299 10.9545 57.263 11.0645C57.2269 11.1704 57.1949 11.3741 57.1949 11.5167C57.1949 11.687 57.2212 11.8304 57.2744 11.9486C57.3187 12.0464 57.4269 12.193 57.5146 12.2745C57.599 12.3576 57.7867 12.4831 57.931 12.5581C58.0744 12.6322 58.3425 12.7267 58.531 12.7699C58.7195 12.8131 59.1146 12.884 59.4113 12.9272C59.7064 12.9704 60.3753 13.0527 60.8917 13.1081C61.4081 13.1635 62.0638 13.2384 62.3515 13.2694C62.64 13.3044 63.0876 13.3712 63.3515 13.4267C63.6163 13.4772 63.9482 13.5562 64.0917 13.5994C64.2359 13.6467 64.5244 13.7648 64.7318 13.8667C65.004 14.0003 65.1802 14.1144 65.3564 14.2871C65.504 14.4289 65.6515 14.6252 65.7326 14.7784C65.8081 14.9235 65.8884 15.1638 65.9162 15.3366C65.9605 15.5729 65.9646 15.7252 65.9326 15.9966C65.9132 16.1865 65.8728 16.3736 65.8122 16.5547C65.772 16.6688 65.6679 16.8692 65.5802 16.9988C65.4966 17.1292 65.3244 17.3215 65.1999 17.4307C65.072 17.5374 64.8318 17.7028 64.6597 17.7932C64.4917 17.8869 64.1925 18.0132 63.9917 18.0801C63.7917 18.1428 63.4597 18.2332 63.2515 18.2724C63.0433 18.3155 62.6999 18.3742 62.4917 18.4027C62.2433 18.4337 61.6515 18.4532 60.7712 18.4492C59.7187 18.4492 59.3187 18.4329 58.9105 18.3783C58.6236 18.3392 58.2466 18.2764 58.0712 18.2373C57.8478 18.1827 57.6273 18.1168 57.4105 18.0401C57.2049 17.9655 57.0045 17.8776 56.8105 17.7769C56.6072 17.6527 56.4193 17.505 56.2507 17.3369C56.0733 17.169 55.9222 16.9757 55.8023 16.7633C55.7028 16.5678 55.6211 16.3638 55.5581 16.1538C55.4901 15.9091 55.4408 15.6596 55.4105 15.4075L56.022 15.4034C56.3548 15.3993 56.7023 15.3952 56.9466 15.3871L56.9982 15.7212C57.031 15.9061 57.0949 16.1424 57.1425 16.2524C57.1949 16.3584 57.2867 16.5197 57.3507 16.602C57.4187 16.6884 57.563 16.822 57.6703 16.901C57.7826 16.9792 57.9671 17.0933 58.0826 17.152C58.1949 17.2074 58.4392 17.2978 58.6187 17.3484C58.8031 17.3997 59.1597 17.4747 59.4113 17.5138C59.7556 17.5651 60.1154 17.5847 60.8515 17.5847C61.4433 17.5887 61.9753 17.5684 62.1917 17.5374C62.4408 17.5001 62.6878 17.4504 62.9318 17.3883C63.1573 17.3265 63.3768 17.2447 63.5876 17.1438C63.7433 17.0656 63.94 16.9279 64.0277 16.8424C64.1195 16.7511 64.2326 16.602 64.2802 16.5083C64.3318 16.4097 64.3884 16.2329 64.4081 16.1147C64.4359 15.9729 64.4326 15.8084 64.4081 15.6429C64.3807 15.4873 64.331 15.3364 64.2605 15.1948C64.1876 15.0723 64.097 14.9611 63.9917 14.8648C63.852 14.7587 63.7004 14.669 63.54 14.5975C63.3309 14.505 63.1104 14.4404 62.8843 14.4052C62.6794 14.3735 61.7999 14.2594 60.931 14.1494C60.063 14.0394 59.1712 13.9253 58.9507 13.8944C58.731 13.8585 58.3072 13.7884 58.0105 13.733C57.7154 13.6744 57.3343 13.5798 57.1703 13.5171C57.0039 13.454 56.8434 13.3763 56.6908 13.2849C56.5552 13.1926 56.428 13.0887 56.3105 12.9744C56.1889 12.8548 56.0851 12.7184 56.0023 12.5695C55.9319 12.4268 55.8743 12.2782 55.8302 12.1254C55.7921 11.9445 55.772 11.7602 55.7703 11.5754C55.7703 11.4027 55.7867 11.1704 55.8064 11.0645C55.8261 10.9545 55.8826 10.7695 55.9261 10.6514C55.9704 10.5341 56.0941 10.3214 56.1982 10.1837C56.3023 10.0427 56.5179 9.83414 56.6703 9.72006C56.8601 9.58096 57.0691 9.46982 57.2908 9.39006C57.4794 9.32325 57.8105 9.22873 58.031 9.17414C58.2507 9.1228 58.6466 9.05191 58.9105 9.02095C59.1753 8.98917 59.463 8.95739 59.5515 8.95006C59.6392 8.94191 60.0908 8.93376 60.5515 8.93051ZM92.2171 8.92236V10.1014L91.9253 10.0704C91.7695 10.0541 91.3212 10.0427 90.9367 10.046C90.3408 10.046 90.1851 10.0623 89.8769 10.1372C89.681 10.1878 89.4244 10.2668 89.3171 10.3141C89.1722 10.3811 89.0317 10.4573 88.8966 10.5422C88.7338 10.6514 88.5813 10.7749 88.4408 10.9113C88.3046 11.0481 88.1827 11.1982 88.0769 11.3595C88.0048 11.4768 87.8884 11.7131 87.8203 11.8777C87.7523 12.0472 87.6564 12.3576 87.6089 12.5654C87.5285 12.9353 87.5244 13.0527 87.4966 18.1974H86.0966L86.0925 14.5894C86.0925 12.6094 86.0884 10.5887 86.0761 9.21732H87.4761L87.4843 10.015C87.4925 10.5104 87.5121 10.8087 87.5367 10.8087C87.5605 10.8087 87.6523 10.6555 87.7441 10.4664C87.8728 10.2114 87.9966 10.0427 88.2203 9.80643C88.413 9.61088 88.613 9.44547 88.7605 9.36643C88.8884 9.29962 89.113 9.2051 89.2564 9.16273C89.6109 9.06626 89.972 8.99545 90.3367 8.95088C90.413 8.94273 90.8687 8.93051 92.2171 8.92236ZM98.0589 8.94191C98.6589 8.95006 99.1425 8.97776 99.399 9.01688C99.6187 9.05191 99.9949 9.13502 100.239 9.20184C100.483 9.26458 100.851 9.40228 101.059 9.49599C101.267 9.59376 101.567 9.75591 101.72 9.85776C101.871 9.96043 102.124 10.1568 102.275 10.2978C102.428 10.4395 102.651 10.6872 102.775 10.8486C102.896 11.0091 103.079 11.3122 103.183 11.5167C103.288 11.7204 103.407 12.0154 103.451 12.1645C103.496 12.3144 103.564 12.5817 103.6 12.7544C103.636 12.9272 103.675 13.2694 103.72 13.953H93.5376V14.0981C93.5376 14.1812 93.5654 14.4052 93.6015 14.6016C93.6335 14.798 93.722 15.1044 93.79 15.2893C93.8613 15.4743 93.99 15.7293 94.0777 15.8597C94.3549 16.2472 94.7007 16.5812 95.0982 16.8456C95.2622 16.9515 95.5417 17.1015 95.7179 17.1715C95.8941 17.2424 96.2023 17.3451 96.3982 17.3915C96.5941 17.4429 96.9343 17.5024 97.1466 17.526C97.3622 17.5488 97.7507 17.5692 98.0064 17.5692C98.2663 17.5692 98.6425 17.5488 98.8384 17.526C99.0873 17.4921 99.3343 17.4459 99.5785 17.3875C99.7867 17.337 100.095 17.231 100.259 17.152C100.423 17.0738 100.667 16.9361 100.799 16.8424C100.931 16.7511 101.119 16.5898 101.219 16.4838C101.32 16.3779 101.463 16.2011 101.539 16.0952C101.615 15.9852 101.735 15.7652 101.811 15.6038C101.888 15.4425 101.963 15.3007 101.979 15.2893C101.999 15.2771 102.335 15.2698 102.731 15.2698C103.128 15.2698 103.464 15.2779 103.471 15.2893C103.483 15.3007 103.432 15.4661 103.356 15.6625C103.229 16.0019 103.051 16.32 102.828 16.6061C102.706 16.7457 102.579 16.8808 102.447 17.011C102.26 17.1949 102.056 17.3618 101.839 17.5097C101.64 17.6388 101.432 17.7558 101.219 17.8601C101.055 17.9342 100.747 18.0524 100.539 18.1192C100.256 18.2051 99.9688 18.2772 99.6786 18.3351C99.4146 18.3905 98.9548 18.4451 98.6589 18.4655C98.363 18.4842 97.9228 18.4924 97.6785 18.4842C97.4343 18.4761 97.0744 18.4532 96.8785 18.4296C96.3898 18.3791 95.9074 18.2803 95.4384 18.1347C95.1997 18.055 94.9657 17.962 94.7376 17.856C94.511 17.7489 94.2907 17.6292 94.0777 17.4975C93.8539 17.3367 93.6401 17.1626 93.4376 16.976C93.2323 16.781 93.0424 16.5708 92.8695 16.3469C92.7416 16.1585 92.6253 15.9626 92.5212 15.7603C92.342 15.3652 92.2131 14.9494 92.1376 14.5226C92.1171 14.393 92.0892 14.1184 92.0736 13.9139C92.0605 13.6452 92.067 13.3758 92.0933 13.1081C92.1215 12.864 92.1615 12.6215 92.213 12.3812C92.2531 12.2199 92.3417 11.9527 92.4056 11.7913C92.4736 11.63 92.6056 11.3709 92.7015 11.2136C92.7974 11.0564 92.9859 10.8046 93.1179 10.6481C93.2499 10.4949 93.4933 10.2627 93.6581 10.1372C93.822 10.011 94.0654 9.84228 94.1974 9.76325C94.3302 9.68502 94.5376 9.57502 94.6581 9.52369C95.1134 9.32513 95.5895 9.17756 96.0777 9.08369C96.322 9.03643 96.654 8.98591 96.8179 8.96554C96.9826 8.94599 97.5425 8.93458 98.0589 8.94191ZM96.8785 9.86999C96.7105 9.8969 96.5437 9.93088 96.3785 9.97184C96.0757 10.0522 95.781 10.1602 95.4982 10.2945C95.3777 10.3532 95.1703 10.4746 95.0376 10.561C94.7255 10.7819 94.4515 11.0515 94.2261 11.3595C94.1622 11.4572 94.0335 11.6854 93.9417 11.8704C93.8408 12.0868 93.7553 12.3101 93.6859 12.5385C93.6335 12.7227 93.5777 12.9312 93.5613 12.9981L93.5376 13.1284H102.22C102.198 12.91 102.164 12.6932 102.115 12.479C102.069 12.3105 102.009 12.1461 101.935 11.9877C101.849 11.8174 101.752 11.6532 101.643 11.4964C101.487 11.3002 101.316 11.1163 101.131 10.9464C100.942 10.7689 100.737 10.6086 100.519 10.4672C100.324 10.3546 100.124 10.2521 99.9187 10.1601C99.6716 10.0631 99.4176 9.98435 99.1589 9.92458C98.8023 9.84228 98.5908 9.81865 98.0589 9.80643C97.6941 9.79828 97.3466 9.79828 97.2785 9.81051C97.2105 9.81865 97.0302 9.84636 96.8785 9.86999Z" fill="#010400"/>
<path fill-rule="evenodd" clip-rule="evenodd" d="M18.6553 1.12775C18.9996 1.1359 19.475 1.16686 19.716 1.19864C19.9521 1.23368 20.3078 1.29642 20.5037 1.34449C20.7037 1.38768 21.0078 1.47812 21.184 1.54005C21.3603 1.6036 21.6398 1.71768 21.8045 1.79264C21.9685 1.87086 22.2119 1.99227 22.3447 2.07131C22.7334 2.30386 23.0945 2.57939 23.4209 2.89264C23.5848 3.05397 23.7365 3.24627 23.7889 3.36034C23.8488 3.48583 23.9004 3.70257 23.9283 3.96983C23.9693 4.31531 23.9644 4.47664 23.9086 4.95168C23.8726 5.2662 23.7889 5.7502 23.7201 6.03294C23.6529 6.31568 23.5242 6.76383 23.4365 7.03516C23.3488 7.30649 23.1963 7.71879 23.1045 7.95834C22.8566 8.55965 22.5817 9.14963 22.2807 9.72649C22.1881 9.90005 22.0045 10.226 21.8725 10.4541C21.7398 10.6823 21.516 11.044 21.3726 11.26C21.2324 11.4759 21.0078 11.7978 20.8807 11.9754C20.748 12.1563 20.6283 12.3013 20.6037 12.3013C20.584 12.3013 20.5562 12.2736 20.5439 12.2426C20.5316 12.2109 20.5766 12.1009 20.6357 11.9949C20.7004 11.8923 20.7996 11.6845 20.8603 11.5346C20.9341 11.3437 20.9903 11.1465 21.0283 10.9455C21.0603 10.7727 21.084 10.4973 21.084 10.336C21.084 10.1755 21.0398 9.70368 20.984 9.29464C20.9344 8.94927 20.901 8.60178 20.884 8.25331C20.884 8.09197 20.9398 7.63242 21.0037 7.23153C21.0717 6.81842 21.1242 6.35153 21.1242 6.15027C21.1242 5.90664 21.1037 5.72983 21.0521 5.58071C20.8785 5.1368 20.6529 4.7148 20.3799 4.32346C20.2439 4.11894 20.0078 3.80849 19.8603 3.63575C19.68 3.42577 19.489 3.22506 19.2881 3.03442C19.1054 2.86181 18.9171 2.69523 18.7234 2.53494C18.5799 2.42086 18.3111 2.22857 18.1234 2.10308C17.8057 1.90984 17.4785 1.73253 17.143 1.57183C16.5389 1.28094 16.5119 1.2622 16.643 1.24183C16.7193 1.23042 16.9545 1.20271 17.1635 1.17908C17.3709 1.15545 17.6512 1.13183 17.7832 1.12775C17.9152 1.1196 18.3078 1.12368 18.6553 1.12775ZM13.4627 1.3559C13.8586 1.36405 14.3111 1.39094 14.4627 1.41457C14.6185 1.43901 14.9873 1.51723 15.2824 1.59138C15.5791 1.66227 15.9668 1.77634 16.143 1.83908C16.3193 1.90183 16.6512 2.04768 16.8832 2.16175C17.1152 2.27583 17.4553 2.46812 17.643 2.58546C17.8316 2.70768 18.1348 2.93583 18.3234 3.08901C18.5457 3.27432 18.7581 3.47124 18.9594 3.67894C19.1234 3.8476 19.3553 4.12301 19.484 4.28353C19.6078 4.44486 19.7955 4.72027 19.9037 4.89301C20.0119 5.06575 20.1398 5.30205 20.284 5.61983L19.5357 5.63612C18.9955 5.64427 18.716 5.66708 18.5439 5.71434C18.4119 5.7502 18.1955 5.82842 18.0635 5.89116C17.8905 5.97803 17.7347 6.09536 17.6037 6.23746C17.4681 6.3694 17.3605 6.52705 17.2873 6.70108C17.2329 6.85386 17.1952 7.01204 17.175 7.17286C17.1635 7.30242 17.175 7.55012 17.2029 7.72286C17.2316 7.8956 17.307 8.19464 17.3717 8.39101C17.4357 8.58331 17.6193 8.99968 17.7791 9.3142C17.9398 9.62871 18.2275 10.1323 18.4234 10.4346C18.616 10.7369 18.8717 11.1345 18.9873 11.3186C19.1037 11.5036 19.2717 11.7668 19.3594 11.9086C19.448 12.0495 19.6594 12.3127 20.1357 12.8318L19.9996 12.8749C19.898 12.9092 19.7993 12.9514 19.7045 13.0012C19.5911 13.0635 19.487 13.1414 19.3955 13.2326C19.316 13.3158 19.2119 13.4608 19.1676 13.5586C19.1119 13.6808 19.0717 13.8845 19.048 14.2267C19.0234 14.498 18.9799 14.9226 18.9439 15.1703L18.7996 16.1725C18.7316 16.6383 18.6583 17.1033 18.5799 17.5675C18.5037 18.0319 18.4037 18.5615 18.3594 18.7465C18.3067 18.9586 18.2343 19.1653 18.143 19.3641C18.0534 19.5457 17.9346 19.7117 17.7914 19.8555C17.675 19.9695 17.475 20.1186 17.343 20.1855C17.1627 20.2758 16.9755 20.3521 16.7832 20.4136C16.607 20.4682 16.3193 20.5432 16.1439 20.5741C15.9316 20.6115 15.7177 20.6393 15.5029 20.6572C15.3161 20.6682 15.1288 20.6628 14.943 20.6409C14.7797 20.6107 14.6191 20.5673 14.4627 20.5114C14.2791 20.4446 14.1594 20.3623 13.9381 20.1463C13.7389 19.9451 13.6144 19.7846 13.5103 19.5719C13.4086 19.3674 13.3386 19.1487 13.3029 18.9233C13.2617 18.6624 13.227 18.4005 13.1988 18.1378C13.1742 17.8975 13.1463 16.8366 13.1226 13.8535L13.0062 13.6172C12.9326 13.4727 12.8354 13.3414 12.7185 13.2286C12.5967 13.13 12.4638 13.0458 12.3226 12.9776C12.1824 12.9149 11.998 12.8676 11.5299 12.8318L11.6103 12.6158C11.6545 12.4977 11.8701 12.0373 12.0906 11.594C12.3062 11.15 12.5307 10.6464 12.5865 10.4737C12.6546 10.2481 12.708 10.0184 12.7463 9.78597C12.7791 9.53842 12.798 9.28924 12.8029 9.0396C12.8029 8.83508 12.7742 8.46108 12.7422 8.2142C12.7103 7.96649 12.6348 7.5656 12.5824 7.33012C12.5322 7.11162 12.4654 6.89725 12.3824 6.68886C12.2956 6.53684 12.1922 6.39475 12.0742 6.26516C11.9447 6.12897 11.7918 6.01693 11.6226 5.93434C11.4864 5.87401 11.3459 5.82416 11.2021 5.78523C11.0566 5.7543 10.9097 5.73064 10.7619 5.71434C10.5349 5.70392 10.3073 5.71182 10.0816 5.73797C9.8496 5.76568 9.47747 5.83575 9.2537 5.89931C9.01271 5.96517 8.77501 6.04239 8.5414 6.13071C8.37747 6.19753 8.23321 6.24886 8.22173 6.24886C8.20944 6.24886 8.21354 6.1739 8.22583 6.0802C8.23731 5.98975 8.28567 5.73797 8.32993 5.52205C8.36927 5.30531 8.46108 4.95168 8.52993 4.73575C8.59796 4.51983 8.72583 4.18168 8.81763 3.98938C8.90944 3.7922 9.08976 3.48583 9.21354 3.30168C9.33813 3.11671 9.5578 2.84131 9.71026 2.68812C9.8578 2.53901 10.098 2.32634 10.2422 2.22449C10.3857 2.11857 10.6381 1.96864 10.8021 1.88634C10.966 1.80405 11.2381 1.69405 11.4021 1.63864C11.566 1.58405 11.8021 1.51316 11.9226 1.47812C12.0422 1.44227 12.2783 1.39908 12.4422 1.37953C12.6062 1.3559 13.0668 1.34775 13.4627 1.3559ZM5.90124 1.37953C6.12091 1.37953 6.50124 1.39583 6.7414 1.41457C6.98567 1.43412 7.40534 1.48953 7.68157 1.53271C7.9578 1.57997 8.31763 1.64271 8.48157 1.67449C8.6455 1.70546 8.93403 1.7682 9.12173 1.81545C9.31026 1.85864 9.47009 1.90183 9.48239 1.90997C9.49386 1.91405 9.3496 2.07538 9.1619 2.26768C8.97337 2.45671 8.71763 2.76308 8.59386 2.94723C8.44623 3.16899 8.31131 3.39886 8.18976 3.63575C8.08275 3.84674 7.98645 4.06294 7.90124 4.28353C7.8455 4.44486 7.7455 4.77079 7.68157 5.01116C7.61763 5.24746 7.53731 5.64753 7.50534 5.89523C7.45875 6.23374 7.44011 6.57548 7.4496 6.91701C7.4578 7.23153 7.46108 7.8679 7.46108 8.33153C7.4578 8.9296 7.43731 9.3256 7.38567 9.6882C7.3414 10.0141 7.32173 10.2928 7.33731 10.4541C7.3761 10.8184 7.47757 11.1734 7.63731 11.5036C7.70124 11.6291 7.83403 11.8377 7.92911 11.968C8.02583 12.0968 8.22173 12.3054 8.62173 12.6631L8.30206 12.9654C8.12583 13.1308 7.62173 13.6099 7.18157 14.0303C6.61353 14.5763 6.32091 14.8289 6.18157 14.8949C6.05077 14.9582 5.90652 14.9892 5.76108 14.9853C5.60736 14.9862 5.45593 14.9483 5.32091 14.8753C5.17214 14.7933 5.03256 14.6958 4.90452 14.5844C4.75623 14.4402 4.61612 14.2878 4.48485 14.1281C4.33519 13.9386 4.19486 13.742 4.06435 13.539C3.95698 13.3663 3.74468 12.9849 3.59714 12.694C3.26183 12.0252 2.96891 11.3361 2.72009 10.6309C2.60059 10.2919 2.48582 9.95132 2.37583 9.60916C2.2479 9.21243 2.12929 8.81279 2.02009 8.41057C1.92419 8.05286 1.78813 7.51427 1.72009 7.21197C1.65648 6.9115 1.598 6.60998 1.54468 6.30753C1.51178 6.05992 1.49153 5.81081 1.48403 5.56116C1.47993 5.34523 1.49632 4.99894 1.52009 4.79523C1.54468 4.59071 1.60042 4.27212 1.64468 4.08716C1.77746 3.59743 2.00278 3.13729 2.30862 2.73131C2.41681 2.60175 2.6119 2.40945 2.74058 2.3076C2.87255 2.20086 3.09632 2.05175 3.24058 1.97353C3.38485 1.89449 3.64468 1.78042 3.82091 1.72094C3.99714 1.66227 4.31272 1.5759 4.52091 1.52864C4.72911 1.48546 5.03731 1.43412 5.20124 1.41457C5.36517 1.39908 5.68075 1.3836 5.90124 1.37953ZM19.6439 6.23338C19.7439 6.23338 19.9439 6.24153 20.3635 6.24968V6.41427C20.3635 6.50797 20.316 6.84612 20.2562 7.17205C20.1889 7.52863 20.1541 7.89051 20.1521 8.25331C20.148 8.56375 20.184 8.99234 20.2398 9.41279C20.3119 9.91227 20.3275 10.1909 20.3119 10.5128C20.3071 10.7455 20.2736 10.9768 20.2119 11.2013C20.1635 11.3423 20.0996 11.4914 20.0644 11.5354C20.0283 11.5786 19.9922 11.594 19.984 11.5745C19.8991 11.4295 19.8125 11.2856 19.7242 11.1426C19.5271 10.8261 19.3268 10.5116 19.1234 10.1991C18.8857 9.82924 18.6655 9.44858 18.4635 9.05834C18.3037 8.73242 18.1193 8.32012 18.0594 8.13516C17.9927 7.91102 17.9498 7.68052 17.9316 7.44746C17.9111 7.12153 17.9193 7.07427 18.0152 6.86568C18.0914 6.71249 18.1758 6.60657 18.2955 6.5202C18.4164 6.44355 18.5467 6.38275 18.6832 6.33931C18.8471 6.29641 19.0144 6.26752 19.1832 6.25294C19.3389 6.23664 19.5439 6.22931 19.6439 6.23338ZM10.4619 6.33116C10.5939 6.3279 10.8103 6.34746 10.9422 6.37434C11.0783 6.40205 11.2619 6.47701 11.3619 6.54383C11.4783 6.61797 11.5824 6.73205 11.6463 6.85834C11.7062 6.96427 11.7906 7.21197 11.8381 7.40834C11.8824 7.60064 11.9463 7.93879 11.9824 8.15471C12.0144 8.37146 12.0422 8.77642 12.0422 9.05916C12.0422 9.40138 12.0176 9.68738 11.966 9.92286C11.915 10.1499 11.8482 10.3732 11.766 10.591C11.6939 10.7646 11.5578 11.0473 11.4627 11.2209C11.366 11.3936 11.198 11.7391 11.0898 11.9868C10.9798 12.2303 10.8838 12.4797 10.8021 12.734L10.5742 12.7095C10.4154 12.6927 10.2578 12.6666 10.1021 12.6313C9.91689 12.5802 9.73601 12.5148 9.56108 12.4358C9.37884 12.3476 9.20492 12.2435 9.0414 12.1245C8.89892 12.0086 8.76649 11.8811 8.6455 11.7432C8.5496 11.6291 8.41354 11.4172 8.33731 11.2673C8.25428 11.1043 8.18863 10.933 8.1414 10.7564C8.10602 10.599 8.08598 10.4386 8.08157 10.2773C8.08157 10.1469 8.10944 9.84546 8.1414 9.60916C8.17747 9.3696 8.20944 8.85138 8.21353 8.44968C8.21763 8.04879 8.21354 7.56153 8.18894 7.0156L8.46599 6.86975C8.61763 6.78745 8.92993 6.66197 9.1619 6.58701C9.39386 6.51205 9.72583 6.4216 9.90206 6.39064C10.0783 6.35886 10.3299 6.33116 10.4619 6.33116ZM20.5357 13.4021C20.5963 13.4021 20.6521 13.4135 20.6603 13.429C20.6685 13.4486 20.7799 13.4999 20.9078 13.5472C21.0398 13.5944 21.2717 13.6531 21.4242 13.6808C21.616 13.7126 21.9283 13.7199 22.4045 13.7003C22.7881 13.6889 23.257 13.6531 23.4447 13.6221C23.6332 13.5903 23.7889 13.5749 23.7971 13.5822C23.8004 13.5903 23.7562 13.6335 23.6963 13.6726C23.5235 13.7727 23.3459 13.8646 23.1644 13.948C22.9324 14.054 22.6086 14.1803 22.4447 14.2194C22.2807 14.2626 21.9004 14.3294 21.6045 14.3644C21.2665 14.4106 20.9249 14.4264 20.584 14.4117C20.3139 14.4038 20.0455 14.3655 19.784 14.2976L19.8119 14.0344C19.8283 13.8731 19.8676 13.7362 19.916 13.6767C19.9562 13.6221 20.0881 13.539 20.2078 13.4918C20.3275 13.4453 20.4717 13.4021 20.5357 13.4021ZM11.7586 13.4836C11.8144 13.4885 11.9021 13.4999 11.9545 13.5121C12.0021 13.5276 12.1103 13.6018 12.1865 13.6767C12.266 13.7558 12.3422 13.8812 12.3668 13.9717C12.3988 14.0898 12.3947 14.1566 12.3545 14.243C12.2925 14.3475 12.2142 14.4416 12.1226 14.5217C12.0226 14.6121 11.8266 14.7612 11.6824 14.8517C11.5363 14.9441 11.3822 15.0232 11.2217 15.088C11.1144 15.1312 10.8701 15.1939 10.6824 15.2298C10.4176 15.2843 10.2258 15.2925 9.82173 15.2762C9.5387 15.2705 9.25706 15.235 8.98157 15.1703C8.80534 15.1271 8.6455 15.0725 8.62091 15.0521C8.60124 15.0326 8.58977 15.0057 8.60124 14.9975C8.61354 14.9853 8.90206 14.9266 9.2414 14.8558C9.58157 14.7889 9.97829 14.6985 10.1217 14.652C10.266 14.6048 10.4824 14.498 10.6021 14.4198C10.7217 14.3408 10.9381 14.1444 11.0824 13.988C11.2258 13.8299 11.4144 13.6539 11.498 13.5903C11.5865 13.5317 11.7029 13.4795 11.7586 13.4836Z" fill="#336790"/>
<path d="M18.5115 6.71264C18.5811 6.65792 18.6595 6.61547 18.7435 6.58715C18.8312 6.55212 19.0353 6.52849 19.196 6.52441C19.3517 6.52441 19.5279 6.54804 19.5837 6.57575C19.6435 6.60264 19.6878 6.65723 19.6878 6.70123C19.6878 6.74441 19.6517 6.82345 19.6115 6.87804C19.5411 6.95599 19.4555 7.01892 19.3599 7.06301C19.264 7.11353 19.1156 7.15264 19.032 7.15264C18.9517 7.15264 18.8353 7.13308 18.7714 7.11027C18.6901 7.07477 18.6158 7.02541 18.5517 6.96441C18.505 6.92395 18.4668 6.87465 18.4394 6.81938C18.4394 6.79901 18.4722 6.74849 18.5115 6.71345V6.71264ZM10.1656 6.77945C10.2401 6.72613 10.327 6.69249 10.4181 6.68167C10.5058 6.66945 10.6902 6.67353 10.8222 6.68982C10.9533 6.70123 11.1181 6.73627 11.1829 6.7599C11.2517 6.78683 11.3161 6.82392 11.3738 6.8699C11.4149 6.9082 11.4405 6.96004 11.446 7.01575C11.4271 7.08757 11.3885 7.15275 11.3345 7.20397C11.2379 7.28398 11.124 7.34061 11.0017 7.36938C10.8263 7.41664 10.746 7.41664 10.6017 7.38078C10.4708 7.34024 10.3516 7.26897 10.2542 7.17301C10.1615 7.08664 10.082 6.9799 10.082 6.93671C10.082 6.89352 10.1181 6.82264 10.1656 6.77945Z" fill="white"/>
</g>
<defs>
<clipPath id="clip0_337_2922">
<rect width="150" height="22" fill="white"/>
</clipPath>
</defs>
</svg>
