<svg width="180" height="60" viewBox="0 0 180 60" fill="none" xmlns="http://www.w3.org/2000/svg">
<path d="M32.0162 13.4158H53.9842C57.3122 13.4158 60.0082 16.1118 60.0082 19.4398V40.5598C60.0082 43.8878 57.3122 46.5838 53.9842 46.5838H32.0162C28.6882 46.5838 25.9922 43.8878 25.9922 40.5598V19.4398C25.9922 16.1118 28.6882 13.4158 32.0162 13.4158Z" fill="#001E36"/>
<path d="M33.6475 36.6721V22.0881C33.6475 21.9921 33.6875 21.9361 33.7915 21.9361C34.0315 21.9361 34.2555 21.9361 34.5835 21.9201C34.9275 21.9041 35.2795 21.9041 35.6635 21.8881C36.0475 21.8721 36.4555 21.8721 36.8955 21.8561C37.3355 21.8401 37.7595 21.8401 38.1835 21.8401C39.3435 21.8401 40.3115 21.9841 41.1035 22.2801C41.8155 22.5201 42.4635 22.9201 42.9995 23.4401C43.4555 23.8961 43.8075 24.4481 44.0315 25.0561C44.2475 25.6481 44.3595 26.2641 44.3595 26.8961C44.3595 28.1121 44.0795 29.1201 43.5115 29.9121C42.9435 30.7041 42.1515 31.3041 41.2315 31.6401C40.2715 31.9921 39.2075 32.1201 38.0395 32.1201C37.6955 32.1201 37.4715 32.1201 37.3275 32.1041C37.1835 32.0881 36.9835 32.0881 36.7195 32.0881V36.6401C36.7355 36.7361 36.6635 36.8241 36.5675 36.8401C36.5515 36.8401 36.5355 36.8401 36.5115 36.8401H33.8155C33.7035 36.8561 33.6475 36.8001 33.6475 36.6721ZM36.7355 24.6721V29.4321C36.9355 29.4481 37.1195 29.4641 37.2875 29.4641H38.0395C38.5915 29.4641 39.1435 29.3761 39.6715 29.2081C40.1275 29.0801 40.5195 28.8081 40.8315 28.4561C41.1275 28.1041 41.2715 27.6161 41.2715 27.0001C41.2875 26.5601 41.1755 26.1201 40.9435 25.7361C40.7035 25.3681 40.3595 25.0881 39.9515 24.9281C39.4235 24.7121 38.8635 24.6321 38.2795 24.6481C37.9115 24.6481 37.5835 24.6481 37.3195 24.6641C37.0315 24.6401 36.8315 24.6561 36.7355 24.6721Z" fill="#31A8FF"/>
<path d="M53.2078 28.5684C52.7838 28.3444 52.3278 28.1844 51.8478 28.0884C51.3198 27.9764 50.7998 27.9044 50.2638 27.9044C49.9838 27.8884 49.6798 27.9364 49.4158 28.0004C49.2318 28.0404 49.0718 28.1444 48.9758 28.2804C48.9038 28.3924 48.8638 28.5364 48.8638 28.6644C48.8638 28.7924 48.9198 28.9204 49.0078 29.0324C49.1358 29.1844 49.3038 29.3124 49.4878 29.4164C49.8158 29.5844 50.1518 29.7444 50.4958 29.8804C51.2638 30.1364 51.9998 30.4884 52.6798 30.9124C53.1438 31.2084 53.5278 31.6084 53.7998 32.0884C54.0238 32.5444 54.1438 33.0404 54.1278 33.5444C54.1438 34.2084 53.9438 34.8804 53.5758 35.4324C53.1758 36.0004 52.6238 36.4404 51.9918 36.6964C51.2958 36.9924 50.4478 37.1524 49.4238 37.1524C48.7758 37.1524 48.1358 37.0964 47.4958 36.9684C46.9998 36.8804 46.5038 36.7284 46.0478 36.5124C45.9518 36.4564 45.8798 36.3604 45.8958 36.2404V33.7764C45.8958 33.7364 45.9118 33.6804 45.9518 33.6484C45.9918 33.6164 46.0398 33.6324 46.0798 33.6644C46.6318 33.9924 47.2158 34.2164 47.8398 34.3604C48.3758 34.5044 48.9438 34.5764 49.5118 34.5764C50.0478 34.5764 50.4318 34.5044 50.6878 34.3764C50.9118 34.2804 51.0718 34.0324 51.0718 33.7844C51.0718 33.5844 50.9598 33.4004 50.7278 33.2164C50.5038 33.0324 50.0318 32.8164 49.3358 32.5524C48.6158 32.2964 47.9438 31.9604 47.3198 31.5284C46.8798 31.2164 46.5118 30.8084 46.2398 30.3204C46.0158 29.8644 45.8958 29.3684 45.9118 28.8724C45.9118 28.2644 46.0798 27.6804 46.3918 27.1604C46.7438 26.5924 47.2718 26.1364 47.8798 25.8564C48.5438 25.5124 49.3838 25.3604 50.3918 25.3604C50.9758 25.3604 51.5678 25.4004 52.1518 25.4884C52.5758 25.5444 52.9918 25.6564 53.3678 25.8164C53.4238 25.8324 53.4798 25.8884 53.5118 25.9444C53.5278 26.0004 53.5438 26.0564 53.5438 26.1124V28.4244C53.5438 28.4804 53.5118 28.5364 53.4718 28.5684C53.3358 28.6004 53.2638 28.6004 53.2078 28.5684Z" fill="#31A8FF"/>
<path d="M80.1426 24.4312H84.4419C86.6099 24.4312 88.104 25.874 88.104 28.0493C88.104 30.2173 86.5586 31.6675 84.332 31.6675H82.3545V35H80.1426V24.4312ZM82.3545 26.1816V29.939H83.8486C85.1157 29.939 85.8555 29.2651 85.8555 28.0566C85.8555 26.8555 85.123 26.1816 83.856 26.1816H82.3545ZM89.2832 35V24.4312H91.3853V28.5474H91.4292C91.8467 27.5586 92.7036 27.002 93.8975 27.002C95.6406 27.002 96.6367 28.1299 96.6367 29.9463V35H94.498V30.4004C94.498 29.3896 94 28.7744 93.0259 28.7744C92.0151 28.7744 91.4219 29.4849 91.4219 30.5176V35H89.2832ZM101.61 35.1685C99.2368 35.1685 97.7207 33.645 97.7207 31.0669C97.7207 28.5254 99.2588 26.98 101.61 26.98C103.961 26.98 105.499 28.5181 105.499 31.0669C105.499 33.6523 103.983 35.1685 101.61 35.1685ZM101.61 33.5352C102.657 33.5352 103.324 32.6489 103.324 31.0742C103.324 29.5142 102.65 28.6133 101.61 28.6133C100.57 28.6133 99.8887 29.5142 99.8887 31.0742C99.8887 32.6489 100.555 33.5352 101.61 33.5352ZM107.176 25.3394H109.315V27.1484H110.765V28.7598H109.315V32.5171C109.315 33.1177 109.608 33.4033 110.238 33.4033C110.428 33.4033 110.626 33.3887 110.758 33.3667V34.9414C110.538 34.9927 110.172 35.0293 109.74 35.0293C107.894 35.0293 107.176 34.4141 107.176 32.8833V28.7598H106.07V27.1484H107.176V25.3394ZM115.423 35.1685C113.05 35.1685 111.534 33.645 111.534 31.0669C111.534 28.5254 113.072 26.98 115.423 26.98C117.774 26.98 119.312 28.5181 119.312 31.0669C119.312 33.6523 117.796 35.1685 115.423 35.1685ZM115.423 33.5352C116.471 33.5352 117.137 32.6489 117.137 31.0742C117.137 29.5142 116.463 28.6133 115.423 28.6133C114.383 28.6133 113.702 29.5142 113.702 31.0742C113.702 32.6489 114.369 33.5352 115.423 33.5352ZM120.287 29.4556C120.287 27.9614 121.583 26.98 123.597 26.98C125.567 26.98 126.849 27.9761 126.878 29.4995H124.908C124.864 28.8696 124.359 28.4814 123.568 28.4814C122.828 28.4814 122.345 28.8184 122.345 29.3237C122.345 29.7119 122.682 29.9756 123.37 30.1367L124.872 30.459C126.446 30.8105 127.083 31.4331 127.083 32.605C127.083 34.1504 125.663 35.1685 123.59 35.1685C121.495 35.1685 120.206 34.1577 120.089 32.627H122.176C122.279 33.2861 122.799 33.667 123.648 33.667C124.461 33.667 124.952 33.3447 124.952 32.832C124.952 32.4365 124.688 32.2168 123.985 32.0483L122.535 31.7261C121.048 31.3892 120.287 30.6128 120.287 29.4556ZM128.204 35V24.4312H130.306V28.5474H130.35C130.768 27.5586 131.625 27.002 132.818 27.002C134.562 27.002 135.558 28.1299 135.558 29.9463V35H133.419V30.4004C133.419 29.3896 132.921 28.7744 131.947 28.7744C130.936 28.7744 130.343 29.4849 130.343 30.5176V35H128.204ZM140.531 35.1685C138.158 35.1685 136.642 33.645 136.642 31.0669C136.642 28.5254 138.18 26.98 140.531 26.98C142.882 26.98 144.42 28.5181 144.42 31.0669C144.42 33.6523 142.904 35.1685 140.531 35.1685ZM140.531 33.5352C141.578 33.5352 142.245 32.6489 142.245 31.0742C142.245 29.5142 141.571 28.6133 140.531 28.6133C139.491 28.6133 138.81 29.5142 138.81 31.0742C138.81 32.6489 139.476 33.5352 140.531 33.5352ZM150.111 27.0239C152.103 27.0239 153.326 28.54 153.326 31.0742C153.326 33.6011 152.11 35.1245 150.147 35.1245C149.005 35.1245 148.126 34.5679 147.708 33.6816H147.665V37.5635H145.526V27.1484H147.635V28.5181H147.679C148.104 27.5952 148.976 27.0239 150.111 27.0239ZM149.393 33.4033C150.462 33.4033 151.136 32.5024 151.136 31.0742C151.136 29.6533 150.462 28.7378 149.393 28.7378C148.346 28.7378 147.657 29.668 147.657 31.0742C147.657 32.4951 148.346 33.4033 149.393 33.4033Z" fill="black"/>
</svg>
