<svg width="68" height="37" viewBox="0 0 68 37" fill="none" xmlns="http://www.w3.org/2000/svg">
<g clip-path="url(#clip0_337_3040)">
<path d="M36.2185 0.420778C36.153 0.237319 36.1035 0.0733889 36.112 0.059C36.123 0.045125 36.1855 0.03125 36.257 0.03125C36.3275 0.03125 36.675 0.045125 37.027 0.0620833C37.38 0.0790417 37.683 0.104222 37.697 0.118611C37.715 0.135569 37.715 0.144306 37.697 0.144306C37.683 0.144306 37.7215 0.313889 37.787 0.519444C37.8525 0.722944 37.937 1.00507 37.9755 1.14639C38.014 1.28771 38.0605 1.41464 38.082 1.42903C38.112 1.45164 38.115 1.46294 38.0875 1.48556C38.0685 1.49943 37.9975 1.51074 37.929 1.50508C37.7971 1.49528 37.6651 1.48671 37.533 1.47939C37.383 1.47117 37.115 1.46294 36.94 1.46294C36.724 1.45729 36.609 1.44599 36.585 1.42029C36.5655 1.40076 36.5625 1.38637 36.5765 1.38637C36.59 1.38637 36.5845 1.3725 36.56 1.35246C36.535 1.33293 36.475 1.18904 36.426 1.03385C36.377 0.878139 36.284 0.601667 36.2185 0.420778ZM2.92955 10.954C3.11618 10.727 3.30926 10.5058 3.50855 10.2905C3.65605 10.1297 3.79555 9.99967 3.81455 9.99967C3.83655 9.99967 3.85255 10.0223 3.85255 10.0475C3.85255 10.0757 3.90205 10.3075 3.96255 10.5644C4.02505 10.8214 4.09855 11.1148 4.12605 11.2196C4.17255 11.3861 4.18605 11.4057 4.22155 11.3748C4.24655 11.3579 4.26555 11.3491 4.26255 11.3604C4.26255 11.3748 4.19455 11.4622 4.11255 11.5583C4.05809 11.6205 4.00797 11.6867 3.96255 11.7561C3.96255 11.77 3.91005 11.8322 3.84455 11.9C3.78155 11.9679 3.60455 12.1965 3.44855 12.4088C3.29555 12.62 3.17505 12.8065 3.18355 12.8235C3.19155 12.8404 3.17805 12.8574 3.15605 12.8656C3.12305 12.8769 3.07655 12.7582 2.94005 12.3209C2.85983 12.0693 2.78514 11.8159 2.71605 11.5609C2.68605 11.4509 2.65605 11.3635 2.64205 11.3717C2.63105 11.3774 2.62305 11.3717 2.62305 11.3548C2.62305 11.3378 2.76305 11.1575 2.92955 10.954Z" fill="#999DC5"/>
<path d="M45.2501 1.23122C45.2341 1.15516 45.2261 1.07602 45.2341 1.0565C45.2396 1.03902 45.2696 1.02772 45.2971 1.03594C45.3271 1.04211 45.6386 1.10429 45.9911 1.17777C46.3436 1.24818 46.6606 1.31036 46.6961 1.31858C46.7291 1.32423 46.7536 1.33862 46.7511 1.3525C46.7481 1.3638 46.7916 1.67727 46.8521 2.05036C46.9091 2.42293 46.9696 2.7364 46.9856 2.7477C47.0021 2.76158 46.9611 2.76158 46.8926 2.75284C46.8246 2.74462 46.5426 2.68861 46.2641 2.62643C45.9856 2.56425 45.7231 2.49898 45.6766 2.47945C45.6266 2.46176 45.574 2.45306 45.5211 2.45376C45.4526 2.45941 45.4446 2.45119 45.4446 2.37513C45.4446 2.32683 45.4061 2.08427 45.3626 1.83247C45.3266 1.6318 45.2887 1.43138 45.2501 1.23122ZM1.68611 24.2802C1.66711 24.2946 1.66161 24.2915 1.67261 24.2745C1.67361 24.273 1.67861 24.2745 1.68611 24.2802C1.70811 24.2689 1.73011 24.2802 1.74111 24.3084L1.74761 24.331C1.87561 24.4451 2.15111 24.7175 2.46511 25.0402C2.89161 25.475 3.40511 25.9806 3.60761 26.1636C4.17747 26.6733 4.76537 27.1613 5.37011 27.6266C5.925 28.0435 6.49473 28.4391 7.07811 28.8127C7.31011 28.9622 7.70361 29.1996 7.95211 29.3435C8.20111 29.4905 8.67911 29.75 9.01811 29.9252C9.35711 30.1 9.81611 30.3291 10.0431 30.4309C10.3684 30.5783 10.6963 30.7194 11.0266 30.8543C11.3406 30.9844 11.7946 31.1591 12.0296 31.247C12.2671 31.3343 12.4721 31.3996 12.4886 31.3908C12.5021 31.3821 12.5161 31.3883 12.5161 31.4047C12.5161 31.4191 12.5266 31.4304 12.5376 31.4248C12.5516 31.4217 12.7646 31.5096 13.0131 31.617C13.2756 31.73 13.4616 31.8256 13.4506 31.8431C13.4396 31.8595 13.4476 31.8626 13.4721 31.8513C13.4941 31.84 13.5296 31.8482 13.5491 31.8652C13.5681 31.8852 13.5816 31.8909 13.5816 31.8765C13.5816 31.8652 13.6036 31.8765 13.6281 31.9022C13.6556 31.9248 13.6936 31.9386 13.7101 31.9304C13.7291 31.9217 13.7401 31.9248 13.7321 31.9417C13.7236 31.9556 13.7401 31.9726 13.7646 31.9756C13.7921 31.9756 13.8276 31.9808 13.8441 31.9808C13.8606 31.9839 13.8711 31.9895 13.8661 31.9983C13.8606 32.0065 13.9041 32.0291 13.9586 32.0486C14.0136 32.0687 14.0846 32.0913 14.1146 32.0969C14.1446 32.1021 14.1696 32.1082 14.1696 32.1108C14.1696 32.1139 14.1881 32.1195 14.2101 32.1221C14.2321 32.1278 14.4836 32.2213 14.7701 32.3313C15.0546 32.4443 15.5851 32.6334 15.9451 32.7578C16.3061 32.8821 16.8911 33.0738 17.2436 33.1843C17.5961 33.2943 18.2051 33.4752 18.5961 33.5852C18.9871 33.6926 19.5826 33.8534 19.9211 33.9382L20.5771 34.1016C20.6087 34.1087 20.6408 34.1125 20.6731 34.1129C20.7196 34.116 20.7196 34.1217 20.6866 34.1437C20.6566 34.1643 20.6731 34.1694 20.7466 34.1643C20.8016 34.1612 20.8561 34.1669 20.8696 34.1782C20.8806 34.1895 20.7546 34.1977 20.5911 34.2008C20.4241 34.2008 19.9461 34.1895 19.5251 34.1725C19.1515 34.1595 18.7781 34.1407 18.4051 34.116C17.848 34.0697 17.2921 34.0085 16.7381 33.9325C16.3913 33.8805 16.0451 33.824 15.6996 33.763C15.3342 33.693 14.9699 33.6176 14.6066 33.5368L14.4536 33.5009L13.9916 33.393C13.9366 33.3816 13.9316 33.3847 13.9641 33.4073C13.9861 33.4243 13.9916 33.4382 13.9776 33.4382C13.9616 33.4382 13.6801 33.3251 13.3496 33.1869C13.0186 33.0481 12.6061 32.8734 12.4341 32.7974C12.2616 32.7182 11.9586 32.5826 11.7641 32.4921C11.5676 32.3991 11.0346 32.1308 10.5756 31.896C10.1531 31.678 9.73407 31.4531 9.31861 31.2213C9.08661 31.0856 8.68461 30.8461 8.43061 30.6904C8.06646 30.461 7.70657 30.2246 7.35111 29.9812C6.98066 29.7279 6.61622 29.4654 6.25811 29.194C6.0277 29.0178 5.80001 28.8379 5.57511 28.6544C5.38205 28.4917 5.19071 28.3269 5.00111 28.16C4.79861 27.9796 4.44111 27.6461 4.20861 27.42C3.97611 27.1944 3.62361 26.8244 3.42411 26.6014C3.22049 26.371 3.02112 26.1366 2.82611 25.8984C2.69461 25.7345 2.47611 25.4493 2.34211 25.2627C2.20104 25.0683 2.06434 24.8706 1.93211 24.6697C1.87101 24.5785 1.81444 24.4841 1.76261 24.3871C1.75856 24.3681 1.75355 24.3494 1.74761 24.331C1.72801 24.313 1.70748 24.296 1.68611 24.2802Z" fill="#6E72A5"/>
<path d="M34.6399 0.420747C34.5855 0.287484 34.5345 0.1528 34.4869 0.0168303C34.4869 0.00809418 34.7544 0.00244141 35.0824 0.00244141C35.4074 0.00244141 35.7764 0.0111775 35.8994 0.0250525C36.0224 0.0363581 36.1154 0.0533164 36.1099 0.0677053C36.1049 0.0790108 36.1539 0.237289 36.2194 0.417664C36.2844 0.601122 36.3779 0.878108 36.4269 1.0333C36.4759 1.1885 36.5334 1.3329 36.5524 1.34986C36.5744 1.37247 36.5799 1.392 36.5634 1.40073C36.5499 1.40896 36.3639 1.42026 36.1534 1.42848C35.9024 1.43722 35.7764 1.43414 35.7849 1.41461C35.7929 1.39765 35.6479 1.38634 35.3749 1.38634C35.1014 1.38634 34.9569 1.37504 34.9649 1.35808C34.9729 1.34421 34.9374 1.21111 34.8854 1.06722C34.8075 0.850397 34.7258 0.635043 34.6404 0.421261L34.6399 0.420747ZM4.03088 9.74218C4.16788 9.60137 4.45188 9.32182 4.66788 9.12397C4.90288 8.90351 5.07488 8.76527 5.09938 8.77401C5.12938 8.78223 5.15438 8.8809 5.19238 9.15788C5.21988 9.36395 5.27438 9.68565 5.38638 10.2114L5.20088 10.4087C5.09938 10.5166 5.00388 10.6065 4.98738 10.6065C4.97388 10.6091 4.96288 10.6235 4.96838 10.643C4.97138 10.6631 4.83988 10.81 4.67338 10.9735C4.50938 11.1374 4.37288 11.2787 4.37288 11.2926C4.37288 11.3039 4.33438 11.3465 4.29088 11.3918C4.24438 11.4339 4.22238 11.4509 4.23588 11.4339C4.25079 11.4151 4.26108 11.3929 4.26588 11.3691C4.26588 11.3522 4.24688 11.3578 4.22238 11.3774C4.18688 11.4056 4.17338 11.3861 4.12688 11.2222C4.07136 11.0031 4.01669 10.7839 3.96288 10.5644C3.90288 10.3075 3.85338 10.0757 3.85338 10.0505C3.85338 10.0217 3.83688 9.99912 3.82088 9.99912C3.80138 9.99912 3.89738 9.8835 4.03088 9.74218Z" fill="#A1A5CB"/>
<path d="M46.8351 1.98506C46.7781 1.63767 46.7346 1.34989 46.7426 1.34424C46.8088 1.35028 46.8745 1.36162 46.9391 1.37815C47.0431 1.40077 47.3411 1.47117 47.6036 1.53027C47.8656 1.59245 48.1035 1.64897 48.1281 1.65771C48.1556 1.66285 48.1716 1.67724 48.1661 1.68854C48.1581 1.70293 48.1881 1.96553 48.2291 2.27592C48.2731 2.58682 48.3141 2.90029 48.3411 3.10893L48.1991 3.06679C48.1066 3.04144 48.0125 3.02255 47.9176 3.01027C47.8436 3.00153 47.7756 2.982 47.7676 2.96761C47.7591 2.95066 47.7316 2.945 47.7076 2.95374C47.6796 2.96196 47.6576 2.95631 47.6576 2.93935C47.6576 2.9229 47.6006 2.90338 47.5296 2.89156C47.4707 2.8831 47.4114 2.87847 47.3521 2.87768C47.3246 2.88025 47.3026 2.87203 47.3026 2.85507C47.3026 2.83811 47.2836 2.82116 47.2616 2.81242C47.2401 2.8042 47.2266 2.80985 47.2346 2.82681C47.2426 2.84377 47.2206 2.85507 47.1881 2.85507C47.1513 2.85474 47.1153 2.84407 47.0841 2.82424C47.0511 2.80111 47.0591 2.79854 47.1116 2.81242C47.1741 2.82681 47.1741 2.82681 47.1251 2.79546C47.0892 2.7782 47.0488 2.77333 47.0101 2.78159C46.9686 2.79289 46.9366 2.78261 46.9151 2.75075C46.8876 2.71375 46.8876 2.7081 46.9151 2.72197C46.9366 2.73534 46.9476 2.72146 46.9476 2.67984C46.9142 2.44758 46.8764 2.21595 46.8351 1.98506ZM14.0461 33.452C14.0326 33.4608 14.0026 33.4438 13.9806 33.4181C13.9476 33.376 13.9506 33.3729 14.0026 33.3898C14.0326 33.4017 14.3056 33.4664 14.6066 33.5368C14.9066 33.6046 15.3986 33.7064 15.6996 33.7629C16.0448 33.8239 16.3909 33.8805 16.7376 33.9325C17.0086 33.969 17.4156 34.0199 17.6396 34.0425C17.8666 34.0651 18.2161 34.099 18.4186 34.116C19.1101 34.1617 19.8026 34.1892 20.4956 34.1982C20.6781 34.1951 20.7576 34.1864 20.7141 34.1725C20.6566 34.1524 20.6621 34.1499 20.7551 34.1499C20.8151 34.1524 20.8776 34.1612 20.8916 34.1725C20.9168 34.1886 20.9445 34.2001 20.9736 34.2064C21.0036 34.2146 21.0526 34.2321 21.0826 34.2429C21.1266 34.2568 21.1291 34.2568 21.0966 34.2316C21.0746 34.2146 21.0691 34.2008 21.0826 34.2008C21.0991 34.2008 21.1291 34.2203 21.1511 34.2403C21.1731 34.2598 21.2361 34.2855 21.2876 34.2968C21.3561 34.3082 21.3726 34.3051 21.3426 34.2855C21.3096 34.2629 21.3176 34.2568 21.3776 34.2568C21.4191 34.2568 21.4546 34.2681 21.4601 34.2825C21.4626 34.2994 21.5091 34.3189 21.5611 34.3303C21.6131 34.3416 21.7031 34.3472 21.7606 34.3472C21.8181 34.3446 21.8781 34.3585 21.9026 34.3842C21.9246 34.4068 21.9846 34.4407 22.0336 34.4546C22.0801 34.4716 22.1406 34.4829 22.1621 34.4829C22.1841 34.4803 22.1676 34.4634 22.0391 34.4007L22.1486 34.4181C22.2086 34.4263 22.2636 34.4438 22.2716 34.4577C22.2796 34.469 22.3236 34.486 22.3671 34.4942C22.4136 34.5055 22.4931 34.5199 22.5446 34.5312C22.5966 34.5425 22.6846 34.5507 22.7361 34.5507C22.7881 34.5481 22.8371 34.5594 22.8451 34.5702C22.8536 34.5815 22.9081 34.6011 22.9686 34.6129C23.0286 34.6242 23.1271 34.6355 23.1871 34.6355C23.2471 34.6324 23.3046 34.6468 23.3156 34.6638C23.3261 34.6807 23.3971 34.6946 23.4741 34.6946C23.5476 34.6946 23.6106 34.7033 23.6106 34.7146C23.6106 34.7285 23.6541 34.7316 23.7061 34.7229C23.7771 34.7116 23.7961 34.7177 23.7826 34.7429C23.7661 34.7686 23.7881 34.7712 23.8701 34.7568C23.9551 34.7398 23.9686 34.7429 23.9386 34.7655C23.9086 34.7912 23.9276 34.7938 24.0206 34.7825C24.0996 34.7712 24.1296 34.7737 24.1026 34.7907C24.0751 34.8077 24.1326 34.8246 24.2936 34.8447C24.4221 34.8611 24.5536 34.8698 24.5886 34.8642C24.6216 34.856 24.6486 34.8642 24.6486 34.8786C24.6486 34.895 24.6901 34.9007 24.7446 34.8924C24.8076 34.8837 24.8431 34.8899 24.8486 34.912C24.8566 34.9377 24.9166 34.949 25.0371 34.949C25.1406 34.949 25.2036 34.9603 25.1871 34.9716C25.1681 34.9855 25.2121 34.9885 25.2856 34.9798C25.3621 34.9685 25.4141 34.9747 25.4141 34.9911C25.4141 35.0055 25.4361 35.0194 25.4631 35.0194C25.4938 35.0209 25.5237 35.0297 25.5506 35.0451C25.5781 35.062 25.3756 35.1042 24.9766 35.172C24.6381 35.2285 24.1706 35.2989 23.9386 35.3272C23.2149 35.4184 22.4885 35.4852 21.7606 35.5276C21.4546 35.542 21.1591 35.5584 21.1046 35.5584C21.0006 35.5615 21.0006 35.5615 21.0826 35.5841C21.1291 35.5955 21.1426 35.6068 21.1181 35.6098C21.0911 35.6098 20.8016 35.5477 20.4761 35.4711C20.1481 35.3925 19.5661 35.245 19.1836 35.1437C18.8011 35.042 18.2051 34.8781 17.8586 34.7768C17.5136 34.6751 16.9346 34.4942 16.5736 34.3786C16.162 34.2446 15.7521 34.1051 15.3441 33.9603C15.0301 33.8446 14.6141 33.6951 14.4231 33.6247C14.2291 33.5538 14.0731 33.4808 14.0731 33.4664C14.0731 33.452 14.0626 33.4438 14.0461 33.452Z" fill="#666A9F"/>
<path d="M42.3291 0.849923C42.2991 0.71734 42.2771 0.592979 42.2856 0.57602C42.2936 0.553409 42.3291 0.545187 42.3756 0.553409C42.4166 0.562145 42.7171 0.604284 43.0396 0.652076C43.3621 0.700381 43.6596 0.745604 43.7011 0.751256C43.7446 0.759479 43.7721 0.773868 43.7661 0.787743C43.7581 0.799048 43.8101 1.10995 43.8811 1.47687C43.9521 1.84378 44.0211 2.15726 44.0371 2.17165C44.0506 2.18552 44.1981 2.22509 44.3651 2.25644C44.5291 2.29035 44.8376 2.34688 45.0481 2.38594C45.2581 2.42551 45.5346 2.47638 45.6631 2.49899C45.7916 2.52469 46.1276 2.59509 46.4146 2.66035C46.6986 2.7251 46.9526 2.77855 46.9746 2.78163C47.0006 2.78543 47.0256 2.79415 47.0486 2.80733C47.0676 2.81812 47.1006 2.81812 47.1166 2.80733C47.1406 2.79191 47.1451 2.79705 47.1306 2.8212C47.1166 2.84381 47.1331 2.85512 47.1851 2.85203C47.2246 2.84903 47.2643 2.85285 47.3026 2.86334C47.3246 2.87208 47.4036 2.88903 47.4801 2.90034C47.5541 2.91165 47.6251 2.91987 47.6361 2.9173C47.6496 2.91421 47.6576 2.92244 47.6576 2.93991C47.6576 2.95687 47.6826 2.96201 47.7126 2.95378C47.7426 2.94556 47.7676 2.95121 47.7676 2.96766C47.7676 2.98462 47.8246 3.00466 47.8956 3.01288C47.9696 3.02162 48.0756 3.04115 48.1356 3.05553C48.1961 3.07249 48.2646 3.09202 48.2866 3.10076C48.3081 3.11206 48.3466 3.12337 48.3681 3.12645C48.3901 3.12902 48.4366 3.14033 48.4696 3.14855L48.5871 3.17938C48.6171 3.18812 48.6691 3.19994 48.7021 3.20816C48.7371 3.21638 48.7836 3.22769 48.8056 3.23642C48.8276 3.24465 48.8711 3.25595 48.9011 3.2616C48.9311 3.26726 49.0351 3.29552 49.1336 3.3207C50.2425 3.62644 51.3407 3.97216 52.4261 4.35721C52.8171 4.49596 53.4676 4.74417 53.8746 4.9081C54.2791 5.07152 54.8336 5.30585 55.1041 5.42456C55.3751 5.54635 55.7546 5.72108 55.9516 5.8146C56.1456 5.90505 56.6071 6.1363 56.9761 6.32849C57.6547 6.67692 58.3202 7.05182 58.9711 7.45237C59.5303 7.80098 60.0772 8.17019 60.6106 8.55928C60.8591 8.74017 61.2691 9.0593 61.5261 9.26845C61.7801 9.47401 62.0261 9.67751 62.0701 9.71708L62.2886 9.91749C62.3651 9.99098 62.4796 10.0922 62.5401 10.1436C62.6026 10.197 62.6791 10.2824 62.7121 10.3327C62.7421 10.381 62.7806 10.4201 62.7941 10.4175C62.8106 10.4119 63.0126 10.6097 63.2451 10.8523C63.4801 11.0979 63.6656 11.2983 63.6576 11.2983C63.6496 11.2983 63.6851 11.341 63.7341 11.3918C63.7806 11.4396 63.8846 11.5583 63.9636 11.6514C64.0401 11.7449 64.1631 11.897 64.2371 11.9905C64.5136 12.3445 64.7734 12.712 65.0156 13.0918C65.1141 13.247 65.2616 13.4957 65.3465 13.6422C65.4286 13.7891 65.5706 14.0635 65.6606 14.2496C65.7505 14.4361 65.8791 14.7213 65.9476 14.8847C66.0131 15.0492 66.1196 15.3339 66.1826 15.5204C66.2456 15.7065 66.341 16.0256 66.3931 16.2265C66.4421 16.4269 66.5161 16.7769 66.5516 17.0025C66.5896 17.2286 66.6336 17.5904 66.6525 17.8077C66.6715 18.059 66.6771 18.4039 66.6661 18.7533C66.6583 19.0412 66.6393 19.3287 66.6091 19.6151C66.5586 19.9903 66.4892 20.3625 66.4011 20.7302C66.3237 21.0464 66.2279 21.3576 66.1141 21.6619C66.0516 21.8402 65.9556 22.0884 65.9036 22.2128C65.8521 22.3372 65.7505 22.5602 65.6796 22.7072C65.5812 22.9079 65.4774 23.1056 65.368 23.3002C65.2701 23.478 65.0731 23.8028 64.9336 24.0201C64.7762 24.2602 64.6123 24.4956 64.4421 24.7262C64.3136 24.8958 64.0946 25.1697 63.9581 25.3336C63.8241 25.4971 63.4416 25.9066 63.1111 26.2484C62.826 26.5432 62.5344 26.8314 62.2366 27.1127C62.0861 27.2453 61.8101 27.4827 61.6216 27.6405C61.4331 27.7962 61.1326 28.0362 60.9521 28.1744C60.7721 28.3132 60.3676 28.6035 60.0506 28.8209C59.718 29.0512 59.381 29.2744 59.0396 29.4905C58.7991 29.6395 58.4601 29.8435 58.2881 29.9448C58.1156 30.044 57.7631 30.2413 57.5091 30.38C57.1606 30.5661 56.8099 30.7477 56.4571 30.9248C56.1346 31.083 55.6591 31.3091 55.4051 31.4273C55.1481 31.5435 54.6891 31.7439 54.3801 31.8708C54.0716 32.0008 53.6476 32.173 53.4376 32.2521C52.7383 32.5239 52.032 32.7764 51.3196 33.0091C50.9806 33.1191 50.4206 33.2943 50.0761 33.396C49.7291 33.5004 49.1391 33.6643 48.7646 33.763C48.3876 33.8647 47.8111 34.0086 47.4801 34.0877C47.1496 34.1669 46.4551 34.319 45.9361 34.4269C45.4171 34.5338 44.6601 34.6777 44.2561 34.7486C42.9096 34.9795 41.556 35.1641 40.1976 35.3021C39.8891 35.3329 39.3176 35.3843 38.9271 35.4151C38.5361 35.4459 37.9896 35.483 37.7111 35.4999C37.4321 35.5138 37.1396 35.522 37.0606 35.5138C36.9756 35.505 36.9186 35.5112 36.9186 35.5277C36.9186 35.5446 36.7901 35.5503 36.5636 35.542C36.3391 35.5333 36.2026 35.539 36.1941 35.5559C36.1861 35.5729 36.0141 35.5785 35.7076 35.5647C35.3606 35.5503 35.2326 35.5559 35.2161 35.5785C35.2021 35.6042 34.8991 35.6125 34.0626 35.6125C33.3166 35.6125 32.9341 35.6042 32.9426 35.5842C32.9506 35.5647 32.7646 35.5616 32.3961 35.5703C31.9586 35.5816 31.8361 35.5755 31.8361 35.5503C31.8361 35.522 31.7561 35.5194 31.4806 35.5364C31.2481 35.5477 31.1256 35.5477 31.1256 35.5277C31.1256 35.5112 31.0186 35.4994 30.8576 35.4994H30.3516C30.2206 35.4994 30.0976 35.4912 30.0786 35.4799C30.0621 35.4655 29.9421 35.4542 29.8136 35.4516C29.6851 35.449 29.5156 35.4465 29.4366 35.4434C29.3601 35.4434 29.2781 35.4346 29.2586 35.4233C29.2426 35.4151 29.0946 35.4007 28.9306 35.3951C28.7696 35.3925 28.6141 35.3725 28.5836 35.3586C28.5536 35.3442 28.4961 35.336 28.4526 35.3442C28.4116 35.3529 28.2176 35.3416 28.0236 35.3185C27.8271 35.2933 27.5561 35.2681 27.4226 35.2594C27.2856 35.2512 27.1626 35.2311 27.1491 35.2173C27.1326 35.2029 27.0836 35.2003 27.0341 35.2116C26.9796 35.2229 26.9331 35.2198 26.9061 35.1977C26.8811 35.1777 26.8406 35.1664 26.8131 35.1751C26.7881 35.1834 26.5891 35.1638 26.3701 35.1299C26.2021 35.1055 26.0337 35.0838 25.8651 35.0646C25.7709 35.0568 25.677 35.0455 25.5836 35.0307C25.4906 35.0169 25.4136 34.9968 25.4136 34.9855C25.4136 34.9716 25.3621 34.9716 25.2966 34.9829C25.2251 34.9942 25.1896 34.9912 25.2006 34.9742C25.2091 34.9603 25.1436 34.9459 25.0366 34.9434C24.9301 34.9434 24.8511 34.9264 24.8456 34.9095C24.8426 34.8899 24.8016 34.8838 24.7446 34.8925C24.6896 34.9007 24.6486 34.8951 24.6486 34.8781C24.6486 34.8642 24.6216 34.856 24.5861 34.8642C24.4954 34.8665 24.4047 34.8589 24.3156 34.8416C24.2006 34.8221 24.1106 34.7995 24.1186 34.7882C24.1241 34.7738 24.0831 34.7738 24.0256 34.7851C23.9521 34.7995 23.9301 34.7964 23.9436 34.7712C23.9601 34.7455 23.9386 34.743 23.8616 34.7568C23.7881 34.7712 23.7661 34.7681 23.7796 34.743C23.7961 34.7173 23.7771 34.7121 23.7061 34.7229C23.6541 34.7316 23.6106 34.7286 23.6106 34.7178C23.6106 34.7034 23.5446 34.6921 23.4681 34.689C23.3806 34.6864 23.3151 34.6695 23.3041 34.6469C23.2961 34.6268 23.2716 34.6186 23.2496 34.6299C23.2306 34.6381 23.1321 34.6325 23.0281 34.6155C22.9271 34.596 22.8451 34.5734 22.8451 34.5621C22.8451 34.5482 22.8181 34.5451 22.7826 34.5508C22.7496 34.5595 22.6241 34.5456 22.5036 34.5199C22.3836 34.4942 22.2796 34.4634 22.2711 34.449C22.2631 34.4377 22.1841 34.4182 22.0936 34.4125C22.0036 34.4038 21.9106 34.3925 21.8836 34.3899C21.8586 34.3868 21.8451 34.3755 21.8506 34.3642C21.8556 34.3503 21.8286 34.3447 21.7851 34.3473C21.7441 34.3473 21.6536 34.3421 21.5801 34.3334C21.5091 34.3221 21.4516 34.2995 21.4516 34.2851C21.4516 34.2712 21.3996 34.2599 21.3341 34.263C21.2814 34.2648 21.2287 34.258 21.1781 34.2429C21.1302 34.2212 21.0798 34.206 21.0281 34.1977C20.9681 34.1838 20.8556 34.1612 20.7821 34.1443C20.7056 34.1273 20.6206 34.1104 20.5906 34.1016C20.367 34.0491 20.1438 33.9946 19.9211 33.9382C19.5056 33.8327 19.0912 33.7225 18.6781 33.6078C17.7601 33.3487 16.8488 33.0652 15.9451 32.7578C15.5833 32.6327 15.2234 32.5018 14.8656 32.3652C14.6336 32.2747 14.2206 32.1108 13.9506 32.0003C13.6762 31.891 13.4029 31.7791 13.1306 31.6648C12.9506 31.5856 12.6741 31.4613 12.5156 31.3821L12.4006 31.3266L11.8871 31.08C11.6074 30.9446 11.3295 30.8054 11.0536 30.6622C10.7271 30.4941 10.4037 30.3199 10.0836 30.1395C9.73837 29.9438 9.39665 29.7416 9.05856 29.5331C8.71685 29.3223 8.37976 29.1037 8.04756 28.8774C7.76152 28.6806 7.47913 28.4783 7.20056 28.2705C6.97038 28.097 6.74269 27.92 6.51756 27.7397C6.31383 27.5742 6.11329 27.4045 5.91606 27.2309C5.69345 27.0334 5.4749 26.831 5.26056 26.624C5.0059 26.375 4.75797 26.1188 4.51706 25.8558C4.28519 25.6044 4.06108 25.3456 3.84506 25.0798C3.69206 24.8845 3.47306 24.5993 3.36406 24.4441C3.21846 24.2347 3.07627 24.0227 2.93756 23.8084C2.82822 23.6374 2.72352 23.4633 2.62356 23.2863C2.57228 23.1906 2.51842 23.0963 2.46206 23.0037C2.42106 22.942 2.27906 22.758 2.14206 22.5941C1.95119 22.3618 1.76367 22.1266 1.57956 21.8885C1.38464 21.6323 1.19329 21.3733 1.00556 21.1115C0.810557 20.8332 0.621019 20.5508 0.437056 20.2646C0.329665 20.0926 0.218639 19.923 0.104056 19.7559C0.0875564 19.7395 0.0845564 19.7508 0.0955564 19.7847C0.109556 19.8268 0.106556 19.8325 0.0875564 19.7985C0.0740564 19.7759 0.0465564 19.6094 0.0300564 19.4316C0.00915725 19.1195 -0.000849175 18.8067 5.63613e-05 18.4938C5.63613e-05 18.1269 0.0165564 17.7034 0.0435564 17.4491C0.0685564 17.2116 0.101056 16.9943 0.120056 16.9691C0.145056 16.9295 0.166556 16.9578 0.270556 17.1669C0.333556 17.3021 0.486556 17.596 0.609556 17.8216C0.729556 18.0477 0.915556 18.3782 1.01956 18.5565C1.12306 18.7338 1.23806 18.926 1.33656 19.0786L1.32256 18.8386C1.31456 18.7055 1.32006 18.3694 1.33656 18.0899C1.35256 17.8103 1.38806 17.4151 1.41856 17.2147C1.44856 17.0143 1.50306 16.6952 1.54356 16.5086C1.60036 16.2614 1.66607 16.0165 1.74056 15.7743C1.80906 15.5569 1.93206 15.207 2.01406 14.9983C2.09906 14.7892 2.17806 14.6139 2.19156 14.6108C2.20256 14.6057 2.21356 14.58 2.21356 14.5543C2.21356 14.526 2.23256 14.4839 2.25456 14.4618C2.27873 14.4331 2.29648 14.3992 2.30656 14.3626C2.31156 14.3318 2.35556 14.2239 2.40456 14.1226C2.45406 14.0209 2.57956 13.7866 2.68606 13.6C2.79306 13.4135 2.93756 13.1684 3.01106 13.0579C3.08256 12.9448 3.15356 12.8518 3.17006 12.8518C3.18356 12.8518 3.19206 12.8431 3.18356 12.8318C3.17856 12.8179 3.26556 12.6766 3.38356 12.5131C3.49806 12.3487 3.66206 12.1318 3.74356 12.0244C3.82556 11.9196 3.91056 11.8266 3.92706 11.8209C3.94606 11.8122 3.96206 11.7901 3.96206 11.7731C3.96206 11.7531 4.05556 11.6375 4.16706 11.5188C4.27956 11.3975 4.37206 11.2901 4.37206 11.2788C4.38934 11.2462 4.4126 11.2174 4.44056 11.194C4.47906 11.1575 4.50056 11.1205 4.48706 11.1092C4.47606 11.101 4.48456 11.101 4.50056 11.1092C4.52256 11.1236 4.68406 10.974 4.92706 10.7135C5.14306 10.4823 5.41606 10.2058 5.53656 10.0953C5.65406 9.98224 5.80656 9.84401 5.87556 9.78183C5.94356 9.72273 6.07756 9.6071 6.17556 9.52488C6.27406 9.44317 6.37806 9.3553 6.40806 9.32446C6.43806 9.2962 6.65956 9.12148 6.90006 8.93494C7.14006 8.74839 7.56406 8.43801 7.84256 8.24324C8.12156 8.04797 8.56956 7.74888 8.84006 7.5793C9.16442 7.37532 9.49248 7.17761 9.82406 6.98627C10.1722 6.78851 10.5229 6.59562 10.8761 6.40763C11.1851 6.24627 11.6031 6.03198 11.8051 5.93331C12.1043 5.79056 12.4049 5.65112 12.7071 5.51501C13.0832 5.34856 13.4612 5.18668 13.8411 5.02938C14.2082 4.87885 14.577 4.7329 14.9476 4.59155C15.2266 4.48723 15.6501 4.33203 15.8906 4.24724C16.1306 4.16502 16.5791 4.01599 16.8881 3.91681C17.2373 3.80264 17.588 3.69334 17.9401 3.58895C18.2106 3.50724 18.5411 3.41115 18.6781 3.37466C18.8116 3.33766 19.1396 3.2503 19.4021 3.17938C19.6646 3.11206 20.0881 3.00466 20.3446 2.94248C20.5991 2.88081 21.0991 2.76776 21.4516 2.6881C21.8041 2.61205 22.3941 2.49077 22.7631 2.41985C23.1269 2.35012 23.4912 2.28331 23.8561 2.21944C24.2424 2.15299 24.6296 2.09184 25.0176 2.03598C25.4221 1.97688 25.9576 1.90031 26.2066 1.86948C26.4551 1.83865 26.8896 1.78469 27.1766 1.75385C27.4606 1.72302 27.8186 1.68294 27.9691 1.66906C28.1191 1.65467 28.4741 1.62076 28.7616 1.59558C29.0456 1.56988 29.4066 1.54727 29.5591 1.54727C29.7151 1.5447 29.8406 1.5334 29.8406 1.52158C29.8406 1.5077 29.9366 1.49948 30.0511 1.4964C30.1686 1.4964 30.3931 1.48817 30.5511 1.47995C30.7096 1.4743 30.9666 1.46299 31.1251 1.46299C31.2836 1.45991 31.4286 1.4486 31.4451 1.4373C31.4641 1.42342 31.6551 1.41777 31.8686 1.41777C32.0841 1.42034 33.0546 1.41777 34.0271 1.41212C34.9971 1.40646 35.7871 1.40903 35.7821 1.42342C35.7761 1.43473 35.9511 1.44038 36.1721 1.44038C36.3966 1.4373 36.7301 1.44295 36.9186 1.45169C37.1071 1.45991 37.3831 1.4743 37.5336 1.48252C37.6836 1.49074 37.8831 1.49948 37.9761 1.50513C38.0716 1.51078 38.1481 1.52209 38.1481 1.53596C38.1481 1.54727 38.2466 1.54727 38.3666 1.53596C38.5336 1.51901 38.5856 1.52209 38.5856 1.55035C38.5856 1.57605 38.6346 1.58119 38.7766 1.56988C38.8941 1.56166 38.9681 1.56731 38.9681 1.58427C38.9681 1.60123 39.0361 1.60688 39.1456 1.59815C39.2766 1.58684 39.3231 1.59301 39.3231 1.62076C39.3231 1.64337 39.3451 1.64902 39.4051 1.63515C39.4516 1.62076 39.7851 1.64337 40.1896 1.68294C40.7027 1.73635 41.2156 1.79288 41.7281 1.85252C42.1871 1.90596 42.5641 1.94862 42.5666 1.94553C42.5696 1.9404 42.5286 1.7482 42.4796 1.51387C42.4324 1.29188 42.3819 1.07054 42.3291 0.849923Z" fill="#7C80B0"/>
<path d="M39.4181 0.666403C39.3636 0.479861 39.3146 0.304625 39.3061 0.279444C39.2901 0.234222 39.3116 0.228569 39.5301 0.239875C39.6641 0.245528 39.9841 0.273792 40.2381 0.298972C40.4921 0.324667 40.7271 0.350361 40.7571 0.3555C40.7956 0.364236 40.8121 0.3925 40.8146 0.445944C40.8176 0.488597 40.8856 0.804639 40.9706 1.14638C41.0556 1.48811 41.1206 1.76767 41.1181 1.77024L40.4021 1.70292C39.9976 1.66026 39.6831 1.61812 39.6721 1.60117C39.6616 1.58421 39.6231 1.44289 39.5851 1.28769C39.5332 1.07938 39.4775 0.872073 39.4181 0.665889V0.666403ZM1.28962 13.4021C1.37962 13.2325 1.47512 13.0691 1.49712 13.0408C1.53212 13.0013 1.54612 12.9982 1.56012 13.0265C1.57062 13.0465 1.63112 13.2104 1.69112 13.3882C1.75112 13.566 1.88212 13.916 1.97812 14.1647C2.07662 14.4134 2.15562 14.5938 2.15812 14.5686C2.15812 14.5404 2.16912 14.5173 2.18562 14.5173C2.19912 14.5173 2.13912 14.693 2.04912 14.9078C1.94186 15.1689 1.84511 15.4345 1.75912 15.7038C1.69112 15.9299 1.62262 16.1386 1.61162 16.1699C1.60112 16.2008 1.57362 16.3025 1.52162 16.5651L1.29462 16.0846C1.15393 15.7889 1.02105 15.4894 0.896117 15.1863C0.800117 14.9577 0.712617 14.7798 0.701617 14.7906C0.691117 14.805 0.682617 14.7968 0.682617 14.7798C0.682617 14.7603 0.723617 14.6385 0.775617 14.5116C0.827617 14.3816 0.928617 14.1503 0.997117 13.9946C1.06812 13.8394 1.19912 13.5717 1.28962 13.4021Z" fill="#8A8EBA"/>
<path d="M43.8835 1.47115C43.8125 1.1068 43.7605 0.796414 43.7685 0.785109C43.7745 0.773803 43.821 0.77072 43.8675 0.779456C43.9165 0.787678 44.2415 0.844206 44.5885 0.906386L45.231 1.01944C45.236 1.01944 45.239 1.06158 45.239 1.10989C45.242 1.16076 45.2885 1.45162 45.343 1.75379C45.398 2.05596 45.444 2.33808 45.444 2.38073C45.444 2.42544 45.439 2.45936 45.4305 2.45936C45.422 2.45936 45.149 2.40848 44.821 2.34373C44.496 2.28207 44.187 2.22246 44.135 2.21115C44.086 2.19984 44.0365 2.17723 44.0285 2.16284C44.0175 2.14589 43.9545 1.8355 43.8835 1.47115ZM0.188481 20.5041C0.144481 20.2785 0.100981 20.0133 0.0954812 19.9115C0.0899812 19.8098 0.0924812 19.742 0.106481 19.7563C0.117481 19.7702 0.267481 20.002 0.436981 20.2646C0.620942 20.5508 0.810481 20.8331 1.00548 21.1115C1.14748 21.315 1.40698 21.6624 1.57898 21.888C1.75398 22.1141 2.00548 22.4306 2.14198 22.594C2.27898 22.758 2.42098 22.9414 2.46198 23.0036C2.49998 23.0658 2.57398 23.1927 2.62298 23.2862C2.67248 23.3787 2.81448 23.6136 2.93748 23.8084C3.06298 24.0036 3.25448 24.2883 3.36348 24.444C3.47298 24.5992 3.69148 24.8844 3.84448 25.0792C4.00048 25.2745 4.30098 25.6239 4.51698 25.8557C4.75773 26.1188 5.00549 26.3749 5.25998 26.624C5.45398 26.8131 5.74948 27.0844 5.91598 27.2309C6.07998 27.3778 6.35048 27.6039 6.51698 27.7396C6.68098 27.8722 6.98998 28.1122 7.20048 28.2705C7.41048 28.4282 7.79048 28.7021 8.04748 28.8774C8.30148 29.0521 8.75748 29.3491 9.05848 29.5326C9.35898 29.7191 9.82098 29.993 10.0835 30.1395C10.3455 30.2895 10.7635 30.5151 11.0125 30.6426C11.261 30.7721 11.6845 30.9843 11.955 31.1138C12.2255 31.2438 12.458 31.3625 12.4745 31.3764C12.488 31.3934 12.496 31.4047 12.488 31.4047C12.48 31.4047 12.278 31.3343 12.037 31.2469C11.363 30.9986 10.6976 30.7264 10.042 30.4308C9.69704 30.2697 9.35547 30.1012 9.01748 29.9252C8.65812 29.7395 8.30286 29.5455 7.95198 29.3435C7.65702 29.1723 7.3653 28.9953 7.07698 28.8126C6.49377 28.4391 5.92421 28.0434 5.36948 27.6266C4.76411 27.1621 4.17618 26.674 3.60698 26.1635C3.40448 25.9801 2.91298 25.4944 2.51398 25.0879C2.11498 24.6784 1.78148 24.3505 1.76798 24.3592C1.75698 24.3675 1.69698 24.2883 1.63098 24.1845C1.56598 24.0766 1.45598 23.8906 1.38798 23.7662C1.29604 23.5969 1.20768 23.4256 1.12298 23.2523C1.018 23.0285 0.917809 22.8023 0.822481 22.574C0.729925 22.3479 0.643228 22.1193 0.562481 21.8885C0.505481 21.724 0.417481 21.4393 0.365981 21.2528C0.299809 21.0052 0.240617 20.7552 0.188481 20.5041ZM13.7915 31.9864C13.6905 31.9468 13.6085 31.9073 13.6085 31.899C13.6085 31.8908 13.625 31.8852 13.6415 31.8852C13.6682 31.888 13.6932 31.8999 13.7125 31.9191C13.7315 31.9386 13.745 31.9468 13.745 31.9355C13.745 31.9216 13.7725 31.9273 13.805 31.9468C13.8333 31.9637 13.8635 31.977 13.895 31.9864C13.909 31.9895 13.969 32.0121 14.024 32.0378C14.081 32.063 14.1275 32.0881 14.1275 32.0969C14.1275 32.1051 14.095 32.0994 14.051 32.0856C14.01 32.0712 13.8955 32.029 13.7915 31.9864Z" fill="#7579AB"/>
<path d="M40.9024 0.850089C40.8449 0.623978 40.8039 0.423562 40.8094 0.406603C40.8179 0.387076 40.8454 0.370117 40.8724 0.370117C40.8999 0.370117 41.1784 0.400951 41.4954 0.44052C41.8099 0.480089 42.1214 0.517089 42.1839 0.525312C42.2664 0.534048 42.2964 0.551006 42.2879 0.5767C42.2769 0.593145 42.2989 0.717506 42.3289 0.850089C42.3619 0.982673 42.4299 1.28176 42.4789 1.51403C42.5289 1.74837 42.5694 1.94056 42.5669 1.94313C42.5639 1.94827 42.2419 1.91487 41.8509 1.86656C41.3809 1.81003 41.1349 1.77098 41.1209 1.74837C41.1104 1.72833 41.0829 1.60962 41.0559 1.48577C41.0309 1.36141 40.9629 1.0762 40.9024 0.850089ZM0.576375 15.0545C0.622875 14.9245 0.674875 14.8063 0.691375 14.795C0.707875 14.7837 0.784375 14.9332 0.879875 15.1619C0.969875 15.3736 1.15038 15.7801 1.52988 16.5797L1.47838 16.8562C1.44838 17.0057 1.40438 17.3084 1.37988 17.5253C1.35238 17.7545 1.33088 18.1609 1.32488 19.0561L1.26788 18.9688C1.23488 18.9205 1.12288 18.7339 1.01938 18.5561C0.915375 18.3783 0.729375 18.0479 0.609375 17.8223C0.491126 17.6068 0.378092 17.3883 0.270375 17.1671C0.196875 17.0145 0.141875 16.9328 0.130875 16.9549C0.117375 16.9775 0.109375 16.9692 0.109375 16.9322C0.109375 16.9014 0.144375 16.6979 0.188375 16.4805C0.243467 16.2152 0.306328 15.9516 0.376875 15.6902C0.436875 15.4723 0.527375 15.1871 0.576875 15.0545H0.576375Z" fill="#8387B5"/>
<path d="M37.6885 0.143864C37.702 0.143864 37.7045 0.129989 37.6965 0.1156C37.6885 0.0986417 37.7215 0.092989 37.784 0.101725C37.8415 0.106864 38.2075 0.135642 38.5985 0.160822C38.989 0.186517 39.3225 0.220433 39.336 0.237392C39.3545 0.255892 39.351 0.25692 39.325 0.239961C39.2925 0.220433 39.29 0.226086 39.3035 0.270795C39.3115 0.301628 39.3555 0.454767 39.402 0.609961C39.448 0.765156 39.527 1.05602 39.5795 1.25952C39.6315 1.4625 39.667 1.63209 39.6615 1.64082C39.653 1.64904 39.6395 1.63774 39.6285 1.61821C39.612 1.58995 39.585 1.58995 39.4785 1.61821C39.3635 1.64904 39.3415 1.64904 39.3225 1.61256C39.3035 1.57864 39.265 1.57299 39.134 1.58995C39.041 1.60382 38.9645 1.60125 38.962 1.58686C38.9565 1.57556 38.8745 1.5586 38.776 1.55038C38.672 1.53907 38.62 1.54473 38.653 1.55552C38.705 1.57864 38.705 1.58121 38.648 1.58121C38.612 1.58429 38.5845 1.56734 38.5845 1.55038C38.5845 1.52211 38.533 1.51954 38.366 1.53599C38.224 1.54729 38.1475 1.54473 38.1475 1.52777C38.1475 1.51338 38.175 1.50773 38.2075 1.51646C38.257 1.52777 38.2625 1.52468 38.2295 1.50207C38.2075 1.48511 38.164 1.47946 38.134 1.4882C38.104 1.4995 38.0875 1.49642 38.0985 1.48254C38.109 1.46816 38.101 1.44298 38.082 1.4291C38.06 1.41471 38.0135 1.28778 37.9755 1.14646C37.9167 0.936236 37.8538 0.727215 37.787 0.519517C37.721 0.313447 37.677 0.143864 37.6885 0.143864ZM1.85203 12.4423C1.97803 12.2418 2.19903 11.914 2.34153 11.7166C2.48353 11.5188 2.61453 11.3605 2.63103 11.3636C2.64753 11.3662 2.70203 11.5162 2.75103 11.694C2.80053 11.8718 2.90403 12.2131 3.11453 12.8801L2.96953 13.1113C2.88803 13.2414 2.80303 13.3852 2.77603 13.4305C2.75103 13.4757 2.70753 13.5548 2.68003 13.6C2.65303 13.6453 2.59803 13.7414 2.55703 13.8118C2.50121 13.9132 2.44933 14.017 2.40153 14.1227C2.35503 14.2239 2.31153 14.3313 2.30603 14.3627C2.30028 14.3941 2.28608 14.4233 2.26503 14.4469C2.24003 14.467 2.23753 14.4588 2.25103 14.411C2.25953 14.374 2.25653 14.3544 2.24003 14.3627C2.22403 14.3709 2.21303 14.4079 2.21303 14.4469C2.21303 14.4865 2.19903 14.5179 2.18553 14.5179C2.16903 14.5179 2.15803 14.5405 2.15803 14.5656C2.15553 14.5939 2.10103 14.4757 2.03303 14.3061C1.96403 14.1365 1.84953 13.8231 1.77303 13.6139C1.71341 13.4469 1.65507 13.2793 1.59803 13.1113C1.57053 13.0322 1.54603 12.9983 1.52153 13.0127C1.50503 13.024 1.51903 12.9844 1.55453 12.9222C1.58953 12.8606 1.72353 12.6427 1.85203 12.4423Z" fill="#9195C0"/>
<path d="M49.106 2.84954C49.0771 2.6185 49.0461 2.38776 49.013 2.15734L48.975 1.90039L49.0625 1.9117C49.109 1.91735 49.3495 1.97953 49.5975 2.05045C49.8465 2.12085 50.0545 2.1856 50.0625 2.19125C50.0705 2.19999 50.0655 2.20564 50.049 2.20564C50.0325 2.20564 50.027 2.25652 50.0405 2.34131C50.049 2.41428 50.0815 2.71953 50.1145 3.01861C50.147 3.31513 50.1665 3.57207 50.158 3.58903C50.15 3.60599 50.109 3.60033 50.049 3.57515C49.997 3.55254 49.953 3.53815 49.953 3.54689C49.953 3.55511 49.9095 3.54124 49.858 3.51863C49.8055 3.49602 49.762 3.48214 49.762 3.49036C49.762 3.4991 49.718 3.48522 49.6665 3.4621C49.6308 3.4453 49.5941 3.43122 49.5565 3.41996C49.549 3.41996 49.5025 3.40865 49.456 3.3917C49.399 3.37512 49.3415 3.36089 49.2835 3.34904C49.2454 3.33996 49.2071 3.33242 49.1685 3.32643C49.1525 3.32386 49.1445 3.31256 49.15 3.30074C49.155 3.28686 49.136 3.08388 49.106 2.84954ZM27.305 35.5108C27.715 35.4095 27.925 35.3443 27.917 35.3247C27.9115 35.3021 27.922 35.2991 27.9525 35.3104C27.9745 35.3217 28.07 35.3386 28.16 35.3443C28.25 35.3499 28.3735 35.3643 28.4335 35.3725C28.5125 35.3838 28.532 35.3813 28.502 35.3587C28.4635 35.333 28.4635 35.3304 28.502 35.3278C28.5268 35.3299 28.5505 35.3396 28.57 35.3556C28.5835 35.37 28.69 35.3895 28.8025 35.3982C28.9145 35.4065 29.0565 35.4208 29.1165 35.4291C29.196 35.4404 29.215 35.4378 29.185 35.4152C29.1495 35.3895 29.1495 35.3869 29.19 35.3869C29.2175 35.3869 29.248 35.4008 29.2585 35.4178C29.2725 35.4404 29.3295 35.446 29.431 35.4347C29.513 35.4265 29.5565 35.4291 29.5265 35.4404C29.491 35.4548 29.5345 35.463 29.6495 35.4661C29.748 35.4661 29.8515 35.4774 29.882 35.4856C29.9255 35.4995 29.928 35.4969 29.8955 35.4712C29.8625 35.4486 29.8735 35.4429 29.9505 35.4404C30.002 35.4404 30.0565 35.4517 30.073 35.4661C30.0865 35.4799 30.174 35.4995 30.2645 35.5051C30.3655 35.5164 30.412 35.5108 30.3875 35.4969C30.3575 35.4774 30.368 35.4712 30.4285 35.4712C30.4732 35.4723 30.5172 35.4839 30.557 35.5051C30.595 35.536 30.491 35.5786 29.901 35.7847C29.505 35.9224 29.1067 36.0533 28.7065 36.1773C28.4365 36.2564 27.98 36.3834 27.6955 36.4599C27.4085 36.536 27.2065 36.5987 27.242 36.5987C27.2775 36.5987 27.302 36.6069 27.297 36.6151C27.291 36.6233 26.9605 36.5894 26.562 36.5416C26.0646 36.4803 25.5679 36.4135 25.072 36.3412C24.6515 36.2796 24.252 36.2199 24.187 36.2086C24.1215 36.1973 24.064 36.1804 24.0585 36.1691C24.053 36.1578 24.075 36.1408 24.1075 36.1352C24.143 36.1264 24.3125 36.1012 24.4845 36.0755C24.657 36.0534 25.0145 35.9938 25.277 35.946C25.5924 35.8907 25.9068 35.8293 26.22 35.7621C26.5827 35.6835 26.9444 35.5997 27.305 35.5108Z" fill="#5D6199"/>
<path d="M52.9728 3.89982C52.9594 3.67152 52.9403 3.44362 52.9153 3.21635V3.21378C52.9043 3.15982 52.9098 3.13721 52.9373 3.13721C52.9563 3.13721 53.2188 3.23073 53.5193 3.34636C53.8198 3.46198 54.3143 3.65675 54.6178 3.78419C54.9796 3.9347 55.3394 4.0899 55.6973 4.24978C55.9868 4.37979 56.4898 4.61721 56.8118 4.77497C57.2017 4.96888 57.5889 5.16846 57.9733 5.37365C58.3036 5.55386 58.6316 5.73836 58.9573 5.92711C59.1813 6.06021 59.5583 6.28889 59.7908 6.43586C60.0228 6.58232 60.4548 6.87061 60.7473 7.07103C61.0393 7.27144 61.5368 7.6363 61.8538 7.88143C62.1449 8.10655 62.432 8.33715 62.7148 8.57312C62.8733 8.71187 63.1438 8.95186 63.3158 9.10757C63.4878 9.26533 63.8513 9.62146 64.1218 9.9005C64.4121 10.2027 64.6938 10.5135 64.9663 10.8327C65.1578 11.067 65.4418 11.4288 65.5948 11.6374C65.7508 11.8461 65.9748 12.1709 66.0948 12.3574C66.2153 12.5439 66.3953 12.8405 66.4938 13.0126C66.5948 13.1873 66.7698 13.5214 66.8818 13.7552C66.9938 13.9864 67.1468 14.3287 67.2208 14.5096C67.2943 14.693 67.4118 15.0091 67.4778 15.2095C67.5433 15.4099 67.6418 15.7542 67.6963 15.9721C67.7508 16.1895 67.8193 16.5004 67.8493 16.6638C67.8793 16.8282 67.9258 17.1381 67.9503 17.356C67.9858 17.6412 67.9998 17.9521 67.9998 18.4711C68.0023 18.8781 67.9858 19.3268 67.9668 19.502C67.9478 19.6716 67.9068 19.965 67.8768 20.1516C67.8348 20.3978 67.7855 20.6427 67.7288 20.8859C67.669 21.1324 67.6025 21.3771 67.5293 21.6197C67.4693 21.8063 67.3628 22.1115 67.2918 22.2981C67.1951 22.5458 67.0912 22.7905 66.9803 23.0319C66.8635 23.2799 66.7405 23.5248 66.6113 23.7663C66.4437 24.0574 66.2696 24.3445 66.0893 24.6275C65.9038 24.9153 65.6468 25.291 65.5158 25.4605C65.3873 25.6301 65.1493 25.9292 64.9883 26.124C64.8298 26.3192 64.4988 26.6862 64.2583 26.9405C63.9964 27.2158 63.7276 27.4842 63.4523 27.7453C63.2503 27.9344 63.0043 28.1574 62.9058 28.2448C62.5629 28.5417 62.2121 28.8289 61.8538 29.1061C61.6733 29.2474 61.4028 29.4504 61.2528 29.5609C61.1023 29.6683 60.8318 29.8599 60.6513 29.9843C60.4713 30.1087 60.1458 30.3235 59.9273 30.4643C59.7088 30.603 59.3153 30.843 59.0528 31.0013C58.7903 31.1565 58.3178 31.4247 58.0008 31.5974C57.6838 31.769 57.1508 32.046 56.8118 32.21C56.4733 32.3765 55.9623 32.6159 55.6778 32.7465C55.3938 32.8734 54.9128 33.0825 54.6123 33.2064C54.3118 33.3307 53.8443 33.5173 53.5738 33.6216C53.3033 33.7259 52.7733 33.9181 52.3988 34.0507C52.0218 34.1807 51.4203 34.3811 51.0598 34.4973C50.6988 34.6103 50.1523 34.7768 49.8438 34.8642C49.5348 34.9516 48.9448 35.1098 48.5318 35.2172C48.1193 35.3246 47.4718 35.4824 47.0973 35.5672C46.7203 35.652 46.1323 35.7789 45.7858 35.8498C45.4388 35.9177 44.8238 36.0333 44.4193 36.1042C44.0148 36.1746 43.4218 36.2707 43.1078 36.3185C42.7908 36.3663 42.1893 36.4485 41.7688 36.502C41.3478 36.5559 40.6893 36.632 40.3068 36.6715C39.429 36.7571 38.5499 36.8277 37.6698 36.8833C37.3828 36.8977 36.8553 36.9228 36.4948 36.9398C36.1338 36.9542 35.5353 36.9768 35.1613 36.9881C34.7158 37.002 34.4863 37.002 34.4863 36.9824C34.4863 36.9681 34.6913 36.8468 34.9423 36.7193C35.1968 36.5898 35.5848 36.3807 35.8113 36.2568C36.0353 36.1294 36.3988 35.9228 36.6178 35.7959C36.9678 35.5903 37.0358 35.559 37.1913 35.5446C37.2898 35.5333 37.4863 35.5194 37.6288 35.5138C37.7708 35.505 37.9728 35.4942 38.0798 35.4855C38.1833 35.4798 38.3798 35.466 38.5168 35.4572C38.6508 35.4521 38.8418 35.4346 38.9403 35.4233C39.0388 35.4151 39.1263 35.4063 39.1373 35.4094C39.1508 35.412 39.2903 35.4007 39.4513 35.3837C39.6153 35.3668 39.7818 35.3498 39.8283 35.3442C39.8723 35.3416 40.0283 35.3303 40.1703 35.3185C40.3123 35.3077 40.4488 35.2933 40.4703 35.2876C40.5426 35.273 40.6158 35.2636 40.6893 35.2594C40.7878 35.2512 40.9653 35.2311 41.0853 35.2172C41.2053 35.2003 41.3643 35.1833 41.4403 35.1751C41.5143 35.1664 41.6758 35.1468 41.7958 35.1299C41.9158 35.1129 42.0503 35.0929 42.0968 35.0872C42.1403 35.0821 42.2333 35.0703 42.3018 35.059C42.3698 35.0507 42.4548 35.0394 42.4928 35.0333C42.5313 35.0281 42.6293 35.0137 42.7113 35.0055C42.7933 34.9968 42.8918 34.9829 42.9303 34.9747L43.0393 34.949C43.0593 34.9438 43.1373 34.9341 43.2188 34.9238L43.2443 34.9207C43.3343 34.9125 43.5558 34.8786 43.7363 34.8472C43.9163 34.8164 44.0998 34.7856 44.1463 34.7768C44.1898 34.7681 44.2528 34.7599 44.2828 34.7542C44.3128 34.7486 44.3918 34.7342 44.4603 34.7234C44.5288 34.7147 44.7118 34.6807 44.8703 34.6494C45.0288 34.6186 45.1928 34.5877 45.2393 34.5821L45.2518 34.5795C45.3128 34.5677 45.4888 34.5332 45.6628 34.4973C45.8513 34.4577 46.0343 34.4207 46.0728 34.4125C46.1108 34.4068 46.2583 34.3755 46.4008 34.3416C46.5428 34.3107 46.6903 34.2799 46.7283 34.2742L46.7398 34.2717C46.8033 34.2573 47.0433 34.2049 47.3023 34.1442C47.6245 34.0696 47.9452 33.9886 48.2643 33.9012C48.2992 33.8936 48.3339 33.885 48.3683 33.8755C48.3983 33.8672 48.4473 33.8559 48.4773 33.8477C48.5632 33.8236 48.6499 33.803 48.7373 33.7861C48.7808 33.7768 48.8408 33.7604 48.8653 33.746C48.8928 33.7316 48.9148 33.7259 48.9148 33.7347C48.9148 33.7429 48.9718 33.729 49.0433 33.7038C49.1168 33.6812 49.2043 33.6524 49.2423 33.6473C49.2808 33.6386 49.4148 33.6021 49.5433 33.5625C49.6718 33.5229 49.8053 33.4859 49.8433 33.4777C49.8717 33.4724 49.8994 33.4638 49.9258 33.452C49.9513 33.4377 49.9791 33.4281 50.0078 33.4238C50.0458 33.4155 50.1443 33.3904 50.2263 33.3647C50.3083 33.3421 50.6418 33.2377 50.9643 33.136C51.1751 33.0716 51.3847 33.0029 51.5928 32.9299C51.6143 32.9186 51.7813 32.8621 51.9613 32.803C52.1418 32.7434 52.3193 32.6843 52.3578 32.6673L52.4533 32.6303C52.4658 32.6278 52.5868 32.5846 52.7293 32.5337L52.7678 32.5203C52.9263 32.4638 53.1283 32.3847 53.2188 32.3456C53.3088 32.3086 53.4018 32.2721 53.4233 32.2691C53.4453 32.2634 53.5083 32.2408 53.5603 32.2182C53.6123 32.1925 53.7158 32.1503 53.7923 32.1252C53.8663 32.0969 53.9838 32.0486 54.0518 32.0203C54.1203 31.9895 54.1998 31.9525 54.2298 31.9412C54.2598 31.9273 54.3938 31.8739 54.5303 31.8199C54.6643 31.7665 54.9728 31.6334 55.2133 31.5234C55.4538 31.416 55.7108 31.2973 55.7873 31.2639C55.8613 31.2269 56.2053 31.0578 56.5523 30.8882C56.8968 30.7187 57.1918 30.5691 57.2083 30.5578C57.2248 30.5434 57.3943 30.4504 57.5908 30.3461C57.7848 30.2412 58.0253 30.1117 58.1183 30.0552C58.2138 29.9956 58.3343 29.9252 58.3858 29.8944C58.4378 29.863 58.5553 29.7952 58.6513 29.7417C58.7438 29.6904 58.8698 29.6148 58.9298 29.5722C58.9898 29.53 59.0583 29.4874 59.0803 29.4761C59.1018 29.4648 59.1538 29.4339 59.1948 29.4057C59.2358 29.38 59.4188 29.2618 59.5993 29.1456C59.7798 29.03 59.9273 28.9257 59.9273 28.9113C59.9273 28.9 59.9463 28.8918 59.9683 28.8918C59.9903 28.8918 60.0093 28.8774 60.0093 28.8635C60.0093 28.8491 60.0283 28.8352 60.0503 28.8352C60.0723 28.8352 60.0913 28.8209 60.0913 28.807C60.0913 28.7926 60.1023 28.7787 60.1183 28.7787C60.1348 28.7787 60.2278 28.7191 60.3288 28.6461C60.4328 28.5727 60.5173 28.5023 60.5203 28.4904C60.5258 28.4766 60.5393 28.4678 60.5558 28.4678C60.5784 28.4657 60.5996 28.4558 60.6158 28.4396C60.6348 28.4257 60.7553 28.3327 60.8838 28.2366C61.0123 28.1405 61.1323 28.0444 61.1513 28.0248C61.1708 28.0048 61.1953 27.9878 61.2063 27.9878C61.2173 27.9878 61.2553 27.9596 61.2938 27.9262C61.3318 27.8892 61.4113 27.8239 61.4713 27.7792C61.5313 27.734 61.5998 27.6775 61.6213 27.6574C61.6433 27.6379 61.6953 27.5896 61.7338 27.5557C61.7743 27.5217 61.8538 27.4544 61.9113 27.4092C62.1378 27.2167 62.36 27.019 62.5778 26.8162C62.6463 26.7509 62.7748 26.624 62.8648 26.5335C62.9553 26.4431 63.0043 26.3866 62.9743 26.4092C62.9223 26.4462 62.9223 26.4462 62.9603 26.3979C62.9823 26.3696 63.0123 26.3501 63.0288 26.3501C63.0453 26.3501 63.0753 26.33 63.0973 26.3049C63.1328 26.2596 63.1328 26.2571 63.0973 26.2792C63.0753 26.291 63.1353 26.2175 63.2338 26.1157C63.3323 26.014 63.4168 25.9349 63.4253 25.9436C63.4333 25.9487 63.5073 25.8758 63.5888 25.7792C63.6708 25.6836 63.7638 25.5787 63.7938 25.5453C63.8238 25.5145 63.9088 25.4128 63.9853 25.3223C64.0593 25.2288 64.1683 25.0962 64.2258 25.0258C64.2803 24.9549 64.3458 24.8762 64.3678 24.8536C64.3898 24.831 64.4088 24.794 64.4088 24.7745C64.4088 24.7575 64.4198 24.7406 64.4363 24.7406C64.4528 24.7406 64.4883 24.6979 64.5153 24.6471C64.5499 24.5914 64.5872 24.5377 64.6273 24.4862C64.708 24.3812 64.7846 24.2728 64.8568 24.1614C64.9528 24.0201 65.0508 23.8623 65.0813 23.8084C65.1083 23.7549 65.1578 23.6789 65.1878 23.6388C65.2178 23.5997 65.2723 23.5037 65.3108 23.4271C65.3488 23.3479 65.3873 23.2806 65.3953 23.2719C65.4063 23.2637 65.4198 23.2297 65.4308 23.1927C65.441 23.1564 65.4588 23.1227 65.4828 23.0941C65.5048 23.0771 65.5893 22.9132 65.6768 22.7354C65.7643 22.5576 65.8898 22.278 65.9583 22.1141C66.1315 21.6731 66.2802 21.2224 66.4038 20.7641C66.4338 20.6459 66.4638 20.5072 66.4718 20.4619C66.4828 20.4172 66.4938 20.352 66.5023 20.3211C66.5073 20.2903 66.5378 20.132 66.5678 19.9681C66.5948 19.8042 66.6278 19.5698 66.6388 19.4455C66.6468 19.3211 66.6608 19.1747 66.6658 19.1207C66.6713 19.0672 66.6768 18.7815 66.6768 18.4855C66.6768 18.189 66.6713 17.8925 66.6633 17.8216C66.6549 17.7226 66.6449 17.6237 66.6333 17.5251C66.625 17.4545 66.6168 17.3839 66.6088 17.3133C66.6033 17.2907 66.5923 17.2059 66.5813 17.1299C66.5646 17.0118 66.5455 16.8941 66.5238 16.7768C66.4993 16.6612 66.4773 16.5343 66.4693 16.4942C66.4643 16.4652 66.4561 16.437 66.4448 16.4099C66.4328 16.373 66.4237 16.3352 66.4173 16.2969C66.3984 16.2015 66.3747 16.1071 66.3463 16.0142C66.3205 15.9303 66.2968 15.8456 66.2753 15.7604C66.2691 15.7215 66.254 15.6847 66.2313 15.653C66.2123 15.6334 66.2068 15.6165 66.2178 15.6191C66.2313 15.6191 66.2123 15.5456 66.1823 15.4551C66.1586 15.3865 66.1285 15.3204 66.0923 15.2578C66.0758 15.2377 66.0703 15.2208 66.0813 15.2239C66.0948 15.2239 66.0893 15.1956 66.0703 15.1586C66.0543 15.1302 66.0413 15.1 66.0318 15.0687C66.0318 15.0543 66.0018 14.9813 65.9693 14.9042C65.9472 14.8536 65.9272 14.802 65.9093 14.7496C65.9093 14.7382 65.8593 14.638 65.8038 14.5255L65.7998 14.5178C65.7398 14.4022 65.6933 14.2891 65.6933 14.2691C65.6933 14.2521 65.6768 14.2187 65.6578 14.1987C65.6383 14.1817 65.5868 14.0887 65.5428 13.9952C65.5148 13.932 65.4829 13.8707 65.4473 13.8117C65.4278 13.7801 65.4104 13.7471 65.3953 13.713C65.3201 13.5685 65.2391 13.4272 65.1523 13.2896C65.0308 13.0878 64.9031 12.89 64.7693 12.6966L64.7438 12.6601C64.6558 12.5367 64.5798 12.4293 64.5673 12.4139C64.5538 12.397 64.4938 12.3153 64.4308 12.2305C64.3708 12.1457 64.2693 12.01 64.2093 11.934C64.0394 11.724 63.8664 11.5167 63.6903 11.3122C63.6718 11.2957 63.6703 11.3003 63.6848 11.3265C63.6983 11.3492 63.7013 11.3635 63.6903 11.3548C63.6805 11.3452 63.6746 11.3322 63.6738 11.3183C63.6708 11.307 63.5453 11.1631 63.3923 10.9935C63.243 10.8334 63.0908 10.6762 62.9358 10.5218C62.8378 10.4288 62.7693 10.3722 62.7858 10.3949C62.8018 10.4257 62.8018 10.4313 62.7748 10.4144C62.7583 10.4031 62.7418 10.3779 62.7418 10.3579C62.7418 10.3414 62.6463 10.2366 62.5313 10.1266C62.3955 9.9973 62.2561 9.87203 62.1133 9.75096C62.0221 9.66897 61.9293 9.58896 61.8348 9.51097C61.7702 9.45649 61.7063 9.40099 61.6433 9.34447C61.5778 9.28486 61.5038 9.23142 61.4768 9.22268C61.4523 9.21446 61.4303 9.20058 61.4303 9.18619C61.4328 9.17489 61.3783 9.12967 61.3153 9.08187C61.2498 9.03665 61.1298 8.94312 61.0478 8.87837C60.9894 8.82923 60.9301 8.78125 60.8698 8.73449C60.8538 8.72318 60.7388 8.6353 60.6103 8.54229C60.4818 8.44928 60.2253 8.26839 60.0368 8.14146C59.8478 8.01401 59.6843 7.89839 59.6678 7.88708L59.6618 7.88348C59.5937 7.83588 59.5246 7.78996 59.4543 7.74576C59.3533 7.68101 59.2603 7.62757 59.2443 7.62757C59.237 7.62753 59.2297 7.62539 59.2235 7.6214C59.2172 7.61741 59.2121 7.61172 59.2088 7.60496C59.2058 7.59057 59.0253 7.47186 58.8068 7.33671C58.5883 7.20361 58.3343 7.05407 58.2438 7.00062C58.1508 6.94923 57.9843 6.85673 57.8748 6.79147C57.7628 6.7298 57.5498 6.61367 57.3993 6.53761C57.2493 6.46104 57.1233 6.39064 57.1183 6.37625C57.1153 6.36494 57.1018 6.35672 57.0853 6.35672C57.0688 6.35672 56.7958 6.22414 56.4758 6.06278C56.186 5.91406 55.8926 5.77286 55.5958 5.63933C55.4293 5.56585 55.2708 5.49544 55.2408 5.48105C55.2108 5.46718 55.1423 5.43892 55.0903 5.41322C55.0055 5.37601 54.9208 5.33833 54.8363 5.30017C54.7812 5.27266 54.7246 5.2483 54.6668 5.22719C54.6588 5.22719 54.6068 5.20715 54.5493 5.18197L54.3388 5.08279C54.2905 5.05736 54.2403 5.03572 54.1888 5.01804C54.1391 5.00322 54.0906 4.98431 54.0438 4.96151C54.0006 4.94002 53.9546 4.9248 53.9073 4.91629C53.8852 4.91453 53.8641 4.90553 53.8473 4.8906C53.7946 4.86106 53.7398 4.83564 53.6833 4.81454L53.5328 4.75801C53.5248 4.75801 53.4973 4.74722 53.4698 4.73848C53.4453 4.72718 53.4018 4.71022 53.3743 4.69892C53.3498 4.69069 53.3223 4.67939 53.3143 4.6763C53.2728 4.65989 53.2317 4.64206 53.1913 4.62286C53.142 4.6002 53.0908 4.58214 53.0383 4.5689C53.0138 4.56633 52.9973 4.55194 53.0053 4.53498C53.0108 4.51803 52.9973 4.23282 52.9728 3.89982Z" fill="#4A4E8A"/>
<path d="M33.7105 1.06735C33.6243 0.839958 33.5323 0.614966 33.4345 0.392611L33.265 0.00256944L34.473 0L34.6695 0.502583C34.758 0.723238 34.8429 0.945443 34.924 1.1691C34.954 1.25646 34.973 1.34999 34.965 1.3726C34.954 1.40908 34.8665 1.41474 34.3855 1.41217C34.063 1.40908 33.8525 1.39778 33.981 1.36386L33.899 1.36129C33.82 1.35821 33.8115 1.34433 33.7105 1.06735ZM5.09148 8.75975C5.09398 8.74279 5.31797 8.54803 5.58847 8.32192C5.96047 8.0141 6.08598 7.92417 6.10798 7.94935C6.12448 7.96939 6.14597 8.0881 6.15697 8.20938C6.17048 8.33322 6.21198 8.62408 6.24698 8.85585L6.32648 9.33582C6.33748 9.37847 6.30748 9.41804 6.21148 9.49101C6.14048 9.54754 6.06398 9.60972 6.03948 9.63233C6.01448 9.65803 5.94648 9.71456 5.88948 9.75926C5.82948 9.80757 5.72497 9.90315 5.65697 9.9715C5.58848 10.0419 5.52598 10.0953 5.51498 10.0928C5.50098 10.0897 5.49848 10.0979 5.50648 10.1123C5.51498 10.1293 5.49598 10.1493 5.46548 10.155C5.43548 10.1632 5.41647 10.1832 5.42447 10.1971C5.43297 10.2141 5.42998 10.2279 5.41948 10.2279C5.40548 10.2279 5.36998 10.1097 5.33748 9.96585C5.30448 9.82196 5.24748 9.53058 5.20898 9.31629C5.17048 9.10149 5.13748 8.89542 5.13748 8.85585C5.13748 8.81936 5.12698 8.78545 5.11048 8.78545C5.09698 8.78545 5.08548 8.77414 5.09148 8.75975Z" fill="#A7ABD0"/>
<path d="M51.008 3.17992C50.9695 2.80684 50.945 2.49337 50.953 2.48206C50.9615 2.46819 50.975 2.45945 50.986 2.46253C50.997 2.46253 51.2075 2.53037 51.456 2.61207C51.781 2.71948 51.904 2.77292 51.8985 2.80119C51.893 2.8238 51.915 3.13162 51.948 3.49031C51.978 3.84901 52.0105 4.15682 52.016 4.17635C52.0245 4.19331 52.0215 4.20462 52.0105 4.19896C51.8578 4.14536 51.7048 4.09277 51.5515 4.0412C51.311 3.95898 51.106 3.88549 51.095 3.87419C51.0845 3.86596 51.046 3.55249 51.008 3.17992ZM32.6085 35.686C32.6935 35.6464 32.7645 35.5986 32.7645 35.5842C32.7645 35.5703 32.808 35.556 32.86 35.556C32.915 35.556 32.95 35.5673 32.942 35.5842C32.934 35.6043 33.259 35.6125 34.855 35.615L34.445 35.8299C34.221 35.9486 33.803 36.1546 33.516 36.2903C33.2315 36.426 32.792 36.6238 32.5405 36.7307C32.2615 36.8494 32.0975 36.9342 32.117 36.9486C32.136 36.9594 32.021 36.9625 31.8625 36.9568C31.704 36.9486 31.409 36.9342 31.207 36.926C30.9017 36.9128 30.5966 36.8977 30.2915 36.8808C29.991 36.8607 29.726 36.8381 29.704 36.8268C29.6765 36.8129 29.723 36.7903 29.8405 36.7564C29.939 36.7307 30.294 36.6068 30.633 36.4825C31.0406 36.3307 31.446 36.1726 31.849 36.0082C32.1795 35.8694 32.521 35.7255 32.6085 35.686Z" fill="#545892"/>
<path d="M50.0731 2.70843C50.0181 2.32147 50.0101 2.20276 50.0376 2.19711C50.0566 2.19197 50.1521 2.2115 50.2506 2.23976L50.6986 2.36978C50.8791 2.42014 50.9581 2.45714 50.9501 2.47975C50.9421 2.49928 50.9666 2.81275 51.0046 3.17144C51.0431 3.53322 51.0786 3.84669 51.0866 3.86314C51.0976 3.8914 51.0731 3.88883 50.9911 3.858L50.9806 3.85389C50.9251 3.83333 50.8791 3.81535 50.8761 3.81792C50.8316 3.81186 50.7878 3.80154 50.7451 3.78708C50.7003 3.77325 50.6547 3.76193 50.6086 3.75317C50.6001 3.75317 50.5841 3.74494 50.5676 3.73056C50.5389 3.71056 50.5063 3.69707 50.4721 3.69099C50.4336 3.68276 50.3491 3.66015 50.1576 3.60362L50.1496 3.40578C50.1315 3.17253 50.106 2.93996 50.0731 2.70843ZM29.8946 35.7911C30.2776 35.6554 30.6466 35.5393 30.7146 35.5279C30.7831 35.5166 30.9031 35.5053 30.9826 35.5028C31.0616 35.5028 31.1246 35.5115 31.1246 35.5285C31.1246 35.548 31.2476 35.548 31.4796 35.5336C31.7861 35.5172 31.8351 35.5197 31.8351 35.5562C31.8351 35.5932 31.8901 35.5958 32.2641 35.5732C32.6191 35.5536 32.6986 35.5562 32.7151 35.5876C32.7261 35.6158 32.7011 35.641 32.6331 35.6723C31.9739 35.9615 31.307 36.2317 30.6331 36.4827C30.2941 36.6071 29.9386 36.731 29.8401 36.7567C29.7116 36.7931 29.6736 36.8132 29.7036 36.8301C29.7311 36.8471 29.7061 36.8497 29.6351 36.8414C29.5751 36.8327 29.3431 36.8132 29.1161 36.7988C28.8921 36.7818 28.4361 36.7423 28.1051 36.714C27.7746 36.6832 27.4351 36.6436 27.2031 36.5927L27.7086 36.4601C27.9876 36.3841 28.4356 36.2597 28.7061 36.1775C29.1048 36.0565 29.5007 35.9277 29.8946 35.7911Z" fill="#585C95"/>
<path d="M51.9485 3.46223C51.918 3.12049 51.899 2.82398 51.91 2.80137C51.9137 2.79174 51.9208 2.78385 51.9298 2.77913C51.9388 2.77441 51.9491 2.77318 51.959 2.77567C51.9755 2.78441 52.1995 2.86355 52.454 2.95399C52.891 3.10919 52.9185 3.12358 52.921 3.19141C52.924 3.23047 52.9455 3.54394 52.9705 3.88567C52.995 4.22741 53.022 4.52392 53.0305 4.54345C53.036 4.56401 52.9785 4.55219 52.872 4.50748C52.7974 4.47598 52.7217 4.44752 52.645 4.42217L52.585 4.41087C52.5795 4.4083 52.5715 4.41087 52.5685 4.41652C52.563 4.41961 52.5415 4.4083 52.5195 4.39134C52.4728 4.36264 52.4234 4.33904 52.372 4.32094C52.3115 4.3009 52.257 4.28137 52.249 4.28137C52.2405 4.27829 52.216 4.26698 52.194 4.25876C52.1725 4.24745 52.1205 4.22792 52.0795 4.21045C52.0355 4.19349 52.003 4.15958 52.003 4.1344C52.003 4.10613 51.9785 3.80397 51.9485 3.46223ZM36.5905 35.5618C36.749 35.5536 36.8885 35.5361 36.8995 35.5222C36.913 35.5109 36.9325 35.4996 36.943 35.4996C36.957 35.4996 36.9625 35.514 36.957 35.5279C36.9515 35.5423 36.962 35.5561 36.9815 35.5561C36.998 35.5561 36.9265 35.6101 36.823 35.6723C36.2666 36.0042 35.7015 36.3205 35.1285 36.6209C34.7815 36.8018 34.492 36.9627 34.481 36.9796C34.4675 37.0022 34.1395 37.0053 33.3195 36.9935C32.691 36.9853 32.1555 36.9652 32.131 36.9513C32.0955 36.9318 32.191 36.8809 32.541 36.7309C32.8589 36.5934 33.175 36.4512 33.489 36.3044C33.8037 36.1551 34.1163 36.001 34.4265 35.8419C34.8335 35.6327 34.8825 35.6127 35.033 35.6127C35.1285 35.6127 35.205 35.5988 35.219 35.5787C35.2325 35.5561 35.3665 35.5505 35.724 35.5649C36.0415 35.5787 36.208 35.5762 36.208 35.5561C36.208 35.5392 36.2765 35.5304 36.3665 35.5304C36.5195 35.5366 36.5195 35.5366 36.413 35.5561C36.353 35.5705 36.432 35.5731 36.5905 35.5618Z" fill="#4F538E"/>
<path d="M31.1115 0.0589692C31.4725 0.0420109 31.8605 0.0250525 31.9725 0.0224831C32.0845 0.0168303 32.4205 0.0111775 33.2565 0.00244141L33.3825 0.279428C33.4535 0.428969 33.5765 0.722914 33.6555 0.9259C33.7375 1.13197 33.803 1.31594 33.803 1.32982C33.803 1.34421 33.7705 1.35808 33.653 1.36373L33.721 1.38943C33.7625 1.4033 33.4725 1.40587 33.019 1.40073C32.5135 1.392 32.2455 1.39508 32.2455 1.41461C32.2455 1.43157 32.1665 1.44287 32.0625 1.4403C31.945 1.4403 31.896 1.43157 31.9315 1.41718C31.9615 1.40587 31.863 1.40073 31.7125 1.40896C31.5625 1.41461 31.437 1.43157 31.434 1.44544C31.429 1.45983 31.382 1.47114 31.33 1.47114C31.2785 1.47114 31.235 1.4624 31.235 1.45109C31.235 1.43722 31.1445 1.43414 31.035 1.43979C30.9285 1.44287 30.8275 1.45983 30.811 1.47371C30.7975 1.48809 30.748 1.4994 30.7015 1.4994C30.6365 1.4994 30.628 1.49375 30.6605 1.46857C30.6905 1.44801 30.6715 1.44287 30.5925 1.45675C30.536 1.46497 30.443 1.47268 30.3775 1.47833L30.3655 1.47936C30.3025 1.48244 30.2505 1.49375 30.2505 1.50762C30.2505 1.51893 30.2315 1.52766 30.21 1.52766C30.188 1.52766 30.169 1.51893 30.169 1.50762C30.169 1.49375 30.098 1.49066 30.0105 1.49632C29.9255 1.50197 29.852 1.51893 29.849 1.53023C29.844 1.54462 29.822 1.55593 29.8 1.55593C29.778 1.55593 29.759 1.54154 29.759 1.52766C29.759 1.51327 29.7315 1.50505 29.699 1.51327C29.663 1.51893 29.5185 1.53332 29.3765 1.54154C29.234 1.55284 29.0675 1.56415 29.0075 1.5698C28.9475 1.57546 28.805 1.58676 28.693 1.5955C28.5655 1.60522 28.438 1.6155 28.3105 1.62633C28.2102 1.63506 28.11 1.64534 28.01 1.65716C27.9415 1.6659 27.8325 1.67721 27.764 1.68286C27.696 1.69159 27.5725 1.70239 27.491 1.71112C27.409 1.71934 27.2805 1.73373 27.204 1.74196C27.13 1.75069 27.037 1.762 26.999 1.76457C26.9605 1.77022 26.8515 1.78152 26.753 1.79283C26.6545 1.80414 26.5205 1.81852 26.4525 1.82983C26.3886 1.83781 26.3248 1.84638 26.261 1.85552C26.223 1.85809 26.138 1.8694 26.07 1.87762L25.8375 1.90846C25.7775 1.91719 25.69 1.93158 25.646 1.9398C25.6025 1.94546 25.466 1.9655 25.346 1.97937C25.2255 1.99633 25.078 2.01329 25.0175 2.02151C24.9575 2.03025 24.8785 2.04412 24.84 2.05234C24.7767 2.0652 24.713 2.07565 24.649 2.08369C24.5805 2.08934 24.3045 2.13508 24.034 2.17979C23.7635 2.22809 23.493 2.27023 23.4325 2.27897C23.3725 2.28719 23.315 2.30107 23.3045 2.30672C23.2595 2.31858 23.2137 2.32716 23.1675 2.33241C23.1096 2.34027 23.0521 2.35159 22.9955 2.36633C22.9655 2.37455 22.9165 2.38586 22.8865 2.39202C22.8565 2.39459 22.788 2.4059 22.736 2.41721C22.684 2.42851 22.616 2.4429 22.586 2.44804C22.556 2.45369 22.4875 2.465 22.4355 2.47373C22.3835 2.48196 22.274 2.49943 22.1975 2.51587C22.147 2.52362 22.097 2.53391 22.0475 2.54671C22.042 2.54671 21.96 2.56675 21.8615 2.58936C21.763 2.61197 21.6595 2.63715 21.629 2.6428C21.599 2.65154 21.531 2.66284 21.479 2.67107C21.427 2.6798 21.334 2.69933 21.274 2.71937C21.214 2.73633 21.121 2.75586 21.069 2.76151C21.02 2.76703 20.972 2.78038 20.927 2.80108C20.8995 2.81547 20.8695 2.82112 20.8585 2.81547C20.845 2.80673 20.7985 2.81547 20.755 2.82934C20.7103 2.84597 20.6645 2.85919 20.618 2.86891C20.558 2.87914 20.4988 2.89321 20.4405 2.91105C20.3819 2.92824 20.3227 2.94333 20.263 2.95627C20.233 2.96193 20.17 2.97632 20.126 2.98454C20.0825 2.99327 19.976 3.01846 19.894 3.04107C19.812 3.06676 19.6205 3.11764 19.4705 3.15721C19.3205 3.19369 19.1535 3.23583 19.1015 3.24714C19.0589 3.25439 19.0175 3.26771 18.9785 3.28671C18.9297 3.30568 18.8795 3.3208 18.8285 3.33193C18.76 3.34632 18.6805 3.36276 18.6505 3.3715C18.6205 3.38023 18.473 3.4198 18.3225 3.46194C18.1725 3.50408 17.981 3.56061 17.899 3.5863C17.817 3.61457 17.694 3.65414 17.626 3.67366C17.5575 3.69371 17.4485 3.72505 17.38 3.74715C17.3115 3.76719 17.172 3.8119 17.0655 3.84325C16.959 3.87716 16.8555 3.91108 16.8335 3.9193C16.8163 3.92893 16.7977 3.9357 16.7785 3.93934L16.56 4.00975C16.2019 4.12479 15.8466 4.24902 15.4945 4.38232C15.4548 4.40034 15.4137 4.41461 15.3715 4.42497C15.3415 4.42754 15.2595 4.45889 15.1885 4.4928C15.1145 4.52364 15.0435 4.54933 15.03 4.54933C15.016 4.54933 14.945 4.57759 14.874 4.60843C14.8 4.64234 14.724 4.67318 14.702 4.67626C14.68 4.67883 14.576 4.7184 14.4695 4.75848C14.363 4.80062 14.2485 4.84841 14.21 4.86537C14.1834 4.87929 14.156 4.89164 14.128 4.90237L14.0595 4.92755C14.0295 4.93886 13.926 4.981 13.8275 5.02057C13.729 5.06014 13.6115 5.10793 13.5675 5.12848C13.524 5.14801 13.4475 5.17884 13.404 5.19889C13.36 5.21841 13.308 5.23794 13.2945 5.24359C13.281 5.24668 13.1195 5.31451 12.9395 5.39622C12.759 5.47536 12.6005 5.55193 12.5845 5.56015C12.5716 5.56929 12.5576 5.57688 12.543 5.58276C12.5148 5.59034 12.4873 5.60067 12.461 5.61359C12.423 5.63055 12.308 5.68451 12.2015 5.73539C12.095 5.78318 11.8815 5.8875 11.7235 5.96407C11.565 6.04321 11.2885 6.18144 11.1085 6.27446C10.9285 6.36798 10.6465 6.51752 10.48 6.60797C10.313 6.6979 10.111 6.81096 10.029 6.85926C9.947 6.91014 9.8325 6.97232 9.775 6.9975C9.7175 7.02576 9.674 7.05659 9.674 7.0679C9.674 7.08229 9.63 7.10182 9.578 7.11929C9.526 7.13573 9.4825 7.15834 9.4825 7.17582C9.4825 7.19226 9.436 7.22361 9.3815 7.24622C9.32668 7.26796 9.27367 7.29425 9.223 7.32484C9.1955 7.34232 9.1545 7.37623 9.133 7.39268C9.11205 7.41346 9.08495 7.42648 9.056 7.42968C9.0345 7.42968 9.018 7.44098 9.018 7.45794C9.018 7.4749 8.988 7.49186 8.9495 7.50008C8.9115 7.50882 8.8815 7.52577 8.8815 7.54273C8.8815 7.55969 8.854 7.57922 8.8215 7.58744C8.76912 7.60768 8.72018 7.63629 8.6765 7.67223C8.6325 7.70923 8.5835 7.7375 8.567 7.7375C8.5505 7.7375 8.5205 7.75703 8.4985 7.78272C8.477 7.80841 8.406 7.85621 8.34 7.89012C8.2775 7.92404 8.225 7.96052 8.225 7.97183C8.225 7.9857 8.215 7.99444 8.198 7.99444C8.1815 7.99444 8.0945 8.04789 8.0015 8.11264C7.906 8.1779 7.8265 8.24008 7.824 8.25396C7.8185 8.26526 7.8045 8.27657 7.791 8.27657C7.76794 8.2801 7.7462 8.28986 7.728 8.30483C7.68615 8.33677 7.64514 8.36984 7.605 8.40401C7.57246 8.43317 7.53568 8.45692 7.496 8.47441C7.482 8.47441 7.4495 8.49703 7.4195 8.52221C7.3895 8.55047 7.2965 8.62139 7.2145 8.67791C7.1325 8.73701 7.0315 8.81358 6.9905 8.8475C6.94874 8.88681 6.90392 8.92256 6.8565 8.95439C6.82006 8.98011 6.78696 9.0105 6.758 9.04483C6.736 9.07309 6.7005 9.09571 6.679 9.09571C6.657 9.09571 6.635 9.11523 6.627 9.13784C6.6185 9.16046 6.594 9.1805 6.572 9.1805C6.5505 9.1805 6.531 9.18872 6.531 9.20003C6.531 9.21441 6.501 9.2396 6.463 9.25655C6.4245 9.2766 6.3945 9.31308 6.3945 9.33569C6.3945 9.3583 6.3835 9.37783 6.3675 9.37783C6.351 9.37783 6.3345 9.35573 6.3265 9.32747C6.321 9.30177 6.2855 9.08697 6.247 8.85572C6.21484 8.64902 6.1865 8.44172 6.162 8.23391C6.15577 8.15074 6.14576 8.06791 6.132 7.98571C6.127 7.95744 6.1075 7.94614 6.086 7.95744C6.0665 7.96875 6.0695 7.95487 6.094 7.92661C6.116 7.89834 6.318 7.7375 6.545 7.571C6.80226 7.38219 7.06178 7.19667 7.3235 7.01446C7.56306 6.8514 7.80458 6.69139 8.048 6.53448C8.54966 6.21409 9.05985 5.90804 9.578 5.61668C9.7885 5.50105 10.1275 5.31708 10.3295 5.21019C10.6052 5.06358 10.883 4.92139 11.163 4.78366C11.4844 4.62591 11.8078 4.47241 12.133 4.32322C12.4776 4.16703 12.8238 4.01457 13.1715 3.86586C13.464 3.7415 14.0105 3.52155 14.3875 3.37766C14.762 3.23326 15.385 3.00766 15.7675 2.872C16.2253 2.71438 16.6854 2.56363 17.1475 2.41977C17.522 2.30415 18.033 2.15152 18.2815 2.08369C18.5305 2.01329 18.899 1.91154 19.1015 1.85501C19.3035 1.80157 19.76 1.68543 20.1125 1.60115C20.465 1.51636 20.9815 1.39508 21.2605 1.3329C21.539 1.27072 21.9925 1.17462 22.2715 1.12066C22.55 1.06414 23.023 0.976775 23.3235 0.92333C23.624 0.866803 24.154 0.779441 24.4985 0.725483C25.6372 0.544727 26.7809 0.398719 27.928 0.28765C28.624 0.221067 29.3209 0.164534 30.0185 0.118066C30.2585 0.101622 30.751 0.0759275 31.1115 0.0589692Z" fill="#ACB0D4"/>
<path d="M48.2318 2.29029C48.1883 1.97117 48.1578 1.70292 48.1663 1.68904C48.1743 1.67722 48.2128 1.67722 48.2538 1.68904C48.2948 1.69726 48.4803 1.74814 48.6688 1.79593C48.9668 1.87198 49.0103 1.89203 49.0023 1.93982C48.9973 1.96808 49.0188 2.18289 49.0518 2.41722C49.0818 2.64847 49.1118 2.89719 49.1198 2.96811C49.1278 3.03851 49.1418 3.14283 49.1473 3.19936C49.1608 3.30419 49.1583 3.30676 49.0873 3.29289C49.0295 3.28464 48.972 3.27436 48.9148 3.26205C48.8722 3.25624 48.8307 3.24376 48.7918 3.22505C48.7783 3.21067 48.7428 3.20501 48.7183 3.21067C48.6908 3.21632 48.6688 3.21067 48.6688 3.19371C48.6688 3.17675 48.6443 3.1711 48.6143 3.17983C48.5843 3.18805 48.5593 3.1824 48.5593 3.16544C48.5593 3.14848 48.5353 3.14283 48.5048 3.15157C48.4748 3.15979 48.4503 3.15414 48.4503 3.13718C48.4503 3.12022 48.4228 3.11457 48.3903 3.1233C48.3328 3.13461 48.3273 3.1233 48.3193 3.00203C48.2973 2.76391 48.2681 2.52655 48.2318 2.29029ZM24.9768 35.172C25.4083 35.0985 25.5808 35.062 25.5508 35.042C25.5233 35.0224 25.5313 35.0224 25.5808 35.0368C25.6188 35.0476 25.6873 35.062 25.7308 35.0677C25.7748 35.0728 25.8403 35.0846 25.8788 35.0903C25.9303 35.1016 25.9358 35.0985 25.9058 35.0759C25.8708 35.0502 25.8708 35.0476 25.9058 35.0476C25.9308 35.0483 25.9548 35.0573 25.9743 35.0733C25.9903 35.0872 26.0698 35.1072 26.1518 35.1155C26.2338 35.1268 26.3458 35.1412 26.3978 35.1463C26.4498 35.155 26.5563 35.1668 26.6298 35.1751C26.7063 35.1833 26.7913 35.1977 26.8213 35.2059C26.8648 35.2172 26.8678 35.2146 26.8348 35.192C26.7998 35.1638 26.7998 35.1612 26.8348 35.1612C26.8597 35.1617 26.8837 35.1706 26.9033 35.1864C26.9198 35.1977 26.9743 35.2172 27.0263 35.2285C27.0943 35.2398 27.1113 35.2373 27.0813 35.2172C27.0453 35.1915 27.0453 35.1889 27.0813 35.1889C27.1061 35.1898 27.1299 35.1988 27.1493 35.2146C27.1658 35.2311 27.2558 35.2511 27.3543 35.2599C27.4528 35.2707 27.5563 35.285 27.5863 35.2907C27.6328 35.3046 27.6358 35.2989 27.6003 35.2737C27.5673 35.2455 27.5728 35.2455 27.6273 35.2593C27.6658 35.2707 27.7393 35.2876 27.7943 35.2963C27.8488 35.3077 27.9063 35.3246 27.9173 35.3359C27.9308 35.3472 27.6603 35.4233 27.3133 35.5106C26.9688 35.5954 26.4768 35.7111 26.2203 35.765C25.9658 35.819 25.5398 35.9007 25.2773 35.9485C25.0148 35.9937 24.6573 36.0533 24.4848 36.0785C24.3128 36.1011 24.1433 36.1294 24.1103 36.135C24.0753 36.1438 24.0533 36.1576 24.0588 36.172C24.0638 36.1828 23.8698 36.1576 23.6268 36.1124C23.3868 36.0703 22.9848 35.9968 22.7358 35.9516C22.4873 35.9033 22.0338 35.8128 21.7248 35.7481C21.4163 35.6833 21.1618 35.6211 21.1593 35.6067C21.1538 35.5954 21.1183 35.5841 21.0773 35.5841C21.0388 35.5841 21.0118 35.579 21.0173 35.5728C21.0223 35.5677 21.3173 35.5476 21.6703 35.5307C22.0853 35.5084 22.4999 35.4782 22.9138 35.4402C23.2438 35.4094 23.7058 35.358 23.9388 35.3272C24.1708 35.2989 24.6378 35.2285 24.9768 35.172Z" fill="#61659C"/>
<path d="M35.1009 14.1224C34.2619 14.1224 33.8359 14.1142 33.8439 14.0942C33.8549 14.0777 34.3029 14.0664 35.1009 14.0664C35.9014 14.0664 36.3494 14.0777 36.3579 14.0947C36.3659 14.1142 35.9399 14.1224 35.1009 14.1224Z" fill="#8387B5"/>
<path d="M32.7652 4.63365C31.5002 4.63365 30.8192 4.62543 30.8087 4.60539C30.7977 4.58586 31.4507 4.57764 32.7487 4.57764C34.0357 4.57764 34.7052 4.58586 34.7052 4.60539C34.7052 4.62543 34.0412 4.63365 32.7652 4.63365Z" fill="#9195C0"/>
<path d="M12.6656 29.6542C11.3621 29.6542 10.6846 29.6454 10.6846 29.6259C10.6846 29.6064 11.3596 29.5981 12.6521 29.5981C13.9366 29.5981 14.6251 29.6064 14.6336 29.6259C14.6416 29.6454 13.9776 29.6542 12.6656 29.6542ZM43.1626 29.6542C41.8506 29.6542 41.1866 29.6454 41.1951 29.6259C41.2061 29.6064 41.8946 29.5981 43.1761 29.5981C44.4686 29.5981 45.1436 29.6064 45.1436 29.6259C45.1436 29.6454 44.4661 29.6542 43.1626 29.6542Z" fill="#ACB0D4"/>
<path d="M30.3596 4.80061C30.4111 4.75848 30.5046 4.70452 30.5646 4.67934C30.6571 4.64542 30.9771 4.63668 32.7506 4.63668C34.2756 4.63411 34.8516 4.64234 34.9231 4.66495C34.9746 4.68499 35.0706 4.73586 35.1361 4.78057C35.1991 4.82323 35.2811 4.91367 35.3191 4.97842C35.3546 5.04625 35.4011 5.17061 35.4176 5.25541C35.4476 5.40443 35.4311 5.49796 35.0626 7.45793C34.8516 8.58489 34.6771 9.51349 34.6771 9.52479C34.6771 9.53918 35.3136 9.54741 36.0921 9.54741C36.8686 9.54741 37.7371 9.5618 38.0246 9.57567C38.3116 9.59263 38.7156 9.62398 38.9261 9.64916C39.1366 9.67485 39.5001 9.73138 39.7326 9.77917C39.9646 9.82439 40.2926 9.9061 40.4566 9.95697C40.6206 10.0084 40.8856 10.1096 41.0441 10.1774C41.2026 10.2478 41.4101 10.3522 41.5086 10.4087C41.6071 10.4652 41.7791 10.5783 41.8886 10.6574C42.0006 10.7396 42.1916 10.9061 42.3121 11.0325C42.4351 11.1574 42.6021 11.3604 42.6836 11.4848C42.7656 11.606 42.8886 11.8352 42.9596 11.9904C43.0306 12.1456 43.1211 12.3861 43.1591 12.5269C43.1971 12.6657 43.2521 12.9108 43.2791 13.0717C43.3041 13.2299 43.3311 13.3599 43.3391 13.3599C43.3476 13.3599 43.4131 13.0465 43.4871 12.6626C43.5606 12.2756 43.7031 11.5243 43.8071 10.9878C43.9681 10.1348 44.0006 9.99963 44.0691 9.90353C44.1101 9.84135 44.1946 9.75091 44.2551 9.70311C44.3151 9.65173 44.4271 9.59828 44.5091 9.58132C44.6156 9.55563 45.6431 9.54741 48.5231 9.54741C50.7561 9.54741 52.5896 9.55871 52.8491 9.57567C53.0976 9.59263 53.4531 9.62398 53.6416 9.64916C53.8301 9.67485 54.1361 9.72573 54.3246 9.76529C54.5131 9.80435 54.8086 9.88092 54.9806 9.93488C55.1526 9.98832 55.3986 10.0731 55.5271 10.124C55.6556 10.1744 55.8931 10.2874 56.0601 10.3722C56.2266 10.457 56.4536 10.5896 56.5656 10.6631C56.6776 10.7365 56.8746 10.8804 57.0026 10.9853C57.3391 11.2632 57.642 11.5817 57.9046 11.9339C58.0056 12.0727 58.1476 12.2895 58.2186 12.4139C58.2926 12.5382 58.3991 12.7469 58.4566 12.88C58.5166 13.0126 58.6121 13.2695 58.6726 13.4504C58.7301 13.6339 58.8091 13.9386 58.8476 14.1282C58.8831 14.3199 58.9266 14.6221 58.9456 14.8004C58.9676 15.009 58.9731 15.3595 58.9621 15.7742C58.9511 16.2547 58.9291 16.545 58.8801 16.8899C58.8421 17.1468 58.7706 17.5338 58.7246 17.7511C58.6571 18.0364 58.5795 18.319 58.4921 18.5985C58.4013 18.8802 58.2992 19.158 58.1861 19.431C58.0961 19.6402 57.9566 19.9341 57.8771 20.0811C57.8006 20.2276 57.6341 20.5076 57.5086 20.7024C57.3856 20.8972 57.1806 21.188 57.0546 21.3519C56.9291 21.5154 56.6176 21.8628 56.3606 22.1279C56.1036 22.3936 55.7541 22.7215 55.5816 22.8597C55.4096 22.9984 55.1446 23.1958 54.9941 23.2975C54.8441 23.3962 54.5626 23.5658 54.3656 23.6701C54.1691 23.7744 53.8741 23.9188 53.7101 23.9892C53.5461 24.0571 53.2371 24.167 53.0266 24.2292C52.8166 24.2945 52.4611 24.3818 52.2341 24.4271C52.0101 24.4723 51.6716 24.5314 51.4826 24.554C51.2941 24.5797 50.9936 24.6136 50.8131 24.63C50.6221 24.6501 49.6766 24.6696 46.6326 24.6979L46.2226 26.887C45.9956 28.0895 45.7936 29.1173 45.7716 29.1713C45.7496 29.2247 45.6866 29.3152 45.6351 29.3686C45.5831 29.4251 45.4901 29.4961 45.4301 29.5269C45.3236 29.5809 45.2551 29.5834 43.2026 29.5922C41.5931 29.5973 41.0551 29.5922 40.9621 29.5639C40.8746 29.5413 40.7951 29.4873 40.6886 29.3743C40.5936 29.273 40.5246 29.1739 40.5031 29.1034C40.4831 29.0221 40.4721 28.9386 40.4701 28.8547C40.4701 28.7812 40.6421 27.8043 40.8526 26.6805C41.0631 25.5592 41.2351 24.6249 41.2351 24.6049C41.2351 24.5792 41.1971 24.5879 41.0986 24.6275C40.9676 24.6809 40.8991 24.684 38.8936 24.684C37.1526 24.684 36.8001 24.6784 36.6856 24.6444C36.5925 24.6096 36.5056 24.559 36.4286 24.4949C36.3601 24.4353 36.2786 24.3253 36.2426 24.2462C36.201 24.1503 36.1797 24.0464 36.1801 23.9414C36.1801 23.8453 36.4886 22.1341 36.9586 19.6376C37.3851 17.3559 37.7486 15.4104 37.7646 15.3086C37.7828 15.1493 37.7911 14.989 37.7896 14.8286C37.7896 14.6642 37.7756 14.4869 37.7566 14.4329C37.7291 14.3538 37.6936 14.3199 37.5736 14.2582C37.4916 14.2156 37.3056 14.159 37.1636 14.1308C36.9311 14.0856 36.7346 14.0799 33.8161 14.0799L32.8706 19.1212C32.1271 23.0745 31.9086 24.1871 31.8596 24.2857C31.8124 24.3678 31.7534 24.4422 31.6846 24.5062C31.6246 24.5596 31.5151 24.6193 31.4386 24.6444C31.3236 24.6784 30.9741 24.684 29.2801 24.684C27.5856 24.684 27.2356 24.6784 27.1211 24.6444C27.0323 24.6123 26.9492 24.5655 26.8751 24.5057C26.8006 24.4338 26.7379 24.35 26.6896 24.2575C26.6383 24.1607 26.6128 24.0516 26.6156 23.9414C26.6156 23.8541 26.7496 23.0601 26.9161 22.1762C27.0831 21.2954 27.2221 20.5472 27.2306 20.5102C27.2386 20.4763 27.2356 20.448 27.2251 20.448C27.2111 20.448 27.1076 20.5893 26.9926 20.7646C26.8776 20.9393 26.6756 21.2245 26.5416 21.3941C26.4106 21.5637 26.1236 21.8884 25.9051 22.114C25.6823 22.3438 25.4498 22.5633 25.2081 22.7718C25.0416 22.9106 24.7656 23.1192 24.5931 23.241C24.4211 23.3592 24.1506 23.5319 23.9921 23.6192C23.8336 23.7066 23.5876 23.8309 23.4456 23.8931C23.3036 23.9584 23.0441 24.0627 22.8716 24.1218C22.6996 24.184 22.4156 24.2714 22.2431 24.3171C21.7574 24.4375 21.2647 24.5261 20.7681 24.5823C20.5656 24.6079 20.1721 24.6388 19.8931 24.6557C19.6146 24.6696 18.6581 24.684 17.7701 24.684C16.8791 24.684 16.1496 24.6922 16.1496 24.7035C16.1496 24.7164 15.9991 25.5201 15.8056 26.5535L15.7396 26.9066C15.4936 28.2139 15.3076 29.1317 15.2776 29.1934C15.2362 29.2707 15.1838 29.3412 15.1221 29.4025C15.0532 29.4634 14.9756 29.5129 14.8921 29.5495C14.7801 29.5947 14.6001 29.5973 10.4736 29.5834L10.3396 29.4986C10.252 29.4381 10.176 29.3615 10.1156 29.2725C10.0633 29.1849 10.0237 29.0898 9.99809 28.9904C9.96809 28.8578 10.0691 28.31 11.7281 19.4737C12.8046 13.7495 13.5126 10.0531 13.5426 9.98524C13.5815 9.90843 13.6312 9.83796 13.6901 9.77609C13.7421 9.72264 13.8401 9.65224 13.9086 9.62089C14.0316 9.56179 14.0451 9.56179 18.2126 9.56179C21.4891 9.56179 22.4726 9.57002 22.7626 9.59828C22.9646 9.62089 23.3091 9.6692 23.5276 9.7062C23.7799 9.75132 24.0306 9.80583 24.2791 9.86961C24.4731 9.92306 24.7576 10.0135 24.9076 10.0675C25.0576 10.124 25.3421 10.2509 25.5361 10.3501C25.7301 10.4483 25.9896 10.5983 26.1101 10.6774C26.2301 10.7592 26.4026 10.883 26.4926 10.957C26.7808 11.1949 27.0461 11.4606 27.2851 11.7504C27.3781 11.8661 27.5366 12.0896 27.6351 12.2443C27.7331 12.4 27.8781 12.6657 27.9571 12.8373C28.1199 13.2044 28.2489 13.5864 28.3426 13.9782C28.3616 14.0773 28.3861 14.1621 28.3976 14.1678C28.4111 14.1729 28.4246 14.1565 28.4301 14.1308C28.4381 14.1025 28.8206 12.0721 29.2801 9.61832C29.9931 5.81452 30.1301 5.1367 30.1901 5.01799C30.2306 4.94193 30.3081 4.84584 30.3596 4.80061Z" fill="white"/>
<path d="M29.0727 14.6902C30.0237 9.64943 30.8077 5.49566 30.8132 5.46175L30.8297 5.39648H32.7672C34.5982 5.39648 34.7047 5.39957 34.6912 5.44479C34.6857 5.47305 34.4807 6.54862 34.2402 7.83951C33.9972 9.12732 33.7952 10.2116 33.7752 10.3103L35.9837 10.3216C37.7847 10.3303 38.2652 10.3416 38.6122 10.3781C38.8447 10.4038 39.1837 10.4516 39.3642 10.4824C39.5442 10.5133 39.7902 10.5647 39.9107 10.5955C40.0307 10.6263 40.2467 10.6916 40.3887 10.7394C40.5307 10.7877 40.7657 10.8833 40.9077 10.9516C41.0502 11.0189 41.2657 11.1433 41.3862 11.2281C41.5062 11.3103 41.7032 11.4825 41.8262 11.612C41.9492 11.7476 42.1022 11.9481 42.1732 12.0755C42.2442 12.1993 42.3397 12.4059 42.3832 12.5329C42.4302 12.6629 42.4932 12.8972 42.5257 13.055C42.5777 13.3068 42.5857 13.4306 42.5857 13.9389C42.5837 14.3346 42.5687 14.6264 42.5392 14.8145C42.5177 14.9697 42.1242 17.0823 40.8392 23.9217H38.8802C37.3282 23.9217 36.9182 23.9134 36.9182 23.8852C36.9182 23.8682 37.2627 22.0213 37.6832 19.7843C38.1017 17.5479 38.4647 15.5967 38.4897 15.4497C38.5112 15.3032 38.5302 15.0293 38.5302 14.8428C38.5302 14.6424 38.5142 14.4306 38.4897 14.3258C38.4632 14.2193 38.4273 14.1154 38.3827 14.0154C38.3335 13.924 38.2719 13.8402 38.1997 13.7667C38.1135 13.6904 38.018 13.626 37.9157 13.575C37.7834 13.5147 37.6462 13.4666 37.5057 13.4311C37.3149 13.3853 37.1212 13.353 36.9262 13.3345C36.7242 13.315 35.9097 13.3037 33.2157 13.3037L32.3707 17.7853C31.9067 20.2535 31.4582 22.6364 31.2177 23.9078L29.2857 23.9129C27.8707 23.9191 27.3537 23.9129 27.3507 23.8908C27.3482 23.8739 28.1242 19.7335 29.0727 14.6902ZM12.5127 19.2936C13.4307 14.408 14.1877 10.3894 14.1962 10.3612C14.2097 10.3134 14.4172 10.3134 18.0682 10.3134C20.3992 10.3134 22.1072 10.3247 22.3777 10.3416C22.6262 10.3586 23.0007 10.3951 23.2112 10.4264C23.4212 10.4573 23.7492 10.522 23.9352 10.5672C24.1237 10.6155 24.4082 10.6972 24.5637 10.7538C24.7222 10.8103 24.9737 10.9146 25.1237 10.9881C25.2742 11.0616 25.5037 11.1885 25.6297 11.2707C25.7582 11.3525 25.9357 11.4794 26.0257 11.5503C26.1157 11.6233 26.2747 11.7646 26.3782 11.8638C26.4822 11.965 26.6382 12.1377 26.7227 12.2446C26.8077 12.3551 26.9277 12.5185 26.9877 12.612C27.0507 12.705 27.1572 12.8972 27.2257 13.0354C27.2967 13.1768 27.3867 13.3854 27.4307 13.5015C27.4742 13.6197 27.5397 13.8407 27.5807 13.9954C27.6192 14.1511 27.6707 14.3993 27.6927 14.5463C27.7177 14.6958 27.7447 15.0319 27.7527 15.2945C27.7637 15.5797 27.7557 15.9302 27.7367 16.1558C27.7149 16.4062 27.6857 16.6559 27.6492 16.9045C27.6192 17.1075 27.5562 17.4323 27.5122 17.624C27.4687 17.8192 27.3947 18.1044 27.3482 18.2596C27.2232 18.6724 27.065 19.0738 26.8752 19.4596C26.7827 19.6548 26.6327 19.9344 26.5452 20.0814C26.4552 20.2304 26.2772 20.4961 26.1462 20.6744C26.0177 20.8548 25.7912 21.1343 25.6462 21.2957C25.5012 21.4591 25.2577 21.7104 25.1022 21.8574C24.9492 22.0013 24.6842 22.2299 24.5092 22.3661C24.3372 22.5013 24.0662 22.6935 23.9077 22.7896C23.7522 22.8882 23.4977 23.0265 23.3477 23.103C23.1977 23.176 22.9517 23.2865 22.8012 23.343C22.6512 23.4021 22.3802 23.4895 22.2002 23.5404C22.0197 23.5917 21.6947 23.6678 21.4757 23.7074C21.2602 23.7495 20.9207 23.7999 20.7242 23.823C20.5302 23.8456 20.1422 23.8795 19.8637 23.8934C19.5877 23.9104 18.5002 23.9217 17.4537 23.9217C16.4037 23.9217 15.5462 23.9273 15.5462 23.9304L14.6252 28.8211L10.7227 28.8355L10.7857 28.505C10.8187 28.3216 11.5972 24.176 12.5127 19.2936ZM42.9437 19.5444C43.8837 14.5519 44.6572 10.4321 44.6682 10.3894L44.6842 10.3103L48.8272 10.319C52.5572 10.3272 53.0107 10.3329 53.3662 10.3781C53.5847 10.4064 53.9457 10.4655 54.1667 10.5107C54.4297 10.5678 54.6897 10.6386 54.9457 10.7229C55.1507 10.7933 55.4512 10.9146 55.6067 10.9938C55.7652 11.0698 55.9677 11.1803 56.0577 11.2368C56.1482 11.2934 56.3337 11.4229 56.4677 11.5277C56.6042 11.632 56.8367 11.8494 56.9867 12.0107C57.1372 12.1716 57.3392 12.4229 57.4352 12.5693C57.5307 12.7194 57.6562 12.9368 57.7137 13.0581C57.7737 13.1793 57.8587 13.3746 57.9052 13.4959C57.9517 13.6172 58.0252 13.8546 58.0662 14.0236C58.1102 14.1963 58.1647 14.5067 58.1922 14.7159C58.2277 15.018 58.2357 15.2323 58.2222 15.7323C58.2137 16.1758 58.1922 16.4893 58.1512 16.7632C58.1134 17.0087 58.0705 17.2534 58.0227 17.497C57.9842 17.6836 57.9052 17.997 57.8477 18.1892C57.7902 18.384 57.6867 18.6887 57.6152 18.8671C57.5472 19.0474 57.4052 19.364 57.2982 19.5726C57.1793 19.8099 57.0489 20.0409 56.9077 20.2648C56.7982 20.437 56.6182 20.6914 56.5112 20.8296C56.4022 20.9709 56.2082 21.2047 56.0767 21.3522C55.9457 21.4987 55.7107 21.7387 55.5522 21.8856C55.3967 22.0326 55.1312 22.2582 54.9647 22.3857C54.8007 22.5126 54.5492 22.6904 54.4047 22.7813C54.2622 22.8713 53.9972 23.0177 53.8172 23.1056C53.6367 23.1961 53.3417 23.3204 53.1612 23.3852C52.9807 23.4499 52.6937 23.5378 52.5192 23.583C52.3467 23.6282 52.0652 23.6904 51.8907 23.7212C51.7182 23.7521 51.4122 23.7973 51.2072 23.823C51.0052 23.8456 50.6117 23.8795 50.3327 23.8934C50.0567 23.9104 48.9747 23.9217 46.0287 23.9217L45.0997 28.838L41.2057 28.8355L41.2222 28.7306C41.2302 28.6715 42.0062 24.5404 42.9437 19.5444Z" fill="black"/>
<path d="M16.1035 20.9709L16.8305 17.1075L17.5575 13.2446L19.3475 13.2559C20.8445 13.2642 21.1835 13.2755 21.424 13.315C21.5825 13.3407 21.809 13.3854 21.9295 13.4137C22.0495 13.4445 22.252 13.5072 22.3805 13.555C22.509 13.6064 22.692 13.6938 22.7905 13.7529C22.889 13.812 23.0305 13.9224 23.1075 13.9985C23.184 14.0746 23.293 14.2133 23.3505 14.3063C23.408 14.3993 23.4815 14.552 23.5175 14.6455C23.55 14.738 23.5965 14.9107 23.6185 15.0263C23.643 15.1424 23.67 15.3598 23.681 15.5063C23.6895 15.6563 23.684 15.9384 23.6675 16.1419C23.651 16.3424 23.61 16.6558 23.58 16.8336C23.55 17.0114 23.49 17.3054 23.446 17.4832C23.4025 17.661 23.323 17.9405 23.2685 18.1045C23.2135 18.2684 23.102 18.5392 23.0225 18.7114C22.9405 18.881 22.8095 19.124 22.7305 19.2484C22.6156 19.4153 22.4894 19.5738 22.353 19.7227C22.2245 19.8609 22.0415 20.0362 21.943 20.1122C21.845 20.1883 21.648 20.3127 21.506 20.3892C21.364 20.4622 21.1615 20.5588 21.055 20.5979C20.9485 20.6374 20.779 20.697 20.6725 20.7279C20.566 20.7587 20.3525 20.8101 20.1945 20.8435C20.036 20.8743 19.7245 20.9201 19.4975 20.9453C19.1725 20.9792 18.776 20.9848 16.1035 20.9709ZM47.3025 17.1358C47.696 15.052 48.021 13.3238 48.032 13.2955C48.0455 13.2441 48.125 13.2441 49.827 13.2529C51.2895 13.2642 51.6555 13.2729 51.8795 13.3125C52.03 13.3376 52.246 13.3772 52.358 13.4024C52.47 13.4281 52.6555 13.479 52.7675 13.5185C52.88 13.5581 53.071 13.6424 53.1915 13.7076C53.339 13.7868 53.47 13.8885 53.601 14.0237C53.724 14.1511 53.828 14.2919 53.8935 14.4194C53.948 14.5263 54.0165 14.6989 54.0465 14.8007C54.0765 14.9019 54.115 15.1111 54.134 15.2663C54.156 15.4472 54.164 15.6902 54.153 15.9446C54.1411 16.1758 54.121 16.4065 54.093 16.6363C54.0685 16.7997 54.0165 17.0793 53.9785 17.2571C53.94 17.4354 53.85 17.7684 53.776 17.9971C53.6944 18.2474 53.5986 18.4926 53.489 18.7314C53.4045 18.9061 53.2595 19.1631 53.1665 19.3044C53.074 19.4432 52.9015 19.6605 52.7815 19.7849C52.6577 19.913 52.5252 20.0318 52.385 20.1405C52.2699 20.2219 52.1515 20.2982 52.03 20.3692C51.9315 20.4231 51.74 20.5131 51.6065 20.5696C51.4695 20.6261 51.2185 20.7084 51.046 20.7561C50.874 20.8014 50.5595 20.8661 50.3495 20.9031C49.9885 20.9622 49.8685 20.9648 48.278 20.9735C47.166 20.9823 46.592 20.9735 46.592 20.9566C46.592 20.9396 46.912 19.2227 47.302 17.1358H47.3025Z" fill="white"/>
<path d="M18.1639 14.0599C18.1689 14.046 18.1719 14.0291 18.1749 14.0209C18.1749 14.0121 18.8249 14.0096 19.6149 14.0178C20.4074 14.0234 21.0849 14.0378 21.1234 14.046C21.1614 14.0548 21.2409 14.0687 21.3009 14.0769C21.3609 14.0856 21.4704 14.1026 21.5469 14.1195C21.6209 14.1365 21.7134 14.1565 21.7519 14.1617C21.7899 14.1704 21.8884 14.1956 21.9704 14.2213C22.0524 14.247 22.2004 14.3061 22.2984 14.3569C22.3969 14.4047 22.5384 14.5091 22.6154 14.5882C22.7054 14.6817 22.7739 14.7835 22.8094 14.8847C22.8424 14.9695 22.8859 15.1473 22.9079 15.2804C22.9324 15.4294 22.9404 15.5399 22.9239 15.5713C22.9074 15.6134 22.8991 15.6584 22.8994 15.7039C22.8994 15.7491 22.9079 15.783 22.9184 15.7773C22.9324 15.7717 22.9379 15.8308 22.9349 15.9099C22.9349 15.9921 22.9239 16.1329 22.9134 16.2265C22.9024 16.319 22.8914 16.4269 22.8859 16.4665C22.8804 16.506 22.8694 16.6016 22.8584 16.6782C22.8474 16.7573 22.8339 16.8246 22.8314 16.8334C22.8259 16.8416 22.7959 16.9747 22.7654 17.1299C22.7329 17.2851 22.6974 17.4434 22.6839 17.4829C22.6699 17.5225 22.6374 17.6299 22.6099 17.7229C22.5849 17.8159 22.5524 17.912 22.5414 17.9346C22.5279 17.9573 22.4814 18.0734 22.4349 18.189C22.3859 18.3046 22.2794 18.522 22.1949 18.669C22.1099 18.816 22.0034 18.9825 21.9599 19.0359C21.9129 19.0899 21.8064 19.2055 21.7249 19.2929C21.6508 19.3706 21.5702 19.4414 21.4839 19.5046C21.4349 19.5328 21.3964 19.5642 21.3964 19.5724C21.3964 19.5811 21.2954 19.6402 21.1724 19.7024C21.0469 19.7677 20.9024 19.8381 20.8499 19.8633C20.7979 19.8859 20.6999 19.9229 20.6314 19.9424C20.5629 19.9624 20.4949 19.982 20.4814 19.9851C20.4674 19.9876 20.3854 20.0108 20.3034 20.0329C20.2214 20.0555 20.0984 20.0837 20.0304 20.0976C19.9619 20.1089 19.8934 20.1202 19.8804 20.1233C19.8664 20.1233 19.7979 20.1346 19.7294 20.1459C19.6614 20.1572 19.5574 20.1742 19.4974 20.1824C19.4374 20.1937 18.8474 20.2081 16.9834 20.2307L17.0079 20.1485C17.0189 20.1033 17.0354 20.0272 17.0434 19.982C17.0489 19.9368 17.0654 19.8576 17.0789 19.8124C17.0924 19.7677 17.1144 19.6459 17.1309 19.5441C17.1474 19.4429 17.1664 19.3211 17.1744 19.2759L17.2044 19.1207C17.2129 19.0811 17.2264 19.0107 17.2344 18.9655C17.2399 18.9203 17.2509 18.8612 17.2594 18.8386C17.304 18.6472 17.3405 18.454 17.3689 18.2594C17.3769 18.1834 17.3904 18.1124 17.3934 18.1042C17.3984 18.0955 17.4094 18.0446 17.4204 17.9912C17.4289 17.9377 17.4424 17.873 17.4479 17.8499C17.4529 17.8272 17.4669 17.7625 17.4754 17.709C17.4834 17.6551 17.5024 17.5652 17.5159 17.5112C17.5299 17.4572 17.5489 17.3416 17.5574 17.2568C17.5679 17.172 17.5874 17.0734 17.6009 17.0394C17.6144 17.003 17.6199 16.9747 17.6119 16.9747C17.6034 16.9747 17.6119 16.932 17.6254 16.8843C17.6419 16.8329 17.6774 16.6499 17.7074 16.4803C17.7374 16.3108 17.7674 16.1386 17.7759 16.099L17.8004 15.9721C17.8054 15.9413 17.8304 15.8082 17.8554 15.6756C17.8794 15.543 17.9069 15.3904 17.9154 15.3364C17.9214 15.2889 17.9305 15.2419 17.9424 15.1956L17.9674 15.0826C17.9754 15.043 17.9889 14.9808 17.9944 14.9412C18.0024 14.9017 18.0274 14.7747 18.0494 14.6586C18.0684 14.543 18.0929 14.4017 18.1009 14.3482C18.1119 14.2948 18.1259 14.2095 18.1364 14.1648C18.1474 14.1195 18.1584 14.0712 18.1639 14.0599ZM48.6169 14.2439C48.6139 14.2382 48.6219 14.1843 48.6329 14.1195L48.6524 14.0039L50.1004 14.0178C50.8984 14.0234 51.5759 14.0378 51.6064 14.046L51.6134 14.0476C51.6484 14.0543 51.7289 14.0692 51.7974 14.0774C51.8739 14.0887 51.9694 14.1057 52.0159 14.1139C52.0624 14.1195 52.1119 14.1308 52.1254 14.1334C52.1419 14.1396 52.2019 14.1509 52.2619 14.1648C52.3224 14.1786 52.4699 14.2239 52.5899 14.2691C52.7104 14.3143 52.8579 14.3852 52.9179 14.4274C52.9779 14.4695 53.0684 14.5486 53.1174 14.6021C53.1694 14.656 53.2294 14.7465 53.2569 14.7999C53.2839 14.8539 53.3169 14.95 53.3334 15.0116C53.3494 15.0738 53.3769 15.1925 53.3934 15.2748C53.4124 15.359 53.4179 15.5908 53.4099 15.8395C53.4014 16.0682 53.3904 16.2856 53.3854 16.3251L53.3829 16.34C53.3769 16.3853 53.3649 16.4685 53.3579 16.5369C53.3469 16.616 53.3224 16.7655 53.3004 16.876C53.2817 16.9738 53.2588 17.0707 53.2319 17.1664C53.2202 17.2033 53.2112 17.2411 53.2049 17.2794C53.2049 17.2907 53.1909 17.3504 53.1749 17.412C53.1609 17.4742 53.1229 17.6073 53.0954 17.709C53.0654 17.8103 53.0164 17.9459 52.9864 18.0138C52.9559 18.0785 52.9314 18.1464 52.9314 18.1608C52.9314 18.1746 52.8689 18.3129 52.7894 18.4655C52.7129 18.615 52.6034 18.8047 52.5519 18.8807C52.5013 18.9531 52.4485 19.0237 52.3934 19.0924C52.3604 19.132 52.3139 19.1885 52.2894 19.2194C52.2649 19.2502 52.2509 19.2589 52.2594 19.242C52.2674 19.2224 52.2729 19.2055 52.2704 19.2055C52.2649 19.2024 52.2374 19.2312 52.2074 19.2646C52.1744 19.3016 52.1689 19.3185 52.1939 19.3042C52.2154 19.2929 52.1909 19.3242 52.1389 19.372C52.0397 19.4541 51.9347 19.5287 51.8249 19.595C51.6842 19.6812 51.5381 19.7576 51.3874 19.8237C51.2714 19.8761 51.153 19.9225 51.0324 19.9624C50.9584 19.9881 50.8904 20.0077 50.8819 20.0102C50.8503 20.0197 50.8185 20.0283 50.7864 20.0359C50.7399 20.0442 50.6499 20.0668 50.5814 20.0812C50.509 20.0977 50.4362 20.1118 50.3629 20.1233C50.3109 20.1284 50.2069 20.1428 50.1304 20.1541C50.0569 20.1629 49.9694 20.1798 49.9394 20.188C49.9094 20.1968 49.3409 20.2081 47.4664 20.222L47.4934 20.1176C47.5074 20.058 47.5399 19.9224 47.5619 19.8124C47.5839 19.7024 47.6084 19.5529 47.6194 19.4737C47.6274 19.3977 47.6464 19.3042 47.6604 19.2702C47.6739 19.2338 47.6794 19.2055 47.6714 19.2055C47.6629 19.2055 47.6684 19.1634 47.6849 19.115C47.7032 19.0473 47.7177 18.9785 47.7284 18.909C47.7369 18.8468 47.7479 18.7908 47.7534 18.782C47.7699 18.7169 47.7826 18.6509 47.7914 18.5842C47.8049 18.4824 47.8244 18.3694 47.8349 18.3298L47.8649 18.189C47.9046 17.9825 47.9411 17.7754 47.9744 17.5677C47.9806 17.5201 47.9898 17.4729 48.0019 17.4264C48.0139 17.38 48.0229 17.3327 48.0289 17.2851C48.0374 17.2316 48.0539 17.1463 48.0674 17.1016C48.0809 17.0564 48.1029 16.9351 48.1194 16.8334C48.1359 16.7316 48.1544 16.6104 48.1629 16.5651L48.1929 16.4099C48.2014 16.3704 48.2149 16.2994 48.2229 16.2542C48.2284 16.2095 48.2394 16.1499 48.2479 16.1273C48.2926 15.936 48.3291 15.7427 48.3574 15.5481C48.3654 15.4721 48.3789 15.4017 48.3819 15.3929C48.3869 15.3847 48.3979 15.3339 48.4089 15.2799C48.4174 15.2264 48.4309 15.1617 48.4364 15.1391C48.4414 15.1165 48.4554 15.0517 48.4634 14.9978C48.4744 14.9313 48.4881 14.8653 48.5044 14.7999C48.5184 14.7465 48.5374 14.6303 48.5454 14.5461C48.5564 14.4613 48.5784 14.3595 48.5919 14.3199C48.6059 14.2804 48.6169 14.2465 48.6169 14.2439Z" fill="#7C80B0"/>
</g>
<defs>
<clipPath id="clip0_337_3040">
<rect width="68" height="37" fill="white"/>
</clipPath>
</defs>
</svg>
