<svg width="117" height="29" viewBox="0 0 117 29" fill="none" xmlns="http://www.w3.org/2000/svg">
<path d="M28.1751 11.0839C27.7644 10.8346 27.2364 10.8346 26.7817 11.0839L23.5991 13.0199L21.4284 14.2813L18.2457 16.2173C17.8351 16.4666 17.3071 16.4666 16.8524 16.2173L14.3151 14.7066C13.9044 14.4573 13.6257 13.9879 13.6257 13.4893V10.5119C13.6257 10.0133 13.8751 9.54394 14.3151 9.29461L16.8084 7.82794C17.2191 7.57861 17.7471 7.57861 18.2017 7.82794L20.6951 9.29461C21.1057 9.54394 21.3844 10.0133 21.3844 10.5119V12.4479L23.5551 11.1426V9.20661C23.5551 8.70794 23.3057 8.23861 22.8657 7.98927L18.2457 5.21727C17.8351 4.96794 17.3071 4.96794 16.8524 5.21727L12.1591 7.98927C11.7044 8.23861 11.4697 8.70794 11.4697 9.20661V14.7799C11.4697 15.2786 11.7191 15.7479 12.1591 15.9973L16.8524 18.7693C17.2631 19.0186 17.7911 19.0186 18.2457 18.7693L21.4284 16.8773L23.5991 15.5719L26.7817 13.6799C27.1924 13.4306 27.7204 13.4306 28.1751 13.6799L30.6684 15.1466C31.0791 15.3959 31.3577 15.8653 31.3577 16.3639V19.3413C31.3577 19.8399 31.1084 20.3093 30.6684 20.5586L28.1751 22.0693C27.7644 22.3186 27.2364 22.3186 26.7817 22.0693L24.2884 20.6026C23.8777 20.3533 23.5991 19.8839 23.5991 19.3853V17.4493L21.4284 18.7546V20.6906C21.4284 21.1893 21.6777 21.6586 22.1177 21.9079L26.8111 24.6799C27.2217 24.9293 27.7497 24.9293 28.2044 24.6799L32.8977 21.9079C33.3084 21.6586 33.5871 21.1893 33.5871 20.6906V15.1173C33.5871 14.6186 33.3377 14.1493 32.8977 13.8999L28.1751 11.0839Z" fill="#7950DD"/>
<path d="M42.2405 23.0813V18.4466C42.7392 19.0773 43.6485 19.4293 44.6898 19.4293C47.3592 19.4293 49.1778 17.5079 49.1778 14.5893C49.1778 11.6706 47.5205 9.74927 44.9098 9.74927C43.7072 9.74927 42.7832 10.1893 42.2405 10.9226V9.89593H39.6738V23.0666H42.2405V23.0813ZM44.3818 17.1999C43.0032 17.1999 42.0938 16.1586 42.0938 14.5893C42.0938 13.0053 43.0032 11.9639 44.3818 11.9639C45.7312 11.9639 46.6552 13.0053 46.6552 14.5893C46.6405 16.1586 45.7165 17.1999 44.3818 17.1999Z" fill="black"/>
<path d="M55.0002 19.4293C57.8602 19.4293 59.9136 17.3759 59.9136 14.5893C59.9136 11.8026 57.8602 9.74927 55.0002 9.74927C52.1402 9.74927 50.0869 11.8026 50.0869 14.5893C50.0869 17.3759 52.1402 19.4293 55.0002 19.4293ZM55.0002 17.1999C53.6216 17.1999 52.6682 16.1439 52.6682 14.5893C52.6682 13.0199 53.6069 11.9639 55.0002 11.9639C56.3789 11.9639 57.3322 13.0199 57.3322 14.5893C57.3322 16.1439 56.3789 17.1999 55.0002 17.1999Z" fill="black"/>
<path d="M64.0198 19.2828V5.8335H61.4531V19.2828H64.0198Z" fill="black"/>
<path d="M71.7347 9.91064L69.7987 15.9533L67.848 9.91064H65.2227L68.596 19.2093L67.232 23.0813H69.6813L70.9867 19.2533L74.36 9.91064H71.7347Z" fill="black"/>
<path d="M81.5906 10.8346C81.0773 10.1893 80.1533 9.74927 79.024 9.74927C76.3106 9.74927 74.668 11.6706 74.668 14.5893C74.668 17.5079 76.3106 19.4293 79.068 19.4293C80.1533 19.4293 81.136 19.0186 81.62 18.3293V19.5613C81.62 20.4413 81.048 21.0426 80.2706 21.0426H75.9733V23.0666H80.6666C82.764 23.0666 84.172 21.7759 84.172 19.8253V9.89593H81.5906V10.8346ZM79.464 17.1999C78.1 17.1999 77.1906 16.1733 77.1906 14.5893C77.1906 13.0053 78.1 11.9639 79.464 11.9639C80.8426 11.9639 81.752 13.0053 81.752 14.5893C81.752 16.1733 80.8426 17.1999 79.464 17.1999Z" fill="black"/>
<path d="M90.6399 19.4293C93.4999 19.4293 95.5532 17.3759 95.5532 14.5893C95.5532 11.8026 93.4999 9.74927 90.6399 9.74927C87.7799 9.74927 85.7266 11.8026 85.7266 14.5893C85.7266 17.3759 87.7799 19.4293 90.6399 19.4293ZM90.6399 17.1999C89.2612 17.1999 88.3079 16.1439 88.3079 14.5893C88.3079 13.0199 89.2466 11.9639 90.6399 11.9639C92.0186 11.9639 92.9719 13.0199 92.9719 14.5893C92.9572 16.1439 92.0186 17.1999 90.6399 17.1999Z" fill="black"/>
<path d="M99.5276 19.2828V14.1495C99.5276 12.9468 100.32 12.0668 101.449 12.0668C102.52 12.0668 103.238 12.8882 103.238 14.0175V19.2828H105.82V13.4455C105.82 11.2895 104.456 9.76416 102.344 9.76416C101.068 9.76416 100.041 10.3068 99.513 11.2162V9.91083H96.9463V19.2828H99.5276Z" fill="black"/>
</svg>
