<svg width="125" height="39" viewBox="0 0 125 39" fill="none" xmlns="http://www.w3.org/2000/svg">
<g clip-path="url(#clip0_337_5365)">
<path fill-rule="evenodd" clip-rule="evenodd" d="M19.4954 0.504013C22.1309 0.561013 22.7574 0.636763 24.2365 1.07551C25.1646 1.36126 26.6257 1.93351 27.4595 2.35276C28.2941 2.79076 29.4887 3.49651 30.1145 3.95401C30.7402 4.39201 31.8585 5.40226 32.5987 6.16501C33.3383 6.94651 34.2866 8.08951 34.7035 8.71876C35.1204 9.34801 35.7275 10.377 36.0306 11.0063C36.3525 11.6348 36.827 12.8363 37.0927 13.6748C37.3585 14.5133 37.6803 15.8858 37.8136 16.7243C37.9648 17.6963 38.0029 19.0493 37.9273 20.4413C37.8704 21.642 37.6616 23.2815 37.4528 24.063C37.2447 24.8445 36.7896 26.178 36.4475 27.0173C36.1062 27.8558 35.3293 29.2665 34.741 30.162C34.1534 31.0583 32.9969 32.4308 32.1811 33.2123C31.3472 33.9938 30.1713 34.9845 29.5456 35.4038C28.6856 35.937 27.7995 36.4269 26.8907 36.8715C26.0568 37.2525 24.6908 37.7678 23.857 37.9965C22.8143 38.2628 21.5441 38.4345 19.7799 38.4915C18.1683 38.5493 16.6886 38.511 15.7978 38.358C15.0201 38.2253 13.598 37.863 12.6691 37.5195C11.7207 37.1955 10.3173 36.567 9.54035 36.1095C8.76266 35.6708 7.49245 34.7745 6.75293 34.1648C5.99394 33.5363 4.79933 32.316 4.1167 31.4393C3.43406 30.582 2.44754 29.019 1.93631 27.9705C1.42433 26.922 0.779125 25.2068 0.514154 24.1583C0.0964898 22.5758 0.0208911 21.8138 0.00217851 19.6785C-0.0172826 18.249 0.0964899 16.5908 0.229723 15.9623C0.409771 15.1608 0.618488 14.366 0.855472 13.5795C1.06356 12.8933 1.55682 11.7308 1.9176 11.0063C2.32816 10.1872 2.78395 9.39173 3.28287 8.62351C3.68107 8.05201 4.36371 7.15576 4.8188 6.64126C5.27388 6.10726 6.29784 5.19226 7.07478 4.56376C7.85248 3.93451 9.00891 3.15376 9.63466 2.79076C10.494 2.33602 11.3807 1.93525 12.2896 1.59076C13.2235 1.25942 14.1727 0.973093 15.1339 0.732763C16.1204 0.504013 17.2387 0.446263 19.4954 0.504013ZM118.461 13.389C118.689 13.389 118.992 13.4843 119.144 13.5795C119.295 13.6748 120.338 15.6 123.486 21.8708L123.599 13.4843H124.927L124.984 19.4498C125.022 25.2638 125.022 25.3973 124.643 25.4925C124.434 25.5495 124.111 25.5113 123.941 25.416C123.751 25.3208 122.652 23.4533 119.428 17.22L119.333 21.2228C119.257 24.501 119.181 25.2443 118.954 25.3973C118.802 25.5113 118.555 25.5495 118.442 25.4925C118.302 25.4375 118.155 25.4054 118.006 25.3973C117.892 25.3973 117.797 23.2815 117.778 19.5263C117.759 16.2863 117.816 13.5788 117.911 13.5225C118.006 13.446 118.252 13.389 118.461 13.389ZM46.839 13.4265C49.3046 13.4843 49.3427 13.4843 50.0628 14.0753C50.461 14.3993 50.8787 14.952 51.0112 15.3143C51.1436 15.6758 51.2387 16.4768 51.2387 17.106C51.2574 17.868 51.1249 18.516 50.8787 19.0688C50.613 19.641 50.2716 19.9838 49.7028 20.289C49.0965 20.5935 48.47 20.7083 45.5688 20.8223V23.0145C45.5688 24.9015 45.5314 25.2255 45.2469 25.3778C45.0568 25.4925 44.7155 25.5308 44.0516 25.3973L44.0142 19.5263C43.9947 16.191 44.071 13.5788 44.1661 13.5038C44.2604 13.4273 45.455 13.389 46.8398 13.4273L46.839 13.4265ZM45.5688 19.488C48.5651 19.3928 48.6601 19.374 49.1908 18.783C49.6646 18.249 49.7409 18.0015 49.7409 17.106C49.7409 16.2098 49.6646 15.9623 49.1908 15.447C48.6594 14.8568 48.5463 14.8185 47.1242 14.742L45.607 14.685L45.5688 19.488ZM59.5059 13.389C60.1324 13.389 60.7582 13.5225 61.3076 13.8083C61.7627 14.0558 62.3128 14.4945 62.5403 14.7803C62.9004 15.2948 62.9198 15.5805 62.9198 19.488C62.9198 23.415 62.9004 23.6813 62.5216 24.1965C62.3128 24.4815 61.839 24.9015 61.4782 25.092C61.1182 25.302 60.3405 25.4925 59.696 25.5308C58.7859 25.6065 58.4064 25.5308 57.705 25.1685C57.2499 24.921 56.6624 24.4253 56.4348 24.063C56.1504 23.6243 55.9603 22.9575 55.8847 22.1565C55.8083 21.4703 55.8083 19.755 55.8472 18.3443C55.9221 16.038 55.9797 15.6758 56.3966 14.952C56.7185 14.361 57.098 14.037 57.705 13.77C58.1788 13.56 58.9939 13.389 59.5059 13.389ZM57.705 15.7718C57.61 16.038 57.5157 17.6963 57.5157 19.488C57.5157 21.9855 57.5905 22.8623 57.8001 23.3003C58.0082 23.7203 58.2926 23.9295 58.8996 24.063C59.4498 24.2153 59.8854 24.2153 60.3218 24.063C60.7013 23.9483 61.0426 23.643 61.2125 23.3003C61.4408 22.8623 61.4969 21.966 61.4969 19.3928C61.4969 17.544 61.4221 15.8858 61.3076 15.6758C61.2132 15.4658 60.8719 15.1613 60.5493 15.0083C60.2462 14.8568 59.7529 14.7233 59.4685 14.7233C59.1841 14.742 58.7103 14.8568 58.4251 15.0083C58.1406 15.1613 57.8188 15.5048 57.705 15.7718ZM71.7941 13.389C72.5905 13.389 73.3487 13.503 73.842 13.713C74.2589 13.9035 74.6384 14.1705 74.6953 14.2845C74.7327 14.418 74.6953 14.7045 74.5815 14.9138C74.4865 15.1238 74.2971 15.2948 74.1646 15.2948C74.0314 15.2948 73.5007 15.1425 72.97 14.9708C72.3817 14.7803 71.7559 14.7233 71.3203 14.799C70.9221 14.8568 70.3906 15.123 70.1257 15.39C69.86 15.657 69.6511 16.0763 69.6511 16.3425C69.6511 16.6103 69.8412 17.0483 70.0875 17.3153C70.315 17.5823 71.2252 18.1155 72.0972 18.4973C73.1781 18.9735 73.8802 19.4123 74.2402 19.8698C74.6384 20.3273 74.8278 20.8223 74.9041 21.4898C74.961 22.0043 74.961 22.767 74.9041 23.1473C74.8278 23.5485 74.5433 24.1388 74.2589 24.4628C73.9745 24.7875 73.482 25.2068 73.1594 25.359C72.818 25.5308 72.1167 25.6643 71.3577 25.6448C70.4475 25.6448 69.8981 25.5308 69.196 25.1873C68.6841 24.9398 68.1347 24.5198 67.9633 24.2918C67.717 23.9295 67.6983 23.7765 67.9064 23.3768C68.0396 23.1293 68.2484 22.9193 68.3809 22.9193C68.5134 22.8998 68.9498 23.1668 69.3667 23.4908C69.7844 23.8148 70.4288 24.12 70.7888 24.177C71.1496 24.2535 71.7754 24.1965 72.1736 24.0818C72.5523 23.9678 73.0074 23.6813 73.1594 23.4338C73.33 23.205 73.4438 22.7288 73.4438 22.3853C73.4438 22.0613 73.3487 21.585 73.2162 21.3368C73.1025 21.108 72.818 20.7653 72.61 20.5943C72.4004 20.403 71.5665 20.0033 70.7888 19.698C70.0119 19.374 69.196 18.9165 68.9685 18.6878C68.729 18.4186 68.5193 18.1244 68.3427 17.8103C68.229 17.5823 68.1347 16.9913 68.1347 16.4768C68.1347 15.981 68.2859 15.276 68.476 14.9138C68.6841 14.475 69.1017 14.094 69.6511 13.8083C70.2963 13.4843 70.8263 13.389 71.7941 13.389ZM82.83 13.389C85.5987 13.389 86.5658 13.446 86.6414 13.6178C86.7177 13.7505 86.7177 14.0558 86.6414 14.2853C86.5471 14.685 86.4139 14.7233 83.6833 14.7233V19.965C83.6833 25.0163 83.6646 25.2068 83.3046 25.3973C83.0957 25.4925 82.7731 25.5308 82.6025 25.4543C82.4131 25.3778 82.2043 25.2443 82.1287 25.1303C82.0531 25.0163 81.9767 22.6328 81.9767 14.7233L80.5171 14.6655C79.2088 14.628 79.0381 14.5898 78.9812 14.2463C78.943 14.0363 78.9618 13.7513 79.0186 13.6178C79.095 13.4453 80.0426 13.389 82.83 13.389ZM91.97 13.389C92.217 13.389 92.5583 13.5413 92.7477 13.713C92.9371 13.9035 93.6392 15.1425 94.3218 16.4768C94.985 17.811 95.5733 18.9165 95.6302 18.9165C95.6871 18.9165 96.2746 17.868 96.9385 16.572C97.6017 15.2948 98.3412 14.0558 98.5501 13.8083C98.7776 13.5795 99.1376 13.3695 99.3847 13.3883C99.6122 13.3883 99.8966 13.5608 99.9917 13.77C100.105 13.9988 100.181 16.3238 100.181 19.5263C100.181 22.5 100.124 25.035 100.048 25.1685C99.9722 25.302 99.6496 25.416 99.3278 25.416C99.0239 25.416 98.7207 25.359 98.6638 25.302C98.607 25.2255 98.5314 23.3385 98.3794 16.9913L97.2417 19.1453C96.2746 20.9753 96.0471 21.2993 95.6489 21.2993C95.2694 21.2993 95.0231 20.9558 92.8046 16.7243L92.7859 20.9558C92.7859 24.8063 92.7664 25.2255 92.4632 25.3778C92.2739 25.473 91.9326 25.5308 91.2686 25.3973L91.2499 19.5263C91.2305 16.2863 91.2874 13.5788 91.3637 13.5225C91.458 13.446 91.7237 13.389 91.97 13.389ZM108.885 13.3695C109.15 13.3695 109.472 13.4843 109.605 13.617C109.719 13.7505 110.553 16.2285 111.445 19.107C112.317 21.9855 113.076 24.5205 113.114 24.711C113.151 24.9585 113 25.1873 112.677 25.3785C112.298 25.6065 112.108 25.626 111.919 25.473C111.767 25.3395 111.501 24.6728 110.989 22.728H106.818L106.439 24.063C106.23 24.7868 105.965 25.4543 105.832 25.5113C105.699 25.569 105.396 25.569 105.168 25.5113C104.921 25.4543 104.694 25.2825 104.656 25.149C104.618 25.035 105.358 22.4235 106.287 19.3928C107.235 16.3433 108.088 13.7505 108.183 13.6178C108.297 13.503 108.6 13.3883 108.885 13.3695ZM107.273 21.3368C107.216 21.528 107.633 21.5843 108.903 21.5843C110.193 21.5843 110.591 21.528 110.534 21.3368C110.496 21.2228 110.174 19.9643 109.795 18.573C109.435 17.2005 109.055 16.0575 108.96 16.0575C108.866 16.0575 108.448 17.2013 108.05 18.573C107.652 19.965 107.292 21.2228 107.273 21.3375V21.3368Z" fill="#FF6C37"/>
<path d="M26.0756 8.29952C26.3032 8.05202 26.7583 7.78427 27.0809 7.68902C27.4027 7.59377 27.8204 7.53677 28.0285 7.57502C28.238 7.63202 28.5404 7.67027 28.6924 7.67027C28.8443 7.67027 29.1475 7.78427 29.3563 7.93727C29.7163 8.20427 29.6782 8.26127 27.0809 10.9103L28.1235 11.9588C28.6924 12.531 29.1101 13.0643 29.0142 13.1408C28.9394 13.2173 28.4648 13.2743 27.9716 13.2743C27.4222 13.2743 26.8533 13.1213 26.4746 12.8925C26.1325 12.702 25.6774 12.2258 25.488 11.8635C25.2792 11.5013 25.1086 10.8728 25.0898 10.4723C25.0898 10.0913 25.2036 9.53852 25.3548 9.23327C25.5068 8.94752 25.8294 8.52827 26.0756 8.29952Z" fill="white"/>
<path d="M27.6499 10.9102L28.7876 9.76723C29.3939 9.13723 30.0009 8.64223 30.1147 8.67973C30.2097 8.71873 30.4186 9.08098 30.5698 9.50023C30.7217 9.95773 30.7786 10.5292 30.703 10.9485C30.6461 11.349 30.3617 11.94 29.5458 12.8355L27.6499 10.9102ZM18.6611 15.6945C19.9508 14.5132 21.5249 13.1977 22.1319 12.7972C22.9088 12.2827 23.459 12.0547 23.9328 12.0547C24.3123 12.0547 24.6918 12.1297 24.8055 12.207C24.9193 12.2827 23.3452 13.9792 17.3153 19.9642L16.5945 19.2405C16.0256 18.6682 15.9305 18.4777 16.1012 18.192C16.215 18.0202 17.3722 16.8952 18.6611 15.6945ZM17.6753 20.1547L21.3355 16.4947C23.3452 14.475 25.09 12.8167 25.2225 12.8167C25.3549 12.8167 25.6394 12.912 25.8482 13.0072C26.1012 13.1347 26.2277 13.3882 26.2277 13.77C26.2277 14.2845 25.7913 14.7225 18.6424 21.0127L17.6753 20.1547ZM18.8699 21.375C18.9073 21.318 20.5391 19.8307 22.5301 18.0967C24.5016 16.3432 26.1513 14.913 26.1895 14.913C26.2082 14.913 26.2269 15.0855 26.2269 15.2947C26.2269 15.5047 25.81 16.305 25.2988 17.067C24.7861 17.8102 23.4208 19.431 20.1214 22.8232L19.4769 22.1557C19.1162 21.7942 18.8512 21.432 18.8707 21.375H18.8699ZM13.7876 20.6317C13.7502 20.5747 14.1102 20.136 14.6034 19.6402L15.4942 18.7252L16.1207 19.3545C16.462 19.6785 16.7464 20.0025 16.7464 20.0595C16.7464 20.1172 16.1012 20.2882 15.3048 20.4412C14.5278 20.5935 13.8445 20.6887 13.7876 20.6317ZM16.557 21.6037C16.3475 21.6037 16.4051 21.4702 16.7269 21.1267C16.9927 20.8605 17.2389 20.6317 17.2958 20.6317C17.3722 20.6317 17.5615 20.784 17.7509 20.9745C18.0548 21.2985 18.0353 21.318 17.4665 21.4515C17.1252 21.5272 16.7269 21.6037 16.5563 21.6037H16.557ZM12.6693 25.2255C15.5323 22.3657 15.7606 22.1752 16.6514 22.0042C17.1828 21.909 17.8265 21.8317 18.0735 21.813C18.3954 21.7942 18.7756 22.0042 19.8752 23.0902L18.3579 24.1957C17.5234 24.825 16.1199 25.7587 15.2292 26.2927C14.3572 26.826 13.1813 27.4927 12.6319 27.7605C11.9867 28.0845 11.6266 28.389 11.6266 28.599C11.6266 28.7895 11.721 29.2087 11.816 29.5515C11.968 30.0285 11.9485 30.1815 11.7786 30.1815C11.6454 30.1815 11.1147 29.7427 9.63488 28.2562L12.6693 25.2255ZM7.83398 30.0855L8.53533 29.3617C8.93354 28.9612 9.29357 28.6372 9.3512 28.6372C9.40734 28.6372 9.84372 29.0377 11.1521 30.372H10.2045C9.69252 30.3525 8.93354 30.2955 7.83398 30.0855Z" fill="white"/>
<path d="M29.9247 11.2349C29.8109 11.2732 29.7354 10.9874 29.7354 10.6252C29.7354 10.2629 29.8102 9.97715 29.9247 10.0154C30.0385 10.0529 30.1141 10.3199 30.1141 10.6252C30.1141 10.9304 30.0385 11.1967 29.9247 11.2349Z" fill="#FF6C37"/>
</g>
<defs>
<clipPath id="clip0_337_5365">
<rect width="125" height="39" fill="white"/>
</clipPath>
</defs>
</svg>
