<svg width="120" height="32" viewBox="0 0 120 32" fill="none" xmlns="http://www.w3.org/2000/svg">
<g clip-path="url(#clip0_333_2560)">
<path d="M10.1189 0.0131376C10.1331 0.00485395 10.1492 0.000488281 10.1656 0.000488281C10.1821 0.000488281 10.1982 0.00485395 10.2123 0.0131376L20.2846 5.8233C20.3122 5.8406 20.3295 5.87173 20.3304 5.9046V8.17054C20.3304 8.18784 20.3217 8.20341 20.307 8.21119L10.1899 14.0456C10.1823 14.0494 10.176 14.0552 10.1716 14.0624C10.1672 14.0695 10.1648 14.0778 10.1648 14.0862V16.3228C10.1648 16.3401 10.1734 16.3556 10.1881 16.3643C10.2028 16.3729 10.2219 16.3729 10.2357 16.3634L20.2603 10.5809C20.2675 10.5773 20.2755 10.5756 20.2835 10.5758C20.2916 10.5761 20.2994 10.5783 20.3063 10.5823C20.3133 10.5864 20.3191 10.5921 20.3233 10.5989C20.3275 10.6058 20.33 10.6135 20.3304 10.6216V12.8581C20.3304 12.8754 20.3217 12.891 20.307 12.8996L10.1881 18.7357C10.1811 18.7399 10.1753 18.7459 10.1714 18.753C10.1674 18.7601 10.1654 18.7682 10.1656 18.7764V21.0138C10.1656 21.0311 10.1743 21.0467 10.1881 21.0553C10.2028 21.0639 10.2219 21.0639 10.2357 21.0553L20.2603 15.2719C20.2675 15.2678 20.2755 15.2657 20.2837 15.2657C20.292 15.2657 20.3 15.2679 20.3071 15.272C20.3142 15.2761 20.3201 15.282 20.3242 15.2892C20.3283 15.2963 20.3304 15.3044 20.3304 15.3126V17.5491C20.3304 17.5664 20.3217 17.582 20.307 17.5907L10.1899 23.4268C10.1823 23.4307 10.1759 23.4367 10.1715 23.444C10.1671 23.4513 10.1648 23.4597 10.1648 23.4683V31.3342C10.1648 31.3417 10.1629 31.349 10.1593 31.3555C10.1557 31.3621 10.1504 31.3675 10.144 31.3714C10.1375 31.3754 10.13 31.3778 10.1223 31.3783C10.1146 31.3787 10.1069 31.3772 10.0999 31.374L8.15483 30.2566C8.14791 30.2521 8.14222 30.246 8.13829 30.2387C8.13436 30.2315 8.13232 30.2233 8.13234 30.2151V10.5671C8.13234 10.5498 8.12369 10.5334 8.10899 10.5256L6.16996 9.4073C6.16283 9.40285 6.15462 9.40044 6.14621 9.40034C6.13781 9.40024 6.12954 9.40245 6.1223 9.40674C6.11507 9.41102 6.10916 9.41722 6.10521 9.42464C6.10126 9.43206 6.09943 9.44042 6.09991 9.44881V28.9887C6.10001 28.9971 6.09787 29.0055 6.09369 29.0128C6.08952 29.0201 6.08347 29.0262 6.07616 29.0305C6.06885 29.0347 6.06055 29.0369 6.05211 29.0368C6.04367 29.0368 6.03539 29.0345 6.02813 29.0302L4.0891 27.9102C4.08203 27.906 4.07616 27.9001 4.07207 27.893C4.06798 27.8858 4.0658 27.8778 4.06575 27.8696V8.22416C4.06575 8.20687 4.0571 8.1913 4.04326 8.18265L2.10337 7.06352C2.0963 7.05911 2.08817 7.05671 2.07985 7.05658C2.07152 7.05645 2.06332 7.05859 2.05611 7.06277C2.04891 7.06695 2.04299 7.07301 2.03897 7.0803C2.03495 7.0876 2.033 7.09584 2.03332 7.10417V26.6415C2.03377 26.65 2.03189 26.6584 2.0279 26.6659C2.0239 26.6734 2.01793 26.6797 2.01064 26.684C2.00334 26.6884 1.99499 26.6907 1.98649 26.6906C1.97799 26.6906 1.96966 26.6883 1.9624 26.6838L0.0242346 25.5647C0.0167539 25.5609 0.0105034 25.5551 0.00621477 25.5479C0.00192614 25.5407 -0.000223203 25.5324 1.83333e-05 25.5241V5.84838L1.98056 4.7033C2.01169 4.686 2.04975 4.686 2.08002 4.7033L12.1453 10.5135C12.1756 10.5308 12.2136 10.5308 12.2439 10.5135L14.1596 9.40903C14.167 9.40503 14.1732 9.39909 14.1775 9.39186C14.1818 9.38463 14.1841 9.37637 14.1841 9.36795C14.1841 9.35953 14.1818 9.35127 14.1775 9.34404C14.1732 9.3368 14.167 9.33087 14.1596 9.32687L4.13667 3.54352C4.12945 3.53957 4.12343 3.53375 4.11923 3.52668C4.11504 3.5196 4.11282 3.51153 4.11282 3.5033C4.11282 3.49507 4.11504 3.487 4.11923 3.47992C4.12343 3.47285 4.12945 3.46703 4.13667 3.46308L6.04715 2.35865C6.07742 2.34135 6.11548 2.34135 6.14575 2.35865L16.218 8.16795C16.2323 8.1756 16.2484 8.1796 16.2647 8.1796C16.281 8.1796 16.297 8.1756 16.3114 8.16795L18.2279 7.06265C18.2345 7.05822 18.2399 7.05224 18.2437 7.04522C18.2474 7.03821 18.2494 7.03038 18.2494 7.02244C18.2494 7.01449 18.2474 7.00666 18.2437 6.99965C18.2399 6.99263 18.2345 6.98665 18.2279 6.98222L8.20326 1.19973C8.19583 1.19586 8.1896 1.19002 8.18525 1.18285C8.18091 1.17569 8.17861 1.16747 8.17861 1.15908C8.17861 1.1507 8.18091 1.14248 8.18525 1.13531C8.1896 1.12815 8.19583 1.12231 8.20326 1.11843L10.1189 0.0131376ZM65.8136 5.60276C68.6625 5.60276 71.1611 7.18546 71.3073 11.1915C71.3089 11.2904 71.2719 11.386 71.204 11.4579C71.1361 11.5298 71.0428 11.5723 70.944 11.5764H69.0716C68.9793 11.5772 68.8903 11.5426 68.8229 11.4797C68.7554 11.4167 68.7147 11.3303 68.7092 11.2382C68.5838 9.06135 67.2779 8.02006 65.6398 8.02006C64.0658 8.02006 62.8852 8.94373 62.8852 10.4218C62.8852 11.6983 63.6567 12.3919 65.6718 13.8077L68.4887 15.8402C70.4398 17.2568 71.5416 18.5351 71.5416 20.5511C71.5416 23.8168 68.8493 25.755 65.6865 25.755C62.6967 25.755 60.3399 24.1238 60.0839 20.1212C60.0803 20.0715 60.0871 20.0216 60.1038 19.9746C60.1204 19.9277 60.1467 19.8847 60.1808 19.8483C60.2149 19.812 60.2562 19.7831 60.3021 19.7636C60.3479 19.744 60.3973 19.7342 60.4472 19.7347H62.3499C62.4415 19.7367 62.5292 19.7725 62.5961 19.8352C62.663 19.8979 62.7044 19.9832 62.7122 20.0745C62.8852 22.3059 64.2232 23.3394 65.7972 23.3394C67.3081 23.3394 68.7239 22.523 68.7239 20.6151C68.7239 19.4268 68.1903 18.8438 66.6448 17.8121L63.3894 15.5496C61.4383 14.2393 60.1323 12.7777 60.1323 10.5749C60.1323 7.41811 62.7918 5.60276 65.8136 5.60276ZM47.2415 5.81725C47.2889 5.81597 47.3361 5.82423 47.3802 5.84155C47.4244 5.85886 47.4646 5.88487 47.4985 5.91803C47.5323 5.95119 47.5592 5.99082 47.5775 6.03457C47.5957 6.07832 47.605 6.1253 47.6048 6.17271V20.4283C47.6048 22.1987 48.9566 23.323 50.5626 23.323C52.1687 23.323 53.5533 22.1987 53.5533 20.4283V6.18395C53.5653 6.08653 53.6114 5.99651 53.6834 5.92985C53.7555 5.8632 53.8488 5.82422 53.9468 5.81984H55.9922C56.0396 5.81845 56.0867 5.8266 56.1309 5.84382C56.175 5.86103 56.2152 5.88696 56.2491 5.92005C56.283 5.95314 56.3099 5.99272 56.3282 6.03642C56.3464 6.08013 56.3557 6.12706 56.3555 6.17444V20.4793C56.3555 23.7295 53.6952 25.7152 50.5782 25.7152C47.5252 25.7152 44.8649 23.713 44.8649 20.4802V6.17184C44.8645 6.12451 44.8737 6.07759 44.8919 6.03389C44.9101 5.99019 44.9369 5.95061 44.9707 5.9175C45.0045 5.8844 45.0447 5.85846 45.0888 5.84123C45.1328 5.82401 45.18 5.81585 45.2273 5.81725H47.2415ZM113.188 5.84925C116.619 5.84925 118.979 8.01919 118.979 11.2374C118.979 13.3779 117.846 15.1638 115.768 16.2103C115.75 16.2168 115.735 16.2297 115.725 16.2465C115.716 16.2633 115.713 16.283 115.716 16.302L115.722 16.3193L119.137 25.0467C119.158 25.0994 119.167 25.1565 119.162 25.2132C119.157 25.2699 119.138 25.3246 119.108 25.3729C119.078 25.4212 119.037 25.4616 118.988 25.4908C118.939 25.5201 118.884 25.5374 118.827 25.5414H116.665C116.564 25.5215 116.469 25.4787 116.388 25.4161C116.307 25.3535 116.241 25.273 116.195 25.1807L116.177 25.1401L113.155 16.9031C113.145 16.8713 113.125 16.8431 113.099 16.8217C113.073 16.8003 113.042 16.7866 113.008 16.782L112.983 16.7803H110.181C110.136 16.7805 110.093 16.7966 110.059 16.8257C110.025 16.8548 110.002 16.8951 109.994 16.9394L109.993 16.9645V25.1401C109.992 25.2291 109.959 25.3148 109.898 25.3801C109.838 25.4453 109.755 25.4853 109.666 25.4921H107.585C107.496 25.4943 107.41 25.463 107.343 25.4043C107.276 25.3456 107.234 25.264 107.224 25.1755L107.222 25.1409V6.20211C107.223 6.11311 107.256 6.02741 107.317 5.96204C107.377 5.89667 107.46 5.85641 107.549 5.84925L107.585 5.84838L113.188 5.84925ZM36.4947 5.84925C40.0666 5.84925 42.2867 7.92665 42.2867 11.4069C42.2867 14.8534 39.8175 17.0588 36.5613 17.1029H33.4547C33.3605 17.1029 33.2817 17.1721 33.267 17.262L33.2653 17.2879V25.1695C33.266 25.2587 33.2329 25.345 33.1725 25.4108C33.1122 25.4766 33.0291 25.5171 32.9401 25.5241L32.9038 25.5249H30.8584C30.7682 25.5152 30.6838 25.4753 30.619 25.4117C30.5542 25.3482 30.5127 25.2647 30.5012 25.1747L30.4977 25.1401V6.20298C30.4965 6.11342 30.5297 6.02681 30.5906 5.96111C30.6514 5.8954 30.7353 5.85566 30.8247 5.85011L30.8601 5.84925H36.4947ZM77.9477 5.84838C77.995 5.84711 78.0421 5.85534 78.0862 5.8726C78.1303 5.88986 78.1704 5.9158 78.2043 5.94886C78.2382 5.98193 78.2651 6.02146 78.2834 6.06511C78.3017 6.10876 78.3111 6.15564 78.3109 6.20298V14.1182C78.3135 14.2203 78.3974 14.3016 78.4995 14.3024H84.5267C84.576 14.3024 84.6233 14.2832 84.6585 14.2488C84.6938 14.2143 84.7141 14.1675 84.7153 14.1182V6.20298C84.7152 6.15567 84.7247 6.10885 84.7431 6.06525C84.7614 6.02166 84.7883 5.98217 84.8222 5.94913C84.856 5.91609 84.8961 5.89015 84.9401 5.87285C84.9842 5.85555 85.0312 5.84723 85.0785 5.84838H87.1239C87.1712 5.84711 87.2183 5.85534 87.2624 5.8726C87.3065 5.88986 87.3466 5.9158 87.3805 5.94886C87.4144 5.98193 87.4413 6.02146 87.4596 6.06511C87.4779 6.10876 87.4873 6.15564 87.4872 6.20298V25.1539C87.4873 25.2013 87.4779 25.2482 87.4596 25.2919C87.4413 25.3356 87.4144 25.3752 87.3806 25.4083C87.3467 25.4414 87.3065 25.4675 87.2625 25.4848C87.2184 25.5022 87.1713 25.5105 87.1239 25.5094H85.0785C85.0304 25.509 84.9828 25.4992 84.9385 25.4804C84.8942 25.4617 84.854 25.4344 84.8203 25.4001C84.7865 25.3658 84.7599 25.3251 84.7419 25.2805C84.7238 25.2359 84.7148 25.1882 84.7153 25.1401V16.8581C84.7146 16.8086 84.6944 16.7613 84.6591 16.7265C84.6238 16.6917 84.5763 16.6722 84.5267 16.6722H78.4986C78.4493 16.6726 78.4021 16.6921 78.367 16.7266C78.3318 16.7612 78.3114 16.808 78.3101 16.8572V25.1392C78.3103 25.1864 78.3011 25.2333 78.2828 25.2769C78.2646 25.3205 78.2378 25.36 78.204 25.393C78.1701 25.426 78.13 25.4518 78.086 25.469C78.042 25.4862 77.9949 25.4943 77.9477 25.4929H75.9023C75.855 25.4944 75.808 25.4864 75.7639 25.4693C75.7199 25.4523 75.6797 25.4265 75.6458 25.3936C75.6119 25.3607 75.585 25.3212 75.5666 25.2777C75.5483 25.2341 75.5389 25.1873 75.539 25.1401V6.20298C75.5387 6.15557 75.5479 6.10858 75.5661 6.06482C75.5843 6.02106 75.6112 5.98143 75.6451 5.94832C75.6791 5.9152 75.7193 5.88928 75.7635 5.87211C75.8077 5.85494 75.8549 5.84687 75.9023 5.84838H77.9477ZM103.036 5.84838C103.083 5.84674 103.13 5.85473 103.174 5.87187C103.219 5.88901 103.259 5.91494 103.293 5.94809C103.327 5.98124 103.353 6.02092 103.372 6.06474C103.39 6.10855 103.399 6.15558 103.398 6.20298V7.85054C103.398 7.89777 103.389 7.94453 103.37 7.98806C103.352 8.0316 103.325 8.07104 103.291 8.10407C103.258 8.1371 103.218 8.16306 103.174 8.18041C103.13 8.19777 103.083 8.20617 103.036 8.20514H95.6229C95.5735 8.20535 95.5261 8.22478 95.4908 8.25932C95.4554 8.29387 95.4349 8.34081 95.4335 8.39022V14.1935C95.4349 14.2429 95.4554 14.2898 95.4908 14.3244C95.5261 14.3589 95.5735 14.3783 95.6229 14.3785H100.722C100.769 14.3773 100.816 14.3855 100.86 14.4028C100.904 14.4201 100.944 14.446 100.978 14.4791C101.012 14.5122 101.039 14.5518 101.057 14.5954C101.075 14.639 101.084 14.6859 101.084 14.7331V16.379C101.084 16.4263 101.075 16.4733 101.057 16.517C101.039 16.5608 101.013 16.6004 100.979 16.6335C100.945 16.6667 100.905 16.6926 100.861 16.7098C100.817 16.727 100.769 16.7351 100.722 16.7336H95.6229C95.5737 16.7338 95.5264 16.7531 95.491 16.7874C95.4557 16.8218 95.4351 16.8685 95.4335 16.9178V22.9537C95.4349 23.0031 95.4554 23.05 95.4908 23.0846C95.5261 23.1191 95.5735 23.1386 95.6229 23.1388H103.036C103.233 23.1388 103.394 23.2953 103.398 23.4934V25.1401C103.395 25.2344 103.356 25.3241 103.288 25.3899C103.221 25.4558 103.13 25.4927 103.036 25.4929H93.0257C92.9782 25.496 92.9306 25.489 92.8859 25.4725C92.8412 25.456 92.8005 25.4302 92.7664 25.397C92.7323 25.3637 92.7056 25.3236 92.688 25.2794C92.6704 25.2351 92.6623 25.1877 92.6642 25.1401V6.20298C92.6636 6.15565 92.6726 6.1087 92.6907 6.06495C92.7087 6.02119 92.7354 5.98155 92.7692 5.94841C92.803 5.91527 92.8431 5.88932 92.8872 5.87213C92.9313 5.85494 92.9784 5.84686 93.0257 5.84838H103.036ZM36.493 8.15757H33.4547C33.4105 8.15906 33.3681 8.17594 33.3349 8.2053C33.3018 8.23466 33.2799 8.27468 33.2731 8.31844L33.2696 8.34265V14.5757C33.2722 14.6709 33.344 14.7487 33.4366 14.7591L33.4599 14.7608L36.4947 14.7634C38.3827 14.7634 39.4526 13.1928 39.4526 11.4077C39.4526 9.55952 38.477 8.15757 36.493 8.15757ZM112.967 8.15757H110.181C110.14 8.15752 110.1 8.17233 110.068 8.19931C110.037 8.22629 110.016 8.26365 110.01 8.3046L110.008 8.32795V14.331C110.009 14.3759 110.026 14.419 110.056 14.4526C110.086 14.4861 110.127 14.508 110.172 14.5143L110.197 14.5161L112.967 14.5334C114.597 14.5334 116.058 13.409 116.098 11.4302L116.099 11.3463C116.099 9.52838 114.919 8.15757 112.967 8.15757Z" fill="black"/>
</g>
<defs>
<clipPath id="clip0_333_2560">
<rect width="119.351" height="32" fill="white"/>
</clipPath>
</defs>
</svg>
