<svg width="116" height="34" viewBox="0 0 116 34" fill="none" xmlns="http://www.w3.org/2000/svg">
<g clip-path="url(#clip0_337_2999)">
<mask id="mask0_337_2999" style="mask-type:luminance" maskUnits="userSpaceOnUse" x="0" y="0" width="116" height="34">
<path d="M0 0H116V34H0V0Z" fill="white"/>
</mask>
<g mask="url(#mask0_337_2999)">
<path d="M43.7378 14.4763C43.7378 10.8859 42.7235 9.04172 40.6941 8.94108C39.8883 8.9019 39.0833 9.03539 38.3323 9.33276C37.7199 9.55376 37.3086 9.77272 37.0914 9.99372V18.5651C38.3896 19.3872 39.5415 19.7687 40.5471 19.7089C42.6729 19.5661 43.7378 17.8239 43.7378 14.4763ZM46.2406 14.6252C46.2406 16.4496 45.8163 17.964 44.9639 19.1676C44.0136 20.5303 42.6972 21.2321 41.0138 21.2708C39.7445 21.3116 38.4369 20.9104 37.0914 20.0693V27.8587L34.915 27.0753V9.78428C35.2725 9.34228 35.7311 8.96284 36.2888 8.64052C37.5837 7.87892 39.1585 7.48656 41.0111 7.46752L41.0421 7.4988C42.7349 7.47704 44.0399 8.1788 44.9565 9.60204C45.8116 10.907 46.2406 12.5804 46.2406 14.6252ZM59.5428 19.7374C59.5428 22.1841 59.3 23.8786 58.8144 24.8211C58.3261 25.7629 57.3975 26.515 56.0257 27.0753C54.9129 27.5173 53.7104 27.758 52.4202 27.7988L52.0601 26.4144C53.3725 26.2348 54.2965 26.054 54.832 25.8738C55.8874 25.5134 56.6111 24.9605 57.009 24.22C57.328 23.6168 57.4851 22.4656 57.4851 20.7615V20.1903C56.017 20.8678 54.4206 21.2162 52.806 21.2117C51.7337 21.2117 50.7895 20.8724 49.9741 20.1896C49.0596 19.4471 48.603 18.5053 48.603 17.3636V8.2196L50.7794 7.46752V16.6706C50.7794 17.6532 51.0937 18.4108 51.7222 18.9418C52.3508 19.4729 53.1655 19.7279 54.1636 19.7082C55.1611 19.6864 56.23 19.2975 57.3658 18.5352V7.79936H59.5428V19.7374ZM68.0391 21.1505C67.801 21.1709 67.5616 21.1818 67.3222 21.1818C66.0914 21.1818 65.131 20.8866 64.4458 20.2923C63.7619 19.6994 63.4193 18.88 63.4193 17.8341V9.18112H61.9289V7.79936H63.4193V4.12872L65.5937 3.34808V7.79936H68.0391V9.18112H65.5937V17.7736C65.5937 18.5984 65.8122 19.1819 66.2505 19.5239C66.6269 19.8048 67.2244 19.9659 68.0391 20.0067V21.1505ZM81.2179 20.9703H79.0409V12.4914C79.0409 11.6284 78.8413 10.8866 78.4434 10.2664C77.9841 9.56396 77.3461 9.21308 76.5267 9.21308C75.5285 9.21308 74.2808 9.74416 72.783 10.8063V20.971H70.6066V0.701517L72.783 0.00927734V9.24096C74.1736 8.2196 75.6931 7.70756 77.3434 7.70756C78.496 7.70756 79.4294 8.09924 80.1436 8.88056C80.8605 9.66188 81.2179 10.635 81.2179 11.7984V20.9703ZM92.7862 14.1302C92.7862 12.7504 92.5266 11.6114 92.01 10.7098C91.3949 9.61156 90.4406 9.0322 89.1498 8.97236C86.7637 9.11176 85.5726 10.8369 85.5726 14.1444C85.5726 15.6608 85.8202 16.9277 86.3206 17.945C86.9586 19.2404 87.9162 19.8796 89.1929 19.8578C91.5885 19.8381 92.7862 17.93 92.7862 14.1302ZM95.1696 14.1444C95.1696 16.1083 94.6719 17.743 93.6791 19.0472C92.5859 20.5092 91.0766 21.2416 89.1498 21.2416C87.2398 21.2416 85.7514 20.5086 84.6777 19.0479C83.7038 17.7423 83.2176 16.1083 83.2176 14.1444C83.2176 12.2989 83.7436 10.7458 84.7964 9.48168C85.9085 8.14072 87.3706 7.46752 89.1781 7.46752C90.9855 7.46752 92.4571 8.14072 93.5908 9.48168C94.6436 10.7465 95.1696 12.2989 95.1696 14.1444ZM107.648 20.9703H105.471V12.0099C105.471 11.0273 105.179 10.2603 104.593 9.70744C104.007 9.15664 103.226 8.89076 102.252 8.91184C101.218 8.93088 100.234 9.27224 99.3011 9.9332V20.971H97.1247V9.66256C98.3771 8.74252 99.5304 8.1414 100.583 7.86056C101.575 7.59808 102.452 7.4682 103.207 7.4682C103.723 7.4682 104.21 7.51852 104.667 7.61984C105.521 7.81908 106.217 8.189 106.753 8.73232C107.35 9.33344 107.648 10.0542 107.648 10.8981V20.9703Z" fill="#646464"/>
<path d="M13.4176 0.782554C12.2981 0.787994 11.2278 0.884554 10.287 1.05251C7.5151 1.54687 7.01199 2.58115 7.01199 4.48991V7.00931H13.5626V7.84911H4.55373C2.64985 7.84911 0.982683 9.00443 0.461358 11.2015C-0.140224 13.7196 -0.1672 15.291 0.461358 17.9213C0.926707 19.8783 2.0395 21.2737 3.94271 21.2737H6.19526V18.2524C6.19526 16.0696 8.06543 14.1452 10.287 14.1452H16.8302C18.6511 14.1452 20.1051 12.6316 20.1051 10.786V4.48923C20.1051 2.69743 18.6079 1.35171 16.8302 1.05251C15.7022 0.866357 14.5606 0.776053 13.4176 0.782554ZM9.87489 2.80895C10.5513 2.80895 11.1037 3.37607 11.1037 4.07307C11.1037 4.76735 10.5513 5.32903 9.87489 5.32903C9.71235 5.32806 9.55159 5.29478 9.4018 5.23112C9.25202 5.16745 9.11615 5.07464 9.00197 4.958C8.88778 4.84135 8.79752 4.70316 8.73635 4.55132C8.67517 4.39947 8.64427 4.23696 8.64543 4.07307C8.64543 3.37607 9.19575 2.80895 9.87489 2.80895Z" fill="url(#paint0_linear_337_2999)"/>
<path d="M20.9226 7.84912V10.7847C20.9226 13.0613 19.0106 14.9769 16.8309 14.9769H10.2877C8.49507 14.9769 7.0127 16.5252 7.0127 18.3361V24.6329C7.0127 26.424 8.55577 27.478 10.2877 27.9921C12.3608 28.6075 14.3497 28.719 16.8309 27.9921C18.4798 27.51 20.1059 26.5403 20.1059 24.6329V22.1128H13.5626V21.273H23.3808C25.2847 21.273 25.9942 19.9327 26.6565 17.9206C27.3403 15.85 27.3107 13.8583 26.6565 11.2015C26.1857 9.28868 25.2874 7.84912 23.3808 7.84912H20.9226ZM17.243 23.7924C17.9214 23.7924 18.4717 24.3541 18.4717 25.0484C18.4717 25.7454 17.9214 26.3125 17.243 26.3125C16.5658 26.3125 16.0135 25.7454 16.0135 25.0484C16.0135 24.3548 16.5665 23.7924 17.243 23.7924Z" fill="url(#paint1_linear_337_2999)"/>
<path d="M111.886 5.84108H112.268V3.42436H113.172V3.13672H110.982V3.42436H111.886V5.84108ZM113.51 5.84108H113.836V3.6338L114.544 5.83972H114.907L115.644 3.64128V5.83972H116V3.1374H115.529L114.723 5.45348L114.036 3.1374H113.51V5.8404V5.84108Z" fill="#646464"/>
<path opacity="0.444" d="M22.4146 32.2728C22.4146 33.2214 18.484 33.9904 13.6357 33.9904C8.78793 33.9904 4.85742 33.2214 4.85742 32.2721C4.85742 31.3235 8.78793 30.5537 13.6357 30.5537C18.4847 30.5537 22.4146 31.3242 22.4146 32.2728Z" fill="url(#paint2_radial_337_2999)"/>
</g>
</g>
<defs>
<linearGradient id="paint0_linear_337_2999" x1="-0.646038" y1="1.56999" x2="14.577" y2="14.4205" gradientUnits="userSpaceOnUse">
<stop stop-color="#5A9FD4"/>
<stop offset="1" stop-color="#306998"/>
</linearGradient>
<linearGradient id="paint1_linear_337_2999" x1="20.1281" y1="22.6582" x2="14.6417" y2="15.0414" gradientUnits="userSpaceOnUse">
<stop stop-color="#FFD43B"/>
<stop offset="1" stop-color="#FFE873"/>
</linearGradient>
<radialGradient id="paint2_radial_337_2999" cx="0" cy="0" r="1" gradientUnits="userSpaceOnUse" gradientTransform="translate(13.633 32.2326) rotate(-90) scale(1.71772 7.48214)">
<stop stop-color="#B8B8B8" stop-opacity="0.498"/>
<stop offset="1" stop-color="#7F7F7F" stop-opacity="0"/>
</radialGradient>
<clipPath id="clip0_337_2999">
<rect width="116" height="34" fill="white"/>
</clipPath>
</defs>
</svg>
