<svg width="180" height="60" viewBox="0 0 180 60" fill="none" xmlns="http://www.w3.org/2000/svg">
<path d="M62.3606 21.7459L59.8059 24.3008C64.064 28.5589 64.064 35.4935 59.8059 39.7516C55.5478 44.0097 48.6131 44.0097 44.355 39.7516C40.0968 35.4935 40.0968 28.5589 44.355 24.3008L51.1679 17.4878L52.0196 16.5145V11.4048L41.6784 21.7459C40.3196 23.091 39.241 24.6921 38.5048 26.4567C37.7687 28.2212 37.3896 30.1142 37.3896 32.0262C37.3896 33.9381 37.7687 35.8311 38.5048 37.5957C39.241 39.3602 40.3196 40.9614 41.6784 42.3065C43.0235 43.6652 44.6246 44.7439 46.3892 45.4801C48.1538 46.2162 50.0467 46.5952 51.9587 46.5952C53.8707 46.5952 55.7637 46.2162 57.5282 45.4801C59.2928 44.7439 60.8939 43.6652 62.239 42.3065C68.0787 36.5884 68.0787 27.3423 62.3606 21.7459Z" fill="#EE4C2C"/>
<path d="M57.2512 21.0162C58.3263 21.0162 59.1978 20.1447 59.1978 19.0696C59.1978 17.9946 58.3263 17.123 57.2512 17.123C56.1762 17.123 55.3047 17.9946 55.3047 19.0696C55.3047 20.1447 56.1762 21.0162 57.2512 21.0162Z" fill="#EE4C2C"/>
<path d="M78.0076 31.0278H76.0076V36.1718H74.5146V21.5698H78.1646C82.0366 21.5698 83.8616 23.4498 83.8616 26.1698C83.8616 29.3778 81.5936 30.9818 77.9986 31.0368L78.0076 31.0278ZM78.1077 22.9528H75.9596V29.6458L78.0616 29.5908C80.8276 29.5358 82.3216 28.4288 82.3216 26.1608C82.3216 24.1148 80.8836 22.9528 78.1176 22.9528H78.1077ZM90.6196 36.1158L89.7346 38.4388C88.7386 41.0388 87.7346 41.8128 86.2496 41.8128C85.4196 41.8128 84.8116 41.5928 84.1476 41.3148L84.5896 39.9878C85.0876 40.2648 85.6396 40.4298 86.2496 40.4298C87.0796 40.4298 87.6877 39.9878 88.4617 37.9298L89.1816 36.0498L85.0336 25.4858H86.5836L89.9576 34.3358L93.2776 25.4858H94.7707L90.6196 36.1158ZM99.7447 23.0078V36.2278H98.2516V23.0078H93.1077V21.5698H104.888V22.9528H99.7437L99.7447 23.0078ZM109.092 36.5028C106.105 36.5028 103.892 34.2908 103.892 30.8608C103.892 27.4308 106.16 25.1638 109.192 25.1638C112.179 25.1638 114.336 27.3758 114.336 30.8058C114.336 34.2358 112.068 36.5028 109.081 36.5028H109.092ZM109.147 26.5028C106.879 26.5028 105.387 28.3278 105.387 30.8168C105.387 33.4168 106.937 35.1868 109.203 35.1868C111.469 35.1868 112.963 33.3618 112.963 30.8728C112.963 28.2728 111.413 26.5028 109.147 26.5028ZM118.053 36.2268H116.615V25.4968L118.053 25.2198V27.4878C118.773 26.1048 119.823 25.2198 121.206 25.2198C121.864 25.2252 122.511 25.3965 123.086 25.7178L122.7 27.0998C122.258 26.8228 121.65 26.6578 121.04 26.6578C119.934 26.6578 118.883 27.4878 117.998 29.4238V36.2268H118.053ZM128.783 36.5028C125.575 36.5028 123.528 34.1798 123.528 30.8608C123.528 27.4868 125.74 25.1638 128.783 25.1638C130.11 25.1638 131.217 25.4958 132.157 26.1038L131.77 27.4308C130.94 26.8778 129.945 26.5458 128.783 26.5458C126.46 26.5458 125.023 28.2608 125.023 30.8058C125.023 33.4058 126.573 35.1198 128.839 35.1198C129.898 35.1149 130.934 34.8079 131.826 34.2348L132.103 35.5618C131.163 36.1698 130.001 36.5028 128.783 36.5028ZM141.117 36.2268V29.3128C141.117 27.4328 140.343 26.6128 138.849 26.6128C137.632 26.6128 136.415 27.2208 135.529 28.1628V36.2928H134.091V20.4728L135.529 20.1958V26.9438C136.635 25.8378 138.073 25.2288 139.235 25.2288C141.337 25.2288 142.609 26.5558 142.609 28.8788V36.2348L141.117 36.2268Z" fill="#252525"/>
</svg>
