<svg width="134" height="37" viewBox="0 0 134 37" fill="none" xmlns="http://www.w3.org/2000/svg">
<g clip-path="url(#clip0_337_5289)">
<path d="M0.0802346 2.92144C0.0405309 3.01435 0.0140617 2.45688 0.0140617 1.6733L0 0.239348L1.70147 0.265659C2.6527 0.278814 3.17547 0.305125 2.881 0.331437C2.39877 0.372548 2.33177 0.42517 2.23747 0.80997C2.18453 1.03608 2.144 1.51379 2.144 2.49635H1.474C1.11253 2.49635 0.804 2.54979 0.804 2.62955C0.804 2.69533 0.656765 2.76275 0.469 2.76275C0.281235 2.76275 0.107531 2.84168 0.0802346 2.92144ZM9.849 0.74337C9.83576 0.637303 9.40647 0.518081 8.69676 0.42517C7.772 0.305125 8.87047 0.278814 14.9145 0.265659C21.373 0.252503 22.244 0.265659 22.177 0.438325C22.1365 0.557548 21.9619 0.637303 21.775 0.637303C21.5872 0.637303 21.44 0.703081 21.44 0.770503C21.44 0.850259 21.0645 0.902881 20.569 0.902881C20.0868 0.902881 19.698 0.968659 19.698 1.03608C19.698 1.12899 18.1165 1.16846 15.209 1.16846C12.3139 1.16846 10.72 1.12899 10.72 1.03608C10.72 0.969481 10.5322 0.902881 10.3048 0.902881C10.0632 0.902881 9.86223 0.837103 9.849 0.74337ZM29.882 0.74337C29.882 0.504925 29.8018 0.35857 29.6545 0.332259C29.5205 0.304303 46.8462 0.278814 68.139 0.278814C89.445 0.278814 106.772 0.29197 106.664 0.318281C106.556 0.345414 106.182 0.398037 105.19 0.504925L105.177 1.20875C105.177 1.59355 105.123 2.0581 105.056 2.23077C104.963 2.53664 104.948 2.51033 104.935 2.07208C104.922 1.6733 104.814 1.46117 103.716 0.371725H94.47V7.80873H95.073C95.609 7.80873 95.676 7.84901 95.6892 8.11459C95.6892 8.2741 95.7968 8.48624 95.9175 8.56681C96.0912 8.68521 95.7562 8.73948 94.336 8.7921C93.3442 8.83157 92.4062 8.85788 92.259 8.84473C92.1118 8.84473 88.7882 8.84473 84.8625 8.8587C78.7382 8.87186 77.7068 8.91133 77.5322 9.08399C77.3585 9.2435 77.318 9.70888 77.318 12.0325C77.3048 14.3832 77.3445 14.8215 77.519 14.981C77.6927 15.1536 77.7341 15.5384 77.7341 17.2783C77.72 19.0181 77.6927 19.3766 77.519 19.43C77.385 19.4826 77.318 19.6824 77.318 20.0944C77.318 20.4257 77.2642 20.6913 77.184 20.6913C77.117 20.6913 77.0368 20.8911 76.983 21.5546L74.906 21.6212V20.6255C74.906 20.0804 74.8522 19.6027 74.772 19.5624C74.6918 19.5229 74.638 18.6201 74.638 17.2388C74.638 15.8311 74.6918 14.981 74.772 14.981C74.8655 14.981 74.906 14.0519 74.906 12.4567C74.906 10.3058 74.8795 9.93417 74.705 9.93417C74.5578 9.93417 74.504 9.78781 74.504 8.87186L71.9977 8.8587C70.618 8.84473 68.4872 8.8587 67.268 8.87186C66.0488 8.89817 64.655 8.87186 64.1595 8.83157C63.2612 8.75181 63.248 8.73866 63.248 7.94193H59.094V8.67206L57.4595 8.77895C56.548 8.83157 54.9805 8.88501 53.9755 8.88501C52.8365 8.88501 52.126 8.92448 52.126 9.00424C52.126 9.08399 52.0052 9.1769 51.858 9.20321C51.6305 9.26981 51.59 9.38986 51.59 10.9965H49.178V9.40301H48.441C47.8785 9.40301 47.704 9.36273 47.704 9.20404C47.704 9.09715 47.57 8.97793 47.4095 8.95161C47.235 8.91133 46.1225 8.84473 44.9305 8.77895C42.9867 8.68521 42.746 8.6589 42.746 8.44677C42.746 8.23381 42.5582 8.2075 40.602 8.2075C38.6458 8.2075 38.458 8.23381 38.458 8.44595C38.4663 8.59724 38.324 8.70741 38.0295 8.77895C37.788 8.83157 36.8235 8.88501 34.17 8.87186V6.74641L33.6075 6.75957C33.2849 6.75957 32.83 6.70695 32.16 6.54744V4.70155C32.16 3.00119 32.1468 2.81537 31.892 2.60324C31.7042 2.44373 31.3957 2.37713 30.083 2.37713L29.9895 1.7399C29.9225 1.39457 29.882 0.942348 29.882 0.74337ZM117.598 7.34417C117.76 7.18466 117.786 6.50715 117.786 3.69186V0.238525H134V8.87186H126.898L126.764 9.20404C126.697 9.38986 126.63 9.86757 126.63 10.9965H125.826C125.115 10.9965 125.022 11.0359 125.022 11.2621C125.022 11.4397 124.933 11.5276 124.754 11.5276C124.499 11.5276 124.486 11.6205 124.486 13.3875C124.486 14.5427 124.432 15.2457 124.352 15.2457C124.272 15.2457 124.218 14.5822 124.218 13.5199C124.218 11.8861 124.205 11.7932 123.95 11.7932C123.749 11.7932 123.682 11.7135 123.682 10.9965H122.074V10.3716C122.074 10.0263 122.033 9.54937 121.873 8.87186L119.193 8.8587C117.719 8.84473 115.521 8.80526 114.302 8.75181C113.083 8.69919 112.292 8.64575 112.534 8.63259C112.869 8.61944 112.962 8.55284 112.962 8.33988C112.962 8.19435 113.029 8.0743 113.096 8.0743C113.176 8.0743 113.23 7.95508 113.23 7.80873C113.23 7.55713 113.323 7.54315 115.32 7.54315C116.995 7.54315 117.438 7.51684 117.598 7.34417Z" fill="white"/>
<path d="M85.626 25.8713V14.981H86.698V25.8713H85.626Z" fill="white"/>
<path d="M97.5925 17.0127C97.8738 16.9601 98.088 16.84 98.088 16.7471C98.088 16.6542 98.1815 16.5745 98.289 16.5745C98.4635 16.5745 98.49 17.1854 98.49 25.8713H97.284C96.3055 25.8713 96.078 25.9108 96.078 26.0703C96.078 26.1895 95.9572 26.3088 95.81 26.3359C95.5552 26.4017 95.542 26.5217 95.542 28.4613C95.542 29.6034 95.5685 30.6123 95.609 30.7183C95.676 30.891 96.2385 30.9181 103.716 30.9181V30.5194C103.716 30.3072 103.809 30.0416 103.917 29.9216C104.092 29.7489 104.105 28.939 104.025 23.4145C103.917 17.1722 103.917 17.1056 104.185 17.1056C104.453 17.1056 104.453 17.1722 104.386 23.8922C104.332 29.8155 104.345 30.6789 104.52 30.7989C104.641 30.8647 106.249 30.9181 108.246 30.9181C111.581 30.9181 111.769 30.905 112.024 30.6525C112.292 30.4001 112.292 30.2801 112.091 17.1056H113.766V17.9032C113.766 18.6202 113.792 18.6991 114.034 18.6991C114.213 18.6991 114.302 18.7879 114.302 18.9647C114.302 19.2039 114.395 19.2311 115.91 19.2311V20.9577C115.91 22.6038 115.923 22.6844 116.178 22.6844C116.392 22.6844 116.446 22.7765 116.446 23.4803H118.054V27.996H117.384C116.727 27.996 116.714 28.0091 116.714 28.3947C116.714 28.7138 116.66 28.7927 116.446 28.7927C116.219 28.7927 116.178 28.8864 116.178 29.457C116.178 29.8287 116.124 30.1214 116.044 30.1214C115.964 30.1214 115.91 31.3161 115.91 36.7617H0L0.0264691 33.68C0.0405309 31.9804 0.067 30.8384 0.147235 31.6491L0.978531 31.8341C1.43347 31.927 1.91653 32.0339 2.05053 32.0602C2.23747 32.1136 2.278 32.2723 2.278 34.1051H6.164C8.6703 34.1051 10.05 34.0656 10.05 33.9727C10.05 33.9069 10.1708 33.8395 10.318 33.8395C10.4652 33.8395 10.586 33.7869 10.586 33.7071C10.586 33.6273 12.1535 33.5739 15.008 33.5739C17.8758 33.5739 19.43 33.6273 19.43 33.7071C19.43 33.7869 19.966 33.8395 20.77 33.8395C21.9363 33.8395 22.1232 33.8798 22.1902 34.0788C22.2572 34.2909 22.4988 34.3049 26.0365 34.198C28.1127 34.1453 29.8282 34.0788 29.8415 34.0656C29.8555 34.0524 29.9225 33.6134 30.083 32.1136H30.6595C31.0483 32.1136 31.2485 32.0602 31.289 31.9138C31.3295 31.8078 31.4495 31.7149 31.557 31.7149C31.691 31.7149 31.758 31.5956 31.758 31.3827C31.758 31.21 31.825 31.0505 31.892 31.0505C31.9722 31.0505 32.0392 30.5325 32.0392 29.7621C32.0525 29.0451 32.1062 28.315 32.16 28.1292C32.2402 27.8899 32.2675 28.0494 32.294 29.5894H33.098C33.5529 29.5894 33.902 29.656 33.902 29.7226C33.902 29.8024 34.438 29.8558 36.582 29.8558V31.714H37.52C38.056 31.714 38.458 31.7815 38.458 31.8481C38.458 31.9402 39.6243 31.9804 41.674 31.9804C43.7378 31.9804 44.89 31.9402 44.89 31.8472C44.89 31.7815 44.9835 31.7149 45.1051 31.728C45.225 31.728 45.3995 31.6351 45.5062 31.529C45.6138 31.409 45.694 31.1969 45.694 31.0505C45.694 30.8121 45.7875 30.7849 48.106 30.7849V29.8558H49.312C50.3038 29.8558 50.518 29.8287 50.518 29.656C50.518 29.55 50.6652 29.3107 50.853 29.1249C51.0267 28.9522 51.2682 28.7927 51.389 28.7927C51.5362 28.7927 51.59 28.939 51.59 29.8558L54.739 29.9216L54.7795 30.2941C54.806 30.6526 54.8192 30.6525 55.744 30.6525C56.28 30.6525 56.682 30.7183 56.682 30.7849C56.682 30.8647 56.9905 30.9181 57.352 30.9181C57.7275 30.9181 58.022 30.9839 58.022 31.0505C58.022 31.1303 58.4769 31.1837 59.094 31.1837C60.0858 31.1837 60.166 31.21 60.166 31.4493C60.166 31.6877 60.2595 31.7149 60.836 31.7149C61.2115 31.7149 61.506 31.7806 61.506 31.8472C61.506 31.941 62.0958 31.9804 62.98 31.9804C63.8775 31.9804 64.454 31.9402 64.454 31.8472C64.454 31.7815 64.789 31.7149 65.191 31.7149C65.593 31.7149 66.0215 31.6886 66.129 31.6491C66.2762 31.608 66.33 31.3695 66.33 29.8558H68.742V31.4493H69.546C70.2698 31.4493 70.35 31.4888 70.35 31.7149C70.35 31.9673 70.4435 31.9804 73.834 31.9804V31.5817C73.834 31.3695 73.901 31.1837 73.968 31.1837C74.0482 31.1837 74.102 31.3695 74.102 31.5817C74.102 31.941 74.1558 31.9804 74.504 31.9804C74.7315 31.9804 74.906 31.927 74.906 31.8472C74.906 31.7683 75.643 31.7149 76.849 31.7149C77.921 31.7149 78.8855 31.6886 78.993 31.6491C79.1005 31.622 79.194 31.4353 79.194 30.9173H85.425C89.4988 30.9173 91.656 30.8778 91.656 30.7858C91.656 30.7192 91.7495 30.6525 91.857 30.6525C92.0315 30.6525 92.058 30.3072 92.058 26.0037H89.914V19.3634L90.6245 19.3766C91.0125 19.3766 91.79 19.324 92.3665 19.2705C93.0498 19.2048 93.398 19.111 93.398 19.005C93.398 18.912 93.4915 18.7525 93.5858 18.6333C93.6925 18.5264 93.8802 18.4335 93.9878 18.4335C94.1482 18.4335 94.202 18.3011 94.202 17.8366C94.202 17.3317 94.2425 17.2388 94.5105 17.1854C94.671 17.1459 95.3145 17.1196 95.944 17.1196C96.5735 17.1056 97.3105 17.0662 97.5925 17.0127ZM133.062 18.1679C133.289 18.1679 133.33 18.089 133.33 17.6368C133.33 17.1722 133.371 17.1056 134 17.1056V36.7617H129.109C124.311 36.7617 124.218 36.7617 124.218 36.4961C124.218 36.3497 124.285 36.2305 124.352 36.2305C124.432 36.2305 124.486 36.1507 124.486 36.0315C124.486 35.9246 124.566 35.8449 124.661 35.8449C124.754 35.8449 124.901 35.6994 124.996 35.5127C125.115 35.2611 125.264 35.1674 125.571 35.1674C125.8 35.1674 126.068 35.0884 126.174 34.9684C126.308 34.8229 126.362 34.4109 126.362 31.9804H127.97V31.4493C127.97 31.011 128.024 30.9181 128.238 30.9181C128.493 30.9181 128.506 30.8384 128.506 29.3238C128.506 28.3544 128.56 27.7304 128.64 27.7304C128.72 27.7304 128.774 27.584 128.774 27.3982C128.774 27.2255 128.867 26.9871 128.962 26.867C129.068 26.761 129.23 26.6681 129.297 26.6681C129.377 26.6681 129.444 26.6146 129.444 26.5357C129.444 26.4691 129.712 26.4025 130.65 26.4025L130.717 22.4846L131.093 22.4583C131.428 22.4312 131.454 22.3785 131.454 21.8868C131.454 21.4486 131.508 21.3557 131.722 21.3557C131.949 21.3557 131.99 21.2759 131.99 20.8245C131.99 20.4134 132.044 20.2802 132.258 20.2268C132.418 20.2005 132.58 19.9883 132.66 19.7351C132.74 19.4966 132.794 19.0444 132.794 18.7394C132.794 18.2608 132.835 18.1679 133.062 18.1679Z" fill="white"/>
<path fill-rule="evenodd" clip-rule="evenodd" d="M5.226 0.265569C6.29511 0.258406 7.36394 0.302584 8.42877 0.397947C9.29976 0.504836 9.83494 0.637213 9.86224 0.730124C9.88953 0.823036 10.0905 0.902791 10.318 0.902791C10.5455 0.902791 10.72 0.968569 10.72 1.03599C10.72 1.11575 12.3015 1.16837 15.209 1.16837C18.1165 1.16837 19.698 1.11575 19.698 1.03599C19.698 0.956236 20.0735 0.902791 20.569 0.902791C21.0653 0.902791 21.44 0.850169 21.44 0.770413C21.44 0.703813 21.5872 0.637213 21.775 0.637213C21.9628 0.637213 22.1365 0.544302 22.177 0.438236C22.2308 0.265569 22.7535 0.239258 25.7685 0.239258C27.6975 0.239258 29.413 0.265569 29.5875 0.305036C29.8018 0.35848 29.882 0.464547 29.882 0.730124C29.882 0.94308 29.9225 1.38132 30.083 2.36388H30.8605C31.3965 2.36388 31.7042 2.42966 31.892 2.58999C32.1335 2.80212 32.16 2.98795 32.16 6.54735L32.5885 6.65424C32.83 6.70686 33.2858 6.74632 34.17 6.74632V8.87177H35.8855C36.8235 8.87177 37.788 8.83148 38.0295 8.77886C38.3149 8.70732 38.458 8.59221 38.458 8.43352C38.458 8.23372 38.6458 8.20741 40.602 8.20741C42.5582 8.20741 42.746 8.23372 42.746 8.43352C42.746 8.64566 42.9735 8.68512 44.9165 8.77886C46.1225 8.83148 47.235 8.91123 47.4095 8.93755C47.57 8.97784 47.704 9.09706 47.704 9.20395C47.704 9.36264 47.8777 9.40292 49.178 9.40292V10.9964H51.59V10.1331C51.59 9.37661 51.6305 9.25657 51.858 9.20395C52.0052 9.16366 52.126 9.07075 52.126 9.00415C52.126 8.92439 52.8225 8.87177 53.9623 8.87177C54.9797 8.87177 56.548 8.83148 59.094 8.67197V7.94266H63.248V8.34061C63.248 8.73939 63.2612 8.73939 64.1595 8.81915C64.655 8.85944 66.0488 8.88492 67.268 8.87259C68.4872 8.84546 70.6048 8.84546 74.504 8.87259V9.40375C74.504 9.78855 74.5578 9.9349 74.705 9.9349C74.8787 9.9349 74.906 10.3065 74.906 12.4583C74.906 14.0518 74.8522 14.9817 74.772 14.9817C74.6918 14.9817 74.638 15.8179 74.638 17.2395C74.638 18.6069 74.6918 19.5237 74.772 19.5631C74.839 19.6034 74.906 20.0811 74.906 21.622L76.983 21.5562L77.0235 21.1171C77.0368 20.8918 77.117 20.692 77.184 20.692C77.251 20.692 77.318 20.4265 77.318 20.0951C77.318 19.6832 77.385 19.4702 77.519 19.4307C77.6795 19.3773 77.72 19.0057 77.72 17.2658C77.7332 15.526 77.6935 15.1544 77.519 14.9817C77.3312 14.809 77.3039 14.3839 77.318 12.0201C77.318 9.69564 77.3445 9.24424 77.5331 9.07157C77.7068 8.8989 78.7382 8.87259 84.8625 8.84546C88.7882 8.8323 92.1118 8.8323 92.259 8.84546C92.4062 8.85944 93.3442 8.8323 94.336 8.79284C95.7562 8.72624 96.0912 8.67279 95.9175 8.55357C95.7835 8.47381 95.6892 8.27401 95.676 8.10135C95.676 7.84975 95.609 7.80946 94.47 7.80946V0.371636H103.716L104.319 0.969391C104.814 1.46108 104.922 1.66006 104.935 2.05801C104.948 2.51024 104.963 2.52339 105.056 2.23068C105.11 2.04486 105.164 1.5803 105.177 1.19468C105.19 0.557458 105.216 0.504013 105.551 0.42508C105.767 0.371636 108.594 0.318191 117.786 0.239258V3.69259C117.786 6.50788 117.745 7.18457 117.598 7.34408C117.438 7.50359 116.995 7.54306 115.32 7.54306C113.323 7.54306 113.23 7.55703 113.23 7.80864C113.23 7.95499 113.163 8.07421 113.096 8.07421C113.029 8.07421 112.962 8.19426 112.962 8.33979C112.962 8.55275 112.869 8.60619 112.519 8.6325C112.292 8.64566 113.083 8.69828 114.302 8.73939C115.521 8.79201 117.719 8.84464 121.873 8.87095L121.981 9.29686C122.033 9.5353 122.074 10.0138 122.074 10.9964H123.682V11.3952C123.682 11.7002 123.736 11.7931 123.95 11.7931C124.205 11.7931 124.218 11.886 124.218 13.5198C124.218 14.5821 124.272 15.2465 124.352 15.2465C124.432 15.2465 124.486 14.5426 124.486 13.3874C124.486 11.6205 124.499 11.5275 124.754 11.5275C124.933 11.5275 125.022 11.4396 125.022 11.262C125.022 11.0235 125.115 10.9964 126.63 10.9964V10.2663C126.63 9.86748 126.697 9.38977 126.898 8.87177H134V17.1055H133.665C133.356 17.1055 133.33 17.1589 133.33 17.6367C133.33 18.0749 133.289 18.1678 133.062 18.1678C132.835 18.1678 132.794 18.2607 132.794 18.7261C132.794 19.0451 132.74 19.4965 132.66 19.7218C132.58 19.9742 132.418 20.1872 132.258 20.2267C132.044 20.2801 131.99 20.3993 131.99 20.8244C131.99 21.2627 131.949 21.3556 131.722 21.3556C131.495 21.3556 131.454 21.4485 131.454 21.8867C131.454 22.3653 131.413 22.4179 130.717 22.4845L130.65 26.4024H130.047C129.712 26.4024 129.444 26.4558 129.444 26.5356C129.444 26.6145 129.377 26.6679 129.297 26.6679C129.217 26.6679 129.068 26.7609 128.962 26.8669C128.854 26.9738 128.774 27.2123 128.774 27.3981C128.774 27.5839 128.707 27.7303 128.64 27.7303C128.56 27.7303 128.506 28.3551 128.506 29.3237C128.506 30.8251 128.493 30.918 128.238 30.918C128.011 30.918 127.97 31.0109 127.97 31.9803H126.362V33.3748C126.362 34.3977 126.308 34.8219 126.174 34.9683C126.068 35.0752 125.8 35.1681 125.571 35.1681C125.264 35.1681 125.115 35.247 124.981 35.4994C124.901 35.6861 124.741 35.8316 124.646 35.8316C124.566 35.8316 124.486 35.9245 124.486 36.0306C124.486 36.1375 124.419 36.2304 124.352 36.2304C124.285 36.2304 124.218 36.3496 124.218 36.496C124.218 36.7484 124.125 36.7615 120.198 36.7615L120.278 36.2567C120.332 35.9911 120.386 35.7255 120.412 35.6589C120.44 35.6063 120.68 35.566 120.935 35.566C121.337 35.566 121.43 35.5003 121.592 35.1278C121.698 34.9025 122.141 33.9594 122.584 33.0426C123.025 32.1267 123.669 30.7848 124.017 30.0547C124.365 29.3237 125.236 27.4778 125.96 25.9378C126.684 24.397 128.493 20.5457 129.98 17.3711C131.467 14.1973 132.74 11.4881 132.807 11.3549C132.915 11.1427 132.807 11.1296 129.537 11.1954L128.171 14.1175C127.421 15.7242 126.483 17.7296 126.094 18.5666C125.705 19.4036 125.344 20.1732 125.277 20.253C125.197 20.373 125.076 20.3862 124.914 20.3064C124.795 20.253 124.419 20.2406 124.097 20.2801C123.775 20.3196 123.44 20.3064 123.334 20.2267C123.226 20.1469 122.208 18.0889 121.069 15.6444C119.93 13.2008 118.992 11.1822 118.992 11.1551C118.992 11.1427 118.201 11.1296 115.508 11.1296L115.588 11.4215C115.642 11.5941 115.763 11.886 115.856 12.0858C115.964 12.298 116.044 12.4969 116.044 12.5504C116.044 12.6162 115.817 12.7231 115.039 12.9352L116.433 13.3208L117.049 14.6084C117.384 15.3525 117.611 15.9766 117.559 16.0695C117.492 16.1764 117.505 16.2027 117.585 16.1493C117.665 16.1098 118.51 17.7164 119.554 19.9348C120.574 22.0725 121.551 24.1709 121.739 24.6091C121.927 25.0473 122.048 25.433 122.007 25.4724C121.966 25.5127 122.048 25.6451 122.167 25.7783C122.396 26.0167 122.396 26.057 122.074 26.6416C121.899 26.987 121.752 27.3586 121.765 27.4647C121.793 27.5716 120.935 29.4298 117.946 35.4994L118.765 35.566C119.569 35.6318 119.595 35.6458 119.716 36.0972C119.783 36.3496 119.917 36.602 119.984 36.6555C120.064 36.7081 119.18 36.7615 115.91 36.7615V33.4414C115.91 31.316 115.964 30.1213 116.044 30.1213C116.111 30.1213 116.178 29.8154 116.178 29.4569C116.178 28.8863 116.219 28.7926 116.446 28.7926C116.66 28.7926 116.714 28.6997 116.714 28.3946C116.714 28.009 116.727 27.9958 118.054 27.9958V23.4802H116.446V23.0822C116.446 22.7764 116.392 22.6835 116.178 22.6835C115.923 22.6835 115.91 22.5905 115.91 19.2301H115.106C114.395 19.2301 114.302 19.2038 114.302 18.9645C114.302 18.7878 114.213 18.699 114.034 18.699C113.792 18.699 113.766 18.6061 113.766 17.1055H112.091L112.184 23.7458C112.292 30.2808 112.292 30.3869 112.024 30.6524C111.769 30.9049 111.581 30.918 108.246 30.918C106.249 30.918 104.628 30.8646 104.52 30.7848C104.345 30.6787 104.332 29.8154 104.386 23.879C104.453 17.1721 104.453 17.1055 104.185 17.1055C103.917 17.1055 103.917 17.1589 104.01 23.4144C104.105 28.9397 104.092 29.7488 103.917 29.9215C103.809 30.0284 103.716 30.2939 103.716 30.918H99.696C96.2385 30.918 95.6628 30.8917 95.609 30.719C95.5685 30.6121 95.542 29.5901 95.542 28.4612C95.542 26.5084 95.5552 26.4024 95.81 26.3358C95.9572 26.2963 96.078 26.1763 96.078 26.0702C96.078 25.9107 96.3055 25.8712 98.49 25.8712V27.9292L99.294 28.0221C99.7365 28.0887 100.459 28.0887 101.706 27.9292V11.1304H98.49V13.852C98.49 16.1904 98.4635 16.5752 98.289 16.5752C98.1815 16.5752 98.088 16.6549 98.088 16.7347C98.088 16.8276 97.8605 16.9468 97.5925 17.0003C97.3105 17.0537 96.5735 17.1071 95.944 17.1071C95.3145 17.1071 94.671 17.1335 94.4965 17.1729C94.2425 17.2264 94.202 17.3193 94.202 17.8373C94.202 18.2887 94.1482 18.4342 93.9878 18.4342C93.8802 18.4342 93.6925 18.5271 93.5858 18.634C93.4782 18.7401 93.398 18.9127 93.398 18.9925C93.398 19.1117 93.0498 19.2046 92.3665 19.2712C91.79 19.3247 90.9992 19.3641 89.914 19.3641V18.1292C89.9272 16.9205 89.9272 16.9073 90.4368 16.243C90.785 15.8047 91.0935 15.5392 91.3748 15.4726C91.6295 15.4199 91.8165 15.2736 91.857 15.1141C91.8975 14.9685 92.0315 14.8485 92.1515 14.8485C92.2239 14.8505 92.296 14.8374 92.3629 14.8099C92.4299 14.7824 92.4903 14.7412 92.5402 14.689C92.6205 14.5961 92.9828 14.4374 93.3442 14.3305C93.7065 14.2244 94.47 14.1315 96.078 14.1184V12.6178C96.078 11.4091 96.0375 11.1164 95.877 11.0638C95.7695 11.0235 95.3278 10.9972 94.8985 10.9972C94.4832 10.9972 93.8265 11.077 93.465 11.1699C93.0895 11.2768 92.4195 11.5415 91.9505 11.7676C91.4955 12.0061 91.0935 12.1664 91.053 12.1261C91.0125 12.0867 90.9455 12.1393 90.8925 12.219C90.8115 12.3522 90.8388 12.3522 90.986 12.2593C91.1332 12.1656 91.1605 12.1656 91.0795 12.2856C91.0495 12.3336 91.0042 12.3703 90.9508 12.3896C90.8974 12.409 90.839 12.41 90.785 12.3925C90.6775 12.3514 90.5575 12.4049 90.5302 12.4846C90.4905 12.6178 90.4368 12.6047 90.3425 12.4583C90.2358 12.2856 90.1952 12.2988 90.0612 12.5241C89.9272 12.7502 89.914 12.6836 89.9272 12.1261V11.2891C89.914 11.1699 89.4988 11.1304 86.698 11.1304V14.9817H85.626V25.872H86.698V27.9967L87.7965 28.0764C88.4793 28.1249 89.1649 28.1205 89.847 28.0633L89.914 26.0044H92.058V28.3288C92.058 30.3079 92.0315 30.6533 91.857 30.6533C91.7495 30.6533 91.656 30.7059 91.656 30.7856C91.656 30.8785 89.4855 30.9188 79.194 30.9188V31.251C79.194 31.4368 79.1005 31.6095 78.993 31.649C78.8855 31.6893 77.921 31.7147 76.849 31.7147C75.643 31.7147 74.906 31.769 74.906 31.8488C74.906 31.9145 74.7182 31.9811 74.504 31.9811C74.1425 31.9811 74.102 31.9409 74.102 31.5824C74.102 31.3571 74.035 31.1844 73.968 31.1844C73.901 31.1844 73.834 31.3571 73.834 31.9811H72.092C70.4435 31.9811 70.35 31.968 70.35 31.7156C70.35 31.4771 70.2565 31.45 68.742 31.45V29.8549H66.33V30.7182C66.33 31.3686 66.2762 31.5947 66.129 31.6473C66.0215 31.6876 65.593 31.7131 65.191 31.7131C64.789 31.7131 64.454 31.7674 64.454 31.8471C64.454 31.9261 63.8775 31.9795 62.98 31.9795C62.0825 31.9795 61.506 31.9261 61.506 31.8463C61.506 31.7674 61.1975 31.7139 60.836 31.7139C60.2595 31.7139 60.166 31.6736 60.166 31.4483C60.166 31.2099 60.0725 31.1828 59.094 31.1828C58.4645 31.1828 58.022 31.1293 58.022 31.0496C58.022 30.9698 57.7135 30.9172 57.352 30.9172C56.9765 30.9172 56.682 30.8506 56.682 30.784C56.682 30.7042 56.28 30.6516 55.744 30.6516C54.8192 30.6516 54.806 30.6516 54.739 29.9207L51.59 29.8549V29.3229C51.59 28.9381 51.5362 28.7917 51.389 28.7917C51.2682 28.7917 51.0275 28.9381 50.853 29.1239C50.6652 29.3097 50.518 29.549 50.518 29.6551C50.518 29.8146 50.2905 29.8549 48.106 29.8549V30.784H46.9C45.7875 30.784 45.694 30.7971 45.694 31.0496C45.6865 31.2214 45.6202 31.3855 45.5062 31.5149C45.3987 31.621 45.2118 31.7139 45.1042 31.7139C44.9835 31.7139 44.89 31.7665 44.89 31.8463C44.89 31.9261 43.7237 31.9795 41.674 31.9795C39.6235 31.9795 38.458 31.9261 38.458 31.8463C38.458 31.7674 38.056 31.7139 36.582 31.7139V29.8549H35.242C34.438 29.8549 33.902 29.8014 33.902 29.7217C33.902 29.6419 33.5405 29.5885 32.294 29.5885L32.2808 28.6857C32.2675 28.0353 32.2402 27.8889 32.16 28.1282C32.1062 28.314 32.0525 29.0442 32.0392 29.748C32.026 30.5184 31.9731 31.0496 31.892 31.0496C31.8118 31.0496 31.758 31.1959 31.758 31.3817C31.758 31.5947 31.6778 31.7139 31.557 31.7139C31.4495 31.7139 31.3295 31.8068 31.289 31.9129C31.2485 32.0461 31.0342 32.1119 30.083 32.1119L29.9755 33.0681C29.9225 33.6001 29.8555 34.0515 29.8415 34.0647C29.8282 34.0778 28.1127 34.1304 26.0365 34.197C22.4988 34.2908 22.2572 34.2908 22.1902 34.0647C22.1241 33.8657 21.9222 33.8385 20.77 33.8385C19.966 33.8385 19.43 33.7859 19.43 33.7062C19.43 33.6264 17.8625 33.573 15.008 33.573C12.1543 33.573 10.586 33.6264 10.586 33.7062C10.586 33.7719 10.4652 33.8385 10.318 33.8385C10.1708 33.8385 10.05 33.892 10.05 33.9717C10.05 34.0515 8.66947 34.1041 2.278 34.1041V33.1084C2.278 32.2714 2.23747 32.0987 2.03647 32.0593C1.91653 32.0329 1.43347 31.9261 0.160469 31.6481L0.0802346 30.8506C0.0304849 30.2412 0.0037213 29.6301 0 29.0187C0 28.4612 0.0132346 27.9958 0.0264691 27.9958C0.0537654 27.9958 0.268 28.0756 0.495469 28.1948C0.737 28.3017 0.978531 28.4875 1.03147 28.5936C1.09847 28.7128 1.42023 28.8995 1.76847 28.9924C2.23747 29.1379 2.546 29.3509 2.90747 29.8023C3.1887 30.1344 3.77847 30.5998 4.221 30.8514C4.66353 31.0899 5.36 31.4492 5.762 31.649C6.39147 31.9532 6.59247 31.9943 7.102 31.9006C7.437 31.8471 7.82577 31.7937 7.973 31.7937C8.18806 31.7813 8.25423 31.6745 8.308 30.7848H15.276C21.3862 30.7848 22.244 30.8119 22.244 30.9838C22.244 31.0907 22.3375 31.2099 22.445 31.2502C22.5525 31.2897 22.78 31.316 22.9413 31.316C23.115 31.316 23.3698 31.3957 23.517 31.5158C23.6642 31.6218 23.9992 31.7147 24.254 31.7147C24.6295 31.7147 24.6825 31.7542 24.522 31.8611C24.3615 31.9672 24.388 31.9803 24.656 31.9269C24.8854 31.8802 25.1184 31.8538 25.3525 31.8479C25.5535 31.8479 25.795 31.7674 25.8885 31.6613C25.9828 31.5552 26.3575 31.3431 26.733 31.1704C27.1608 30.9765 27.5728 30.75 27.9655 30.4929C28.2881 30.2939 28.542 30.0818 28.542 30.0144C28.542 29.9618 28.8365 29.563 29.212 29.1247C29.5875 28.6865 29.949 28.129 30.016 27.8898C30.0962 27.6637 30.2038 27.4647 30.284 27.4647C30.3642 27.4647 30.418 27.3849 30.418 27.292C30.418 27.2123 30.6992 26.7082 31.021 26.2034C31.356 25.6854 31.6645 25.1271 31.7175 24.9413C31.758 24.7555 31.8655 24.5302 31.9458 24.4233C32.0392 24.3041 32.1062 22.8561 32.1335 20.0408C32.1732 16.2553 32.1468 15.7381 31.9052 14.7153C31.7712 14.0904 31.6372 13.2542 31.6372 12.8554C31.624 12.4575 31.557 11.9132 31.49 11.6607C31.4098 11.4083 31.356 10.9429 31.356 10.6247C31.356 10.3189 31.289 9.90695 31.2088 9.69563C31.1118 9.42814 31.0399 9.15236 30.9937 8.87177C30.9672 8.61935 30.7795 8.1811 30.6049 7.90155C30.4312 7.63597 30.284 7.33092 30.284 7.23801C30.284 7.15826 30.0565 6.78579 29.7745 6.44046C29.5065 6.08279 29.279 5.74979 29.279 5.69717C29.279 5.63139 29.1185 5.40528 28.9175 5.2063C28.7165 4.99335 28.2608 4.51564 27.8985 4.15715C27.537 3.78468 27.001 3.37357 26.6925 3.22721C26.3848 3.08086 26.1705 2.92135 26.197 2.85557C26.2375 2.80212 26.1705 2.73552 26.063 2.69606C25.9555 2.65577 25.7148 2.62946 25.527 2.62946C25.3392 2.62946 25.1655 2.56368 25.125 2.49626C25.0845 2.41732 24.8165 2.36388 24.522 2.36388C24.2275 2.36388 23.9728 2.31044 23.9455 2.23068C23.9322 2.1649 23.651 2.07199 23.316 2.0317C22.981 1.99224 22.7932 1.99224 22.8735 2.0317C22.981 2.07199 23.048 2.35072 23.048 2.76266C23.048 3.2009 22.9942 3.42619 22.8743 3.43935C22.7932 3.4525 22.6195 3.46648 22.512 3.47964C22.4045 3.49279 22.1902 3.43935 22.043 3.35959C21.8693 3.27984 19.5905 3.25352 15.745 3.27984C12.4215 3.29381 9.43377 3.35959 9.09877 3.39988C8.75053 3.4525 8.49494 3.4525 8.52223 3.38672C8.54953 3.33328 8.54953 3.2009 8.509 3.09401C8.45523 2.94848 8.38824 2.9345 8.241 3.02824C8.09377 3.12115 8.01353 3.10717 7.95977 2.92135C7.906 2.80212 7.89277 2.56286 7.91923 2.40335C7.94653 2.23068 7.906 2.0983 7.839 2.0983C7.772 2.0983 7.51723 2.17806 7.303 2.29728C7.07553 2.40417 6.74053 2.49626 6.52547 2.49626C6.32447 2.49626 5.85547 2.64261 5.494 2.82844C5.11847 3.01426 4.77023 3.16061 4.69 3.16061C4.623 3.16061 4.422 3.29381 4.24747 3.4525C4.07377 3.62517 3.67177 3.99764 3.36323 4.28952C3.05553 4.58141 2.80077 4.86097 2.814 4.91441C2.814 4.98019 2.68 5.05995 2.50547 5.09941C2.345 5.1397 2.25153 5.19232 2.30447 5.23261C2.37147 5.25892 2.33177 5.36499 2.2383 5.4579C2.15723 5.53766 1.86277 5.7243 1.608 5.84352C1.35323 5.96275 1.04553 6.09595 0.938 6.13541C0.830469 6.1757 0.616235 6.29492 0.469 6.37468C0.321765 6.46759 0.160469 6.60079 0.107531 6.67972C0.0537654 6.74632 0 5.98906 0 4.98019C0 3.98448 0.0264691 3.0677 0.067 2.96164C0.107531 2.85475 0.282062 2.76266 0.469 2.76266C0.656765 2.76266 0.804 2.69606 0.804 2.62946C0.804 2.5497 1.09847 2.49626 2.144 2.49626V1.85904C2.144 1.5137 2.18453 1.03599 2.23747 0.80988C2.33177 0.42508 2.39877 0.371636 2.881 0.332169C3.17547 0.304213 4.23423 0.278724 5.226 0.265569ZM15.9725 10.4652C19.0545 10.4652 21.6675 10.4915 21.775 10.531C21.8958 10.5721 21.9487 10.7037 21.909 10.864C21.842 11.1296 21.7353 11.1296 16.08 11.1296C10.4925 11.1296 10.318 11.1156 10.2237 10.8772C10.1708 10.7308 10.1708 10.5845 10.2378 10.545C10.3039 10.5047 12.8905 10.4652 15.9725 10.4652ZM15.3968 15.9766C18.0362 15.9766 20.2605 16.03 20.3275 16.0835C20.3812 16.1361 20.569 16.1764 20.7435 16.1764C20.904 16.1764 21.0645 16.2422 21.105 16.3088C21.1455 16.4017 19.2687 16.442 15.611 16.442C11.8995 16.442 10.0359 16.4017 10.0235 16.3088C10.0095 16.229 10.1311 16.1229 10.2915 16.0703C10.4388 16.0169 12.7432 15.9766 15.3968 15.9766ZM15.2355 18.0354C20.5293 18.0354 20.636 18.0354 20.703 18.301C20.77 18.5666 20.703 18.5666 15.142 18.5666C9.55453 18.5666 9.514 18.5666 9.67447 18.301C9.83576 18.0486 9.983 18.0354 15.2355 18.0354ZM30.5255 19.3896C30.686 19.4168 30.7795 19.6289 30.8465 20.0943C30.887 20.4659 30.9672 20.9971 31.021 21.289C31.088 21.608 31.0615 21.9402 30.9672 22.1128C30.8738 22.325 30.8597 22.4713 30.954 22.5774C31.0342 22.6703 31.0475 22.8569 30.9945 22.9885C30.9275 23.1217 30.8068 23.2023 30.7265 23.1612C30.6288 23.118 30.5245 23.0913 30.418 23.0822C30.3378 23.0822 30.284 22.3784 30.2972 21.2092C30.3105 19.5491 30.3378 19.3502 30.5255 19.3896ZM15.5175 23.3478C20.569 23.3478 21.306 23.3741 21.306 23.5468C21.306 23.666 21.4532 23.7597 21.6815 23.7992C21.8825 23.8124 19.1885 23.8527 15.7177 23.865C11.6042 23.865 9.35353 23.8255 9.313 23.7458C9.27247 23.6668 9.35353 23.5599 9.4867 23.4802C9.62153 23.4013 12.0344 23.3478 15.5175 23.3478ZM9.045 25.4593L15.7855 25.4724C19.4829 25.4724 22.512 25.4996 22.512 25.539C22.512 25.5793 22.4855 25.6985 22.445 25.8046C22.3912 25.9773 21.5475 26.0036 16.0535 26.0036C9.849 26.0167 9.70094 26.0036 9.38 25.738L9.045 25.4593Z" fill="#FEFEFE"/>
<path d="M91.59 12.0991C91.9515 11.8598 92.6215 11.5408 93.064 11.3952C93.5057 11.262 93.9615 11.1428 94.069 11.1428C94.1939 11.151 94.2071 11.1732 94.1087 11.2086C93.988 11.2489 93.935 11.5679 93.935 13.1219L94.337 13.1877C94.672 13.2411 94.739 13.3077 94.7117 13.5865C94.672 13.8652 94.5645 13.9318 93.7737 14.1176C93.265 14.2245 92.5677 14.463 92.193 14.6488C91.786 14.865 91.4 15.1182 91.04 15.4052C90.772 15.6445 90.3699 16.0959 89.7405 16.9592L89.781 27.9959H86.833L86.9 13.1877L87.034 27.7969L88.843 27.8627V12.724L89.1375 12.9098C89.446 13.0824 89.446 13.0824 89.432 12.3392C89.4146 11.8343 89.4278 11.7636 89.4725 12.1262C89.513 12.525 89.5659 12.6047 89.647 12.4584C89.7405 12.3252 89.781 12.4715 89.781 12.9501C89.781 13.3349 89.8207 13.6539 89.8745 13.6539C89.9415 13.6539 90.1962 13.4015 90.451 13.0956C90.7049 12.7906 91.2145 12.3515 91.59 12.0991ZM119.167 12.5505C119.098 12.4434 119.061 12.3191 119.06 12.192C119.06 12.0588 119.1 11.979 119.167 12.0325C119.22 12.0859 119.274 12.2183 119.301 12.3375C119.314 12.4576 119.421 12.6697 119.542 12.8029C119.663 12.9492 120.078 13.746 120.467 14.5822C120.855 15.4192 121.833 17.5438 122.637 19.2968C123.441 21.0506 124.138 22.538 124.192 22.5906C124.245 22.6441 124.661 21.9 125.116 20.9306C125.572 19.9612 126.255 18.4738 126.631 17.6367C127.093 16.6397 127.557 15.6438 128.024 14.6488C128.413 13.8512 128.788 13.1482 128.882 13.0816C128.976 13.0282 129.043 13.0553 129.043 13.1474C129.043 13.2411 129.083 13.2806 129.136 13.228C129.19 13.1745 129.163 13.0422 129.083 12.9221C128.949 12.7626 128.949 12.6697 129.083 12.4707C129.163 12.3375 129.351 12.2446 129.485 12.2717C129.605 12.298 129.713 12.391 129.713 12.4576C129.713 12.5233 129.646 12.5644 129.579 12.5233C129.512 12.4839 129.445 12.5233 129.445 12.5899C129.445 12.6565 129.512 12.7231 129.579 12.7231C129.646 12.7231 129.686 12.8424 129.646 12.9887C129.579 13.2272 129.646 13.2543 130.249 13.2543C130.624 13.2543 130.892 13.214 130.865 13.1474C130.838 13.0948 130.945 13.0553 131.12 13.0553C131.294 13.0553 131.401 13.0948 131.374 13.1482C131.347 13.214 131.414 13.2543 131.522 13.2543C131.642 13.2543 131.682 13.1885 131.629 13.0816C131.558 12.9747 131.58 12.9534 131.696 13.0158C131.816 13.0948 131.763 13.3201 131.468 13.945C131.254 14.4095 129.793 17.5307 128.212 20.8911C126.631 24.2507 125.036 27.6243 124.674 28.3947C124.312 29.1511 123.415 31.0644 121.311 35.4995L119.689 35.5398C118.792 35.553 118.055 35.5398 118.055 35.4995C118.055 35.46 118.591 34.3714 119.234 33.0822C120.379 30.7965 121.509 28.5035 122.624 26.2035L121.19 23.1489C120.413 21.4617 119.046 18.5798 118.175 16.7339C117.291 14.9004 116.581 13.3472 116.581 13.2806C116.581 13.228 117.023 13.2008 117.545 13.228C118.162 13.2543 118.671 13.2008 118.899 13.0948C119.1 13.0019 119.274 12.8563 119.274 12.7897C119.267 12.7001 119.229 12.6157 119.167 12.5505ZM98.625 27.9967V13.2543H101.573V27.9967H98.625Z" fill="#343C46"/>
<path d="M5.06544 4.5017C5.52037 4.27559 6.24414 4.01001 6.67344 3.90394H6.65855C7.28884 3.74443 9.03084 3.71812 15.6101 3.70497C22.5375 3.69181 23.9181 3.73128 24.6551 3.90394C25.1373 4.01083 25.9413 4.32903 26.45 4.59461C26.9868 4.8865 27.7106 5.41765 28.1655 5.88303C28.5948 6.32128 29.1168 7.03825 29.3451 7.4765C29.5601 7.91474 29.8273 8.63172 29.9348 9.06997C30.0821 9.6151 30.1491 10.4784 30.1491 11.8195C30.1491 12.9089 30.1085 13.7846 30.0556 13.7846C29.9886 13.7846 29.8546 13.6259 29.733 13.4261C29.6131 13.214 29.1044 12.6828 28.6213 12.2174C28.0377 11.667 27.3681 11.2144 26.6386 10.8772C25.7138 10.4381 25.5128 10.2786 25.4458 9.97276C25.3921 9.77379 25.1778 9.40214 24.9768 9.15054C24.7618 8.8973 24.3871 8.61857 24.1596 8.5125C23.8105 8.3793 22.0685 8.33983 15.6771 8.33983C9.28561 8.33983 7.54361 8.3793 7.20861 8.5125C6.96708 8.61939 6.60478 8.88414 6.40461 9.11025C6.18955 9.3487 5.97531 9.76063 5.89508 10.0262C5.82808 10.3058 5.76108 11.8458 5.76108 13.4532C5.76108 15.0599 5.82808 16.6007 5.89508 16.8655C5.97531 17.145 6.18955 17.5561 6.40461 17.7822C6.60561 18.0215 6.95384 18.3002 7.16808 18.4203C7.51631 18.6061 8.53455 18.6456 23.2481 18.7656V23.1481H15.0741C7.44931 23.1481 6.84631 23.1349 6.16308 22.8956C5.72606 22.7451 5.3006 22.5631 4.89008 22.3513C4.59561 22.1787 4.07284 21.8202 3.72378 21.5414C3.38961 21.2487 2.89331 20.7579 2.63855 20.4257C2.36949 20.0652 2.12361 19.6881 1.90237 19.2968C1.75431 19.0041 1.54008 18.4071 1.41931 17.9689C1.25884 17.3308 1.20508 16.4149 1.20508 13.519C1.20508 10.6108 1.24561 9.70801 1.42014 9.07079C1.52684 8.63172 1.78161 7.94105 1.96855 7.5431C2.18361 7.10485 2.69231 6.44132 3.26884 5.86988C3.87184 5.27212 4.52861 4.76728 5.06378 4.5017H5.06544Z" fill="#FD6A4C"/>
<path d="M8.18688 15.7768V11.262H16.1193C22.9004 11.262 24.1866 11.2883 24.8707 11.4741C25.3124 11.581 26.0362 11.8589 26.4779 12.099C26.9204 12.3243 27.6442 12.8817 28.0859 13.32C28.5284 13.7582 29.0909 14.4752 29.3183 14.9143C29.5599 15.3525 29.8411 16.0695 29.9486 16.5077C30.1223 17.1318 30.1637 18.0617 30.1637 20.956C30.1637 23.8518 30.1223 24.7818 29.9486 25.4058C29.8411 25.8441 29.5202 26.6145 29.2522 27.1193C28.9569 27.6637 28.4614 28.314 28.0197 28.7128C27.5611 29.1218 27.0677 29.4905 26.5449 29.8146C26.1429 30.0539 25.4464 30.3326 25.0039 30.4526C24.3074 30.6253 23.0476 30.6516 6.51188 30.585L5.77571 30.2668C5.28876 30.0533 4.81822 29.8046 4.36788 29.5227C3.99318 29.2843 3.41664 28.7926 3.08164 28.4341C2.74664 28.0887 2.27764 27.4244 2.05018 26.9598C1.80864 26.5076 1.52741 25.7906 1.41988 25.3655C1.28588 24.8475 1.21888 23.9711 1.23211 20.4914L1.51335 20.8902C1.67464 21.1031 2.17011 21.6466 2.62588 22.0857C3.18835 22.6432 3.79218 23.0683 4.62264 23.4802C5.53418 23.9316 5.84188 24.1577 5.90888 24.4093C5.94941 24.5959 6.10988 24.9141 6.25711 25.1403C6.41841 25.3524 6.80718 25.6714 7.71788 26.136L23.9451 26.0702L24.5076 25.6977C24.8161 25.4987 25.1776 25.1403 25.3124 24.901C25.5134 24.5293 25.5399 24.0508 25.5399 20.9568C25.5399 17.6103 25.5266 17.4105 25.2586 16.9723C25.0982 16.7199 24.7359 16.3614 23.9319 15.8434L8.18688 15.7768Z" fill="#FD6A4C"/>
<path d="M23.0476 2.7626C23.0476 2.35067 22.9814 2.07193 22.8871 2.03082H22.8739C22.7937 1.99135 22.9814 1.99135 23.3156 2.03082C23.6506 2.07193 23.9327 2.16402 23.9459 2.23062C23.9724 2.31038 24.2271 2.36382 24.5216 2.36382C24.8169 2.36382 25.0841 2.4296 25.1254 2.4962C25.1651 2.57595 25.3397 2.6294 25.5266 2.6294C25.7144 2.6294 25.9559 2.65571 26.0626 2.69518C26.1701 2.73547 26.2371 2.80207 26.1966 2.86784C26.1701 2.92129 26.3844 3.0808 26.6929 3.22715C27.0006 3.37269 27.5366 3.79778 27.8989 4.15627C28.2604 4.52873 28.7161 4.99329 28.9171 5.20542C29.1181 5.40522 29.2786 5.63051 29.2786 5.69711C29.2786 5.75055 29.5069 6.08191 29.7749 6.44122C30.0561 6.78655 30.2836 7.1582 30.2836 7.25111C30.2836 7.33087 30.4317 7.63591 30.6062 7.91464C30.7799 8.18104 30.9677 8.61929 30.9941 8.87089C31.0347 9.12331 31.1281 9.49578 31.2092 9.70791C31.2886 9.90689 31.3556 10.3188 31.3556 10.637C31.3556 10.9429 31.4094 11.4083 31.4896 11.6607C31.5566 11.9123 31.6236 12.4574 31.6377 12.8554C31.6377 13.2542 31.7717 14.0904 31.9057 14.7144C32.1464 15.7373 32.1737 16.2553 32.1331 20.0408C32.1067 22.8561 32.0397 24.304 31.9454 24.4232C31.8651 24.5301 31.7576 24.7554 31.7179 24.9412C31.6641 25.127 31.3556 25.6977 31.0206 26.2033C30.6997 26.7074 30.4176 27.2122 30.4176 27.3051C30.4176 27.3849 30.3647 27.4646 30.2836 27.4646C30.2034 27.4646 30.0967 27.6636 30.0156 27.9029C29.9494 28.129 29.5871 28.6864 29.2116 29.1247C28.8369 29.5629 28.5416 29.9617 28.5416 30.0275C28.5416 30.0809 28.2877 30.2931 27.9659 30.4929C27.6574 30.705 27.0949 31.0109 26.7334 31.1704C26.3579 31.343 25.9824 31.5552 25.8889 31.6612C25.7946 31.7681 25.5539 31.8471 25.3529 31.8471C25.1186 31.8531 24.8852 31.8798 24.6556 31.9268C24.3876 31.9803 24.3611 31.9671 24.5216 31.861C24.6829 31.7542 24.6291 31.7147 24.2536 31.7147C23.9997 31.7147 23.6647 31.6218 23.5174 31.5149C23.3497 31.3925 23.1488 31.3232 22.9409 31.3159C22.7796 31.3159 22.5521 31.2896 22.4446 31.2501C22.3371 31.209 22.2436 31.0906 22.2436 30.9837C22.2436 30.8242 22.4446 30.7848 23.2089 30.7848C23.7987 30.7848 24.5621 30.6779 25.1246 30.5192C25.6341 30.3728 26.3571 30.067 26.7326 29.8548C27.0949 29.6427 27.7252 29.151 28.1131 28.7662C28.5151 28.3814 29.0511 27.7039 29.3059 27.2656C29.5607 26.8274 29.8957 26.0167 30.0297 25.4732C30.1769 24.9281 30.2836 24.1576 30.2836 23.786C30.2836 23.1085 30.2977 23.0822 30.6186 23.148C30.8601 23.2014 30.9677 23.148 31.0206 22.9884C31.0611 22.8561 31.0347 22.6966 30.9544 22.6168C30.8734 22.537 30.8866 22.3381 30.9941 22.0593C31.1149 21.714 31.1149 21.5019 30.9809 21.0233C30.9007 20.6912 30.8196 20.2134 30.8196 19.961C30.8196 19.6025 30.7534 19.4825 30.5516 19.4299C30.3109 19.3764 30.2836 19.2572 30.2836 18.407C30.2836 17.8759 30.1761 16.9862 30.0297 16.4419C29.8957 15.8968 29.6004 15.1535 29.3861 14.781C29.1727 14.4236 28.9538 14.0694 28.7294 13.7187C28.5019 13.3734 28.5019 13.3471 28.7029 13.4268C28.8766 13.4926 28.9577 13.44 29.0106 13.2542C29.0511 13.1078 29.1181 12.9886 29.1719 12.9886C29.2381 12.9886 29.4937 13.2936 30.2166 14.3559L30.2571 12.1779C30.2836 10.3451 30.2439 9.82713 30.0156 8.93831C29.8684 8.33973 29.5069 7.49038 29.2257 7.01184C28.9444 6.53413 28.3811 5.85662 27.9932 5.51129C27.5904 5.1528 27.0006 4.71373 26.6656 4.52873C26.2123 4.30279 25.7422 4.11175 25.2594 3.95729C24.7104 3.80013 24.1502 3.68468 23.5836 3.61195C23.1014 3.55851 22.7937 3.49273 22.8739 3.47958C22.9814 3.43929 23.0476 3.17453 23.0476 2.7626ZM6.53914 2.4962C6.7542 2.4962 7.06191 2.40329 7.24967 2.31038C7.41661 2.21624 7.59753 2.14908 7.78567 2.1114C7.91967 2.1114 7.97261 2.20431 7.93291 2.40329C7.90561 2.5628 7.91967 2.80207 7.97261 2.93444C8.02637 3.10711 8.10661 3.12027 8.25384 3.02735C8.40191 2.92129 8.46891 2.96158 8.52267 3.16055C8.58884 3.399 8.66991 3.42613 9.50038 3.35953C9.99667 3.32007 12.9174 3.27978 16.0126 3.26662C20.0864 3.24031 21.7217 3.26662 21.9764 3.38584C22.2436 3.50589 20.8234 3.54535 15.3567 3.55851C11.5236 3.57249 7.95938 3.62511 7.45067 3.69171C6.92791 3.74515 6.20414 3.89069 5.84267 4.02389C5.46714 4.14311 4.78391 4.5016 4.30167 4.82062C3.81861 5.12567 3.18914 5.6708 2.88061 6.02929C2.58614 6.38778 2.17091 6.94524 1.98314 7.27742C1.79538 7.6096 1.51414 8.35289 1.35367 8.93831C1.11214 9.88058 1.08567 10.4117 1.08567 13.5197C1.08567 16.2158 1.12538 17.2247 1.28667 17.8364C1.3942 18.2738 1.74161 19.1108 2.59938 20.7578L2.02367 21.3555L1.15267 20.0934L1.11214 22.2854C1.08567 24.091 1.12538 24.6493 1.33961 25.4724C1.47361 26.0167 1.80861 26.8274 2.06338 27.2648C2.33138 27.7039 2.80038 28.328 3.12214 28.6462C3.44391 28.9652 3.99314 29.4297 4.36867 29.669C4.73014 29.9214 5.40014 30.2404 5.84267 30.4C6.28438 30.5455 7.02138 30.7182 8.33491 30.8514L8.29438 31.3159C8.26791 31.6744 8.18684 31.7813 7.98667 31.7944C7.83861 31.7944 7.45067 31.8471 7.11567 31.9005C6.60614 31.9934 6.40514 31.9531 5.77567 31.6481C5.2581 31.3898 4.74437 31.1239 4.23467 30.8505C3.79214 30.5989 3.20238 30.1344 2.92114 29.8022C2.55967 29.35 2.25114 29.1378 1.78214 28.9915C1.43391 28.8986 1.11214 28.7128 1.04514 28.5935C0.991376 28.4866 0.73661 28.3008 0.0136719 27.9958V17.4113C0.0136719 11.5809 0.0666101 6.75942 0.121203 6.67967C0.174141 6.61389 0.33461 6.46753 0.482672 6.37462C0.629906 6.29487 0.844141 6.17482 0.951672 6.13535C1.0592 6.09589 1.36691 5.96269 1.62167 5.84347C1.87561 5.72342 2.17091 5.5376 2.25114 5.45784C2.34461 5.36493 2.38514 5.25887 2.31814 5.23255C2.26438 5.19227 2.35867 5.13964 2.51914 5.09935C2.69284 5.05989 2.82767 4.98013 2.82767 4.92669C2.81361 4.86091 3.06838 4.58135 3.37691 4.28947C3.68461 3.99675 4.08661 3.62511 4.26114 3.4656C4.43484 3.29293 4.63667 3.16055 4.70367 3.16055C4.78391 3.16055 5.13214 3.0142 5.50767 2.82838C5.86914 2.64255 6.33814 2.4962 6.53914 2.4962Z" fill="#FDFDFD"/>
<path d="M6.91489 8.81833C7.12912 8.67197 7.50383 8.51246 7.71889 8.45984C7.94636 8.40639 11.6446 8.36693 23.7989 8.4064L24.3349 8.75173C24.6879 8.98477 24.9741 9.30491 25.1654 9.68084C25.3391 9.99986 25.4739 10.332 25.4598 10.3986C25.4598 10.4784 25.6476 10.6248 25.8891 10.7308C26.1166 10.8369 26.3581 10.9964 26.4251 11.063C26.4913 11.1428 26.5724 11.3286 26.6129 11.5012C26.6658 11.7265 26.6261 11.78 26.4384 11.7265C26.3176 11.7002 25.7014 11.5407 25.0719 11.3944C24.4416 11.2488 23.4639 11.1288 22.8874 11.1288C21.9229 11.1288 21.8559 11.1156 21.9229 10.8632C21.9758 10.6642 21.9088 10.5845 21.6946 10.5318C21.5209 10.4916 18.8806 10.4784 10.2649 10.5318L10.2914 10.8369C10.3319 11.1164 10.2914 11.1288 8.05389 11.1288V15.91L9.35336 15.9232C10.3046 15.9232 10.5858 15.9634 10.3584 16.0564C10.1979 16.1221 10.0639 16.2422 10.0639 16.3088C10.0639 16.4017 12.0069 16.4412 15.6249 16.4412C19.2826 16.4412 21.1586 16.4017 21.1189 16.3088C21.0784 16.243 20.9038 16.1756 20.7169 16.1756C20.5291 16.1756 20.3546 16.123 20.3149 16.0432C20.2744 15.9634 20.8641 15.91 21.9494 15.91C23.3158 15.91 23.7584 15.9634 24.1198 16.1493C24.3746 16.2685 24.7634 16.6015 25.4069 17.3974V24.503L25.0314 24.9808C24.8304 25.2463 24.4689 25.5917 24.2274 25.738C23.9412 25.9148 23.5615 26.0036 23.0884 26.0036C22.4589 26.0036 22.3919 25.9773 22.4589 25.738C22.5251 25.4724 22.4589 25.4724 9.06881 25.4585H9.05889L9.72889 26.0176L8.68336 26.0036C8.06712 26.0036 7.50383 25.9238 7.27636 25.8178C7.07536 25.7109 6.78006 25.4856 6.61959 25.3129C6.44589 25.1534 6.23083 24.7686 6.12329 24.4767C5.99012 24.1043 5.80236 23.8658 5.45329 23.6792C5.18612 23.5336 4.93136 23.2944 4.89083 23.148C4.85112 23.0025 4.83789 22.8693 4.86436 22.843C4.89083 22.8167 5.54759 22.9227 6.33836 23.0683C7.14236 23.2278 8.22759 23.3478 8.75036 23.3478C9.46089 23.361 9.66189 23.3873 9.48736 23.4802C9.36659 23.5599 9.28636 23.666 9.32689 23.7458C9.36659 23.8255 11.6181 23.8658 15.7316 23.8658C19.2024 23.8518 21.8956 23.8124 21.6954 23.7992C21.4671 23.7589 21.3199 23.666 21.3199 23.5468C21.3199 23.3873 21.5209 23.3478 23.3299 23.3478V18.5658H22.0561C20.8906 18.5658 20.7839 18.5395 20.7161 18.3002C20.6499 18.0346 20.5424 18.0346 15.2494 18.0346C10.0101 18.0346 9.86289 18.0346 9.68836 18.3002C9.55436 18.5255 9.37983 18.5658 8.69659 18.5658C8.18789 18.5658 7.63783 18.4729 7.31689 18.3265C7.02159 18.1933 6.59312 17.8488 5.97689 17.0652L5.93636 13.6645C5.90989 10.3575 5.90989 10.2523 6.20436 9.68084C6.37806 9.36182 6.70065 8.97702 6.91489 8.81751V8.81833ZM89.9138 13.1473C89.9138 12.9747 89.9808 12.7091 90.0619 12.5504C90.1959 12.298 90.2488 12.2848 90.3431 12.4575C90.4366 12.6162 90.4904 12.6302 90.5979 12.4706C90.6649 12.3777 90.7584 12.3506 90.7848 12.404C90.8254 12.4698 90.6508 12.7362 90.3828 12.9878C89.9411 13.4269 89.9279 13.44 89.9138 13.1482V13.1473ZM115.053 12.9352L115.575 12.7757C116.058 12.6433 116.111 12.6565 116.272 12.9089C116.366 13.0684 116.406 13.2139 116.379 13.2542C116.352 13.2937 116.031 13.2271 115.053 12.9352ZM123.897 21.8201C123.696 21.3819 123.454 20.8244 123.347 20.5852C123.186 20.1864 123.2 20.1601 123.401 20.2793C123.521 20.359 123.682 20.3993 123.736 20.359C123.789 20.3327 124.071 20.3064 124.339 20.2933C124.607 20.2933 124.942 20.3064 125.062 20.3196C125.196 20.3459 125.304 20.359 125.304 20.359C125.304 20.359 125.076 20.8639 124.272 22.6169L123.897 21.8201ZM122.181 25.7783C122.061 25.6451 121.994 25.4856 122.047 25.433C122.114 25.3664 122.248 25.4988 122.356 25.7249C122.543 26.0965 122.53 26.1771 122.208 26.8932C122.007 27.3183 121.82 27.611 121.779 27.5313C121.739 27.4515 121.86 27.093 122.061 26.7074C122.409 26.0439 122.409 26.0036 122.181 25.7783ZM89.1909 28.0888C88.8564 28.1153 88.5204 28.1153 88.1859 28.0888C87.9311 28.0624 88.1718 28.0353 88.7219 28.0353C89.2711 28.0353 89.4854 28.0624 89.1909 28.0888ZM120.037 36.695C119.957 36.6555 119.81 36.3891 119.729 36.0972L119.595 35.566H120.48L120.346 36.0709C120.279 36.3365 120.212 36.602 120.212 36.6686C120.212 36.7213 120.131 36.7344 120.037 36.695Z" fill="#FDFDFD"/>
<path d="M93.8797 11.2751L94.3355 11.1419C94.5894 11.0761 94.8847 11.049 94.965 11.0761C95.0584 11.1024 95.3537 11.1287 96.0775 11.1287V14.0501L95.1792 14.0369C94.6705 14.0369 94.362 13.9975 94.4695 13.944C94.5762 13.8914 94.6837 13.7187 94.7102 13.5592C94.7375 13.3208 94.6564 13.2402 94.3355 13.1876C93.9335 13.121 93.9335 13.1078 93.8797 11.28V11.2751ZM86.8175 11.4338C86.8315 11.3277 87.0855 11.248 87.461 11.2216C87.8225 11.1953 88.466 11.1822 89.7125 11.1953L89.7257 11.7265C89.7257 12.0184 89.6984 12.3506 89.6587 12.4566C89.605 12.5767 89.538 12.4303 89.4842 12.1244C89.4172 11.6599 89.404 11.6862 89.4172 12.3374C89.4445 13.0807 89.4445 13.0807 88.8415 12.7222V27.8626L87.0325 27.7968L86.9655 19.8278C86.925 15.4454 86.8712 11.8062 86.8447 11.7265C86.815 11.6319 86.8057 11.5322 86.8175 11.4338ZM98.6905 11.3277L99.7625 11.2619C100.351 11.2216 100.982 11.1953 101.17 11.2085C101.49 11.2216 101.505 11.2619 101.572 13.2534H98.6235L98.6905 11.3277ZM115.776 11.4609C115.709 11.4206 115.681 11.3277 115.722 11.2619C115.789 11.155 115.856 11.155 115.962 11.248C116.044 11.3277 116.163 11.3548 116.23 11.3014C116.297 11.248 116.887 11.1822 117.531 11.169C118.441 11.1419 118.696 11.169 118.629 11.2882C118.549 11.4075 118.59 11.4206 118.763 11.354C118.897 11.3014 118.964 11.3146 118.925 11.3943C118.884 11.4741 118.938 11.5275 119.031 11.5275C119.139 11.5275 119.126 11.5711 118.992 11.6599C118.817 11.7668 118.83 11.7931 119.031 11.7931C119.152 11.7931 119.26 11.8589 119.26 11.9255C119.26 12.0052 119.219 12.0324 119.165 12.0052C119.098 11.9789 119.059 12.0587 119.059 12.191C119.059 12.3242 119.111 12.4838 119.165 12.5495C119.219 12.603 119.273 12.7222 119.273 12.7888C119.273 12.8686 119.098 13.0009 118.897 13.0947C118.657 13.2139 118.147 13.2534 116.431 13.1876L116.312 12.6959C116.23 12.4163 116.204 12.1384 116.245 12.0587C116.284 11.9921 116.204 11.8457 116.083 11.766C115.856 11.6064 115.856 11.6204 116.044 11.8589C116.23 12.0981 116.23 12.1113 116.016 11.9658C115.882 11.872 115.802 11.7396 115.843 11.6599C115.882 11.5941 115.843 11.5004 115.776 11.4609ZM129.524 11.8589C129.511 11.6336 129.55 11.3812 129.63 11.2882C129.725 11.1814 130.14 11.1287 130.851 11.1419C131.439 11.155 132.003 11.2348 132.109 11.3146C132.258 11.4214 132.31 11.4214 132.351 11.3014C132.364 11.2085 132.431 11.1287 132.498 11.1287C132.552 11.1287 132.606 11.248 132.632 11.3943C132.645 11.5407 132.593 11.6328 132.526 11.5933C132.459 11.5538 132.418 11.6204 132.459 11.7265C132.498 11.8334 132.485 11.9255 132.431 11.9255C132.364 11.9255 132.325 12.0052 132.31 12.0981C132.31 12.1779 132.176 12.4838 132.016 12.7625C131.856 13.0281 131.627 13.2534 131.521 13.2534C131.413 13.2534 131.346 13.2139 131.372 13.1604C131.4 13.0947 131.292 13.0544 131.119 13.0544C130.944 13.0544 130.836 13.0947 130.864 13.1613C130.89 13.2139 130.622 13.2534 130.248 13.2534C129.645 13.2534 129.578 13.227 129.645 12.9878C129.684 12.8422 129.645 12.7222 129.578 12.7222C129.542 12.7222 129.508 12.7083 129.483 12.6835C129.458 12.6587 129.444 12.625 129.444 12.5898C129.444 12.5232 129.511 12.4829 129.578 12.5232C129.645 12.5635 129.712 12.5364 129.712 12.4574C129.712 12.39 129.591 12.2971 129.444 12.2576C129.282 12.2182 129.215 12.1244 129.256 12.0315C129.323 11.8992 129.377 11.9123 129.457 12.0587C129.528 12.191 129.55 12.1244 129.524 11.8589Z" fill="#353D48"/>
<path d="M26.3039 11.169C26.3585 11.0621 26.3039 10.9428 26.1707 10.8631H26.1567C26.0367 10.7973 25.9697 10.7307 26.0227 10.7307C26.0897 10.7307 26.385 10.8631 26.6927 11.0094C27.0153 11.169 27.4834 11.4477 27.7382 11.6343C27.993 11.8193 28.4214 12.1778 28.6762 12.4171C29.0782 12.8027 29.1311 12.9088 29.0112 13.1735C28.931 13.3873 28.8102 13.4662 28.6762 13.4136C28.529 13.347 28.5025 13.3733 28.596 13.5197C28.6621 13.6258 28.4223 13.4399 28.06 13.0946C27.6327 12.7023 27.1656 12.3551 26.6662 12.0586C26.1699 11.7667 26.05 11.6598 26.2915 11.7133C26.5992 11.779 26.653 11.7527 26.6124 11.5669C26.5785 11.4591 26.5563 11.3481 26.5463 11.2356C26.5322 11.169 26.452 11.169 26.3717 11.2356C26.2559 11.2972 26.2319 11.275 26.3039 11.169ZM2.02344 21.4212L2.30467 21.0759L2.58591 20.7182L3.36344 21.4089C3.79273 21.7806 4.43544 22.2311 4.78367 22.4178C5.31967 22.6834 5.3875 22.75 5.13273 22.7763C4.97144 22.8026 4.83744 22.9095 4.83744 23.0147C4.83744 23.1216 4.93173 23.3074 5.03844 23.4135C5.14597 23.5204 5.30644 23.6133 5.40073 23.6133C5.48097 23.6133 5.50826 23.6396 5.46691 23.6791C5.41397 23.7194 4.97144 23.5335 4.46273 23.2811C3.96644 23.0155 3.2162 22.4975 2.02344 21.4212Z" fill="#F9FBFA"/>
<path d="M98.5839 23.7459C98.5707 26.1237 98.5566 24.2375 98.5566 19.5624C98.5566 14.8872 98.5707 12.9484 98.5839 15.2457C98.6104 17.5438 98.6104 21.3688 98.5839 23.7459Z" fill="#B6B9BE"/>
<path d="M101.665 23.7459C101.652 26.1237 101.639 24.2375 101.639 19.5624C101.639 14.8872 101.652 12.9484 101.665 15.2457C101.692 17.5438 101.692 21.3688 101.665 23.7459Z" fill="#8A8D92"/>
<path d="M1.16651 11.8598C1.14004 12.2314 1.12598 11.9527 1.12598 11.262C1.12598 10.5714 1.14004 10.2655 1.16651 10.5977C1.19298 10.9299 1.19298 11.4873 1.16651 11.8598ZM30.2445 11.9264C30.218 12.3244 30.204 12.0588 30.204 11.3286C30.204 10.5977 30.218 10.2655 30.2445 10.5977C30.271 10.9299 30.271 11.5268 30.2445 11.9264ZM1.16651 16.3088C1.14004 16.7068 1.12598 16.4149 1.12598 15.6445C1.12598 14.8741 1.14004 14.5427 1.16651 14.9144C1.19298 15.2728 1.19298 15.9101 1.16651 16.3088ZM19.498 15.8706C17.3673 15.8969 13.8965 15.8969 11.793 15.8706C9.68874 15.8574 11.444 15.8435 15.6782 15.8435C19.9133 15.8435 21.628 15.8574 19.4972 15.8706H19.498ZM19.6312 23.3076C17.6353 23.3339 14.325 23.3339 12.2612 23.3076C10.1983 23.2944 11.8195 23.2813 15.88 23.2813C19.9265 23.2813 21.6147 23.2944 19.6312 23.3076Z" fill="#FDBBAD"/>
<path d="M89.8731 25.2069C89.8599 26.774 89.8467 25.5522 89.8467 22.4853C89.8467 19.4168 89.8599 18.1284 89.8731 19.6289C89.9004 21.1295 89.9004 23.6397 89.8731 25.2069Z" fill="#C8CBD0"/>
<path d="M5.85607 14.9808C5.84201 15.817 5.81471 15.1658 5.81471 13.5189C5.81471 11.8728 5.84201 11.1953 5.85607 11.992C5.88254 12.7888 5.88254 14.1446 5.85607 14.9808ZM20.4348 11.2216C18.5191 11.2479 15.4098 11.2479 13.5338 11.2216C11.6578 11.2085 13.2261 11.1953 17.0178 11.1953C20.8103 11.1953 22.3513 11.2085 20.4348 11.2216ZM1.16607 13.9177C1.13877 14.1701 1.1123 13.9308 1.1123 13.3865C1.1123 12.8422 1.13877 12.6301 1.16607 12.922C1.19254 13.2139 1.19254 13.6653 1.16607 13.9177ZM25.5532 22.4178C25.54 23.254 25.5135 22.6036 25.5135 20.9567C25.5135 19.3098 25.54 18.6192 25.5541 19.429C25.5805 20.2398 25.5797 21.5808 25.5532 22.4178ZM30.2432 22.4178C30.23 23.254 30.2035 22.6036 30.2035 20.9567C30.2035 19.3098 30.23 18.6192 30.2432 19.429C30.2705 20.2398 30.2705 21.5808 30.2432 22.4178Z" fill="#FDA697"/>
<path d="M100.232 11.2216C99.8525 11.2481 99.4719 11.2481 99.0927 11.2216C98.7974 11.1953 99.0654 11.1689 99.6957 11.1689C100.325 11.1689 100.567 11.1953 100.232 11.2216ZM86.7911 24.0112C86.7779 26.2427 86.7646 24.3566 86.7646 19.8278C86.7646 15.299 86.7779 13.4794 86.7911 15.7767C86.8176 18.0748 86.8176 21.7797 86.7911 24.0112Z" fill="#554E4A"/>
<path d="M8.13428 14.582C8.12105 15.2061 8.09375 14.7283 8.09375 13.5197C8.09375 12.311 8.12105 11.8062 8.13428 12.3908C8.16075 12.9745 8.16075 13.9579 8.13428 14.582ZM19.698 30.7444C17.1074 30.771 14.5166 30.771 11.926 30.7444C9.75552 30.7313 11.471 30.7181 15.745 30.7181C20.0197 30.7181 21.8023 30.7313 19.6988 30.7444H19.698Z" fill="#F56C5E"/>
<path d="M8.81704 11.2892C8.40181 11.3155 8.09328 11.2892 8.11975 11.2357C8.16028 11.17 8.65575 11.1428 9.21904 11.1428C9.78151 11.156 10.1033 11.1823 9.91551 11.2086C9.72775 11.2357 9.24551 11.276 8.81704 11.2892ZM19.5635 18.6596C17.46 18.6859 14.0563 18.6859 11.9925 18.6596C9.92875 18.6464 11.6443 18.6333 15.8115 18.6333C19.9787 18.6333 21.6678 18.6464 19.5635 18.6596Z" fill="#FD8A81"/>
<path d="M89.8741 12.5234C89.8468 12.8161 89.8203 12.6303 89.8203 12.1254C89.8203 11.6206 89.8468 11.369 89.8741 11.5943C89.9005 11.8196 89.9005 12.2315 89.8741 12.5234Z" fill="#DFE1E7"/>
<path d="M19.7645 26.0974C17.1293 26.1241 14.4938 26.1241 11.8585 26.0974C9.64753 26.0835 11.3895 26.0703 15.7445 26.0703C20.0871 26.0703 21.8953 26.0843 19.7645 26.0974Z" fill="#FDCFC2"/>
<path d="M19.4962 3.65238C17.0175 3.67901 14.5387 3.67901 12.06 3.65238C10.0368 3.6384 11.725 3.62524 15.812 3.62524C19.8982 3.62524 21.5599 3.6384 19.4962 3.65238Z" fill="#FEF7D4"/>
<path d="M58.8259 17.6367C58.8259 17.2651 58.8664 17.2388 59.4024 17.1985H59.3892C59.7101 17.1722 61.0642 17.1459 62.4042 17.1327C63.7574 17.1187 64.9502 17.1327 65.0569 17.1722C65.2182 17.2256 65.2579 17.5973 65.2579 19.3634C65.2579 21.1295 65.2182 21.5012 65.0569 21.5546C64.9494 21.5949 63.262 21.6212 57.7539 21.6212V18.0355H58.2899C58.7994 18.0355 58.8259 18.0092 58.8259 17.6367Z" fill="white"/>
<path d="M109.947 1.92555C110.242 1.79235 110.751 1.646 111.086 1.58022C111.42 1.51362 111.836 1.46018 112.024 1.44702C112.211 1.44702 112.814 1.50047 113.363 1.56707L113.487 1.58433C113.994 1.65833 114.485 1.72904 114.597 1.76522C114.811 1.81949 114.838 2.00531 114.838 4.48842L114.396 4.39551C114.168 4.32973 113.35 4.28862 112.6 4.28862C111.448 4.28862 111.18 4.32973 110.871 4.55502C110.67 4.70138 110.389 5.05987 110.228 5.35258C109.974 5.82947 109.947 6.13533 109.88 11.1287H114.167V13.7845H109.88V27.9966H106.798V13.9177H104.118V11.2619H106.731L106.825 8.64558C106.892 6.93207 106.998 5.73738 107.133 5.21938C107.253 4.78113 107.508 4.12993 107.709 3.77144C107.923 3.38664 108.339 2.92127 108.741 2.62855C109.103 2.3638 109.652 2.04478 109.947 1.92555ZM98.3562 4.17022C98.5034 3.97042 98.8111 3.67853 99.0526 3.53218C99.3876 3.34635 99.6821 3.29373 100.259 3.32004C100.915 3.35951 101.076 3.42611 101.505 3.82489C101.773 4.07649 102.054 4.50158 102.135 4.754C102.215 5.00642 102.242 5.44467 102.188 5.71024C102.148 5.9898 101.947 6.40091 101.733 6.62702C101.532 6.86547 101.21 7.13187 100.996 7.22478C100.795 7.33084 100.379 7.4106 100.058 7.4106C99.6962 7.4106 99.3339 7.31769 99.0262 7.11789C98.7714 6.94522 98.4232 6.54727 98.2486 6.21509C98.0071 5.76287 97.9542 5.48495 98.0071 5.08618C98.0476 4.79429 98.2081 4.38235 98.3562 4.17022ZM38.6583 11.2619C39.1009 11.1287 39.5831 10.9823 39.7312 10.9429C39.8784 10.9034 40.7221 10.8902 41.6063 10.9166C42.9331 10.9429 43.3624 11.0095 44.0862 11.2882C44.5684 11.4609 45.3186 11.8596 45.7603 12.1515C46.2029 12.4434 46.8191 12.9754 47.1417 13.3339C47.4494 13.6924 47.9184 14.4094 48.1732 14.9142C48.4412 15.419 48.7356 16.2684 48.8432 16.7732C48.9507 17.2781 49.0433 18.3141 49.0433 20.4256H35.9122L35.9924 20.7972C36.0321 20.997 36.1396 21.3686 36.2066 21.6211C36.2869 21.8735 36.4879 22.3512 36.6616 22.6834C36.8361 23.0156 37.1173 23.4275 37.2786 23.6125C37.4523 23.7991 37.8552 24.1716 38.1902 24.4232C38.5243 24.6756 39.1546 25.021 39.5963 25.1936C40.0389 25.3531 40.8164 25.539 41.3392 25.5924C41.8611 25.6582 42.7321 25.645 43.2822 25.5924C43.8314 25.5258 44.7421 25.326 45.2922 25.1402C45.8414 24.9544 46.6851 24.5696 48.0383 23.7728L48.0797 25.2471C48.1062 26.6013 48.0921 26.7476 47.8514 26.9326C47.7042 27.0395 47.1541 27.2919 46.6322 27.5041C46.1226 27.7039 45.3186 27.9563 44.8496 28.0624C44.3947 28.1692 43.4691 28.2876 42.8132 28.3419C41.9422 28.3945 41.2581 28.3674 40.3333 28.2079C39.6369 28.0755 38.6459 27.8099 38.1232 27.5838C37.6004 27.3717 36.7964 26.9071 36.3133 26.5478C35.8311 26.2025 35.1743 25.5924 34.8658 25.1936C34.4698 24.6787 34.1244 24.1272 33.8343 23.5467C33.5804 23.0419 33.2719 22.1391 33.1511 21.5545C32.9906 20.784 32.9501 20.1205 33.0039 19.0977C33.0444 18.1274 33.1776 17.3842 33.4191 16.6409C33.6069 16.0563 34.0089 15.1938 34.3174 14.7152C34.6251 14.2367 35.1611 13.5723 35.4961 13.241C35.8311 12.9088 36.5011 12.3776 36.9842 12.0718C37.4664 11.7667 38.2166 11.4082 38.6583 11.2619ZM56.3463 11.7001C56.7086 11.5406 57.4721 11.289 58.0213 11.1427C58.7186 10.956 59.4821 10.8771 60.5012 10.8771C61.3184 10.8631 62.3366 10.956 62.7792 11.0498C63.2209 11.1558 63.9314 11.368 65.1233 11.793V14.8476L64.1456 14.3954C63.6229 14.1438 62.7113 13.8519 62.1356 13.7318C61.5732 13.6126 60.7551 13.5197 60.3266 13.5197C59.9114 13.5197 59.2017 13.6126 58.7592 13.7318C58.3166 13.8387 57.6863 14.0772 57.3513 14.263C57.0172 14.4357 56.4812 14.8344 56.1594 15.1535C55.8368 15.4585 55.3951 15.9765 55.1809 16.3087C54.9658 16.6409 54.6722 17.2912 54.5241 17.7698C54.3645 18.3544 54.2789 18.9565 54.2693 19.5622C54.2693 20.0671 54.3636 20.8506 54.4712 21.2889C54.6108 21.7714 54.7992 22.2386 55.0336 22.6834C55.2837 23.0853 55.5709 23.4633 55.8914 23.8123C56.1594 24.1042 56.7351 24.5293 57.1644 24.7685C57.6061 24.9946 58.3431 25.2865 58.8262 25.3934C59.3084 25.5126 60.0851 25.6056 60.5682 25.6056C61.0504 25.6056 61.8544 25.5126 62.3763 25.4058C62.8991 25.2997 63.7842 24.9675 65.3913 24.1445V27.199L64.8156 27.4646C64.5071 27.5978 63.7701 27.8494 63.1803 28.0089C62.3763 28.2219 61.7063 28.2885 60.5003 28.3016C59.4292 28.3016 58.5797 28.226 57.9543 28.0755C57.4324 27.9563 56.5209 27.611 55.9046 27.3322C55.0609 26.9203 54.5646 26.5618 53.7606 25.7782C52.9434 24.9675 52.5811 24.4898 52.1526 23.6133C51.8309 22.9884 51.4959 22.033 51.3751 21.4879C51.2279 20.7972 51.1873 20.1065 51.2279 19.23C51.2684 18.407 51.4156 17.5971 51.6431 16.9064C51.8309 16.3218 52.2329 15.4593 52.5414 14.9808C52.9061 14.4369 53.3233 13.9296 53.7871 13.4663C54.1626 13.1078 54.7383 12.6301 55.0742 12.4171C55.4817 12.1497 55.9062 11.9102 56.3463 11.7001ZM67.9779 18.8987C67.9373 16.4156 67.9646 13.8782 68.0184 13.2541C68.0986 12.4434 68.1383 12.2839 68.2062 13.2541H71.0193L71.0872 23.0156L71.4486 23.7457C71.6496 24.1708 72.0111 24.6353 72.3196 24.8614C72.6009 25.0744 73.0972 25.34 73.4313 25.4452C73.8606 25.5916 74.3164 25.6179 75.0393 25.5653C75.8301 25.4995 76.2859 25.3663 77.1436 24.9412C77.8939 24.5827 78.5374 24.1436 80.0114 22.75L79.9973 13.2533H82.9462V27.9958H79.9973V26.9334C79.9973 26.3497 79.9576 25.8711 79.8898 25.8711C79.8369 25.8711 79.5556 26.0701 79.2612 26.3225C78.8323 26.6529 78.385 26.9587 77.9212 27.2385C77.4786 27.4909 76.7284 27.8231 76.2453 27.9694C75.7631 28.115 74.9864 28.2745 74.5033 28.3148C73.9276 28.3806 73.3114 28.3411 72.6952 28.2219C72.1724 28.115 71.4354 27.8765 71.0466 27.6767C70.5756 27.4266 70.1349 27.1237 69.7331 26.7739C69.3857 26.4549 68.9696 25.9238 68.7951 25.5784C68.5844 25.1264 68.4053 24.6605 68.2591 24.1839C68.0854 23.5599 68.0316 22.5239 67.9779 18.8987Z" fill="#343C46"/>
<path d="M112.827 1.36812V0.876426C112.827 0.596871 112.894 0.371582 112.961 0.371582C113.028 0.371582 113.095 0.411871 113.095 0.464493C113.082 0.531093 113.257 0.650315 113.458 0.730071C113.659 0.822982 113.953 1.02278 114.1 1.16832C114.248 1.31467 114.342 1.46103 114.301 1.50049C114.262 1.54078 113.913 1.5268 112.827 1.36812ZM114.918 4.26316C114.891 4.42267 114.878 3.95729 114.878 3.22716C114.865 2.49703 114.891 2.00534 114.918 2.13772C114.945 2.25776 115.092 2.39014 115.239 2.43043C115.44 2.48305 115.521 2.6294 115.548 3.00105C115.588 3.38667 115.535 3.54618 115.28 3.732C115.105 3.85123 114.945 4.09049 114.918 4.26316ZM112.827 5.02043L112.855 4.60849C112.868 4.31578 112.922 4.22287 113.056 4.27632C113.149 4.31578 113.458 4.35607 113.726 4.35607C113.994 4.35607 114.167 4.39554 114.114 4.46296C114.061 4.51558 113.739 4.66112 112.827 5.02043ZM109.96 9.53525C109.933 8.69905 109.946 7.543 110 6.98636C110.041 6.41492 110.121 5.98983 110.175 6.01614C110.228 6.0556 110.255 6.16249 110.228 6.25458C110.188 6.33516 110.242 6.49385 110.322 6.58758C110.443 6.7068 110.443 6.74627 110.309 6.74627C110.214 6.74627 110.188 6.83918 110.242 6.98554C110.281 7.10476 110.469 7.39665 110.63 7.61043C110.804 7.83572 110.951 8.07498 110.951 8.14076C110.951 8.22052 111.126 8.43347 111.327 8.64561C111.528 8.84458 111.769 9.00409 111.85 9.00409C111.97 9.00409 112.023 9.30996 112.023 11.1295L110.013 11.0629L109.96 9.53525ZM71.2211 22.7508C71.1541 22.6036 71.0871 20.0005 71.0598 16.9731C71.0333 13.9448 71.0598 11.5275 71.1136 11.5941C71.1673 11.6738 71.542 11.9263 71.9308 12.1655C72.3063 12.3908 72.6678 12.5898 72.7348 12.5898C72.7886 12.5898 72.9085 12.7362 73.0028 12.922C73.1103 13.1612 73.1633 14.1841 73.1633 16.5348C73.1773 19.443 73.15 19.855 72.949 20.0276C72.8291 20.1345 72.4403 20.5982 72.078 21.0636C71.7166 21.515 71.4618 21.8867 71.5288 21.8867C71.5826 21.8735 71.5288 21.9664 71.4213 22.0856C71.2873 22.2452 71.2608 22.3381 71.3683 22.3915C71.4486 22.445 71.4759 22.6036 71.341 23.0164L71.2211 22.7508ZM101.973 13.3874L101.987 12.9754L102.001 12.5766L102.751 12.6564C103.166 12.7098 103.581 12.8028 103.648 12.8554C103.729 12.922 103.676 13.0149 103.514 13.0946C103.367 13.1612 102.965 13.2542 101.973 13.3874ZM109.946 27.8897C109.987 27.7968 110.013 24.609 110.013 20.8104V13.9054H112.023V25.9904L111.474 26.6942C111.166 27.0798 110.697 27.5978 110.429 27.8371C110.121 28.1211 109.789 28.3786 109.438 28.6067C109.129 28.7933 108.727 28.9126 108.405 28.9126C107.883 28.9126 107.869 28.8994 107.802 27.9695L108.835 28.0089C109.572 28.0361 109.893 28.0089 109.946 27.8897ZM49.5801 18.3939C49.6876 18.3412 49.8746 18.287 49.9821 18.2475C50.0896 18.2212 50.3973 18.2212 50.6521 18.2615C50.906 18.301 51.1343 18.3404 51.1608 18.3404C51.1873 18.3544 51.1608 18.6726 51.1211 19.0582C51.0541 19.7357 51.04 19.7489 50.6786 19.6823C50.4776 19.6288 50.2633 19.5754 50.2096 19.5491C50.1848 19.5317 50.1671 19.506 50.1597 19.4768C50.1523 19.4475 50.1556 19.4166 50.169 19.3896C50.2096 19.337 50.1831 19.2169 50.1426 19.124C50.0888 19.0451 49.8481 18.9513 49.6066 18.925C49.298 18.8987 49.1773 18.819 49.1773 18.6594C49.1773 18.5271 49.2186 18.4342 49.2716 18.4473C49.3253 18.4605 49.4726 18.4333 49.5801 18.3939ZM36.635 22.4055C36.5275 22.1522 36.4473 21.8998 36.4473 21.8464C36.4473 21.7938 36.568 21.8201 36.7161 21.913C36.8633 21.9927 36.9841 22.2057 36.9841 22.3784C36.9841 22.5379 37.0776 22.7105 37.1843 22.7368C37.2918 22.7763 37.3853 22.8964 37.3853 23.0024C37.3853 23.1216 37.5466 23.3741 37.7476 23.5862C37.9626 23.8 38.2298 23.9455 38.3506 23.9184C38.4846 23.8921 38.5656 23.9184 38.5243 23.9718C38.4846 24.0253 38.6053 24.2374 38.7931 24.4372C38.98 24.6362 39.114 24.8352 39.0876 24.8746C39.0743 24.9018 38.7253 24.702 38.3233 24.3969C37.9213 24.105 37.4126 23.6405 37.2116 23.3741C36.9965 23.0953 36.7426 22.6711 36.635 22.4055ZM78.3901 27.3323C78.0948 27.3323 78.175 27.2393 78.8988 26.6679L79.7566 26.0044L79.9303 28.0352L80.8013 28.0089C81.592 27.9826 81.6458 27.9958 81.4051 28.1816C81.2173 28.3017 80.9626 28.3411 80.6003 28.3017C80.3058 28.2482 79.917 28.129 79.7433 28.0098C79.5696 27.8897 79.2743 27.6776 79.0733 27.5575C78.8693 27.4237 78.6341 27.346 78.3901 27.3323Z" fill="#FDFDFD"/>
<path d="M67.9644 12.5504C67.9512 12.1385 67.9917 11.66 68.0587 11.4873C68.1786 11.1954 68.2456 11.1823 70.9529 11.1954L71.0191 13.2543H68.2059L68.1654 12.1253L67.9776 13.32L67.9644 12.5504ZM79.9979 13.2543L80.0244 12.2183L80.0517 11.1954L82.9459 11.1296L82.9186 11.461C82.8922 11.6994 82.8119 11.78 82.6779 11.7266C82.5439 11.6871 82.5439 11.7134 82.7044 11.8195C82.8657 11.9395 82.9327 12.1911 82.9459 13.2543H79.9979Z" fill="#353D48"/>
<path d="M109.974 10.3986C109.947 10.6905 109.934 10.3986 109.934 9.73421C109.934 9.07068 109.947 8.83141 109.974 9.20305C110.001 9.60112 110.001 10.0005 109.974 10.3986ZM109.974 24.3435C109.961 26.3086 109.947 24.7685 109.947 20.8901C109.947 17.0125 109.961 15.4059 109.974 17.3052C110.001 19.2046 110.001 22.3783 109.974 24.3435Z" fill="#F9FBFA"/>
<path d="M79.9578 18.9655C79.9446 20.466 79.9305 19.2968 79.9305 16.3755C79.9305 13.4533 79.9446 12.2315 79.9578 13.6531C79.9846 15.4235 79.9846 17.195 79.9578 18.9655ZM65.1632 14.981C65.0971 14.981 65.0706 14.264 65.0971 13.3875C65.1235 12.511 65.1632 11.7932 65.2046 11.7932C65.2311 11.7932 65.2575 12.511 65.2575 13.3875C65.2575 14.264 65.217 14.981 65.1632 14.981ZM79.9173 27.7303C79.8748 27.3644 79.8481 26.9968 79.8371 26.6286C79.8106 26.2166 79.8371 25.8713 79.9032 25.8713C79.9578 25.8713 79.9843 26.363 79.9843 26.9599C79.9711 27.5708 79.9438 27.9162 79.9173 27.7303Z" fill="#B6B9BE"/>
<path d="M106.128 11.2216C105.726 11.2479 105.097 11.2479 104.721 11.2216C104.346 11.1953 104.681 11.1821 105.458 11.1821C106.236 11.1821 106.53 11.1953 106.128 11.2216ZM113.297 13.8782C112.538 13.9048 111.778 13.9048 111.019 13.8782C110.349 13.8642 110.831 13.8379 112.091 13.8379C113.351 13.8379 113.887 13.8642 113.297 13.8782Z" fill="#8A8D92"/>
<path d="M83.0405 23.7459C83.0272 26.1237 83.0132 24.2375 83.0132 19.5624C83.0132 14.8872 83.0272 12.9484 83.0405 15.2457C83.0669 17.5438 83.0669 21.3688 83.0405 23.7459ZM48.1467 26.3359C48.1335 26.044 48.0929 25.313 48.0797 24.7021C48.0532 24.1043 48.0797 23.6135 48.1335 23.6135C48.1996 23.6135 48.2269 24.3436 48.2137 25.2333C48.2005 26.1369 48.1732 26.6286 48.1467 26.3359ZM65.4865 26.6014C65.4592 26.9599 65.4459 26.6943 65.4459 26.0037C65.4459 25.313 65.4592 25.008 65.4865 25.3393C65.5129 25.6715 65.5129 26.2298 65.4865 26.6014Z" fill="#9FA3A8"/>
<path d="M45.6936 20.5185C43.5274 20.5451 41.3609 20.5451 39.1946 20.5185C37.4261 20.5053 38.9001 20.4922 42.4784 20.4922C46.0559 20.4922 47.5026 20.5053 45.6936 20.5185Z" fill="#C8CBD0"/>
<path d="M114.261 13.1209C114.235 13.5197 114.222 13.2278 114.222 12.4574C114.222 11.687 114.235 11.3548 114.261 11.7265C114.289 12.0849 114.289 12.723 114.261 13.1209Z" fill="#707377"/>
<path d="M39.959 13.8381C40.093 13.8792 40.1997 13.8521 40.2129 13.7723C40.227 13.6794 40.629 13.6391 41.4727 13.6794C42.572 13.7189 42.8127 13.7723 43.6299 14.1842C44.2735 14.5156 44.6887 14.8346 45.0237 15.2729C45.2785 15.605 45.6002 16.1765 45.721 16.535C45.8409 16.8803 45.9749 17.3712 46.0957 18.0355H36.1797L36.2599 17.6639C36.3005 17.4641 36.3939 17.1056 36.4609 16.8663C36.5279 16.641 36.6892 16.3623 36.8232 16.2694C36.9572 16.1896 37.1177 16.017 37.1979 15.9109C37.2922 15.7514 37.279 15.7382 37.1177 15.8312C36.9837 15.9101 36.9928 15.8665 37.145 15.698C37.279 15.5648 37.5337 15.2597 37.7075 15.0476C37.8812 14.8215 38.4039 14.4498 38.8737 14.1974C39.3825 13.9318 39.825 13.7855 39.959 13.8381Z" fill="#FEFEFE"/>
<path d="M37.0781 15.818C37.0243 15.7514 37.0781 15.6051 37.198 15.4858C37.3329 15.3526 37.4396 15.2466 37.4528 15.2466C37.466 15.2466 37.466 15.3395 37.4396 15.4456C37.4131 15.5524 37.3188 15.6445 37.2518 15.6445C37.1716 15.6445 37.1443 15.6848 37.1716 15.7514C37.2121 15.804 37.198 15.9109 37.1451 15.9767C37.0913 16.0565 36.93 16.2028 36.7969 16.3089C36.5553 16.4947 36.5421 16.4947 36.6893 16.216C36.7828 16.0433 36.93 15.9109 37.0111 15.9109C37.1046 15.9109 37.1459 15.8707 37.0781 15.818Z" fill="#FDFDFD"/>
<path d="M35.5913 16.6673C35.5376 16.4017 35.5243 16.1493 35.5913 16.1098C35.6443 16.0695 35.8593 16.044 36.0736 16.044C36.2746 16.044 36.421 16.1098 36.3813 16.1756C36.3416 16.243 36.3813 16.3088 36.4756 16.3088C36.5558 16.3088 36.5831 16.3491 36.5417 16.4157C36.4888 16.4683 36.3813 16.442 36.2878 16.3491C36.1538 16.229 36.1141 16.3088 36.1141 16.7076C36.1141 17.0792 36.0595 17.1993 35.9123 17.1721C35.8047 17.159 35.6583 16.9337 35.5913 16.6673ZM45.8018 16.3754C45.748 16.3096 45.7348 16.2027 45.7886 16.1493C45.8283 16.0835 45.9896 16.0432 46.1236 16.0432C46.3246 16.0432 46.3378 16.0835 46.2038 16.3491C46.1236 16.5086 46.0566 16.6541 46.0698 16.6813C46.083 16.6944 46.0566 16.7076 45.9896 16.7076C45.9771 16.708 45.9647 16.7059 45.9531 16.7014C45.9415 16.6969 45.931 16.6901 45.9222 16.6814C45.9133 16.6727 45.9064 16.6623 45.9017 16.6508C45.8971 16.6393 45.8949 16.627 45.8953 16.6147C45.8953 16.5481 45.8415 16.442 45.8018 16.3754ZM40.6693 18.1284C43.2417 18.1555 45.547 18.1152 45.7613 18.0486C45.9763 17.9828 46.1765 17.9162 46.1906 17.9162C46.2038 17.9031 46.1906 17.9557 46.1633 18.0355C46.1236 18.1152 45.9896 18.1687 45.8556 18.1687C45.7348 18.1687 45.533 18.2344 45.4263 18.301C45.2923 18.3808 45.279 18.4737 45.3601 18.5271C45.4395 18.5929 45.5735 18.7927 45.6678 18.9917C45.815 19.337 45.8018 19.3773 45.5206 19.4563C45.2658 19.5229 45.279 19.536 45.6546 19.5895C45.9896 19.6158 46.0963 19.6963 46.0963 19.8945C46.0963 20.1601 46.0028 20.1601 41.2723 20.1601C36.5426 20.1601 36.4483 20.1601 36.4483 19.8945C36.4483 19.6824 36.5426 19.6289 36.9173 19.6289C37.172 19.6289 37.3863 19.5763 37.3863 19.4965C37.3863 19.4168 37.1588 19.3633 36.8776 19.3633C36.4086 19.3633 36.3813 19.337 36.3945 18.9251C36.3945 18.6998 36.4483 18.4211 36.4888 18.3273C36.555 18.2213 36.4756 18.1547 36.2737 18.1284C36.1133 18.1152 38.0836 18.1152 40.6693 18.1284Z" fill="#353D48"/>
<path d="M43.015 18.1283C41.8315 18.155 40.6475 18.155 39.464 18.1283C38.5128 18.1152 39.3168 18.0889 41.273 18.0889C43.2292 18.0889 44.0068 18.1152 43.015 18.1283Z" fill="#554E4A"/>
</g>
<defs>
<clipPath id="clip0_337_5289">
<rect width="134" height="37" fill="white"/>
</clipPath>
</defs>
</svg>
