<svg width="83" height="44" viewBox="0 0 83 44" fill="none" xmlns="http://www.w3.org/2000/svg">
<g clip-path="url(#clip0_337_5459)">
<path d="M1.32393 32.4004C1.51233 32.2888 1.93497 32.122 2.26901 32.0325C2.64734 31.9327 3.41471 31.8657 4.29359 31.8657C5.08286 31.8545 6.08446 31.9102 6.51779 31.9772C6.96283 32.0325 7.49699 32.1328 8.05304 32.2996V33.5249C8.05304 34.1931 8.01943 34.7723 7.96393 34.7943C7.91963 34.828 7.00764 34.7943 5.93985 34.7165C4.4158 34.6162 3.92646 34.6162 3.68153 34.7278C3.47021 34.8168 3.3811 34.9391 3.3811 35.1396C3.3811 35.3064 3.49262 35.4957 3.63723 35.6072C3.78185 35.7188 4.57162 36.1532 5.3838 36.587C6.38438 37.1104 7.05194 37.5448 7.44097 37.9234C7.81931 38.302 8.06424 38.6586 8.19765 39.0372C8.29796 39.3375 8.38656 39.9172 8.38656 40.3178C8.38656 40.7184 8.32037 41.2643 8.22005 41.5426C8.13094 41.821 7.86361 42.2666 7.6304 42.5449C7.38598 42.8232 6.95163 43.1793 6.65171 43.3466C6.35128 43.5027 5.80644 43.7252 5.4393 43.8255C4.91635 43.9703 4.48251 44.0036 3.38161 43.9585C2.54703 43.9258 1.67935 43.8255 0.433331 43.4914L0.400233 42.2328C0.38954 41.2976 0.411436 40.986 0.511748 40.9742C0.652403 40.9629 0.793732 40.9629 0.934386 40.9742C1.0902 40.986 1.83567 41.0305 2.60253 41.097C3.37041 41.1533 4.13778 41.1635 4.32669 41.1195C4.53801 41.0632 4.71623 40.9077 4.81604 40.6964C4.92755 40.4508 4.93824 40.3178 4.83844 40.1172C4.77174 39.9837 4.01557 39.4603 3.08118 38.9032C2.1692 38.369 1.23482 37.7566 0.98989 37.5335C0.745472 37.2997 0.422638 36.8546 0.278025 36.5205C0.0667055 36.0641 0 35.7188 0 35.0838C0 34.6275 0.0667055 34.0483 0.155816 33.8032C0.233724 33.5582 0.466939 33.1908 0.64465 32.9795C0.834074 32.779 1.13501 32.5226 1.32393 32.4004ZM62.277 32.3221C62.4552 32.2331 62.8111 32.0883 63.0556 31.9998C63.3784 31.899 64.1234 31.8657 65.7365 31.8882C67.5386 31.9102 68.0055 31.9435 68.1613 32.0775C68.3171 32.2105 68.3502 32.4449 68.3502 33.3024C68.339 33.9813 68.2947 34.4157 68.2056 34.4939C68.1058 34.605 67.5605 34.6382 66.2258 34.6382C64.6351 34.6275 64.3683 34.6495 64.2237 34.8168C64.1127 34.9396 64.046 35.2844 64.0011 36.5318H66.0588C68.0055 36.5318 68.1277 36.5425 68.228 36.7543C68.2835 36.8771 68.339 37.3555 68.339 37.8124C68.339 38.2687 68.2835 38.7476 68.228 38.8699C68.1277 39.0817 68.0055 39.093 63.9456 39.093L64.0011 39.9725C64.0348 40.4846 64.1234 40.919 64.2013 41.008C64.3016 41.1083 64.9024 41.164 68.2835 41.2638V43.7027L67.95 43.803C67.7718 43.8588 66.7707 43.9258 65.7253 43.9591C64.3907 43.9923 63.69 43.9703 63.3341 43.87C62.9898 43.7695 62.6548 43.639 62.333 43.4802C62.055 43.3466 61.7209 43.1128 61.5875 42.968C61.4541 42.8345 61.2316 42.4559 61.087 42.1545C60.8426 41.6204 60.8314 41.4756 60.7978 38.2017C60.7647 35.3847 60.7865 34.694 60.9312 34.1373C61.0539 33.6922 61.254 33.3024 61.532 32.9795C61.7545 32.7119 62.0993 32.4116 62.277 32.3221ZM13.1583 36.4422C13.1471 33.5807 13.1919 32.3339 13.2805 32.1778C13.392 31.9772 13.5147 31.966 16.4508 32.0218L16.4732 36.4202C16.4951 40.3843 16.5175 40.8299 16.6845 40.986C16.8291 41.1083 17.2737 41.164 20.1216 41.2643V43.714L19.5651 43.8368C19.2647 43.9145 18.3863 43.9811 17.6189 43.9811C16.5175 43.9923 16.0725 43.9478 15.4833 43.7698C14.9716 43.6137 14.582 43.4132 14.2709 43.1236C14.0148 42.901 13.7143 42.5224 13.6033 42.2886C13.4811 42.066 13.3477 41.5646 13.2805 41.1753C13.225 40.7967 13.1695 38.6693 13.1583 36.4422Z" fill="black"/>
<path fill-rule="evenodd" clip-rule="evenodd" d="M56.6941 0.0178823C57.1722 0.00713807 58.0511 0.106906 58.6962 0.240952C59.319 0.373975 60.1531 0.530533 60.5533 0.608301C61.0651 0.697324 61.4098 0.830859 61.7214 1.07593C61.9663 1.26523 62.2663 1.45453 62.389 1.49905C62.5112 1.54356 62.9338 1.79988 63.3341 2.06695C63.7348 2.32277 64.1905 2.73514 64.3463 2.96895C64.5022 3.21402 64.6692 3.55937 64.7135 3.73742C64.769 3.92672 64.7471 4.24956 64.6804 4.46137C64.6025 4.72844 64.2908 5.09579 63.6681 5.6637C63.1787 6.09807 62.7668 6.43216 62.7668 6.38765C62.7561 6.33188 62.7668 5.99779 62.778 5.63044C62.8004 5.10705 62.7561 4.91774 62.6003 4.75044C62.4109 4.57239 62.2663 4.55039 61.4434 4.59491C60.9204 4.62816 60.1974 4.7397 59.8307 4.83998C59.4636 4.951 59.0629 5.10705 58.7181 5.3516L58.9407 5.76398C59.0629 5.99779 59.4412 6.47667 59.7859 6.85528C60.1307 7.22263 60.6205 7.657 60.8761 7.83505C61.1542 8.02435 61.2988 8.18039 61.2545 8.26993C61.1878 8.3477 60.8985 8.38095 60.3313 8.33644C59.6301 8.29193 59.3633 8.21365 58.6738 7.8463C58.2176 7.61249 57.5169 7.1116 57.1167 6.733C56.716 6.35439 56.1599 5.94202 55.8819 5.79723C55.6039 5.66421 55.1033 5.50765 54.7698 5.46314C54.4357 5.40788 53.5126 5.41863 52.7121 5.47439C51.9223 5.53016 50.6432 5.67495 49.8758 5.80849C49.108 5.94202 48.0626 6.18709 47.5396 6.37639C47.0172 6.55444 45.9937 6.98881 45.2594 7.34542C44.5256 7.70151 43.1793 8.42495 42.2561 8.97086C41.6805 9.30687 41.106 9.64472 40.5325 9.98439C40.4989 10.0176 40.6771 10.2402 40.9327 10.5078C41.1771 10.7636 41.8116 11.4876 42.3452 12.1225C42.8794 12.7462 43.3463 13.2583 43.4018 13.2583C43.4466 13.2583 44.0587 12.8797 44.7589 12.4228C45.4595 11.9552 46.5609 11.3095 47.2061 10.9867C47.8512 10.6526 48.7968 10.2515 49.3193 10.0734C50.1646 9.79509 50.4319 9.76132 51.822 9.76132C53.1566 9.75058 53.5014 9.78384 54.2132 10.0069C54.6695 10.1512 55.3701 10.452 55.7709 10.6638C56.1823 10.8976 56.8275 11.4098 57.2725 11.8554C57.7949 12.3896 58.1845 12.913 58.4737 13.4809C58.6962 13.9377 58.9631 14.673 59.0522 15.0956C59.1408 15.5299 59.2187 16.1311 59.2187 16.4319C59.2187 16.744 59.1408 17.3339 59.0522 17.7683C58.9519 18.2027 58.7181 18.8703 58.518 19.2715C58.2843 19.7503 57.8841 20.2737 57.328 20.8304C56.6829 21.4766 56.2714 21.7769 55.5483 22.1335C55.0254 22.3893 54.3023 22.6789 53.9352 22.7679C53.5686 22.8682 52.7676 22.991 52.1555 23.0463C51.4437 23.1128 50.743 23.1128 50.2094 23.0463C49.7531 22.991 49.0968 22.8682 48.7632 22.7679C48.4297 22.6677 47.7509 22.3893 47.2616 22.1443C46.7722 21.8997 45.9494 21.3983 45.4264 21.0422C44.9035 20.6856 44.1361 20.0844 43.7023 19.7171C43.2796 19.3492 42.9013 19.0489 42.8682 19.0489C42.8346 19.0489 42.2342 19.4495 41.5336 19.9509C40.8324 20.4405 39.676 21.1977 38.9748 21.6101C38.2742 22.0332 37.2181 22.6011 36.6391 22.8687C36.0607 23.1353 35.2602 23.4694 34.8595 23.5922C34.4592 23.7257 33.7698 23.9043 33.3359 24.004C32.8909 24.093 32.012 24.1713 31.3892 24.1713C30.7553 24.1713 29.7766 24.093 29.22 24.004C28.6528 23.915 27.7739 23.7037 27.2739 23.5477C26.7621 23.3916 25.9056 23.0355 25.3491 22.7572C24.8042 22.4783 24.0257 22.022 23.6254 21.7437C23.2252 21.4653 22.5912 20.9307 22.2017 20.5633C21.8127 20.1847 21.2897 19.6168 20.5667 18.6923L20.8447 18.481C21.0005 18.3695 21.334 18.1244 22.0683 17.601L22.5469 18.0021C22.8897 18.2914 23.2498 18.5592 23.6254 18.8038C23.959 19.0151 24.5929 19.3605 25.0156 19.561C25.4494 19.7616 26.2173 20.0512 26.7397 20.1955C27.2627 20.3515 28.1634 20.5301 28.7419 20.6078C29.3316 20.6856 30.2211 20.7306 30.7441 20.6969C31.3668 20.6523 32.0344 20.5076 32.7239 20.285C33.2804 20.0957 34.0142 19.8061 34.337 19.6501C34.8141 19.3941 35.2851 19.1267 35.7495 18.8483C36.2053 18.57 37.3179 17.8241 39.8649 16.0421L39.6312 15.7412C39.509 15.5632 39.12 15.1288 38.7747 14.7615C38.4188 14.3941 37.796 13.7039 36.6391 12.367L35.6716 12.9467C34.9498 13.3558 34.2153 13.7419 33.4693 14.1045C32.8023 14.4274 31.7228 14.8617 31.0776 15.0843C30.4324 15.2961 29.4874 15.5299 28.9644 15.6077C28.4196 15.686 27.6186 15.708 27.0738 15.6742C26.5508 15.6302 25.8277 15.5187 25.4606 15.4297C25.094 15.3294 24.4931 15.1176 24.126 14.9395C23.7594 14.7727 23.1361 14.3829 22.7465 14.0825C22.3575 13.7817 21.8127 13.2358 21.5346 12.8684C21.2561 12.5011 20.9002 11.8999 20.7337 11.5321C20.5667 11.1647 20.3665 10.5856 20.2774 10.2515C20.1995 9.91737 20.1328 9.18216 20.1328 8.63728C20.1328 7.93532 20.2107 7.40067 20.3772 6.85528C20.5111 6.43216 20.7668 5.831 20.945 5.51891C21.1825 5.13082 21.4503 4.76231 21.746 4.41686C22.0128 4.11602 22.5352 3.65965 22.9024 3.39207C23.2695 3.13625 23.8698 2.77965 24.237 2.6236C24.6041 2.45681 25.3272 2.223 25.8501 2.10021C26.5508 1.92216 27.1848 1.86639 28.2974 1.85565C29.5872 1.84439 29.9212 1.87765 30.6331 2.11146C31.0888 2.25625 31.8898 2.57909 32.4127 2.84667C33.0669 3.19163 33.6985 3.57836 34.3034 4.00449C34.8264 4.37184 35.7271 5.10705 36.3056 5.63044C36.884 6.15384 37.3953 6.57695 37.4513 6.57695C37.4956 6.57695 38.2966 6.12058 39.231 5.55216C40.2977 4.91548 41.3806 4.30661 42.4787 3.72616C43.3351 3.28105 44.5363 2.72388 45.1484 2.47881C45.7882 2.22703 46.4376 2.00055 47.0951 1.79988C47.5508 1.67709 48.5519 1.46579 49.3193 1.343C50.0866 1.22072 51.1656 1.08718 51.711 1.05342C52.4336 0.998161 52.9453 0.886626 53.5462 0.641557C54.0019 0.46351 54.7031 0.251696 55.1033 0.173929C55.5035 0.0961613 56.2154 0.0178823 56.6941 0.0178823ZM58.9743 2.6016C59.1968 2.82416 59.3857 2.90193 59.6968 2.90193C59.9193 2.90193 60.231 2.83542 60.3868 2.76891C60.5426 2.69063 60.6536 2.5796 60.6424 2.52332C60.6205 2.46807 60.4087 2.35653 60.1643 2.27877C59.853 2.17449 59.5327 2.0998 59.2075 2.0557C58.8184 2.00044 58.6962 2.02244 58.685 2.13398C58.6738 2.223 58.8073 2.42356 58.9743 2.6016ZM26.2952 6.63272C26.0166 6.733 25.6276 6.93305 25.4387 7.08909C25.2381 7.23388 24.9937 7.4677 24.9045 7.61249C24.8154 7.74602 24.6932 8.0576 24.6377 8.30318C24.5598 8.61477 24.5817 8.9156 24.682 9.30495C24.7906 9.67499 24.9895 10.0119 25.2605 10.2852C25.4942 10.5078 25.9392 10.8086 26.2392 10.9422C26.673 11.1427 26.9958 11.1872 27.7413 11.176C28.4527 11.176 28.9089 11.0982 29.5765 10.8751C30.0653 10.7083 31.1448 10.2515 31.9677 9.8396L33.4693 9.10491C32.5237 8.25816 31.845 7.74602 31.3561 7.41193C30.8663 7.0896 30.188 6.711 29.854 6.57695C29.5205 6.44342 28.9425 6.32114 28.5754 6.29863C28.2083 6.27611 27.6629 6.29863 27.3518 6.35439C27.0513 6.40965 26.5727 6.53244 26.2952 6.63272ZM49.4639 14.4606C49.0749 14.6612 48.474 14.9953 48.1293 15.2178C47.7728 15.4522 47.2392 15.8083 46.95 16.0313L46.4163 16.4319C46.8165 16.8438 47.2056 17.1666 47.5396 17.4342C47.8737 17.69 48.4297 18.0686 48.7632 18.2692C49.0968 18.4697 49.6528 18.7256 49.9868 18.8371C50.3428 18.9706 50.8988 19.0489 51.3215 19.0489C51.7217 19.0489 52.3562 18.9706 52.7452 18.8816C53.1235 18.7926 53.6241 18.6145 53.8578 18.503C54.0798 18.3802 54.4251 18.1244 54.6252 17.9131C54.8141 17.7125 55.0366 17.4117 55.0921 17.2449C55.1588 17.0669 55.2143 16.6657 55.2143 16.3542C55.2143 15.9643 55.1257 15.597 54.9475 15.2629C54.8141 14.9845 54.4806 14.5947 54.2025 14.3941C53.9352 14.1823 53.4683 13.949 53.1566 13.8595C52.8567 13.7704 52.3226 13.7039 51.989 13.7039C51.655 13.7147 51.0989 13.8037 50.7654 13.9152C50.4319 14.0268 49.8422 14.2713 49.4639 14.4606Z" fill="#AD1F2C"/>
<path fill-rule="evenodd" clip-rule="evenodd" d="M77.4601 31.8989C79.3508 31.9214 79.7179 31.9547 80.2964 32.166C80.6854 32.3 81.1972 32.6009 81.5088 32.8787C81.8092 33.1463 82.1427 33.5356 82.2425 33.7474C82.3541 33.9587 82.4987 34.4044 82.5654 34.7272C82.6321 35.0393 82.6876 35.5182 82.6876 35.7852C82.6876 36.0411 82.6097 36.5537 82.5099 36.9211C82.4208 37.2884 82.187 37.7898 82.0205 38.0349C81.8423 38.2794 81.4976 38.6028 81.2527 38.7583C81.0082 38.9144 80.7969 39.0704 80.7969 39.1262C80.7969 39.1707 81.2975 40.1392 81.909 41.2975C82.5318 42.4441 83.0216 43.4801 82.9992 43.6024C82.9656 43.8137 82.8658 43.825 81.52 43.8582C80.719 43.8695 79.9735 43.8582 79.8513 43.8362C79.6955 43.7917 79.3065 43.1568 77.5156 39.6491H76.6815V41.5984C76.6815 43.2238 76.6479 43.5691 76.5033 43.7139C76.3699 43.847 76.0364 43.8807 75.0572 43.8807C74.3565 43.8807 73.6895 43.8362 73.5668 43.7692C73.3442 43.6582 73.3442 43.5466 73.3442 32.6336L73.6004 32.3553C73.7893 32.1327 74.0118 32.0432 74.5678 31.9659C74.9686 31.9214 76.2696 31.8877 77.4601 31.8989ZM76.6815 34.6382V37.0878C78.3721 37.0991 78.5722 37.0546 78.9057 36.832C79.251 36.6095 79.2953 36.5199 79.3284 36.0303C79.3508 35.7182 79.3396 35.3621 79.3065 35.2286C79.2729 35.0838 79.1064 34.9058 78.9393 34.8162C78.7611 34.7384 78.4052 34.6494 78.1272 34.6162C77.8056 34.5847 77.4819 34.5809 77.1597 34.6049L76.6815 34.6382ZM27.8964 32.0212L27.9295 37.8676C27.9519 42.4108 27.9183 43.7247 27.8185 43.7917C27.7406 43.8362 27.0954 43.8695 26.3723 43.8695C25.6493 43.8807 24.9929 43.8475 24.9043 43.825C24.7485 43.7692 24.7261 43.012 24.7149 37.9346C24.7042 34.7272 24.7373 32.077 24.7928 32.0324C24.8376 31.9879 25.5607 31.9659 27.9076 32.0212H27.8964ZM36.8945 31.9547C40.076 31.9547 41.0435 31.9879 41.155 32.0995C41.2512 32.1957 41.2996 32.5968 41.2996 33.3018C41.2996 33.9812 41.2436 34.4044 41.1657 34.4939C41.0659 34.5937 40.6321 34.6382 38.5189 34.6382V39.2039C38.5189 43.1568 38.4965 43.7692 38.3518 43.825C38.2515 43.8475 37.5952 43.8812 36.8726 43.8812C35.9606 43.8812 35.5268 43.8362 35.4265 43.7359C35.3155 43.6357 35.2819 42.5889 35.2931 34.6382H33.9584C32.8682 34.6382 32.6121 34.6049 32.5683 34.4714C32.5347 34.3711 32.5011 33.837 32.4899 33.2691C32.468 32.4893 32.5011 32.1997 32.6233 32.0995C32.7348 31.9992 33.8469 31.9659 36.8945 31.9547ZM49.0298 32.0212L49.0858 36.3086H52.4221L52.4776 32.0212H55.5924L55.6143 37.8118C55.6255 42.2548 55.6036 43.6357 55.5033 43.7467C55.403 43.8475 54.9916 43.8807 54.0572 43.8807C53.3341 43.8807 52.6782 43.8475 52.5891 43.825C52.4445 43.7692 52.4221 43.4131 52.4221 39.2039H49.0853V41.3973C49.0853 42.9787 49.041 43.6357 48.9519 43.7359C48.8516 43.8362 48.4071 43.8807 47.4946 43.8807C46.7832 43.8807 46.1156 43.8475 46.0265 43.825C45.8707 43.7692 45.8483 43.012 45.8376 37.9346C45.8264 34.7272 45.8595 32.077 45.9155 32.0324C45.9598 31.9879 46.6829 31.9659 49.0298 32.0212Z" fill="black"/>
<path d="M62.0995 9.40537C62.1938 8.98544 62.3164 8.57245 62.4666 8.16928V8.15802C62.5781 7.84593 62.7228 7.57886 62.7895 7.57886C62.845 7.57886 63.012 7.97997 63.1673 8.47011C63.3231 8.95974 63.4453 9.53942 63.4453 9.75072C63.4453 10.029 63.3786 10.1851 63.1897 10.3074C63.0563 10.3964 62.845 10.4742 62.7228 10.4854C62.6 10.4854 62.3775 10.3851 62.2222 10.2741C61.9442 10.051 61.9442 10.051 62.0995 9.40537ZM18.8091 15.2737C18.5311 14.5723 18.331 13.9486 18.3753 13.9041C18.4201 13.8483 18.4975 13.8709 18.5647 13.9599C18.6426 14.0376 19.0536 14.5053 19.5103 15.0067C19.9548 15.4963 20.3108 15.9419 20.2996 15.9752C20.2996 16.0197 20.0883 16.187 19.8438 16.3538C19.5994 16.5323 19.3764 16.6434 19.3652 16.6096C19.3433 16.5769 19.0984 15.9747 18.8091 15.2737ZM19.5994 17.0885C19.577 17.022 19.7659 16.8107 20.0103 16.6321C20.2553 16.4428 20.5002 16.2873 20.5669 16.276C20.6224 16.276 20.767 16.365 20.8673 16.4986C21.0674 16.7104 21.0557 16.7324 20.4778 17.111C20.0215 17.4118 19.8769 17.4676 19.7659 17.3566C19.6923 17.28 19.6354 17.1889 19.5989 17.089L19.5994 17.0885ZM20.2217 18.035C20.1107 17.8017 20.1443 17.7459 20.6667 17.3673C20.9783 17.1335 21.2564 16.9442 21.29 16.9442C21.3231 16.9442 21.4453 17.0445 21.568 17.1668C21.6902 17.2896 21.7681 17.4006 21.7345 17.4226L21.0893 17.8682C20.7782 18.0913 20.4778 18.2806 20.4223 18.2806C20.3775 18.2806 20.2884 18.169 20.2217 18.035Z" fill="#AD1F2C"/>
</g>
<defs>
<clipPath id="clip0_337_5459">
<rect width="83" height="44" fill="white"/>
</clipPath>
</defs>
</svg>
