<svg width="149" height="38" viewBox="0 0 149 38" fill="none" xmlns="http://www.w3.org/2000/svg">
<path d="M56.189 20.4H60.4966C61.1023 20.4 61.5931 20.8931 61.5931 21.4952C61.5931 22.0973 61.1023 22.5904 60.4966 22.5904H55.3013C55.2178 22.5904 55.1395 22.6216 55.082 22.6735L53.5156 24.0178C53.2755 24.2255 53.4217 24.6147 53.7349 24.6147H60.2355C60.2355 24.6147 60.2407 24.6147 60.2407 24.6096C60.2407 24.6044 60.246 24.6044 60.246 24.6044C60.3295 24.6096 60.4078 24.6147 60.4966 24.6147C62.2196 24.6147 63.6189 23.2185 63.6189 21.4952C63.6189 19.8602 62.3606 18.5158 60.7524 18.386C60.7524 18.386 60.7472 18.386 60.7472 18.3808C60.7472 18.3757 60.7472 18.3757 60.742 18.3757H56.1054C55.4997 18.3757 55.0089 17.8825 55.0089 17.2804C55.0089 16.6731 55.4997 16.1852 56.1054 16.1852H61.2902C61.3738 16.1852 61.4573 16.1541 61.52 16.097L62.9767 14.7526C63.2065 14.545 63.055 14.1609 62.747 14.1609H56.1942C56.1681 14.1609 56.1368 14.1609 56.1106 14.1609C54.3876 14.1609 52.9883 15.5572 52.9883 17.2804C52.9883 19.0037 54.3876 20.4 56.1106 20.4C56.1368 20.4 56.1629 20.4 56.189 20.4Z" fill="black"/>
<path d="M81.2671 14.1558C81.0792 14.1558 80.9277 14.3063 80.9277 14.4983V24.2774C80.9277 24.4643 81.0792 24.62 81.2671 24.62H89.1514C89.2453 24.62 89.3341 24.5785 89.402 24.511L90.3888 23.4573C90.5925 23.2393 90.441 22.8863 90.1382 22.8863H83.2565C83.0685 22.8863 82.9171 22.7358 82.9171 22.5438V14.4983C82.9171 14.3115 82.7656 14.1558 82.5777 14.1558H81.2671Z" fill="black"/>
<path fill-rule="evenodd" clip-rule="evenodd" d="M68.6423 14.1558C68.6371 14.161 68.6423 14.161 68.6423 14.1558C67.6346 14.2025 66.8253 15.007 66.7783 16.0088V22.5853C66.7783 22.6112 66.7783 22.6424 66.7783 22.6683C66.7783 23.7116 67.6033 24.5629 68.6423 24.6044H75.7956C76.8294 24.5577 77.6596 23.7065 77.6596 22.6683C77.6596 22.6424 77.6596 22.6112 77.6596 22.5853V16.014C77.6178 15.0122 76.8085 14.2025 75.8008 14.161H68.6423V14.1558ZM69.9738 16.014C69.342 16.0399 68.8355 16.5486 68.8094 17.1819V21.3188C68.8094 21.3344 68.8094 21.3551 68.8094 21.3707C68.8094 22.0247 69.3263 22.5645 69.9738 22.5905H74.4589C75.1064 22.5645 75.6233 22.0247 75.6233 21.3707C75.6233 21.3551 75.6233 21.3344 75.6233 21.3188V17.1819C75.5972 16.5486 75.0907 16.0451 74.4589 16.014H69.9738Z" fill="black"/>
<path fill-rule="evenodd" clip-rule="evenodd" d="M101.849 24.2773C101.849 24.4642 102.001 24.6199 102.189 24.6199H103.526C103.714 24.6199 103.865 24.4693 103.865 24.2773V16.1852C103.865 16.1592 103.865 16.1281 103.865 16.1021C103.865 15.0588 103.045 14.2075 102.022 14.166H95.1557C95.1296 14.166 95.0983 14.166 95.0722 14.166C94.007 14.166 93.1455 15.0328 93.1455 16.1073C93.1455 16.1332 93.1455 16.1644 93.1455 16.1903V24.2825C93.1455 24.4693 93.2969 24.6251 93.4849 24.6251H94.8216C95.0095 24.6251 95.1609 24.4745 95.1609 24.2825V20.9138C95.1609 20.7269 95.3124 20.5712 95.5003 20.5712H101.526C101.714 20.5712 101.865 20.7217 101.865 20.9138V24.2773H101.849ZM95.1453 18.7078V17.026C95.1453 16.372 95.6726 15.8426 96.3201 15.8426H100.675C101.322 15.8426 101.849 16.372 101.849 17.026V18.7078C101.849 18.8946 101.698 19.0504 101.51 19.0504H95.4847C95.2967 19.0504 95.1453 18.8998 95.1453 18.7078Z" fill="black"/>
<path fill-rule="evenodd" clip-rule="evenodd" d="M130.071 24.6199C129.883 24.6199 129.732 24.4694 129.732 24.2774V20.9087C129.732 20.7218 129.58 20.5661 129.392 20.5661H123.299C123.111 20.5661 122.959 20.7166 122.959 20.9087V24.2774C122.959 24.4642 122.808 24.6199 122.62 24.6199H121.273C121.085 24.6199 120.934 24.4694 120.934 24.2774V16.1852C120.934 16.1593 120.934 16.1281 120.934 16.1022C120.934 15.0329 121.806 14.1609 122.881 14.1609C122.907 14.1609 122.939 14.1609 122.965 14.1609H129.909C130.943 14.2076 131.773 15.0589 131.773 16.097C131.773 16.1229 131.773 16.1541 131.773 16.18V24.2722C131.773 24.459 131.622 24.6147 131.434 24.6147H130.071V24.6199ZM122.954 17.0261V18.7079C122.954 18.8947 123.106 19.0504 123.294 19.0504H129.387C129.575 19.0504 129.726 18.8999 129.726 18.7079V17.0261C129.726 16.3721 129.194 15.8426 128.541 15.8426H124.139C123.487 15.8426 122.954 16.3721 122.954 17.0261Z" fill="black"/>
<path d="M108.893 14.1558C108.992 14.1558 109.086 14.1973 109.149 14.2751L115.143 21.3811C115.347 21.6198 115.738 21.4745 115.738 21.1579V14.4983C115.738 14.3115 115.89 14.1558 116.078 14.1558H117.414C117.602 14.1558 117.754 14.3063 117.754 14.4983V24.2774C117.754 24.4643 117.602 24.62 117.414 24.62H115.754C115.749 24.62 115.743 24.6148 115.743 24.6096C115.743 24.6044 115.743 24.6044 115.738 24.5992L109.64 17.5452C109.436 17.3065 109.044 17.457 109.044 17.7684V24.2826C109.044 24.4695 108.893 24.6252 108.705 24.6252H107.358C107.17 24.6252 107.019 24.4747 107.019 24.2826V14.4983C107.019 14.3115 107.17 14.1558 107.358 14.1558H108.893Z" fill="black"/>
<path d="M21.8999 24.978C22.067 24.8119 22.2915 24.7185 22.5265 24.7185H44.2734C44.6702 24.7185 44.8686 25.196 44.5867 25.4711L40.2895 29.7378C40.1224 29.9039 39.8979 29.9973 39.6629 29.9973H17.9212C17.5244 29.9973 17.326 29.5198 17.608 29.2447L21.8999 24.978Z" fill="url(#paint0_linear_25_1600)"/>
<path d="M21.8999 9.03248C22.067 8.86638 22.2915 8.77295 22.5265 8.77295H44.2734C44.6702 8.77295 44.8686 9.25048 44.5867 9.52559L40.2895 13.7923C40.1224 13.9584 39.8979 14.0518 39.6629 14.0518H17.9212C17.5244 14.0518 17.326 13.5743 17.608 13.2991L21.8999 9.03248Z" fill="url(#paint1_linear_25_1600)"/>
<path d="M40.2895 16.9534C40.1224 16.7873 39.8979 16.6938 39.6629 16.6938H17.9212C17.5244 16.6938 17.326 17.1714 17.608 17.4465L21.9051 21.7132C22.0722 21.8793 22.2967 21.9727 22.5317 21.9727H44.2786C44.6754 21.9727 44.8738 21.4951 44.5919 21.22L40.2895 16.9534Z" fill="url(#paint2_linear_25_1600)"/>
<defs>
<linearGradient id="paint0_linear_25_1600" x1="42.197" y1="6.22352" x2="27.287" y2="34.9514" gradientUnits="userSpaceOnUse">
<stop stop-color="#00FFA3"/>
<stop offset="1" stop-color="#DC1FFF"/>
</linearGradient>
<linearGradient id="paint1_linear_25_1600" x1="35.6166" y1="2.80821" x2="20.7066" y2="31.5361" gradientUnits="userSpaceOnUse">
<stop stop-color="#00FFA3"/>
<stop offset="1" stop-color="#DC1FFF"/>
</linearGradient>
<linearGradient id="paint2_linear_25_1600" x1="38.8859" y1="4.50503" x2="23.9758" y2="33.2329" gradientUnits="userSpaceOnUse">
<stop stop-color="#00FFA3"/>
<stop offset="1" stop-color="#DC1FFF"/>
</linearGradient>
</defs>
</svg>
