<svg width="116" height="26" viewBox="0 0 116 26" fill="none" xmlns="http://www.w3.org/2000/svg">
<path d="M33.6686 15.23H35.6557C35.8971 16.6414 36.8071 17.7 38.72 17.7C40.4843 17.7 41.5243 16.8086 41.5243 15.4714C41.5243 14.0229 40.3729 13.6886 38.8314 13.1871L37.9586 12.9086C35.5629 12.1657 34.0771 11.2186 34.0771 9.10143C34.0771 6.94714 35.9343 5.44286 38.6829 5.44286C41.5243 5.44286 43.0657 6.87286 43.3071 9.15714H41.3014C41.0786 7.82 40.2429 7.05857 38.6271 7.05857C37.0671 7.05857 36.1757 7.82 36.1757 8.93428C36.1757 10.3086 37.3457 10.7357 38.7943 11.1814L39.7229 11.46C42.0629 12.1471 43.5857 13.02 43.5857 15.23C43.5857 17.6629 41.58 19.26 38.7014 19.26C35.7114 19.26 33.8357 17.7743 33.6686 15.23ZM52.0047 5.46143C56.0161 5.46143 58.709 8.26571 58.709 12.37C58.709 16.4743 56.0532 19.26 52.0232 19.26C48.0118 19.26 45.3375 16.4743 45.3375 12.37C45.3375 8.26571 48.0304 5.46143 52.0047 5.46143ZM51.9861 7.11429C49.1075 7.11429 47.4361 9.30571 47.4361 12.3514C47.4361 15.3786 49.1447 17.6257 52.0047 17.6257C54.8461 17.6257 56.5732 15.4157 56.5732 12.3514C56.5732 9.26857 54.8647 7.11429 51.9861 7.11429ZM61.3027 19V5.72143H63.2713V17.31H69.1027V19H61.3027ZM71.4089 19V5.72143H73.3589V19H71.4089ZM76.7816 19V5.72143H80.403C85.3616 5.72143 87.7758 8.08 87.7758 12.3886C87.7758 16.0471 85.7887 19 80.7187 19H76.7816ZM78.7501 7.41143V17.3471H80.2544C83.7458 17.3471 85.6587 16.0471 85.6587 12.3886C85.6587 9.10143 83.8016 7.39286 80.4401 7.39286C80.0873 7.39286 79.6973 7.41143 79.3444 7.41143H78.7501ZM90.4062 19V5.72143H92.3562V19H90.4062ZM98.2488 19V7.43H94.646V5.72143H103.802V7.43H100.199V19H98.2488ZM109 19V13.8557C107.515 11.1071 106.047 8.47 104.562 5.72143H106.772C107.44 6.98429 108.109 8.26571 109.037 10.0671L110.059 11.9986C110.356 11.4043 110.635 10.9771 113.365 5.72143H115.445C113.959 8.47 112.436 11.1071 110.932 13.8557V19H109Z" fill="#12141D"/>
<path d="M8.90608 6.9888L4.77808 13.9742L0.650391 6.9888L4.7777 0H13.037L17.1653 6.98842L8.90608 6.9888Z" fill="#12141D"/>
<path d="M8.90824 18.419L13.0353 11.4333L17.1653 18.419L13.0353 25.4075H4.77784L0.650391 18.4192L8.90824 18.419Z" fill="#12141D"/>
</svg>
