<svg width="180" height="60" viewBox="0 0 180 60" fill="none" xmlns="http://www.w3.org/2000/svg">
<path d="M47.8324 30.153L51.8924 27.797L55.8924 30.153L51.8924 32.459L47.8324 30.203V30.153ZM35.6504 23.185L51.9004 13.96L63.9804 20.828L59.9804 27.796L51.9104 23.184L39.7304 30.102L35.6504 23.185Z" fill="#F6BD3A"/>
<path d="M47.8319 39.3758V34.7638L51.8319 32.4578L55.8919 30.1518V34.7638L51.8919 37.0698V41.6818L47.8319 44.0378V39.3758ZM47.8319 30.1528L43.7719 27.8468L39.7119 30.1028V25.4898L51.8919 18.5718V27.7958L47.8319 30.1528ZM59.9119 25.4908V23.1848L63.9719 20.8288L64.0219 25.4408L59.9619 27.7968L59.9119 25.4908Z" fill="#EB8C23"/>
<path d="M43.7704 41.5822V27.8472L47.7704 25.5912L47.8204 30.1532L51.8804 32.4092V37.0712L47.8204 34.9152V44.0382L43.7704 41.5822ZM37.6564 28.9002L35.6504 27.6972V23.1872L39.7104 25.4932V30.1052L37.6564 28.9002ZM51.8924 23.1852V18.5732L59.9124 23.1852L59.9624 27.7972L51.8924 23.1852Z" fill="#E35A2B"/>
<path d="M71.8248 24.7782V35.3782H69.9618V24.7782H66.3418V22.9502H75.4418V24.7772L71.8248 24.7782ZM81.6098 28.6282C81.7238 29.0892 81.7746 29.5635 81.7608 30.0382L75.7498 31.8202C75.7968 32.2702 75.7838 32.0872 75.9248 32.4072C76.0658 32.7272 76.2448 32.9892 76.4568 33.2072C76.6688 33.4252 76.9068 33.5672 77.1568 33.6672C77.4068 33.7672 77.6938 33.8192 77.9728 33.8172C78.3728 33.8172 78.7208 33.7522 79.0458 33.6222C79.3859 33.4834 79.7053 33.2983 79.9948 33.0722L81.0768 34.2422C80.6767 34.6284 80.2071 34.9355 79.6928 35.1472C79.1828 35.3602 78.5748 35.4672 77.8658 35.4672C77.332 35.4693 76.8035 35.3607 76.3138 35.1482C75.8138 34.9352 75.3938 34.6222 75.0278 34.2082C74.6618 33.7942 74.3718 33.2862 74.1578 32.6822C73.9438 32.0782 73.8378 31.3822 73.8378 30.6242C73.8378 29.8322 73.9378 29.1242 74.1398 28.5312C74.3418 27.9382 74.6198 27.4312 74.9738 27.0142C75.325 26.6089 75.7651 26.2903 76.2598 26.0832C76.7856 25.8659 77.3499 25.7573 77.9188 25.7642C78.5808 25.7642 79.1588 25.8882 79.6488 26.1372C80.1388 26.3862 80.5488 26.7232 80.8728 27.1372C81.2098 27.5855 81.4567 28.0949 81.5998 28.6372L81.6098 28.6282ZM79.8628 29.0482C79.8388 28.7282 79.6188 28.3482 79.4368 28.0952C79.2653 27.8692 79.0354 27.6943 78.7718 27.5892C78.4998 27.4812 78.1298 27.4362 77.8048 27.4492C77.2048 27.4762 76.5048 27.6872 76.1728 28.1492C75.8408 28.6112 75.7358 29.4122 75.7488 30.2662L79.8628 29.0482ZM88.3598 35.2622V29.9922C88.3598 29.0462 88.1898 28.3922 87.8538 28.0052C87.5178 27.6182 87.0468 27.4372 86.4538 27.4372C85.8388 27.4372 85.3658 27.6442 85.0338 28.0572C84.7018 28.4702 84.5368 29.0572 84.5368 29.8132V35.2592H82.6998V25.9492H84.5268V26.8362C84.7638 26.4932 85.0918 26.2362 85.5118 26.0382C85.9318 25.8402 86.3838 25.7542 86.8688 25.7542C87.9568 25.7542 88.7818 26.1042 89.3438 26.8012C89.9058 27.4982 90.1868 28.5412 90.1868 29.9232V35.2632L88.3598 35.2622ZM97.6918 32.8142C97.6918 33.3342 97.5938 33.7692 97.3988 34.1182C97.2131 34.4573 96.9483 34.7465 96.6268 34.9612C96.3068 35.1742 95.9268 35.3282 95.5268 35.4212C95.0928 35.5174 94.6494 35.565 94.2048 35.5632C93.5648 35.5632 92.9308 35.4512 92.2978 35.2262C91.7069 35.023 91.1482 34.7361 90.6388 34.3742L91.4628 33.0002C91.8785 33.2966 92.3358 33.5298 92.8198 33.6922C93.2868 33.8462 93.7398 33.9222 94.1768 33.9222C95.3118 33.9222 95.8798 33.5792 95.8798 32.8922C95.8798 32.5372 95.6878 32.2522 95.3038 32.0422C94.9198 31.8322 94.3898 31.5922 93.7158 31.3422C93.2797 31.1811 92.856 30.9886 92.4478 30.7662C92.0998 30.5702 91.8148 30.3612 91.5958 30.1362C91.3846 29.9233 91.2239 29.6656 91.1258 29.3822C91.0308 29.1042 90.9838 28.7822 90.9838 28.4152C90.9838 28.0012 91.0608 27.6352 91.2138 27.3152C91.3644 26.9998 91.5895 26.7259 91.8698 26.5172C92.1538 26.3042 92.4898 26.1442 92.8698 26.0372C93.2498 25.9302 93.6858 25.8772 94.1468 25.8772C94.7468 25.8772 95.3088 25.9722 95.8588 26.1612C96.4088 26.3502 96.8908 26.5992 97.3048 26.9062L96.5198 28.3002C96.1418 28.0282 95.7568 27.8272 95.3668 27.6972C94.9768 27.5672 94.5668 27.5022 94.1068 27.5022C93.6468 27.5022 93.3318 27.5822 93.1308 27.7422C93.0356 27.813 92.9587 27.9055 92.9062 28.0119C92.8537 28.1182 92.8271 28.2356 92.8288 28.3542C92.8277 28.4675 92.852 28.5795 92.8998 28.6822C92.9468 28.7822 93.0358 28.8862 93.1658 28.9822C93.3284 29.1092 93.5036 29.2191 93.6888 29.3102C93.9696 29.4501 94.2565 29.5773 94.5488 29.6912L95.9148 30.2682C96.27 30.4291 96.6014 30.6381 96.8998 30.8892C97.1575 31.1087 97.3608 31.3849 97.4938 31.6962C97.6238 32.0032 97.6888 32.3762 97.6888 32.8142H97.6918ZM106.19 30.6672C106.19 31.4372 106.084 32.1252 105.87 32.7342C105.656 33.3432 105.37 33.8582 104.983 34.2772C104.615 34.6897 104.161 35.0167 103.653 35.2352C103.153 35.4552 102.589 35.5632 101.985 35.5632C101.385 35.5632 100.85 35.4482 100.353 35.2172C99.8556 34.9854 99.4139 34.6495 99.0578 34.2322C98.6908 33.8072 98.4048 33.2982 98.1978 32.7062C97.9908 32.1142 97.8978 31.4522 97.8978 30.7192C97.8978 29.9622 98.0038 29.2822 98.2178 28.6792C98.4318 28.0762 98.7238 27.5642 99.0958 27.1442C99.4552 26.7295 99.9042 26.4019 100.409 26.1862C100.922 25.9682 101.459 25.8582 102.049 25.8582C102.617 25.8534 103.18 25.9715 103.699 26.2042C104.202 26.4309 104.652 26.7603 105.021 27.1712C105.394 27.5852 105.683 28.0912 105.891 28.6882C106.099 29.2852 106.191 29.9452 106.191 30.6662L106.19 30.6672ZM104.345 30.7202C104.345 29.7622 104.145 29.0022 103.715 28.4402C103.285 27.8782 102.713 27.5972 101.968 27.5972C101.645 27.586 101.325 27.6575 101.038 27.8051C100.751 27.9527 100.506 28.1713 100.328 28.4402C99.9328 29.0032 99.7338 29.7442 99.7338 30.6672C99.7338 31.6972 99.9468 32.4792 100.374 33.0172C100.57 33.2762 100.825 33.4846 101.118 33.6249C101.412 33.7653 101.734 33.8336 102.059 33.8242C102.402 33.8242 102.715 33.7412 102.999 33.5762C103.285 33.4081 103.533 33.1815 103.726 32.9112C103.936 32.6127 104.093 32.2792 104.187 31.9262C104.293 31.5482 104.347 31.1462 104.347 30.7202H104.345ZM112.08 27.9882C111.882 27.8833 111.674 27.8002 111.459 27.7402C111.246 27.6802 110.986 27.6402 110.679 27.6402C110.099 27.6402 109.649 27.8402 109.331 28.2432C109.013 28.6462 108.851 29.2432 108.851 30.0352V35.3572H107.024V26.0432H108.851V26.9302C109.08 26.6083 109.38 26.3441 109.729 26.1582C110.112 25.9486 110.543 25.8418 110.98 25.8482C111.358 25.8482 111.68 25.8812 111.91 25.9462C112.14 26.0066 112.359 26.1057 112.557 26.2392L112.077 27.9792L112.08 27.9882Z" fill="#EF6639"/>
<path d="M115.148 24.778V28.025H118.714V29.852H115.148V35.369H113.285V22.95H121.285V24.777L115.148 24.778ZM121.588 35.368V23.394L123.415 22.436V35.37L121.588 35.368ZM132.748 30.668C132.748 31.438 132.641 32.126 132.428 32.735C132.215 33.344 131.918 33.859 131.541 34.278C131.173 34.6907 130.718 35.0177 130.21 35.236C129.7 35.456 129.146 35.564 128.542 35.564C127.952 35.564 127.407 35.449 126.91 35.218C126.413 34.987 125.982 34.658 125.615 34.233C125.248 33.808 124.962 33.299 124.755 32.707C124.548 32.115 124.455 31.453 124.455 30.72C124.455 29.963 124.561 29.283 124.775 28.68C124.989 28.077 125.281 27.565 125.653 27.145C126.025 26.725 126.453 26.405 126.966 26.187C127.479 25.969 128.016 25.859 128.606 25.859C129.196 25.859 129.746 25.974 130.256 26.205C130.759 26.4317 131.21 26.7611 131.578 27.172C131.951 27.586 132.24 28.092 132.448 28.689C132.656 29.286 132.748 29.947 132.748 30.668ZM130.903 30.721C130.903 29.763 130.703 29.003 130.273 28.441C129.843 27.879 129.271 27.598 128.526 27.598C127.828 27.598 127.281 27.878 126.886 28.441C126.491 29.004 126.292 29.745 126.292 30.668C126.292 31.698 126.505 32.48 126.932 33.018C127.128 33.277 127.384 33.4854 127.677 33.6258C127.97 33.7661 128.292 33.8345 128.617 33.825C128.947 33.8286 129.272 33.7429 129.557 33.577C129.844 33.409 130.091 33.1824 130.284 32.912C130.484 32.634 130.639 32.306 130.744 31.927C130.849 31.548 130.903 31.147 130.903 30.721ZM141.76 35.369H140.2L138.94 30.669L138.665 29.579L138.461 28.683L138.257 29.588L137.982 30.688L136.74 35.372H135.18L132.625 26.058H134.425L135.525 30.582L135.791 31.7L135.986 32.623L136.216 31.7L136.5 30.582L137.742 26.058H139.215L140.475 30.6L140.75 31.71L140.972 32.624L141.176 31.694L141.433 30.584L142.533 26.06H144.333L141.76 35.369Z" fill="#A6A7A9"/>
</svg>
