<svg width="110" height="55" viewBox="0 0 110 55" fill="none" xmlns="http://www.w3.org/2000/svg">
<path d="M77 21.1201C77.1743 21.0923 77.3671 21.0558 77.4128 21.0286C77.4585 21.0101 77.9171 21.0101 78.4213 21.0373C78.925 21.0558 79.4663 21.1108 79.6128 21.1565C79.8785 21.2301 79.8878 21.2573 79.8785 21.7343C79.8785 22.0093 79.8421 22.3851 79.75 22.9165L78.9985 22.8523C78.43 22.8065 78.1643 22.8251 77.935 22.9258C77.7063 23.0173 77.605 23.1365 77.5413 23.3751C77.495 23.5493 77.4585 23.9708 77.4585 24.933H79.7963L79.7321 25.2729C79.695 25.4644 79.6585 25.8593 79.6585 26.6751H77.4585V33.7336H75.2585V26.7665H73.8835V25.0251H75.2585L75.2863 23.8973C75.3043 22.9073 75.3413 22.7243 75.5521 22.2751C75.7263 21.9086 75.9093 21.688 76.2393 21.468C76.4778 21.303 76.8263 21.1473 77 21.1201ZM39.875 23.7415V21.7251H48.95V23.7415H45.5585V33.8251H43.2671V23.7415H39.875ZM98.175 25.0615C98.5973 24.9609 99.0262 24.8905 99.4585 24.8508C99.8343 24.8137 100.293 24.8236 100.467 24.8601C100.641 24.8971 100.879 24.9973 100.999 25.0708C101.109 25.1443 101.292 25.3273 101.411 25.483C101.613 25.7487 101.622 25.7487 101.888 25.6023C102.044 25.5201 102.392 25.3736 102.667 25.2815C102.942 25.1901 103.446 25.0436 103.794 24.9787C104.208 24.8964 104.628 24.8505 105.05 24.8415C105.399 24.8415 105.829 24.8971 105.994 24.9701C106.15 25.0343 106.398 25.2086 106.535 25.3551C106.673 25.5015 106.856 25.8043 106.948 26.033C107.085 26.4001 107.113 26.8673 107.159 33.8251H104.959V30.6808C104.959 28.3801 104.922 27.4908 104.839 27.3258C104.776 27.2001 104.685 27.0902 104.574 27.0044C104.454 26.9315 104.234 26.9315 103.749 27.023C103.382 27.0873 102.823 27.2615 101.934 27.6836V33.8251H99.7335V30.7723C99.7335 28.9665 99.6971 27.6008 99.6421 27.408C99.5871 27.2343 99.495 27.0601 99.4313 27.023C99.3763 26.9865 99.1743 26.9501 99 26.9501C98.8263 26.9501 98.45 27.0143 98.175 27.0873C97.9 27.1608 97.4513 27.3073 96.7085 27.5915V33.8251H94.5085V24.933H96.1585L96.25 25.3001C96.2963 25.5015 96.3693 25.6665 96.415 25.6665C96.4521 25.6665 96.7271 25.5658 97.0293 25.4379C97.3321 25.318 97.845 25.1536 98.175 25.0615Z" fill="black"/>
<path d="M48.3546 25.4098C48.6292 25.246 48.9215 25.1137 49.2259 25.0156C49.5646 24.9056 50.0416 24.8506 50.6924 24.8413C51.3246 24.8413 51.8294 24.887 52.1588 24.9878C52.4338 25.0706 52.8281 25.2535 53.0302 25.3913C53.2316 25.5198 53.4974 25.7763 53.6253 25.9506C53.7446 26.1248 53.9281 26.5098 54.0196 26.812C54.1481 27.2063 54.2124 27.7748 54.3131 30.2498H49.3174V30.7078C49.3174 30.9556 49.3816 31.3134 49.4546 31.487C49.5374 31.6798 49.7116 31.872 49.8946 31.9548C50.0503 32.037 50.5002 32.1291 50.8753 32.147C51.3066 32.1748 51.8931 32.1378 52.4338 32.037C52.9103 31.9548 53.4053 31.872 53.5246 31.872C53.7353 31.8535 53.7631 31.8998 53.9096 32.6328C53.9924 33.0641 54.0474 33.4306 54.0196 33.4584C53.9924 33.4856 53.5888 33.5956 53.1303 33.7148C52.6724 33.8248 51.8653 33.9435 51.3338 33.9806C50.7381 34.0177 50.1331 33.9898 49.7296 33.9256C49.3631 33.8613 48.8496 33.687 48.5474 33.522C48.2446 33.357 47.8874 33.082 47.7403 32.9084C47.5938 32.7341 47.3924 32.3213 47.2916 31.9913C47.1266 31.4506 47.1081 31.1941 47.1353 29.2413C47.1631 27.417 47.1909 27.032 47.3281 26.7206C47.4461 26.4716 47.5839 26.2325 47.7403 26.0056C47.9146 25.7779 48.1216 25.5771 48.3546 25.4098ZM58.1631 25.6027C58.506 25.4061 58.8578 25.2255 59.2174 25.0613C59.4924 24.942 59.7766 24.8506 59.8403 24.8413C59.9144 24.8413 59.9688 25.052 60.0053 25.5013C60.0331 25.8678 60.0794 26.317 60.0974 26.4913C60.1524 26.8034 60.1344 26.8213 59.7031 27.0228C59.4646 27.142 58.9424 27.4356 57.8424 28.0956V33.8242H55.5503L55.5966 24.9791H57.4296L57.6131 25.9234L58.1631 25.6027ZM63.5716 25.6027C63.9143 25.406 64.2659 25.2254 64.6253 25.0613C64.9003 24.942 65.1846 24.8506 65.2488 24.8413C65.3224 24.8413 65.3774 25.052 65.4138 25.5013C65.4416 25.8678 65.4874 26.317 65.5053 26.4913C65.5603 26.8034 65.5424 26.8213 65.1116 27.0228C64.8731 27.142 64.3503 27.4356 63.2503 28.0956V33.8242H60.9588L61.0046 24.9791H62.8381L63.0216 25.9234L63.5716 25.6027ZM66.7981 25.1163C67.0453 25.0613 67.4853 24.9791 67.7881 24.9328C68.0903 24.887 68.8974 24.8691 69.5753 24.8784C70.4374 24.9056 70.9416 24.9606 71.2253 25.0613C71.4545 25.1441 71.7846 25.3085 71.9588 25.4278C72.1331 25.547 72.3896 25.8406 72.5274 26.0884C72.6738 26.3448 72.8116 26.8034 72.8666 27.1791C72.9216 27.5363 72.9674 29.1678 72.9674 33.8248H71.1338L71.0696 33.5498C71.0238 33.3941 70.9503 33.2748 70.9046 33.2748C70.8588 33.2748 70.7303 33.3391 70.6296 33.4213C70.5288 33.4948 70.1803 33.6413 69.8503 33.7513C69.4196 33.8978 69.0346 33.9534 68.4296 33.962C67.7516 33.962 67.5403 33.9256 67.2381 33.7606C67.0366 33.6598 66.7796 33.467 66.6696 33.3484C66.5596 33.2384 66.3766 32.9263 66.2666 32.6791C66.0924 32.3034 66.0553 32.0648 66.0553 31.3498C66.0553 30.6898 66.1016 30.3784 66.2388 30.0663C66.3396 29.8377 66.5781 29.5348 66.7796 29.3791C66.9996 29.2048 67.3388 29.0578 67.6874 28.9941C67.9988 28.9298 68.7966 28.8748 70.6753 28.8748V28.1413C70.6753 27.7384 70.6203 27.307 70.5566 27.1791C70.5016 27.0506 70.2903 26.8856 70.0981 26.812C69.8874 26.7298 69.4474 26.6748 68.9616 26.6748C68.4775 26.6795 67.994 26.7101 67.5131 26.7663C67.1553 26.8219 66.8074 26.8856 66.7338 26.9041C66.6238 26.9406 66.5688 26.7941 66.4774 26.2441C66.4224 25.8498 66.3674 25.4556 66.3674 25.3641C66.3674 25.2541 66.4866 25.18 66.7981 25.1163ZM81.8588 25.2541C82.1066 25.1256 82.4731 24.9884 82.6653 24.9328H82.6566C82.8488 24.887 83.5638 24.8598 84.2424 24.8784C85.2416 24.8969 85.5803 24.942 85.9838 25.0978C86.2588 25.2078 86.6716 25.4463 86.8916 25.6391C87.1296 25.8492 87.3953 26.2163 87.8631 27.1791V29.3334C87.8631 31.1206 87.8353 31.5698 87.7074 31.9456C87.6245 32.1928 87.3681 32.6056 87.1481 32.862C86.8824 33.1648 86.5616 33.4034 86.2038 33.5678C85.9103 33.7056 85.3516 33.8706 84.9753 33.9256C84.4624 34.0078 84.0774 34.017 83.4631 33.9348C83.0046 33.8891 82.4088 33.7606 82.1338 33.6598C81.8403 33.5498 81.4553 33.302 81.2081 33.0728C80.9788 32.8534 80.7131 32.532 80.6303 32.3578C80.5388 32.1841 80.4016 31.7713 80.3374 31.4413C80.2638 31.0934 80.2088 30.2591 80.2088 29.4248C80.2088 28.6456 80.2546 27.7563 80.3096 27.4535C80.3646 27.1513 80.4838 26.7391 80.5845 26.537C80.6766 26.3356 80.8966 26.0148 81.0796 25.822C81.2538 25.6391 81.6024 25.3827 81.8588 25.2541ZM91.6946 25.5656C91.9603 25.4098 92.4095 25.1806 92.6846 25.0613C92.9596 24.942 93.2438 24.8506 93.3081 24.8413C93.3903 24.8413 93.4453 24.9878 93.4638 25.272C93.4824 25.5192 93.5281 25.9598 93.6196 26.812L93.1796 27.0228C92.9324 27.142 92.4096 27.4263 91.3096 28.0956V33.8242L89.0638 33.7791V24.9785L90.9431 24.9322L91.0074 25.3907C91.0531 25.6478 91.1081 25.8492 91.1446 25.8492C91.1903 25.8492 91.4381 25.7213 91.6946 25.5656Z" fill="black"/>
<path d="M2.8418 20.3042V14.1899C2.8418 10.8164 2.86899 8.06641 2.91472 8.06641C2.9518 8.06641 5.30753 9.40495 8.15826 11.0549C11.009 12.6957 13.3925 14.0892 13.4568 14.1442C13.5483 14.2357 13.5754 15.4729 13.5668 20.3221C13.5668 25.3821 13.5483 26.3999 13.4383 26.3721C13.374 26.3635 10.9633 24.9885 2.8418 20.3042ZM14.6668 27.1786V21.0649C14.6668 17.6914 14.694 14.9414 14.7397 14.9414C14.7768 14.9414 17.0318 16.2157 19.754 17.7921C22.4768 19.3599 24.8597 20.7442 25.3918 21.0835V27.1792C25.3918 32.9449 25.3825 33.2749 25.2361 33.2199C25.144 33.1921 22.7333 31.8258 14.6668 27.1786ZM14.6668 40.8285V34.7142C14.6668 31.3407 14.694 28.5907 14.7397 28.5907C14.7768 28.5907 17.1325 29.9292 19.9833 31.5792C22.834 33.2199 25.2175 34.6135 25.2818 34.6685C25.3733 34.7599 25.4005 35.9971 25.3918 40.8464C25.3918 46.5936 25.3825 46.9242 25.2361 46.8692C25.144 46.8414 22.7333 45.4757 14.6668 40.8285Z" fill="#5C4EE5"/>
<path d="M26.6019 21.0192C26.6662 20.9636 29.0491 19.5707 31.9005 17.9293C34.7512 16.2892 37.1069 14.9414 37.1434 14.9414C37.1891 14.9414 37.2169 17.6914 37.2169 27.1792L31.9734 30.2042C29.0955 31.8635 26.6841 33.2385 26.6112 33.257C26.5105 33.2749 26.4919 32.2392 26.4919 27.207C26.4827 22.3485 26.5105 21.1107 26.6019 21.0192Z" fill="#4040B2"/>
<path d="M49.8217 26.8305C49.9224 26.7755 50.1059 26.7026 50.2338 26.6656C50.3624 26.6198 50.6646 26.6105 50.921 26.6291C51.1688 26.6563 51.4803 26.7484 51.6088 26.8398C51.7374 26.9405 51.8931 27.1148 51.9481 27.2341C52.0124 27.3534 52.0674 27.6741 52.0674 28.4163H49.3174V28.0041C49.3174 27.7754 49.3903 27.4448 49.4731 27.2613C49.5646 27.0784 49.7203 26.8855 49.8217 26.8305ZM82.6103 27.3441C82.7116 27.1606 82.9316 26.9684 83.1696 26.8584H83.1603C83.4724 26.7113 83.6924 26.6748 84.1966 26.6934C84.5996 26.7205 84.9296 26.7848 85.0853 26.8855C85.2324 26.9684 85.4153 27.1513 85.4981 27.2891C85.6353 27.4998 85.6631 27.802 85.6903 29.2876C85.7088 30.8184 85.6996 31.0655 85.5531 31.3405C85.4617 31.5148 85.2874 31.7348 85.1588 31.8355C85.0031 31.9455 84.7096 32.0191 84.2881 32.0556C83.7567 32.1019 83.5731 32.0741 83.2067 31.9091C82.9224 31.7805 82.7203 31.6155 82.6103 31.4234C82.4824 31.1669 82.4546 30.8641 82.4546 29.3791C82.4546 27.8941 82.4824 27.5919 82.6103 27.3441ZM68.3567 30.7355C68.4296 30.6255 68.5853 30.5156 68.6953 30.4976C68.8053 30.4698 69.3096 30.4605 70.7303 30.4791L70.7767 31.8077L70.2724 31.9919C69.9176 32.1104 69.5464 32.1722 69.1724 32.1748C68.6953 32.1748 68.5396 32.1377 68.3931 31.9919C68.2646 31.8634 68.2096 31.6891 68.2096 31.3776C68.2096 31.1206 68.2646 30.8548 68.3567 30.7355Z" fill="white"/>
</svg>
