<svg width="97" height="29" viewBox="0 0 97 29" fill="none" xmlns="http://www.w3.org/2000/svg">
<path fill-rule="evenodd" clip-rule="evenodd" d="M21.4626 5.76807C19.5399 7.36287 17.6321 8.95765 15.7094 10.5524C15.7094 10.5674 15.7243 10.5674 15.7243 10.5823C18.7351 10.0308 21.7458 9.49422 24.8012 8.94275C23.6834 7.88453 22.5805 6.84121 21.4626 5.76807ZM13.6824 10.2842C15.7094 8.58504 17.7365 6.90082 19.7933 5.18679C14.5469 4.218 9.33027 3.2641 4.12857 2.29531C4.12857 2.31021 4.11367 2.32512 4.11367 2.34002C7.30325 4.97813 10.4928 7.63115 13.6824 10.2842ZM24.533 10.5972C24.533 10.5823 24.518 10.5674 24.518 10.5524C24.3243 10.5823 24.1156 10.627 23.9219 10.6568C20.8217 11.2232 17.7216 11.7746 14.6214 12.3261C14.4873 12.3559 14.4425 12.4155 14.4276 12.5497C14.3978 12.9074 14.3531 13.2651 14.3084 13.6079C14.1743 14.7704 14.0252 15.9181 13.8911 17.0807C13.7569 18.2283 13.6228 19.376 13.4737 20.5385C13.3247 21.7905 13.1757 23.0276 13.0266 24.2796C13.0117 24.3839 13.0117 24.5031 12.9968 24.6075C13.0117 24.6075 13.0266 24.6224 13.0266 24.6224C16.8571 19.9423 20.6876 15.2623 24.533 10.5972ZM3.04054 3.41315C3.02563 3.41315 3.01073 3.42806 2.99582 3.42806C5.79788 10.4779 8.59995 17.5278 11.402 24.5777C11.4467 24.5479 11.4467 24.518 11.4616 24.4882C11.566 23.6387 11.6703 22.7891 11.7746 21.9395C11.9088 20.7919 12.0578 19.6442 12.192 18.5115C12.3261 17.3638 12.4602 16.2162 12.6093 15.0834C12.7434 14.0103 12.8627 12.9372 12.9968 11.8641C13.0117 11.7299 12.967 11.6405 12.8627 11.566C10.0457 9.24084 7.24363 6.90082 4.44157 4.57571C3.96462 4.18819 3.50258 3.80067 3.04054 3.41315ZM27.4841 9.38989C22.1333 15.9032 16.8124 22.3867 11.4765 28.9C7.64605 19.2567 3.83048 9.65817 0 0C0.342806 0.0596184 0.655802 0.119236 0.968798 0.178855C2.9213 0.536565 4.8589 0.894274 6.8114 1.25198C8.80861 1.6246 10.8058 1.98231 12.8179 2.35492C14.9493 2.74244 17.0956 3.14487 19.2269 3.53239C20.0616 3.68143 20.8813 3.84538 21.716 3.99443C21.7905 4.00933 21.8799 4.05405 21.9396 4.09876C23.6983 5.76807 25.4719 7.45229 27.2307 9.13651C27.2903 9.22594 27.3797 9.30046 27.4841 9.38989Z" fill="#E5172C"/>
<path fill-rule="evenodd" clip-rule="evenodd" d="M72.7491 13.3844C72.153 13.3844 71.676 13.8465 71.6611 14.4426C71.6611 15.0537 72.1231 15.5307 72.7342 15.5307C73.3453 15.5307 73.8223 15.0686 73.8223 14.4575C73.8223 13.8614 73.3453 13.3844 72.7491 13.3844ZM87.7431 15.5307C87.2662 14.9941 86.7893 14.4724 86.3123 13.9359C86.2974 13.9061 86.2676 13.8912 86.2229 13.8614V21.9545H87.8326C87.8326 21.8949 87.8326 21.8502 87.8326 21.8204C87.8326 19.8083 87.8326 17.7962 87.8326 15.784C87.8326 15.6797 87.7879 15.5903 87.7431 15.5307ZM40.123 21.9396H41.7029V11.4468H40.123V21.9396ZM37.2017 21.9396H38.7816V11.4468H37.2017V21.9396ZM32.9092 8.57023H46.0103V6.99034H32.9092V8.57023ZM72.7491 20.3299C69.4999 20.3299 66.8618 17.6918 66.8618 14.4575C66.8618 11.2232 69.4999 8.58513 72.7342 8.58513C75.9983 8.58513 78.6216 11.2232 78.6216 14.5172C78.6216 17.6918 75.9685 20.3299 72.7491 20.3299ZM72.8088 6.97544C68.6206 6.97544 65.2521 10.2992 65.2521 14.4575C65.2521 18.5563 68.6057 21.9545 72.6597 21.9545C76.8777 21.9545 80.2312 18.6457 80.2312 14.4724C80.2312 10.3439 76.8926 6.97544 72.8088 6.97544ZM94.7632 6.99034V18.6457C94.7483 18.6457 94.7334 18.6606 94.7185 18.6606C90.9178 14.4277 87.1023 10.2097 83.2867 5.94702V21.9396H84.8815V10.2097C88.7269 14.4874 92.5424 18.7203 96.3729 22.983V6.99034H94.7632ZM59.4692 15.8735C61.4366 15.1133 62.6289 13.1459 62.4203 11.0593C62.1818 8.74908 60.2144 6.97544 57.8744 6.97544C55.0872 6.97544 52.3 6.97544 49.5129 6.97544H49.334V21.9545H50.9139V8.61494C50.9735 8.61494 51.0033 8.61494 51.0481 8.61494C53.2987 8.61494 55.5641 8.61494 57.8147 8.61494C58.2917 8.61494 58.7388 8.70437 59.1562 8.91303C60.3783 9.52412 61.0341 10.9103 60.736 12.2368C60.4081 13.6229 59.2456 14.547 57.8446 14.547C56.056 14.547 54.2675 14.547 52.4789 14.547H52.2553V21.9545H53.8352V16.1865C53.9246 16.1865 53.9694 16.1716 54.029 16.1716C55.1468 16.1716 56.2647 16.1716 57.3825 16.1716C57.5316 16.1716 57.5912 16.2163 57.6657 16.3355C58.6345 18.1688 59.6033 20.002 60.5572 21.8353C60.6168 21.9396 60.6615 21.9695 60.7808 21.9695C61.3024 21.9695 61.8241 21.9695 62.3457 21.9695C62.3905 21.9695 62.4352 21.9545 62.4948 21.9545C61.4366 19.9424 60.3783 17.9601 59.3201 15.9629C59.3648 15.9182 59.4095 15.9033 59.4692 15.8735Z" fill="#010202"/>
</svg>
