<svg width="180" height="50" viewBox="0 0 180 50" fill="none" xmlns="http://www.w3.org/2000/svg">
<g clip-path="url(#clip0_594_3007)">
<mask id="mask0_594_3007" style="mask-type:luminance" maskUnits="userSpaceOnUse" x="24" y="7" width="36" height="36">
<path d="M24 7H60V43H24V7Z" fill="white"/>
</mask>
<g mask="url(#mask0_594_3007)">
<path d="M24 25V7H60V43H24" fill="#007ACC"/>
<path d="M31.8936 25.0635V26.5299H36.5736V39.8499H39.894V26.5299H44.574V25.0899C44.574 24.2799 44.574 23.6235 44.538 23.6049C44.538 23.5785 41.685 23.5689 38.22 23.5689L31.92 23.5959V25.0719L31.8936 25.0635ZM52.926 23.5599C53.844 23.7759 54.546 24.1899 55.176 24.8469C55.5096 25.2069 56.004 25.8369 56.04 25.9989C56.04 26.0529 54.4836 27.1059 53.538 27.6909C53.502 27.7179 53.358 27.5649 53.214 27.3309C52.746 26.6649 52.269 26.3769 51.522 26.3229C50.442 26.2509 49.722 26.8179 49.722 27.7629C49.722 28.0509 49.776 28.2129 49.884 28.4469C50.1276 28.9419 50.5776 29.2389 51.972 29.8509C54.546 30.9579 55.662 31.6869 56.337 32.7309C57.102 33.9009 57.273 35.7369 56.7606 37.1145C56.184 38.6169 54.7806 39.6345 52.773 39.9669C52.143 40.0749 50.703 40.0569 50.028 39.9405C48.588 39.6705 47.2116 38.9505 46.365 38.0229C46.032 37.6629 45.393 36.6999 45.429 36.6369L45.771 36.4209L47.121 35.6379L48.138 35.0439L48.372 35.3589C48.669 35.8269 49.3356 36.4569 49.722 36.6729C50.892 37.2765 52.458 37.1949 53.232 36.4929C53.5656 36.1869 53.709 35.8629 53.709 35.4129C53.709 34.9989 53.646 34.8099 53.439 34.4949C53.151 34.0989 52.575 33.7749 50.955 33.0549C49.092 32.2629 48.3 31.7589 47.562 30.9849C47.139 30.5169 46.752 29.7885 46.572 29.1849C46.437 28.6629 46.392 27.3849 46.518 26.8719C46.905 25.0719 48.264 23.8119 50.208 23.4519C50.838 23.3259 52.323 23.3799 52.944 23.5419L52.926 23.5599Z" fill="white"/>
</g>
</g>
<path d="M77.874 31H75.6621V22.2549H72.6079V20.4312H80.9355V22.2549H77.874V31ZM82.1001 33.9077C82.0269 33.9077 81.3604 33.9004 81.2944 33.8857V32.2378C81.3604 32.2524 81.7485 32.2524 81.8291 32.2524C82.6128 32.2524 83.001 32.0034 83.1475 31.3809C83.1475 31.3516 83.228 31.0366 83.2134 31.0073L80.4814 23.1484H82.8325L84.5024 29.2861H84.5391L86.209 23.1484H88.4648L85.7622 31.1758C85.0884 33.1899 84.1069 33.9077 82.1001 33.9077ZM93.8262 23.0239C95.8184 23.0239 97.0415 24.54 97.0415 27.0742C97.0415 29.6011 95.8257 31.1245 93.8628 31.1245C92.7202 31.1245 91.8413 30.5679 91.4238 29.6816H91.3799V33.5635H89.2412V23.1484H91.3506V24.5181H91.3945C91.8193 23.5952 92.6909 23.0239 93.8262 23.0239ZM93.1084 29.4033C94.1777 29.4033 94.8516 28.5024 94.8516 27.0742C94.8516 25.6533 94.1777 24.7378 93.1084 24.7378C92.061 24.7378 91.3726 25.668 91.3726 27.0742C91.3726 28.4951 92.061 29.4033 93.1084 29.4033ZM101.67 24.562C100.733 24.562 100.059 25.2725 99.9858 26.2539H103.318C103.274 25.2505 102.623 24.562 101.67 24.562ZM103.348 28.5977H105.311C105.076 30.1357 103.67 31.1685 101.729 31.1685C99.312 31.1685 97.8618 29.623 97.8618 27.1108C97.8618 24.606 99.3267 22.98 101.648 22.98C103.934 22.98 105.376 24.5254 105.376 26.9131V27.5649H99.9639V27.6968C99.9639 28.8174 100.674 29.5864 101.766 29.5864C102.549 29.5864 103.15 29.1982 103.348 28.5977ZM106.27 27.9897H108.401C108.504 28.8613 109.412 29.4326 110.584 29.4326C111.763 29.4326 112.569 28.8687 112.569 28.0923C112.569 27.4038 112.063 27.0229 110.789 26.7373L109.412 26.437C107.464 26.0195 106.504 25.0308 106.504 23.4854C106.504 21.5371 108.189 20.248 110.547 20.248C113.008 20.248 114.554 21.5151 114.59 23.4268H112.518C112.444 22.5332 111.661 21.9912 110.555 21.9912C109.463 21.9912 108.731 22.5112 108.731 23.2949C108.731 23.9468 109.244 24.313 110.459 24.5913L111.741 24.8623C113.858 25.3164 114.781 26.2246 114.781 27.8359C114.781 29.8867 113.118 31.1831 110.496 31.1831C107.955 31.1831 106.336 29.9746 106.27 27.9897ZM123.094 26.0708H121.109C120.984 25.2432 120.435 24.6572 119.556 24.6572C118.501 24.6572 117.842 25.5508 117.842 27.0669C117.842 28.6123 118.501 29.4912 119.563 29.4912C120.42 29.4912 120.977 28.9785 121.109 28.1216H123.101C122.991 29.9746 121.607 31.1685 119.542 31.1685C117.176 31.1685 115.674 29.6304 115.674 27.0669C115.674 24.5474 117.176 22.98 119.527 22.98C121.651 22.98 122.999 24.291 123.094 26.0708ZM124.134 31V23.1484H126.199V24.562H126.243C126.521 23.5659 127.188 23.0239 128.111 23.0239C128.36 23.0239 128.572 23.0605 128.719 23.1045V24.9868C128.543 24.9136 128.25 24.8623 127.942 24.8623C126.888 24.8623 126.272 25.5068 126.272 26.6128V31H124.134ZM129.634 31V23.1484H131.773V31H129.634ZM130.704 22.2842C130.059 22.2842 129.561 21.7935 129.561 21.1782C129.561 20.5557 130.059 20.0723 130.704 20.0723C131.348 20.0723 131.846 20.5557 131.846 21.1782C131.846 21.7935 131.348 22.2842 130.704 22.2842ZM137.786 23.0239C139.778 23.0239 141.001 24.54 141.001 27.0742C141.001 29.6011 139.786 31.1245 137.823 31.1245C136.68 31.1245 135.801 30.5679 135.384 29.6816H135.34V33.5635H133.201V23.1484H135.311V24.5181H135.354C135.779 23.5952 136.651 23.0239 137.786 23.0239ZM137.068 29.4033C138.138 29.4033 138.812 28.5024 138.812 27.0742C138.812 25.6533 138.138 24.7378 137.068 24.7378C136.021 24.7378 135.333 25.668 135.333 27.0742C135.333 28.4951 136.021 29.4033 137.068 29.4033ZM142.679 21.3394H144.817V23.1484H146.268V24.7598H144.817V28.5171C144.817 29.1177 145.11 29.4033 145.74 29.4033C145.931 29.4033 146.128 29.3887 146.26 29.3667V30.9414C146.041 30.9927 145.674 31.0293 145.242 31.0293C143.396 31.0293 142.679 30.4141 142.679 28.8833V24.7598H141.573V23.1484H142.679V21.3394Z" fill="black"/>
<defs>
<clipPath id="clip0_594_3007">
<rect width="36" height="36" fill="white" transform="translate(24 7)"/>
</clipPath>
</defs>
</svg>