<svg width="86" height="30" viewBox="0 0 86 30" fill="none" xmlns="http://www.w3.org/2000/svg">
<g clip-path="url(#clip0_337_2877)">
<path d="M12.2927 9.13273C9.46974 4.26195 7.14746 0.207563 7.14746 0.138375C7.14746 0.0553501 8.30167 0 13.4747 0L15.491 3.45938C16.6036 5.36896 17.5353 6.91876 17.577 6.91876C17.6187 6.91876 18.5365 5.35512 21.6097 0H24.8081C26.5742 0 28.0343 0.0415126 28.0621 0.1107C28.09 0.16605 25.7538 4.20661 22.8752 9.10507C19.9966 13.9897 17.6048 17.9888 17.5491 17.9888C17.4796 17.9888 15.1156 14.0036 12.2927 9.13273Z" fill="#35495E"/>
<path d="M79.8063 11.4299C80.0293 11.2777 80.4739 11.0701 80.78 10.9871C81.0861 10.8902 81.7675 10.8072 82.3098 10.8072C82.852 10.7933 83.5888 10.8764 83.978 10.9871C84.3541 11.0978 84.8402 11.3192 85.0494 11.4714C85.2717 11.6374 85.4386 11.8727 85.4386 11.9972C85.4524 12.1356 85.3271 12.3985 84.9102 12.9382L84.0342 12.6337C83.5473 12.4677 82.9489 12.2878 82.7267 12.2463C82.5044 12.2048 82.0314 12.2325 81.6837 12.3017C81.2807 12.3847 80.9192 12.5922 80.6823 12.8551C80.4324 13.118 80.2931 13.4363 80.2931 13.6992C80.2931 13.9345 80.3624 14.2389 80.4324 14.3911C80.5016 14.5433 80.8077 14.7786 81.0861 14.9308C81.3776 15.0691 82.1152 15.3182 82.7267 15.4843C83.3389 15.6503 84.0895 15.9409 84.3956 16.1347C84.7017 16.3283 85.1048 16.702 85.2994 16.9788C85.5494 17.3524 85.6609 17.7121 85.6886 18.321C85.7301 18.8606 85.6609 19.3588 85.5217 19.7186C85.4109 20.023 85.1602 20.4105 84.9933 20.5765C84.8125 20.7425 84.3956 21.0055 84.048 21.1577C83.7004 21.3099 83.0743 21.4759 82.6574 21.5313C82.2398 21.5728 81.4614 21.5451 80.9192 21.4621C80.3485 21.3652 79.6394 21.13 79.2087 20.8948C78.6941 20.5903 78.4573 20.3689 78.4019 20.0922C78.3603 19.8846 78.388 19.5802 78.4718 19.4003C78.5549 19.2342 78.7218 19.0959 78.8333 19.0959C78.9441 19.0959 79.4033 19.2896 79.834 19.5387C80.4047 19.8431 80.8769 19.9953 81.4753 20.0369C81.9344 20.0783 82.5321 20.0645 82.7966 20.023C83.0605 19.9676 83.4635 19.76 83.6727 19.5525C83.9642 19.2619 84.0618 19.0406 84.048 18.6392C84.048 18.2518 83.9365 18.0165 83.6027 17.6568C83.2412 17.297 82.8243 17.0895 81.6837 16.7435C80.8769 16.4944 79.987 16.1208 79.6817 15.9271C79.3894 15.7334 79.0279 15.332 78.8887 15.0415C78.7357 14.7648 78.6242 14.2389 78.6242 13.8653C78.6242 13.4225 78.7495 12.9797 79.0002 12.4677C79.2225 12.0526 79.584 11.596 79.8063 11.4299Z" fill="#010101"/>
<path d="M8.66377 15.0829C3.86621 6.90492 -0.0413871 0.16605 0.000330965 0.1107C0.042049 0.0415126 1.66906 0 3.60199 0C5.86868 0 7.14803 0.0553501 7.14803 0.138375C7.14803 0.207563 9.47035 4.26196 12.2933 9.13273C15.1301 14.0036 17.4802 17.9888 17.5498 17.9888C17.6054 17.9888 19.9972 14.0036 22.8619 9.1189C25.7265 4.23428 28.0627 0.193725 28.0349 0.124538C28.021 0.0553501 29.5089 0 31.4836 0C33.6668 0 34.9879 0.0553501 35.0296 0.138375C35.0713 0.207563 34.682 0.982463 34.1814 1.82655C33.6668 2.68448 32.3736 4.91232 31.275 6.78039C30.1903 8.64849 27.0337 14.059 24.2524 18.819C21.4712 23.5791 18.8708 28.0487 18.4676 28.7543C18.0504 29.4462 17.6471 30.0136 17.5637 29.9998C17.4802 29.972 13.4753 23.2609 8.66377 15.0829Z" fill="#41B883"/>
<path d="M59.95 15.9134C59.936 16.7851 59.9082 16.1348 59.9082 14.4605C59.9082 12.7861 59.936 12.0666 59.95 12.8692C59.9777 13.6717 59.9777 15.0416 59.95 15.9134Z" fill="#35495E"/>
<path fill-rule="evenodd" clip-rule="evenodd" d="M41.009 5.32716L42.9558 11.817C44.0266 15.387 44.9583 18.3344 45.0417 18.3621C45.1252 18.3898 46.0429 15.5254 47.0998 12.0107C48.1706 8.48214 49.1023 5.52089 49.1857 5.42402C49.283 5.32716 49.5473 5.24414 49.7698 5.24414C49.9922 5.25798 50.326 5.35484 50.4929 5.46554C50.6737 5.57624 50.8127 5.7838 50.8127 5.92218C50.8127 6.04671 49.7837 9.49226 48.5182 13.5605C47.2249 17.7256 46.1125 21.0742 45.9734 21.2127C45.8204 21.3787 45.5284 21.4617 45.1112 21.4478C44.7636 21.4478 44.3743 21.3787 44.249 21.2818C44.0961 21.1573 43.1783 18.4313 41.6347 13.5328C40.3415 9.35389 39.2568 5.8945 39.2568 5.82531C39.2429 5.74229 39.382 5.59008 39.5628 5.46554C39.7714 5.341 40.119 5.25798 41.009 5.32716ZM75.8989 5.94985C76.1358 5.93601 76.4973 6.06055 76.7057 6.2266C76.9557 6.39265 77.0949 6.62789 77.0949 6.84929C77.0949 7.04301 77.0395 7.30593 76.9703 7.44428C76.9142 7.56882 76.6365 7.76257 76.3858 7.87328C75.9828 8.02548 75.8574 8.02548 75.5098 7.87328C75.2875 7.76257 75.0506 7.56882 74.9952 7.44428C74.926 7.30593 74.856 7.05685 74.8422 6.8908C74.8283 6.72475 74.9675 6.448 75.1483 6.26811C75.3429 6.07439 75.649 5.94985 75.8989 5.94985ZM65.9286 10.793C66.4709 10.793 67.0828 10.8898 67.5278 11.0697C67.931 11.2081 68.5151 11.5541 68.8211 11.8031C69.127 12.066 69.5441 12.578 69.7527 12.9516C69.9614 13.3252 70.17 13.9479 70.2116 14.3215C70.2673 14.709 70.2395 15.2763 70.156 15.6085C70.0447 16.0374 69.8918 16.245 69.5859 16.3972C69.2522 16.5633 68.5707 16.6047 63.3281 16.6047V17.2689C63.3281 17.6287 63.4533 18.1822 63.6063 18.5144C63.7732 18.8464 64.093 19.2338 64.3989 19.4276C64.691 19.6214 65.2333 19.8427 65.6227 19.9396C66.012 20.0365 66.5822 20.0641 66.9437 20.0088C67.2914 19.9534 67.9171 19.7597 68.3343 19.566C68.7515 19.3861 69.1965 19.2338 69.3078 19.2338C69.419 19.2338 69.6276 19.3445 69.7666 19.4829C69.9057 19.6075 70.017 19.8289 70.0031 19.9672C70.0031 20.0918 69.7945 20.3962 69.5441 20.6315C69.3078 20.8529 68.7793 21.1573 68.4038 21.2818C67.931 21.434 67.2774 21.5032 66.3875 21.5032C65.4002 21.4894 64.8717 21.4202 64.3016 21.1988C63.8844 21.0466 63.2309 20.6453 62.8554 20.3132C62.4799 19.9811 62.0488 19.4691 61.882 19.1647C61.6316 18.6804 61.5899 18.3206 61.5482 16.4664C61.5204 15.221 61.5621 14.114 61.6455 13.8372C61.7151 13.5743 61.9653 13.0762 62.2018 12.7302C62.4243 12.3843 62.8831 11.9138 63.2169 11.6786C63.5367 11.4295 64.093 11.1389 64.4406 11.0283C64.7883 10.9037 65.4558 10.8068 65.9286 10.793ZM63.8288 13.3252C63.6202 13.602 63.5228 13.9617 63.495 14.5429L63.4672 15.3594C66.9716 15.3594 68.0701 15.304 68.1675 15.2487C68.3065 15.1795 68.3482 14.9442 68.3065 14.46C68.2787 14.0725 68.1257 13.5881 67.9728 13.3529C67.8059 13.1177 67.4027 12.7994 67.0689 12.6334C66.7351 12.4535 66.2067 12.3151 65.9008 12.3151C65.5809 12.3151 65.0664 12.4535 64.7326 12.6334C64.3989 12.7994 63.9957 13.1177 63.8288 13.3252ZM51.9947 10.9452C52.2172 10.9452 52.5232 11.0421 52.6623 11.1805C52.8848 11.388 52.9125 11.7201 52.8986 14.5706C52.8986 17.1029 52.9404 17.8086 53.1211 18.2375C53.2324 18.5144 53.4688 18.9018 53.6357 19.0678C53.8026 19.2477 54.178 19.5245 54.4561 19.6628C54.7481 19.8012 55.207 19.9257 55.4712 19.9257C55.7354 19.9257 56.1248 19.8566 56.3334 19.7735C56.5559 19.7043 56.9314 19.4276 57.1956 19.1924C57.4459 18.9433 57.7518 18.542 57.8491 18.3068C58.0021 17.9608 58.0439 17.0614 58.0439 14.5983C58.0439 11.3741 58.0439 11.3465 58.3498 11.1389C58.5306 11.0283 58.8643 10.9314 59.0868 10.9314C59.3093 10.9314 59.5874 11.0005 59.6848 11.0974C59.8099 11.2358 59.8516 12.1353 59.8516 14.8058C59.8516 18.2653 59.8516 18.3483 59.5179 19.0263C59.3232 19.4138 58.8782 19.995 58.5027 20.327C58.1412 20.673 57.5572 21.0742 57.2095 21.2265C56.7506 21.434 56.2917 21.5032 55.4712 21.5032C54.623 21.5032 54.2058 21.434 53.733 21.1988C53.3854 21.0327 52.8569 20.7006 52.551 20.4377C52.2312 20.1748 51.8001 19.5936 51.0909 18.1961L51.063 14.709C51.0492 11.4019 51.063 11.2081 51.3134 11.0836C51.4524 11.0005 51.7722 10.9452 51.9947 10.9452ZM75.9551 10.9314C76.275 10.9176 76.5665 11.0144 76.7196 11.1666C76.9419 11.4019 76.9557 11.8308 76.9142 17.5734C76.8726 23.5235 76.8726 23.7587 76.5804 24.4921C76.4135 24.9073 76.0658 25.4469 75.8159 25.696C75.5651 25.9312 75.1898 26.208 74.9675 26.2772C74.7591 26.3602 74.3415 26.4294 74.0361 26.4294C73.73 26.4294 73.3547 26.3741 73.2016 26.291C73.007 26.1941 72.9232 26.0143 72.9232 25.7098C72.9232 25.4607 72.9932 25.1702 73.0901 25.0871C73.1878 24.9903 73.3962 24.9073 73.5769 24.9073C73.7577 24.9073 74.0915 24.8104 74.3138 24.6997C74.5783 24.5752 74.7868 24.3261 74.8699 24.0494C74.9537 23.7587 75.0091 21.3095 74.9952 17.5734C74.9814 12.1767 75.0091 11.5125 75.2175 11.2358C75.3706 11.0144 75.5936 10.9314 75.9551 10.9314ZM72.3671 19.2338C72.6313 19.2338 72.9094 19.3584 73.1316 19.5798C73.3685 19.815 73.4793 20.0779 73.4793 20.3824C73.4793 20.6453 73.3547 20.9497 73.1601 21.1435C72.9509 21.351 72.7008 21.4478 72.3671 21.4478C72.0612 21.4478 71.7691 21.3233 71.5605 21.1296C71.352 20.9359 71.2546 20.673 71.2546 20.3686C71.2685 20.0779 71.3936 19.7874 71.6022 19.5798C71.8108 19.3584 72.0889 19.2338 72.3671 19.2338Z" fill="#010101"/>
<path fill-rule="evenodd" clip-rule="evenodd" d="M52.4123 10.8628L52.7322 11.1395C53.052 11.4163 53.052 11.4301 52.9685 17.9199L52.9269 14.6681C52.899 11.8314 52.8573 11.3748 52.6487 11.1395L52.4123 10.8628ZM51.0634 12.9384C51.0773 13.8517 51.0773 15.3738 51.0634 16.3286C51.0357 17.2834 51.0078 16.5362 51.0078 14.6681C51.0078 12.8 51.0357 12.0251 51.0634 12.9384ZM58.0164 13.0076C58.0304 13.8793 58.0304 15.3738 58.0164 16.3286C57.9886 17.2834 57.9608 16.5638 57.9608 14.7373C57.9608 12.9107 57.9886 12.1358 58.0164 13.0076ZM61.493 15.2216C61.5069 15.7889 61.5069 16.7022 61.493 17.2281C61.4651 17.7539 61.4374 17.2972 61.4374 16.1902C61.4374 15.0832 61.4651 14.6543 61.493 15.2216ZM69.2386 16.6745L63.4676 16.7437L63.4398 17.4079C63.4259 18.0444 63.4259 18.0444 63.3703 17.5048C63.3425 17.2003 63.3564 16.8683 63.3842 16.7714C63.4398 16.6469 64.1491 16.6192 69.2386 16.6745ZM72.4092 19.1099C72.6595 19.0961 72.9237 19.2345 73.2022 19.5112C73.5075 19.8157 73.619 20.0509 73.5913 20.8258L73.4937 20.3138C73.4521 20.037 73.3129 19.705 73.2022 19.5804C73.0906 19.4559 72.7708 19.3036 72.5066 19.2483C72.0616 19.1376 72.0476 19.1238 72.4092 19.1099ZM63.3842 14.0454L63.4676 15.3599L67.848 15.443L63.3286 15.4983L63.3842 14.0454Z" fill="#41B883"/>
</g>
<defs>
<clipPath id="clip0_337_2877">
<rect width="86" height="30" fill="white"/>
</clipPath>
</defs>
</svg>
