<svg width="112" height="39" viewBox="0 0 112 39" fill="none" xmlns="http://www.w3.org/2000/svg">
<g clip-path="url(#clip0_337_2863)">
<path d="M17.3148 18.1602C17.0878 18.3502 17.0498 16.9242 17.0498 9.26318V0.138184H21.0278C24.1158 0.138184 24.9878 0.195184 24.9308 0.366184C24.8928 0.499184 23.6418 3.48418 22.1648 6.98218L18.5088 15.6322C17.9968 16.8862 17.4478 18.0272 17.3148 18.1602Z" fill="#1867C0"/>
<path d="M7.37 20.4399C3.314 12.5139 0 5.95586 0 5.84186C0 5.72786 1.61 5.65186 8.904 5.65186L9.359 6.63986C9.624 7.19186 11.424 11.3169 16.955 23.9959L17.05 31.4479C17.107 36.2959 17.088 38.8809 16.955 38.8619C16.861 38.8429 16.311 37.9309 15.743 36.8279C15.193 35.7259 11.405 28.3499 7.369 20.4419L7.37 20.4399Z" fill="#7BC6FF"/>
<path d="M12.9781 9.64318C10.9131 4.77718 9.1881 0.651184 9.1321 0.480184V0.461184C9.0371 0.157184 9.3221 0.138184 17.0511 0.138184V9.30118C17.0511 15.3082 17.1271 18.3882 17.2411 18.1982C17.3351 18.0462 17.4301 17.9882 17.4301 18.1032C17.4301 18.1982 17.3541 18.3882 17.2781 18.5212C17.2021 18.6542 17.0511 18.6912 16.9381 18.6162C16.8051 18.5402 15.0241 14.5102 12.9781 9.64318Z" fill="#1697F6"/>
<path d="M20.9518 15.1559C23.1118 10.1939 24.9498 6.01188 25.0438 5.89788V5.87888C25.1958 5.70788 26.3328 5.65088 29.5718 5.65088C31.9588 5.65088 33.9478 5.70788 33.9858 5.78388C34.0428 5.87888 30.3108 13.3119 25.7068 22.3229C21.1038 31.3529 17.2768 38.7279 17.2008 38.7279C17.1068 38.7279 17.0498 35.4579 17.0498 24.1859L20.9518 15.1559Z" fill="#AEDDFF"/>
<path fill-rule="evenodd" clip-rule="evenodd" d="M84.7392 10.7842C84.8142 10.7842 85.0992 10.8982 85.3832 11.0502C85.6862 11.1832 85.9702 11.4492 86.0462 11.6202C86.1412 11.7912 86.1972 12.0952 86.1972 12.3052C86.1972 12.5142 86.0272 12.8552 85.8182 13.0652C85.5912 13.2932 85.1932 13.4452 84.8142 13.4452C84.4922 13.4452 84.1142 13.3692 84.0002 13.2932C83.8862 13.2172 83.6972 12.9702 83.5642 12.7232C83.441 12.4424 83.4017 12.1318 83.4512 11.8292C83.5072 11.5632 83.7732 11.2212 84.0572 11.0692C84.3602 10.9172 84.6442 10.8032 84.7202 10.7842H84.7392ZM98.1892 11.5642C98.8438 11.5582 99.4975 11.6151 100.141 11.7342C100.69 11.8482 100.993 12.0192 100.993 12.2092C100.993 12.3612 100.879 12.7042 100.747 12.9692C100.633 13.2362 100.482 13.4452 100.425 13.4452C100.368 13.4452 99.8562 13.3692 99.2882 13.2552C98.5932 13.1282 98.0062 13.1282 97.5262 13.2552C97.1472 13.3692 96.7312 13.6162 96.6362 13.8252C96.5222 14.0352 96.4462 14.7192 96.4462 16.4872H98.0562C99.6482 16.4872 99.6672 16.4872 99.6672 16.9622C99.6672 17.2282 99.6292 17.5702 99.5722 17.7222C99.4962 17.9502 99.1362 18.0072 96.4462 18.0072V25.6112H94.3622V18.0072H92.0902V16.4872H94.3632V15.2502C94.3632 14.4702 94.4772 13.7672 94.6862 13.3302C94.8752 12.9302 95.2922 12.4562 95.5952 12.2472C95.9135 12.0176 96.2648 11.8379 96.6372 11.7142C96.9022 11.6382 97.6032 11.5622 98.1902 11.5622L98.1892 11.5642ZM34.3652 12.6842H36.6762L38.1732 18.0642C38.9882 21.0112 39.7082 23.3302 39.7832 23.2352C39.8592 23.1402 40.4462 21.1632 41.0902 18.8632C41.7352 16.5632 42.3792 14.2252 42.8332 12.6852H43.8752C44.5762 12.6852 44.9172 12.7612 44.9172 12.9322C44.9172 13.0462 44.0272 15.9352 40.9962 25.5162H38.4002L37.0172 21.1442C36.2602 18.7302 35.3502 15.8592 34.9902 14.7192L34.3652 12.6852V12.6842ZM73.2962 13.2932C73.4662 13.2742 73.5422 13.6162 73.5422 15.7262H75.2482C76.6682 15.7262 76.9332 15.7832 76.8582 16.0112C76.8012 16.1832 76.7632 16.5252 76.7632 16.7712C76.7632 17.2472 76.7442 17.2472 73.5432 17.2472L73.5232 20.2512C73.5232 22.8552 73.5612 23.3112 73.8652 23.6912C74.0732 23.9582 74.4712 24.1672 74.9632 24.2242C75.4372 24.3002 75.9672 24.2242 77.1422 23.7102L77.9002 25.2312L76.9902 25.5732C76.4602 25.7632 75.5892 25.8972 74.8692 25.8972C74.1112 25.8772 73.3912 25.7642 73.0122 25.5542C72.6712 25.3842 72.1972 24.9652 71.9702 24.6232C71.5722 24.0532 71.5342 23.7862 71.4592 17.2472H69.1852V15.7272H71.4592V13.4452L72.2542 13.3882C72.6902 13.3502 73.1642 13.3122 73.2962 13.2932ZM62.4032 15.5552C63.0092 15.5552 63.7672 15.6692 64.1082 15.8212C64.4492 15.9542 64.9802 16.3162 65.2832 16.6202C65.5862 16.9242 66.0032 17.5512 66.2112 18.0072C66.4382 18.5402 66.5902 19.3572 66.6282 21.3342L63.3502 21.3912C60.3762 21.4292 60.0922 21.4672 60.0922 21.7712C60.0922 21.9612 60.2432 22.4372 60.4322 22.8552C60.6602 23.3872 60.9822 23.7302 61.4752 23.9582C61.8542 24.1482 62.4792 24.2812 62.8772 24.2812C63.2752 24.2812 63.9752 24.1102 64.4492 23.9012C64.9042 23.6912 65.3392 23.5212 65.3962 23.5212C65.4342 23.5212 65.6242 23.7862 65.8132 24.0912C66.0782 24.5662 66.0972 24.7182 65.9082 24.9652C65.7752 25.1362 65.0742 25.4402 64.3542 25.6692C63.3882 25.9542 62.7642 26.0292 62.0812 25.9352C61.5512 25.8782 60.7362 25.6122 60.2812 25.3832C59.7132 25.0982 59.2012 24.6232 58.8042 23.9962C58.4632 23.4822 58.0842 22.5892 57.9702 22.0002C57.8562 21.4302 57.8192 20.5742 57.8942 20.0992C57.9512 19.6422 58.1222 18.9202 58.2352 18.5212C58.3682 18.1022 58.7652 17.4182 59.1452 17.0002C59.5052 16.5822 60.1492 16.0872 60.5652 15.8972C61.0012 15.6882 61.7782 15.5552 62.4032 15.5552ZM60.6232 18.0082C60.4332 18.2742 60.2062 18.8062 60.1302 19.2052L59.9972 19.9282C64.5822 19.9282 64.6392 19.9082 64.6202 19.4902C64.6202 19.2622 64.4682 18.7102 64.2602 18.2932C64.0512 17.8742 63.6722 17.4372 63.4072 17.3042C63.0906 17.1636 62.7495 17.0861 62.4032 17.0762C62.1192 17.0762 61.6832 17.1712 61.4182 17.3042C61.1722 17.4372 60.8132 17.7602 60.6232 18.0082ZM47.0202 15.7262H49.0852L49.1422 19.7372C49.1802 23.5012 49.2182 23.7672 49.5782 24.0152C49.7862 24.1672 50.2222 24.3002 50.5632 24.3002C50.9032 24.3002 51.4342 24.1672 51.7562 23.9962C52.0592 23.8442 52.4382 23.5202 52.6092 23.2922C52.8362 22.9502 52.8932 22.1712 52.8932 15.7262H54.9772V25.6112H54.0302C53.1402 25.6112 53.0822 25.5932 53.0822 25.1362C53.0822 24.8892 53.0262 24.6612 52.9882 24.6612C52.9312 24.6612 52.6082 24.8712 52.2682 25.1362C51.9272 25.3832 51.2642 25.6882 50.8092 25.8022C50.3362 25.9352 49.6542 25.9722 49.2942 25.9162C48.9142 25.8592 48.3652 25.6112 48.0622 25.3832C47.7592 25.1552 47.3992 24.6802 47.2662 24.3382C47.0772 23.9012 47.0202 22.6082 47.0202 19.7182V15.7262ZM81.3102 15.7262H86.2352V24.0912H88.8882V25.6112H81.1202L81.2152 24.1862L84.1512 24.0912V17.2472H81.3102V15.7272V15.7262ZM104.896 15.7262L105.71 18.5402C106.146 20.0802 106.695 21.9422 106.904 22.6652C107.112 23.4062 107.358 23.9202 107.434 23.8052C107.51 23.7102 107.908 22.5512 108.287 21.2392C108.666 19.9462 109.196 18.1592 109.916 15.7262H110.958C111.526 15.7262 112 15.8212 112 15.9162C112 16.0302 111.204 18.3692 110.257 21.1062C109.31 23.8432 108.344 26.4862 108.116 26.9422C107.87 27.4172 107.321 28.1212 106.904 28.5202C106.371 29.0051 105.727 29.3513 105.028 29.5282C104.119 29.7942 103.911 29.7942 103.797 29.5842C103.721 29.4512 103.664 29.1282 103.664 28.9002C103.664 28.6722 103.664 28.4062 103.683 28.3302C103.683 28.2542 104.062 28.0832 104.479 27.9502C104.915 27.8172 105.464 27.5122 105.71 27.2842C105.993 27.0071 106.23 26.6863 106.411 26.3342C106.563 26.0492 106.695 25.7642 106.695 25.7062C106.695 25.6692 106.525 25.6112 106.316 25.6112C106.108 25.6112 105.938 25.5932 105.938 25.5732C105.938 25.5542 105.199 23.3492 104.308 20.6692C103.437 18.0072 102.698 15.8022 102.698 15.7832C102.698 15.7642 103.191 15.7262 104.896 15.7262Z" fill="black"/>
</g>
<defs>
<clipPath id="clip0_337_2863">
<rect width="112" height="39" fill="white"/>
</clipPath>
</defs>
</svg>
