<svg width="157" height="37" viewBox="0 0 157 37" fill="none" xmlns="http://www.w3.org/2000/svg">
<path d="M60.3428 17.9344L58.5732 24.2975H56.7315L54.2686 14.9803H56.2909L57.7571 21.7262H57.8076L59.5483 14.9803H61.195L62.9357 21.7262H62.9862L64.4596 14.9803H66.482L64.0118 24.2975H62.1701L60.4005 17.9344H60.3428ZM69.1688 23.0407C69.9849 23.0407 70.6639 22.5063 70.6639 21.7551V21.2495L69.2049 21.3362C68.5043 21.3868 68.0998 21.7046 68.0998 22.1957C68.0998 22.723 68.526 23.0407 69.1688 23.0407ZM68.5476 24.4058C67.2331 24.4058 66.2292 23.5536 66.2292 22.3113C66.2292 21.0545 67.197 20.3251 68.9232 20.2167L70.6639 20.1156V19.6606C70.6639 19.0178 70.2088 18.6422 69.501 18.6422C68.8004 18.6422 68.3526 18.9889 68.2587 19.5017H66.5325C66.6048 18.1583 67.7459 17.2338 69.5805 17.2338C71.3572 17.2338 72.5128 18.1511 72.5128 19.545V24.3047H70.6927V23.243H70.6566C70.2666 23.9725 69.4143 24.4058 68.5476 24.4058ZM73.7768 14.9803H75.6619V24.2975H73.7768V14.9803ZM76.9764 14.9803H78.8615V24.2975H76.9764V14.9803ZM83.2384 18.6205C82.415 18.6205 81.8155 19.2489 81.7505 20.1084H84.6901C84.654 19.2272 84.0762 18.6205 83.2384 18.6205ZM84.719 22.1813H86.4525C86.243 23.5391 85.0079 24.4492 83.2962 24.4492C81.1655 24.4492 79.8871 23.0841 79.8871 20.874C79.8871 18.6639 81.18 17.2338 83.224 17.2338C85.2391 17.2338 86.5102 18.5989 86.5102 20.7006V21.2784H81.7433V21.394C81.7433 22.3835 82.3717 23.0624 83.3323 23.0624C84.0112 23.048 84.5385 22.7085 84.719 22.1813ZM87.9764 15.782H89.8615V17.3782H91.1399V18.8011H89.8615V22.109C89.8615 22.6363 90.1215 22.8891 90.6777 22.8891C90.8438 22.8891 91.0171 22.8746 91.1327 22.8602V24.2469C90.9377 24.2903 90.6127 24.3264 90.2371 24.3264C88.612 24.3264 87.9764 23.7847 87.9764 22.4341V18.8011H87.0014V17.3782H87.9764V15.782ZM96.4485 24.4564C93.7401 24.4564 92.0427 22.6435 92.0427 19.6317C92.0427 16.6271 93.7545 14.8142 96.4485 14.8142C98.6875 14.8142 100.392 16.2371 100.544 18.3172H98.6442C98.4636 17.176 97.5825 16.4248 96.4485 16.4248C94.9751 16.4248 94.029 17.6599 94.029 19.6172C94.029 21.6035 94.9679 22.8313 96.4558 22.8313C97.6114 22.8313 98.442 22.1524 98.6514 21.0473H100.551C100.327 23.1419 98.7381 24.4564 96.4485 24.4564ZM104.762 24.4419C102.667 24.4419 101.331 23.0985 101.331 20.8306C101.331 18.5916 102.689 17.2266 104.762 17.2266C106.835 17.2266 108.192 18.5844 108.192 20.8306C108.192 23.1058 106.856 24.4419 104.762 24.4419ZM104.762 23.0046C105.686 23.0046 106.271 22.2246 106.271 20.8379C106.271 19.4656 105.679 18.6711 104.762 18.6711C103.844 18.6711 103.245 19.4656 103.245 20.8379C103.245 22.2246 103.837 23.0046 104.762 23.0046ZM109.16 24.2975V17.3782H110.98V18.6133H111.017C111.385 17.7538 112.114 17.2482 113.183 17.2482C114.722 17.2482 115.581 18.2161 115.581 19.8339V24.2975H113.696V20.2312C113.696 19.3283 113.27 18.8083 112.425 18.8083C111.58 18.8083 111.045 19.4295 111.045 20.3251V24.2975H109.16ZM116.773 24.2975V17.3782H118.593V18.6133H118.629C118.997 17.7538 119.727 17.2482 120.789 17.2482C122.327 17.2482 123.187 18.2161 123.187 19.8339V24.2975H121.301V20.2312C121.301 19.3283 120.875 18.8083 120.03 18.8083C119.185 18.8083 118.651 19.4295 118.651 20.3251V24.2975H116.773ZM127.498 18.6205C126.675 18.6205 126.076 19.2489 126.011 20.1084H128.95C128.914 19.2272 128.336 18.6205 127.498 18.6205ZM128.972 22.1813H130.705C130.496 23.5391 129.261 24.4492 127.549 24.4492C125.418 24.4492 124.14 23.0841 124.14 20.874C124.14 18.6639 125.433 17.2338 127.477 17.2338C129.492 17.2338 130.763 18.5989 130.763 20.7006V21.2784H125.996V21.394C125.996 22.3835 126.625 23.0624 127.585 23.0624C128.271 23.048 128.799 22.7085 128.972 22.1813ZM138.015 19.9495H136.267C136.158 19.22 135.674 18.7072 134.902 18.7072C133.97 18.7072 133.392 19.4945 133.392 20.8306C133.392 22.1957 133.97 22.9685 134.909 22.9685C135.667 22.9685 136.151 22.5135 136.274 21.7623H138.029C137.935 23.3947 136.715 24.4492 134.894 24.4492C132.807 24.4492 131.485 23.0913 131.485 20.8379C131.485 18.6205 132.807 17.2338 134.88 17.2338C136.743 17.2266 137.935 18.3822 138.015 19.9495ZM139.437 15.782H141.323V17.3782H142.601V18.8011H141.323V22.109C141.323 22.6363 141.583 22.8891 142.139 22.8891C142.305 22.8891 142.478 22.8746 142.594 22.8602V24.2469C142.399 24.2903 142.081 24.3264 141.698 24.3264C140.073 24.3264 139.437 23.7847 139.437 22.4341V18.8011H138.462V17.3782H139.437V15.782Z" fill="#3999FA"/>
<path d="M20.8382 10.5418C26.4213 5.07429 35.4712 5.07429 41.0615 10.5418L41.7332 11.199C42.0149 11.4735 42.0149 11.9141 41.7332 12.1885L39.4364 14.442C39.2992 14.5792 39.068 14.5792 38.9308 14.442L38.0063 13.5392C34.1133 9.72564 27.7936 9.72564 23.9006 13.5392L22.9111 14.507C22.7738 14.6442 22.5427 14.6442 22.4055 14.507L20.1015 12.2535C19.8198 11.9791 19.8198 11.5385 20.1015 11.2641L20.8382 10.5418ZM45.8139 15.1931L47.8579 17.1938C48.1396 17.4683 48.1396 17.9088 47.8579 18.1833L38.6347 27.2188C38.353 27.4932 37.9052 27.4932 37.6235 27.2188L31.0726 20.8051C31.0004 20.7401 30.892 20.7401 30.8198 20.8051L24.2761 27.2188C23.9945 27.4932 23.5467 27.4932 23.265 27.2188L14.0345 18.1905C13.7528 17.9161 13.7528 17.4755 14.0345 17.201L16.0785 15.2004C16.3602 14.9259 16.808 14.9259 17.0897 15.2004L23.6406 21.614C23.7128 21.679 23.8211 21.679 23.8934 21.614L30.437 15.2004C30.7187 14.9259 31.1665 14.9259 31.4482 15.2004L37.9991 21.614C38.0713 21.679 38.1797 21.679 38.2519 21.614L44.8028 15.2004C45.0772 14.9187 45.5323 14.9187 45.8139 15.1931Z" fill="#3A99FB"/>
</svg>
