<svg width="69" height="27" viewBox="0 0 69 27" fill="none" xmlns="http://www.w3.org/2000/svg">
<path d="M26.6769 10.5793L28.6778 18.3718L30.9183 10.5793H33.0602L35.1738 18.3718L37.2593 10.5793H38.8375L36.1461 19.9782H34.1452L31.9329 11.8757L29.636 19.9782H27.6069L25 10.5793H26.6769Z" fill="#12141D"/>
<path d="M41.2486 15.7367C41.3049 16.5117 41.3895 16.9062 41.6431 17.3994C42.1081 18.2872 43.165 18.8649 44.2218 18.8649C45.5041 18.8649 46.3355 18.259 46.6878 17.0612H48.4351C47.9982 19.0904 46.4623 20.2177 44.1936 20.2177C41.3613 20.2177 39.5576 18.2731 39.5576 15.2294C39.5576 12.2561 41.3613 10.2693 44.0527 10.2693C46.9132 10.2693 48.4632 12.2139 48.4632 15.7085H41.2486V15.7367ZM46.2932 12.8621C45.8564 12.1152 44.9686 11.6643 44.0527 11.6643C42.4745 11.6643 41.474 12.6648 41.2767 14.4685H46.7441C46.6596 13.6371 46.5468 13.2425 46.2932 12.8621Z" fill="#12141D"/>
<path d="M50.0395 7H51.6459V11.9883C52.3082 10.8751 53.2241 10.3537 54.5628 10.3537C56.8878 10.3537 58.5506 12.3828 58.5506 15.2856C58.5506 18.1884 56.9723 20.1612 54.5768 20.1612C53.2664 20.1612 52.4068 19.6398 51.5754 18.4139V19.9639H50.0254V7H50.0395ZM51.6741 15.2433C51.6741 17.3007 52.8436 18.8225 54.3655 18.8225C55.831 18.8225 56.8032 17.4416 56.8032 15.2997C56.8032 13.0592 55.831 11.6642 54.3091 11.6642C52.7873 11.6642 51.6741 13.1297 51.6741 15.2433Z" fill="#12141D"/>
<path d="M61.4678 16.0184C61.4396 17.6812 62.4964 18.7662 64.1592 18.7662C65.6529 18.7662 66.7379 17.8221 66.7379 16.5257C66.7379 15.2012 65.7092 14.3839 64.0465 14.3839C63.8774 14.3839 63.7365 14.3839 63.4969 14.412V12.9747C63.6942 12.9747 63.8069 12.9747 63.9196 12.9747C65.6388 12.9747 66.6392 12.2279 66.6392 10.8892C66.6392 9.63513 65.6669 8.83194 64.2015 8.83194C62.6233 8.83194 61.7073 9.77605 61.651 11.4388H59.9318C60.0446 8.86012 61.6228 7.36646 64.2296 7.36646C66.6392 7.36646 68.3302 8.74739 68.3302 10.7483C68.3302 12.0729 67.3861 13.2988 66.1179 13.637C67.6679 14.0316 68.4993 15.0743 68.4993 16.6385C68.4993 18.7521 66.6956 20.2458 64.1451 20.2458C61.4819 20.2458 59.6782 18.5267 59.7064 16.0325C59.6923 16.0184 61.4678 16.0184 61.4678 16.0184Z" fill="#12141D"/>
<path d="M13.0922 8.49798V6.55938C13.0922 5.85564 12.6673 5.23157 12.0167 4.95273L0 0V1.07553L10.7154 5.49713C11.0872 5.64319 11.0872 6.17431 10.7154 6.32037L0 10.742V15.0574L6.45316 12.3885L10.7021 14.1412C11.0739 14.2872 11.0739 14.8184 10.7021 14.9644L0 19.386V26.2242L12.0167 21.2715C12.6673 21.0059 13.0922 20.3686 13.0922 19.6649V15.2167C13.0922 14.513 12.6673 13.8889 12.0167 13.61L7.75441 11.8573L12.0167 10.1046C12.6673 9.83907 13.0922 9.20172 13.0922 8.49798Z" fill="#12141D"/>
</svg>
