<svg width="180" height="60" viewBox="0 0 180 60" fill="none" xmlns="http://www.w3.org/2000/svg">
<path d="M90.4219 36L93.7764 30.7046V30.646L90.4438 25.4312H93.0439L95.2852 29.2397H95.3438L97.6069 25.4312H100.075L96.6182 30.6899V30.7412L100.031 36H97.5117L95.1973 32.3013H95.1387L92.8096 36H90.4219ZM101.269 25.4312H105.305C108.476 25.4312 110.344 27.3208 110.344 30.6753C110.344 34.0298 108.476 36 105.305 36H101.269V25.4312ZM103.481 27.2549V34.1689H105.041C107.019 34.1689 108.088 32.9678 108.088 30.6826C108.088 28.4707 106.989 27.2549 105.041 27.2549H103.481Z" fill="black"/>
<path d="M31.994 11.876H55.9968C59.64 11.876 62.584 14.82 62.584 18.4632V41.5368C62.584 45.18 59.64 48.1148 56.006 48.1148H31.994C28.36 48.124 25.416 45.18 25.416 41.5368V18.4632C25.416 14.82 28.36 11.876 31.994 11.876Z" fill="#470137"/>
<path d="M44.9571 21.4073L40.3111 29.0709L45.2699 37.2037C45.2975 37.2681 45.3159 37.3233 45.2975 37.3877C45.2791 37.4521 45.2239 37.4061 45.1227 37.4153H41.5807C41.3323 37.4153 41.1667 37.3969 41.0563 37.2405C40.7343 36.5873 40.3939 35.9525 40.0627 35.3085C39.7407 34.6737 39.3819 34.0205 39.0139 33.3581C38.6459 32.6957 38.2687 32.0241 37.9007 31.3433H37.8731C37.5511 32.0057 37.1923 32.6773 36.8335 33.3397C36.4747 34.0021 36.1251 34.6737 35.7847 35.3177C35.4259 35.9709 35.0763 36.6333 34.7175 37.2681C34.6531 37.4245 34.5335 37.4429 34.3587 37.4429H30.9547C30.8903 37.4429 30.8443 37.4705 30.8443 37.3969C30.8259 37.3325 30.8443 37.2773 30.8719 37.2221L35.6927 29.3285L31.0007 21.3797C30.9547 21.3153 30.9363 21.2601 30.9731 21.2233C31.0007 21.1773 31.0651 21.1589 31.1295 21.1589H34.6439C34.7175 21.1589 34.8003 21.1773 34.8647 21.1865C34.9291 21.2141 34.9751 21.2601 35.0211 21.3245C35.3155 21.9869 35.6559 22.6585 36.0147 23.3209C36.3827 23.9833 36.7415 24.6365 37.1279 25.2897C37.4959 25.9429 37.8363 26.5869 38.1675 27.2585H38.1951C38.5171 26.5777 38.8575 25.9153 39.1979 25.2621C39.5383 24.6089 39.8971 23.9649 40.2467 23.3117C40.6055 22.6585 40.9459 21.9961 41.2863 21.3613C41.3047 21.2969 41.3323 21.2417 41.3783 21.2049C41.4427 21.1773 41.4979 21.1589 41.5807 21.1773H44.8467C44.9203 21.1589 45.0031 21.2049 45.0215 21.2877C45.0215 21.3153 44.9939 21.3705 44.9571 21.4073Z" fill="#FF61F6"/>
<path d="M52.1144 37.7465C50.9644 37.7649 49.8236 37.5257 48.784 37.0473C47.8088 36.5965 46.9992 35.8513 46.4472 34.9405C45.8768 33.9929 45.5916 32.8153 45.5916 31.4077C45.5732 30.2577 45.8676 29.1353 46.4472 28.1417C47.036 27.1389 47.8916 26.3017 48.9128 25.7405C49.9984 25.1333 51.2956 24.8389 52.832 24.8389C52.9056 24.8389 53.016 24.8389 53.154 24.8573C53.292 24.8757 53.4484 24.8757 53.6324 24.8849V19.9905C53.6324 19.8801 53.6784 19.8157 53.7888 19.8157H56.9352C57.0088 19.7973 57.0732 19.8617 57.0916 19.9261C57.0916 19.9445 57.0916 19.9537 57.0916 19.9537V34.7013C57.0916 34.9773 57.11 35.2901 57.1192 35.6305C57.1468 35.9525 57.1652 36.2653 57.1836 36.5321C57.1836 36.6425 57.1376 36.7345 57.0272 36.7805C56.2176 37.1209 55.3712 37.3693 54.5064 37.5257C53.706 37.6637 52.924 37.7465 52.1144 37.7465ZM53.6324 34.6461V27.8289C53.4944 27.8013 53.3564 27.7645 53.2184 27.7553C53.0436 27.7369 52.878 27.7277 52.7032 27.7277C52.096 27.7277 51.498 27.8473 50.9552 28.1325C50.4308 28.3993 49.98 28.7857 49.6396 29.2825C49.2992 29.7793 49.1244 30.4417 49.1244 31.2513C49.106 31.7941 49.198 32.3369 49.3912 32.8429C49.5476 33.2569 49.7776 33.6341 50.0904 33.9469C50.3848 34.2229 50.7436 34.4437 51.1392 34.5633C51.5532 34.7013 51.9948 34.7657 52.4272 34.7657C52.6572 34.7657 52.878 34.7473 53.0804 34.7381C53.2736 34.7381 53.4484 34.7105 53.6324 34.6461Z" fill="#FF61F6"/>
</svg>
